%TF.GenerationSoftware,KiCad,Pcbnew,(5.1.12)-1*%
%TF.CreationDate,2022-12-05T14:55:24+01:00*%
%TF.ProjectId,atonceplus,61746f6e-6365-4706-9c75-732e6b696361,rev?*%
%TF.SameCoordinates,Original*%
%TF.FileFunction,Paste,Top*%
%TF.FilePolarity,Positive*%
%FSLAX46Y46*%
G04 Gerber Fmt 4.6, Leading zero omitted, Abs format (unit mm)*
G04 Created by KiCad (PCBNEW (5.1.12)-1) date 2022-12-05 14:55:24*
%MOMM*%
%LPD*%
G01*
G04 APERTURE LIST*
%ADD10R,1.525000X0.600000*%
%ADD11R,0.600000X1.525000*%
%ADD12R,0.600000X1.950000*%
%ADD13R,0.700000X1.925000*%
%ADD14R,1.925000X0.700000*%
%ADD15R,1.950000X0.650000*%
%ADD16R,0.650000X1.950000*%
%ADD17R,0.650000X1.525000*%
G04 APERTURE END LIST*
D10*
%TO.C,U35*%
X146608000Y-44205000D03*
X146608000Y-45475000D03*
X146608000Y-46745000D03*
X146608000Y-48015000D03*
X146608000Y-49285000D03*
X146608000Y-50555000D03*
X146608000Y-51825000D03*
X146608000Y-53095000D03*
X152032000Y-53095000D03*
X152032000Y-51825000D03*
X152032000Y-50555000D03*
X152032000Y-49285000D03*
X152032000Y-48015000D03*
X152032000Y-46745000D03*
X152032000Y-45475000D03*
X152032000Y-44205000D03*
%TD*%
%TO.C,U36*%
X108642000Y-48045000D03*
X108642000Y-49315000D03*
X108642000Y-50585000D03*
X108642000Y-51855000D03*
X108642000Y-53125000D03*
X108642000Y-54395000D03*
X108642000Y-55665000D03*
X108642000Y-56935000D03*
X103218000Y-56935000D03*
X103218000Y-55665000D03*
X103218000Y-54395000D03*
X103218000Y-53125000D03*
X103218000Y-51855000D03*
X103218000Y-50585000D03*
X103218000Y-49315000D03*
X103218000Y-48045000D03*
%TD*%
D11*
%TO.C,U37*%
X124435000Y-105052000D03*
X125705000Y-105052000D03*
X126975000Y-105052000D03*
X128245000Y-105052000D03*
X129515000Y-105052000D03*
X130785000Y-105052000D03*
X132055000Y-105052000D03*
X133325000Y-105052000D03*
X133325000Y-99628000D03*
X132055000Y-99628000D03*
X130785000Y-99628000D03*
X129515000Y-99628000D03*
X128245000Y-99628000D03*
X126975000Y-99628000D03*
X125705000Y-99628000D03*
X124435000Y-99628000D03*
%TD*%
%TO.C,U43*%
X124460000Y-115852000D03*
X125730000Y-115852000D03*
X127000000Y-115852000D03*
X128270000Y-115852000D03*
X129540000Y-115852000D03*
X130810000Y-115852000D03*
X132080000Y-115852000D03*
X132080000Y-110428000D03*
X130810000Y-110428000D03*
X129540000Y-110428000D03*
X128270000Y-110428000D03*
X127000000Y-110428000D03*
X125730000Y-110428000D03*
X124460000Y-110428000D03*
%TD*%
D12*
%TO.C,U21*%
X124475000Y-53355000D03*
X125745000Y-53355000D03*
X127015000Y-53355000D03*
X128285000Y-53355000D03*
X129555000Y-53355000D03*
X130825000Y-53355000D03*
X132095000Y-53355000D03*
X133365000Y-53355000D03*
X134635000Y-53355000D03*
X135905000Y-53355000D03*
X135905000Y-43905000D03*
X134635000Y-43905000D03*
X133365000Y-43905000D03*
X132095000Y-43905000D03*
X130825000Y-43905000D03*
X129555000Y-43905000D03*
X128285000Y-43905000D03*
X127015000Y-43905000D03*
X125745000Y-43905000D03*
X124475000Y-43905000D03*
%TD*%
D11*
%TO.C,U15*%
X184470000Y-108652000D03*
X185740000Y-108652000D03*
X187010000Y-108652000D03*
X188280000Y-108652000D03*
X189550000Y-108652000D03*
X190820000Y-108652000D03*
X192090000Y-108652000D03*
X192090000Y-103228000D03*
X190820000Y-103228000D03*
X189550000Y-103228000D03*
X188280000Y-103228000D03*
X187010000Y-103228000D03*
X185740000Y-103228000D03*
X184470000Y-103228000D03*
%TD*%
%TO.C,U45*%
X184470000Y-121032000D03*
X185740000Y-121032000D03*
X187010000Y-121032000D03*
X188280000Y-121032000D03*
X189550000Y-121032000D03*
X190820000Y-121032000D03*
X192090000Y-121032000D03*
X192090000Y-115608000D03*
X190820000Y-115608000D03*
X189550000Y-115608000D03*
X188280000Y-115608000D03*
X187010000Y-115608000D03*
X185740000Y-115608000D03*
X184470000Y-115608000D03*
%TD*%
%TO.C,U28*%
X184480000Y-128138000D03*
X185750000Y-128138000D03*
X187020000Y-128138000D03*
X188290000Y-128138000D03*
X189560000Y-128138000D03*
X190830000Y-128138000D03*
X192100000Y-128138000D03*
X192100000Y-133562000D03*
X190830000Y-133562000D03*
X189560000Y-133562000D03*
X188290000Y-133562000D03*
X187020000Y-133562000D03*
X185750000Y-133562000D03*
X184480000Y-133562000D03*
%TD*%
D13*
%TO.C,U13*%
X158250000Y-87902500D03*
X159520000Y-87902500D03*
X160790000Y-87902500D03*
X162060000Y-87902500D03*
X163330000Y-87902500D03*
X164600000Y-87902500D03*
X165870000Y-87902500D03*
X167140000Y-87902500D03*
X168410000Y-87902500D03*
X156980000Y-87902500D03*
X155710000Y-87902500D03*
X154440000Y-87902500D03*
X153170000Y-87902500D03*
X151900000Y-87902500D03*
X150630000Y-87902500D03*
X149360000Y-87902500D03*
X148090000Y-87902500D03*
D14*
X169922500Y-86390000D03*
X169922500Y-85120000D03*
X169922500Y-83850000D03*
X169922500Y-82580000D03*
X169922500Y-81310000D03*
X169922500Y-80040000D03*
X169922500Y-78770000D03*
X169922500Y-77500000D03*
X169922500Y-76230000D03*
X169922500Y-74960000D03*
X169922500Y-73690000D03*
X169922500Y-72420000D03*
X169922500Y-71150000D03*
X169922500Y-69880000D03*
X169922500Y-68610000D03*
X169922500Y-67340000D03*
X169922500Y-66070000D03*
D13*
X168410000Y-64557500D03*
X167140000Y-64557500D03*
X165870000Y-64557500D03*
X164600000Y-64557500D03*
X163330000Y-64557500D03*
X162060000Y-64557500D03*
X160790000Y-64557500D03*
X159520000Y-64557500D03*
X158250000Y-64557500D03*
X156980000Y-64557500D03*
X155710000Y-64557500D03*
X154440000Y-64557500D03*
X153170000Y-64557500D03*
X151900000Y-64557500D03*
X150630000Y-64557500D03*
X149360000Y-64557500D03*
X148090000Y-64557500D03*
D14*
X146577500Y-66070000D03*
X146577500Y-67340000D03*
X146577500Y-68610000D03*
X146577500Y-69880000D03*
X146577500Y-71150000D03*
X146577500Y-72420000D03*
X146577500Y-73690000D03*
X146577500Y-74960000D03*
X146577500Y-76230000D03*
X146577500Y-77500000D03*
X146577500Y-78770000D03*
X146577500Y-80040000D03*
X146577500Y-81310000D03*
X146577500Y-82580000D03*
X146577500Y-83850000D03*
X146577500Y-85120000D03*
X146577500Y-86390000D03*
%TD*%
%TO.C,C10*%
G36*
G01*
X86100000Y-40900000D02*
X88900000Y-40900000D01*
G75*
G02*
X89150000Y-41150000I0J-250000D01*
G01*
X89150000Y-42650000D01*
G75*
G02*
X88900000Y-42900000I-250000J0D01*
G01*
X86100000Y-42900000D01*
G75*
G02*
X85850000Y-42650000I0J250000D01*
G01*
X85850000Y-41150000D01*
G75*
G02*
X86100000Y-40900000I250000J0D01*
G01*
G37*
G36*
G01*
X86100000Y-47100000D02*
X88900000Y-47100000D01*
G75*
G02*
X89150000Y-47350000I0J-250000D01*
G01*
X89150000Y-48850000D01*
G75*
G02*
X88900000Y-49100000I-250000J0D01*
G01*
X86100000Y-49100000D01*
G75*
G02*
X85850000Y-48850000I0J250000D01*
G01*
X85850000Y-47350000D01*
G75*
G02*
X86100000Y-47100000I250000J0D01*
G01*
G37*
%TD*%
%TO.C,C11*%
G36*
G01*
X205260000Y-129350000D02*
X205260000Y-132150000D01*
G75*
G02*
X205010000Y-132400000I-250000J0D01*
G01*
X203510000Y-132400000D01*
G75*
G02*
X203260000Y-132150000I0J250000D01*
G01*
X203260000Y-129350000D01*
G75*
G02*
X203510000Y-129100000I250000J0D01*
G01*
X205010000Y-129100000D01*
G75*
G02*
X205260000Y-129350000I0J-250000D01*
G01*
G37*
G36*
G01*
X211460000Y-129350000D02*
X211460000Y-132150000D01*
G75*
G02*
X211210000Y-132400000I-250000J0D01*
G01*
X209710000Y-132400000D01*
G75*
G02*
X209460000Y-132150000I0J250000D01*
G01*
X209460000Y-129350000D01*
G75*
G02*
X209710000Y-129100000I250000J0D01*
G01*
X211210000Y-129100000D01*
G75*
G02*
X211460000Y-129350000I0J-250000D01*
G01*
G37*
%TD*%
%TO.C,C12*%
G36*
G01*
X88370000Y-54330001D02*
X88370000Y-53029999D01*
G75*
G02*
X88619999Y-52780000I249999J0D01*
G01*
X89270001Y-52780000D01*
G75*
G02*
X89520000Y-53029999I0J-249999D01*
G01*
X89520000Y-54330001D01*
G75*
G02*
X89270001Y-54580000I-249999J0D01*
G01*
X88619999Y-54580000D01*
G75*
G02*
X88370000Y-54330001I0J249999D01*
G01*
G37*
G36*
G01*
X85420000Y-54330001D02*
X85420000Y-53029999D01*
G75*
G02*
X85669999Y-52780000I249999J0D01*
G01*
X86320001Y-52780000D01*
G75*
G02*
X86570000Y-53029999I0J-249999D01*
G01*
X86570000Y-54330001D01*
G75*
G02*
X86320001Y-54580000I-249999J0D01*
G01*
X85669999Y-54580000D01*
G75*
G02*
X85420000Y-54330001I0J249999D01*
G01*
G37*
%TD*%
%TO.C,C13*%
G36*
G01*
X143560001Y-72425000D02*
X142259999Y-72425000D01*
G75*
G02*
X142010000Y-72175001I0J249999D01*
G01*
X142010000Y-71524999D01*
G75*
G02*
X142259999Y-71275000I249999J0D01*
G01*
X143560001Y-71275000D01*
G75*
G02*
X143810000Y-71524999I0J-249999D01*
G01*
X143810000Y-72175001D01*
G75*
G02*
X143560001Y-72425000I-249999J0D01*
G01*
G37*
G36*
G01*
X143560001Y-69475000D02*
X142259999Y-69475000D01*
G75*
G02*
X142010000Y-69225001I0J249999D01*
G01*
X142010000Y-68574999D01*
G75*
G02*
X142259999Y-68325000I249999J0D01*
G01*
X143560001Y-68325000D01*
G75*
G02*
X143810000Y-68574999I0J-249999D01*
G01*
X143810000Y-69225001D01*
G75*
G02*
X143560001Y-69475000I-249999J0D01*
G01*
G37*
%TD*%
%TO.C,C14*%
G36*
G01*
X145439999Y-96680000D02*
X146740001Y-96680000D01*
G75*
G02*
X146990000Y-96929999I0J-249999D01*
G01*
X146990000Y-97580001D01*
G75*
G02*
X146740001Y-97830000I-249999J0D01*
G01*
X145439999Y-97830000D01*
G75*
G02*
X145190000Y-97580001I0J249999D01*
G01*
X145190000Y-96929999D01*
G75*
G02*
X145439999Y-96680000I249999J0D01*
G01*
G37*
G36*
G01*
X145439999Y-93730000D02*
X146740001Y-93730000D01*
G75*
G02*
X146990000Y-93979999I0J-249999D01*
G01*
X146990000Y-94630001D01*
G75*
G02*
X146740001Y-94880000I-249999J0D01*
G01*
X145439999Y-94880000D01*
G75*
G02*
X145190000Y-94630001I0J249999D01*
G01*
X145190000Y-93979999D01*
G75*
G02*
X145439999Y-93730000I249999J0D01*
G01*
G37*
%TD*%
%TO.C,C15*%
G36*
G01*
X151810000Y-59530001D02*
X151810000Y-58229999D01*
G75*
G02*
X152059999Y-57980000I249999J0D01*
G01*
X152710001Y-57980000D01*
G75*
G02*
X152960000Y-58229999I0J-249999D01*
G01*
X152960000Y-59530001D01*
G75*
G02*
X152710001Y-59780000I-249999J0D01*
G01*
X152059999Y-59780000D01*
G75*
G02*
X151810000Y-59530001I0J249999D01*
G01*
G37*
G36*
G01*
X154760000Y-59530001D02*
X154760000Y-58229999D01*
G75*
G02*
X155009999Y-57980000I249999J0D01*
G01*
X155660001Y-57980000D01*
G75*
G02*
X155910000Y-58229999I0J-249999D01*
G01*
X155910000Y-59530001D01*
G75*
G02*
X155660001Y-59780000I-249999J0D01*
G01*
X155009999Y-59780000D01*
G75*
G02*
X154760000Y-59530001I0J249999D01*
G01*
G37*
%TD*%
%TO.C,C16*%
G36*
G01*
X130530000Y-60779999D02*
X130530000Y-62080001D01*
G75*
G02*
X130280001Y-62330000I-249999J0D01*
G01*
X129629999Y-62330000D01*
G75*
G02*
X129380000Y-62080001I0J249999D01*
G01*
X129380000Y-60779999D01*
G75*
G02*
X129629999Y-60530000I249999J0D01*
G01*
X130280001Y-60530000D01*
G75*
G02*
X130530000Y-60779999I0J-249999D01*
G01*
G37*
G36*
G01*
X133480000Y-60779999D02*
X133480000Y-62080001D01*
G75*
G02*
X133230001Y-62330000I-249999J0D01*
G01*
X132579999Y-62330000D01*
G75*
G02*
X132330000Y-62080001I0J249999D01*
G01*
X132330000Y-60779999D01*
G75*
G02*
X132579999Y-60530000I249999J0D01*
G01*
X133230001Y-60530000D01*
G75*
G02*
X133480000Y-60779999I0J-249999D01*
G01*
G37*
%TD*%
%TO.C,C17*%
G36*
G01*
X142179999Y-93730000D02*
X143480001Y-93730000D01*
G75*
G02*
X143730000Y-93979999I0J-249999D01*
G01*
X143730000Y-94630001D01*
G75*
G02*
X143480001Y-94880000I-249999J0D01*
G01*
X142179999Y-94880000D01*
G75*
G02*
X141930000Y-94630001I0J249999D01*
G01*
X141930000Y-93979999D01*
G75*
G02*
X142179999Y-93730000I249999J0D01*
G01*
G37*
G36*
G01*
X142179999Y-96680000D02*
X143480001Y-96680000D01*
G75*
G02*
X143730000Y-96929999I0J-249999D01*
G01*
X143730000Y-97580001D01*
G75*
G02*
X143480001Y-97830000I-249999J0D01*
G01*
X142179999Y-97830000D01*
G75*
G02*
X141930000Y-97580001I0J249999D01*
G01*
X141930000Y-96929999D01*
G75*
G02*
X142179999Y-96680000I249999J0D01*
G01*
G37*
%TD*%
%TO.C,C21*%
G36*
G01*
X121239999Y-42900000D02*
X122540001Y-42900000D01*
G75*
G02*
X122790000Y-43149999I0J-249999D01*
G01*
X122790000Y-43800001D01*
G75*
G02*
X122540001Y-44050000I-249999J0D01*
G01*
X121239999Y-44050000D01*
G75*
G02*
X120990000Y-43800001I0J249999D01*
G01*
X120990000Y-43149999D01*
G75*
G02*
X121239999Y-42900000I249999J0D01*
G01*
G37*
G36*
G01*
X121239999Y-45850000D02*
X122540001Y-45850000D01*
G75*
G02*
X122790000Y-46099999I0J-249999D01*
G01*
X122790000Y-46750001D01*
G75*
G02*
X122540001Y-47000000I-249999J0D01*
G01*
X121239999Y-47000000D01*
G75*
G02*
X120990000Y-46750001I0J249999D01*
G01*
X120990000Y-46099999D01*
G75*
G02*
X121239999Y-45850000I249999J0D01*
G01*
G37*
%TD*%
%TO.C,C22*%
G36*
G01*
X197130001Y-96850000D02*
X195829999Y-96850000D01*
G75*
G02*
X195580000Y-96600001I0J249999D01*
G01*
X195580000Y-95949999D01*
G75*
G02*
X195829999Y-95700000I249999J0D01*
G01*
X197130001Y-95700000D01*
G75*
G02*
X197380000Y-95949999I0J-249999D01*
G01*
X197380000Y-96600001D01*
G75*
G02*
X197130001Y-96850000I-249999J0D01*
G01*
G37*
G36*
G01*
X197130001Y-99800000D02*
X195829999Y-99800000D01*
G75*
G02*
X195580000Y-99550001I0J249999D01*
G01*
X195580000Y-98899999D01*
G75*
G02*
X195829999Y-98650000I249999J0D01*
G01*
X197130001Y-98650000D01*
G75*
G02*
X197380000Y-98899999I0J-249999D01*
G01*
X197380000Y-99550001D01*
G75*
G02*
X197130001Y-99800000I-249999J0D01*
G01*
G37*
%TD*%
%TO.C,C23*%
G36*
G01*
X121119999Y-98880000D02*
X122420001Y-98880000D01*
G75*
G02*
X122670000Y-99129999I0J-249999D01*
G01*
X122670000Y-99780001D01*
G75*
G02*
X122420001Y-100030000I-249999J0D01*
G01*
X121119999Y-100030000D01*
G75*
G02*
X120870000Y-99780001I0J249999D01*
G01*
X120870000Y-99129999D01*
G75*
G02*
X121119999Y-98880000I249999J0D01*
G01*
G37*
G36*
G01*
X121119999Y-101830000D02*
X122420001Y-101830000D01*
G75*
G02*
X122670000Y-102079999I0J-249999D01*
G01*
X122670000Y-102730001D01*
G75*
G02*
X122420001Y-102980000I-249999J0D01*
G01*
X121119999Y-102980000D01*
G75*
G02*
X120870000Y-102730001I0J249999D01*
G01*
X120870000Y-102079999D01*
G75*
G02*
X121119999Y-101830000I249999J0D01*
G01*
G37*
%TD*%
%TO.C,C24*%
G36*
G01*
X130530000Y-119369999D02*
X130530000Y-120670001D01*
G75*
G02*
X130280001Y-120920000I-249999J0D01*
G01*
X129629999Y-120920000D01*
G75*
G02*
X129380000Y-120670001I0J249999D01*
G01*
X129380000Y-119369999D01*
G75*
G02*
X129629999Y-119120000I249999J0D01*
G01*
X130280001Y-119120000D01*
G75*
G02*
X130530000Y-119369999I0J-249999D01*
G01*
G37*
G36*
G01*
X133480000Y-119369999D02*
X133480000Y-120670001D01*
G75*
G02*
X133230001Y-120920000I-249999J0D01*
G01*
X132579999Y-120920000D01*
G75*
G02*
X132330000Y-120670001I0J249999D01*
G01*
X132330000Y-119369999D01*
G75*
G02*
X132579999Y-119120000I249999J0D01*
G01*
X133230001Y-119120000D01*
G75*
G02*
X133480000Y-119369999I0J-249999D01*
G01*
G37*
%TD*%
%TO.C,C25*%
G36*
G01*
X91139999Y-127470000D02*
X92440001Y-127470000D01*
G75*
G02*
X92690000Y-127719999I0J-249999D01*
G01*
X92690000Y-128370001D01*
G75*
G02*
X92440001Y-128620000I-249999J0D01*
G01*
X91139999Y-128620000D01*
G75*
G02*
X90890000Y-128370001I0J249999D01*
G01*
X90890000Y-127719999D01*
G75*
G02*
X91139999Y-127470000I249999J0D01*
G01*
G37*
G36*
G01*
X91139999Y-130420000D02*
X92440001Y-130420000D01*
G75*
G02*
X92690000Y-130669999I0J-249999D01*
G01*
X92690000Y-131320001D01*
G75*
G02*
X92440001Y-131570000I-249999J0D01*
G01*
X91139999Y-131570000D01*
G75*
G02*
X90890000Y-131320001I0J249999D01*
G01*
X90890000Y-130669999D01*
G75*
G02*
X91139999Y-130420000I249999J0D01*
G01*
G37*
%TD*%
%TO.C,C27*%
G36*
G01*
X122440001Y-110880000D02*
X121139999Y-110880000D01*
G75*
G02*
X120890000Y-110630001I0J249999D01*
G01*
X120890000Y-109979999D01*
G75*
G02*
X121139999Y-109730000I249999J0D01*
G01*
X122440001Y-109730000D01*
G75*
G02*
X122690000Y-109979999I0J-249999D01*
G01*
X122690000Y-110630001D01*
G75*
G02*
X122440001Y-110880000I-249999J0D01*
G01*
G37*
G36*
G01*
X122440001Y-113830000D02*
X121139999Y-113830000D01*
G75*
G02*
X120890000Y-113580001I0J249999D01*
G01*
X120890000Y-112929999D01*
G75*
G02*
X121139999Y-112680000I249999J0D01*
G01*
X122440001Y-112680000D01*
G75*
G02*
X122690000Y-112929999I0J-249999D01*
G01*
X122690000Y-113580001D01*
G75*
G02*
X122440001Y-113830000I-249999J0D01*
G01*
G37*
%TD*%
%TO.C,C28*%
G36*
G01*
X156439999Y-43400000D02*
X157740001Y-43400000D01*
G75*
G02*
X157990000Y-43649999I0J-249999D01*
G01*
X157990000Y-44300001D01*
G75*
G02*
X157740001Y-44550000I-249999J0D01*
G01*
X156439999Y-44550000D01*
G75*
G02*
X156190000Y-44300001I0J249999D01*
G01*
X156190000Y-43649999D01*
G75*
G02*
X156439999Y-43400000I249999J0D01*
G01*
G37*
G36*
G01*
X156439999Y-46350000D02*
X157740001Y-46350000D01*
G75*
G02*
X157990000Y-46599999I0J-249999D01*
G01*
X157990000Y-47250001D01*
G75*
G02*
X157740001Y-47500000I-249999J0D01*
G01*
X156439999Y-47500000D01*
G75*
G02*
X156190000Y-47250001I0J249999D01*
G01*
X156190000Y-46599999D01*
G75*
G02*
X156439999Y-46350000I249999J0D01*
G01*
G37*
%TD*%
%TO.C,C29*%
G36*
G01*
X149720000Y-39709999D02*
X149720000Y-41010001D01*
G75*
G02*
X149470001Y-41260000I-249999J0D01*
G01*
X148819999Y-41260000D01*
G75*
G02*
X148570000Y-41010001I0J249999D01*
G01*
X148570000Y-39709999D01*
G75*
G02*
X148819999Y-39460000I249999J0D01*
G01*
X149470001Y-39460000D01*
G75*
G02*
X149720000Y-39709999I0J-249999D01*
G01*
G37*
G36*
G01*
X152670000Y-39709999D02*
X152670000Y-41010001D01*
G75*
G02*
X152420001Y-41260000I-249999J0D01*
G01*
X151769999Y-41260000D01*
G75*
G02*
X151520000Y-41010001I0J249999D01*
G01*
X151520000Y-39709999D01*
G75*
G02*
X151769999Y-39460000I249999J0D01*
G01*
X152420001Y-39460000D01*
G75*
G02*
X152670000Y-39709999I0J-249999D01*
G01*
G37*
%TD*%
%TO.C,C31*%
G36*
G01*
X207330000Y-68440001D02*
X207330000Y-67139999D01*
G75*
G02*
X207579999Y-66890000I249999J0D01*
G01*
X208230001Y-66890000D01*
G75*
G02*
X208480000Y-67139999I0J-249999D01*
G01*
X208480000Y-68440001D01*
G75*
G02*
X208230001Y-68690000I-249999J0D01*
G01*
X207579999Y-68690000D01*
G75*
G02*
X207330000Y-68440001I0J249999D01*
G01*
G37*
G36*
G01*
X210280000Y-68440001D02*
X210280000Y-67139999D01*
G75*
G02*
X210529999Y-66890000I249999J0D01*
G01*
X211180001Y-66890000D01*
G75*
G02*
X211430000Y-67139999I0J-249999D01*
G01*
X211430000Y-68440001D01*
G75*
G02*
X211180001Y-68690000I-249999J0D01*
G01*
X210529999Y-68690000D01*
G75*
G02*
X210280000Y-68440001I0J249999D01*
G01*
G37*
%TD*%
%TO.C,C32*%
G36*
G01*
X197110000Y-68410001D02*
X197110000Y-67109999D01*
G75*
G02*
X197359999Y-66860000I249999J0D01*
G01*
X198010001Y-66860000D01*
G75*
G02*
X198260000Y-67109999I0J-249999D01*
G01*
X198260000Y-68410001D01*
G75*
G02*
X198010001Y-68660000I-249999J0D01*
G01*
X197359999Y-68660000D01*
G75*
G02*
X197110000Y-68410001I0J249999D01*
G01*
G37*
G36*
G01*
X200060000Y-68410001D02*
X200060000Y-67109999D01*
G75*
G02*
X200309999Y-66860000I249999J0D01*
G01*
X200960001Y-66860000D01*
G75*
G02*
X201210000Y-67109999I0J-249999D01*
G01*
X201210000Y-68410001D01*
G75*
G02*
X200960001Y-68660000I-249999J0D01*
G01*
X200309999Y-68660000D01*
G75*
G02*
X200060000Y-68410001I0J249999D01*
G01*
G37*
%TD*%
%TO.C,C33*%
G36*
G01*
X189900000Y-68400001D02*
X189900000Y-67099999D01*
G75*
G02*
X190149999Y-66850000I249999J0D01*
G01*
X190800001Y-66850000D01*
G75*
G02*
X191050000Y-67099999I0J-249999D01*
G01*
X191050000Y-68400001D01*
G75*
G02*
X190800001Y-68650000I-249999J0D01*
G01*
X190149999Y-68650000D01*
G75*
G02*
X189900000Y-68400001I0J249999D01*
G01*
G37*
G36*
G01*
X186950000Y-68400001D02*
X186950000Y-67099999D01*
G75*
G02*
X187199999Y-66850000I249999J0D01*
G01*
X187850001Y-66850000D01*
G75*
G02*
X188100000Y-67099999I0J-249999D01*
G01*
X188100000Y-68400001D01*
G75*
G02*
X187850001Y-68650000I-249999J0D01*
G01*
X187199999Y-68650000D01*
G75*
G02*
X186950000Y-68400001I0J249999D01*
G01*
G37*
%TD*%
%TO.C,C34*%
G36*
G01*
X176580000Y-68380001D02*
X176580000Y-67079999D01*
G75*
G02*
X176829999Y-66830000I249999J0D01*
G01*
X177480001Y-66830000D01*
G75*
G02*
X177730000Y-67079999I0J-249999D01*
G01*
X177730000Y-68380001D01*
G75*
G02*
X177480001Y-68630000I-249999J0D01*
G01*
X176829999Y-68630000D01*
G75*
G02*
X176580000Y-68380001I0J249999D01*
G01*
G37*
G36*
G01*
X179530000Y-68380001D02*
X179530000Y-67079999D01*
G75*
G02*
X179779999Y-66830000I249999J0D01*
G01*
X180430001Y-66830000D01*
G75*
G02*
X180680000Y-67079999I0J-249999D01*
G01*
X180680000Y-68380001D01*
G75*
G02*
X180430001Y-68630000I-249999J0D01*
G01*
X179779999Y-68630000D01*
G75*
G02*
X179530000Y-68380001I0J249999D01*
G01*
G37*
%TD*%
%TO.C,C35*%
G36*
G01*
X103850000Y-58919999D02*
X103850000Y-60220001D01*
G75*
G02*
X103600001Y-60470000I-249999J0D01*
G01*
X102949999Y-60470000D01*
G75*
G02*
X102700000Y-60220001I0J249999D01*
G01*
X102700000Y-58919999D01*
G75*
G02*
X102949999Y-58670000I249999J0D01*
G01*
X103600001Y-58670000D01*
G75*
G02*
X103850000Y-58919999I0J-249999D01*
G01*
G37*
G36*
G01*
X106800000Y-58919999D02*
X106800000Y-60220001D01*
G75*
G02*
X106550001Y-60470000I-249999J0D01*
G01*
X105899999Y-60470000D01*
G75*
G02*
X105650000Y-60220001I0J249999D01*
G01*
X105650000Y-58919999D01*
G75*
G02*
X105899999Y-58670000I249999J0D01*
G01*
X106550001Y-58670000D01*
G75*
G02*
X106800000Y-58919999I0J-249999D01*
G01*
G37*
%TD*%
%TO.C,C36*%
G36*
G01*
X109290000Y-44819999D02*
X109290000Y-46120001D01*
G75*
G02*
X109040001Y-46370000I-249999J0D01*
G01*
X108389999Y-46370000D01*
G75*
G02*
X108140000Y-46120001I0J249999D01*
G01*
X108140000Y-44819999D01*
G75*
G02*
X108389999Y-44570000I249999J0D01*
G01*
X109040001Y-44570000D01*
G75*
G02*
X109290000Y-44819999I0J-249999D01*
G01*
G37*
G36*
G01*
X106340000Y-44819999D02*
X106340000Y-46120001D01*
G75*
G02*
X106090001Y-46370000I-249999J0D01*
G01*
X105439999Y-46370000D01*
G75*
G02*
X105190000Y-46120001I0J249999D01*
G01*
X105190000Y-44819999D01*
G75*
G02*
X105439999Y-44570000I249999J0D01*
G01*
X106090001Y-44570000D01*
G75*
G02*
X106340000Y-44819999I0J-249999D01*
G01*
G37*
%TD*%
%TO.C,C37*%
G36*
G01*
X182500001Y-128470000D02*
X181199999Y-128470000D01*
G75*
G02*
X180950000Y-128220001I0J249999D01*
G01*
X180950000Y-127569999D01*
G75*
G02*
X181199999Y-127320000I249999J0D01*
G01*
X182500001Y-127320000D01*
G75*
G02*
X182750000Y-127569999I0J-249999D01*
G01*
X182750000Y-128220001D01*
G75*
G02*
X182500001Y-128470000I-249999J0D01*
G01*
G37*
G36*
G01*
X182500001Y-131420000D02*
X181199999Y-131420000D01*
G75*
G02*
X180950000Y-131170001I0J249999D01*
G01*
X180950000Y-130519999D01*
G75*
G02*
X181199999Y-130270000I249999J0D01*
G01*
X182500001Y-130270000D01*
G75*
G02*
X182750000Y-130519999I0J-249999D01*
G01*
X182750000Y-131170001D01*
G75*
G02*
X182500001Y-131420000I-249999J0D01*
G01*
G37*
%TD*%
%TO.C,C41*%
G36*
G01*
X182390001Y-118880000D02*
X181089999Y-118880000D01*
G75*
G02*
X180840000Y-118630001I0J249999D01*
G01*
X180840000Y-117979999D01*
G75*
G02*
X181089999Y-117730000I249999J0D01*
G01*
X182390001Y-117730000D01*
G75*
G02*
X182640000Y-117979999I0J-249999D01*
G01*
X182640000Y-118630001D01*
G75*
G02*
X182390001Y-118880000I-249999J0D01*
G01*
G37*
G36*
G01*
X182390001Y-115930000D02*
X181089999Y-115930000D01*
G75*
G02*
X180840000Y-115680001I0J249999D01*
G01*
X180840000Y-115029999D01*
G75*
G02*
X181089999Y-114780000I249999J0D01*
G01*
X182390001Y-114780000D01*
G75*
G02*
X182640000Y-115029999I0J-249999D01*
G01*
X182640000Y-115680001D01*
G75*
G02*
X182390001Y-115930000I-249999J0D01*
G01*
G37*
%TD*%
%TO.C,C42*%
G36*
G01*
X181119999Y-105530000D02*
X182420001Y-105530000D01*
G75*
G02*
X182670000Y-105779999I0J-249999D01*
G01*
X182670000Y-106430001D01*
G75*
G02*
X182420001Y-106680000I-249999J0D01*
G01*
X181119999Y-106680000D01*
G75*
G02*
X180870000Y-106430001I0J249999D01*
G01*
X180870000Y-105779999D01*
G75*
G02*
X181119999Y-105530000I249999J0D01*
G01*
G37*
G36*
G01*
X181119999Y-102580000D02*
X182420001Y-102580000D01*
G75*
G02*
X182670000Y-102829999I0J-249999D01*
G01*
X182670000Y-103480001D01*
G75*
G02*
X182420001Y-103730000I-249999J0D01*
G01*
X181119999Y-103730000D01*
G75*
G02*
X180870000Y-103480001I0J249999D01*
G01*
X180870000Y-102829999D01*
G75*
G02*
X181119999Y-102580000I249999J0D01*
G01*
G37*
%TD*%
%TO.C,C43*%
G36*
G01*
X183050000Y-96350001D02*
X183050000Y-95049999D01*
G75*
G02*
X183299999Y-94800000I249999J0D01*
G01*
X183950001Y-94800000D01*
G75*
G02*
X184200000Y-95049999I0J-249999D01*
G01*
X184200000Y-96350001D01*
G75*
G02*
X183950001Y-96600000I-249999J0D01*
G01*
X183299999Y-96600000D01*
G75*
G02*
X183050000Y-96350001I0J249999D01*
G01*
G37*
G36*
G01*
X186000000Y-96350001D02*
X186000000Y-95049999D01*
G75*
G02*
X186249999Y-94800000I249999J0D01*
G01*
X186900001Y-94800000D01*
G75*
G02*
X187150000Y-95049999I0J-249999D01*
G01*
X187150000Y-96350001D01*
G75*
G02*
X186900001Y-96600000I-249999J0D01*
G01*
X186249999Y-96600000D01*
G75*
G02*
X186000000Y-96350001I0J249999D01*
G01*
G37*
%TD*%
%TO.C,C44*%
G36*
G01*
X208070001Y-97970000D02*
X206769999Y-97970000D01*
G75*
G02*
X206520000Y-97720001I0J249999D01*
G01*
X206520000Y-97069999D01*
G75*
G02*
X206769999Y-96820000I249999J0D01*
G01*
X208070001Y-96820000D01*
G75*
G02*
X208320000Y-97069999I0J-249999D01*
G01*
X208320000Y-97720001D01*
G75*
G02*
X208070001Y-97970000I-249999J0D01*
G01*
G37*
G36*
G01*
X208070001Y-100920000D02*
X206769999Y-100920000D01*
G75*
G02*
X206520000Y-100670001I0J249999D01*
G01*
X206520000Y-100019999D01*
G75*
G02*
X206769999Y-99770000I249999J0D01*
G01*
X208070001Y-99770000D01*
G75*
G02*
X208320000Y-100019999I0J-249999D01*
G01*
X208320000Y-100670001D01*
G75*
G02*
X208070001Y-100920000I-249999J0D01*
G01*
G37*
%TD*%
%TO.C,C45*%
G36*
G01*
X142430001Y-120690000D02*
X141129999Y-120690000D01*
G75*
G02*
X140880000Y-120440001I0J249999D01*
G01*
X140880000Y-119789999D01*
G75*
G02*
X141129999Y-119540000I249999J0D01*
G01*
X142430001Y-119540000D01*
G75*
G02*
X142680000Y-119789999I0J-249999D01*
G01*
X142680000Y-120440001D01*
G75*
G02*
X142430001Y-120690000I-249999J0D01*
G01*
G37*
G36*
G01*
X142430001Y-117740000D02*
X141129999Y-117740000D01*
G75*
G02*
X140880000Y-117490001I0J249999D01*
G01*
X140880000Y-116839999D01*
G75*
G02*
X141129999Y-116590000I249999J0D01*
G01*
X142430001Y-116590000D01*
G75*
G02*
X142680000Y-116839999I0J-249999D01*
G01*
X142680000Y-117490001D01*
G75*
G02*
X142430001Y-117740000I-249999J0D01*
G01*
G37*
%TD*%
%TO.C,C46*%
G36*
G01*
X178730001Y-117230000D02*
X177429999Y-117230000D01*
G75*
G02*
X177180000Y-116980001I0J249999D01*
G01*
X177180000Y-116329999D01*
G75*
G02*
X177429999Y-116080000I249999J0D01*
G01*
X178730001Y-116080000D01*
G75*
G02*
X178980000Y-116329999I0J-249999D01*
G01*
X178980000Y-116980001D01*
G75*
G02*
X178730001Y-117230000I-249999J0D01*
G01*
G37*
G36*
G01*
X178730001Y-120180000D02*
X177429999Y-120180000D01*
G75*
G02*
X177180000Y-119930001I0J249999D01*
G01*
X177180000Y-119279999D01*
G75*
G02*
X177429999Y-119030000I249999J0D01*
G01*
X178730001Y-119030000D01*
G75*
G02*
X178980000Y-119279999I0J-249999D01*
G01*
X178980000Y-119930001D01*
G75*
G02*
X178730001Y-120180000I-249999J0D01*
G01*
G37*
%TD*%
%TO.C,R11*%
G36*
G01*
X141104998Y-110955000D02*
X142355002Y-110955000D01*
G75*
G02*
X142605000Y-111204998I0J-249998D01*
G01*
X142605000Y-111830002D01*
G75*
G02*
X142355002Y-112080000I-249998J0D01*
G01*
X141104998Y-112080000D01*
G75*
G02*
X140855000Y-111830002I0J249998D01*
G01*
X140855000Y-111204998D01*
G75*
G02*
X141104998Y-110955000I249998J0D01*
G01*
G37*
G36*
G01*
X141104998Y-113880000D02*
X142355002Y-113880000D01*
G75*
G02*
X142605000Y-114129998I0J-249998D01*
G01*
X142605000Y-114755002D01*
G75*
G02*
X142355002Y-115005000I-249998J0D01*
G01*
X141104998Y-115005000D01*
G75*
G02*
X140855000Y-114755002I0J249998D01*
G01*
X140855000Y-114129998D01*
G75*
G02*
X141104998Y-113880000I249998J0D01*
G01*
G37*
%TD*%
%TO.C,R12*%
G36*
G01*
X176095002Y-88215000D02*
X174844998Y-88215000D01*
G75*
G02*
X174595000Y-87965002I0J249998D01*
G01*
X174595000Y-87339998D01*
G75*
G02*
X174844998Y-87090000I249998J0D01*
G01*
X176095002Y-87090000D01*
G75*
G02*
X176345000Y-87339998I0J-249998D01*
G01*
X176345000Y-87965002D01*
G75*
G02*
X176095002Y-88215000I-249998J0D01*
G01*
G37*
G36*
G01*
X176095002Y-85290000D02*
X174844998Y-85290000D01*
G75*
G02*
X174595000Y-85040002I0J249998D01*
G01*
X174595000Y-84414998D01*
G75*
G02*
X174844998Y-84165000I249998J0D01*
G01*
X176095002Y-84165000D01*
G75*
G02*
X176345000Y-84414998I0J-249998D01*
G01*
X176345000Y-85040002D01*
G75*
G02*
X176095002Y-85290000I-249998J0D01*
G01*
G37*
%TD*%
%TO.C,R13*%
G36*
G01*
X102684998Y-104400000D02*
X103935002Y-104400000D01*
G75*
G02*
X104185000Y-104649998I0J-249998D01*
G01*
X104185000Y-105275002D01*
G75*
G02*
X103935002Y-105525000I-249998J0D01*
G01*
X102684998Y-105525000D01*
G75*
G02*
X102435000Y-105275002I0J249998D01*
G01*
X102435000Y-104649998D01*
G75*
G02*
X102684998Y-104400000I249998J0D01*
G01*
G37*
G36*
G01*
X102684998Y-101475000D02*
X103935002Y-101475000D01*
G75*
G02*
X104185000Y-101724998I0J-249998D01*
G01*
X104185000Y-102350002D01*
G75*
G02*
X103935002Y-102600000I-249998J0D01*
G01*
X102684998Y-102600000D01*
G75*
G02*
X102435000Y-102350002I0J249998D01*
G01*
X102435000Y-101724998D01*
G75*
G02*
X102684998Y-101475000I249998J0D01*
G01*
G37*
%TD*%
%TO.C,R14*%
G36*
G01*
X103935002Y-111865000D02*
X102684998Y-111865000D01*
G75*
G02*
X102435000Y-111615002I0J249998D01*
G01*
X102435000Y-110989998D01*
G75*
G02*
X102684998Y-110740000I249998J0D01*
G01*
X103935002Y-110740000D01*
G75*
G02*
X104185000Y-110989998I0J-249998D01*
G01*
X104185000Y-111615002D01*
G75*
G02*
X103935002Y-111865000I-249998J0D01*
G01*
G37*
G36*
G01*
X103935002Y-108940000D02*
X102684998Y-108940000D01*
G75*
G02*
X102435000Y-108690002I0J249998D01*
G01*
X102435000Y-108064998D01*
G75*
G02*
X102684998Y-107815000I249998J0D01*
G01*
X103935002Y-107815000D01*
G75*
G02*
X104185000Y-108064998I0J-249998D01*
G01*
X104185000Y-108690002D01*
G75*
G02*
X103935002Y-108940000I-249998J0D01*
G01*
G37*
%TD*%
%TO.C,R15*%
G36*
G01*
X142264998Y-90350000D02*
X143515002Y-90350000D01*
G75*
G02*
X143765000Y-90599998I0J-249998D01*
G01*
X143765000Y-91225002D01*
G75*
G02*
X143515002Y-91475000I-249998J0D01*
G01*
X142264998Y-91475000D01*
G75*
G02*
X142015000Y-91225002I0J249998D01*
G01*
X142015000Y-90599998D01*
G75*
G02*
X142264998Y-90350000I249998J0D01*
G01*
G37*
G36*
G01*
X142264998Y-87425000D02*
X143515002Y-87425000D01*
G75*
G02*
X143765000Y-87674998I0J-249998D01*
G01*
X143765000Y-88300002D01*
G75*
G02*
X143515002Y-88550000I-249998J0D01*
G01*
X142264998Y-88550000D01*
G75*
G02*
X142015000Y-88300002I0J249998D01*
G01*
X142015000Y-87674998D01*
G75*
G02*
X142264998Y-87425000I249998J0D01*
G01*
G37*
%TD*%
%TO.C,R16*%
G36*
G01*
X209425000Y-77304998D02*
X209425000Y-78555002D01*
G75*
G02*
X209175002Y-78805000I-249998J0D01*
G01*
X208549998Y-78805000D01*
G75*
G02*
X208300000Y-78555002I0J249998D01*
G01*
X208300000Y-77304998D01*
G75*
G02*
X208549998Y-77055000I249998J0D01*
G01*
X209175002Y-77055000D01*
G75*
G02*
X209425000Y-77304998I0J-249998D01*
G01*
G37*
G36*
G01*
X206500000Y-77304998D02*
X206500000Y-78555002D01*
G75*
G02*
X206250002Y-78805000I-249998J0D01*
G01*
X205624998Y-78805000D01*
G75*
G02*
X205375000Y-78555002I0J249998D01*
G01*
X205375000Y-77304998D01*
G75*
G02*
X205624998Y-77055000I249998J0D01*
G01*
X206250002Y-77055000D01*
G75*
G02*
X206500000Y-77304998I0J-249998D01*
G01*
G37*
%TD*%
%TO.C,R17*%
G36*
G01*
X206480000Y-81194998D02*
X206480000Y-82445002D01*
G75*
G02*
X206230002Y-82695000I-249998J0D01*
G01*
X205604998Y-82695000D01*
G75*
G02*
X205355000Y-82445002I0J249998D01*
G01*
X205355000Y-81194998D01*
G75*
G02*
X205604998Y-80945000I249998J0D01*
G01*
X206230002Y-80945000D01*
G75*
G02*
X206480000Y-81194998I0J-249998D01*
G01*
G37*
G36*
G01*
X209405000Y-81194998D02*
X209405000Y-82445002D01*
G75*
G02*
X209155002Y-82695000I-249998J0D01*
G01*
X208529998Y-82695000D01*
G75*
G02*
X208280000Y-82445002I0J249998D01*
G01*
X208280000Y-81194998D01*
G75*
G02*
X208529998Y-80945000I249998J0D01*
G01*
X209155002Y-80945000D01*
G75*
G02*
X209405000Y-81194998I0J-249998D01*
G01*
G37*
%TD*%
%TO.C,R31*%
G36*
G01*
X157545002Y-55155000D02*
X156294998Y-55155000D01*
G75*
G02*
X156045000Y-54905002I0J249998D01*
G01*
X156045000Y-54279998D01*
G75*
G02*
X156294998Y-54030000I249998J0D01*
G01*
X157545002Y-54030000D01*
G75*
G02*
X157795000Y-54279998I0J-249998D01*
G01*
X157795000Y-54905002D01*
G75*
G02*
X157545002Y-55155000I-249998J0D01*
G01*
G37*
G36*
G01*
X157545002Y-52230000D02*
X156294998Y-52230000D01*
G75*
G02*
X156045000Y-51980002I0J249998D01*
G01*
X156045000Y-51354998D01*
G75*
G02*
X156294998Y-51105000I249998J0D01*
G01*
X157545002Y-51105000D01*
G75*
G02*
X157795000Y-51354998I0J-249998D01*
G01*
X157795000Y-51980002D01*
G75*
G02*
X157545002Y-52230000I-249998J0D01*
G01*
G37*
%TD*%
%TO.C,R32*%
G36*
G01*
X164340000Y-58224998D02*
X164340000Y-59475002D01*
G75*
G02*
X164090002Y-59725000I-249998J0D01*
G01*
X163464998Y-59725000D01*
G75*
G02*
X163215000Y-59475002I0J249998D01*
G01*
X163215000Y-58224998D01*
G75*
G02*
X163464998Y-57975000I249998J0D01*
G01*
X164090002Y-57975000D01*
G75*
G02*
X164340000Y-58224998I0J-249998D01*
G01*
G37*
G36*
G01*
X167265000Y-58224998D02*
X167265000Y-59475002D01*
G75*
G02*
X167015002Y-59725000I-249998J0D01*
G01*
X166389998Y-59725000D01*
G75*
G02*
X166140000Y-59475002I0J249998D01*
G01*
X166140000Y-58224998D01*
G75*
G02*
X166389998Y-57975000I249998J0D01*
G01*
X167015002Y-57975000D01*
G75*
G02*
X167265000Y-58224998I0J-249998D01*
G01*
G37*
%TD*%
%TO.C,R33*%
G36*
G01*
X173755000Y-58254998D02*
X173755000Y-59505002D01*
G75*
G02*
X173505002Y-59755000I-249998J0D01*
G01*
X172879998Y-59755000D01*
G75*
G02*
X172630000Y-59505002I0J249998D01*
G01*
X172630000Y-58254998D01*
G75*
G02*
X172879998Y-58005000I249998J0D01*
G01*
X173505002Y-58005000D01*
G75*
G02*
X173755000Y-58254998I0J-249998D01*
G01*
G37*
G36*
G01*
X170830000Y-58254998D02*
X170830000Y-59505002D01*
G75*
G02*
X170580002Y-59755000I-249998J0D01*
G01*
X169954998Y-59755000D01*
G75*
G02*
X169705000Y-59505002I0J249998D01*
G01*
X169705000Y-58254998D01*
G75*
G02*
X169954998Y-58005000I249998J0D01*
G01*
X170580002Y-58005000D01*
G75*
G02*
X170830000Y-58254998I0J-249998D01*
G01*
G37*
%TD*%
%TO.C,R34*%
G36*
G01*
X156740000Y-39724998D02*
X156740000Y-40975002D01*
G75*
G02*
X156490002Y-41225000I-249998J0D01*
G01*
X155864998Y-41225000D01*
G75*
G02*
X155615000Y-40975002I0J249998D01*
G01*
X155615000Y-39724998D01*
G75*
G02*
X155864998Y-39475000I249998J0D01*
G01*
X156490002Y-39475000D01*
G75*
G02*
X156740000Y-39724998I0J-249998D01*
G01*
G37*
G36*
G01*
X159665000Y-39724998D02*
X159665000Y-40975002D01*
G75*
G02*
X159415002Y-41225000I-249998J0D01*
G01*
X158789998Y-41225000D01*
G75*
G02*
X158540000Y-40975002I0J249998D01*
G01*
X158540000Y-39724998D01*
G75*
G02*
X158789998Y-39475000I249998J0D01*
G01*
X159415002Y-39475000D01*
G75*
G02*
X159665000Y-39724998I0J-249998D01*
G01*
G37*
%TD*%
%TO.C,R35*%
G36*
G01*
X124770000Y-41035002D02*
X124770000Y-39784998D01*
G75*
G02*
X125019998Y-39535000I249998J0D01*
G01*
X125645002Y-39535000D01*
G75*
G02*
X125895000Y-39784998I0J-249998D01*
G01*
X125895000Y-41035002D01*
G75*
G02*
X125645002Y-41285000I-249998J0D01*
G01*
X125019998Y-41285000D01*
G75*
G02*
X124770000Y-41035002I0J249998D01*
G01*
G37*
G36*
G01*
X121845000Y-41035002D02*
X121845000Y-39784998D01*
G75*
G02*
X122094998Y-39535000I249998J0D01*
G01*
X122720002Y-39535000D01*
G75*
G02*
X122970000Y-39784998I0J-249998D01*
G01*
X122970000Y-41035002D01*
G75*
G02*
X122720002Y-41285000I-249998J0D01*
G01*
X122094998Y-41285000D01*
G75*
G02*
X121845000Y-41035002I0J249998D01*
G01*
G37*
%TD*%
%TO.C,R36*%
G36*
G01*
X124095000Y-58205002D02*
X124095000Y-56954998D01*
G75*
G02*
X124344998Y-56705000I249998J0D01*
G01*
X124970002Y-56705000D01*
G75*
G02*
X125220000Y-56954998I0J-249998D01*
G01*
X125220000Y-58205002D01*
G75*
G02*
X124970002Y-58455000I-249998J0D01*
G01*
X124344998Y-58455000D01*
G75*
G02*
X124095000Y-58205002I0J249998D01*
G01*
G37*
G36*
G01*
X127020000Y-58205002D02*
X127020000Y-56954998D01*
G75*
G02*
X127269998Y-56705000I249998J0D01*
G01*
X127895002Y-56705000D01*
G75*
G02*
X128145000Y-56954998I0J-249998D01*
G01*
X128145000Y-58205002D01*
G75*
G02*
X127895002Y-58455000I-249998J0D01*
G01*
X127269998Y-58455000D01*
G75*
G02*
X127020000Y-58205002I0J249998D01*
G01*
G37*
%TD*%
%TO.C,R37*%
G36*
G01*
X100775002Y-47830000D02*
X99524998Y-47830000D01*
G75*
G02*
X99275000Y-47580002I0J249998D01*
G01*
X99275000Y-46954998D01*
G75*
G02*
X99524998Y-46705000I249998J0D01*
G01*
X100775002Y-46705000D01*
G75*
G02*
X101025000Y-46954998I0J-249998D01*
G01*
X101025000Y-47580002D01*
G75*
G02*
X100775002Y-47830000I-249998J0D01*
G01*
G37*
G36*
G01*
X100775002Y-50755000D02*
X99524998Y-50755000D01*
G75*
G02*
X99275000Y-50505002I0J249998D01*
G01*
X99275000Y-49879998D01*
G75*
G02*
X99524998Y-49630000I249998J0D01*
G01*
X100775002Y-49630000D01*
G75*
G02*
X101025000Y-49879998I0J-249998D01*
G01*
X101025000Y-50505002D01*
G75*
G02*
X100775002Y-50755000I-249998J0D01*
G01*
G37*
%TD*%
%TO.C,R38*%
G36*
G01*
X99544998Y-51745000D02*
X100795002Y-51745000D01*
G75*
G02*
X101045000Y-51994998I0J-249998D01*
G01*
X101045000Y-52620002D01*
G75*
G02*
X100795002Y-52870000I-249998J0D01*
G01*
X99544998Y-52870000D01*
G75*
G02*
X99295000Y-52620002I0J249998D01*
G01*
X99295000Y-51994998D01*
G75*
G02*
X99544998Y-51745000I249998J0D01*
G01*
G37*
G36*
G01*
X99544998Y-54670000D02*
X100795002Y-54670000D01*
G75*
G02*
X101045000Y-54919998I0J-249998D01*
G01*
X101045000Y-55545002D01*
G75*
G02*
X100795002Y-55795000I-249998J0D01*
G01*
X99544998Y-55795000D01*
G75*
G02*
X99295000Y-55545002I0J249998D01*
G01*
X99295000Y-54919998D01*
G75*
G02*
X99544998Y-54670000I249998J0D01*
G01*
G37*
%TD*%
%TO.C,R39*%
G36*
G01*
X133090000Y-58175002D02*
X133090000Y-56924998D01*
G75*
G02*
X133339998Y-56675000I249998J0D01*
G01*
X133965002Y-56675000D01*
G75*
G02*
X134215000Y-56924998I0J-249998D01*
G01*
X134215000Y-58175002D01*
G75*
G02*
X133965002Y-58425000I-249998J0D01*
G01*
X133339998Y-58425000D01*
G75*
G02*
X133090000Y-58175002I0J249998D01*
G01*
G37*
G36*
G01*
X130165000Y-58175002D02*
X130165000Y-56924998D01*
G75*
G02*
X130414998Y-56675000I249998J0D01*
G01*
X131040002Y-56675000D01*
G75*
G02*
X131290000Y-56924998I0J-249998D01*
G01*
X131290000Y-58175002D01*
G75*
G02*
X131040002Y-58425000I-249998J0D01*
G01*
X130414998Y-58425000D01*
G75*
G02*
X130165000Y-58175002I0J249998D01*
G01*
G37*
%TD*%
%TO.C,R41*%
G36*
G01*
X135244998Y-126815000D02*
X136495002Y-126815000D01*
G75*
G02*
X136745000Y-127064998I0J-249998D01*
G01*
X136745000Y-127690002D01*
G75*
G02*
X136495002Y-127940000I-249998J0D01*
G01*
X135244998Y-127940000D01*
G75*
G02*
X134995000Y-127690002I0J249998D01*
G01*
X134995000Y-127064998D01*
G75*
G02*
X135244998Y-126815000I249998J0D01*
G01*
G37*
G36*
G01*
X135244998Y-129740000D02*
X136495002Y-129740000D01*
G75*
G02*
X136745000Y-129989998I0J-249998D01*
G01*
X136745000Y-130615002D01*
G75*
G02*
X136495002Y-130865000I-249998J0D01*
G01*
X135244998Y-130865000D01*
G75*
G02*
X134995000Y-130615002I0J249998D01*
G01*
X134995000Y-129989998D01*
G75*
G02*
X135244998Y-129740000I249998J0D01*
G01*
G37*
%TD*%
%TO.C,R42*%
G36*
G01*
X95437500Y-137985002D02*
X95437500Y-136734998D01*
G75*
G02*
X95687498Y-136485000I249998J0D01*
G01*
X96312502Y-136485000D01*
G75*
G02*
X96562500Y-136734998I0J-249998D01*
G01*
X96562500Y-137985002D01*
G75*
G02*
X96312502Y-138235000I-249998J0D01*
G01*
X95687498Y-138235000D01*
G75*
G02*
X95437500Y-137985002I0J249998D01*
G01*
G37*
G36*
G01*
X92512500Y-137985002D02*
X92512500Y-136734998D01*
G75*
G02*
X92762498Y-136485000I249998J0D01*
G01*
X93387502Y-136485000D01*
G75*
G02*
X93637500Y-136734998I0J-249998D01*
G01*
X93637500Y-137985002D01*
G75*
G02*
X93387502Y-138235000I-249998J0D01*
G01*
X92762498Y-138235000D01*
G75*
G02*
X92512500Y-137985002I0J249998D01*
G01*
G37*
%TD*%
%TO.C,R43*%
G36*
G01*
X100600000Y-136774998D02*
X100600000Y-138025002D01*
G75*
G02*
X100350002Y-138275000I-249998J0D01*
G01*
X99724998Y-138275000D01*
G75*
G02*
X99475000Y-138025002I0J249998D01*
G01*
X99475000Y-136774998D01*
G75*
G02*
X99724998Y-136525000I249998J0D01*
G01*
X100350002Y-136525000D01*
G75*
G02*
X100600000Y-136774998I0J-249998D01*
G01*
G37*
G36*
G01*
X103525000Y-136774998D02*
X103525000Y-138025002D01*
G75*
G02*
X103275002Y-138275000I-249998J0D01*
G01*
X102649998Y-138275000D01*
G75*
G02*
X102400000Y-138025002I0J249998D01*
G01*
X102400000Y-136774998D01*
G75*
G02*
X102649998Y-136525000I249998J0D01*
G01*
X103275002Y-136525000D01*
G75*
G02*
X103525000Y-136774998I0J-249998D01*
G01*
G37*
%TD*%
%TO.C,R44*%
G36*
G01*
X104037500Y-124624998D02*
X104037500Y-125875002D01*
G75*
G02*
X103787502Y-126125000I-249998J0D01*
G01*
X103162498Y-126125000D01*
G75*
G02*
X102912500Y-125875002I0J249998D01*
G01*
X102912500Y-124624998D01*
G75*
G02*
X103162498Y-124375000I249998J0D01*
G01*
X103787502Y-124375000D01*
G75*
G02*
X104037500Y-124624998I0J-249998D01*
G01*
G37*
G36*
G01*
X101112500Y-124624998D02*
X101112500Y-125875002D01*
G75*
G02*
X100862502Y-126125000I-249998J0D01*
G01*
X100237498Y-126125000D01*
G75*
G02*
X99987500Y-125875002I0J249998D01*
G01*
X99987500Y-124624998D01*
G75*
G02*
X100237498Y-124375000I249998J0D01*
G01*
X100862502Y-124375000D01*
G75*
G02*
X101112500Y-124624998I0J-249998D01*
G01*
G37*
%TD*%
%TO.C,R45*%
G36*
G01*
X94345000Y-125855002D02*
X94345000Y-124604998D01*
G75*
G02*
X94594998Y-124355000I249998J0D01*
G01*
X95220002Y-124355000D01*
G75*
G02*
X95470000Y-124604998I0J-249998D01*
G01*
X95470000Y-125855002D01*
G75*
G02*
X95220002Y-126105000I-249998J0D01*
G01*
X94594998Y-126105000D01*
G75*
G02*
X94345000Y-125855002I0J249998D01*
G01*
G37*
G36*
G01*
X97270000Y-125855002D02*
X97270000Y-124604998D01*
G75*
G02*
X97519998Y-124355000I249998J0D01*
G01*
X98145002Y-124355000D01*
G75*
G02*
X98395000Y-124604998I0J-249998D01*
G01*
X98395000Y-125855002D01*
G75*
G02*
X98145002Y-126105000I-249998J0D01*
G01*
X97519998Y-126105000D01*
G75*
G02*
X97270000Y-125855002I0J249998D01*
G01*
G37*
%TD*%
%TO.C,R46*%
G36*
G01*
X178665002Y-127665000D02*
X177414998Y-127665000D01*
G75*
G02*
X177165000Y-127415002I0J249998D01*
G01*
X177165000Y-126789998D01*
G75*
G02*
X177414998Y-126540000I249998J0D01*
G01*
X178665002Y-126540000D01*
G75*
G02*
X178915000Y-126789998I0J-249998D01*
G01*
X178915000Y-127415002D01*
G75*
G02*
X178665002Y-127665000I-249998J0D01*
G01*
G37*
G36*
G01*
X178665002Y-124740000D02*
X177414998Y-124740000D01*
G75*
G02*
X177165000Y-124490002I0J249998D01*
G01*
X177165000Y-123864998D01*
G75*
G02*
X177414998Y-123615000I249998J0D01*
G01*
X178665002Y-123615000D01*
G75*
G02*
X178915000Y-123864998I0J-249998D01*
G01*
X178915000Y-124490002D01*
G75*
G02*
X178665002Y-124740000I-249998J0D01*
G01*
G37*
%TD*%
%TO.C,R47*%
G36*
G01*
X160470000Y-59495002D02*
X160470000Y-58244998D01*
G75*
G02*
X160719998Y-57995000I249998J0D01*
G01*
X161345002Y-57995000D01*
G75*
G02*
X161595000Y-58244998I0J-249998D01*
G01*
X161595000Y-59495002D01*
G75*
G02*
X161345002Y-59745000I-249998J0D01*
G01*
X160719998Y-59745000D01*
G75*
G02*
X160470000Y-59495002I0J249998D01*
G01*
G37*
G36*
G01*
X157545000Y-59495002D02*
X157545000Y-58244998D01*
G75*
G02*
X157794998Y-57995000I249998J0D01*
G01*
X158420002Y-57995000D01*
G75*
G02*
X158670000Y-58244998I0J-249998D01*
G01*
X158670000Y-59495002D01*
G75*
G02*
X158420002Y-59745000I-249998J0D01*
G01*
X157794998Y-59745000D01*
G75*
G02*
X157545000Y-59495002I0J249998D01*
G01*
G37*
%TD*%
%TO.C,R48*%
G36*
G01*
X209415000Y-108484998D02*
X209415000Y-109735002D01*
G75*
G02*
X209165002Y-109985000I-249998J0D01*
G01*
X208539998Y-109985000D01*
G75*
G02*
X208290000Y-109735002I0J249998D01*
G01*
X208290000Y-108484998D01*
G75*
G02*
X208539998Y-108235000I249998J0D01*
G01*
X209165002Y-108235000D01*
G75*
G02*
X209415000Y-108484998I0J-249998D01*
G01*
G37*
G36*
G01*
X206490000Y-108484998D02*
X206490000Y-109735002D01*
G75*
G02*
X206240002Y-109985000I-249998J0D01*
G01*
X205614998Y-109985000D01*
G75*
G02*
X205365000Y-109735002I0J249998D01*
G01*
X205365000Y-108484998D01*
G75*
G02*
X205614998Y-108235000I249998J0D01*
G01*
X206240002Y-108235000D01*
G75*
G02*
X206490000Y-108484998I0J-249998D01*
G01*
G37*
%TD*%
%TO.C,R49*%
G36*
G01*
X121695000Y-137335002D02*
X121695000Y-136084998D01*
G75*
G02*
X121944998Y-135835000I249998J0D01*
G01*
X122570002Y-135835000D01*
G75*
G02*
X122820000Y-136084998I0J-249998D01*
G01*
X122820000Y-137335002D01*
G75*
G02*
X122570002Y-137585000I-249998J0D01*
G01*
X121944998Y-137585000D01*
G75*
G02*
X121695000Y-137335002I0J249998D01*
G01*
G37*
G36*
G01*
X124620000Y-137335002D02*
X124620000Y-136084998D01*
G75*
G02*
X124869998Y-135835000I249998J0D01*
G01*
X125495002Y-135835000D01*
G75*
G02*
X125745000Y-136084998I0J-249998D01*
G01*
X125745000Y-137335002D01*
G75*
G02*
X125495002Y-137585000I-249998J0D01*
G01*
X124869998Y-137585000D01*
G75*
G02*
X124620000Y-137335002I0J249998D01*
G01*
G37*
%TD*%
%TO.C,R50*%
G36*
G01*
X144690000Y-102755002D02*
X144690000Y-101504998D01*
G75*
G02*
X144939998Y-101255000I249998J0D01*
G01*
X145565002Y-101255000D01*
G75*
G02*
X145815000Y-101504998I0J-249998D01*
G01*
X145815000Y-102755002D01*
G75*
G02*
X145565002Y-103005000I-249998J0D01*
G01*
X144939998Y-103005000D01*
G75*
G02*
X144690000Y-102755002I0J249998D01*
G01*
G37*
G36*
G01*
X141765000Y-102755002D02*
X141765000Y-101504998D01*
G75*
G02*
X142014998Y-101255000I249998J0D01*
G01*
X142640002Y-101255000D01*
G75*
G02*
X142890000Y-101504998I0J-249998D01*
G01*
X142890000Y-102755002D01*
G75*
G02*
X142640002Y-103005000I-249998J0D01*
G01*
X142014998Y-103005000D01*
G75*
G02*
X141765000Y-102755002I0J249998D01*
G01*
G37*
%TD*%
%TO.C,R110*%
G36*
G01*
X209435000Y-84934998D02*
X209435000Y-86185002D01*
G75*
G02*
X209185002Y-86435000I-249998J0D01*
G01*
X208559998Y-86435000D01*
G75*
G02*
X208310000Y-86185002I0J249998D01*
G01*
X208310000Y-84934998D01*
G75*
G02*
X208559998Y-84685000I249998J0D01*
G01*
X209185002Y-84685000D01*
G75*
G02*
X209435000Y-84934998I0J-249998D01*
G01*
G37*
G36*
G01*
X206510000Y-84934998D02*
X206510000Y-86185002D01*
G75*
G02*
X206260002Y-86435000I-249998J0D01*
G01*
X205634998Y-86435000D01*
G75*
G02*
X205385000Y-86185002I0J249998D01*
G01*
X205385000Y-84934998D01*
G75*
G02*
X205634998Y-84685000I249998J0D01*
G01*
X206260002Y-84685000D01*
G75*
G02*
X206510000Y-84934998I0J-249998D01*
G01*
G37*
%TD*%
%TO.C,R311*%
G36*
G01*
X168680000Y-139735002D02*
X168680000Y-138484998D01*
G75*
G02*
X168929998Y-138235000I249998J0D01*
G01*
X169555002Y-138235000D01*
G75*
G02*
X169805000Y-138484998I0J-249998D01*
G01*
X169805000Y-139735002D01*
G75*
G02*
X169555002Y-139985000I-249998J0D01*
G01*
X168929998Y-139985000D01*
G75*
G02*
X168680000Y-139735002I0J249998D01*
G01*
G37*
G36*
G01*
X165755000Y-139735002D02*
X165755000Y-138484998D01*
G75*
G02*
X166004998Y-138235000I249998J0D01*
G01*
X166630002Y-138235000D01*
G75*
G02*
X166880000Y-138484998I0J-249998D01*
G01*
X166880000Y-139735002D01*
G75*
G02*
X166630002Y-139985000I-249998J0D01*
G01*
X166004998Y-139985000D01*
G75*
G02*
X165755000Y-139735002I0J249998D01*
G01*
G37*
%TD*%
%TO.C,R312*%
G36*
G01*
X162940000Y-139755002D02*
X162940000Y-138504998D01*
G75*
G02*
X163189998Y-138255000I249998J0D01*
G01*
X163815002Y-138255000D01*
G75*
G02*
X164065000Y-138504998I0J-249998D01*
G01*
X164065000Y-139755002D01*
G75*
G02*
X163815002Y-140005000I-249998J0D01*
G01*
X163189998Y-140005000D01*
G75*
G02*
X162940000Y-139755002I0J249998D01*
G01*
G37*
G36*
G01*
X160015000Y-139755002D02*
X160015000Y-138504998D01*
G75*
G02*
X160264998Y-138255000I249998J0D01*
G01*
X160890002Y-138255000D01*
G75*
G02*
X161140000Y-138504998I0J-249998D01*
G01*
X161140000Y-139755002D01*
G75*
G02*
X160890002Y-140005000I-249998J0D01*
G01*
X160264998Y-140005000D01*
G75*
G02*
X160015000Y-139755002I0J249998D01*
G01*
G37*
%TD*%
%TO.C,R313*%
G36*
G01*
X157090000Y-139665002D02*
X157090000Y-138414998D01*
G75*
G02*
X157339998Y-138165000I249998J0D01*
G01*
X157965002Y-138165000D01*
G75*
G02*
X158215000Y-138414998I0J-249998D01*
G01*
X158215000Y-139665002D01*
G75*
G02*
X157965002Y-139915000I-249998J0D01*
G01*
X157339998Y-139915000D01*
G75*
G02*
X157090000Y-139665002I0J249998D01*
G01*
G37*
G36*
G01*
X154165000Y-139665002D02*
X154165000Y-138414998D01*
G75*
G02*
X154414998Y-138165000I249998J0D01*
G01*
X155040002Y-138165000D01*
G75*
G02*
X155290000Y-138414998I0J-249998D01*
G01*
X155290000Y-139665002D01*
G75*
G02*
X155040002Y-139915000I-249998J0D01*
G01*
X154414998Y-139915000D01*
G75*
G02*
X154165000Y-139665002I0J249998D01*
G01*
G37*
%TD*%
%TO.C,C26*%
G36*
G01*
X133530000Y-78589999D02*
X133530000Y-79890001D01*
G75*
G02*
X133280001Y-80140000I-249999J0D01*
G01*
X132629999Y-80140000D01*
G75*
G02*
X132380000Y-79890001I0J249999D01*
G01*
X132380000Y-78589999D01*
G75*
G02*
X132629999Y-78340000I249999J0D01*
G01*
X133280001Y-78340000D01*
G75*
G02*
X133530000Y-78589999I0J-249999D01*
G01*
G37*
G36*
G01*
X130580000Y-78589999D02*
X130580000Y-79890001D01*
G75*
G02*
X130330001Y-80140000I-249999J0D01*
G01*
X129679999Y-80140000D01*
G75*
G02*
X129430000Y-79890001I0J249999D01*
G01*
X129430000Y-78589999D01*
G75*
G02*
X129679999Y-78340000I249999J0D01*
G01*
X130330001Y-78340000D01*
G75*
G02*
X130580000Y-78589999I0J-249999D01*
G01*
G37*
%TD*%
D13*
%TO.C,U41*%
X159680000Y-105725000D03*
X158410000Y-105725000D03*
X157140000Y-105725000D03*
X155870000Y-105725000D03*
X154600000Y-105725000D03*
X153330000Y-105725000D03*
X152060000Y-105725000D03*
X150790000Y-105725000D03*
X149520000Y-105725000D03*
X148250000Y-105725000D03*
X146980000Y-105725000D03*
X160950000Y-105725000D03*
X162220000Y-105725000D03*
X163490000Y-105725000D03*
X164760000Y-105725000D03*
X166030000Y-105725000D03*
X167300000Y-105725000D03*
X168570000Y-105725000D03*
X169840000Y-105725000D03*
X171110000Y-105725000D03*
X172380000Y-105725000D03*
D14*
X145467500Y-107237500D03*
X145467500Y-108507500D03*
X145467500Y-109777500D03*
X145467500Y-111047500D03*
X145467500Y-112317500D03*
X145467500Y-113587500D03*
X145467500Y-114857500D03*
X145467500Y-116127500D03*
X145467500Y-117397500D03*
X145467500Y-118667500D03*
X145467500Y-119937500D03*
X145467500Y-121207500D03*
X145467500Y-122477500D03*
X145467500Y-123747500D03*
X145467500Y-125017500D03*
X145467500Y-126287500D03*
X145467500Y-127557500D03*
X145467500Y-128827500D03*
X145467500Y-130097500D03*
X145467500Y-131367500D03*
X145467500Y-132637500D03*
D13*
X146980000Y-134150000D03*
X148250000Y-134150000D03*
X149520000Y-134150000D03*
X150790000Y-134150000D03*
X152060000Y-134150000D03*
X153330000Y-134150000D03*
X154600000Y-134150000D03*
X155870000Y-134150000D03*
X157140000Y-134150000D03*
X158410000Y-134150000D03*
X159680000Y-134150000D03*
X160950000Y-134150000D03*
X162220000Y-134150000D03*
X163490000Y-134150000D03*
X164760000Y-134150000D03*
X166030000Y-134150000D03*
X167300000Y-134150000D03*
X168570000Y-134150000D03*
X169840000Y-134150000D03*
X171110000Y-134150000D03*
X172380000Y-134150000D03*
D14*
X173892500Y-132637500D03*
X173892500Y-131367500D03*
X173892500Y-130097500D03*
X173892500Y-128827500D03*
X173892500Y-127557500D03*
X173892500Y-126287500D03*
X173892500Y-125017500D03*
X173892500Y-123747500D03*
X173892500Y-122477500D03*
X173892500Y-121207500D03*
X173892500Y-119937500D03*
X173892500Y-118667500D03*
X173892500Y-117397500D03*
X173892500Y-116127500D03*
X173892500Y-114857500D03*
X173892500Y-113587500D03*
X173892500Y-112317500D03*
X173892500Y-111047500D03*
X173892500Y-109777500D03*
X173892500Y-108507500D03*
X173892500Y-107237500D03*
%TD*%
D15*
%TO.C,U24*%
X122925000Y-122635000D03*
X122925000Y-123905000D03*
X122925000Y-125175000D03*
X122925000Y-126445000D03*
X122925000Y-127715000D03*
X122925000Y-128985000D03*
X122925000Y-130255000D03*
X122925000Y-131525000D03*
X122925000Y-132795000D03*
X122925000Y-134065000D03*
X132375000Y-134065000D03*
X132375000Y-132795000D03*
X132375000Y-131525000D03*
X132375000Y-130255000D03*
X132375000Y-128985000D03*
X132375000Y-127715000D03*
X132375000Y-126445000D03*
X132375000Y-125175000D03*
X132375000Y-123905000D03*
X132375000Y-122635000D03*
%TD*%
%TO.C,U25*%
X132445000Y-81805000D03*
X132445000Y-83075000D03*
X132445000Y-84345000D03*
X132445000Y-85615000D03*
X132445000Y-86885000D03*
X132445000Y-88155000D03*
X132445000Y-89425000D03*
X132445000Y-90695000D03*
X132445000Y-91965000D03*
X132445000Y-93235000D03*
X122995000Y-93235000D03*
X122995000Y-91965000D03*
X122995000Y-90695000D03*
X122995000Y-89425000D03*
X122995000Y-88155000D03*
X122995000Y-86885000D03*
X122995000Y-85615000D03*
X122995000Y-84345000D03*
X122995000Y-83075000D03*
X122995000Y-81805000D03*
%TD*%
%TO.C,U26*%
X132445000Y-63965000D03*
X132445000Y-65235000D03*
X132445000Y-66505000D03*
X132445000Y-67775000D03*
X132445000Y-69045000D03*
X132445000Y-70315000D03*
X132445000Y-71585000D03*
X132445000Y-72855000D03*
X132445000Y-74125000D03*
X132445000Y-75395000D03*
X122995000Y-75395000D03*
X122995000Y-74125000D03*
X122995000Y-72855000D03*
X122995000Y-71585000D03*
X122995000Y-70315000D03*
X122995000Y-69045000D03*
X122995000Y-67775000D03*
X122995000Y-66505000D03*
X122995000Y-65235000D03*
X122995000Y-63965000D03*
%TD*%
D16*
%TO.C,U29*%
X159625000Y-53995000D03*
X160895000Y-53995000D03*
X162165000Y-53995000D03*
X163435000Y-53995000D03*
X164705000Y-53995000D03*
X165975000Y-53995000D03*
X167245000Y-53995000D03*
X168515000Y-53995000D03*
X169785000Y-53995000D03*
X171055000Y-53995000D03*
X171055000Y-44545000D03*
X169785000Y-44545000D03*
X168515000Y-44545000D03*
X167245000Y-44545000D03*
X165975000Y-44545000D03*
X164705000Y-44545000D03*
X163435000Y-44545000D03*
X162165000Y-44545000D03*
X160895000Y-44545000D03*
X159625000Y-44545000D03*
%TD*%
D17*
%TO.C,U42*%
X94440000Y-128038000D03*
X95710000Y-128038000D03*
X96980000Y-128038000D03*
X98250000Y-128038000D03*
X99520000Y-128038000D03*
X100790000Y-128038000D03*
X102060000Y-128038000D03*
X102060000Y-133462000D03*
X100790000Y-133462000D03*
X99520000Y-133462000D03*
X98250000Y-133462000D03*
X96980000Y-133462000D03*
X95710000Y-133462000D03*
X94440000Y-133462000D03*
%TD*%
M02*
