%TF.GenerationSoftware,KiCad,Pcbnew,(5.1.12)-1*%
%TF.CreationDate,2022-12-05T14:55:24+01:00*%
%TF.ProjectId,atonceplus,61746f6e-6365-4706-9c75-732e6b696361,rev?*%
%TF.SameCoordinates,Original*%
%TF.FileFunction,Legend,Top*%
%TF.FilePolarity,Positive*%
%FSLAX46Y46*%
G04 Gerber Fmt 4.6, Leading zero omitted, Abs format (unit mm)*
G04 Created by KiCad (PCBNEW (5.1.12)-1) date 2022-12-05 14:55:24*
%MOMM*%
%LPD*%
G01*
G04 APERTURE LIST*
%ADD10C,0.600000*%
%ADD11C,0.100000*%
%ADD12C,0.300000*%
%ADD13C,0.200000*%
%ADD14C,0.120000*%
%ADD15C,0.150000*%
%ADD16C,0.254000*%
G04 APERTURE END LIST*
D10*
X196607142Y-76750000D02*
X196750000Y-76464285D01*
X196892857Y-76321428D01*
X197178571Y-76178571D01*
X197321428Y-76178571D01*
X197607142Y-76321428D01*
X197750000Y-76464285D01*
X197892857Y-76750000D01*
X197892857Y-77321428D01*
X197750000Y-77607142D01*
X197607142Y-77750000D01*
X197321428Y-77892857D01*
X197178571Y-77892857D01*
X196892857Y-77750000D01*
X196750000Y-77607142D01*
X196607142Y-77321428D01*
X196607142Y-76750000D01*
X196464285Y-76464285D01*
X196321428Y-76321428D01*
X196035714Y-76178571D01*
X195464285Y-76178571D01*
X195178571Y-76321428D01*
X195035714Y-76464285D01*
X194892857Y-76750000D01*
X194892857Y-77321428D01*
X195035714Y-77607142D01*
X195178571Y-77750000D01*
X195464285Y-77892857D01*
X196035714Y-77892857D01*
X196321428Y-77750000D01*
X196464285Y-77607142D01*
X196607142Y-77321428D01*
X197892857Y-79750000D02*
X197892857Y-80035714D01*
X197750000Y-80321428D01*
X197607142Y-80464285D01*
X197321428Y-80607142D01*
X196750000Y-80750000D01*
X196035714Y-80750000D01*
X195464285Y-80607142D01*
X195178571Y-80464285D01*
X195035714Y-80321428D01*
X194892857Y-80035714D01*
X194892857Y-79750000D01*
X195035714Y-79464285D01*
X195178571Y-79321428D01*
X195464285Y-79178571D01*
X196035714Y-79035714D01*
X196750000Y-79035714D01*
X197321428Y-79178571D01*
X197607142Y-79321428D01*
X197750000Y-79464285D01*
X197892857Y-79750000D01*
X195178571Y-83750000D02*
X195035714Y-83607142D01*
X194892857Y-83178571D01*
X194892857Y-82892857D01*
X195035714Y-82464285D01*
X195321428Y-82178571D01*
X195607142Y-82035714D01*
X196178571Y-81892857D01*
X196607142Y-81892857D01*
X197178571Y-82035714D01*
X197464285Y-82178571D01*
X197750000Y-82464285D01*
X197892857Y-82892857D01*
X197892857Y-83178571D01*
X197750000Y-83607142D01*
X197607142Y-83750000D01*
X197607142Y-84892857D02*
X197750000Y-85035714D01*
X197892857Y-85321428D01*
X197892857Y-86035714D01*
X197750000Y-86321428D01*
X197607142Y-86464285D01*
X197321428Y-86607142D01*
X197035714Y-86607142D01*
X196607142Y-86464285D01*
X194892857Y-84750000D01*
X194892857Y-86607142D01*
X196607142Y-88321428D02*
X196750000Y-88035714D01*
X196892857Y-87892857D01*
X197178571Y-87750000D01*
X197321428Y-87750000D01*
X197607142Y-87892857D01*
X197750000Y-88035714D01*
X197892857Y-88321428D01*
X197892857Y-88892857D01*
X197750000Y-89178571D01*
X197607142Y-89321428D01*
X197321428Y-89464285D01*
X197178571Y-89464285D01*
X196892857Y-89321428D01*
X196750000Y-89178571D01*
X196607142Y-88892857D01*
X196607142Y-88321428D01*
X196464285Y-88035714D01*
X196321428Y-87892857D01*
X196035714Y-87750000D01*
X195464285Y-87750000D01*
X195178571Y-87892857D01*
X195035714Y-88035714D01*
X194892857Y-88321428D01*
X194892857Y-88892857D01*
X195035714Y-89178571D01*
X195178571Y-89321428D01*
X195464285Y-89464285D01*
X196035714Y-89464285D01*
X196321428Y-89321428D01*
X196464285Y-89178571D01*
X196607142Y-88892857D01*
X197892857Y-90464285D02*
X197892857Y-92464285D01*
X194892857Y-91178571D01*
D11*
X176892857Y-140452380D02*
X176892857Y-139785714D01*
X176892857Y-139976190D02*
X176940476Y-139880952D01*
X176988095Y-139833333D01*
X177083333Y-139785714D01*
X177178571Y-139785714D01*
X177892857Y-140404761D02*
X177797619Y-140452380D01*
X177607142Y-140452380D01*
X177511904Y-140404761D01*
X177464285Y-140309523D01*
X177464285Y-139928571D01*
X177511904Y-139833333D01*
X177607142Y-139785714D01*
X177797619Y-139785714D01*
X177892857Y-139833333D01*
X177940476Y-139928571D01*
X177940476Y-140023809D01*
X177464285Y-140119047D01*
X178273809Y-139785714D02*
X178511904Y-140452380D01*
X178750000Y-139785714D01*
X179511904Y-140404761D02*
X179416666Y-140452380D01*
X179226190Y-140452380D01*
X179130952Y-140404761D01*
X179083333Y-140309523D01*
X179083333Y-139928571D01*
X179130952Y-139833333D01*
X179226190Y-139785714D01*
X179416666Y-139785714D01*
X179511904Y-139833333D01*
X179559523Y-139928571D01*
X179559523Y-140023809D01*
X179083333Y-140119047D01*
X179988095Y-140452380D02*
X179988095Y-139785714D01*
X179988095Y-139976190D02*
X180035714Y-139880952D01*
X180083333Y-139833333D01*
X180178571Y-139785714D01*
X180273809Y-139785714D01*
X180559523Y-140404761D02*
X180654761Y-140452380D01*
X180845238Y-140452380D01*
X180940476Y-140404761D01*
X180988095Y-140309523D01*
X180988095Y-140261904D01*
X180940476Y-140166666D01*
X180845238Y-140119047D01*
X180702380Y-140119047D01*
X180607142Y-140071428D01*
X180559523Y-139976190D01*
X180559523Y-139928571D01*
X180607142Y-139833333D01*
X180702380Y-139785714D01*
X180845238Y-139785714D01*
X180940476Y-139833333D01*
X181797619Y-140404761D02*
X181702380Y-140452380D01*
X181511904Y-140452380D01*
X181416666Y-140404761D01*
X181369047Y-140309523D01*
X181369047Y-139928571D01*
X181416666Y-139833333D01*
X181511904Y-139785714D01*
X181702380Y-139785714D01*
X181797619Y-139833333D01*
X181845238Y-139928571D01*
X181845238Y-140023809D01*
X181369047Y-140119047D01*
X183416666Y-140404761D02*
X183321428Y-140452380D01*
X183130952Y-140452380D01*
X183035714Y-140404761D01*
X182988095Y-140309523D01*
X182988095Y-139928571D01*
X183035714Y-139833333D01*
X183130952Y-139785714D01*
X183321428Y-139785714D01*
X183416666Y-139833333D01*
X183464285Y-139928571D01*
X183464285Y-140023809D01*
X182988095Y-140119047D01*
X183892857Y-139785714D02*
X183892857Y-140452380D01*
X183892857Y-139880952D02*
X183940476Y-139833333D01*
X184035714Y-139785714D01*
X184178571Y-139785714D01*
X184273809Y-139833333D01*
X184321428Y-139928571D01*
X184321428Y-140452380D01*
X185226190Y-139785714D02*
X185226190Y-140595238D01*
X185178571Y-140690476D01*
X185130952Y-140738095D01*
X185035714Y-140785714D01*
X184892857Y-140785714D01*
X184797619Y-140738095D01*
X185226190Y-140404761D02*
X185130952Y-140452380D01*
X184940476Y-140452380D01*
X184845238Y-140404761D01*
X184797619Y-140357142D01*
X184750000Y-140261904D01*
X184750000Y-139976190D01*
X184797619Y-139880952D01*
X184845238Y-139833333D01*
X184940476Y-139785714D01*
X185130952Y-139785714D01*
X185226190Y-139833333D01*
X185702380Y-140452380D02*
X185702380Y-139785714D01*
X185702380Y-139452380D02*
X185654761Y-139500000D01*
X185702380Y-139547619D01*
X185750000Y-139500000D01*
X185702380Y-139452380D01*
X185702380Y-139547619D01*
X186178571Y-139785714D02*
X186178571Y-140452380D01*
X186178571Y-139880952D02*
X186226190Y-139833333D01*
X186321428Y-139785714D01*
X186464285Y-139785714D01*
X186559523Y-139833333D01*
X186607142Y-139928571D01*
X186607142Y-140452380D01*
X187464285Y-140404761D02*
X187369047Y-140452380D01*
X187178571Y-140452380D01*
X187083333Y-140404761D01*
X187035714Y-140309523D01*
X187035714Y-139928571D01*
X187083333Y-139833333D01*
X187178571Y-139785714D01*
X187369047Y-139785714D01*
X187464285Y-139833333D01*
X187511904Y-139928571D01*
X187511904Y-140023809D01*
X187035714Y-140119047D01*
X188321428Y-140404761D02*
X188226190Y-140452380D01*
X188035714Y-140452380D01*
X187940476Y-140404761D01*
X187892857Y-140309523D01*
X187892857Y-139928571D01*
X187940476Y-139833333D01*
X188035714Y-139785714D01*
X188226190Y-139785714D01*
X188321428Y-139833333D01*
X188369047Y-139928571D01*
X188369047Y-140023809D01*
X187892857Y-140119047D01*
X188797619Y-140452380D02*
X188797619Y-139785714D01*
X188797619Y-139976190D02*
X188845238Y-139880952D01*
X188892857Y-139833333D01*
X188988095Y-139785714D01*
X189083333Y-139785714D01*
X189416666Y-140452380D02*
X189416666Y-139785714D01*
X189416666Y-139452380D02*
X189369047Y-139500000D01*
X189416666Y-139547619D01*
X189464285Y-139500000D01*
X189416666Y-139452380D01*
X189416666Y-139547619D01*
X189892857Y-139785714D02*
X189892857Y-140452380D01*
X189892857Y-139880952D02*
X189940476Y-139833333D01*
X190035714Y-139785714D01*
X190178571Y-139785714D01*
X190273809Y-139833333D01*
X190321428Y-139928571D01*
X190321428Y-140452380D01*
X191226190Y-139785714D02*
X191226190Y-140595238D01*
X191178571Y-140690476D01*
X191130952Y-140738095D01*
X191035714Y-140785714D01*
X190892857Y-140785714D01*
X190797619Y-140738095D01*
X191226190Y-140404761D02*
X191130952Y-140452380D01*
X190940476Y-140452380D01*
X190845238Y-140404761D01*
X190797619Y-140357142D01*
X190750000Y-140261904D01*
X190750000Y-139976190D01*
X190797619Y-139880952D01*
X190845238Y-139833333D01*
X190940476Y-139785714D01*
X191130952Y-139785714D01*
X191226190Y-139833333D01*
X192464285Y-140452380D02*
X192464285Y-139452380D01*
X192464285Y-139833333D02*
X192559523Y-139785714D01*
X192750000Y-139785714D01*
X192845238Y-139833333D01*
X192892857Y-139880952D01*
X192940476Y-139976190D01*
X192940476Y-140261904D01*
X192892857Y-140357142D01*
X192845238Y-140404761D01*
X192750000Y-140452380D01*
X192559523Y-140452380D01*
X192464285Y-140404761D01*
X193273809Y-139785714D02*
X193511904Y-140452380D01*
X193750000Y-139785714D02*
X193511904Y-140452380D01*
X193416666Y-140690476D01*
X193369047Y-140738095D01*
X193273809Y-140785714D01*
X194892857Y-140452380D02*
X194892857Y-139452380D01*
X195464285Y-140452380D01*
X195464285Y-139452380D01*
X195940476Y-140452380D02*
X195940476Y-139785714D01*
X195940476Y-139452380D02*
X195892857Y-139500000D01*
X195940476Y-139547619D01*
X195988095Y-139500000D01*
X195940476Y-139452380D01*
X195940476Y-139547619D01*
X196845238Y-140404761D02*
X196750000Y-140452380D01*
X196559523Y-140452380D01*
X196464285Y-140404761D01*
X196416666Y-140357142D01*
X196369047Y-140261904D01*
X196369047Y-139976190D01*
X196416666Y-139880952D01*
X196464285Y-139833333D01*
X196559523Y-139785714D01*
X196750000Y-139785714D01*
X196845238Y-139833333D01*
X197416666Y-140452380D02*
X197321428Y-140404761D01*
X197273809Y-140357142D01*
X197226190Y-140261904D01*
X197226190Y-139976190D01*
X197273809Y-139880952D01*
X197321428Y-139833333D01*
X197416666Y-139785714D01*
X197559523Y-139785714D01*
X197654761Y-139833333D01*
X197702380Y-139880952D01*
X197750000Y-139976190D01*
X197750000Y-140261904D01*
X197702380Y-140357142D01*
X197654761Y-140404761D01*
X197559523Y-140452380D01*
X197416666Y-140452380D01*
X198321428Y-140452380D02*
X198226190Y-140404761D01*
X198178571Y-140309523D01*
X198178571Y-139452380D01*
X199130952Y-140452380D02*
X199130952Y-139928571D01*
X199083333Y-139833333D01*
X198988095Y-139785714D01*
X198797619Y-139785714D01*
X198702380Y-139833333D01*
X199130952Y-140404761D02*
X199035714Y-140452380D01*
X198797619Y-140452380D01*
X198702380Y-140404761D01*
X198654761Y-140309523D01*
X198654761Y-140214285D01*
X198702380Y-140119047D01*
X198797619Y-140071428D01*
X199035714Y-140071428D01*
X199130952Y-140023809D01*
X200321428Y-140166666D02*
X200797619Y-140166666D01*
X200226190Y-140452380D02*
X200559523Y-139452380D01*
X200892857Y-140452380D01*
X201130952Y-139785714D02*
X201369047Y-140452380D01*
X201607142Y-139785714D01*
X202416666Y-140452380D02*
X202416666Y-139928571D01*
X202369047Y-139833333D01*
X202273809Y-139785714D01*
X202083333Y-139785714D01*
X201988095Y-139833333D01*
X202416666Y-140404761D02*
X202321428Y-140452380D01*
X202083333Y-140452380D01*
X201988095Y-140404761D01*
X201940476Y-140309523D01*
X201940476Y-140214285D01*
X201988095Y-140119047D01*
X202083333Y-140071428D01*
X202321428Y-140071428D01*
X202416666Y-140023809D01*
X202892857Y-139785714D02*
X202892857Y-140452380D01*
X202892857Y-139880952D02*
X202940476Y-139833333D01*
X203035714Y-139785714D01*
X203178571Y-139785714D01*
X203273809Y-139833333D01*
X203321428Y-139928571D01*
X203321428Y-140452380D01*
X203702380Y-139785714D02*
X204226190Y-139785714D01*
X203702380Y-140452380D01*
X204226190Y-140452380D01*
X204607142Y-140452380D02*
X204607142Y-139785714D01*
X204607142Y-139452380D02*
X204559523Y-139500000D01*
X204607142Y-139547619D01*
X204654761Y-139500000D01*
X204607142Y-139452380D01*
X204607142Y-139547619D01*
D12*
X132428571Y-140928571D02*
X131928571Y-140214285D01*
X131571428Y-140928571D02*
X131571428Y-139428571D01*
X132142857Y-139428571D01*
X132285714Y-139500000D01*
X132357142Y-139571428D01*
X132428571Y-139714285D01*
X132428571Y-139928571D01*
X132357142Y-140071428D01*
X132285714Y-140142857D01*
X132142857Y-140214285D01*
X131571428Y-140214285D01*
X133642857Y-140857142D02*
X133500000Y-140928571D01*
X133214285Y-140928571D01*
X133071428Y-140857142D01*
X133000000Y-140714285D01*
X133000000Y-140142857D01*
X133071428Y-140000000D01*
X133214285Y-139928571D01*
X133500000Y-139928571D01*
X133642857Y-140000000D01*
X133714285Y-140142857D01*
X133714285Y-140285714D01*
X133000000Y-140428571D01*
X134214285Y-139928571D02*
X134571428Y-140928571D01*
X134928571Y-139928571D01*
X135500000Y-140785714D02*
X135571428Y-140857142D01*
X135500000Y-140928571D01*
X135428571Y-140857142D01*
X135500000Y-140785714D01*
X135500000Y-140928571D01*
X137642857Y-139428571D02*
X137785714Y-139428571D01*
X137928571Y-139500000D01*
X138000000Y-139571428D01*
X138071428Y-139714285D01*
X138142857Y-140000000D01*
X138142857Y-140357142D01*
X138071428Y-140642857D01*
X138000000Y-140785714D01*
X137928571Y-140857142D01*
X137785714Y-140928571D01*
X137642857Y-140928571D01*
X137500000Y-140857142D01*
X137428571Y-140785714D01*
X137357142Y-140642857D01*
X137285714Y-140357142D01*
X137285714Y-140000000D01*
X137357142Y-139714285D01*
X137428571Y-139571428D01*
X137500000Y-139500000D01*
X137642857Y-139428571D01*
X138857142Y-140928571D02*
X139142857Y-140928571D01*
X139285714Y-140857142D01*
X139357142Y-140785714D01*
X139500000Y-140571428D01*
X139571428Y-140285714D01*
X139571428Y-139714285D01*
X139500000Y-139571428D01*
X139428571Y-139500000D01*
X139285714Y-139428571D01*
X139000000Y-139428571D01*
X138857142Y-139500000D01*
X138785714Y-139571428D01*
X138714285Y-139714285D01*
X138714285Y-140071428D01*
X138785714Y-140214285D01*
X138857142Y-140285714D01*
X139000000Y-140357142D01*
X139285714Y-140357142D01*
X139428571Y-140285714D01*
X139500000Y-140214285D01*
X139571428Y-140071428D01*
X141285714Y-139357142D02*
X140000000Y-141285714D01*
X141857142Y-140928571D02*
X142142857Y-140928571D01*
X142285714Y-140857142D01*
X142357142Y-140785714D01*
X142500000Y-140571428D01*
X142571428Y-140285714D01*
X142571428Y-139714285D01*
X142500000Y-139571428D01*
X142428571Y-139500000D01*
X142285714Y-139428571D01*
X142000000Y-139428571D01*
X141857142Y-139500000D01*
X141785714Y-139571428D01*
X141714285Y-139714285D01*
X141714285Y-140071428D01*
X141785714Y-140214285D01*
X141857142Y-140285714D01*
X142000000Y-140357142D01*
X142285714Y-140357142D01*
X142428571Y-140285714D01*
X142500000Y-140214285D01*
X142571428Y-140071428D01*
X144000000Y-140928571D02*
X143142857Y-140928571D01*
X143571428Y-140928571D02*
X143571428Y-139428571D01*
X143428571Y-139642857D01*
X143285714Y-139785714D01*
X143142857Y-139857142D01*
D10*
X89500000Y-60857142D02*
X89500000Y-62285714D01*
X88642857Y-60571428D02*
X91642857Y-61571428D01*
X88642857Y-62571428D01*
X91642857Y-63142857D02*
X91642857Y-64857142D01*
X88642857Y-64000000D02*
X91642857Y-64000000D01*
X88642857Y-66285714D02*
X88785714Y-66000000D01*
X88928571Y-65857142D01*
X89214285Y-65714285D01*
X90071428Y-65714285D01*
X90357142Y-65857142D01*
X90500000Y-66000000D01*
X90642857Y-66285714D01*
X90642857Y-66714285D01*
X90500000Y-67000000D01*
X90357142Y-67142857D01*
X90071428Y-67285714D01*
X89214285Y-67285714D01*
X88928571Y-67142857D01*
X88785714Y-67000000D01*
X88642857Y-66714285D01*
X88642857Y-66285714D01*
X90642857Y-68571428D02*
X88642857Y-68571428D01*
X90357142Y-68571428D02*
X90500000Y-68714285D01*
X90642857Y-69000000D01*
X90642857Y-69428571D01*
X90500000Y-69714285D01*
X90214285Y-69857142D01*
X88642857Y-69857142D01*
X88785714Y-72571428D02*
X88642857Y-72285714D01*
X88642857Y-71714285D01*
X88785714Y-71428571D01*
X88928571Y-71285714D01*
X89214285Y-71142857D01*
X90071428Y-71142857D01*
X90357142Y-71285714D01*
X90500000Y-71428571D01*
X90642857Y-71714285D01*
X90642857Y-72285714D01*
X90500000Y-72571428D01*
X88785714Y-75000000D02*
X88642857Y-74714285D01*
X88642857Y-74142857D01*
X88785714Y-73857142D01*
X89071428Y-73714285D01*
X90214285Y-73714285D01*
X90500000Y-73857142D01*
X90642857Y-74142857D01*
X90642857Y-74714285D01*
X90500000Y-75000000D01*
X90214285Y-75142857D01*
X89928571Y-75142857D01*
X89642857Y-73714285D01*
X89785714Y-76428571D02*
X89785714Y-78714285D01*
X88642857Y-80142857D02*
X91642857Y-80142857D01*
X91642857Y-81285714D01*
X91500000Y-81571428D01*
X91357142Y-81714285D01*
X91071428Y-81857142D01*
X90642857Y-81857142D01*
X90357142Y-81714285D01*
X90214285Y-81571428D01*
X90071428Y-81285714D01*
X90071428Y-80142857D01*
X88642857Y-83571428D02*
X88785714Y-83285714D01*
X89071428Y-83142857D01*
X91642857Y-83142857D01*
X90642857Y-86000000D02*
X88642857Y-86000000D01*
X90642857Y-84714285D02*
X89071428Y-84714285D01*
X88785714Y-84857142D01*
X88642857Y-85142857D01*
X88642857Y-85571428D01*
X88785714Y-85857142D01*
X88928571Y-86000000D01*
X88785714Y-87285714D02*
X88642857Y-87571428D01*
X88642857Y-88142857D01*
X88785714Y-88428571D01*
X89071428Y-88571428D01*
X89214285Y-88571428D01*
X89500000Y-88428571D01*
X89642857Y-88142857D01*
X89642857Y-87714285D01*
X89785714Y-87428571D01*
X90071428Y-87285714D01*
X90214285Y-87285714D01*
X90500000Y-87428571D01*
X90642857Y-87714285D01*
X90642857Y-88142857D01*
X90500000Y-88428571D01*
X91785714Y-92000000D02*
X87928571Y-89428571D01*
X89500000Y-92857142D02*
X89500000Y-94285714D01*
X88642857Y-92571428D02*
X91642857Y-93571428D01*
X88642857Y-94571428D01*
X88642857Y-95571428D02*
X90642857Y-95571428D01*
X90357142Y-95571428D02*
X90500000Y-95714285D01*
X90642857Y-96000000D01*
X90642857Y-96428571D01*
X90500000Y-96714285D01*
X90214285Y-96857142D01*
X88642857Y-96857142D01*
X90214285Y-96857142D02*
X90500000Y-97000000D01*
X90642857Y-97285714D01*
X90642857Y-97714285D01*
X90500000Y-98000000D01*
X90214285Y-98142857D01*
X88642857Y-98142857D01*
X88642857Y-99571428D02*
X90642857Y-99571428D01*
X91642857Y-99571428D02*
X91500000Y-99428571D01*
X91357142Y-99571428D01*
X91500000Y-99714285D01*
X91642857Y-99571428D01*
X91357142Y-99571428D01*
X90642857Y-102285714D02*
X88214285Y-102285714D01*
X87928571Y-102142857D01*
X87785714Y-102000000D01*
X87642857Y-101714285D01*
X87642857Y-101285714D01*
X87785714Y-101000000D01*
X88785714Y-102285714D02*
X88642857Y-102000000D01*
X88642857Y-101428571D01*
X88785714Y-101142857D01*
X88928571Y-101000000D01*
X89214285Y-100857142D01*
X90071428Y-100857142D01*
X90357142Y-101000000D01*
X90500000Y-101142857D01*
X90642857Y-101428571D01*
X90642857Y-102000000D01*
X90500000Y-102285714D01*
X88642857Y-105000000D02*
X90214285Y-105000000D01*
X90500000Y-104857142D01*
X90642857Y-104571428D01*
X90642857Y-104000000D01*
X90500000Y-103714285D01*
X88785714Y-105000000D02*
X88642857Y-104714285D01*
X88642857Y-104000000D01*
X88785714Y-103714285D01*
X89071428Y-103571428D01*
X89357142Y-103571428D01*
X89642857Y-103714285D01*
X89785714Y-104000000D01*
X89785714Y-104714285D01*
X89928571Y-105000000D01*
D13*
%TO.C,U35*%
X145845000Y-43530000D02*
X147370000Y-43530000D01*
X147720000Y-53600000D02*
X147720000Y-43700000D01*
X150920000Y-53600000D02*
X147720000Y-53600000D01*
X150920000Y-43700000D02*
X150920000Y-53600000D01*
X147720000Y-43700000D02*
X150920000Y-43700000D01*
%TO.C,U36*%
X104330000Y-47540000D02*
X107530000Y-47540000D01*
X107530000Y-47540000D02*
X107530000Y-57440000D01*
X107530000Y-57440000D02*
X104330000Y-57440000D01*
X104330000Y-57440000D02*
X104330000Y-47540000D01*
X102455000Y-47370000D02*
X103980000Y-47370000D01*
%TO.C,U37*%
X123760000Y-105815000D02*
X123760000Y-104290000D01*
X133830000Y-103940000D02*
X123930000Y-103940000D01*
X133830000Y-100740000D02*
X133830000Y-103940000D01*
X123930000Y-100740000D02*
X133830000Y-100740000D01*
X123930000Y-103940000D02*
X123930000Y-100740000D01*
%TO.C,U43*%
X123785000Y-116615000D02*
X123785000Y-115090000D01*
X132595000Y-114740000D02*
X123945000Y-114740000D01*
X132595000Y-111540000D02*
X132595000Y-114740000D01*
X123945000Y-111540000D02*
X132595000Y-111540000D01*
X123945000Y-114740000D02*
X123945000Y-111540000D01*
%TO.C,J1*%
X110290000Y-140850000D02*
X110290000Y-139580000D01*
%TO.C,J2*%
X118020000Y-120520000D02*
X118020000Y-119250000D01*
%TO.C,U21*%
X123800000Y-54330000D02*
X123800000Y-52380000D01*
X136590000Y-52030000D02*
X123790000Y-52030000D01*
X136590000Y-45230000D02*
X136590000Y-52030000D01*
X123790000Y-45230000D02*
X136590000Y-45230000D01*
X123790000Y-52030000D02*
X123790000Y-45230000D01*
%TO.C,U15*%
X183795000Y-109415000D02*
X183795000Y-107890000D01*
X192605000Y-107540000D02*
X183955000Y-107540000D01*
X192605000Y-104340000D02*
X192605000Y-107540000D01*
X183955000Y-104340000D02*
X192605000Y-104340000D01*
X183955000Y-107540000D02*
X183955000Y-104340000D01*
%TO.C,U45*%
X183795000Y-121795000D02*
X183795000Y-120270000D01*
X192605000Y-119920000D02*
X183955000Y-119920000D01*
X192605000Y-116720000D02*
X192605000Y-119920000D01*
X183955000Y-116720000D02*
X192605000Y-116720000D01*
X183955000Y-119920000D02*
X183955000Y-116720000D01*
%TO.C,U28*%
X183965000Y-132450000D02*
X183965000Y-129250000D01*
X183965000Y-129250000D02*
X192615000Y-129250000D01*
X192615000Y-129250000D02*
X192615000Y-132450000D01*
X192615000Y-132450000D02*
X183965000Y-132450000D01*
X183805000Y-134325000D02*
X183805000Y-132800000D01*
D14*
%TO.C,Q1*%
X182030000Y-94760000D02*
X194180000Y-94760000D01*
X181280000Y-74610000D02*
X181280000Y-94010000D01*
X193430000Y-73860000D02*
X182030000Y-73860000D01*
X194180000Y-94760000D02*
X194180000Y-74610000D01*
X194180000Y-74610000D02*
G75*
G03*
X193430000Y-73860000I-750000J0D01*
G01*
X182030000Y-73860000D02*
G75*
G03*
X181280000Y-74610000I0J-750000D01*
G01*
X181280000Y-94010000D02*
G75*
G03*
X182030000Y-94760000I750000J0D01*
G01*
%TO.C,U14*%
X208270000Y-123150000D02*
X213730000Y-123150000D01*
X213730000Y-123150000D02*
X213730000Y-72230000D01*
X213730000Y-72230000D02*
X200810000Y-72230000D01*
X200810000Y-72230000D02*
X200810000Y-123150000D01*
X200810000Y-123150000D02*
X206270000Y-123150000D01*
X216220000Y-123210000D02*
X216220000Y-72170000D01*
X216220000Y-72170000D02*
X198320000Y-72170000D01*
X198320000Y-72170000D02*
X198320000Y-123210000D01*
X198320000Y-123210000D02*
X216220000Y-123210000D01*
X206270000Y-123150000D02*
G75*
G02*
X208270000Y-123150000I1000000J0D01*
G01*
D11*
%TO.C,U13*%
X169385000Y-89015000D02*
X169885000Y-89015000D01*
X169885000Y-89015000D02*
X171035000Y-87865000D01*
X171035000Y-87865000D02*
X171035000Y-87365000D01*
X147115000Y-89015000D02*
X145465000Y-89015000D01*
X145465000Y-89015000D02*
X145465000Y-87365000D01*
X169385000Y-63445000D02*
X171035000Y-63445000D01*
X171035000Y-63445000D02*
X171035000Y-65095000D01*
X147115000Y-63445000D02*
X145465000Y-63445000D01*
X145465000Y-63445000D02*
X145465000Y-65095000D01*
D14*
%TO.C,C10*%
X90660000Y-48650000D02*
X90660000Y-40640000D01*
X90660000Y-40640000D02*
X84340000Y-40640000D01*
X84340000Y-40640000D02*
X84340000Y-48650000D01*
%TO.C,C11*%
X211720000Y-127590000D02*
X203710000Y-127590000D01*
X211720000Y-133910000D02*
X211720000Y-127590000D01*
X203710000Y-133910000D02*
X211720000Y-133910000D01*
%TO.C,C12*%
X86758748Y-54590000D02*
X88181252Y-54590000D01*
X86758748Y-52770000D02*
X88181252Y-52770000D01*
%TO.C,C13*%
X142000000Y-71086252D02*
X142000000Y-69663748D01*
X143820000Y-71086252D02*
X143820000Y-69663748D01*
%TO.C,C14*%
X145180000Y-95068748D02*
X145180000Y-96491252D01*
X147000000Y-95068748D02*
X147000000Y-96491252D01*
%TO.C,C15*%
X153148748Y-57970000D02*
X154571252Y-57970000D01*
X153148748Y-59790000D02*
X154571252Y-59790000D01*
%TO.C,C16*%
X132141252Y-60520000D02*
X130718748Y-60520000D01*
X132141252Y-62340000D02*
X130718748Y-62340000D01*
%TO.C,C17*%
X143740000Y-95068748D02*
X143740000Y-96491252D01*
X141920000Y-95068748D02*
X141920000Y-96491252D01*
%TO.C,C21*%
X122800000Y-44238748D02*
X122800000Y-45661252D01*
X120980000Y-44238748D02*
X120980000Y-45661252D01*
%TO.C,C22*%
X197390000Y-98461252D02*
X197390000Y-97038748D01*
X195570000Y-98461252D02*
X195570000Y-97038748D01*
%TO.C,C23*%
X122680000Y-100218748D02*
X122680000Y-101641252D01*
X120860000Y-100218748D02*
X120860000Y-101641252D01*
%TO.C,C24*%
X132141252Y-119110000D02*
X130718748Y-119110000D01*
X132141252Y-120930000D02*
X130718748Y-120930000D01*
%TO.C,C25*%
X92700000Y-128808748D02*
X92700000Y-130231252D01*
X90880000Y-128808748D02*
X90880000Y-130231252D01*
%TO.C,C27*%
X122700000Y-112491252D02*
X122700000Y-111068748D01*
X120880000Y-112491252D02*
X120880000Y-111068748D01*
%TO.C,C28*%
X158000000Y-44738748D02*
X158000000Y-46161252D01*
X156180000Y-44738748D02*
X156180000Y-46161252D01*
%TO.C,C29*%
X151331252Y-39450000D02*
X149908748Y-39450000D01*
X151331252Y-41270000D02*
X149908748Y-41270000D01*
%TO.C,C31*%
X208668748Y-66880000D02*
X210091252Y-66880000D01*
X208668748Y-68700000D02*
X210091252Y-68700000D01*
%TO.C,C32*%
X198448748Y-66850000D02*
X199871252Y-66850000D01*
X198448748Y-68670000D02*
X199871252Y-68670000D01*
%TO.C,C33*%
X188288748Y-68660000D02*
X189711252Y-68660000D01*
X188288748Y-66840000D02*
X189711252Y-66840000D01*
%TO.C,C34*%
X177918748Y-66820000D02*
X179341252Y-66820000D01*
X177918748Y-68640000D02*
X179341252Y-68640000D01*
%TO.C,C35*%
X105461252Y-58660000D02*
X104038748Y-58660000D01*
X105461252Y-60480000D02*
X104038748Y-60480000D01*
%TO.C,C36*%
X107951252Y-46380000D02*
X106528748Y-46380000D01*
X107951252Y-44560000D02*
X106528748Y-44560000D01*
%TO.C,C37*%
X182760000Y-130081252D02*
X182760000Y-128658748D01*
X180940000Y-130081252D02*
X180940000Y-128658748D01*
%TO.C,C41*%
X180830000Y-117541252D02*
X180830000Y-116118748D01*
X182650000Y-117541252D02*
X182650000Y-116118748D01*
%TO.C,C42*%
X180860000Y-103918748D02*
X180860000Y-105341252D01*
X182680000Y-103918748D02*
X182680000Y-105341252D01*
%TO.C,C43*%
X184388748Y-94790000D02*
X185811252Y-94790000D01*
X184388748Y-96610000D02*
X185811252Y-96610000D01*
%TO.C,C44*%
X208330000Y-99581252D02*
X208330000Y-98158748D01*
X206510000Y-99581252D02*
X206510000Y-98158748D01*
%TO.C,C45*%
X140870000Y-119351252D02*
X140870000Y-117928748D01*
X142690000Y-119351252D02*
X142690000Y-117928748D01*
%TO.C,C46*%
X178990000Y-118841252D02*
X178990000Y-117418748D01*
X177170000Y-118841252D02*
X177170000Y-117418748D01*
%TO.C,R11*%
X142640000Y-112252936D02*
X142640000Y-113707064D01*
X140820000Y-112252936D02*
X140820000Y-113707064D01*
%TO.C,R12*%
X174560000Y-86917064D02*
X174560000Y-85462936D01*
X176380000Y-86917064D02*
X176380000Y-85462936D01*
%TO.C,R13*%
X102400000Y-102772936D02*
X102400000Y-104227064D01*
X104220000Y-102772936D02*
X104220000Y-104227064D01*
%TO.C,R14*%
X102400000Y-110567064D02*
X102400000Y-109112936D01*
X104220000Y-110567064D02*
X104220000Y-109112936D01*
%TO.C,R15*%
X141980000Y-88722936D02*
X141980000Y-90177064D01*
X143800000Y-88722936D02*
X143800000Y-90177064D01*
%TO.C,R16*%
X208127064Y-78840000D02*
X206672936Y-78840000D01*
X208127064Y-77020000D02*
X206672936Y-77020000D01*
%TO.C,R17*%
X208107064Y-80910000D02*
X206652936Y-80910000D01*
X208107064Y-82730000D02*
X206652936Y-82730000D01*
%TO.C,R31*%
X156010000Y-53857064D02*
X156010000Y-52402936D01*
X157830000Y-53857064D02*
X157830000Y-52402936D01*
%TO.C,R32*%
X165967064Y-57940000D02*
X164512936Y-57940000D01*
X165967064Y-59760000D02*
X164512936Y-59760000D01*
%TO.C,R33*%
X172457064Y-59790000D02*
X171002936Y-59790000D01*
X172457064Y-57970000D02*
X171002936Y-57970000D01*
%TO.C,R34*%
X158367064Y-39440000D02*
X156912936Y-39440000D01*
X158367064Y-41260000D02*
X156912936Y-41260000D01*
%TO.C,R35*%
X123142936Y-41320000D02*
X124597064Y-41320000D01*
X123142936Y-39500000D02*
X124597064Y-39500000D01*
%TO.C,R36*%
X125392936Y-56670000D02*
X126847064Y-56670000D01*
X125392936Y-58490000D02*
X126847064Y-58490000D01*
%TO.C,R37*%
X101060000Y-49457064D02*
X101060000Y-48002936D01*
X99240000Y-49457064D02*
X99240000Y-48002936D01*
%TO.C,R38*%
X101080000Y-53042936D02*
X101080000Y-54497064D01*
X99260000Y-53042936D02*
X99260000Y-54497064D01*
%TO.C,R39*%
X131462936Y-58460000D02*
X132917064Y-58460000D01*
X131462936Y-56640000D02*
X132917064Y-56640000D01*
%TO.C,R41*%
X136780000Y-128112936D02*
X136780000Y-129567064D01*
X134960000Y-128112936D02*
X134960000Y-129567064D01*
%TO.C,R42*%
X93810436Y-138270000D02*
X95264564Y-138270000D01*
X93810436Y-136450000D02*
X95264564Y-136450000D01*
%TO.C,R43*%
X102227064Y-136490000D02*
X100772936Y-136490000D01*
X102227064Y-138310000D02*
X100772936Y-138310000D01*
%TO.C,R44*%
X102739564Y-126160000D02*
X101285436Y-126160000D01*
X102739564Y-124340000D02*
X101285436Y-124340000D01*
%TO.C,R45*%
X95642936Y-124320000D02*
X97097064Y-124320000D01*
X95642936Y-126140000D02*
X97097064Y-126140000D01*
%TO.C,R46*%
X177130000Y-126367064D02*
X177130000Y-124912936D01*
X178950000Y-126367064D02*
X178950000Y-124912936D01*
%TO.C,R47*%
X158842936Y-59780000D02*
X160297064Y-59780000D01*
X158842936Y-57960000D02*
X160297064Y-57960000D01*
%TO.C,R48*%
X208117064Y-110020000D02*
X206662936Y-110020000D01*
X208117064Y-108200000D02*
X206662936Y-108200000D01*
%TO.C,R49*%
X122992936Y-135800000D02*
X124447064Y-135800000D01*
X122992936Y-137620000D02*
X124447064Y-137620000D01*
%TO.C,R50*%
X143062936Y-103040000D02*
X144517064Y-103040000D01*
X143062936Y-101220000D02*
X144517064Y-101220000D01*
%TO.C,R110*%
X208137064Y-86470000D02*
X206682936Y-86470000D01*
X208137064Y-84650000D02*
X206682936Y-84650000D01*
%TO.C,R311*%
X167052936Y-140020000D02*
X168507064Y-140020000D01*
X167052936Y-138200000D02*
X168507064Y-138200000D01*
%TO.C,R312*%
X161312936Y-140040000D02*
X162767064Y-140040000D01*
X161312936Y-138220000D02*
X162767064Y-138220000D01*
%TO.C,R313*%
X155462936Y-139950000D02*
X156917064Y-139950000D01*
X155462936Y-138130000D02*
X156917064Y-138130000D01*
%TO.C,C26*%
X132191252Y-80150000D02*
X130768748Y-80150000D01*
X132191252Y-78330000D02*
X130768748Y-78330000D01*
D11*
%TO.C,U41*%
X146005000Y-104612500D02*
X145505000Y-104612500D01*
X145505000Y-104612500D02*
X144355000Y-105762500D01*
X144355000Y-105762500D02*
X144355000Y-106262500D01*
X173355000Y-104612500D02*
X175005000Y-104612500D01*
X175005000Y-104612500D02*
X175005000Y-106262500D01*
X146005000Y-135262500D02*
X144355000Y-135262500D01*
X144355000Y-135262500D02*
X144355000Y-133612500D01*
X173355000Y-135262500D02*
X175005000Y-135262500D01*
X175005000Y-135262500D02*
X175005000Y-133612500D01*
D13*
%TO.C,U24*%
X121950000Y-121960000D02*
X123900000Y-121960000D01*
X124250000Y-134750000D02*
X124250000Y-121950000D01*
X131050000Y-134750000D02*
X124250000Y-134750000D01*
X131050000Y-121950000D02*
X131050000Y-134750000D01*
X124250000Y-121950000D02*
X131050000Y-121950000D01*
%TO.C,U25*%
X124320000Y-81120000D02*
X131120000Y-81120000D01*
X131120000Y-81120000D02*
X131120000Y-93920000D01*
X131120000Y-93920000D02*
X124320000Y-93920000D01*
X124320000Y-93920000D02*
X124320000Y-81120000D01*
X122020000Y-81130000D02*
X123970000Y-81130000D01*
%TO.C,U26*%
X124320000Y-63280000D02*
X131120000Y-63280000D01*
X131120000Y-63280000D02*
X131120000Y-76080000D01*
X131120000Y-76080000D02*
X124320000Y-76080000D01*
X124320000Y-76080000D02*
X124320000Y-63280000D01*
X122020000Y-63290000D02*
X123970000Y-63290000D01*
%TO.C,U29*%
X158950000Y-54970000D02*
X158950000Y-53020000D01*
X171740000Y-52670000D02*
X158940000Y-52670000D01*
X171740000Y-45870000D02*
X171740000Y-52670000D01*
X158940000Y-45870000D02*
X171740000Y-45870000D01*
X158940000Y-52670000D02*
X158940000Y-45870000D01*
%TO.C,U42*%
X93925000Y-132350000D02*
X93925000Y-129150000D01*
X93925000Y-129150000D02*
X102575000Y-129150000D01*
X102575000Y-129150000D02*
X102575000Y-132350000D01*
X102575000Y-132350000D02*
X93925000Y-132350000D01*
X93765000Y-134225000D02*
X93765000Y-132700000D01*
D14*
%TO.C,U22*%
X148590000Y-93820000D02*
X148590000Y-95470000D01*
X174110000Y-93820000D02*
X148590000Y-93820000D01*
X174110000Y-99120000D02*
X174110000Y-93820000D01*
X148590000Y-99120000D02*
X174110000Y-99120000D01*
X148590000Y-97470000D02*
X148590000Y-99120000D01*
X148590000Y-95470000D02*
G75*
G02*
X148590000Y-97470000I0J-1000000D01*
G01*
%TO.C,U44*%
X101680000Y-62050000D02*
X100030000Y-62050000D01*
X100030000Y-62050000D02*
X100030000Y-87570000D01*
X100030000Y-87570000D02*
X105330000Y-87570000D01*
X105330000Y-87570000D02*
X105330000Y-62050000D01*
X105330000Y-62050000D02*
X103680000Y-62050000D01*
X103680000Y-62050000D02*
G75*
G02*
X101680000Y-62050000I-1000000J0D01*
G01*
%TO.C,U31*%
X213910000Y-39030000D02*
X212260000Y-39030000D01*
X213910000Y-64550000D02*
X213910000Y-39030000D01*
X208610000Y-64550000D02*
X213910000Y-64550000D01*
X208610000Y-39030000D02*
X208610000Y-64550000D01*
X210260000Y-39030000D02*
X208610000Y-39030000D01*
X212260000Y-39030000D02*
G75*
G02*
X210260000Y-39030000I-1000000J0D01*
G01*
%TO.C,U32*%
X200040000Y-39030000D02*
X198390000Y-39030000D01*
X198390000Y-39030000D02*
X198390000Y-64550000D01*
X198390000Y-64550000D02*
X203690000Y-64550000D01*
X203690000Y-64550000D02*
X203690000Y-39030000D01*
X203690000Y-39030000D02*
X202040000Y-39030000D01*
X202040000Y-39030000D02*
G75*
G02*
X200040000Y-39030000I-1000000J0D01*
G01*
%TO.C,U33*%
X189870000Y-39030000D02*
X188220000Y-39030000D01*
X188220000Y-39030000D02*
X188220000Y-64550000D01*
X188220000Y-64550000D02*
X193520000Y-64550000D01*
X193520000Y-64550000D02*
X193520000Y-39030000D01*
X193520000Y-39030000D02*
X191870000Y-39030000D01*
X191870000Y-39030000D02*
G75*
G02*
X189870000Y-39030000I-1000000J0D01*
G01*
%TO.C,U34*%
X183290000Y-39030000D02*
X181640000Y-39030000D01*
X183290000Y-64550000D02*
X183290000Y-39030000D01*
X177990000Y-64550000D02*
X183290000Y-64550000D01*
X177990000Y-39030000D02*
X177990000Y-64550000D01*
X179640000Y-39030000D02*
X177990000Y-39030000D01*
X181640000Y-39030000D02*
G75*
G02*
X179640000Y-39030000I-1000000J0D01*
G01*
%TO.C,REF\u002A\u002A*%
D15*
X207936666Y-132022380D02*
X207603333Y-131546190D01*
X207365238Y-132022380D02*
X207365238Y-131022380D01*
X207746190Y-131022380D01*
X207841428Y-131070000D01*
X207889047Y-131117619D01*
X207936666Y-131212857D01*
X207936666Y-131355714D01*
X207889047Y-131450952D01*
X207841428Y-131498571D01*
X207746190Y-131546190D01*
X207365238Y-131546190D01*
X208365238Y-131498571D02*
X208698571Y-131498571D01*
X208841428Y-132022380D02*
X208365238Y-132022380D01*
X208365238Y-131022380D01*
X208841428Y-131022380D01*
X209603333Y-131498571D02*
X209270000Y-131498571D01*
X209270000Y-132022380D02*
X209270000Y-131022380D01*
X209746190Y-131022380D01*
X210270000Y-131022380D02*
X210270000Y-131260476D01*
X210031904Y-131165238D02*
X210270000Y-131260476D01*
X210508095Y-131165238D01*
X210127142Y-131450952D02*
X210270000Y-131260476D01*
X210412857Y-131450952D01*
X211031904Y-131022380D02*
X211031904Y-131260476D01*
X210793809Y-131165238D02*
X211031904Y-131260476D01*
X211270000Y-131165238D01*
X210889047Y-131450952D02*
X211031904Y-131260476D01*
X211174761Y-131450952D01*
X97016666Y-39802380D02*
X96683333Y-39326190D01*
X96445238Y-39802380D02*
X96445238Y-38802380D01*
X96826190Y-38802380D01*
X96921428Y-38850000D01*
X96969047Y-38897619D01*
X97016666Y-38992857D01*
X97016666Y-39135714D01*
X96969047Y-39230952D01*
X96921428Y-39278571D01*
X96826190Y-39326190D01*
X96445238Y-39326190D01*
X97445238Y-39278571D02*
X97778571Y-39278571D01*
X97921428Y-39802380D02*
X97445238Y-39802380D01*
X97445238Y-38802380D01*
X97921428Y-38802380D01*
X98683333Y-39278571D02*
X98350000Y-39278571D01*
X98350000Y-39802380D02*
X98350000Y-38802380D01*
X98826190Y-38802380D01*
X99350000Y-38802380D02*
X99350000Y-39040476D01*
X99111904Y-38945238D02*
X99350000Y-39040476D01*
X99588095Y-38945238D01*
X99207142Y-39230952D02*
X99350000Y-39040476D01*
X99492857Y-39230952D01*
X100111904Y-38802380D02*
X100111904Y-39040476D01*
X99873809Y-38945238D02*
X100111904Y-39040476D01*
X100350000Y-38945238D01*
X99969047Y-39230952D02*
X100111904Y-39040476D01*
X100254761Y-39230952D01*
%TO.C,U35*%
D16*
X145667619Y-54404523D02*
X145667619Y-55432619D01*
X145728095Y-55553571D01*
X145788571Y-55614047D01*
X145909523Y-55674523D01*
X146151428Y-55674523D01*
X146272380Y-55614047D01*
X146332857Y-55553571D01*
X146393333Y-55432619D01*
X146393333Y-54404523D01*
X146877142Y-54404523D02*
X147663333Y-54404523D01*
X147240000Y-54888333D01*
X147421428Y-54888333D01*
X147542380Y-54948809D01*
X147602857Y-55009285D01*
X147663333Y-55130238D01*
X147663333Y-55432619D01*
X147602857Y-55553571D01*
X147542380Y-55614047D01*
X147421428Y-55674523D01*
X147058571Y-55674523D01*
X146937619Y-55614047D01*
X146877142Y-55553571D01*
X148812380Y-54404523D02*
X148207619Y-54404523D01*
X148147142Y-55009285D01*
X148207619Y-54948809D01*
X148328571Y-54888333D01*
X148630952Y-54888333D01*
X148751904Y-54948809D01*
X148812380Y-55009285D01*
X148872857Y-55130238D01*
X148872857Y-55432619D01*
X148812380Y-55553571D01*
X148751904Y-55614047D01*
X148630952Y-55674523D01*
X148328571Y-55674523D01*
X148207619Y-55614047D01*
X148147142Y-55553571D01*
%TO.C,U36*%
X110484523Y-50772380D02*
X111512619Y-50772380D01*
X111633571Y-50711904D01*
X111694047Y-50651428D01*
X111754523Y-50530476D01*
X111754523Y-50288571D01*
X111694047Y-50167619D01*
X111633571Y-50107142D01*
X111512619Y-50046666D01*
X110484523Y-50046666D01*
X110484523Y-49562857D02*
X110484523Y-48776666D01*
X110968333Y-49200000D01*
X110968333Y-49018571D01*
X111028809Y-48897619D01*
X111089285Y-48837142D01*
X111210238Y-48776666D01*
X111512619Y-48776666D01*
X111633571Y-48837142D01*
X111694047Y-48897619D01*
X111754523Y-49018571D01*
X111754523Y-49381428D01*
X111694047Y-49502380D01*
X111633571Y-49562857D01*
X110484523Y-47688095D02*
X110484523Y-47930000D01*
X110545000Y-48050952D01*
X110605476Y-48111428D01*
X110786904Y-48232380D01*
X111028809Y-48292857D01*
X111512619Y-48292857D01*
X111633571Y-48232380D01*
X111694047Y-48171904D01*
X111754523Y-48050952D01*
X111754523Y-47809047D01*
X111694047Y-47688095D01*
X111633571Y-47627619D01*
X111512619Y-47567142D01*
X111210238Y-47567142D01*
X111089285Y-47627619D01*
X111028809Y-47688095D01*
X110968333Y-47809047D01*
X110968333Y-48050952D01*
X111028809Y-48171904D01*
X111089285Y-48232380D01*
X111210238Y-48292857D01*
%TO.C,U37*%
X123817619Y-106814523D02*
X123817619Y-107842619D01*
X123878095Y-107963571D01*
X123938571Y-108024047D01*
X124059523Y-108084523D01*
X124301428Y-108084523D01*
X124422380Y-108024047D01*
X124482857Y-107963571D01*
X124543333Y-107842619D01*
X124543333Y-106814523D01*
X125027142Y-106814523D02*
X125813333Y-106814523D01*
X125390000Y-107298333D01*
X125571428Y-107298333D01*
X125692380Y-107358809D01*
X125752857Y-107419285D01*
X125813333Y-107540238D01*
X125813333Y-107842619D01*
X125752857Y-107963571D01*
X125692380Y-108024047D01*
X125571428Y-108084523D01*
X125208571Y-108084523D01*
X125087619Y-108024047D01*
X125027142Y-107963571D01*
X126236666Y-106814523D02*
X127083333Y-106814523D01*
X126539047Y-108084523D01*
%TO.C,U43*%
X123907619Y-117714523D02*
X123907619Y-118742619D01*
X123968095Y-118863571D01*
X124028571Y-118924047D01*
X124149523Y-118984523D01*
X124391428Y-118984523D01*
X124512380Y-118924047D01*
X124572857Y-118863571D01*
X124633333Y-118742619D01*
X124633333Y-117714523D01*
X125782380Y-118137857D02*
X125782380Y-118984523D01*
X125480000Y-117654047D02*
X125177619Y-118561190D01*
X125963809Y-118561190D01*
X126326666Y-117714523D02*
X127112857Y-117714523D01*
X126689523Y-118198333D01*
X126870952Y-118198333D01*
X126991904Y-118258809D01*
X127052380Y-118319285D01*
X127112857Y-118440238D01*
X127112857Y-118742619D01*
X127052380Y-118863571D01*
X126991904Y-118924047D01*
X126870952Y-118984523D01*
X126508095Y-118984523D01*
X126387142Y-118924047D01*
X126326666Y-118863571D01*
%TO.C,U21*%
X133697619Y-40854523D02*
X133697619Y-41882619D01*
X133758095Y-42003571D01*
X133818571Y-42064047D01*
X133939523Y-42124523D01*
X134181428Y-42124523D01*
X134302380Y-42064047D01*
X134362857Y-42003571D01*
X134423333Y-41882619D01*
X134423333Y-40854523D01*
X134967619Y-40975476D02*
X135028095Y-40915000D01*
X135149047Y-40854523D01*
X135451428Y-40854523D01*
X135572380Y-40915000D01*
X135632857Y-40975476D01*
X135693333Y-41096428D01*
X135693333Y-41217380D01*
X135632857Y-41398809D01*
X134907142Y-42124523D01*
X135693333Y-42124523D01*
X136902857Y-42124523D02*
X136177142Y-42124523D01*
X136540000Y-42124523D02*
X136540000Y-40854523D01*
X136419047Y-41035952D01*
X136298095Y-41156904D01*
X136177142Y-41217380D01*
%TO.C,U15*%
X189647619Y-110054523D02*
X189647619Y-111082619D01*
X189708095Y-111203571D01*
X189768571Y-111264047D01*
X189889523Y-111324523D01*
X190131428Y-111324523D01*
X190252380Y-111264047D01*
X190312857Y-111203571D01*
X190373333Y-111082619D01*
X190373333Y-110054523D01*
X191643333Y-111324523D02*
X190917619Y-111324523D01*
X191280476Y-111324523D02*
X191280476Y-110054523D01*
X191159523Y-110235952D01*
X191038571Y-110356904D01*
X190917619Y-110417380D01*
X192792380Y-110054523D02*
X192187619Y-110054523D01*
X192127142Y-110659285D01*
X192187619Y-110598809D01*
X192308571Y-110538333D01*
X192610952Y-110538333D01*
X192731904Y-110598809D01*
X192792380Y-110659285D01*
X192852857Y-110780238D01*
X192852857Y-111082619D01*
X192792380Y-111203571D01*
X192731904Y-111264047D01*
X192610952Y-111324523D01*
X192308571Y-111324523D01*
X192187619Y-111264047D01*
X192127142Y-111203571D01*
%TO.C,U45*%
X189547619Y-122354523D02*
X189547619Y-123382619D01*
X189608095Y-123503571D01*
X189668571Y-123564047D01*
X189789523Y-123624523D01*
X190031428Y-123624523D01*
X190152380Y-123564047D01*
X190212857Y-123503571D01*
X190273333Y-123382619D01*
X190273333Y-122354523D01*
X191422380Y-122777857D02*
X191422380Y-123624523D01*
X191120000Y-122294047D02*
X190817619Y-123201190D01*
X191603809Y-123201190D01*
X192692380Y-122354523D02*
X192087619Y-122354523D01*
X192027142Y-122959285D01*
X192087619Y-122898809D01*
X192208571Y-122838333D01*
X192510952Y-122838333D01*
X192631904Y-122898809D01*
X192692380Y-122959285D01*
X192752857Y-123080238D01*
X192752857Y-123382619D01*
X192692380Y-123503571D01*
X192631904Y-123564047D01*
X192510952Y-123624523D01*
X192208571Y-123624523D01*
X192087619Y-123564047D01*
X192027142Y-123503571D01*
%TO.C,U28*%
X189597619Y-134944523D02*
X189597619Y-135972619D01*
X189658095Y-136093571D01*
X189718571Y-136154047D01*
X189839523Y-136214523D01*
X190081428Y-136214523D01*
X190202380Y-136154047D01*
X190262857Y-136093571D01*
X190323333Y-135972619D01*
X190323333Y-134944523D01*
X190867619Y-135065476D02*
X190928095Y-135005000D01*
X191049047Y-134944523D01*
X191351428Y-134944523D01*
X191472380Y-135005000D01*
X191532857Y-135065476D01*
X191593333Y-135186428D01*
X191593333Y-135307380D01*
X191532857Y-135488809D01*
X190807142Y-136214523D01*
X191593333Y-136214523D01*
X192319047Y-135488809D02*
X192198095Y-135428333D01*
X192137619Y-135367857D01*
X192077142Y-135246904D01*
X192077142Y-135186428D01*
X192137619Y-135065476D01*
X192198095Y-135005000D01*
X192319047Y-134944523D01*
X192560952Y-134944523D01*
X192681904Y-135005000D01*
X192742380Y-135065476D01*
X192802857Y-135186428D01*
X192802857Y-135246904D01*
X192742380Y-135367857D01*
X192681904Y-135428333D01*
X192560952Y-135488809D01*
X192319047Y-135488809D01*
X192198095Y-135549285D01*
X192137619Y-135609761D01*
X192077142Y-135730714D01*
X192077142Y-135972619D01*
X192137619Y-136093571D01*
X192198095Y-136154047D01*
X192319047Y-136214523D01*
X192560952Y-136214523D01*
X192681904Y-136154047D01*
X192742380Y-136093571D01*
X192802857Y-135972619D01*
X192802857Y-135730714D01*
X192742380Y-135609761D01*
X192681904Y-135549285D01*
X192560952Y-135488809D01*
%TO.C,Q1*%
D15*
X180587619Y-76525238D02*
X180540000Y-76620476D01*
X180444761Y-76715714D01*
X180301904Y-76858571D01*
X180254285Y-76953809D01*
X180254285Y-77049047D01*
X180492380Y-77001428D02*
X180444761Y-77096666D01*
X180349523Y-77191904D01*
X180159047Y-77239523D01*
X179825714Y-77239523D01*
X179635238Y-77191904D01*
X179540000Y-77096666D01*
X179492380Y-77001428D01*
X179492380Y-76810952D01*
X179540000Y-76715714D01*
X179635238Y-76620476D01*
X179825714Y-76572857D01*
X180159047Y-76572857D01*
X180349523Y-76620476D01*
X180444761Y-76715714D01*
X180492380Y-76810952D01*
X180492380Y-77001428D01*
X180492380Y-75620476D02*
X180492380Y-76191904D01*
X180492380Y-75906190D02*
X179492380Y-75906190D01*
X179635238Y-76001428D01*
X179730476Y-76096666D01*
X179778095Y-76191904D01*
%TO.C,U14*%
X206031904Y-123602380D02*
X206031904Y-124411904D01*
X206079523Y-124507142D01*
X206127142Y-124554761D01*
X206222380Y-124602380D01*
X206412857Y-124602380D01*
X206508095Y-124554761D01*
X206555714Y-124507142D01*
X206603333Y-124411904D01*
X206603333Y-123602380D01*
X207603333Y-124602380D02*
X207031904Y-124602380D01*
X207317619Y-124602380D02*
X207317619Y-123602380D01*
X207222380Y-123745238D01*
X207127142Y-123840476D01*
X207031904Y-123888095D01*
X208460476Y-123935714D02*
X208460476Y-124602380D01*
X208222380Y-123554761D02*
X207984285Y-124269047D01*
X208603333Y-124269047D01*
%TO.C,U13*%
X157011904Y-89317380D02*
X157011904Y-90126904D01*
X157059523Y-90222142D01*
X157107142Y-90269761D01*
X157202380Y-90317380D01*
X157392857Y-90317380D01*
X157488095Y-90269761D01*
X157535714Y-90222142D01*
X157583333Y-90126904D01*
X157583333Y-89317380D01*
X158583333Y-90317380D02*
X158011904Y-90317380D01*
X158297619Y-90317380D02*
X158297619Y-89317380D01*
X158202380Y-89460238D01*
X158107142Y-89555476D01*
X158011904Y-89603095D01*
X158916666Y-89317380D02*
X159535714Y-89317380D01*
X159202380Y-89698333D01*
X159345238Y-89698333D01*
X159440476Y-89745952D01*
X159488095Y-89793571D01*
X159535714Y-89888809D01*
X159535714Y-90126904D01*
X159488095Y-90222142D01*
X159440476Y-90269761D01*
X159345238Y-90317380D01*
X159059523Y-90317380D01*
X158964285Y-90269761D01*
X158916666Y-90222142D01*
%TO.C,C10*%
X92107142Y-49392857D02*
X92154761Y-49440476D01*
X92202380Y-49583333D01*
X92202380Y-49678571D01*
X92154761Y-49821428D01*
X92059523Y-49916666D01*
X91964285Y-49964285D01*
X91773809Y-50011904D01*
X91630952Y-50011904D01*
X91440476Y-49964285D01*
X91345238Y-49916666D01*
X91250000Y-49821428D01*
X91202380Y-49678571D01*
X91202380Y-49583333D01*
X91250000Y-49440476D01*
X91297619Y-49392857D01*
X92202380Y-48440476D02*
X92202380Y-49011904D01*
X92202380Y-48726190D02*
X91202380Y-48726190D01*
X91345238Y-48821428D01*
X91440476Y-48916666D01*
X91488095Y-49011904D01*
X91202380Y-47821428D02*
X91202380Y-47726190D01*
X91250000Y-47630952D01*
X91297619Y-47583333D01*
X91392857Y-47535714D01*
X91583333Y-47488095D01*
X91821428Y-47488095D01*
X92011904Y-47535714D01*
X92107142Y-47583333D01*
X92154761Y-47630952D01*
X92202380Y-47726190D01*
X92202380Y-47821428D01*
X92154761Y-47916666D01*
X92107142Y-47964285D01*
X92011904Y-48011904D01*
X91821428Y-48059523D01*
X91583333Y-48059523D01*
X91392857Y-48011904D01*
X91297619Y-47964285D01*
X91250000Y-47916666D01*
X91202380Y-47821428D01*
%TO.C,C11*%
X203717142Y-135607142D02*
X203669523Y-135654761D01*
X203526666Y-135702380D01*
X203431428Y-135702380D01*
X203288571Y-135654761D01*
X203193333Y-135559523D01*
X203145714Y-135464285D01*
X203098095Y-135273809D01*
X203098095Y-135130952D01*
X203145714Y-134940476D01*
X203193333Y-134845238D01*
X203288571Y-134750000D01*
X203431428Y-134702380D01*
X203526666Y-134702380D01*
X203669523Y-134750000D01*
X203717142Y-134797619D01*
X204669523Y-135702380D02*
X204098095Y-135702380D01*
X204383809Y-135702380D02*
X204383809Y-134702380D01*
X204288571Y-134845238D01*
X204193333Y-134940476D01*
X204098095Y-134988095D01*
X205621904Y-135702380D02*
X205050476Y-135702380D01*
X205336190Y-135702380D02*
X205336190Y-134702380D01*
X205240952Y-134845238D01*
X205145714Y-134940476D01*
X205050476Y-134988095D01*
%TO.C,C12*%
X86802142Y-56537142D02*
X86754523Y-56584761D01*
X86611666Y-56632380D01*
X86516428Y-56632380D01*
X86373571Y-56584761D01*
X86278333Y-56489523D01*
X86230714Y-56394285D01*
X86183095Y-56203809D01*
X86183095Y-56060952D01*
X86230714Y-55870476D01*
X86278333Y-55775238D01*
X86373571Y-55680000D01*
X86516428Y-55632380D01*
X86611666Y-55632380D01*
X86754523Y-55680000D01*
X86802142Y-55727619D01*
X87754523Y-56632380D02*
X87183095Y-56632380D01*
X87468809Y-56632380D02*
X87468809Y-55632380D01*
X87373571Y-55775238D01*
X87278333Y-55870476D01*
X87183095Y-55918095D01*
X88135476Y-55727619D02*
X88183095Y-55680000D01*
X88278333Y-55632380D01*
X88516428Y-55632380D01*
X88611666Y-55680000D01*
X88659285Y-55727619D01*
X88706904Y-55822857D01*
X88706904Y-55918095D01*
X88659285Y-56060952D01*
X88087857Y-56632380D01*
X88706904Y-56632380D01*
%TO.C,C13*%
X141017142Y-71017857D02*
X141064761Y-71065476D01*
X141112380Y-71208333D01*
X141112380Y-71303571D01*
X141064761Y-71446428D01*
X140969523Y-71541666D01*
X140874285Y-71589285D01*
X140683809Y-71636904D01*
X140540952Y-71636904D01*
X140350476Y-71589285D01*
X140255238Y-71541666D01*
X140160000Y-71446428D01*
X140112380Y-71303571D01*
X140112380Y-71208333D01*
X140160000Y-71065476D01*
X140207619Y-71017857D01*
X141112380Y-70065476D02*
X141112380Y-70636904D01*
X141112380Y-70351190D02*
X140112380Y-70351190D01*
X140255238Y-70446428D01*
X140350476Y-70541666D01*
X140398095Y-70636904D01*
X140112380Y-69732142D02*
X140112380Y-69113095D01*
X140493333Y-69446428D01*
X140493333Y-69303571D01*
X140540952Y-69208333D01*
X140588571Y-69160714D01*
X140683809Y-69113095D01*
X140921904Y-69113095D01*
X141017142Y-69160714D01*
X141064761Y-69208333D01*
X141112380Y-69303571D01*
X141112380Y-69589285D01*
X141064761Y-69684523D01*
X141017142Y-69732142D01*
%TO.C,C14*%
X145197142Y-100137142D02*
X145149523Y-100184761D01*
X145006666Y-100232380D01*
X144911428Y-100232380D01*
X144768571Y-100184761D01*
X144673333Y-100089523D01*
X144625714Y-99994285D01*
X144578095Y-99803809D01*
X144578095Y-99660952D01*
X144625714Y-99470476D01*
X144673333Y-99375238D01*
X144768571Y-99280000D01*
X144911428Y-99232380D01*
X145006666Y-99232380D01*
X145149523Y-99280000D01*
X145197142Y-99327619D01*
X146149523Y-100232380D02*
X145578095Y-100232380D01*
X145863809Y-100232380D02*
X145863809Y-99232380D01*
X145768571Y-99375238D01*
X145673333Y-99470476D01*
X145578095Y-99518095D01*
X147006666Y-99565714D02*
X147006666Y-100232380D01*
X146768571Y-99184761D02*
X146530476Y-99899047D01*
X147149523Y-99899047D01*
%TO.C,C15*%
X153217142Y-61737142D02*
X153169523Y-61784761D01*
X153026666Y-61832380D01*
X152931428Y-61832380D01*
X152788571Y-61784761D01*
X152693333Y-61689523D01*
X152645714Y-61594285D01*
X152598095Y-61403809D01*
X152598095Y-61260952D01*
X152645714Y-61070476D01*
X152693333Y-60975238D01*
X152788571Y-60880000D01*
X152931428Y-60832380D01*
X153026666Y-60832380D01*
X153169523Y-60880000D01*
X153217142Y-60927619D01*
X154169523Y-61832380D02*
X153598095Y-61832380D01*
X153883809Y-61832380D02*
X153883809Y-60832380D01*
X153788571Y-60975238D01*
X153693333Y-61070476D01*
X153598095Y-61118095D01*
X155074285Y-60832380D02*
X154598095Y-60832380D01*
X154550476Y-61308571D01*
X154598095Y-61260952D01*
X154693333Y-61213333D01*
X154931428Y-61213333D01*
X155026666Y-61260952D01*
X155074285Y-61308571D01*
X155121904Y-61403809D01*
X155121904Y-61641904D01*
X155074285Y-61737142D01*
X155026666Y-61784761D01*
X154931428Y-61832380D01*
X154693333Y-61832380D01*
X154598095Y-61784761D01*
X154550476Y-61737142D01*
%TO.C,C16*%
X134812142Y-61787142D02*
X134764523Y-61834761D01*
X134621666Y-61882380D01*
X134526428Y-61882380D01*
X134383571Y-61834761D01*
X134288333Y-61739523D01*
X134240714Y-61644285D01*
X134193095Y-61453809D01*
X134193095Y-61310952D01*
X134240714Y-61120476D01*
X134288333Y-61025238D01*
X134383571Y-60930000D01*
X134526428Y-60882380D01*
X134621666Y-60882380D01*
X134764523Y-60930000D01*
X134812142Y-60977619D01*
X135764523Y-61882380D02*
X135193095Y-61882380D01*
X135478809Y-61882380D02*
X135478809Y-60882380D01*
X135383571Y-61025238D01*
X135288333Y-61120476D01*
X135193095Y-61168095D01*
X136621666Y-60882380D02*
X136431190Y-60882380D01*
X136335952Y-60930000D01*
X136288333Y-60977619D01*
X136193095Y-61120476D01*
X136145476Y-61310952D01*
X136145476Y-61691904D01*
X136193095Y-61787142D01*
X136240714Y-61834761D01*
X136335952Y-61882380D01*
X136526428Y-61882380D01*
X136621666Y-61834761D01*
X136669285Y-61787142D01*
X136716904Y-61691904D01*
X136716904Y-61453809D01*
X136669285Y-61358571D01*
X136621666Y-61310952D01*
X136526428Y-61263333D01*
X136335952Y-61263333D01*
X136240714Y-61310952D01*
X136193095Y-61358571D01*
X136145476Y-61453809D01*
%TO.C,C17*%
X140687142Y-96422857D02*
X140734761Y-96470476D01*
X140782380Y-96613333D01*
X140782380Y-96708571D01*
X140734761Y-96851428D01*
X140639523Y-96946666D01*
X140544285Y-96994285D01*
X140353809Y-97041904D01*
X140210952Y-97041904D01*
X140020476Y-96994285D01*
X139925238Y-96946666D01*
X139830000Y-96851428D01*
X139782380Y-96708571D01*
X139782380Y-96613333D01*
X139830000Y-96470476D01*
X139877619Y-96422857D01*
X140782380Y-95470476D02*
X140782380Y-96041904D01*
X140782380Y-95756190D02*
X139782380Y-95756190D01*
X139925238Y-95851428D01*
X140020476Y-95946666D01*
X140068095Y-96041904D01*
X139782380Y-95137142D02*
X139782380Y-94470476D01*
X140782380Y-94899047D01*
%TO.C,C21*%
X119997142Y-45592857D02*
X120044761Y-45640476D01*
X120092380Y-45783333D01*
X120092380Y-45878571D01*
X120044761Y-46021428D01*
X119949523Y-46116666D01*
X119854285Y-46164285D01*
X119663809Y-46211904D01*
X119520952Y-46211904D01*
X119330476Y-46164285D01*
X119235238Y-46116666D01*
X119140000Y-46021428D01*
X119092380Y-45878571D01*
X119092380Y-45783333D01*
X119140000Y-45640476D01*
X119187619Y-45592857D01*
X119187619Y-45211904D02*
X119140000Y-45164285D01*
X119092380Y-45069047D01*
X119092380Y-44830952D01*
X119140000Y-44735714D01*
X119187619Y-44688095D01*
X119282857Y-44640476D01*
X119378095Y-44640476D01*
X119520952Y-44688095D01*
X120092380Y-45259523D01*
X120092380Y-44640476D01*
X120092380Y-43688095D02*
X120092380Y-44259523D01*
X120092380Y-43973809D02*
X119092380Y-43973809D01*
X119235238Y-44069047D01*
X119330476Y-44164285D01*
X119378095Y-44259523D01*
%TO.C,C22*%
X194087142Y-98392857D02*
X194134761Y-98440476D01*
X194182380Y-98583333D01*
X194182380Y-98678571D01*
X194134761Y-98821428D01*
X194039523Y-98916666D01*
X193944285Y-98964285D01*
X193753809Y-99011904D01*
X193610952Y-99011904D01*
X193420476Y-98964285D01*
X193325238Y-98916666D01*
X193230000Y-98821428D01*
X193182380Y-98678571D01*
X193182380Y-98583333D01*
X193230000Y-98440476D01*
X193277619Y-98392857D01*
X193277619Y-98011904D02*
X193230000Y-97964285D01*
X193182380Y-97869047D01*
X193182380Y-97630952D01*
X193230000Y-97535714D01*
X193277619Y-97488095D01*
X193372857Y-97440476D01*
X193468095Y-97440476D01*
X193610952Y-97488095D01*
X194182380Y-98059523D01*
X194182380Y-97440476D01*
X193277619Y-97059523D02*
X193230000Y-97011904D01*
X193182380Y-96916666D01*
X193182380Y-96678571D01*
X193230000Y-96583333D01*
X193277619Y-96535714D01*
X193372857Y-96488095D01*
X193468095Y-96488095D01*
X193610952Y-96535714D01*
X194182380Y-97107142D01*
X194182380Y-96488095D01*
%TO.C,C23*%
X119977142Y-101372857D02*
X120024761Y-101420476D01*
X120072380Y-101563333D01*
X120072380Y-101658571D01*
X120024761Y-101801428D01*
X119929523Y-101896666D01*
X119834285Y-101944285D01*
X119643809Y-101991904D01*
X119500952Y-101991904D01*
X119310476Y-101944285D01*
X119215238Y-101896666D01*
X119120000Y-101801428D01*
X119072380Y-101658571D01*
X119072380Y-101563333D01*
X119120000Y-101420476D01*
X119167619Y-101372857D01*
X119167619Y-100991904D02*
X119120000Y-100944285D01*
X119072380Y-100849047D01*
X119072380Y-100610952D01*
X119120000Y-100515714D01*
X119167619Y-100468095D01*
X119262857Y-100420476D01*
X119358095Y-100420476D01*
X119500952Y-100468095D01*
X120072380Y-101039523D01*
X120072380Y-100420476D01*
X119072380Y-100087142D02*
X119072380Y-99468095D01*
X119453333Y-99801428D01*
X119453333Y-99658571D01*
X119500952Y-99563333D01*
X119548571Y-99515714D01*
X119643809Y-99468095D01*
X119881904Y-99468095D01*
X119977142Y-99515714D01*
X120024761Y-99563333D01*
X120072380Y-99658571D01*
X120072380Y-99944285D01*
X120024761Y-100039523D01*
X119977142Y-100087142D01*
%TO.C,C24*%
X135262142Y-123627142D02*
X135214523Y-123674761D01*
X135071666Y-123722380D01*
X134976428Y-123722380D01*
X134833571Y-123674761D01*
X134738333Y-123579523D01*
X134690714Y-123484285D01*
X134643095Y-123293809D01*
X134643095Y-123150952D01*
X134690714Y-122960476D01*
X134738333Y-122865238D01*
X134833571Y-122770000D01*
X134976428Y-122722380D01*
X135071666Y-122722380D01*
X135214523Y-122770000D01*
X135262142Y-122817619D01*
X135643095Y-122817619D02*
X135690714Y-122770000D01*
X135785952Y-122722380D01*
X136024047Y-122722380D01*
X136119285Y-122770000D01*
X136166904Y-122817619D01*
X136214523Y-122912857D01*
X136214523Y-123008095D01*
X136166904Y-123150952D01*
X135595476Y-123722380D01*
X136214523Y-123722380D01*
X137071666Y-123055714D02*
X137071666Y-123722380D01*
X136833571Y-122674761D02*
X136595476Y-123389047D01*
X137214523Y-123389047D01*
%TO.C,C25*%
X89647142Y-130387857D02*
X89694761Y-130435476D01*
X89742380Y-130578333D01*
X89742380Y-130673571D01*
X89694761Y-130816428D01*
X89599523Y-130911666D01*
X89504285Y-130959285D01*
X89313809Y-131006904D01*
X89170952Y-131006904D01*
X88980476Y-130959285D01*
X88885238Y-130911666D01*
X88790000Y-130816428D01*
X88742380Y-130673571D01*
X88742380Y-130578333D01*
X88790000Y-130435476D01*
X88837619Y-130387857D01*
X88837619Y-130006904D02*
X88790000Y-129959285D01*
X88742380Y-129864047D01*
X88742380Y-129625952D01*
X88790000Y-129530714D01*
X88837619Y-129483095D01*
X88932857Y-129435476D01*
X89028095Y-129435476D01*
X89170952Y-129483095D01*
X89742380Y-130054523D01*
X89742380Y-129435476D01*
X88742380Y-128530714D02*
X88742380Y-129006904D01*
X89218571Y-129054523D01*
X89170952Y-129006904D01*
X89123333Y-128911666D01*
X89123333Y-128673571D01*
X89170952Y-128578333D01*
X89218571Y-128530714D01*
X89313809Y-128483095D01*
X89551904Y-128483095D01*
X89647142Y-128530714D01*
X89694761Y-128578333D01*
X89742380Y-128673571D01*
X89742380Y-128911666D01*
X89694761Y-129006904D01*
X89647142Y-129054523D01*
%TO.C,C27*%
X120147142Y-112422857D02*
X120194761Y-112470476D01*
X120242380Y-112613333D01*
X120242380Y-112708571D01*
X120194761Y-112851428D01*
X120099523Y-112946666D01*
X120004285Y-112994285D01*
X119813809Y-113041904D01*
X119670952Y-113041904D01*
X119480476Y-112994285D01*
X119385238Y-112946666D01*
X119290000Y-112851428D01*
X119242380Y-112708571D01*
X119242380Y-112613333D01*
X119290000Y-112470476D01*
X119337619Y-112422857D01*
X119337619Y-112041904D02*
X119290000Y-111994285D01*
X119242380Y-111899047D01*
X119242380Y-111660952D01*
X119290000Y-111565714D01*
X119337619Y-111518095D01*
X119432857Y-111470476D01*
X119528095Y-111470476D01*
X119670952Y-111518095D01*
X120242380Y-112089523D01*
X120242380Y-111470476D01*
X119242380Y-111137142D02*
X119242380Y-110470476D01*
X120242380Y-110899047D01*
%TO.C,C28*%
X154847142Y-46092857D02*
X154894761Y-46140476D01*
X154942380Y-46283333D01*
X154942380Y-46378571D01*
X154894761Y-46521428D01*
X154799523Y-46616666D01*
X154704285Y-46664285D01*
X154513809Y-46711904D01*
X154370952Y-46711904D01*
X154180476Y-46664285D01*
X154085238Y-46616666D01*
X153990000Y-46521428D01*
X153942380Y-46378571D01*
X153942380Y-46283333D01*
X153990000Y-46140476D01*
X154037619Y-46092857D01*
X154037619Y-45711904D02*
X153990000Y-45664285D01*
X153942380Y-45569047D01*
X153942380Y-45330952D01*
X153990000Y-45235714D01*
X154037619Y-45188095D01*
X154132857Y-45140476D01*
X154228095Y-45140476D01*
X154370952Y-45188095D01*
X154942380Y-45759523D01*
X154942380Y-45140476D01*
X154370952Y-44569047D02*
X154323333Y-44664285D01*
X154275714Y-44711904D01*
X154180476Y-44759523D01*
X154132857Y-44759523D01*
X154037619Y-44711904D01*
X153990000Y-44664285D01*
X153942380Y-44569047D01*
X153942380Y-44378571D01*
X153990000Y-44283333D01*
X154037619Y-44235714D01*
X154132857Y-44188095D01*
X154180476Y-44188095D01*
X154275714Y-44235714D01*
X154323333Y-44283333D01*
X154370952Y-44378571D01*
X154370952Y-44569047D01*
X154418571Y-44664285D01*
X154466190Y-44711904D01*
X154561428Y-44759523D01*
X154751904Y-44759523D01*
X154847142Y-44711904D01*
X154894761Y-44664285D01*
X154942380Y-44569047D01*
X154942380Y-44378571D01*
X154894761Y-44283333D01*
X154847142Y-44235714D01*
X154751904Y-44188095D01*
X154561428Y-44188095D01*
X154466190Y-44235714D01*
X154418571Y-44283333D01*
X154370952Y-44378571D01*
%TO.C,C29*%
X145477142Y-41217142D02*
X145429523Y-41264761D01*
X145286666Y-41312380D01*
X145191428Y-41312380D01*
X145048571Y-41264761D01*
X144953333Y-41169523D01*
X144905714Y-41074285D01*
X144858095Y-40883809D01*
X144858095Y-40740952D01*
X144905714Y-40550476D01*
X144953333Y-40455238D01*
X145048571Y-40360000D01*
X145191428Y-40312380D01*
X145286666Y-40312380D01*
X145429523Y-40360000D01*
X145477142Y-40407619D01*
X145858095Y-40407619D02*
X145905714Y-40360000D01*
X146000952Y-40312380D01*
X146239047Y-40312380D01*
X146334285Y-40360000D01*
X146381904Y-40407619D01*
X146429523Y-40502857D01*
X146429523Y-40598095D01*
X146381904Y-40740952D01*
X145810476Y-41312380D01*
X146429523Y-41312380D01*
X146905714Y-41312380D02*
X147096190Y-41312380D01*
X147191428Y-41264761D01*
X147239047Y-41217142D01*
X147334285Y-41074285D01*
X147381904Y-40883809D01*
X147381904Y-40502857D01*
X147334285Y-40407619D01*
X147286666Y-40360000D01*
X147191428Y-40312380D01*
X147000952Y-40312380D01*
X146905714Y-40360000D01*
X146858095Y-40407619D01*
X146810476Y-40502857D01*
X146810476Y-40740952D01*
X146858095Y-40836190D01*
X146905714Y-40883809D01*
X147000952Y-40931428D01*
X147191428Y-40931428D01*
X147286666Y-40883809D01*
X147334285Y-40836190D01*
X147381904Y-40740952D01*
%TO.C,C31*%
X208737142Y-70897142D02*
X208689523Y-70944761D01*
X208546666Y-70992380D01*
X208451428Y-70992380D01*
X208308571Y-70944761D01*
X208213333Y-70849523D01*
X208165714Y-70754285D01*
X208118095Y-70563809D01*
X208118095Y-70420952D01*
X208165714Y-70230476D01*
X208213333Y-70135238D01*
X208308571Y-70040000D01*
X208451428Y-69992380D01*
X208546666Y-69992380D01*
X208689523Y-70040000D01*
X208737142Y-70087619D01*
X209070476Y-69992380D02*
X209689523Y-69992380D01*
X209356190Y-70373333D01*
X209499047Y-70373333D01*
X209594285Y-70420952D01*
X209641904Y-70468571D01*
X209689523Y-70563809D01*
X209689523Y-70801904D01*
X209641904Y-70897142D01*
X209594285Y-70944761D01*
X209499047Y-70992380D01*
X209213333Y-70992380D01*
X209118095Y-70944761D01*
X209070476Y-70897142D01*
X210641904Y-70992380D02*
X210070476Y-70992380D01*
X210356190Y-70992380D02*
X210356190Y-69992380D01*
X210260952Y-70135238D01*
X210165714Y-70230476D01*
X210070476Y-70278095D01*
%TO.C,C32*%
X198517142Y-70867142D02*
X198469523Y-70914761D01*
X198326666Y-70962380D01*
X198231428Y-70962380D01*
X198088571Y-70914761D01*
X197993333Y-70819523D01*
X197945714Y-70724285D01*
X197898095Y-70533809D01*
X197898095Y-70390952D01*
X197945714Y-70200476D01*
X197993333Y-70105238D01*
X198088571Y-70010000D01*
X198231428Y-69962380D01*
X198326666Y-69962380D01*
X198469523Y-70010000D01*
X198517142Y-70057619D01*
X198850476Y-69962380D02*
X199469523Y-69962380D01*
X199136190Y-70343333D01*
X199279047Y-70343333D01*
X199374285Y-70390952D01*
X199421904Y-70438571D01*
X199469523Y-70533809D01*
X199469523Y-70771904D01*
X199421904Y-70867142D01*
X199374285Y-70914761D01*
X199279047Y-70962380D01*
X198993333Y-70962380D01*
X198898095Y-70914761D01*
X198850476Y-70867142D01*
X199850476Y-70057619D02*
X199898095Y-70010000D01*
X199993333Y-69962380D01*
X200231428Y-69962380D01*
X200326666Y-70010000D01*
X200374285Y-70057619D01*
X200421904Y-70152857D01*
X200421904Y-70248095D01*
X200374285Y-70390952D01*
X199802857Y-70962380D01*
X200421904Y-70962380D01*
%TO.C,C33*%
X188357142Y-70857142D02*
X188309523Y-70904761D01*
X188166666Y-70952380D01*
X188071428Y-70952380D01*
X187928571Y-70904761D01*
X187833333Y-70809523D01*
X187785714Y-70714285D01*
X187738095Y-70523809D01*
X187738095Y-70380952D01*
X187785714Y-70190476D01*
X187833333Y-70095238D01*
X187928571Y-70000000D01*
X188071428Y-69952380D01*
X188166666Y-69952380D01*
X188309523Y-70000000D01*
X188357142Y-70047619D01*
X188690476Y-69952380D02*
X189309523Y-69952380D01*
X188976190Y-70333333D01*
X189119047Y-70333333D01*
X189214285Y-70380952D01*
X189261904Y-70428571D01*
X189309523Y-70523809D01*
X189309523Y-70761904D01*
X189261904Y-70857142D01*
X189214285Y-70904761D01*
X189119047Y-70952380D01*
X188833333Y-70952380D01*
X188738095Y-70904761D01*
X188690476Y-70857142D01*
X189642857Y-69952380D02*
X190261904Y-69952380D01*
X189928571Y-70333333D01*
X190071428Y-70333333D01*
X190166666Y-70380952D01*
X190214285Y-70428571D01*
X190261904Y-70523809D01*
X190261904Y-70761904D01*
X190214285Y-70857142D01*
X190166666Y-70904761D01*
X190071428Y-70952380D01*
X189785714Y-70952380D01*
X189690476Y-70904761D01*
X189642857Y-70857142D01*
%TO.C,C34*%
X177987142Y-70837142D02*
X177939523Y-70884761D01*
X177796666Y-70932380D01*
X177701428Y-70932380D01*
X177558571Y-70884761D01*
X177463333Y-70789523D01*
X177415714Y-70694285D01*
X177368095Y-70503809D01*
X177368095Y-70360952D01*
X177415714Y-70170476D01*
X177463333Y-70075238D01*
X177558571Y-69980000D01*
X177701428Y-69932380D01*
X177796666Y-69932380D01*
X177939523Y-69980000D01*
X177987142Y-70027619D01*
X178320476Y-69932380D02*
X178939523Y-69932380D01*
X178606190Y-70313333D01*
X178749047Y-70313333D01*
X178844285Y-70360952D01*
X178891904Y-70408571D01*
X178939523Y-70503809D01*
X178939523Y-70741904D01*
X178891904Y-70837142D01*
X178844285Y-70884761D01*
X178749047Y-70932380D01*
X178463333Y-70932380D01*
X178368095Y-70884761D01*
X178320476Y-70837142D01*
X179796666Y-70265714D02*
X179796666Y-70932380D01*
X179558571Y-69884761D02*
X179320476Y-70599047D01*
X179939523Y-70599047D01*
%TO.C,C35*%
X99607142Y-58927142D02*
X99559523Y-58974761D01*
X99416666Y-59022380D01*
X99321428Y-59022380D01*
X99178571Y-58974761D01*
X99083333Y-58879523D01*
X99035714Y-58784285D01*
X98988095Y-58593809D01*
X98988095Y-58450952D01*
X99035714Y-58260476D01*
X99083333Y-58165238D01*
X99178571Y-58070000D01*
X99321428Y-58022380D01*
X99416666Y-58022380D01*
X99559523Y-58070000D01*
X99607142Y-58117619D01*
X99940476Y-58022380D02*
X100559523Y-58022380D01*
X100226190Y-58403333D01*
X100369047Y-58403333D01*
X100464285Y-58450952D01*
X100511904Y-58498571D01*
X100559523Y-58593809D01*
X100559523Y-58831904D01*
X100511904Y-58927142D01*
X100464285Y-58974761D01*
X100369047Y-59022380D01*
X100083333Y-59022380D01*
X99988095Y-58974761D01*
X99940476Y-58927142D01*
X101464285Y-58022380D02*
X100988095Y-58022380D01*
X100940476Y-58498571D01*
X100988095Y-58450952D01*
X101083333Y-58403333D01*
X101321428Y-58403333D01*
X101416666Y-58450952D01*
X101464285Y-58498571D01*
X101511904Y-58593809D01*
X101511904Y-58831904D01*
X101464285Y-58927142D01*
X101416666Y-58974761D01*
X101321428Y-59022380D01*
X101083333Y-59022380D01*
X100988095Y-58974761D01*
X100940476Y-58927142D01*
%TO.C,C36*%
X106597142Y-43577142D02*
X106549523Y-43624761D01*
X106406666Y-43672380D01*
X106311428Y-43672380D01*
X106168571Y-43624761D01*
X106073333Y-43529523D01*
X106025714Y-43434285D01*
X105978095Y-43243809D01*
X105978095Y-43100952D01*
X106025714Y-42910476D01*
X106073333Y-42815238D01*
X106168571Y-42720000D01*
X106311428Y-42672380D01*
X106406666Y-42672380D01*
X106549523Y-42720000D01*
X106597142Y-42767619D01*
X106930476Y-42672380D02*
X107549523Y-42672380D01*
X107216190Y-43053333D01*
X107359047Y-43053333D01*
X107454285Y-43100952D01*
X107501904Y-43148571D01*
X107549523Y-43243809D01*
X107549523Y-43481904D01*
X107501904Y-43577142D01*
X107454285Y-43624761D01*
X107359047Y-43672380D01*
X107073333Y-43672380D01*
X106978095Y-43624761D01*
X106930476Y-43577142D01*
X108406666Y-42672380D02*
X108216190Y-42672380D01*
X108120952Y-42720000D01*
X108073333Y-42767619D01*
X107978095Y-42910476D01*
X107930476Y-43100952D01*
X107930476Y-43481904D01*
X107978095Y-43577142D01*
X108025714Y-43624761D01*
X108120952Y-43672380D01*
X108311428Y-43672380D01*
X108406666Y-43624761D01*
X108454285Y-43577142D01*
X108501904Y-43481904D01*
X108501904Y-43243809D01*
X108454285Y-43148571D01*
X108406666Y-43100952D01*
X108311428Y-43053333D01*
X108120952Y-43053333D01*
X108025714Y-43100952D01*
X107978095Y-43148571D01*
X107930476Y-43243809D01*
%TO.C,C37*%
X181207142Y-126227142D02*
X181159523Y-126274761D01*
X181016666Y-126322380D01*
X180921428Y-126322380D01*
X180778571Y-126274761D01*
X180683333Y-126179523D01*
X180635714Y-126084285D01*
X180588095Y-125893809D01*
X180588095Y-125750952D01*
X180635714Y-125560476D01*
X180683333Y-125465238D01*
X180778571Y-125370000D01*
X180921428Y-125322380D01*
X181016666Y-125322380D01*
X181159523Y-125370000D01*
X181207142Y-125417619D01*
X181540476Y-125322380D02*
X182159523Y-125322380D01*
X181826190Y-125703333D01*
X181969047Y-125703333D01*
X182064285Y-125750952D01*
X182111904Y-125798571D01*
X182159523Y-125893809D01*
X182159523Y-126131904D01*
X182111904Y-126227142D01*
X182064285Y-126274761D01*
X181969047Y-126322380D01*
X181683333Y-126322380D01*
X181588095Y-126274761D01*
X181540476Y-126227142D01*
X182492857Y-125322380D02*
X183159523Y-125322380D01*
X182730952Y-126322380D01*
%TO.C,C41*%
X181097142Y-113937142D02*
X181049523Y-113984761D01*
X180906666Y-114032380D01*
X180811428Y-114032380D01*
X180668571Y-113984761D01*
X180573333Y-113889523D01*
X180525714Y-113794285D01*
X180478095Y-113603809D01*
X180478095Y-113460952D01*
X180525714Y-113270476D01*
X180573333Y-113175238D01*
X180668571Y-113080000D01*
X180811428Y-113032380D01*
X180906666Y-113032380D01*
X181049523Y-113080000D01*
X181097142Y-113127619D01*
X181954285Y-113365714D02*
X181954285Y-114032380D01*
X181716190Y-112984761D02*
X181478095Y-113699047D01*
X182097142Y-113699047D01*
X183001904Y-114032380D02*
X182430476Y-114032380D01*
X182716190Y-114032380D02*
X182716190Y-113032380D01*
X182620952Y-113175238D01*
X182525714Y-113270476D01*
X182430476Y-113318095D01*
%TO.C,C42*%
X179877142Y-105272857D02*
X179924761Y-105320476D01*
X179972380Y-105463333D01*
X179972380Y-105558571D01*
X179924761Y-105701428D01*
X179829523Y-105796666D01*
X179734285Y-105844285D01*
X179543809Y-105891904D01*
X179400952Y-105891904D01*
X179210476Y-105844285D01*
X179115238Y-105796666D01*
X179020000Y-105701428D01*
X178972380Y-105558571D01*
X178972380Y-105463333D01*
X179020000Y-105320476D01*
X179067619Y-105272857D01*
X179305714Y-104415714D02*
X179972380Y-104415714D01*
X178924761Y-104653809D02*
X179639047Y-104891904D01*
X179639047Y-104272857D01*
X179067619Y-103939523D02*
X179020000Y-103891904D01*
X178972380Y-103796666D01*
X178972380Y-103558571D01*
X179020000Y-103463333D01*
X179067619Y-103415714D01*
X179162857Y-103368095D01*
X179258095Y-103368095D01*
X179400952Y-103415714D01*
X179972380Y-103987142D01*
X179972380Y-103368095D01*
%TO.C,C43*%
X184457142Y-98307142D02*
X184409523Y-98354761D01*
X184266666Y-98402380D01*
X184171428Y-98402380D01*
X184028571Y-98354761D01*
X183933333Y-98259523D01*
X183885714Y-98164285D01*
X183838095Y-97973809D01*
X183838095Y-97830952D01*
X183885714Y-97640476D01*
X183933333Y-97545238D01*
X184028571Y-97450000D01*
X184171428Y-97402380D01*
X184266666Y-97402380D01*
X184409523Y-97450000D01*
X184457142Y-97497619D01*
X185314285Y-97735714D02*
X185314285Y-98402380D01*
X185076190Y-97354761D02*
X184838095Y-98069047D01*
X185457142Y-98069047D01*
X185742857Y-97402380D02*
X186361904Y-97402380D01*
X186028571Y-97783333D01*
X186171428Y-97783333D01*
X186266666Y-97830952D01*
X186314285Y-97878571D01*
X186361904Y-97973809D01*
X186361904Y-98211904D01*
X186314285Y-98307142D01*
X186266666Y-98354761D01*
X186171428Y-98402380D01*
X185885714Y-98402380D01*
X185790476Y-98354761D01*
X185742857Y-98307142D01*
%TO.C,C44*%
X205527142Y-99512857D02*
X205574761Y-99560476D01*
X205622380Y-99703333D01*
X205622380Y-99798571D01*
X205574761Y-99941428D01*
X205479523Y-100036666D01*
X205384285Y-100084285D01*
X205193809Y-100131904D01*
X205050952Y-100131904D01*
X204860476Y-100084285D01*
X204765238Y-100036666D01*
X204670000Y-99941428D01*
X204622380Y-99798571D01*
X204622380Y-99703333D01*
X204670000Y-99560476D01*
X204717619Y-99512857D01*
X204955714Y-98655714D02*
X205622380Y-98655714D01*
X204574761Y-98893809D02*
X205289047Y-99131904D01*
X205289047Y-98512857D01*
X204955714Y-97703333D02*
X205622380Y-97703333D01*
X204574761Y-97941428D02*
X205289047Y-98179523D01*
X205289047Y-97560476D01*
%TO.C,C45*%
X140137142Y-119282857D02*
X140184761Y-119330476D01*
X140232380Y-119473333D01*
X140232380Y-119568571D01*
X140184761Y-119711428D01*
X140089523Y-119806666D01*
X139994285Y-119854285D01*
X139803809Y-119901904D01*
X139660952Y-119901904D01*
X139470476Y-119854285D01*
X139375238Y-119806666D01*
X139280000Y-119711428D01*
X139232380Y-119568571D01*
X139232380Y-119473333D01*
X139280000Y-119330476D01*
X139327619Y-119282857D01*
X139565714Y-118425714D02*
X140232380Y-118425714D01*
X139184761Y-118663809D02*
X139899047Y-118901904D01*
X139899047Y-118282857D01*
X139232380Y-117425714D02*
X139232380Y-117901904D01*
X139708571Y-117949523D01*
X139660952Y-117901904D01*
X139613333Y-117806666D01*
X139613333Y-117568571D01*
X139660952Y-117473333D01*
X139708571Y-117425714D01*
X139803809Y-117378095D01*
X140041904Y-117378095D01*
X140137142Y-117425714D01*
X140184761Y-117473333D01*
X140232380Y-117568571D01*
X140232380Y-117806666D01*
X140184761Y-117901904D01*
X140137142Y-117949523D01*
%TO.C,C46*%
X177937142Y-114272857D02*
X177984761Y-114320476D01*
X178032380Y-114463333D01*
X178032380Y-114558571D01*
X177984761Y-114701428D01*
X177889523Y-114796666D01*
X177794285Y-114844285D01*
X177603809Y-114891904D01*
X177460952Y-114891904D01*
X177270476Y-114844285D01*
X177175238Y-114796666D01*
X177080000Y-114701428D01*
X177032380Y-114558571D01*
X177032380Y-114463333D01*
X177080000Y-114320476D01*
X177127619Y-114272857D01*
X177365714Y-113415714D02*
X178032380Y-113415714D01*
X176984761Y-113653809D02*
X177699047Y-113891904D01*
X177699047Y-113272857D01*
X177032380Y-112463333D02*
X177032380Y-112653809D01*
X177080000Y-112749047D01*
X177127619Y-112796666D01*
X177270476Y-112891904D01*
X177460952Y-112939523D01*
X177841904Y-112939523D01*
X177937142Y-112891904D01*
X177984761Y-112844285D01*
X178032380Y-112749047D01*
X178032380Y-112558571D01*
X177984761Y-112463333D01*
X177937142Y-112415714D01*
X177841904Y-112368095D01*
X177603809Y-112368095D01*
X177508571Y-112415714D01*
X177460952Y-112463333D01*
X177413333Y-112558571D01*
X177413333Y-112749047D01*
X177460952Y-112844285D01*
X177508571Y-112891904D01*
X177603809Y-112939523D01*
%TO.C,R11*%
X140182380Y-113622857D02*
X139706190Y-113956190D01*
X140182380Y-114194285D02*
X139182380Y-114194285D01*
X139182380Y-113813333D01*
X139230000Y-113718095D01*
X139277619Y-113670476D01*
X139372857Y-113622857D01*
X139515714Y-113622857D01*
X139610952Y-113670476D01*
X139658571Y-113718095D01*
X139706190Y-113813333D01*
X139706190Y-114194285D01*
X140182380Y-112670476D02*
X140182380Y-113241904D01*
X140182380Y-112956190D02*
X139182380Y-112956190D01*
X139325238Y-113051428D01*
X139420476Y-113146666D01*
X139468095Y-113241904D01*
X140182380Y-111718095D02*
X140182380Y-112289523D01*
X140182380Y-112003809D02*
X139182380Y-112003809D01*
X139325238Y-112099047D01*
X139420476Y-112194285D01*
X139468095Y-112289523D01*
%TO.C,R12*%
X178422380Y-86582857D02*
X177946190Y-86916190D01*
X178422380Y-87154285D02*
X177422380Y-87154285D01*
X177422380Y-86773333D01*
X177470000Y-86678095D01*
X177517619Y-86630476D01*
X177612857Y-86582857D01*
X177755714Y-86582857D01*
X177850952Y-86630476D01*
X177898571Y-86678095D01*
X177946190Y-86773333D01*
X177946190Y-87154285D01*
X178422380Y-85630476D02*
X178422380Y-86201904D01*
X178422380Y-85916190D02*
X177422380Y-85916190D01*
X177565238Y-86011428D01*
X177660476Y-86106666D01*
X177708095Y-86201904D01*
X177517619Y-85249523D02*
X177470000Y-85201904D01*
X177422380Y-85106666D01*
X177422380Y-84868571D01*
X177470000Y-84773333D01*
X177517619Y-84725714D01*
X177612857Y-84678095D01*
X177708095Y-84678095D01*
X177850952Y-84725714D01*
X178422380Y-85297142D01*
X178422380Y-84678095D01*
%TO.C,R13*%
X101512380Y-104142857D02*
X101036190Y-104476190D01*
X101512380Y-104714285D02*
X100512380Y-104714285D01*
X100512380Y-104333333D01*
X100560000Y-104238095D01*
X100607619Y-104190476D01*
X100702857Y-104142857D01*
X100845714Y-104142857D01*
X100940952Y-104190476D01*
X100988571Y-104238095D01*
X101036190Y-104333333D01*
X101036190Y-104714285D01*
X101512380Y-103190476D02*
X101512380Y-103761904D01*
X101512380Y-103476190D02*
X100512380Y-103476190D01*
X100655238Y-103571428D01*
X100750476Y-103666666D01*
X100798095Y-103761904D01*
X100512380Y-102857142D02*
X100512380Y-102238095D01*
X100893333Y-102571428D01*
X100893333Y-102428571D01*
X100940952Y-102333333D01*
X100988571Y-102285714D01*
X101083809Y-102238095D01*
X101321904Y-102238095D01*
X101417142Y-102285714D01*
X101464761Y-102333333D01*
X101512380Y-102428571D01*
X101512380Y-102714285D01*
X101464761Y-102809523D01*
X101417142Y-102857142D01*
%TO.C,R14*%
X101512380Y-110482857D02*
X101036190Y-110816190D01*
X101512380Y-111054285D02*
X100512380Y-111054285D01*
X100512380Y-110673333D01*
X100560000Y-110578095D01*
X100607619Y-110530476D01*
X100702857Y-110482857D01*
X100845714Y-110482857D01*
X100940952Y-110530476D01*
X100988571Y-110578095D01*
X101036190Y-110673333D01*
X101036190Y-111054285D01*
X101512380Y-109530476D02*
X101512380Y-110101904D01*
X101512380Y-109816190D02*
X100512380Y-109816190D01*
X100655238Y-109911428D01*
X100750476Y-110006666D01*
X100798095Y-110101904D01*
X100845714Y-108673333D02*
X101512380Y-108673333D01*
X100464761Y-108911428D02*
X101179047Y-109149523D01*
X101179047Y-108530476D01*
%TO.C,R15*%
X141092380Y-90092857D02*
X140616190Y-90426190D01*
X141092380Y-90664285D02*
X140092380Y-90664285D01*
X140092380Y-90283333D01*
X140140000Y-90188095D01*
X140187619Y-90140476D01*
X140282857Y-90092857D01*
X140425714Y-90092857D01*
X140520952Y-90140476D01*
X140568571Y-90188095D01*
X140616190Y-90283333D01*
X140616190Y-90664285D01*
X141092380Y-89140476D02*
X141092380Y-89711904D01*
X141092380Y-89426190D02*
X140092380Y-89426190D01*
X140235238Y-89521428D01*
X140330476Y-89616666D01*
X140378095Y-89711904D01*
X140092380Y-88235714D02*
X140092380Y-88711904D01*
X140568571Y-88759523D01*
X140520952Y-88711904D01*
X140473333Y-88616666D01*
X140473333Y-88378571D01*
X140520952Y-88283333D01*
X140568571Y-88235714D01*
X140663809Y-88188095D01*
X140901904Y-88188095D01*
X140997142Y-88235714D01*
X141044761Y-88283333D01*
X141092380Y-88378571D01*
X141092380Y-88616666D01*
X141044761Y-88711904D01*
X140997142Y-88759523D01*
%TO.C,R16*%
X207007142Y-76132380D02*
X206673809Y-75656190D01*
X206435714Y-76132380D02*
X206435714Y-75132380D01*
X206816666Y-75132380D01*
X206911904Y-75180000D01*
X206959523Y-75227619D01*
X207007142Y-75322857D01*
X207007142Y-75465714D01*
X206959523Y-75560952D01*
X206911904Y-75608571D01*
X206816666Y-75656190D01*
X206435714Y-75656190D01*
X207959523Y-76132380D02*
X207388095Y-76132380D01*
X207673809Y-76132380D02*
X207673809Y-75132380D01*
X207578571Y-75275238D01*
X207483333Y-75370476D01*
X207388095Y-75418095D01*
X208816666Y-75132380D02*
X208626190Y-75132380D01*
X208530952Y-75180000D01*
X208483333Y-75227619D01*
X208388095Y-75370476D01*
X208340476Y-75560952D01*
X208340476Y-75941904D01*
X208388095Y-76037142D01*
X208435714Y-76084761D01*
X208530952Y-76132380D01*
X208721428Y-76132380D01*
X208816666Y-76084761D01*
X208864285Y-76037142D01*
X208911904Y-75941904D01*
X208911904Y-75703809D01*
X208864285Y-75608571D01*
X208816666Y-75560952D01*
X208721428Y-75513333D01*
X208530952Y-75513333D01*
X208435714Y-75560952D01*
X208388095Y-75608571D01*
X208340476Y-75703809D01*
%TO.C,R17*%
X203832380Y-82462857D02*
X203356190Y-82796190D01*
X203832380Y-83034285D02*
X202832380Y-83034285D01*
X202832380Y-82653333D01*
X202880000Y-82558095D01*
X202927619Y-82510476D01*
X203022857Y-82462857D01*
X203165714Y-82462857D01*
X203260952Y-82510476D01*
X203308571Y-82558095D01*
X203356190Y-82653333D01*
X203356190Y-83034285D01*
X203832380Y-81510476D02*
X203832380Y-82081904D01*
X203832380Y-81796190D02*
X202832380Y-81796190D01*
X202975238Y-81891428D01*
X203070476Y-81986666D01*
X203118095Y-82081904D01*
X202832380Y-81177142D02*
X202832380Y-80510476D01*
X203832380Y-80939047D01*
%TO.C,R31*%
X155022380Y-53622857D02*
X154546190Y-53956190D01*
X155022380Y-54194285D02*
X154022380Y-54194285D01*
X154022380Y-53813333D01*
X154070000Y-53718095D01*
X154117619Y-53670476D01*
X154212857Y-53622857D01*
X154355714Y-53622857D01*
X154450952Y-53670476D01*
X154498571Y-53718095D01*
X154546190Y-53813333D01*
X154546190Y-54194285D01*
X154022380Y-53289523D02*
X154022380Y-52670476D01*
X154403333Y-53003809D01*
X154403333Y-52860952D01*
X154450952Y-52765714D01*
X154498571Y-52718095D01*
X154593809Y-52670476D01*
X154831904Y-52670476D01*
X154927142Y-52718095D01*
X154974761Y-52765714D01*
X155022380Y-52860952D01*
X155022380Y-53146666D01*
X154974761Y-53241904D01*
X154927142Y-53289523D01*
X155022380Y-51718095D02*
X155022380Y-52289523D01*
X155022380Y-52003809D02*
X154022380Y-52003809D01*
X154165238Y-52099047D01*
X154260476Y-52194285D01*
X154308095Y-52289523D01*
%TO.C,R32*%
X164597142Y-61802380D02*
X164263809Y-61326190D01*
X164025714Y-61802380D02*
X164025714Y-60802380D01*
X164406666Y-60802380D01*
X164501904Y-60850000D01*
X164549523Y-60897619D01*
X164597142Y-60992857D01*
X164597142Y-61135714D01*
X164549523Y-61230952D01*
X164501904Y-61278571D01*
X164406666Y-61326190D01*
X164025714Y-61326190D01*
X164930476Y-60802380D02*
X165549523Y-60802380D01*
X165216190Y-61183333D01*
X165359047Y-61183333D01*
X165454285Y-61230952D01*
X165501904Y-61278571D01*
X165549523Y-61373809D01*
X165549523Y-61611904D01*
X165501904Y-61707142D01*
X165454285Y-61754761D01*
X165359047Y-61802380D01*
X165073333Y-61802380D01*
X164978095Y-61754761D01*
X164930476Y-61707142D01*
X165930476Y-60897619D02*
X165978095Y-60850000D01*
X166073333Y-60802380D01*
X166311428Y-60802380D01*
X166406666Y-60850000D01*
X166454285Y-60897619D01*
X166501904Y-60992857D01*
X166501904Y-61088095D01*
X166454285Y-61230952D01*
X165882857Y-61802380D01*
X166501904Y-61802380D01*
%TO.C,R33*%
X171087142Y-61832380D02*
X170753809Y-61356190D01*
X170515714Y-61832380D02*
X170515714Y-60832380D01*
X170896666Y-60832380D01*
X170991904Y-60880000D01*
X171039523Y-60927619D01*
X171087142Y-61022857D01*
X171087142Y-61165714D01*
X171039523Y-61260952D01*
X170991904Y-61308571D01*
X170896666Y-61356190D01*
X170515714Y-61356190D01*
X171420476Y-60832380D02*
X172039523Y-60832380D01*
X171706190Y-61213333D01*
X171849047Y-61213333D01*
X171944285Y-61260952D01*
X171991904Y-61308571D01*
X172039523Y-61403809D01*
X172039523Y-61641904D01*
X171991904Y-61737142D01*
X171944285Y-61784761D01*
X171849047Y-61832380D01*
X171563333Y-61832380D01*
X171468095Y-61784761D01*
X171420476Y-61737142D01*
X172372857Y-60832380D02*
X172991904Y-60832380D01*
X172658571Y-61213333D01*
X172801428Y-61213333D01*
X172896666Y-61260952D01*
X172944285Y-61308571D01*
X172991904Y-61403809D01*
X172991904Y-61641904D01*
X172944285Y-61737142D01*
X172896666Y-61784761D01*
X172801428Y-61832380D01*
X172515714Y-61832380D01*
X172420476Y-61784761D01*
X172372857Y-61737142D01*
%TO.C,R34*%
X161097142Y-41252380D02*
X160763809Y-40776190D01*
X160525714Y-41252380D02*
X160525714Y-40252380D01*
X160906666Y-40252380D01*
X161001904Y-40300000D01*
X161049523Y-40347619D01*
X161097142Y-40442857D01*
X161097142Y-40585714D01*
X161049523Y-40680952D01*
X161001904Y-40728571D01*
X160906666Y-40776190D01*
X160525714Y-40776190D01*
X161430476Y-40252380D02*
X162049523Y-40252380D01*
X161716190Y-40633333D01*
X161859047Y-40633333D01*
X161954285Y-40680952D01*
X162001904Y-40728571D01*
X162049523Y-40823809D01*
X162049523Y-41061904D01*
X162001904Y-41157142D01*
X161954285Y-41204761D01*
X161859047Y-41252380D01*
X161573333Y-41252380D01*
X161478095Y-41204761D01*
X161430476Y-41157142D01*
X162906666Y-40585714D02*
X162906666Y-41252380D01*
X162668571Y-40204761D02*
X162430476Y-40919047D01*
X163049523Y-40919047D01*
%TO.C,R35*%
X127477142Y-41362380D02*
X127143809Y-40886190D01*
X126905714Y-41362380D02*
X126905714Y-40362380D01*
X127286666Y-40362380D01*
X127381904Y-40410000D01*
X127429523Y-40457619D01*
X127477142Y-40552857D01*
X127477142Y-40695714D01*
X127429523Y-40790952D01*
X127381904Y-40838571D01*
X127286666Y-40886190D01*
X126905714Y-40886190D01*
X127810476Y-40362380D02*
X128429523Y-40362380D01*
X128096190Y-40743333D01*
X128239047Y-40743333D01*
X128334285Y-40790952D01*
X128381904Y-40838571D01*
X128429523Y-40933809D01*
X128429523Y-41171904D01*
X128381904Y-41267142D01*
X128334285Y-41314761D01*
X128239047Y-41362380D01*
X127953333Y-41362380D01*
X127858095Y-41314761D01*
X127810476Y-41267142D01*
X129334285Y-40362380D02*
X128858095Y-40362380D01*
X128810476Y-40838571D01*
X128858095Y-40790952D01*
X128953333Y-40743333D01*
X129191428Y-40743333D01*
X129286666Y-40790952D01*
X129334285Y-40838571D01*
X129381904Y-40933809D01*
X129381904Y-41171904D01*
X129334285Y-41267142D01*
X129286666Y-41314761D01*
X129191428Y-41362380D01*
X128953333Y-41362380D01*
X128858095Y-41314761D01*
X128810476Y-41267142D01*
%TO.C,R36*%
X125477142Y-61282380D02*
X125143809Y-60806190D01*
X124905714Y-61282380D02*
X124905714Y-60282380D01*
X125286666Y-60282380D01*
X125381904Y-60330000D01*
X125429523Y-60377619D01*
X125477142Y-60472857D01*
X125477142Y-60615714D01*
X125429523Y-60710952D01*
X125381904Y-60758571D01*
X125286666Y-60806190D01*
X124905714Y-60806190D01*
X125810476Y-60282380D02*
X126429523Y-60282380D01*
X126096190Y-60663333D01*
X126239047Y-60663333D01*
X126334285Y-60710952D01*
X126381904Y-60758571D01*
X126429523Y-60853809D01*
X126429523Y-61091904D01*
X126381904Y-61187142D01*
X126334285Y-61234761D01*
X126239047Y-61282380D01*
X125953333Y-61282380D01*
X125858095Y-61234761D01*
X125810476Y-61187142D01*
X127286666Y-60282380D02*
X127096190Y-60282380D01*
X127000952Y-60330000D01*
X126953333Y-60377619D01*
X126858095Y-60520476D01*
X126810476Y-60710952D01*
X126810476Y-61091904D01*
X126858095Y-61187142D01*
X126905714Y-61234761D01*
X127000952Y-61282380D01*
X127191428Y-61282380D01*
X127286666Y-61234761D01*
X127334285Y-61187142D01*
X127381904Y-61091904D01*
X127381904Y-60853809D01*
X127334285Y-60758571D01*
X127286666Y-60710952D01*
X127191428Y-60663333D01*
X127000952Y-60663333D01*
X126905714Y-60710952D01*
X126858095Y-60758571D01*
X126810476Y-60853809D01*
%TO.C,R37*%
X97852380Y-49372857D02*
X97376190Y-49706190D01*
X97852380Y-49944285D02*
X96852380Y-49944285D01*
X96852380Y-49563333D01*
X96900000Y-49468095D01*
X96947619Y-49420476D01*
X97042857Y-49372857D01*
X97185714Y-49372857D01*
X97280952Y-49420476D01*
X97328571Y-49468095D01*
X97376190Y-49563333D01*
X97376190Y-49944285D01*
X96852380Y-49039523D02*
X96852380Y-48420476D01*
X97233333Y-48753809D01*
X97233333Y-48610952D01*
X97280952Y-48515714D01*
X97328571Y-48468095D01*
X97423809Y-48420476D01*
X97661904Y-48420476D01*
X97757142Y-48468095D01*
X97804761Y-48515714D01*
X97852380Y-48610952D01*
X97852380Y-48896666D01*
X97804761Y-48991904D01*
X97757142Y-49039523D01*
X96852380Y-48087142D02*
X96852380Y-47420476D01*
X97852380Y-47849047D01*
%TO.C,R38*%
X97872380Y-54412857D02*
X97396190Y-54746190D01*
X97872380Y-54984285D02*
X96872380Y-54984285D01*
X96872380Y-54603333D01*
X96920000Y-54508095D01*
X96967619Y-54460476D01*
X97062857Y-54412857D01*
X97205714Y-54412857D01*
X97300952Y-54460476D01*
X97348571Y-54508095D01*
X97396190Y-54603333D01*
X97396190Y-54984285D01*
X96872380Y-54079523D02*
X96872380Y-53460476D01*
X97253333Y-53793809D01*
X97253333Y-53650952D01*
X97300952Y-53555714D01*
X97348571Y-53508095D01*
X97443809Y-53460476D01*
X97681904Y-53460476D01*
X97777142Y-53508095D01*
X97824761Y-53555714D01*
X97872380Y-53650952D01*
X97872380Y-53936666D01*
X97824761Y-54031904D01*
X97777142Y-54079523D01*
X97300952Y-52889047D02*
X97253333Y-52984285D01*
X97205714Y-53031904D01*
X97110476Y-53079523D01*
X97062857Y-53079523D01*
X96967619Y-53031904D01*
X96920000Y-52984285D01*
X96872380Y-52889047D01*
X96872380Y-52698571D01*
X96920000Y-52603333D01*
X96967619Y-52555714D01*
X97062857Y-52508095D01*
X97110476Y-52508095D01*
X97205714Y-52555714D01*
X97253333Y-52603333D01*
X97300952Y-52698571D01*
X97300952Y-52889047D01*
X97348571Y-52984285D01*
X97396190Y-53031904D01*
X97491428Y-53079523D01*
X97681904Y-53079523D01*
X97777142Y-53031904D01*
X97824761Y-52984285D01*
X97872380Y-52889047D01*
X97872380Y-52698571D01*
X97824761Y-52603333D01*
X97777142Y-52555714D01*
X97681904Y-52508095D01*
X97491428Y-52508095D01*
X97396190Y-52555714D01*
X97348571Y-52603333D01*
X97300952Y-52698571D01*
%TO.C,R39*%
X135797142Y-58002380D02*
X135463809Y-57526190D01*
X135225714Y-58002380D02*
X135225714Y-57002380D01*
X135606666Y-57002380D01*
X135701904Y-57050000D01*
X135749523Y-57097619D01*
X135797142Y-57192857D01*
X135797142Y-57335714D01*
X135749523Y-57430952D01*
X135701904Y-57478571D01*
X135606666Y-57526190D01*
X135225714Y-57526190D01*
X136130476Y-57002380D02*
X136749523Y-57002380D01*
X136416190Y-57383333D01*
X136559047Y-57383333D01*
X136654285Y-57430952D01*
X136701904Y-57478571D01*
X136749523Y-57573809D01*
X136749523Y-57811904D01*
X136701904Y-57907142D01*
X136654285Y-57954761D01*
X136559047Y-58002380D01*
X136273333Y-58002380D01*
X136178095Y-57954761D01*
X136130476Y-57907142D01*
X137225714Y-58002380D02*
X137416190Y-58002380D01*
X137511428Y-57954761D01*
X137559047Y-57907142D01*
X137654285Y-57764285D01*
X137701904Y-57573809D01*
X137701904Y-57192857D01*
X137654285Y-57097619D01*
X137606666Y-57050000D01*
X137511428Y-57002380D01*
X137320952Y-57002380D01*
X137225714Y-57050000D01*
X137178095Y-57097619D01*
X137130476Y-57192857D01*
X137130476Y-57430952D01*
X137178095Y-57526190D01*
X137225714Y-57573809D01*
X137320952Y-57621428D01*
X137511428Y-57621428D01*
X137606666Y-57573809D01*
X137654285Y-57526190D01*
X137701904Y-57430952D01*
%TO.C,R41*%
X138822380Y-129482857D02*
X138346190Y-129816190D01*
X138822380Y-130054285D02*
X137822380Y-130054285D01*
X137822380Y-129673333D01*
X137870000Y-129578095D01*
X137917619Y-129530476D01*
X138012857Y-129482857D01*
X138155714Y-129482857D01*
X138250952Y-129530476D01*
X138298571Y-129578095D01*
X138346190Y-129673333D01*
X138346190Y-130054285D01*
X138155714Y-128625714D02*
X138822380Y-128625714D01*
X137774761Y-128863809D02*
X138489047Y-129101904D01*
X138489047Y-128482857D01*
X138822380Y-127578095D02*
X138822380Y-128149523D01*
X138822380Y-127863809D02*
X137822380Y-127863809D01*
X137965238Y-127959047D01*
X138060476Y-128054285D01*
X138108095Y-128149523D01*
%TO.C,R42*%
X90452380Y-138002857D02*
X89976190Y-138336190D01*
X90452380Y-138574285D02*
X89452380Y-138574285D01*
X89452380Y-138193333D01*
X89500000Y-138098095D01*
X89547619Y-138050476D01*
X89642857Y-138002857D01*
X89785714Y-138002857D01*
X89880952Y-138050476D01*
X89928571Y-138098095D01*
X89976190Y-138193333D01*
X89976190Y-138574285D01*
X89785714Y-137145714D02*
X90452380Y-137145714D01*
X89404761Y-137383809D02*
X90119047Y-137621904D01*
X90119047Y-137002857D01*
X89547619Y-136669523D02*
X89500000Y-136621904D01*
X89452380Y-136526666D01*
X89452380Y-136288571D01*
X89500000Y-136193333D01*
X89547619Y-136145714D01*
X89642857Y-136098095D01*
X89738095Y-136098095D01*
X89880952Y-136145714D01*
X90452380Y-136717142D01*
X90452380Y-136098095D01*
%TO.C,R43*%
X105952380Y-138042857D02*
X105476190Y-138376190D01*
X105952380Y-138614285D02*
X104952380Y-138614285D01*
X104952380Y-138233333D01*
X105000000Y-138138095D01*
X105047619Y-138090476D01*
X105142857Y-138042857D01*
X105285714Y-138042857D01*
X105380952Y-138090476D01*
X105428571Y-138138095D01*
X105476190Y-138233333D01*
X105476190Y-138614285D01*
X105285714Y-137185714D02*
X105952380Y-137185714D01*
X104904761Y-137423809D02*
X105619047Y-137661904D01*
X105619047Y-137042857D01*
X104952380Y-136757142D02*
X104952380Y-136138095D01*
X105333333Y-136471428D01*
X105333333Y-136328571D01*
X105380952Y-136233333D01*
X105428571Y-136185714D01*
X105523809Y-136138095D01*
X105761904Y-136138095D01*
X105857142Y-136185714D01*
X105904761Y-136233333D01*
X105952380Y-136328571D01*
X105952380Y-136614285D01*
X105904761Y-136709523D01*
X105857142Y-136757142D01*
%TO.C,R44*%
X101369642Y-122952380D02*
X101036309Y-122476190D01*
X100798214Y-122952380D02*
X100798214Y-121952380D01*
X101179166Y-121952380D01*
X101274404Y-122000000D01*
X101322023Y-122047619D01*
X101369642Y-122142857D01*
X101369642Y-122285714D01*
X101322023Y-122380952D01*
X101274404Y-122428571D01*
X101179166Y-122476190D01*
X100798214Y-122476190D01*
X102226785Y-122285714D02*
X102226785Y-122952380D01*
X101988690Y-121904761D02*
X101750595Y-122619047D01*
X102369642Y-122619047D01*
X103179166Y-122285714D02*
X103179166Y-122952380D01*
X102941071Y-121904761D02*
X102702976Y-122619047D01*
X103322023Y-122619047D01*
%TO.C,R45*%
X95477142Y-122932380D02*
X95143809Y-122456190D01*
X94905714Y-122932380D02*
X94905714Y-121932380D01*
X95286666Y-121932380D01*
X95381904Y-121980000D01*
X95429523Y-122027619D01*
X95477142Y-122122857D01*
X95477142Y-122265714D01*
X95429523Y-122360952D01*
X95381904Y-122408571D01*
X95286666Y-122456190D01*
X94905714Y-122456190D01*
X96334285Y-122265714D02*
X96334285Y-122932380D01*
X96096190Y-121884761D02*
X95858095Y-122599047D01*
X96477142Y-122599047D01*
X97334285Y-121932380D02*
X96858095Y-121932380D01*
X96810476Y-122408571D01*
X96858095Y-122360952D01*
X96953333Y-122313333D01*
X97191428Y-122313333D01*
X97286666Y-122360952D01*
X97334285Y-122408571D01*
X97381904Y-122503809D01*
X97381904Y-122741904D01*
X97334285Y-122837142D01*
X97286666Y-122884761D01*
X97191428Y-122932380D01*
X96953333Y-122932380D01*
X96858095Y-122884761D01*
X96810476Y-122837142D01*
%TO.C,R46*%
X178492380Y-130532857D02*
X178016190Y-130866190D01*
X178492380Y-131104285D02*
X177492380Y-131104285D01*
X177492380Y-130723333D01*
X177540000Y-130628095D01*
X177587619Y-130580476D01*
X177682857Y-130532857D01*
X177825714Y-130532857D01*
X177920952Y-130580476D01*
X177968571Y-130628095D01*
X178016190Y-130723333D01*
X178016190Y-131104285D01*
X177825714Y-129675714D02*
X178492380Y-129675714D01*
X177444761Y-129913809D02*
X178159047Y-130151904D01*
X178159047Y-129532857D01*
X177492380Y-128723333D02*
X177492380Y-128913809D01*
X177540000Y-129009047D01*
X177587619Y-129056666D01*
X177730476Y-129151904D01*
X177920952Y-129199523D01*
X178301904Y-129199523D01*
X178397142Y-129151904D01*
X178444761Y-129104285D01*
X178492380Y-129009047D01*
X178492380Y-128818571D01*
X178444761Y-128723333D01*
X178397142Y-128675714D01*
X178301904Y-128628095D01*
X178063809Y-128628095D01*
X177968571Y-128675714D01*
X177920952Y-128723333D01*
X177873333Y-128818571D01*
X177873333Y-129009047D01*
X177920952Y-129104285D01*
X177968571Y-129151904D01*
X178063809Y-129199523D01*
%TO.C,R47*%
X158927142Y-61822380D02*
X158593809Y-61346190D01*
X158355714Y-61822380D02*
X158355714Y-60822380D01*
X158736666Y-60822380D01*
X158831904Y-60870000D01*
X158879523Y-60917619D01*
X158927142Y-61012857D01*
X158927142Y-61155714D01*
X158879523Y-61250952D01*
X158831904Y-61298571D01*
X158736666Y-61346190D01*
X158355714Y-61346190D01*
X159784285Y-61155714D02*
X159784285Y-61822380D01*
X159546190Y-60774761D02*
X159308095Y-61489047D01*
X159927142Y-61489047D01*
X160212857Y-60822380D02*
X160879523Y-60822380D01*
X160450952Y-61822380D01*
%TO.C,R48*%
X206747142Y-112562380D02*
X206413809Y-112086190D01*
X206175714Y-112562380D02*
X206175714Y-111562380D01*
X206556666Y-111562380D01*
X206651904Y-111610000D01*
X206699523Y-111657619D01*
X206747142Y-111752857D01*
X206747142Y-111895714D01*
X206699523Y-111990952D01*
X206651904Y-112038571D01*
X206556666Y-112086190D01*
X206175714Y-112086190D01*
X207604285Y-111895714D02*
X207604285Y-112562380D01*
X207366190Y-111514761D02*
X207128095Y-112229047D01*
X207747142Y-112229047D01*
X208270952Y-111990952D02*
X208175714Y-111943333D01*
X208128095Y-111895714D01*
X208080476Y-111800476D01*
X208080476Y-111752857D01*
X208128095Y-111657619D01*
X208175714Y-111610000D01*
X208270952Y-111562380D01*
X208461428Y-111562380D01*
X208556666Y-111610000D01*
X208604285Y-111657619D01*
X208651904Y-111752857D01*
X208651904Y-111800476D01*
X208604285Y-111895714D01*
X208556666Y-111943333D01*
X208461428Y-111990952D01*
X208270952Y-111990952D01*
X208175714Y-112038571D01*
X208128095Y-112086190D01*
X208080476Y-112181428D01*
X208080476Y-112371904D01*
X208128095Y-112467142D01*
X208175714Y-112514761D01*
X208270952Y-112562380D01*
X208461428Y-112562380D01*
X208556666Y-112514761D01*
X208604285Y-112467142D01*
X208651904Y-112371904D01*
X208651904Y-112181428D01*
X208604285Y-112086190D01*
X208556666Y-112038571D01*
X208461428Y-111990952D01*
%TO.C,R49*%
X127577142Y-137162380D02*
X127243809Y-136686190D01*
X127005714Y-137162380D02*
X127005714Y-136162380D01*
X127386666Y-136162380D01*
X127481904Y-136210000D01*
X127529523Y-136257619D01*
X127577142Y-136352857D01*
X127577142Y-136495714D01*
X127529523Y-136590952D01*
X127481904Y-136638571D01*
X127386666Y-136686190D01*
X127005714Y-136686190D01*
X128434285Y-136495714D02*
X128434285Y-137162380D01*
X128196190Y-136114761D02*
X127958095Y-136829047D01*
X128577142Y-136829047D01*
X129005714Y-137162380D02*
X129196190Y-137162380D01*
X129291428Y-137114761D01*
X129339047Y-137067142D01*
X129434285Y-136924285D01*
X129481904Y-136733809D01*
X129481904Y-136352857D01*
X129434285Y-136257619D01*
X129386666Y-136210000D01*
X129291428Y-136162380D01*
X129100952Y-136162380D01*
X129005714Y-136210000D01*
X128958095Y-136257619D01*
X128910476Y-136352857D01*
X128910476Y-136590952D01*
X128958095Y-136686190D01*
X129005714Y-136733809D01*
X129100952Y-136781428D01*
X129291428Y-136781428D01*
X129386666Y-136733809D01*
X129434285Y-136686190D01*
X129481904Y-136590952D01*
%TO.C,R50*%
X139147142Y-102582380D02*
X138813809Y-102106190D01*
X138575714Y-102582380D02*
X138575714Y-101582380D01*
X138956666Y-101582380D01*
X139051904Y-101630000D01*
X139099523Y-101677619D01*
X139147142Y-101772857D01*
X139147142Y-101915714D01*
X139099523Y-102010952D01*
X139051904Y-102058571D01*
X138956666Y-102106190D01*
X138575714Y-102106190D01*
X140051904Y-101582380D02*
X139575714Y-101582380D01*
X139528095Y-102058571D01*
X139575714Y-102010952D01*
X139670952Y-101963333D01*
X139909047Y-101963333D01*
X140004285Y-102010952D01*
X140051904Y-102058571D01*
X140099523Y-102153809D01*
X140099523Y-102391904D01*
X140051904Y-102487142D01*
X140004285Y-102534761D01*
X139909047Y-102582380D01*
X139670952Y-102582380D01*
X139575714Y-102534761D01*
X139528095Y-102487142D01*
X140718571Y-101582380D02*
X140813809Y-101582380D01*
X140909047Y-101630000D01*
X140956666Y-101677619D01*
X141004285Y-101772857D01*
X141051904Y-101963333D01*
X141051904Y-102201428D01*
X141004285Y-102391904D01*
X140956666Y-102487142D01*
X140909047Y-102534761D01*
X140813809Y-102582380D01*
X140718571Y-102582380D01*
X140623333Y-102534761D01*
X140575714Y-102487142D01*
X140528095Y-102391904D01*
X140480476Y-102201428D01*
X140480476Y-101963333D01*
X140528095Y-101772857D01*
X140575714Y-101677619D01*
X140623333Y-101630000D01*
X140718571Y-101582380D01*
%TO.C,R110*%
X206290952Y-88512380D02*
X205957619Y-88036190D01*
X205719523Y-88512380D02*
X205719523Y-87512380D01*
X206100476Y-87512380D01*
X206195714Y-87560000D01*
X206243333Y-87607619D01*
X206290952Y-87702857D01*
X206290952Y-87845714D01*
X206243333Y-87940952D01*
X206195714Y-87988571D01*
X206100476Y-88036190D01*
X205719523Y-88036190D01*
X207243333Y-88512380D02*
X206671904Y-88512380D01*
X206957619Y-88512380D02*
X206957619Y-87512380D01*
X206862380Y-87655238D01*
X206767142Y-87750476D01*
X206671904Y-87798095D01*
X208195714Y-88512380D02*
X207624285Y-88512380D01*
X207910000Y-88512380D02*
X207910000Y-87512380D01*
X207814761Y-87655238D01*
X207719523Y-87750476D01*
X207624285Y-87798095D01*
X208814761Y-87512380D02*
X208910000Y-87512380D01*
X209005238Y-87560000D01*
X209052857Y-87607619D01*
X209100476Y-87702857D01*
X209148095Y-87893333D01*
X209148095Y-88131428D01*
X209100476Y-88321904D01*
X209052857Y-88417142D01*
X209005238Y-88464761D01*
X208910000Y-88512380D01*
X208814761Y-88512380D01*
X208719523Y-88464761D01*
X208671904Y-88417142D01*
X208624285Y-88321904D01*
X208576666Y-88131428D01*
X208576666Y-87893333D01*
X208624285Y-87702857D01*
X208671904Y-87607619D01*
X208719523Y-87560000D01*
X208814761Y-87512380D01*
%TO.C,R311*%
X171660952Y-139562380D02*
X171327619Y-139086190D01*
X171089523Y-139562380D02*
X171089523Y-138562380D01*
X171470476Y-138562380D01*
X171565714Y-138610000D01*
X171613333Y-138657619D01*
X171660952Y-138752857D01*
X171660952Y-138895714D01*
X171613333Y-138990952D01*
X171565714Y-139038571D01*
X171470476Y-139086190D01*
X171089523Y-139086190D01*
X171994285Y-138562380D02*
X172613333Y-138562380D01*
X172280000Y-138943333D01*
X172422857Y-138943333D01*
X172518095Y-138990952D01*
X172565714Y-139038571D01*
X172613333Y-139133809D01*
X172613333Y-139371904D01*
X172565714Y-139467142D01*
X172518095Y-139514761D01*
X172422857Y-139562380D01*
X172137142Y-139562380D01*
X172041904Y-139514761D01*
X171994285Y-139467142D01*
X173565714Y-139562380D02*
X172994285Y-139562380D01*
X173280000Y-139562380D02*
X173280000Y-138562380D01*
X173184761Y-138705238D01*
X173089523Y-138800476D01*
X172994285Y-138848095D01*
X174518095Y-139562380D02*
X173946666Y-139562380D01*
X174232380Y-139562380D02*
X174232380Y-138562380D01*
X174137142Y-138705238D01*
X174041904Y-138800476D01*
X173946666Y-138848095D01*
%TO.C,R312*%
X150420952Y-139582380D02*
X150087619Y-139106190D01*
X149849523Y-139582380D02*
X149849523Y-138582380D01*
X150230476Y-138582380D01*
X150325714Y-138630000D01*
X150373333Y-138677619D01*
X150420952Y-138772857D01*
X150420952Y-138915714D01*
X150373333Y-139010952D01*
X150325714Y-139058571D01*
X150230476Y-139106190D01*
X149849523Y-139106190D01*
X150754285Y-138582380D02*
X151373333Y-138582380D01*
X151040000Y-138963333D01*
X151182857Y-138963333D01*
X151278095Y-139010952D01*
X151325714Y-139058571D01*
X151373333Y-139153809D01*
X151373333Y-139391904D01*
X151325714Y-139487142D01*
X151278095Y-139534761D01*
X151182857Y-139582380D01*
X150897142Y-139582380D01*
X150801904Y-139534761D01*
X150754285Y-139487142D01*
X152325714Y-139582380D02*
X151754285Y-139582380D01*
X152040000Y-139582380D02*
X152040000Y-138582380D01*
X151944761Y-138725238D01*
X151849523Y-138820476D01*
X151754285Y-138868095D01*
X152706666Y-138677619D02*
X152754285Y-138630000D01*
X152849523Y-138582380D01*
X153087619Y-138582380D01*
X153182857Y-138630000D01*
X153230476Y-138677619D01*
X153278095Y-138772857D01*
X153278095Y-138868095D01*
X153230476Y-139010952D01*
X152659047Y-139582380D01*
X153278095Y-139582380D01*
%TO.C,R313*%
X145700952Y-139592380D02*
X145367619Y-139116190D01*
X145129523Y-139592380D02*
X145129523Y-138592380D01*
X145510476Y-138592380D01*
X145605714Y-138640000D01*
X145653333Y-138687619D01*
X145700952Y-138782857D01*
X145700952Y-138925714D01*
X145653333Y-139020952D01*
X145605714Y-139068571D01*
X145510476Y-139116190D01*
X145129523Y-139116190D01*
X146034285Y-138592380D02*
X146653333Y-138592380D01*
X146320000Y-138973333D01*
X146462857Y-138973333D01*
X146558095Y-139020952D01*
X146605714Y-139068571D01*
X146653333Y-139163809D01*
X146653333Y-139401904D01*
X146605714Y-139497142D01*
X146558095Y-139544761D01*
X146462857Y-139592380D01*
X146177142Y-139592380D01*
X146081904Y-139544761D01*
X146034285Y-139497142D01*
X147605714Y-139592380D02*
X147034285Y-139592380D01*
X147320000Y-139592380D02*
X147320000Y-138592380D01*
X147224761Y-138735238D01*
X147129523Y-138830476D01*
X147034285Y-138878095D01*
X147939047Y-138592380D02*
X148558095Y-138592380D01*
X148224761Y-138973333D01*
X148367619Y-138973333D01*
X148462857Y-139020952D01*
X148510476Y-139068571D01*
X148558095Y-139163809D01*
X148558095Y-139401904D01*
X148510476Y-139497142D01*
X148462857Y-139544761D01*
X148367619Y-139592380D01*
X148081904Y-139592380D01*
X147986666Y-139544761D01*
X147939047Y-139497142D01*
%TO.C,C26*%
X135337142Y-78097142D02*
X135289523Y-78144761D01*
X135146666Y-78192380D01*
X135051428Y-78192380D01*
X134908571Y-78144761D01*
X134813333Y-78049523D01*
X134765714Y-77954285D01*
X134718095Y-77763809D01*
X134718095Y-77620952D01*
X134765714Y-77430476D01*
X134813333Y-77335238D01*
X134908571Y-77240000D01*
X135051428Y-77192380D01*
X135146666Y-77192380D01*
X135289523Y-77240000D01*
X135337142Y-77287619D01*
X135718095Y-77287619D02*
X135765714Y-77240000D01*
X135860952Y-77192380D01*
X136099047Y-77192380D01*
X136194285Y-77240000D01*
X136241904Y-77287619D01*
X136289523Y-77382857D01*
X136289523Y-77478095D01*
X136241904Y-77620952D01*
X135670476Y-78192380D01*
X136289523Y-78192380D01*
X137146666Y-77192380D02*
X136956190Y-77192380D01*
X136860952Y-77240000D01*
X136813333Y-77287619D01*
X136718095Y-77430476D01*
X136670476Y-77620952D01*
X136670476Y-78001904D01*
X136718095Y-78097142D01*
X136765714Y-78144761D01*
X136860952Y-78192380D01*
X137051428Y-78192380D01*
X137146666Y-78144761D01*
X137194285Y-78097142D01*
X137241904Y-78001904D01*
X137241904Y-77763809D01*
X137194285Y-77668571D01*
X137146666Y-77620952D01*
X137051428Y-77573333D01*
X136860952Y-77573333D01*
X136765714Y-77620952D01*
X136718095Y-77668571D01*
X136670476Y-77763809D01*
%TO.C,U41*%
X158441904Y-103214880D02*
X158441904Y-104024404D01*
X158489523Y-104119642D01*
X158537142Y-104167261D01*
X158632380Y-104214880D01*
X158822857Y-104214880D01*
X158918095Y-104167261D01*
X158965714Y-104119642D01*
X159013333Y-104024404D01*
X159013333Y-103214880D01*
X159918095Y-103548214D02*
X159918095Y-104214880D01*
X159680000Y-103167261D02*
X159441904Y-103881547D01*
X160060952Y-103881547D01*
X160965714Y-104214880D02*
X160394285Y-104214880D01*
X160680000Y-104214880D02*
X160680000Y-103214880D01*
X160584761Y-103357738D01*
X160489523Y-103452976D01*
X160394285Y-103500595D01*
%TO.C,U24*%
D16*
X119614523Y-134512380D02*
X120642619Y-134512380D01*
X120763571Y-134451904D01*
X120824047Y-134391428D01*
X120884523Y-134270476D01*
X120884523Y-134028571D01*
X120824047Y-133907619D01*
X120763571Y-133847142D01*
X120642619Y-133786666D01*
X119614523Y-133786666D01*
X119735476Y-133242380D02*
X119675000Y-133181904D01*
X119614523Y-133060952D01*
X119614523Y-132758571D01*
X119675000Y-132637619D01*
X119735476Y-132577142D01*
X119856428Y-132516666D01*
X119977380Y-132516666D01*
X120158809Y-132577142D01*
X120884523Y-133302857D01*
X120884523Y-132516666D01*
X120037857Y-131428095D02*
X120884523Y-131428095D01*
X119554047Y-131730476D02*
X120461190Y-132032857D01*
X120461190Y-131246666D01*
%TO.C,U25*%
X121927619Y-94984523D02*
X121927619Y-96012619D01*
X121988095Y-96133571D01*
X122048571Y-96194047D01*
X122169523Y-96254523D01*
X122411428Y-96254523D01*
X122532380Y-96194047D01*
X122592857Y-96133571D01*
X122653333Y-96012619D01*
X122653333Y-94984523D01*
X123197619Y-95105476D02*
X123258095Y-95045000D01*
X123379047Y-94984523D01*
X123681428Y-94984523D01*
X123802380Y-95045000D01*
X123862857Y-95105476D01*
X123923333Y-95226428D01*
X123923333Y-95347380D01*
X123862857Y-95528809D01*
X123137142Y-96254523D01*
X123923333Y-96254523D01*
X125072380Y-94984523D02*
X124467619Y-94984523D01*
X124407142Y-95589285D01*
X124467619Y-95528809D01*
X124588571Y-95468333D01*
X124890952Y-95468333D01*
X125011904Y-95528809D01*
X125072380Y-95589285D01*
X125132857Y-95710238D01*
X125132857Y-96012619D01*
X125072380Y-96133571D01*
X125011904Y-96194047D01*
X124890952Y-96254523D01*
X124588571Y-96254523D01*
X124467619Y-96194047D01*
X124407142Y-96133571D01*
%TO.C,U26*%
X121927619Y-76994523D02*
X121927619Y-78022619D01*
X121988095Y-78143571D01*
X122048571Y-78204047D01*
X122169523Y-78264523D01*
X122411428Y-78264523D01*
X122532380Y-78204047D01*
X122592857Y-78143571D01*
X122653333Y-78022619D01*
X122653333Y-76994523D01*
X123197619Y-77115476D02*
X123258095Y-77055000D01*
X123379047Y-76994523D01*
X123681428Y-76994523D01*
X123802380Y-77055000D01*
X123862857Y-77115476D01*
X123923333Y-77236428D01*
X123923333Y-77357380D01*
X123862857Y-77538809D01*
X123137142Y-78264523D01*
X123923333Y-78264523D01*
X125011904Y-76994523D02*
X124770000Y-76994523D01*
X124649047Y-77055000D01*
X124588571Y-77115476D01*
X124467619Y-77296904D01*
X124407142Y-77538809D01*
X124407142Y-78022619D01*
X124467619Y-78143571D01*
X124528095Y-78204047D01*
X124649047Y-78264523D01*
X124890952Y-78264523D01*
X125011904Y-78204047D01*
X125072380Y-78143571D01*
X125132857Y-78022619D01*
X125132857Y-77720238D01*
X125072380Y-77599285D01*
X125011904Y-77538809D01*
X124890952Y-77478333D01*
X124649047Y-77478333D01*
X124528095Y-77538809D01*
X124467619Y-77599285D01*
X124407142Y-77720238D01*
%TO.C,U29*%
X168967619Y-41654523D02*
X168967619Y-42682619D01*
X169028095Y-42803571D01*
X169088571Y-42864047D01*
X169209523Y-42924523D01*
X169451428Y-42924523D01*
X169572380Y-42864047D01*
X169632857Y-42803571D01*
X169693333Y-42682619D01*
X169693333Y-41654523D01*
X170237619Y-41775476D02*
X170298095Y-41715000D01*
X170419047Y-41654523D01*
X170721428Y-41654523D01*
X170842380Y-41715000D01*
X170902857Y-41775476D01*
X170963333Y-41896428D01*
X170963333Y-42017380D01*
X170902857Y-42198809D01*
X170177142Y-42924523D01*
X170963333Y-42924523D01*
X171568095Y-42924523D02*
X171810000Y-42924523D01*
X171930952Y-42864047D01*
X171991428Y-42803571D01*
X172112380Y-42622142D01*
X172172857Y-42380238D01*
X172172857Y-41896428D01*
X172112380Y-41775476D01*
X172051904Y-41715000D01*
X171930952Y-41654523D01*
X171689047Y-41654523D01*
X171568095Y-41715000D01*
X171507619Y-41775476D01*
X171447142Y-41896428D01*
X171447142Y-42198809D01*
X171507619Y-42319761D01*
X171568095Y-42380238D01*
X171689047Y-42440714D01*
X171930952Y-42440714D01*
X172051904Y-42380238D01*
X172112380Y-42319761D01*
X172172857Y-42198809D01*
%TO.C,U42*%
X103574523Y-130352380D02*
X104602619Y-130352380D01*
X104723571Y-130291904D01*
X104784047Y-130231428D01*
X104844523Y-130110476D01*
X104844523Y-129868571D01*
X104784047Y-129747619D01*
X104723571Y-129687142D01*
X104602619Y-129626666D01*
X103574523Y-129626666D01*
X103997857Y-128477619D02*
X104844523Y-128477619D01*
X103514047Y-128780000D02*
X104421190Y-129082380D01*
X104421190Y-128296190D01*
X103695476Y-127872857D02*
X103635000Y-127812380D01*
X103574523Y-127691428D01*
X103574523Y-127389047D01*
X103635000Y-127268095D01*
X103695476Y-127207619D01*
X103816428Y-127147142D01*
X103937380Y-127147142D01*
X104118809Y-127207619D01*
X104844523Y-127933333D01*
X104844523Y-127147142D01*
%TO.C,U22*%
D15*
X147042380Y-97708095D02*
X147851904Y-97708095D01*
X147947142Y-97660476D01*
X147994761Y-97612857D01*
X148042380Y-97517619D01*
X148042380Y-97327142D01*
X147994761Y-97231904D01*
X147947142Y-97184285D01*
X147851904Y-97136666D01*
X147042380Y-97136666D01*
X147137619Y-96708095D02*
X147090000Y-96660476D01*
X147042380Y-96565238D01*
X147042380Y-96327142D01*
X147090000Y-96231904D01*
X147137619Y-96184285D01*
X147232857Y-96136666D01*
X147328095Y-96136666D01*
X147470952Y-96184285D01*
X148042380Y-96755714D01*
X148042380Y-96136666D01*
X147137619Y-95755714D02*
X147090000Y-95708095D01*
X147042380Y-95612857D01*
X147042380Y-95374761D01*
X147090000Y-95279523D01*
X147137619Y-95231904D01*
X147232857Y-95184285D01*
X147328095Y-95184285D01*
X147470952Y-95231904D01*
X148042380Y-95803333D01*
X148042380Y-95184285D01*
%TO.C,U44*%
X101441904Y-60502380D02*
X101441904Y-61311904D01*
X101489523Y-61407142D01*
X101537142Y-61454761D01*
X101632380Y-61502380D01*
X101822857Y-61502380D01*
X101918095Y-61454761D01*
X101965714Y-61407142D01*
X102013333Y-61311904D01*
X102013333Y-60502380D01*
X102918095Y-60835714D02*
X102918095Y-61502380D01*
X102680000Y-60454761D02*
X102441904Y-61169047D01*
X103060952Y-61169047D01*
X103870476Y-60835714D02*
X103870476Y-61502380D01*
X103632380Y-60454761D02*
X103394285Y-61169047D01*
X104013333Y-61169047D01*
%TO.C,U31*%
X210021904Y-37482380D02*
X210021904Y-38291904D01*
X210069523Y-38387142D01*
X210117142Y-38434761D01*
X210212380Y-38482380D01*
X210402857Y-38482380D01*
X210498095Y-38434761D01*
X210545714Y-38387142D01*
X210593333Y-38291904D01*
X210593333Y-37482380D01*
X210974285Y-37482380D02*
X211593333Y-37482380D01*
X211260000Y-37863333D01*
X211402857Y-37863333D01*
X211498095Y-37910952D01*
X211545714Y-37958571D01*
X211593333Y-38053809D01*
X211593333Y-38291904D01*
X211545714Y-38387142D01*
X211498095Y-38434761D01*
X211402857Y-38482380D01*
X211117142Y-38482380D01*
X211021904Y-38434761D01*
X210974285Y-38387142D01*
X212545714Y-38482380D02*
X211974285Y-38482380D01*
X212260000Y-38482380D02*
X212260000Y-37482380D01*
X212164761Y-37625238D01*
X212069523Y-37720476D01*
X211974285Y-37768095D01*
%TO.C,U32*%
X199801904Y-37482380D02*
X199801904Y-38291904D01*
X199849523Y-38387142D01*
X199897142Y-38434761D01*
X199992380Y-38482380D01*
X200182857Y-38482380D01*
X200278095Y-38434761D01*
X200325714Y-38387142D01*
X200373333Y-38291904D01*
X200373333Y-37482380D01*
X200754285Y-37482380D02*
X201373333Y-37482380D01*
X201040000Y-37863333D01*
X201182857Y-37863333D01*
X201278095Y-37910952D01*
X201325714Y-37958571D01*
X201373333Y-38053809D01*
X201373333Y-38291904D01*
X201325714Y-38387142D01*
X201278095Y-38434761D01*
X201182857Y-38482380D01*
X200897142Y-38482380D01*
X200801904Y-38434761D01*
X200754285Y-38387142D01*
X201754285Y-37577619D02*
X201801904Y-37530000D01*
X201897142Y-37482380D01*
X202135238Y-37482380D01*
X202230476Y-37530000D01*
X202278095Y-37577619D01*
X202325714Y-37672857D01*
X202325714Y-37768095D01*
X202278095Y-37910952D01*
X201706666Y-38482380D01*
X202325714Y-38482380D01*
%TO.C,U33*%
X189631904Y-37482380D02*
X189631904Y-38291904D01*
X189679523Y-38387142D01*
X189727142Y-38434761D01*
X189822380Y-38482380D01*
X190012857Y-38482380D01*
X190108095Y-38434761D01*
X190155714Y-38387142D01*
X190203333Y-38291904D01*
X190203333Y-37482380D01*
X190584285Y-37482380D02*
X191203333Y-37482380D01*
X190870000Y-37863333D01*
X191012857Y-37863333D01*
X191108095Y-37910952D01*
X191155714Y-37958571D01*
X191203333Y-38053809D01*
X191203333Y-38291904D01*
X191155714Y-38387142D01*
X191108095Y-38434761D01*
X191012857Y-38482380D01*
X190727142Y-38482380D01*
X190631904Y-38434761D01*
X190584285Y-38387142D01*
X191536666Y-37482380D02*
X192155714Y-37482380D01*
X191822380Y-37863333D01*
X191965238Y-37863333D01*
X192060476Y-37910952D01*
X192108095Y-37958571D01*
X192155714Y-38053809D01*
X192155714Y-38291904D01*
X192108095Y-38387142D01*
X192060476Y-38434761D01*
X191965238Y-38482380D01*
X191679523Y-38482380D01*
X191584285Y-38434761D01*
X191536666Y-38387142D01*
%TO.C,U34*%
X179401904Y-37482380D02*
X179401904Y-38291904D01*
X179449523Y-38387142D01*
X179497142Y-38434761D01*
X179592380Y-38482380D01*
X179782857Y-38482380D01*
X179878095Y-38434761D01*
X179925714Y-38387142D01*
X179973333Y-38291904D01*
X179973333Y-37482380D01*
X180354285Y-37482380D02*
X180973333Y-37482380D01*
X180640000Y-37863333D01*
X180782857Y-37863333D01*
X180878095Y-37910952D01*
X180925714Y-37958571D01*
X180973333Y-38053809D01*
X180973333Y-38291904D01*
X180925714Y-38387142D01*
X180878095Y-38434761D01*
X180782857Y-38482380D01*
X180497142Y-38482380D01*
X180401904Y-38434761D01*
X180354285Y-38387142D01*
X181830476Y-37815714D02*
X181830476Y-38482380D01*
X181592380Y-37434761D02*
X181354285Y-38149047D01*
X181973333Y-38149047D01*
%TD*%
M02*
