%TF.GenerationSoftware,KiCad,Pcbnew,(5.1.12)-1*%
%TF.CreationDate,2022-12-05T14:55:24+01:00*%
%TF.ProjectId,atonceplus,61746f6e-6365-4706-9c75-732e6b696361,rev?*%
%TF.SameCoordinates,Original*%
%TF.FileFunction,Copper,L4,Bot*%
%TF.FilePolarity,Positive*%
%FSLAX46Y46*%
G04 Gerber Fmt 4.6, Leading zero omitted, Abs format (unit mm)*
G04 Created by KiCad (PCBNEW (5.1.12)-1) date 2022-12-05 14:55:24*
%MOMM*%
%LPD*%
G01*
G04 APERTURE LIST*
%TA.AperFunction,ComponentPad*%
%ADD10C,1.400000*%
%TD*%
%TA.AperFunction,ComponentPad*%
%ADD11R,1.400000X1.400000*%
%TD*%
%TA.AperFunction,ComponentPad*%
%ADD12O,1.400000X1.400000*%
%TD*%
%TA.AperFunction,ViaPad*%
%ADD13C,0.800000*%
%TD*%
%TA.AperFunction,Conductor*%
%ADD14C,0.250000*%
%TD*%
G04 APERTURE END LIST*
D10*
%TO.P,J1,1*%
%TO.N,Z_D4*%
X109020000Y-139580000D03*
%TO.P,J1,2*%
%TO.N,Z_D3*%
X109020000Y-137040000D03*
%TO.P,J1,3*%
%TO.N,Z_D2*%
X109020000Y-134500000D03*
%TO.P,J1,4*%
%TO.N,Z_D1*%
X109020000Y-131960000D03*
%TO.P,J1,5*%
%TO.N,Z_D0*%
X109020000Y-129420000D03*
%TO.P,J1,6*%
%TO.N,Z_~AS*%
X109020000Y-126880000D03*
%TO.P,J1,7*%
%TO.N,Z_~UDS*%
X109020000Y-124340000D03*
%TO.P,J1,8*%
%TO.N,Z_~LDS*%
X109020000Y-121800000D03*
%TO.P,J1,9*%
%TO.N,Z_R~W*%
X109020000Y-119260000D03*
%TO.P,J1,10*%
%TO.N,Z_~DTACK*%
X109020000Y-116720000D03*
%TO.P,J1,11*%
%TO.N,Z_~BG*%
X109020000Y-114180000D03*
%TO.P,J1,12*%
%TO.N,Z_~BGACK*%
X109020000Y-111640000D03*
%TO.P,J1,13*%
%TO.N,Z_~BR*%
X109020000Y-109100000D03*
%TO.P,J1,14*%
%TO.N,VCC*%
X109020000Y-106560000D03*
%TO.P,J1,15*%
%TO.N,Z_CLK*%
X109020000Y-104020000D03*
%TO.P,J1,16*%
%TO.N,GND*%
X109020000Y-101480000D03*
%TO.P,J1,17*%
%TO.N,Z_~HALT*%
X109020000Y-98940000D03*
%TO.P,J1,18*%
%TO.N,Z_~RESET*%
X109020000Y-96400000D03*
%TO.P,J1,19*%
%TO.N,Z_~VMA*%
X109020000Y-93860000D03*
%TO.P,J1,20*%
%TO.N,Z_E*%
X109020000Y-91320000D03*
%TO.P,J1,21*%
%TO.N,Z_~VPA*%
X109020000Y-88780000D03*
%TO.P,J1,22*%
%TO.N,Z_~BERR*%
X109020000Y-86240000D03*
%TO.P,J1,23*%
%TO.N,Z_~IPL2*%
X109020000Y-83700000D03*
%TO.P,J1,24*%
%TO.N,Z_~IPL1*%
X109020000Y-81160000D03*
%TO.P,J1,25*%
%TO.N,Z_~IPL0*%
X109020000Y-78620000D03*
%TO.P,J1,26*%
%TO.N,Z_FC2*%
X109020000Y-76080000D03*
%TO.P,J1,27*%
%TO.N,Z_FC1*%
X109020000Y-73540000D03*
%TO.P,J1,28*%
%TO.N,Z_FC0*%
X109020000Y-71000000D03*
%TO.P,J1,29*%
%TO.N,Z_A1*%
X109020000Y-68460000D03*
%TO.P,J1,30*%
%TO.N,Z_A2*%
X109020000Y-65920000D03*
%TO.P,J1,31*%
%TO.N,Z_A3*%
X109020000Y-63380000D03*
%TO.P,J1,32*%
%TO.N,Z_A4*%
X109020000Y-60840000D03*
%TO.P,J1,33*%
%TO.N,Z_A5*%
X86160000Y-60840000D03*
%TO.P,J1,34*%
%TO.N,Z_A6*%
X86160000Y-63380000D03*
%TO.P,J1,35*%
%TO.N,Z_A7*%
X86160000Y-65920000D03*
%TO.P,J1,36*%
%TO.N,Z_A8*%
X86160000Y-68460000D03*
%TO.P,J1,37*%
%TO.N,Z_A9*%
X86160000Y-71000000D03*
%TO.P,J1,38*%
%TO.N,Z_A10*%
X86160000Y-73540000D03*
%TO.P,J1,39*%
%TO.N,Z_A11*%
X86160000Y-76080000D03*
%TO.P,J1,40*%
%TO.N,Z_A12*%
X86160000Y-78620000D03*
%TO.P,J1,41*%
%TO.N,Z_A13*%
X86160000Y-81160000D03*
%TO.P,J1,42*%
%TO.N,Z_A14*%
X86160000Y-83700000D03*
%TO.P,J1,43*%
%TO.N,Z_A15*%
X86160000Y-86240000D03*
%TO.P,J1,44*%
%TO.N,Z_A16*%
X86160000Y-88780000D03*
%TO.P,J1,45*%
%TO.N,Z_A17*%
X86160000Y-91320000D03*
%TO.P,J1,46*%
%TO.N,Z_A18*%
X86160000Y-93860000D03*
%TO.P,J1,47*%
%TO.N,Z_A19*%
X86160000Y-96400000D03*
%TO.P,J1,48*%
%TO.N,Z_A20*%
X86160000Y-98940000D03*
%TO.P,J1,49*%
%TO.N,VCC*%
X86160000Y-101480000D03*
%TO.P,J1,50*%
%TO.N,Z_A21*%
X86160000Y-104020000D03*
%TO.P,J1,51*%
%TO.N,Z_A22*%
X86160000Y-106560000D03*
%TO.P,J1,52*%
%TO.N,Z_A23*%
X86160000Y-109100000D03*
%TO.P,J1,53*%
%TO.N,GND*%
X86160000Y-111640000D03*
%TO.P,J1,54*%
%TO.N,Z_D15*%
X86160000Y-114180000D03*
%TO.P,J1,55*%
%TO.N,Z_D14*%
X86160000Y-116720000D03*
%TO.P,J1,56*%
%TO.N,Z_D13*%
X86160000Y-119260000D03*
%TO.P,J1,57*%
%TO.N,Z_D12*%
X86160000Y-121800000D03*
%TO.P,J1,58*%
%TO.N,Z_D11*%
X86160000Y-124340000D03*
%TO.P,J1,59*%
%TO.N,Z_D10*%
X86160000Y-126880000D03*
%TO.P,J1,60*%
%TO.N,Z_D9*%
X86160000Y-129420000D03*
%TO.P,J1,61*%
%TO.N,Z_D8*%
X86160000Y-131960000D03*
%TO.P,J1,62*%
%TO.N,Z_D7*%
X86160000Y-134500000D03*
%TO.P,J1,63*%
%TO.N,Z_D6*%
X86160000Y-137040000D03*
%TO.P,J1,64*%
%TO.N,Z_D5*%
X86160000Y-139580000D03*
%TD*%
%TO.P,J2,64*%
%TO.N,Z_D5*%
X93890000Y-119250000D03*
%TO.P,J2,63*%
%TO.N,Z_D6*%
X93890000Y-116710000D03*
%TO.P,J2,62*%
%TO.N,Z_D7*%
X93890000Y-114170000D03*
%TO.P,J2,61*%
%TO.N,Z_D8*%
X93890000Y-111630000D03*
%TO.P,J2,60*%
%TO.N,Z_D9*%
X93890000Y-109090000D03*
%TO.P,J2,59*%
%TO.N,Z_D10*%
X93890000Y-106550000D03*
%TO.P,J2,58*%
%TO.N,Z_D11*%
X93890000Y-104010000D03*
%TO.P,J2,57*%
%TO.N,Z_D12*%
X93890000Y-101470000D03*
%TO.P,J2,56*%
%TO.N,Z_D13*%
X93890000Y-98930000D03*
%TO.P,J2,55*%
%TO.N,Z_D14*%
X93890000Y-96390000D03*
%TO.P,J2,54*%
%TO.N,Z_D15*%
X93890000Y-93850000D03*
%TO.P,J2,53*%
%TO.N,GND*%
X93890000Y-91310000D03*
%TO.P,J2,52*%
%TO.N,Z_A23*%
X93890000Y-88770000D03*
%TO.P,J2,51*%
%TO.N,Z_A22*%
X93890000Y-86230000D03*
%TO.P,J2,50*%
%TO.N,Z_A21*%
X93890000Y-83690000D03*
%TO.P,J2,49*%
%TO.N,VCC*%
X93890000Y-81150000D03*
%TO.P,J2,48*%
%TO.N,Z_A20*%
X93890000Y-78610000D03*
%TO.P,J2,47*%
%TO.N,Z_A19*%
X93890000Y-76070000D03*
%TO.P,J2,46*%
%TO.N,Z_A18*%
X93890000Y-73530000D03*
%TO.P,J2,45*%
%TO.N,Z_A17*%
X93890000Y-70990000D03*
%TO.P,J2,44*%
%TO.N,Z_A16*%
X93890000Y-68450000D03*
%TO.P,J2,43*%
%TO.N,Z_A15*%
X93890000Y-65910000D03*
%TO.P,J2,42*%
%TO.N,Z_A14*%
X93890000Y-63370000D03*
%TO.P,J2,41*%
%TO.N,Z_A13*%
X93890000Y-60830000D03*
%TO.P,J2,40*%
%TO.N,Z_A12*%
X93890000Y-58290000D03*
%TO.P,J2,39*%
%TO.N,Z_A11*%
X93890000Y-55750000D03*
%TO.P,J2,38*%
%TO.N,Z_A10*%
X93890000Y-53210000D03*
%TO.P,J2,37*%
%TO.N,Z_A9*%
X93890000Y-50670000D03*
%TO.P,J2,36*%
%TO.N,Z_A8*%
X93890000Y-48130000D03*
%TO.P,J2,35*%
%TO.N,Z_A7*%
X93890000Y-45590000D03*
%TO.P,J2,34*%
%TO.N,Z_A6*%
X93890000Y-43050000D03*
%TO.P,J2,33*%
%TO.N,Z_A5*%
X93890000Y-40510000D03*
%TO.P,J2,32*%
%TO.N,Z_A4*%
X116750000Y-40510000D03*
%TO.P,J2,31*%
%TO.N,Z_A3*%
X116750000Y-43050000D03*
%TO.P,J2,30*%
%TO.N,Z_A2*%
X116750000Y-45590000D03*
%TO.P,J2,29*%
%TO.N,Z_A1*%
X116750000Y-48130000D03*
%TO.P,J2,28*%
%TO.N,Z_FC0*%
X116750000Y-50670000D03*
%TO.P,J2,27*%
%TO.N,Z_FC1*%
X116750000Y-53210000D03*
%TO.P,J2,26*%
%TO.N,Z_FC2*%
X116750000Y-55750000D03*
%TO.P,J2,25*%
%TO.N,Z_~IPL0*%
X116750000Y-58290000D03*
%TO.P,J2,24*%
%TO.N,Z_~IPL1*%
X116750000Y-60830000D03*
%TO.P,J2,23*%
%TO.N,Z_~IPL2*%
X116750000Y-63370000D03*
%TO.P,J2,22*%
%TO.N,Z_~BERR*%
X116750000Y-65910000D03*
%TO.P,J2,21*%
%TO.N,Z_~VPA*%
X116750000Y-68450000D03*
%TO.P,J2,20*%
%TO.N,Z_E*%
X116750000Y-70990000D03*
%TO.P,J2,19*%
%TO.N,Z_~VMA*%
X116750000Y-73530000D03*
%TO.P,J2,18*%
%TO.N,Z_~RESET*%
X116750000Y-76070000D03*
%TO.P,J2,17*%
%TO.N,Z_~HALT*%
X116750000Y-78610000D03*
%TO.P,J2,16*%
%TO.N,GND*%
X116750000Y-81150000D03*
%TO.P,J2,15*%
%TO.N,Z_CLK*%
X116750000Y-83690000D03*
%TO.P,J2,14*%
%TO.N,VCC*%
X116750000Y-86230000D03*
%TO.P,J2,13*%
%TO.N,M_~BR*%
X116750000Y-88770000D03*
%TO.P,J2,12*%
%TO.N,M_~BGACK*%
X116750000Y-91310000D03*
%TO.P,J2,11*%
%TO.N,M_~BG*%
X116750000Y-93850000D03*
%TO.P,J2,10*%
%TO.N,M_~DTACK*%
X116750000Y-96390000D03*
%TO.P,J2,9*%
%TO.N,Z_R~W*%
X116750000Y-98930000D03*
%TO.P,J2,8*%
%TO.N,M_~LDS*%
X116750000Y-101470000D03*
%TO.P,J2,7*%
%TO.N,M_~UDS*%
X116750000Y-104010000D03*
%TO.P,J2,6*%
%TO.N,M_~AS*%
X116750000Y-106550000D03*
%TO.P,J2,5*%
%TO.N,Z_D0*%
X116750000Y-109090000D03*
%TO.P,J2,4*%
%TO.N,Z_D1*%
X116750000Y-111630000D03*
%TO.P,J2,3*%
%TO.N,Z_D2*%
X116750000Y-114170000D03*
%TO.P,J2,2*%
%TO.N,Z_D3*%
X116750000Y-116710000D03*
%TO.P,J2,1*%
%TO.N,Z_D4*%
X116750000Y-119250000D03*
%TD*%
D11*
%TO.P,Q1,1*%
%TO.N,Net-(Q1-Pad1)*%
X191540000Y-91930000D03*
D10*
%TO.P,Q1,14*%
%TO.N,VCC*%
X183920000Y-91930000D03*
%TO.P,Q1,8*%
%TO.N,Net-(Q1-Pad8)*%
X183920000Y-76690000D03*
%TO.P,Q1,7*%
%TO.N,GND*%
X191540000Y-76690000D03*
%TD*%
D11*
%TO.P,U14,1*%
%TO.N,Net-(U14-Pad1)*%
X214890000Y-121820000D03*
D12*
%TO.P,U14,21*%
%TO.N,6_D2*%
X199650000Y-73560000D03*
%TO.P,U14,2*%
%TO.N,Net-(U14-Pad2)*%
X214890000Y-119280000D03*
%TO.P,U14,22*%
%TO.N,6_D1*%
X199650000Y-76100000D03*
%TO.P,U14,3*%
%TO.N,Net-(U14-Pad3)*%
X214890000Y-116740000D03*
%TO.P,U14,23*%
%TO.N,6_D0*%
X199650000Y-78640000D03*
%TO.P,U14,4*%
%TO.N,Net-(U14-Pad4)*%
X214890000Y-114200000D03*
%TO.P,U14,24*%
%TO.N,6_PEREQ*%
X199650000Y-81180000D03*
%TO.P,U14,5*%
%TO.N,6_D15*%
X214890000Y-111660000D03*
%TO.P,U14,25*%
%TO.N,7_~BUSY*%
X199650000Y-83720000D03*
%TO.P,U14,6*%
%TO.N,6_D14*%
X214890000Y-109120000D03*
%TO.P,U14,26*%
%TO.N,7_~ERROR*%
X199650000Y-86260000D03*
%TO.P,U14,7*%
%TO.N,6_D13*%
X214890000Y-106580000D03*
%TO.P,U14,27*%
%TO.N,7_~NPRD*%
X199650000Y-88800000D03*
%TO.P,U14,8*%
%TO.N,6_D12*%
X214890000Y-104040000D03*
%TO.P,U14,28*%
%TO.N,7_~NPWR*%
X199650000Y-91340000D03*
%TO.P,U14,9*%
%TO.N,VCC*%
X214890000Y-101500000D03*
%TO.P,U14,29*%
%TO.N,Z_A1*%
X199650000Y-93880000D03*
%TO.P,U14,10*%
%TO.N,GND*%
X214890000Y-98960000D03*
%TO.P,U14,30*%
X199650000Y-96420000D03*
%TO.P,U14,11*%
%TO.N,6_D11*%
X214890000Y-96420000D03*
%TO.P,U14,31*%
%TO.N,Z_A2*%
X199650000Y-98960000D03*
%TO.P,U14,12*%
%TO.N,6_D10*%
X214890000Y-93880000D03*
%TO.P,U14,32*%
%TO.N,Net-(Q1-Pad8)*%
X199650000Y-101500000D03*
%TO.P,U14,13*%
%TO.N,Net-(U14-Pad13)*%
X214890000Y-91340000D03*
%TO.P,U14,33*%
%TO.N,7_NPS2*%
X199650000Y-104040000D03*
%TO.P,U14,14*%
%TO.N,6_D9*%
X214890000Y-88800000D03*
%TO.P,U14,34*%
%TO.N,7_~NPS1*%
X199650000Y-106580000D03*
%TO.P,U14,15*%
%TO.N,6_D8*%
X214890000Y-86260000D03*
%TO.P,U14,35*%
%TO.N,7_RESET*%
X199650000Y-109120000D03*
%TO.P,U14,16*%
%TO.N,6_D7*%
X214890000Y-83720000D03*
%TO.P,U14,36*%
%TO.N,6_~PEACK*%
X199650000Y-111660000D03*
%TO.P,U14,17*%
%TO.N,6_D6*%
X214890000Y-81180000D03*
%TO.P,U14,37*%
%TO.N,Net-(U14-Pad37)*%
X199650000Y-114200000D03*
%TO.P,U14,18*%
%TO.N,6_D5*%
X214890000Y-78640000D03*
%TO.P,U14,38*%
%TO.N,Net-(U14-Pad38)*%
X199650000Y-116740000D03*
%TO.P,U14,19*%
%TO.N,6_D4*%
X214890000Y-76100000D03*
%TO.P,U14,39*%
%TO.N,GND*%
X199650000Y-119280000D03*
%TO.P,U14,20*%
%TO.N,6_D3*%
X214890000Y-73560000D03*
%TO.P,U14,40*%
%TO.N,Net-(U14-Pad40)*%
X199650000Y-121820000D03*
%TD*%
%TO.P,U22,20*%
%TO.N,VCC*%
X149920000Y-92660000D03*
%TO.P,U22,10*%
%TO.N,GND*%
X172780000Y-100280000D03*
%TO.P,U22,19*%
%TO.N,7_NPS2*%
X152460000Y-92660000D03*
%TO.P,U22,9*%
%TO.N,Z_A1*%
X170240000Y-100280000D03*
%TO.P,U22,18*%
%TO.N,Z_D4*%
X155000000Y-92660000D03*
%TO.P,U22,8*%
%TO.N,Z_R~W*%
X167700000Y-100280000D03*
%TO.P,U22,17*%
%TO.N,6_D1*%
X157540000Y-92660000D03*
%TO.P,U22,7*%
%TO.N,P19*%
X165160000Y-100280000D03*
%TO.P,U22,16*%
%TO.N,6_D0*%
X160080000Y-92660000D03*
%TO.P,U22,6*%
%TO.N,P61*%
X162620000Y-100280000D03*
%TO.P,U22,15*%
%TO.N,Net-(U22-Pad15)*%
X162620000Y-92660000D03*
%TO.P,U22,5*%
%TO.N,Z_~VPA*%
X160080000Y-100280000D03*
%TO.P,U22,14*%
%TO.N,P53*%
X165160000Y-92660000D03*
%TO.P,U22,4*%
%TO.N,Z_A15*%
X157540000Y-100280000D03*
%TO.P,U22,13*%
%TO.N,P47*%
X167700000Y-92660000D03*
%TO.P,U22,3*%
%TO.N,Z_A7*%
X155000000Y-100280000D03*
%TO.P,U22,12*%
%TO.N,CLK*%
X170240000Y-92660000D03*
%TO.P,U22,2*%
%TO.N,Z_A6*%
X152460000Y-100280000D03*
%TO.P,U22,11*%
%TO.N,P53*%
X172780000Y-92660000D03*
D11*
%TO.P,U22,1*%
%TO.N,P45*%
X149920000Y-100280000D03*
%TD*%
%TO.P,U44,1*%
%TO.N,P29*%
X98870000Y-63380000D03*
D12*
%TO.P,U44,11*%
%TO.N,Z_~BGACK*%
X106490000Y-86240000D03*
%TO.P,U44,2*%
%TO.N,Z_A3*%
X98870000Y-65920000D03*
%TO.P,U44,12*%
%TO.N,7_~NPS1*%
X106490000Y-83700000D03*
%TO.P,U44,3*%
%TO.N,Z_R~W*%
X98870000Y-68460000D03*
%TO.P,U44,13*%
%TO.N,7_~NPWR*%
X106490000Y-81160000D03*
%TO.P,U44,4*%
%TO.N,Z_A5*%
X98870000Y-71000000D03*
%TO.P,U44,14*%
%TO.N,7_~NPRD*%
X106490000Y-78620000D03*
%TO.P,U44,5*%
%TO.N,Z_A6*%
X98870000Y-73540000D03*
%TO.P,U44,15*%
%TO.N,M_~BGACK*%
X106490000Y-76080000D03*
%TO.P,U44,6*%
%TO.N,Z_A7*%
X98870000Y-76080000D03*
%TO.P,U44,16*%
%TO.N,M_~BR*%
X106490000Y-73540000D03*
%TO.P,U44,7*%
%TO.N,Z_A8*%
X98870000Y-78620000D03*
%TO.P,U44,17*%
%TO.N,P46*%
X106490000Y-71000000D03*
%TO.P,U44,8*%
%TO.N,Z_A9*%
X98870000Y-81160000D03*
%TO.P,U44,18*%
%TO.N,Z_~BR*%
X106490000Y-68460000D03*
%TO.P,U44,9*%
%TO.N,P9*%
X98870000Y-83700000D03*
%TO.P,U44,19*%
%TO.N,Net-(U37-Pad2)*%
X106490000Y-65920000D03*
%TO.P,U44,10*%
%TO.N,GND*%
X98870000Y-86240000D03*
%TO.P,U44,20*%
%TO.N,VCC*%
X106490000Y-63380000D03*
%TD*%
%TO.P,U31,20*%
%TO.N,GND*%
X215070000Y-40360000D03*
%TO.P,U31,10*%
%TO.N,VCC*%
X207450000Y-63220000D03*
%TO.P,U31,19*%
%TO.N,6_D7*%
X215070000Y-42900000D03*
%TO.P,U31,9*%
%TO.N,Net-(R34-Pad1)*%
X207450000Y-60680000D03*
%TO.P,U31,18*%
%TO.N,6_D6*%
X215070000Y-45440000D03*
%TO.P,U31,8*%
%TO.N,Net-(R33-Pad1)*%
X207450000Y-58140000D03*
%TO.P,U31,17*%
%TO.N,Net-(R312-Pad2)*%
X215070000Y-47980000D03*
%TO.P,U31,7*%
%TO.N,Net-(R32-Pad1)*%
X207450000Y-55600000D03*
%TO.P,U31,16*%
%TO.N,GND*%
X215070000Y-50520000D03*
%TO.P,U31,6*%
%TO.N,Net-(R31-Pad1)*%
X207450000Y-53060000D03*
%TO.P,U31,15*%
%TO.N,Net-(R39-Pad2)*%
X215070000Y-53060000D03*
%TO.P,U31,5*%
%TO.N,Net-(U31-Pad5)*%
X207450000Y-50520000D03*
%TO.P,U31,14*%
%TO.N,Net-(R38-Pad2)*%
X215070000Y-55600000D03*
%TO.P,U31,4*%
%TO.N,Net-(R311-Pad2)*%
X207450000Y-47980000D03*
%TO.P,U31,13*%
%TO.N,Net-(R37-Pad2)*%
X215070000Y-58140000D03*
%TO.P,U31,3*%
%TO.N,Z_R~W*%
X207450000Y-45440000D03*
%TO.P,U31,12*%
%TO.N,Net-(R36-Pad2)*%
X215070000Y-60680000D03*
%TO.P,U31,2*%
%TO.N,6_D5*%
X207450000Y-42900000D03*
%TO.P,U31,11*%
%TO.N,Net-(R35-Pad2)*%
X215070000Y-63220000D03*
D11*
%TO.P,U31,1*%
%TO.N,6_D4*%
X207450000Y-40360000D03*
%TD*%
%TO.P,U32,1*%
%TO.N,6_D0*%
X197230000Y-40360000D03*
D12*
%TO.P,U32,11*%
%TO.N,Net-(R35-Pad2)*%
X204850000Y-63220000D03*
%TO.P,U32,2*%
%TO.N,6_D1*%
X197230000Y-42900000D03*
%TO.P,U32,12*%
%TO.N,Net-(R36-Pad2)*%
X204850000Y-60680000D03*
%TO.P,U32,3*%
%TO.N,Z_R~W*%
X197230000Y-45440000D03*
%TO.P,U32,13*%
%TO.N,Net-(R37-Pad2)*%
X204850000Y-58140000D03*
%TO.P,U32,4*%
%TO.N,Net-(R311-Pad2)*%
X197230000Y-47980000D03*
%TO.P,U32,14*%
%TO.N,Net-(R38-Pad2)*%
X204850000Y-55600000D03*
%TO.P,U32,5*%
%TO.N,Net-(U32-Pad5)*%
X197230000Y-50520000D03*
%TO.P,U32,15*%
%TO.N,Net-(R39-Pad2)*%
X204850000Y-53060000D03*
%TO.P,U32,6*%
%TO.N,Net-(R31-Pad1)*%
X197230000Y-53060000D03*
%TO.P,U32,16*%
%TO.N,GND*%
X204850000Y-50520000D03*
%TO.P,U32,7*%
%TO.N,Net-(R32-Pad1)*%
X197230000Y-55600000D03*
%TO.P,U32,17*%
%TO.N,Net-(R312-Pad2)*%
X204850000Y-47980000D03*
%TO.P,U32,8*%
%TO.N,Net-(R33-Pad1)*%
X197230000Y-58140000D03*
%TO.P,U32,18*%
%TO.N,6_D2*%
X204850000Y-45440000D03*
%TO.P,U32,9*%
%TO.N,Net-(R34-Pad1)*%
X197230000Y-60680000D03*
%TO.P,U32,19*%
%TO.N,6_D3*%
X204850000Y-42900000D03*
%TO.P,U32,10*%
%TO.N,VCC*%
X197230000Y-63220000D03*
%TO.P,U32,20*%
%TO.N,GND*%
X204850000Y-40360000D03*
%TD*%
D11*
%TO.P,U33,1*%
%TO.N,6_D12*%
X187060000Y-40360000D03*
D12*
%TO.P,U33,11*%
%TO.N,Net-(R35-Pad2)*%
X194680000Y-63220000D03*
%TO.P,U33,2*%
%TO.N,6_D13*%
X187060000Y-42900000D03*
%TO.P,U33,12*%
%TO.N,Net-(R36-Pad2)*%
X194680000Y-60680000D03*
%TO.P,U33,3*%
%TO.N,Z_R~W*%
X187060000Y-45440000D03*
%TO.P,U33,13*%
%TO.N,Net-(R37-Pad2)*%
X194680000Y-58140000D03*
%TO.P,U33,4*%
%TO.N,Net-(R311-Pad2)*%
X187060000Y-47980000D03*
%TO.P,U33,14*%
%TO.N,Net-(R38-Pad2)*%
X194680000Y-55600000D03*
%TO.P,U33,5*%
%TO.N,Net-(U33-Pad5)*%
X187060000Y-50520000D03*
%TO.P,U33,15*%
%TO.N,Net-(R39-Pad2)*%
X194680000Y-53060000D03*
%TO.P,U33,6*%
%TO.N,Net-(R31-Pad1)*%
X187060000Y-53060000D03*
%TO.P,U33,16*%
%TO.N,GND*%
X194680000Y-50520000D03*
%TO.P,U33,7*%
%TO.N,Net-(R32-Pad1)*%
X187060000Y-55600000D03*
%TO.P,U33,17*%
%TO.N,Net-(R313-Pad2)*%
X194680000Y-47980000D03*
%TO.P,U33,8*%
%TO.N,Net-(R33-Pad1)*%
X187060000Y-58140000D03*
%TO.P,U33,18*%
%TO.N,6_D14*%
X194680000Y-45440000D03*
%TO.P,U33,9*%
%TO.N,Net-(R34-Pad1)*%
X187060000Y-60680000D03*
%TO.P,U33,19*%
%TO.N,6_D15*%
X194680000Y-42900000D03*
%TO.P,U33,10*%
%TO.N,VCC*%
X187060000Y-63220000D03*
%TO.P,U33,20*%
%TO.N,GND*%
X194680000Y-40360000D03*
%TD*%
%TO.P,U34,20*%
%TO.N,GND*%
X184450000Y-40360000D03*
%TO.P,U34,10*%
%TO.N,VCC*%
X176830000Y-63220000D03*
%TO.P,U34,19*%
%TO.N,6_D11*%
X184450000Y-42900000D03*
%TO.P,U34,9*%
%TO.N,Net-(R34-Pad1)*%
X176830000Y-60680000D03*
%TO.P,U34,18*%
%TO.N,6_D10*%
X184450000Y-45440000D03*
%TO.P,U34,8*%
%TO.N,Net-(R33-Pad1)*%
X176830000Y-58140000D03*
%TO.P,U34,17*%
%TO.N,Net-(R313-Pad2)*%
X184450000Y-47980000D03*
%TO.P,U34,7*%
%TO.N,Net-(R32-Pad1)*%
X176830000Y-55600000D03*
%TO.P,U34,16*%
%TO.N,GND*%
X184450000Y-50520000D03*
%TO.P,U34,6*%
%TO.N,Net-(R31-Pad1)*%
X176830000Y-53060000D03*
%TO.P,U34,15*%
%TO.N,Net-(R39-Pad2)*%
X184450000Y-53060000D03*
%TO.P,U34,5*%
%TO.N,Net-(U34-Pad5)*%
X176830000Y-50520000D03*
%TO.P,U34,14*%
%TO.N,Net-(R38-Pad2)*%
X184450000Y-55600000D03*
%TO.P,U34,4*%
%TO.N,Net-(R311-Pad2)*%
X176830000Y-47980000D03*
%TO.P,U34,13*%
%TO.N,Net-(R37-Pad2)*%
X184450000Y-58140000D03*
%TO.P,U34,3*%
%TO.N,Z_R~W*%
X176830000Y-45440000D03*
%TO.P,U34,12*%
%TO.N,Net-(R36-Pad2)*%
X184450000Y-60680000D03*
%TO.P,U34,2*%
%TO.N,6_D9*%
X176830000Y-42900000D03*
%TO.P,U34,11*%
%TO.N,Net-(R35-Pad2)*%
X184450000Y-63220000D03*
D11*
%TO.P,U34,1*%
%TO.N,6_D8*%
X176830000Y-40360000D03*
%TD*%
D13*
%TO.N,VCC*%
X151900000Y-66510000D03*
X160790000Y-86150000D03*
X144240000Y-106020000D03*
X147460000Y-119940000D03*
X143190000Y-133200000D03*
X171560000Y-119940000D03*
X94440000Y-130150000D03*
X102970000Y-139100000D03*
X102890000Y-112920000D03*
X121770000Y-100940000D03*
X124590000Y-101620000D03*
X124420000Y-112280000D03*
X121840000Y-114910000D03*
X103320000Y-100330000D03*
X87520000Y-43680000D03*
X106580000Y-48050000D03*
X124470000Y-45710000D03*
X130570000Y-81800000D03*
X130700000Y-122624990D03*
X136100000Y-125830000D03*
X123490000Y-136695000D03*
X139970000Y-120110000D03*
X142309171Y-103899470D03*
X146080000Y-92880000D03*
X142900000Y-86300000D03*
X142910000Y-73450000D03*
X130720000Y-63980000D03*
X150060000Y-44200000D03*
X159650000Y-46175000D03*
X151760000Y-60570000D03*
X157800000Y-60540000D03*
X175440000Y-89290000D03*
X196480000Y-97900000D03*
X190630000Y-105110000D03*
X184500000Y-105330000D03*
X184460000Y-130075000D03*
X180420000Y-125050000D03*
X181740000Y-116950000D03*
X184370000Y-117320000D03*
X208700000Y-130750000D03*
X208490000Y-102120000D03*
X210590000Y-81800000D03*
%TO.N,GND*%
X167840000Y-75950000D03*
X144260000Y-65890000D03*
X158260000Y-86190000D03*
X159680000Y-107850000D03*
X159420000Y-132110000D03*
X91790000Y-132749999D03*
X102060000Y-131560000D03*
X121880000Y-104140000D03*
X121790000Y-111650000D03*
X132060000Y-113700000D03*
X133340000Y-102810000D03*
X124670000Y-93280000D03*
X87520000Y-46185000D03*
X106810000Y-49310000D03*
X105780000Y-43770000D03*
X121890000Y-48080000D03*
X105320000Y-56920000D03*
X124730000Y-75390000D03*
X128380000Y-79260000D03*
X128240000Y-61460000D03*
X135910000Y-51530000D03*
X128190000Y-120030000D03*
X124770000Y-134080000D03*
X143320000Y-116910000D03*
X142830000Y-98910000D03*
X146070000Y-98840000D03*
X142910000Y-70350000D03*
X148430000Y-53090000D03*
X147590000Y-40400000D03*
X150190000Y-46500000D03*
X157100000Y-48690000D03*
X171050000Y-52270001D03*
X181860000Y-67740000D03*
X192130000Y-67740000D03*
X202390000Y-67740000D03*
X212590000Y-67780000D03*
X188170000Y-95720000D03*
X181880000Y-107690000D03*
X192110000Y-106770000D03*
X181680000Y-119965000D03*
X188070000Y-117330000D03*
X192000000Y-118740000D03*
X192030000Y-131450000D03*
X206030000Y-130760000D03*
X207420000Y-98670000D03*
%TO.N,Z_D4*%
X119520000Y-93720000D03*
%TO.N,Z_D3*%
X112330000Y-90270000D03*
X120740000Y-87780000D03*
X110600000Y-117350000D03*
%TO.N,Z_D1*%
X112360000Y-111930000D03*
X105140000Y-85220000D03*
X120810000Y-85180000D03*
X106024999Y-132154999D03*
X112279999Y-132150000D03*
%TO.N,Z_D0*%
X113085000Y-108500000D03*
X112250000Y-83960000D03*
X120400000Y-82650000D03*
X113980000Y-129724990D03*
%TO.N,Z_~AS*%
X96930000Y-135320000D03*
X110500000Y-135110002D03*
%TO.N,Z_~UDS*%
X105110000Y-124644990D03*
%TO.N,Z_R~W*%
X167210000Y-140730000D03*
X113050000Y-134460000D03*
X100790000Y-102640000D03*
X114830000Y-100950000D03*
X158670000Y-96180000D03*
X188110000Y-94500000D03*
X167610000Y-95425021D03*
X100520000Y-119470000D03*
X112890000Y-119500000D03*
%TO.N,Z_~DTACK*%
X97450000Y-117430000D03*
%TO.N,Z_~BG*%
X108000000Y-107770000D03*
X133180000Y-110280000D03*
%TO.N,Z_~BGACK*%
X125460000Y-113160000D03*
X102900000Y-106910000D03*
X103800000Y-87770000D03*
%TO.N,Z_~BR*%
X105130000Y-108560000D03*
X102920000Y-69050000D03*
%TO.N,Z_CLK*%
X110240000Y-110280000D03*
X160800000Y-110210000D03*
X162420000Y-131470000D03*
X188370000Y-130620000D03*
X114870000Y-94510000D03*
X110590000Y-94530000D03*
X107150000Y-104335000D03*
%TO.N,Z_~RESET*%
X170735000Y-124250000D03*
X122500000Y-121310000D03*
X119480000Y-123020000D03*
X106750000Y-121760000D03*
X118630000Y-95340000D03*
%TO.N,Z_~VMA*%
X111510000Y-73355000D03*
%TO.N,Z_E*%
X111030000Y-71210000D03*
%TO.N,Z_~VPA*%
X134450000Y-92830000D03*
X124570002Y-90690000D03*
X119090000Y-81860000D03*
X135685010Y-99610000D03*
%TO.N,Z_~BERR*%
X108000000Y-69920000D03*
%TO.N,Z_~IPL2*%
X160340000Y-119160000D03*
X128400000Y-117920000D03*
X129370000Y-90740000D03*
X126360000Y-79200000D03*
X128890000Y-63960000D03*
X125785010Y-85650000D03*
X126110000Y-90700000D03*
%TO.N,Z_~IPL1*%
X113650000Y-81410000D03*
X125850000Y-107670000D03*
X119150000Y-80560000D03*
X117779997Y-107700003D03*
%TO.N,Z_~IPL0*%
X97420000Y-83090000D03*
X97380000Y-110580000D03*
X104990000Y-110580000D03*
X105015000Y-123060000D03*
X117370000Y-123860000D03*
X114440000Y-78610000D03*
%TO.N,Z_FC1*%
X140350000Y-89050000D03*
X120770000Y-73310000D03*
X118250000Y-72900000D03*
X125249998Y-88610000D03*
%TO.N,Z_FC0*%
X113550000Y-70370000D03*
X114110000Y-50770000D03*
%TO.N,Z_A1*%
X143300000Y-112730000D03*
X152730000Y-111520000D03*
X152730000Y-108020000D03*
X192270000Y-99570000D03*
X192280000Y-94020000D03*
X193980000Y-68590000D03*
X128100000Y-47430000D03*
X149790000Y-48220000D03*
X126479990Y-64830010D03*
%TO.N,Z_A2*%
X202980000Y-51110000D03*
X150130000Y-51670000D03*
X130230000Y-50975000D03*
X118270000Y-50380000D03*
X120420000Y-57160000D03*
X113160000Y-57170000D03*
%TO.N,Z_A3*%
X119610000Y-52480000D03*
X99570000Y-58460000D03*
X119610000Y-58410000D03*
X137450000Y-58850000D03*
X137450000Y-51680000D03*
X144230000Y-52010000D03*
%TO.N,Z_A4*%
X119070000Y-61850000D03*
X134570000Y-40995000D03*
X142150000Y-41000000D03*
%TO.N,Z_A5*%
X110680000Y-41050000D03*
X130700000Y-45275000D03*
X120360000Y-72020000D03*
X97180002Y-67010000D03*
%TO.N,Z_A6*%
X151890000Y-89860000D03*
X151870000Y-84780000D03*
X149310000Y-72840000D03*
X134490000Y-72840000D03*
X125475000Y-71632347D03*
X121730000Y-53320000D03*
X109770000Y-58780000D03*
X124630000Y-49120000D03*
X129740000Y-49130000D03*
%TO.N,Z_A7*%
X154410000Y-94560000D03*
X134460000Y-71570000D03*
X126472786Y-71565000D03*
X136585032Y-94560000D03*
%TO.N,Z_A8*%
X160850000Y-51180000D03*
X96575010Y-69110000D03*
X137934990Y-49855000D03*
%TO.N,Z_A9*%
X95300000Y-71630000D03*
X125785000Y-80950000D03*
X100825000Y-79670000D03*
X99535000Y-117450000D03*
X107620000Y-117450000D03*
X115600000Y-139130000D03*
X127080000Y-139140000D03*
X165790000Y-137410000D03*
X216120000Y-120790000D03*
X216570000Y-40970000D03*
X164660000Y-50870000D03*
X127450001Y-80920000D03*
%TO.N,Z_A10*%
X88530000Y-56420000D03*
X139940000Y-73700000D03*
X140360000Y-49500000D03*
X153660000Y-46900000D03*
X165130000Y-46900000D03*
%TO.N,Z_A11*%
X168920000Y-56230000D03*
X153620000Y-54560000D03*
X92290000Y-44910000D03*
X174420000Y-39190000D03*
X174410000Y-49880000D03*
X169790000Y-49870000D03*
%TO.N,Z_A12*%
X84670000Y-58490000D03*
X122590000Y-51690000D03*
X149790000Y-49920000D03*
X167680000Y-49910000D03*
X167690000Y-48210000D03*
X169350000Y-47780000D03*
X125040000Y-47905010D03*
%TO.N,Z_A13*%
X97530000Y-46630000D03*
X148070000Y-43170000D03*
X166420000Y-42270000D03*
%TO.N,Z_A14*%
X107690000Y-61030000D03*
X109790000Y-39790000D03*
X144260000Y-38910000D03*
%TO.N,Z_A15*%
X85060000Y-100120000D03*
X101250000Y-62220000D03*
X101250000Y-57190000D03*
X106800000Y-53350000D03*
X120850000Y-39780000D03*
X157470000Y-39250000D03*
%TO.N,Z_A16*%
X153960000Y-108920000D03*
X139920000Y-108110000D03*
X139910000Y-104710000D03*
X88470000Y-103570000D03*
X94890000Y-52040000D03*
X100860000Y-53800000D03*
%TO.N,Z_A17*%
X159990000Y-89810000D03*
X160390000Y-84320000D03*
X154830000Y-71180000D03*
X112740000Y-69090000D03*
X113110000Y-75420000D03*
X94880000Y-77520000D03*
X100040000Y-72520000D03*
%TO.N,Z_A18*%
X164760000Y-113140000D03*
X133990000Y-115320000D03*
X134490000Y-105600000D03*
X115230000Y-106010000D03*
X115230000Y-102590000D03*
X129700000Y-102630000D03*
X106320000Y-102530000D03*
X105860000Y-92850000D03*
%TO.N,Z_A19*%
X167230000Y-103315000D03*
X152290000Y-102590000D03*
X149720000Y-97490000D03*
%TO.N,Z_A20*%
X168050000Y-111070000D03*
X141600000Y-108480000D03*
X141180000Y-98410000D03*
X95720000Y-96260000D03*
%TO.N,Z_A21*%
X164620000Y-123000000D03*
X87730000Y-89110000D03*
%TO.N,Z_A22*%
X170170000Y-109310000D03*
X94880000Y-105620000D03*
%TO.N,Z_A23*%
X172265000Y-102120000D03*
X156100000Y-102580000D03*
X154800000Y-95760000D03*
X89770000Y-94890000D03*
%TO.N,Z_D15*%
X120700000Y-134020000D03*
%TO.N,Z_D14*%
X84190000Y-97480000D03*
X87880000Y-138300000D03*
X119820000Y-138310000D03*
%TO.N,Z_D13*%
X120690000Y-129760000D03*
%TO.N,Z_D12*%
X95230000Y-122200000D03*
X124790000Y-127850000D03*
%TO.N,Z_D11*%
X95230000Y-123470000D03*
X120690000Y-127630000D03*
%TO.N,Z_D10*%
X96130000Y-126410000D03*
X121230000Y-117380000D03*
%TO.N,Z_D9*%
X88440000Y-129840000D03*
X119820000Y-130960000D03*
%TO.N,Z_D8*%
X122440000Y-118240000D03*
%TO.N,Z_D7*%
X118570000Y-96630000D03*
X120770000Y-96630000D03*
X115150000Y-132110000D03*
X117769999Y-132120001D03*
%TO.N,Z_D6*%
X119965000Y-92020000D03*
X90640000Y-92350000D03*
X90630000Y-112670000D03*
%TO.N,Z_D5*%
X97780000Y-120920000D03*
X99120000Y-90320000D03*
X119965000Y-90680000D03*
%TO.N,M_~BR*%
X107190000Y-87790000D03*
%TO.N,M_~BGACK*%
X115300000Y-72900000D03*
X105094999Y-72514999D03*
%TO.N,M_~BG*%
X121680000Y-94490000D03*
X128790000Y-101370000D03*
X131430000Y-102190000D03*
%TO.N,M_~DTACK*%
X127690000Y-136170000D03*
X113950000Y-128510000D03*
X98180000Y-130260000D03*
%TO.N,M_~LDS*%
X148490000Y-107345000D03*
X134800000Y-103890000D03*
X131430000Y-120020000D03*
X135270000Y-120020000D03*
X134760000Y-125550000D03*
X154380000Y-128050000D03*
X154380000Y-132587498D03*
X181600000Y-133990000D03*
X134910000Y-108060000D03*
X114790000Y-107260000D03*
X112360000Y-109840000D03*
X111780000Y-135290000D03*
X101150000Y-137390000D03*
%TO.N,M_~UDS*%
X157380000Y-107240000D03*
X185470000Y-106750000D03*
X190640000Y-106350000D03*
X91510000Y-39310000D03*
X101710000Y-105150000D03*
%TO.N,M_~AS*%
X149730000Y-108070000D03*
X120770000Y-106840000D03*
%TO.N,Net-(Q1-Pad8)*%
X152750000Y-62210000D03*
X184690000Y-66850000D03*
X185070000Y-100390000D03*
X197770000Y-133480000D03*
X183310000Y-133550000D03*
%TO.N,6_~S0*%
X168070000Y-80450000D03*
X139100000Y-87370000D03*
X140840000Y-112760000D03*
X131020000Y-112370000D03*
X153140000Y-90600000D03*
%TO.N,6_~S1*%
X176540000Y-100000000D03*
X162490000Y-97030000D03*
X143820000Y-100060000D03*
X142920000Y-109360000D03*
X129310000Y-108100000D03*
X163780000Y-99160000D03*
%TO.N,Net-(R15-Pad2)*%
X144130000Y-85610000D03*
X148540000Y-86030000D03*
%TO.N,7_~BUSY*%
X181230000Y-129310000D03*
X196620000Y-84300000D03*
X205510000Y-83720000D03*
X194130000Y-128880000D03*
%TO.N,Net-(R31-Pad1)*%
X157870000Y-52830000D03*
%TO.N,Net-(R31-Pad2)*%
X158300000Y-49530000D03*
X153600000Y-49530000D03*
%TO.N,Net-(R32-Pad2)*%
X163390000Y-56310000D03*
X151050000Y-54160000D03*
%TO.N,Net-(R32-Pad1)*%
X166710000Y-57085000D03*
%TO.N,Net-(R33-Pad2)*%
X147660000Y-58040000D03*
X169800000Y-60540000D03*
%TO.N,Net-(R35-Pad2)*%
X189340000Y-38820000D03*
X142180000Y-39320000D03*
%TO.N,Net-(R36-Pad1)*%
X112810000Y-55000000D03*
X122520000Y-54690000D03*
%TO.N,Net-(R36-Pad2)*%
X128880000Y-57130000D03*
%TO.N,Net-(R37-Pad2)*%
X181240000Y-57120000D03*
X180840000Y-40930000D03*
X101260000Y-45750000D03*
%TO.N,Net-(R38-Pad2)*%
X152360000Y-54540000D03*
X149800000Y-60500000D03*
X105120000Y-55050000D03*
%TO.N,Net-(R39-Pad2)*%
X182100000Y-54550000D03*
X144730000Y-54550000D03*
X143400000Y-61410000D03*
X134500000Y-61420000D03*
X182100006Y-52850006D03*
%TO.N,Net-(R39-Pad1)*%
X128500000Y-60130000D03*
X104670000Y-59760000D03*
X103840000Y-82650000D03*
X100070000Y-82650000D03*
X98670000Y-119190000D03*
X130265000Y-117380000D03*
%TO.N,M2*%
X145070000Y-134095001D03*
X138550000Y-132720000D03*
X120740000Y-122980000D03*
X128940000Y-81920000D03*
X120770000Y-81420000D03*
%TO.N,P65*%
X176130000Y-118670000D03*
X177420000Y-121240000D03*
X165460000Y-116120000D03*
X123330000Y-115760000D03*
%TO.N,6_RESET*%
X154880000Y-62150000D03*
X160030000Y-62150000D03*
X143410000Y-120120000D03*
X182940000Y-125070000D03*
X182940000Y-121710000D03*
X170220000Y-62180000D03*
X171480000Y-57930000D03*
X161210000Y-57080000D03*
%TO.N,7_RESET*%
X202550000Y-109250000D03*
%TO.N,P46*%
X162920000Y-125100000D03*
X128810000Y-123350000D03*
X126210000Y-140890000D03*
X88000000Y-140910000D03*
X90180000Y-70370000D03*
%TO.N,P9*%
X146800000Y-102120000D03*
X98290000Y-99290000D03*
%TO.N,6_PEREQ*%
X159520000Y-81790000D03*
X203410000Y-81180000D03*
%TO.N,P48*%
X165850000Y-126700000D03*
X188920000Y-125840000D03*
%TO.N,Net-(R312-Pad2)*%
X205080000Y-73630000D03*
X211010000Y-73620000D03*
X213420000Y-138610000D03*
X162940000Y-137390000D03*
%TO.N,Net-(R313-Pad2)*%
X197435000Y-86800000D03*
X205520000Y-89740000D03*
X202930000Y-139890000D03*
X161970000Y-140390000D03*
%TO.N,6_~BHE*%
X180770000Y-88110000D03*
X180010000Y-108870000D03*
X171460000Y-109320000D03*
X168900000Y-113150000D03*
X147620000Y-114030000D03*
X170544990Y-88110000D03*
%TO.N,6_~PEACK*%
X177440000Y-95425021D03*
%TO.N,6_A23*%
X175710000Y-80460000D03*
X183370000Y-80460000D03*
X182490000Y-101690000D03*
X176500000Y-101690000D03*
X176580000Y-111470000D03*
X176110000Y-117000000D03*
X184220000Y-118710000D03*
%TO.N,6_A22*%
X177860000Y-100010000D03*
X183350000Y-100010000D03*
X186320000Y-101290000D03*
X192300000Y-101680000D03*
X191460000Y-117350000D03*
X185490000Y-118690000D03*
X172310000Y-114420000D03*
%TO.N,6_M\u005C~IO*%
X167610000Y-86480000D03*
X205070000Y-88550000D03*
X206280000Y-122930000D03*
X176070000Y-122110000D03*
X168910000Y-121730000D03*
X128005034Y-121281544D03*
%TO.N,6_COD\u005C~INTA*%
X168040000Y-90200000D03*
X198310000Y-97840000D03*
X196940000Y-136050000D03*
X164665000Y-136595306D03*
%TO.N,6_HDLA*%
X165900000Y-78370000D03*
X162890000Y-78370000D03*
X163825522Y-66102088D03*
X161700000Y-60530000D03*
X159640000Y-56310000D03*
X144670000Y-55880000D03*
X144190000Y-58390000D03*
X124650000Y-55500000D03*
X178270000Y-78370000D03*
X178730000Y-104670000D03*
X202960000Y-110630000D03*
X202870000Y-127080000D03*
X179870000Y-128400000D03*
%TO.N,6_HOLD*%
X163310000Y-86310000D03*
X163780000Y-90220000D03*
X164110000Y-97040000D03*
X168900000Y-97050000D03*
X168460000Y-103440000D03*
X157000000Y-110170000D03*
%TO.N,6_~READY*%
X163720000Y-101310000D03*
X151050000Y-108080000D03*
%TO.N,6_A21*%
X176140000Y-113570000D03*
X190200000Y-113120000D03*
%TO.N,6_A20*%
X172310000Y-73230000D03*
X184670000Y-73230000D03*
%TO.N,6_A19*%
X172270000Y-71530000D03*
X190200000Y-71520000D03*
X190640000Y-101250000D03*
X196530000Y-102120000D03*
X165930000Y-107210000D03*
X196410000Y-106440000D03*
X185530000Y-112290000D03*
%TO.N,6_A18*%
X166670004Y-90120000D03*
X165120000Y-85660000D03*
%TO.N,6_A17*%
X162100000Y-86339998D03*
X160780000Y-91060000D03*
%TO.N,6_A16*%
X172780000Y-75360000D03*
X164250000Y-81340000D03*
X164330004Y-75800000D03*
X156540000Y-90640000D03*
%TO.N,6_A15*%
X171460000Y-59250000D03*
X173600000Y-56230000D03*
X173180000Y-46050000D03*
X162090000Y-46090000D03*
%TO.N,6_A14*%
X169790000Y-63880000D03*
X159550000Y-59680000D03*
%TO.N,6_A13*%
X171010000Y-61000000D03*
X174790000Y-60560000D03*
%TO.N,6_A7*%
X161290000Y-62180000D03*
X139470000Y-59090000D03*
%TO.N,6_A6*%
X156180000Y-60510000D03*
X131970000Y-56700000D03*
%TO.N,6_A5*%
X157424269Y-66112550D03*
X138710000Y-63480000D03*
%TO.N,6_A4*%
X154010000Y-56700000D03*
X133980000Y-55479998D03*
%TO.N,6_A3*%
X148150000Y-66920000D03*
X129750000Y-66920000D03*
%TO.N,6_A2*%
X150630000Y-66070000D03*
X135740000Y-63510000D03*
X135740000Y-55440000D03*
X132410000Y-51755021D03*
%TO.N,6_A1*%
X147650000Y-62220000D03*
X126400000Y-60570000D03*
%TO.N,6_A0*%
X142980000Y-52890000D03*
X127280000Y-51700000D03*
%TO.N,6_D0*%
X161670000Y-82570000D03*
X191930000Y-83030000D03*
X192310000Y-79170000D03*
X147210000Y-115260000D03*
X136060000Y-115340000D03*
X159540000Y-115295000D03*
X159540000Y-110170000D03*
X171010000Y-103490000D03*
X172300000Y-83860000D03*
%TO.N,6_D8*%
X148170000Y-69050000D03*
X136990000Y-69060000D03*
X178210000Y-69490000D03*
X180430000Y-85110000D03*
X180030000Y-105560000D03*
X176130000Y-105470000D03*
%TO.N,6_D1*%
X142580000Y-46950000D03*
X195760000Y-43940000D03*
X198270000Y-92680000D03*
X195640000Y-135220000D03*
X130800229Y-125516660D03*
X143330000Y-124670000D03*
X129894990Y-134030000D03*
%TO.N,6_D9*%
X138660000Y-81770000D03*
X134480000Y-82220000D03*
X137030000Y-65690000D03*
X142590000Y-45670000D03*
X180820000Y-83450000D03*
X212739359Y-82480456D03*
X176050000Y-124220000D03*
X209750000Y-124270000D03*
X209750000Y-88900000D03*
X139095010Y-65679995D03*
%TO.N,6_D2*%
X149350000Y-68590000D03*
X174380000Y-69020000D03*
X174400000Y-67300000D03*
X199570000Y-65980000D03*
X179130000Y-103410000D03*
X156090000Y-108060000D03*
X156910000Y-128880000D03*
X134390000Y-128940000D03*
X147150000Y-128880000D03*
X124474979Y-65730000D03*
%TO.N,6_D10*%
X141200000Y-82220000D03*
X141670000Y-77970000D03*
X191050000Y-79210000D03*
X191050000Y-86840000D03*
X192320000Y-69450000D03*
X194020000Y-67260000D03*
X192750000Y-45170000D03*
X212700000Y-97790000D03*
X177440000Y-114450000D03*
X130895000Y-86870000D03*
%TO.N,6_D3*%
X148030000Y-74520000D03*
X163790000Y-71100000D03*
X165970000Y-66120002D03*
X143260000Y-135730000D03*
X208460000Y-69470000D03*
X128070000Y-73730000D03*
X212590000Y-114340000D03*
X212570000Y-121970000D03*
%TO.N,6_D11*%
X142510000Y-80510000D03*
X130170000Y-85620000D03*
X143790000Y-75830000D03*
X141640000Y-75830000D03*
X141270000Y-42650000D03*
X203400000Y-41760000D03*
X203370000Y-95680000D03*
X213900000Y-118030000D03*
X172280000Y-125050000D03*
%TO.N,6_D4*%
X144220000Y-77110000D03*
X126790000Y-73700000D03*
X208050000Y-74820000D03*
X210200000Y-74820000D03*
X207150000Y-132640000D03*
X134320000Y-131910000D03*
X148050000Y-123800000D03*
%TO.N,6_D12*%
X144240000Y-80960000D03*
X154880000Y-80950000D03*
X155300000Y-77110000D03*
X189310000Y-75320000D03*
X189350000Y-73210000D03*
X214900000Y-71900000D03*
X130630000Y-89410000D03*
%TO.N,6_D5*%
X148127928Y-81779763D03*
X155760000Y-79230000D03*
X155700000Y-75360000D03*
X160840000Y-75360000D03*
X162960000Y-83450000D03*
X125510000Y-74590000D03*
X195324696Y-83451005D03*
X195320000Y-77430000D03*
X209400000Y-76170000D03*
X205170000Y-79990000D03*
X203420000Y-97430000D03*
X204630000Y-111840000D03*
X204630000Y-125810000D03*
X194780000Y-131840000D03*
X190195530Y-117866571D03*
X167990000Y-116570000D03*
X167990000Y-125900000D03*
X140780000Y-127170000D03*
X140670000Y-135720000D03*
X131820000Y-135730000D03*
X147170000Y-125900000D03*
%TO.N,6_D13*%
X142480000Y-81800000D03*
X152710000Y-80050000D03*
X152710000Y-73210000D03*
X181710000Y-72390000D03*
X211910000Y-71465010D03*
X134460000Y-86080000D03*
%TO.N,6_D6*%
X140420000Y-77540000D03*
X134460000Y-75840000D03*
X165510000Y-76260000D03*
X165520000Y-71090000D03*
X214490000Y-70750000D03*
%TO.N,6_D14*%
X150170000Y-77510000D03*
X187670000Y-77920000D03*
X188590000Y-45620000D03*
X187670000Y-86830000D03*
X141200000Y-91590000D03*
X134560000Y-91590000D03*
%TO.N,6_D7*%
X149760000Y-83090000D03*
X149760000Y-79660000D03*
X210600000Y-83880000D03*
X211840000Y-139510000D03*
X140340000Y-137410000D03*
X136950000Y-79660000D03*
X137880000Y-99210000D03*
X139960000Y-99210000D03*
%TO.N,6_D15*%
X150980000Y-75820000D03*
X194910000Y-74930000D03*
X144680000Y-91150000D03*
X134020000Y-94550000D03*
%TO.N,6_~BUSY*%
X156620000Y-71130000D03*
X211870000Y-69785000D03*
X180390000Y-121270000D03*
X212665000Y-77010000D03*
%TO.N,6_INTR*%
X156150000Y-94100000D03*
X174780000Y-94975010D03*
%TO.N,7_~NPRD*%
X112290000Y-80450000D03*
X113175000Y-88469999D03*
X188090000Y-92370000D03*
X188090000Y-88860000D03*
%TO.N,7_~NPWR*%
X107560000Y-62280000D03*
X148940000Y-61850000D03*
X153600000Y-48270000D03*
X181660000Y-48630000D03*
X182550000Y-69460000D03*
X186825010Y-69480000D03*
X186825010Y-91100000D03*
%TO.N,7_NPS2*%
X170560000Y-126310000D03*
X199090000Y-125130000D03*
X152380000Y-97930000D03*
%TO.N,7_~NPS1*%
X148370000Y-136610000D03*
X99460000Y-121760000D03*
X107170000Y-94100000D03*
X200340000Y-134390000D03*
X149230000Y-132710000D03*
X100824990Y-94100000D03*
%TO.N,P61*%
X169760000Y-115350000D03*
X185860000Y-110540000D03*
X177420000Y-112750000D03*
X175660000Y-98780000D03*
%TO.N,P30*%
X147170000Y-130590000D03*
X196520000Y-126350000D03*
X196510000Y-113060000D03*
X188490000Y-112200000D03*
%TO.N,P71*%
X176090000Y-110170000D03*
X187700000Y-110160000D03*
%TO.N,Net-(U15-Pad8)*%
X124670000Y-91960000D03*
X125980000Y-86890000D03*
X138245000Y-78010000D03*
X130170000Y-92370000D03*
X136935000Y-122143771D03*
X160350000Y-122070000D03*
X160350000Y-127630000D03*
X196530000Y-127620000D03*
X196990000Y-105040000D03*
X192270000Y-105040000D03*
X139570000Y-41830000D03*
X103010000Y-42760000D03*
%TO.N,GCLK*%
X140400000Y-83950000D03*
X153980000Y-83950000D03*
X153990000Y-68620000D03*
X159590000Y-67770000D03*
X159600000Y-66120002D03*
X172730000Y-66910000D03*
X163400000Y-40120000D03*
X145600000Y-41000000D03*
X145440000Y-105970000D03*
X132704999Y-106905001D03*
%TO.N,P19*%
X142090000Y-112780000D03*
X151410000Y-111070000D03*
X151410000Y-114050000D03*
X193990000Y-119520000D03*
X193640000Y-99610000D03*
X181620000Y-98790000D03*
X185500000Y-65600000D03*
X190220000Y-65590000D03*
X190220000Y-40490000D03*
X154430000Y-40990000D03*
X154060000Y-52430000D03*
X125202264Y-51958754D03*
X177390000Y-98780000D03*
X177390000Y-97020000D03*
X165420000Y-96200000D03*
%TO.N,P45*%
X159500000Y-116570000D03*
X136510000Y-103020000D03*
X149740000Y-102080000D03*
X148500000Y-89860000D03*
X135670000Y-88200000D03*
X136440000Y-116620000D03*
%TO.N,P53*%
X173570000Y-105910000D03*
X163760000Y-108070000D03*
X158705020Y-83450000D03*
X157820000Y-71550000D03*
X127650000Y-70300000D03*
X127650000Y-64020000D03*
X124474979Y-63980000D03*
%TO.N,CLK*%
X168430000Y-129750000D03*
X159030000Y-129750000D03*
X162080000Y-109320000D03*
X171470000Y-108040000D03*
X173870000Y-91740000D03*
%TO.N,P47*%
X164490000Y-132680000D03*
X192300000Y-130090000D03*
X194850000Y-103340000D03*
X172310000Y-96600000D03*
X170520000Y-96600000D03*
X172990000Y-103310000D03*
%TO.N,LDC*%
X133510000Y-97890000D03*
X128470000Y-96710000D03*
X127610000Y-83900000D03*
X130640000Y-83070000D03*
%TO.N,P67*%
X178720000Y-114820000D03*
X193180000Y-114810000D03*
%TO.N,P27*%
X147170001Y-127170000D03*
X191440000Y-126300000D03*
%TO.N,Net-(U37-Pad2)*%
X111030000Y-66990000D03*
X113560000Y-76710000D03*
X124200000Y-76720000D03*
X128485000Y-95340000D03*
X124210000Y-95330000D03*
%TO.N,P24*%
X139530000Y-112780000D03*
X133120000Y-112780000D03*
%TO.N,P29*%
X138190000Y-130630000D03*
X134400000Y-78020000D03*
X101260000Y-76030000D03*
X101270000Y-63520000D03*
X142880000Y-130644990D03*
%TO.N,P42*%
X158180000Y-131820000D03*
X125600000Y-124194979D03*
%TO.N,Net-(U43-Pad4)*%
X125860000Y-117520000D03*
X189305010Y-122920000D03*
%TO.N,Net-(U42-Pad1)*%
X104090000Y-131970000D03*
X126650000Y-133020000D03*
%TD*%
D14*
%TO.N,Z_D4*%
X122890000Y-93720000D02*
X119520000Y-93720000D01*
X155000000Y-92660000D02*
X155250000Y-92910000D01*
X155250000Y-92910000D02*
X155250000Y-94660000D01*
X155250000Y-94660000D02*
X155700000Y-95110000D01*
X155700000Y-95110000D02*
X155700000Y-96320000D01*
X155700000Y-96320000D02*
X155440000Y-96580000D01*
X123250010Y-94490010D02*
X123110000Y-94350000D01*
X155440000Y-96580000D02*
X133190000Y-96580000D01*
X133190000Y-96580000D02*
X132740000Y-96130000D01*
X132740000Y-96130000D02*
X132740000Y-94720000D01*
X123110000Y-94350000D02*
X123110000Y-93940000D01*
X132740000Y-94720000D02*
X132510010Y-94490010D01*
X123110000Y-93940000D02*
X122890000Y-93720000D01*
X132510010Y-94490010D02*
X123250010Y-94490010D01*
%TO.N,Z_D3*%
X112330000Y-90270000D02*
X112330000Y-88090000D01*
X120704999Y-87744999D02*
X120740000Y-87780000D01*
X112675001Y-87744999D02*
X120704999Y-87744999D01*
X112330000Y-88090000D02*
X112675001Y-87744999D01*
X110610000Y-117360000D02*
X110600000Y-117350000D01*
X116100000Y-117360000D02*
X110610000Y-117360000D01*
X116750000Y-116710000D02*
X116100000Y-117360000D01*
%TO.N,Z_D1*%
X116750000Y-111630000D02*
X116750000Y-111640000D01*
X116460000Y-111930000D02*
X112360000Y-111930000D01*
X116750000Y-111640000D02*
X116460000Y-111930000D01*
X109370000Y-132310000D02*
X109020000Y-131960000D01*
X109020000Y-131960000D02*
X109020000Y-131980000D01*
X109020000Y-131980000D02*
X108680000Y-132320000D01*
X105180000Y-85180000D02*
X120810000Y-85180000D01*
X105140000Y-85220000D02*
X105180000Y-85180000D01*
X108825001Y-132154999D02*
X109020000Y-131960000D01*
X106024999Y-132154999D02*
X108825001Y-132154999D01*
X112259999Y-132170000D02*
X112279999Y-132150000D01*
X109230000Y-132170000D02*
X112259999Y-132170000D01*
X109020000Y-131960000D02*
X109230000Y-132170000D01*
%TO.N,Z_D0*%
X116750000Y-109090000D02*
X116750000Y-109070000D01*
X116180000Y-108500000D02*
X113085000Y-108500000D01*
X116750000Y-109070000D02*
X116180000Y-108500000D01*
X112250000Y-83960000D02*
X112250000Y-83165011D01*
X112765011Y-82650000D02*
X120400000Y-82650000D01*
X112250000Y-83165011D02*
X112765011Y-82650000D01*
X113914990Y-129790000D02*
X113980000Y-129724990D01*
X109390000Y-129790000D02*
X113914990Y-129790000D01*
X109020000Y-129420000D02*
X109390000Y-129790000D01*
%TO.N,Z_~AS*%
X96930000Y-135320000D02*
X97159999Y-135549999D01*
X97159999Y-135549999D02*
X110060003Y-135549999D01*
X110060003Y-135549999D02*
X110500000Y-135110002D01*
%TO.N,Z_~UDS*%
X105414990Y-124340000D02*
X105110000Y-124644990D01*
X109020000Y-124340000D02*
X105414990Y-124340000D01*
%TO.N,Z_R~W*%
X167210000Y-140730000D02*
X166690000Y-141250000D01*
X166690000Y-141250000D02*
X140240000Y-141250000D01*
X140240000Y-141250000D02*
X139760000Y-140770000D01*
X139760000Y-137903002D02*
X139276998Y-137420000D01*
X139760000Y-140770000D02*
X139760000Y-137903002D01*
X139276998Y-137420000D02*
X113620000Y-137420000D01*
X113050000Y-136850000D02*
X113050000Y-134460000D01*
X113620000Y-137420000D02*
X113050000Y-136850000D01*
X100790000Y-102640000D02*
X104990000Y-102640000D01*
X104990000Y-102640000D02*
X105610000Y-102020000D01*
X105610000Y-102020000D02*
X105610000Y-100910000D01*
X105610000Y-100910000D02*
X106100000Y-100420000D01*
X114300000Y-100420000D02*
X114830000Y-100950000D01*
X106100000Y-100420000D02*
X114300000Y-100420000D01*
X176830000Y-45440000D02*
X176830000Y-45920000D01*
X206424999Y-46465001D02*
X207450000Y-45440000D01*
X176830000Y-45440000D02*
X177855001Y-46465001D01*
X197230000Y-46460002D02*
X197234999Y-46465001D01*
X197230000Y-45440000D02*
X197230000Y-46460002D01*
X197234999Y-46465001D02*
X206424999Y-46465001D01*
X187060000Y-46460002D02*
X187055001Y-46465001D01*
X187060000Y-45440000D02*
X187060000Y-46460002D01*
X177855001Y-46465001D02*
X187055001Y-46465001D01*
X158794979Y-95425021D02*
X167610000Y-95425021D01*
X158670000Y-95550000D02*
X158794979Y-95425021D01*
X158670000Y-96180000D02*
X158670000Y-95550000D01*
X167919999Y-95735020D02*
X167610000Y-95425021D01*
X175864980Y-95735020D02*
X167919999Y-95735020D01*
X176899989Y-94700011D02*
X175864980Y-95735020D01*
X183656400Y-94700011D02*
X176899989Y-94700011D01*
X183856411Y-94500000D02*
X183656400Y-94700011D01*
X188110000Y-94500000D02*
X183856411Y-94500000D01*
X100610000Y-119560000D02*
X100520000Y-119470000D01*
X108720000Y-119560000D02*
X100610000Y-119560000D01*
X109020000Y-119260000D02*
X108720000Y-119560000D01*
X112870000Y-119520000D02*
X112890000Y-119500000D01*
X109280000Y-119520000D02*
X112870000Y-119520000D01*
X109020000Y-119260000D02*
X109280000Y-119520000D01*
X194286400Y-46470011D02*
X194291410Y-46465001D01*
X187055001Y-46465001D02*
X187060011Y-46470011D01*
X187060011Y-46470011D02*
X194286400Y-46470011D01*
X194291410Y-46465001D02*
X197234999Y-46465001D01*
%TO.N,Z_~DTACK*%
X109020000Y-116720000D02*
X97640000Y-116720000D01*
X97450000Y-116910000D02*
X97450000Y-117430000D01*
X97640000Y-116720000D02*
X97450000Y-116910000D01*
%TO.N,Z_~BG*%
X108000000Y-107770000D02*
X111110000Y-107770000D01*
X111110000Y-107770000D02*
X111610000Y-108270000D01*
X111610000Y-108270000D02*
X111610000Y-110410000D01*
X132889990Y-110570010D02*
X133180000Y-110280000D01*
X111770010Y-110570010D02*
X132889990Y-110570010D01*
X111610000Y-110410000D02*
X111770010Y-110570010D01*
%TO.N,Z_~BGACK*%
X109020000Y-111640000D02*
X108530000Y-111150000D01*
X108530000Y-111150000D02*
X108530000Y-110400000D01*
X108530000Y-110400000D02*
X108530000Y-110230000D01*
X108530000Y-110230000D02*
X107990000Y-109690000D01*
X107990000Y-109690000D02*
X103390000Y-109690000D01*
X102900000Y-109200000D02*
X102900000Y-106910000D01*
X103390000Y-109690000D02*
X102900000Y-109200000D01*
X125444999Y-113144999D02*
X125460000Y-113160000D01*
X110144999Y-113144999D02*
X125444999Y-113144999D01*
X109820000Y-112820000D02*
X110144999Y-113144999D01*
X109820000Y-112440000D02*
X109820000Y-112820000D01*
X109020000Y-111640000D02*
X109820000Y-112440000D01*
X106490000Y-87290000D02*
X106490000Y-86240000D01*
X106010000Y-87770000D02*
X106490000Y-87290000D01*
X103800000Y-87770000D02*
X106010000Y-87770000D01*
%TO.N,Z_~BR*%
X109020000Y-109100000D02*
X108460000Y-108540000D01*
X108460000Y-108540000D02*
X108440000Y-108560000D01*
X108440000Y-108560000D02*
X105130000Y-108560000D01*
X105900000Y-69050000D02*
X106490000Y-68460000D01*
X102920000Y-69050000D02*
X105900000Y-69050000D01*
%TO.N,Z_CLK*%
X110240000Y-110280000D02*
X110240000Y-112190000D01*
X110240000Y-112190000D02*
X110744989Y-112694989D01*
X110744989Y-112694989D02*
X122785011Y-112694989D01*
X122785011Y-112694989D02*
X123090000Y-112390000D01*
X123090000Y-112390000D02*
X123090000Y-111410000D01*
X133123002Y-111410000D02*
X133483022Y-111049980D01*
X123090000Y-111410000D02*
X133123002Y-111410000D01*
X133483022Y-111049980D02*
X150320020Y-111049980D01*
X150320020Y-111049980D02*
X150550000Y-110820000D01*
X150550000Y-110420000D02*
X150659980Y-110310020D01*
X150550000Y-110820000D02*
X150550000Y-110420000D01*
X150659980Y-110310020D02*
X155120020Y-110310020D01*
X155120020Y-110310020D02*
X155520000Y-110710000D01*
X155520000Y-110710000D02*
X155520000Y-111480000D01*
X155520000Y-111480000D02*
X155990000Y-111950000D01*
X155990000Y-111950000D02*
X168470000Y-111950000D01*
X168470000Y-111950000D02*
X168830000Y-111590000D01*
X168830000Y-111590000D02*
X168830000Y-110530000D01*
X168510000Y-110210000D02*
X160800000Y-110210000D01*
X168830000Y-110530000D02*
X168510000Y-110210000D01*
X187920010Y-131069990D02*
X188370000Y-130620000D01*
X162820010Y-131069990D02*
X187920010Y-131069990D01*
X162420000Y-131470000D02*
X162820010Y-131069990D01*
X110610000Y-94510000D02*
X110590000Y-94530000D01*
X114870000Y-94510000D02*
X110610000Y-94510000D01*
X108705000Y-104335000D02*
X109020000Y-104020000D01*
X107150000Y-104335000D02*
X108705000Y-104335000D01*
%TO.N,Z_~RESET*%
X170735000Y-124250000D02*
X170735000Y-121215000D01*
X170735000Y-121215000D02*
X169949990Y-120429990D01*
X169949990Y-120429990D02*
X159779990Y-120429990D01*
X159779990Y-120429990D02*
X159430000Y-120080000D01*
X159430000Y-119370000D02*
X159200010Y-119140010D01*
X159430000Y-120080000D02*
X159430000Y-119370000D01*
X159200010Y-119140010D02*
X127819990Y-119140010D01*
X127819990Y-119140010D02*
X127430000Y-119530000D01*
X127430000Y-119530000D02*
X127430000Y-120840000D01*
X126960000Y-121310000D02*
X122500000Y-121310000D01*
X127430000Y-120840000D02*
X126960000Y-121310000D01*
X109030000Y-96550000D02*
X110200000Y-95380000D01*
X110240000Y-95340000D02*
X118630000Y-95340000D01*
X110200000Y-95380000D02*
X110240000Y-95340000D01*
X106750000Y-122410000D02*
X106750000Y-121760000D01*
X107170000Y-122830000D02*
X106750000Y-122410000D01*
X119290000Y-122830000D02*
X107170000Y-122830000D01*
X119480000Y-123020000D02*
X119290000Y-122830000D01*
%TO.N,Z_~VMA*%
X111510000Y-73355000D02*
X111784990Y-73629990D01*
X116650010Y-73629990D02*
X116750000Y-73530000D01*
X111784990Y-73629990D02*
X116650010Y-73629990D01*
%TO.N,Z_E*%
X116530000Y-71210000D02*
X116750000Y-70990000D01*
X111030000Y-71210000D02*
X116530000Y-71210000D01*
%TO.N,Z_~VPA*%
X125360002Y-91480000D02*
X124570002Y-90690000D01*
X133110000Y-91480000D02*
X125360002Y-91480000D01*
X134050001Y-92420001D02*
X133110000Y-91480000D01*
X134050001Y-92430001D02*
X134050001Y-92420001D01*
X134450000Y-92830000D02*
X134050001Y-92430001D01*
X135685010Y-100375010D02*
X135685010Y-99610000D01*
X136164991Y-100854991D02*
X135685010Y-100375010D01*
X148435009Y-100854991D02*
X136164991Y-100854991D01*
X148800010Y-100489990D02*
X148435009Y-100854991D01*
X148800010Y-99409990D02*
X148800010Y-100489990D01*
X149405011Y-98804989D02*
X148800010Y-99409990D01*
X159734989Y-98804989D02*
X149405011Y-98804989D01*
X160080000Y-99150000D02*
X159734989Y-98804989D01*
X160080000Y-100280000D02*
X160080000Y-99150000D01*
X103530000Y-88780000D02*
X109020000Y-88780000D01*
X103030000Y-88280000D02*
X103530000Y-88780000D01*
X103030000Y-83860000D02*
X103030000Y-88280000D01*
X103360000Y-83530000D02*
X103030000Y-83860000D01*
X104820000Y-83530000D02*
X103360000Y-83530000D01*
X106150000Y-82200000D02*
X104820000Y-83530000D01*
X119090000Y-81870000D02*
X118760000Y-82200000D01*
X118760000Y-82200000D02*
X106150000Y-82200000D01*
X119090000Y-81860000D02*
X119090000Y-81870000D01*
%TO.N,Z_~BERR*%
X108000000Y-69920000D02*
X111570000Y-69920000D01*
X111570000Y-69920000D02*
X111890000Y-69600000D01*
X111890000Y-69600000D02*
X111890000Y-66670000D01*
X112650000Y-65910000D02*
X116750000Y-65910000D01*
X111890000Y-66670000D02*
X112650000Y-65910000D01*
%TO.N,Z_~IPL2*%
X160340000Y-119160000D02*
X159870000Y-118690000D01*
X159870000Y-118690000D02*
X128510000Y-118690000D01*
X128400000Y-118580000D02*
X128400000Y-117920000D01*
X128510000Y-118690000D02*
X128400000Y-118580000D01*
X125470000Y-83490000D02*
X126650000Y-83490000D01*
X126650000Y-83490000D02*
X127430000Y-82710000D01*
X127430000Y-82710000D02*
X129530000Y-82710000D01*
X129530000Y-82710000D02*
X129840000Y-82400000D01*
X129840000Y-82400000D02*
X129840000Y-80510000D01*
X129840000Y-80510000D02*
X129410000Y-80080000D01*
X129410000Y-80080000D02*
X126540000Y-80080000D01*
X126360000Y-79900000D02*
X126360000Y-79200000D01*
X126540000Y-80080000D02*
X126360000Y-79900000D01*
X109670000Y-83700000D02*
X109020000Y-83700000D01*
X109940000Y-83970000D02*
X109670000Y-83700000D01*
X109940000Y-84370000D02*
X109940000Y-83970000D01*
X110285001Y-84715001D02*
X109940000Y-84370000D01*
X119684999Y-84715001D02*
X110285001Y-84715001D01*
X120120000Y-84280000D02*
X119684999Y-84715001D01*
X120120000Y-83790000D02*
X120120000Y-84280000D01*
X120420000Y-83490000D02*
X120120000Y-83790000D01*
X125470000Y-83490000D02*
X120420000Y-83490000D01*
X125470000Y-83490000D02*
X125470000Y-85334990D01*
X125470000Y-85334990D02*
X125785010Y-85650000D01*
X126150000Y-90740000D02*
X126110000Y-90700000D01*
X129370000Y-90740000D02*
X126150000Y-90740000D01*
X116990000Y-63130000D02*
X116750000Y-63370000D01*
X128680000Y-63130000D02*
X116990000Y-63130000D01*
X128930000Y-63380000D02*
X128680000Y-63130000D01*
X128930000Y-63920000D02*
X128930000Y-63380000D01*
X128890000Y-63960000D02*
X128930000Y-63920000D01*
%TO.N,Z_~IPL1*%
X109020000Y-81160000D02*
X109040000Y-81160000D01*
X109290000Y-81410000D02*
X113650000Y-81410000D01*
X109040000Y-81160000D02*
X109290000Y-81410000D01*
X118710000Y-80120000D02*
X119150000Y-80560000D01*
X115920000Y-80120000D02*
X118710000Y-80120000D01*
X115460000Y-80580000D02*
X115920000Y-80120000D01*
X115460000Y-81090000D02*
X115460000Y-80580000D01*
X115140000Y-81410000D02*
X115460000Y-81090000D01*
X113650000Y-81410000D02*
X115140000Y-81410000D01*
X117810000Y-107670000D02*
X117779997Y-107700003D01*
X125850000Y-107670000D02*
X117810000Y-107670000D01*
%TO.N,Z_~IPL0*%
X109020000Y-78620000D02*
X108860000Y-78620000D01*
X108860000Y-78620000D02*
X108580000Y-78340000D01*
X108580000Y-77980000D02*
X108160010Y-77560010D01*
X108580000Y-78340000D02*
X108580000Y-77980000D01*
X108160010Y-77560010D02*
X97939990Y-77560010D01*
X97939990Y-77560010D02*
X97590000Y-77910000D01*
X97590000Y-82920000D02*
X97420000Y-83090000D01*
X97590000Y-77910000D02*
X97590000Y-82920000D01*
X97380000Y-110580000D02*
X104990000Y-110580000D01*
X116790010Y-123280010D02*
X117370000Y-123860000D01*
X105235010Y-123280010D02*
X116790010Y-123280010D01*
X105015000Y-123060000D02*
X105235010Y-123280010D01*
X114430000Y-78620000D02*
X114440000Y-78610000D01*
X109020000Y-78620000D02*
X114430000Y-78620000D01*
%TO.N,Z_FC1*%
X118660000Y-73310000D02*
X118250000Y-72900000D01*
X120770000Y-73310000D02*
X118660000Y-73310000D01*
X109560000Y-74080000D02*
X109020000Y-73540000D01*
X115782998Y-74080000D02*
X109560000Y-74080000D01*
X116257999Y-74555001D02*
X115782998Y-74080000D01*
X117242001Y-74555001D02*
X116257999Y-74555001D01*
X117297002Y-74500000D02*
X117242001Y-74555001D01*
X117950000Y-74500000D02*
X117297002Y-74500000D01*
X118250000Y-74200000D02*
X117950000Y-74500000D01*
X118250000Y-72900000D02*
X118250000Y-74200000D01*
X140350000Y-89050000D02*
X135230000Y-89050000D01*
X135230000Y-89050000D02*
X134790000Y-88610000D01*
X134790000Y-88610000D02*
X125249998Y-88610000D01*
%TO.N,Z_FC0*%
X109650000Y-70370000D02*
X113550000Y-70370000D01*
X109020000Y-71000000D02*
X109650000Y-70370000D01*
X116650000Y-50770000D02*
X116750000Y-50670000D01*
X114110000Y-50770000D02*
X116650000Y-50770000D01*
%TO.N,Z_A1*%
X143300000Y-112730000D02*
X143300000Y-112120000D01*
X143300000Y-112120000D02*
X143470000Y-111950000D01*
X152300000Y-111950000D02*
X152730000Y-111520000D01*
X143470000Y-111950000D02*
X152300000Y-111950000D01*
X152730000Y-108020000D02*
X152730000Y-104240000D01*
X152730000Y-104240000D02*
X152370000Y-103880000D01*
X152370000Y-103880000D02*
X151820000Y-103880000D01*
X151820000Y-103880000D02*
X151550000Y-103610000D01*
X151550000Y-103610000D02*
X151550000Y-102050000D01*
X151550000Y-102050000D02*
X151839990Y-101760010D01*
X151839990Y-101760010D02*
X162920010Y-101760010D01*
X163195001Y-102035001D02*
X169904999Y-102035001D01*
X162920010Y-101760010D02*
X163195001Y-102035001D01*
X169904999Y-102035001D02*
X170200000Y-101740000D01*
X170200000Y-100320000D02*
X170240000Y-100280000D01*
X170200000Y-101740000D02*
X170200000Y-100320000D01*
X170240000Y-100280000D02*
X171240000Y-100280000D01*
X171240000Y-100280000D02*
X171410000Y-100450000D01*
X171410000Y-100450000D02*
X171410000Y-101070000D01*
X171410000Y-101070000D02*
X171680000Y-101340000D01*
X171680000Y-101340000D02*
X175180000Y-101340000D01*
X175555001Y-100964999D02*
X183825001Y-100964999D01*
X175180000Y-101340000D02*
X175555001Y-100964999D01*
X183825001Y-100964999D02*
X184250000Y-100540000D01*
X184250000Y-100540000D02*
X184250000Y-99780000D01*
X184460000Y-99570000D02*
X192270000Y-99570000D01*
X184250000Y-99780000D02*
X184460000Y-99570000D01*
X199510000Y-94020000D02*
X199650000Y-93880000D01*
X192280000Y-94020000D02*
X199510000Y-94020000D01*
X193980000Y-68590000D02*
X181480000Y-68590000D01*
X181480000Y-68590000D02*
X181184999Y-68294999D01*
X181184999Y-68294999D02*
X162464999Y-68294999D01*
X162464999Y-68294999D02*
X162070000Y-67900000D01*
X162070000Y-67900000D02*
X162070000Y-67400000D01*
X162070000Y-67400000D02*
X161690000Y-67020000D01*
X161690000Y-67020000D02*
X158600000Y-67020000D01*
X158600000Y-67020000D02*
X158300010Y-67319990D01*
X150280010Y-67319990D02*
X149800000Y-66839980D01*
X158300010Y-67319990D02*
X150280010Y-67319990D01*
X149800000Y-65380000D02*
X149250010Y-64830010D01*
X149800000Y-66839980D02*
X149800000Y-65380000D01*
X149250010Y-64830010D02*
X126479990Y-64830010D01*
X128100000Y-47430000D02*
X128510000Y-47840000D01*
X149410000Y-47840000D02*
X149790000Y-48220000D01*
X128510000Y-47840000D02*
X149410000Y-47840000D01*
X109020000Y-68600000D02*
X109030000Y-68610000D01*
X109020000Y-68460000D02*
X109020000Y-68600000D01*
X117700000Y-47180000D02*
X116750000Y-48130000D01*
X127850000Y-47180000D02*
X117700000Y-47180000D01*
X128100000Y-47430000D02*
X127850000Y-47180000D01*
X105400000Y-65460000D02*
X105400000Y-66750000D01*
X126479990Y-64830010D02*
X126430000Y-64880000D01*
X126430000Y-64880000D02*
X105980000Y-64880000D01*
X105980000Y-64880000D02*
X105400000Y-65460000D01*
X105400000Y-66750000D02*
X106084999Y-67434999D01*
X106084999Y-67434999D02*
X107994999Y-67434999D01*
X107994999Y-67434999D02*
X109020000Y-68460000D01*
%TO.N,Z_A2*%
X202544999Y-51545001D02*
X170295001Y-51545001D01*
X202980000Y-51110000D02*
X202544999Y-51545001D01*
X170295001Y-51545001D02*
X169870002Y-51970000D01*
X169870002Y-51970000D02*
X159570000Y-51970000D01*
X159270000Y-51670000D02*
X150130000Y-51670000D01*
X159570000Y-51970000D02*
X159270000Y-51670000D01*
X130625000Y-50580000D02*
X130230000Y-50975000D01*
X138340000Y-50580000D02*
X130625000Y-50580000D01*
X139020000Y-51260000D02*
X138340000Y-50580000D01*
X150130000Y-51670000D02*
X149720000Y-51260000D01*
X149720000Y-51260000D02*
X139020000Y-51260000D01*
X130230000Y-50975000D02*
X123855000Y-50975000D01*
X123260000Y-50380000D02*
X118270000Y-50380000D01*
X123855000Y-50975000D02*
X123260000Y-50380000D01*
X123855000Y-50975000D02*
X123855000Y-56305000D01*
X123855000Y-56305000D02*
X123410000Y-56750000D01*
X120830000Y-56750000D02*
X120420000Y-57160000D01*
X123410000Y-56750000D02*
X120830000Y-56750000D01*
X113170000Y-57160000D02*
X113160000Y-57170000D01*
X120420000Y-57160000D02*
X113170000Y-57160000D01*
%TO.N,Z_A3*%
X107970010Y-64429990D02*
X100010010Y-64429990D01*
X109020000Y-63380000D02*
X107970010Y-64429990D01*
X100010010Y-64429990D02*
X99650000Y-64790000D01*
X99650000Y-64790000D02*
X99650000Y-65800000D01*
X99530000Y-65920000D02*
X98870000Y-65920000D01*
X99650000Y-65800000D02*
X99530000Y-65920000D01*
X119610000Y-52480000D02*
X119275011Y-52145011D01*
X119275011Y-52145011D02*
X103784989Y-52145011D01*
X103784989Y-52145011D02*
X103369980Y-52560020D01*
X103369980Y-52560020D02*
X103369980Y-54190020D01*
X103369980Y-54190020D02*
X103010000Y-54550000D01*
X103010000Y-54550000D02*
X100060000Y-54550000D01*
X99570000Y-55040000D02*
X99570000Y-58460000D01*
X100060000Y-54550000D02*
X99570000Y-55040000D01*
X119610000Y-58410000D02*
X119660000Y-58460000D01*
X137060000Y-58460000D02*
X137450000Y-58850000D01*
X119660000Y-58460000D02*
X137060000Y-58460000D01*
X137450000Y-51680000D02*
X137460000Y-51670000D01*
X137450000Y-51680000D02*
X137480010Y-51710010D01*
X143930010Y-51710010D02*
X144230000Y-52010000D01*
X137480010Y-51710010D02*
X143930010Y-51710010D01*
%TO.N,Z_A4*%
X119064999Y-61855001D02*
X119070000Y-61850000D01*
X110035001Y-61855001D02*
X119064999Y-61855001D01*
X109020000Y-60840000D02*
X110035001Y-61855001D01*
X116750000Y-40510000D02*
X116850010Y-40610010D01*
X116850010Y-40610010D02*
X134210010Y-40610010D01*
X134570000Y-40970000D02*
X134570000Y-40995000D01*
X134210010Y-40610010D02*
X134570000Y-40970000D01*
X142145000Y-40995000D02*
X142150000Y-41000000D01*
X134570000Y-40995000D02*
X142145000Y-40995000D01*
%TO.N,Z_A5*%
X93890000Y-40510000D02*
X93900000Y-40510000D01*
X93900000Y-40510000D02*
X94440000Y-41050000D01*
X94440000Y-41050000D02*
X102140000Y-41050000D01*
X102140000Y-41050000D02*
X110680000Y-41050000D01*
X115154999Y-44075001D02*
X130325001Y-44075001D01*
X114890000Y-44340000D02*
X115154999Y-44075001D01*
X114890000Y-44670000D02*
X114890000Y-44340000D01*
X130700000Y-44450000D02*
X130700000Y-45275000D01*
X114690000Y-44870000D02*
X114890000Y-44670000D01*
X130325001Y-44075001D02*
X130700000Y-44450000D01*
X102810000Y-44870000D02*
X114690000Y-44870000D01*
X102140000Y-44200000D02*
X102810000Y-44870000D01*
X102140000Y-41050000D02*
X102140000Y-44200000D01*
X98870000Y-71000000D02*
X98880000Y-71000000D01*
X98880000Y-71000000D02*
X99360000Y-71480000D01*
X120354999Y-72025001D02*
X120360000Y-72020000D01*
X105997999Y-72025001D02*
X120354999Y-72025001D01*
X105452998Y-71480000D02*
X105997999Y-72025001D01*
X99360000Y-71480000D02*
X105452998Y-71480000D01*
X97170002Y-67020000D02*
X97180002Y-67010000D01*
X93310000Y-67020000D02*
X97170002Y-67020000D01*
X92820000Y-66530000D02*
X93310000Y-67020000D01*
X92820000Y-61760000D02*
X92820000Y-66530000D01*
X92410000Y-61350000D02*
X92820000Y-61760000D01*
X86670000Y-61350000D02*
X92410000Y-61350000D01*
X86160000Y-60840000D02*
X86670000Y-61350000D01*
%TO.N,Z_A6*%
X151890000Y-84800000D02*
X151870000Y-84780000D01*
X151890000Y-89860000D02*
X151890000Y-84800000D01*
X149310000Y-72840000D02*
X148890000Y-72420000D01*
X134910000Y-72420000D02*
X134490000Y-72840000D01*
X148890000Y-72420000D02*
X134910000Y-72420000D01*
X134490000Y-72840000D02*
X133940000Y-72290000D01*
X126132653Y-72290000D02*
X125475000Y-71632347D01*
X133940000Y-72290000D02*
X126132653Y-72290000D01*
X86140000Y-62650000D02*
X86160000Y-62670000D01*
X85510000Y-62650000D02*
X86140000Y-62650000D01*
X86160000Y-62670000D02*
X86160000Y-63380000D01*
X85134999Y-62274999D02*
X85510000Y-62650000D01*
X85134999Y-59725001D02*
X85134999Y-62274999D01*
X85544999Y-59315001D02*
X85134999Y-59725001D01*
X103384999Y-59315001D02*
X85544999Y-59315001D01*
X103920000Y-58780000D02*
X103384999Y-59315001D01*
X121730000Y-53790000D02*
X121730000Y-53320000D01*
X121284999Y-54235001D02*
X121730000Y-53790000D01*
X104270000Y-54450000D02*
X104484999Y-54235001D01*
X104270000Y-58780000D02*
X104270000Y-54450000D01*
X109770000Y-58780000D02*
X104270000Y-58780000D01*
X104484999Y-54235001D02*
X121284999Y-54235001D01*
X104270000Y-58780000D02*
X103920000Y-58780000D01*
X129730000Y-49120000D02*
X129740000Y-49130000D01*
X124630000Y-49120000D02*
X129730000Y-49120000D01*
X98870000Y-73020000D02*
X98870000Y-73540000D01*
X98354999Y-72504999D02*
X98870000Y-73020000D01*
X85134999Y-71954999D02*
X85684999Y-72504999D01*
X85684999Y-72504999D02*
X98354999Y-72504999D01*
X86710000Y-67250000D02*
X85852998Y-67250000D01*
X87260000Y-66700000D02*
X86710000Y-67250000D01*
X85134999Y-67967999D02*
X85134999Y-71954999D01*
X87260000Y-64480000D02*
X87260000Y-66700000D01*
X85852998Y-67250000D02*
X85134999Y-67967999D01*
X86160000Y-63380000D02*
X87260000Y-64480000D01*
%TO.N,Z_A7*%
X126477786Y-71570000D02*
X126472786Y-71565000D01*
X134460000Y-71570000D02*
X126477786Y-71570000D01*
X85410000Y-65170000D02*
X86160000Y-65920000D01*
X84330000Y-65170000D02*
X85410000Y-65170000D01*
X83900000Y-64740000D02*
X84330000Y-65170000D01*
X83900000Y-47350000D02*
X83900000Y-64740000D01*
X84340000Y-46910000D02*
X83900000Y-47350000D01*
X93310000Y-46910000D02*
X84340000Y-46910000D01*
X93890000Y-46330000D02*
X93310000Y-46910000D01*
X93890000Y-45590000D02*
X93890000Y-46330000D01*
X98870000Y-75540000D02*
X98870000Y-76080000D01*
X98374999Y-75044999D02*
X98870000Y-75540000D01*
X84684989Y-74444989D02*
X85284999Y-75044999D01*
X84684989Y-66955011D02*
X84684989Y-74444989D01*
X85050000Y-66590000D02*
X84684989Y-66955011D01*
X85450000Y-66590000D02*
X85050000Y-66590000D01*
X85284999Y-75044999D02*
X98374999Y-75044999D01*
X86120000Y-65920000D02*
X85450000Y-66590000D01*
X86160000Y-65920000D02*
X86120000Y-65920000D01*
X154410000Y-94560000D02*
X136585032Y-94560000D01*
%TO.N,Z_A8*%
X87199990Y-69499990D02*
X96185020Y-69499990D01*
X96185020Y-69499990D02*
X96575010Y-69110000D01*
X86160000Y-68460000D02*
X87199990Y-69499990D01*
X160480000Y-50810000D02*
X160850000Y-51180000D01*
X139310000Y-50810000D02*
X160480000Y-50810000D01*
X139100000Y-50600000D02*
X139310000Y-50810000D01*
X93890000Y-48130000D02*
X93890000Y-47570000D01*
X115460000Y-47120000D02*
X115700000Y-47360000D01*
X115700000Y-47360000D02*
X115700000Y-49010000D01*
X105490000Y-47450000D02*
X105820000Y-47120000D01*
X105820000Y-47120000D02*
X115460000Y-47120000D01*
X124120000Y-49910000D02*
X138790000Y-49910000D01*
X115700000Y-49010000D02*
X116190000Y-49500000D01*
X93890000Y-47570000D02*
X94010000Y-47450000D01*
X94010000Y-47450000D02*
X105490000Y-47450000D01*
X116190000Y-49500000D02*
X123710000Y-49500000D01*
X123710000Y-49500000D02*
X124120000Y-49910000D01*
X139100000Y-50220000D02*
X139100000Y-50600000D01*
X138790000Y-49910000D02*
X139100000Y-50220000D01*
%TO.N,Z_A9*%
X86160000Y-71000000D02*
X86690000Y-71000000D01*
X86690000Y-71000000D02*
X86970000Y-71280000D01*
X86970000Y-71280000D02*
X86970000Y-71570000D01*
X94914999Y-72015001D02*
X95300000Y-71630000D01*
X87415001Y-72015001D02*
X94914999Y-72015001D01*
X86970000Y-71570000D02*
X87415001Y-72015001D01*
X125785000Y-80950000D02*
X125170000Y-80335000D01*
X125170000Y-80335000D02*
X125170000Y-80050000D01*
X124790000Y-79670000D02*
X100825000Y-79670000D01*
X125170000Y-80050000D02*
X124790000Y-79670000D01*
X99535000Y-117450000D02*
X107620000Y-117450000D01*
X127070000Y-139130000D02*
X127080000Y-139140000D01*
X115600000Y-139130000D02*
X127070000Y-139130000D01*
X165790000Y-137410000D02*
X211600000Y-137410000D01*
X211600000Y-137410000D02*
X211810000Y-137200000D01*
X211810000Y-137200000D02*
X211810000Y-121460000D01*
X212480000Y-120790000D02*
X216120000Y-120790000D01*
X211810000Y-121460000D02*
X212480000Y-120790000D01*
X216570000Y-40970000D02*
X216570000Y-48990000D01*
X216065001Y-49494999D02*
X175745001Y-49494999D01*
X216570000Y-48990000D02*
X216065001Y-49494999D01*
X175745001Y-49494999D02*
X175320000Y-49920000D01*
X175320000Y-49920000D02*
X175320000Y-50570000D01*
X175020000Y-50870000D02*
X164660000Y-50870000D01*
X175320000Y-50570000D02*
X175020000Y-50870000D01*
X125785000Y-80950000D02*
X127420001Y-80950000D01*
X127420001Y-80950000D02*
X127450001Y-80920000D01*
%TO.N,Z_A10*%
X88530000Y-56420000D02*
X88530000Y-53910000D01*
X88530000Y-53910000D02*
X89090000Y-53350000D01*
X93750000Y-53350000D02*
X93890000Y-53210000D01*
X89090000Y-53350000D02*
X93750000Y-53350000D01*
X86160000Y-73540000D02*
X86610000Y-73540000D01*
X86610000Y-73540000D02*
X86990000Y-73920000D01*
X86990000Y-73920000D02*
X86990000Y-74160000D01*
X87424989Y-74594989D02*
X115484989Y-74594989D01*
X86990000Y-74160000D02*
X87424989Y-74594989D01*
X115895011Y-75005011D02*
X123444989Y-75005011D01*
X115484989Y-74594989D02*
X115895011Y-75005011D01*
X123444989Y-75005011D02*
X123850000Y-74600000D01*
X123850000Y-74600000D02*
X123850000Y-73370000D01*
X123850000Y-73370000D02*
X124340000Y-72880000D01*
X124340000Y-72880000D02*
X133320000Y-72880000D01*
X133320000Y-72880000D02*
X133660000Y-73220000D01*
X133660000Y-73220000D02*
X133660000Y-73480000D01*
X133880000Y-73700000D02*
X139940000Y-73700000D01*
X133660000Y-73480000D02*
X133880000Y-73700000D01*
X140360000Y-49500000D02*
X140860000Y-49000000D01*
X140860000Y-49000000D02*
X152380000Y-49000000D01*
X152380000Y-49000000D02*
X152630000Y-48750000D01*
X152630000Y-48750000D02*
X152630000Y-47650000D01*
X152630000Y-47650000D02*
X152890000Y-47390000D01*
X152890000Y-47390000D02*
X153480000Y-47390000D01*
X153660000Y-47210000D02*
X153660000Y-46900000D01*
X153480000Y-47390000D02*
X153660000Y-47210000D01*
X153660000Y-46900000D02*
X165130000Y-46900000D01*
%TO.N,Z_A11*%
X168920000Y-56230000D02*
X168920000Y-55010000D01*
X168470000Y-54560000D02*
X153620000Y-54560000D01*
X168920000Y-55010000D02*
X168470000Y-54560000D01*
X188206401Y-38884989D02*
X174725011Y-38884989D01*
X188535010Y-39213598D02*
X188206401Y-38884989D01*
X188670000Y-39630000D02*
X188535011Y-39495011D01*
X190140000Y-39370000D02*
X189880000Y-39630000D01*
X174725011Y-38884989D02*
X174420000Y-39190000D01*
X188535011Y-39495011D02*
X188535010Y-39213598D01*
X190140000Y-38190000D02*
X190140000Y-39370000D01*
X92920010Y-37959990D02*
X189909990Y-37959990D01*
X189880000Y-39630000D02*
X188670000Y-39630000D01*
X189909990Y-37959990D02*
X190140000Y-38190000D01*
X92290000Y-38590000D02*
X92920010Y-37959990D01*
X92290000Y-44910000D02*
X92290000Y-38590000D01*
X169800000Y-49880000D02*
X169790000Y-49870000D01*
X174410000Y-49880000D02*
X169800000Y-49880000D01*
%TO.N,Z_A12*%
X93690000Y-58490000D02*
X93890000Y-58290000D01*
X84670000Y-58490000D02*
X87660000Y-58490000D01*
X87660000Y-58490000D02*
X87660000Y-50050000D01*
X87660000Y-58490000D02*
X93690000Y-58490000D01*
X87660000Y-50050000D02*
X88210000Y-49500000D01*
X88210000Y-49500000D02*
X105130000Y-49500000D01*
X105130000Y-49500000D02*
X105580000Y-49950000D01*
X105580000Y-49950000D02*
X105580000Y-51200000D01*
X106075001Y-51695001D02*
X122584999Y-51695001D01*
X122584999Y-51695001D02*
X122590000Y-51690000D01*
X105580000Y-51200000D02*
X106075001Y-51695001D01*
X149790000Y-49920000D02*
X150229990Y-50359990D01*
X150229990Y-50359990D02*
X163420010Y-50359990D01*
X163870000Y-49910000D02*
X167680000Y-49910000D01*
X163420010Y-50359990D02*
X163870000Y-49910000D01*
X167690000Y-48210000D02*
X169040000Y-48210000D01*
X169350000Y-47900000D02*
X169350000Y-47780000D01*
X169040000Y-48210000D02*
X169350000Y-47900000D01*
X139015009Y-48305009D02*
X125439999Y-48305009D01*
X139570000Y-50070000D02*
X139570000Y-48860000D01*
X139859990Y-50359990D02*
X139570000Y-50070000D01*
X149350010Y-50359990D02*
X139859990Y-50359990D01*
X149790000Y-49920000D02*
X149350010Y-50359990D01*
X139570000Y-48860000D02*
X139015009Y-48305009D01*
X125439999Y-48305009D02*
X125040000Y-47905010D01*
%TO.N,Z_A13*%
X97530000Y-46630000D02*
X141090000Y-46630000D01*
X141090000Y-46630000D02*
X141710000Y-46010000D01*
X141710000Y-46010000D02*
X141710000Y-44260000D01*
X141710000Y-44260000D02*
X142400000Y-43570000D01*
X147670000Y-43570000D02*
X148070000Y-43170000D01*
X142400000Y-43570000D02*
X147670000Y-43570000D01*
X166420000Y-42730000D02*
X166420000Y-42270000D01*
X166130000Y-43020000D02*
X166420000Y-42730000D01*
X148220000Y-43020000D02*
X166130000Y-43020000D01*
X148070000Y-43170000D02*
X148220000Y-43020000D01*
%TO.N,Z_A14*%
X107320000Y-61400000D02*
X107690000Y-61030000D01*
X95040000Y-61400000D02*
X107320000Y-61400000D01*
X94530000Y-61910000D02*
X95040000Y-61400000D01*
X94530000Y-63120000D02*
X94530000Y-61910000D01*
X94280000Y-63370000D02*
X94530000Y-63120000D01*
X93890000Y-63370000D02*
X94280000Y-63370000D01*
X143760000Y-38410000D02*
X144260000Y-38910000D01*
X110370000Y-38410000D02*
X143760000Y-38410000D01*
X109790000Y-38990000D02*
X110370000Y-38410000D01*
X109790000Y-39790000D02*
X109790000Y-38990000D01*
%TO.N,Z_A15*%
X156514999Y-99254999D02*
X151785001Y-99254999D01*
X157540000Y-100280000D02*
X156514999Y-99254999D01*
X151785001Y-99254999D02*
X151150000Y-99890000D01*
X151150000Y-101035002D02*
X150880001Y-101305001D01*
X150880001Y-101305001D02*
X132395001Y-101305001D01*
X151150000Y-99890000D02*
X151150000Y-101035002D01*
X132395001Y-101305001D02*
X131980000Y-100890000D01*
X131980000Y-100890000D02*
X131980000Y-100000000D01*
X131980000Y-100000000D02*
X131610000Y-99630000D01*
X131610000Y-99630000D02*
X117780000Y-99630000D01*
X117444999Y-99965001D02*
X104715001Y-99965001D01*
X117780000Y-99630000D02*
X117444999Y-99965001D01*
X104715001Y-99965001D02*
X104320000Y-99570000D01*
X104320000Y-98620000D02*
X104055009Y-98355009D01*
X104320000Y-99570000D02*
X104320000Y-98620000D01*
X104055009Y-98355009D02*
X95504991Y-98355009D01*
X95504991Y-98355009D02*
X95040000Y-98820000D01*
X95040000Y-98820000D02*
X95040000Y-99640000D01*
X94560000Y-100120000D02*
X85060000Y-100120000D01*
X95040000Y-99640000D02*
X94560000Y-100120000D01*
X101250000Y-57190000D02*
X103320000Y-57190000D01*
X103819990Y-56690010D02*
X103819990Y-53780010D01*
X103320000Y-57190000D02*
X103819990Y-56690010D01*
X104250000Y-53350000D02*
X106800000Y-53350000D01*
X103819990Y-53780010D02*
X104250000Y-53350000D01*
X120850000Y-39780000D02*
X121230000Y-40160000D01*
X121230000Y-40160000D02*
X146060000Y-40160000D01*
X146060000Y-40160000D02*
X146310000Y-39910000D01*
X146310000Y-39910000D02*
X146310000Y-39530000D01*
X146590000Y-39250000D02*
X157470000Y-39250000D01*
X146310000Y-39530000D02*
X146590000Y-39250000D01*
X97820000Y-62557499D02*
X98157499Y-62220000D01*
X97820000Y-64810000D02*
X97820000Y-62557499D01*
X98157499Y-62220000D02*
X101250000Y-62220000D01*
X97390000Y-65240000D02*
X97820000Y-64810000D01*
X94320000Y-65240000D02*
X97390000Y-65240000D01*
X93890000Y-65670000D02*
X94320000Y-65240000D01*
X93890000Y-65910000D02*
X93890000Y-65670000D01*
%TO.N,Z_A16*%
X153960000Y-108920000D02*
X147730000Y-108920000D01*
X147730000Y-108920000D02*
X147290000Y-108480000D01*
X147290000Y-108480000D02*
X147290000Y-108010000D01*
X147290000Y-108010000D02*
X146980000Y-107700000D01*
X140330000Y-107700000D02*
X139920000Y-108110000D01*
X146980000Y-107700000D02*
X140330000Y-107700000D01*
X94890000Y-52040000D02*
X100380000Y-52040000D01*
X100860000Y-52520000D02*
X100860000Y-53800000D01*
X100380000Y-52040000D02*
X100860000Y-52520000D01*
X95220000Y-102980000D02*
X89060000Y-102980000D01*
X96110000Y-105930000D02*
X95670000Y-105490000D01*
X95670000Y-105490000D02*
X95670000Y-103430000D01*
X107940000Y-105930000D02*
X96110000Y-105930000D01*
X108350000Y-105520000D02*
X107940000Y-105930000D01*
X113960000Y-105520000D02*
X108350000Y-105520000D01*
X95670000Y-103430000D02*
X95220000Y-102980000D01*
X114440000Y-105040000D02*
X113960000Y-105520000D01*
X89060000Y-102980000D02*
X88470000Y-103570000D01*
X133780000Y-104710000D02*
X133450000Y-105040000D01*
X133450000Y-105040000D02*
X114440000Y-105040000D01*
X139910000Y-104710000D02*
X133780000Y-104710000D01*
%TO.N,Z_A17*%
X159990000Y-84720000D02*
X160390000Y-84320000D01*
X159990000Y-89810000D02*
X159990000Y-84720000D01*
X154830000Y-71190000D02*
X154510020Y-71509980D01*
X154830000Y-71180000D02*
X154830000Y-71190000D01*
X154510020Y-71509980D02*
X136659980Y-71509980D01*
X136659980Y-71509980D02*
X136200000Y-71050000D01*
X136200000Y-71050000D02*
X136200000Y-69990000D01*
X135784999Y-69574999D02*
X113224999Y-69574999D01*
X136200000Y-69990000D02*
X135784999Y-69574999D01*
X113224999Y-69574999D02*
X112740000Y-69090000D01*
X94915001Y-89262001D02*
X94342001Y-89835001D01*
X94915001Y-77555001D02*
X94915001Y-89262001D01*
X94880000Y-77520000D02*
X94915001Y-77555001D01*
X94342001Y-89835001D02*
X87274999Y-89835001D01*
X87274999Y-89835001D02*
X86820000Y-90290000D01*
X86820000Y-90660000D02*
X86160000Y-91320000D01*
X86820000Y-90290000D02*
X86820000Y-90660000D01*
X94880000Y-77320000D02*
X94880000Y-77520000D01*
X95090000Y-77110000D02*
X94880000Y-77320000D01*
X100040000Y-77110000D02*
X95090000Y-77110000D01*
X100450000Y-76700000D02*
X100040000Y-77110000D01*
X100450000Y-75300000D02*
X100450000Y-76700000D01*
X100700000Y-75050000D02*
X100450000Y-75300000D01*
X112740000Y-75050000D02*
X100700000Y-75050000D01*
X113110000Y-75420000D02*
X112740000Y-75050000D01*
X93890000Y-70990000D02*
X94100000Y-70780000D01*
X94100000Y-70780000D02*
X97380000Y-70780000D01*
X97380000Y-70780000D02*
X97840000Y-71240000D01*
X97840000Y-71690000D02*
X98204989Y-72054989D01*
X97840000Y-71240000D02*
X97840000Y-71690000D01*
X99574989Y-72054989D02*
X100040000Y-72520000D01*
X98204989Y-72054989D02*
X99574989Y-72054989D01*
%TO.N,Z_A18*%
X164639990Y-112869990D02*
X147220010Y-112869990D01*
X164760000Y-112990000D02*
X164639990Y-112869990D01*
X164760000Y-113140000D02*
X164760000Y-112990000D01*
X147220010Y-112869990D02*
X146940000Y-113150000D01*
X146940000Y-113636998D02*
X146536998Y-114040000D01*
X146940000Y-113150000D02*
X146940000Y-113636998D01*
X146536998Y-114040000D02*
X135730000Y-114040000D01*
X135730000Y-114040000D02*
X135380000Y-114390000D01*
X135380000Y-114390000D02*
X135380000Y-115030000D01*
X135090000Y-115320000D02*
X133990000Y-115320000D01*
X135380000Y-115030000D02*
X135090000Y-115320000D01*
X115715001Y-105524999D02*
X115230000Y-106010000D01*
X134414999Y-105524999D02*
X115715001Y-105524999D01*
X134490000Y-105600000D02*
X134414999Y-105524999D01*
X129599990Y-102529990D02*
X129700000Y-102630000D01*
X115290010Y-102529990D02*
X129599990Y-102529990D01*
X115230000Y-102590000D02*
X115290010Y-102529990D01*
X115170000Y-102530000D02*
X106320000Y-102530000D01*
X115230000Y-102590000D02*
X115170000Y-102530000D01*
X105860000Y-92850000D02*
X105820000Y-92810000D01*
X105820000Y-92810000D02*
X93240000Y-92810000D01*
X93240000Y-92810000D02*
X92840000Y-93210000D01*
X86810000Y-93210000D02*
X86160000Y-93860000D01*
X92840000Y-93210000D02*
X86810000Y-93210000D01*
%TO.N,Z_A19*%
X167230000Y-103315000D02*
X152485000Y-103315000D01*
X152290000Y-103120000D02*
X152290000Y-102590000D01*
X152485000Y-103315000D02*
X152290000Y-103120000D01*
X92620000Y-95750000D02*
X86810000Y-95750000D01*
X93029990Y-95340010D02*
X92620000Y-95750000D01*
X149720000Y-97490000D02*
X134800000Y-97490000D01*
X134800000Y-97490000D02*
X134420000Y-97870000D01*
X86810000Y-95750000D02*
X86160000Y-96400000D01*
X134420000Y-97870000D02*
X134420000Y-98560000D01*
X134420000Y-98560000D02*
X134160000Y-98820000D01*
X134160000Y-98820000D02*
X132980000Y-98820000D01*
X132980000Y-98820000D02*
X132690000Y-98530000D01*
X107900000Y-95580000D02*
X107660010Y-95340010D01*
X132690000Y-98530000D02*
X132690000Y-97740000D01*
X132690000Y-97740000D02*
X132385001Y-97435001D01*
X132385001Y-97435001D02*
X108537999Y-97435001D01*
X107900000Y-96797002D02*
X107900000Y-95580000D01*
X108537999Y-97435001D02*
X107900000Y-96797002D01*
X107660010Y-95340010D02*
X93029990Y-95340010D01*
X92850000Y-77110000D02*
X93890000Y-76070000D01*
X85950000Y-77110000D02*
X92850000Y-77110000D01*
X85134999Y-95374999D02*
X85134999Y-77925001D01*
X85134999Y-77925001D02*
X85950000Y-77110000D01*
X86160000Y-96400000D02*
X85134999Y-95374999D01*
%TO.N,Z_A20*%
X168050000Y-111070000D02*
X156560000Y-111070000D01*
X156560000Y-111070000D02*
X156180000Y-110690000D01*
X156100010Y-109860010D02*
X147360010Y-109860010D01*
X156180000Y-109940000D02*
X156100010Y-109860010D01*
X156180000Y-110690000D02*
X156180000Y-109940000D01*
X147360010Y-109860010D02*
X146890000Y-109390000D01*
X146890000Y-109390000D02*
X146890000Y-108970000D01*
X146400000Y-108480000D02*
X141600000Y-108480000D01*
X146890000Y-108970000D02*
X146400000Y-108480000D01*
X141180000Y-98410000D02*
X135290000Y-98410000D01*
X135290000Y-98410000D02*
X135010000Y-98690000D01*
X135010000Y-98690000D02*
X135010000Y-98940000D01*
X135010000Y-98940000D02*
X134650000Y-99300000D01*
X134650000Y-99300000D02*
X132580000Y-99300000D01*
X132580000Y-99300000D02*
X132200000Y-98920000D01*
X132200000Y-98920000D02*
X132200000Y-98190000D01*
X132200000Y-98190000D02*
X131914999Y-97904999D01*
X95714999Y-96265001D02*
X95720000Y-96260000D01*
X95714999Y-97904999D02*
X95714999Y-96265001D01*
X131914999Y-97904999D02*
X95714999Y-97904999D01*
X86170000Y-98950000D02*
X86170000Y-99090000D01*
X86160000Y-98940000D02*
X86170000Y-98950000D01*
X87195001Y-97904999D02*
X86160000Y-98940000D01*
X95714999Y-97904999D02*
X87195001Y-97904999D01*
%TO.N,Z_A21*%
X87730000Y-89110000D02*
X87730000Y-84380000D01*
X87730000Y-84380000D02*
X88130000Y-83980000D01*
X93600000Y-83980000D02*
X93890000Y-83690000D01*
X88130000Y-83980000D02*
X93600000Y-83980000D01*
X85134999Y-105045001D02*
X86160000Y-104020000D01*
X121650000Y-121680000D02*
X121650000Y-121030000D01*
X129924999Y-122035001D02*
X122005001Y-122035001D01*
X136210000Y-122050000D02*
X135891554Y-121731554D01*
X136210000Y-122640000D02*
X136210000Y-122050000D01*
X99260000Y-120570000D02*
X99260000Y-120240000D01*
X146830020Y-122899980D02*
X136469980Y-122899980D01*
X135891554Y-121731554D02*
X130228446Y-121731554D01*
X136469980Y-122899980D02*
X136210000Y-122640000D01*
X159509990Y-122589990D02*
X147140010Y-122589990D01*
X147140010Y-122589990D02*
X146830020Y-122899980D01*
X130228446Y-121731554D02*
X129924999Y-122035001D01*
X99260000Y-120240000D02*
X98960000Y-119940000D01*
X159920000Y-123000000D02*
X159509990Y-122589990D01*
X122005001Y-122035001D02*
X121650000Y-121680000D01*
X164620000Y-123000000D02*
X159920000Y-123000000D01*
X121650000Y-121030000D02*
X121390000Y-120770000D01*
X121390000Y-120770000D02*
X99460000Y-120770000D01*
X98960000Y-119940000D02*
X96680000Y-119940000D01*
X99460000Y-120770000D02*
X99260000Y-120570000D01*
X96680000Y-119940000D02*
X96080000Y-119340000D01*
X95804999Y-115684999D02*
X93184999Y-115684999D01*
X96080000Y-119340000D02*
X96080000Y-115960000D01*
X96080000Y-115960000D02*
X95804999Y-115684999D01*
X93184999Y-115684999D02*
X92864999Y-115364999D01*
X92864999Y-115364999D02*
X92864999Y-111137999D01*
X92864999Y-111137999D02*
X92341999Y-110614999D01*
X92341999Y-110614999D02*
X85724999Y-110614999D01*
X85724999Y-110614999D02*
X85134999Y-110024999D01*
X85134999Y-110024999D02*
X85134999Y-105045001D01*
%TO.N,Z_A22*%
X86930000Y-106560000D02*
X86160000Y-106560000D01*
X87090000Y-106400000D02*
X86930000Y-106560000D01*
X87090000Y-105770000D02*
X87090000Y-106400000D01*
X87380000Y-105480000D02*
X87090000Y-105770000D01*
X94740000Y-105480000D02*
X87380000Y-105480000D01*
X94880000Y-105620000D02*
X94740000Y-105480000D01*
X95510000Y-106250000D02*
X94880000Y-105620000D01*
X95510000Y-110950000D02*
X95510000Y-106250000D01*
X146430000Y-113160000D02*
X146070000Y-113520000D01*
X135310000Y-113520000D02*
X134940000Y-113890000D01*
X108004999Y-114682001D02*
X107994999Y-114672001D01*
X146430000Y-112750000D02*
X146430000Y-113160000D01*
X146070000Y-113520000D02*
X135310000Y-113520000D01*
X134940000Y-113890000D02*
X134940000Y-114150000D01*
X108392998Y-115210000D02*
X108004999Y-114822001D01*
X146779990Y-112400010D02*
X146430000Y-112750000D01*
X168899990Y-112400010D02*
X146779990Y-112400010D01*
X169340000Y-109810000D02*
X169340000Y-111960000D01*
X120930000Y-114820000D02*
X120540000Y-115210000D01*
X169800000Y-109350000D02*
X169340000Y-109810000D01*
X170130000Y-109350000D02*
X169800000Y-109350000D01*
X96010000Y-111450000D02*
X95510000Y-110950000D01*
X134940000Y-114150000D02*
X134610000Y-114480000D01*
X108004999Y-113677999D02*
X108004999Y-111864999D01*
X134610000Y-114480000D02*
X131800000Y-114480000D01*
X120930000Y-114490000D02*
X120930000Y-114820000D01*
X131800000Y-114480000D02*
X131410000Y-114090000D01*
X170170000Y-109310000D02*
X170130000Y-109350000D01*
X131410000Y-114090000D02*
X121330000Y-114090000D01*
X108004999Y-111864999D02*
X107590000Y-111450000D01*
X121330000Y-114090000D02*
X120930000Y-114490000D01*
X169340000Y-111960000D02*
X168899990Y-112400010D01*
X120540000Y-115210000D02*
X108392998Y-115210000D01*
X108004999Y-114822001D02*
X108004999Y-114682001D01*
X107994999Y-114672001D02*
X107994999Y-113687999D01*
X107994999Y-113687999D02*
X108004999Y-113677999D01*
X107590000Y-111450000D02*
X96010000Y-111450000D01*
%TO.N,Z_A23*%
X172265000Y-102120000D02*
X171805000Y-102580000D01*
X171805000Y-102580000D02*
X156100000Y-102580000D01*
X107960000Y-93430000D02*
X107960000Y-94600000D01*
X107670000Y-94890000D02*
X89770000Y-94890000D01*
X123044999Y-92824999D02*
X108565001Y-92824999D01*
X108565001Y-92824999D02*
X107960000Y-93430000D01*
X123440000Y-93220000D02*
X123044999Y-92824999D01*
X123440000Y-93590000D02*
X123440000Y-93220000D01*
X123890000Y-94040000D02*
X123440000Y-93590000D01*
X133060000Y-94040000D02*
X123890000Y-94040000D01*
X133280000Y-94260000D02*
X133060000Y-94040000D01*
X107960000Y-94600000D02*
X107670000Y-94890000D01*
X133280000Y-95270000D02*
X133280000Y-94260000D01*
X133770000Y-95760000D02*
X133280000Y-95270000D01*
X154800000Y-95760000D02*
X133770000Y-95760000D01*
%TO.N,Z_D15*%
X120154999Y-133474999D02*
X120700000Y-134020000D01*
X84620000Y-132920000D02*
X85174999Y-133474999D01*
X85174999Y-133474999D02*
X120154999Y-133474999D01*
X84620000Y-115510000D02*
X84620000Y-132920000D01*
X85200000Y-114930000D02*
X84620000Y-115510000D01*
X85780000Y-114930000D02*
X85200000Y-114930000D01*
X86160000Y-114550000D02*
X85780000Y-114930000D01*
X86160000Y-114180000D02*
X86160000Y-114550000D01*
%TO.N,Z_D14*%
X92825010Y-97454990D02*
X93890000Y-96390000D01*
X84215010Y-97454990D02*
X92825010Y-97454990D01*
X84190000Y-97480000D02*
X84215010Y-97454990D01*
X119810000Y-138300000D02*
X119820000Y-138310000D01*
X87880000Y-138300000D02*
X119810000Y-138300000D01*
%TO.N,Z_D13*%
X119530000Y-129760000D02*
X120690000Y-129760000D01*
X101330000Y-130450000D02*
X118840000Y-130450000D01*
X97290000Y-130443002D02*
X97831999Y-130985001D01*
X100794999Y-130985001D02*
X101330000Y-130450000D01*
X96864999Y-128394999D02*
X97290000Y-128820000D01*
X118840000Y-130450000D02*
X119530000Y-129760000D01*
X97831999Y-130985001D02*
X100794999Y-130985001D01*
X85774999Y-128394999D02*
X96864999Y-128394999D01*
X85134999Y-127754999D02*
X85774999Y-128394999D01*
X97290000Y-128820000D02*
X97290000Y-130443002D01*
X86160000Y-119260000D02*
X85134999Y-120285001D01*
X85134999Y-120285001D02*
X85134999Y-127754999D01*
%TO.N,Z_D12*%
X86160000Y-121800000D02*
X86160000Y-121810000D01*
X86550000Y-122200000D02*
X95230000Y-122200000D01*
X86160000Y-121810000D02*
X86550000Y-122200000D01*
X124790000Y-127850000D02*
X124790000Y-126050010D01*
X103740010Y-125116420D02*
X103740010Y-122820010D01*
X104443599Y-125820009D02*
X103740010Y-125116420D01*
X124560000Y-125820010D02*
X104443599Y-125820009D01*
X124790000Y-126050010D02*
X124560000Y-125820010D01*
X103740010Y-122820010D02*
X103440000Y-122520000D01*
X95550000Y-122520000D02*
X95230000Y-122200000D01*
X103440000Y-122520000D02*
X95550000Y-122520000D01*
%TO.N,Z_D11*%
X86160000Y-124340000D02*
X86160000Y-124310000D01*
X86160000Y-124310000D02*
X86640000Y-123830000D01*
X94870000Y-123830000D02*
X95230000Y-123470000D01*
X86640000Y-123830000D02*
X94870000Y-123830000D01*
X95230000Y-123470000D02*
X95650000Y-123890000D01*
X95650000Y-123890000D02*
X102870000Y-123890000D01*
X102870000Y-123890000D02*
X103290000Y-124310000D01*
X103290000Y-127570000D02*
X103639990Y-127919990D01*
X103290000Y-124310000D02*
X103290000Y-127570000D01*
X103639990Y-127919990D02*
X113080010Y-127919990D01*
X113370000Y-127630000D02*
X120690000Y-127630000D01*
X113080010Y-127919990D02*
X113370000Y-127630000D01*
%TO.N,Z_D10*%
X86160000Y-126880000D02*
X86160000Y-126870000D01*
X86620000Y-126410000D02*
X96130000Y-126410000D01*
X86160000Y-126870000D02*
X86620000Y-126410000D01*
X121400000Y-117210000D02*
X121230000Y-117380000D01*
X121400000Y-116170000D02*
X121400000Y-117210000D01*
X120914999Y-115684999D02*
X121400000Y-116170000D01*
X101850000Y-115310000D02*
X102224999Y-115684999D01*
X101160010Y-111900010D02*
X101850000Y-112590000D01*
X101850000Y-112590000D02*
X101850000Y-115310000D01*
X95340010Y-111900010D02*
X101160010Y-111900010D01*
X95059990Y-107859990D02*
X95059990Y-111619990D01*
X102224999Y-115684999D02*
X120914999Y-115684999D01*
X95059990Y-111619990D02*
X95340010Y-111900010D01*
X93890000Y-106690000D02*
X95059990Y-107859990D01*
X93890000Y-106550000D02*
X93890000Y-106690000D01*
%TO.N,Z_D9*%
X86160000Y-129420000D02*
X86160000Y-129440000D01*
X86560000Y-129840000D02*
X88440000Y-129840000D01*
X86160000Y-129440000D02*
X86560000Y-129840000D01*
X88440000Y-129840000D02*
X88870000Y-130270000D01*
X88870000Y-130270000D02*
X93290000Y-130270000D01*
X93290000Y-130270000D02*
X93910000Y-130890000D01*
X93910000Y-130890000D02*
X93910000Y-131880000D01*
X93910000Y-131880000D02*
X94380000Y-132350000D01*
X94380000Y-132350000D02*
X102660000Y-132350000D01*
X102660000Y-132350000D02*
X103230000Y-131780000D01*
X103230000Y-131780000D02*
X103230000Y-131480000D01*
X103230000Y-131480000D02*
X103230000Y-131320000D01*
X119794999Y-130934999D02*
X119820000Y-130960000D01*
X103615001Y-130934999D02*
X119794999Y-130934999D01*
X103230000Y-131320000D02*
X103615001Y-130934999D01*
%TO.N,Z_D8*%
X122424999Y-118224999D02*
X122440000Y-118240000D01*
X96994999Y-118224999D02*
X122424999Y-118224999D01*
X96724999Y-117954999D02*
X96994999Y-118224999D01*
X96724999Y-112844999D02*
X96724999Y-117954999D01*
X96230020Y-112350020D02*
X96724999Y-112844999D01*
X94290020Y-112350020D02*
X96230020Y-112350020D01*
X93890000Y-111950000D02*
X94290020Y-112350020D01*
X93890000Y-111630000D02*
X93890000Y-111950000D01*
%TO.N,Z_D7*%
X118570000Y-96630000D02*
X120770000Y-96630000D01*
X115150000Y-132110000D02*
X117759998Y-132110000D01*
X117759998Y-132110000D02*
X117769999Y-132120001D01*
%TO.N,Z_D6*%
X93190000Y-116710000D02*
X93890000Y-116710000D01*
X92414989Y-115934989D02*
X93190000Y-116710000D01*
X92414989Y-113004989D02*
X92414989Y-115934989D01*
X92080000Y-112670000D02*
X92414989Y-113004989D01*
X83700000Y-113140000D02*
X84170000Y-112670000D01*
X83700000Y-140090000D02*
X83700000Y-113140000D01*
X84390000Y-140780000D02*
X83700000Y-140090000D01*
X86690000Y-140780000D02*
X84390000Y-140780000D01*
X87185001Y-140284999D02*
X86690000Y-140780000D01*
X87185001Y-138525001D02*
X87185001Y-140284999D01*
X86160000Y-137500000D02*
X87185001Y-138525001D01*
X86160000Y-137040000D02*
X86160000Y-137500000D01*
X119965000Y-92035000D02*
X119625011Y-92374989D01*
X119965000Y-92020000D02*
X119965000Y-92035000D01*
X119625011Y-92374989D02*
X108254989Y-92374989D01*
X108254989Y-92374989D02*
X107810000Y-91930000D01*
X105440000Y-91930000D02*
X105010010Y-92359990D01*
X107810000Y-91930000D02*
X105440000Y-91930000D01*
X90649990Y-92359990D02*
X90640000Y-92350000D01*
X105010010Y-92359990D02*
X90649990Y-92359990D01*
X90630000Y-112670000D02*
X92080000Y-112670000D01*
X84170000Y-112670000D02*
X90630000Y-112670000D01*
%TO.N,Z_D5*%
X89910000Y-113530000D02*
X89910000Y-118710000D01*
X89500010Y-113120010D02*
X89910000Y-113530000D01*
X90170000Y-118970000D02*
X93610000Y-118970000D01*
X84150000Y-113950000D02*
X84979990Y-113120010D01*
X84979990Y-113120010D02*
X89500010Y-113120010D01*
X84150000Y-138370000D02*
X84150000Y-113950000D01*
X89910000Y-118710000D02*
X90170000Y-118970000D01*
X84870000Y-139090000D02*
X84150000Y-138370000D01*
X85670000Y-139090000D02*
X84870000Y-139090000D01*
X93610000Y-118970000D02*
X93890000Y-119250000D01*
X86160000Y-139580000D02*
X85670000Y-139090000D01*
X93890000Y-119250000D02*
X94390000Y-119250000D01*
X94390000Y-119250000D02*
X94630000Y-119490000D01*
X94630000Y-119490000D02*
X94630000Y-120300000D01*
X95250000Y-120920000D02*
X97780000Y-120920000D01*
X94630000Y-120300000D02*
X95250000Y-120920000D01*
X115905001Y-90284999D02*
X119569999Y-90284999D01*
X115670000Y-90520000D02*
X115905001Y-90284999D01*
X115670000Y-90940000D02*
X115670000Y-90520000D01*
X115420000Y-91190000D02*
X115670000Y-90940000D01*
X111830000Y-91190000D02*
X115420000Y-91190000D01*
X111600000Y-90960000D02*
X111830000Y-91190000D01*
X119569999Y-90284999D02*
X119965000Y-90680000D01*
X111600000Y-90560000D02*
X111600000Y-90960000D01*
X111334999Y-90294999D02*
X111600000Y-90560000D01*
X99145001Y-90294999D02*
X111334999Y-90294999D01*
X99120000Y-90320000D02*
X99145001Y-90294999D01*
%TO.N,M_~BR*%
X116750000Y-88770000D02*
X116760000Y-88770000D01*
X116760000Y-88770000D02*
X117024999Y-88505001D01*
X117024999Y-88505001D02*
X121294999Y-88505001D01*
X121294999Y-88505001D02*
X121590000Y-88210000D01*
X121590000Y-88210000D02*
X121590000Y-87200000D01*
X121590000Y-87200000D02*
X121390000Y-87000000D01*
X107714999Y-87265001D02*
X107190000Y-87790000D01*
X117232001Y-87265001D02*
X107714999Y-87265001D01*
X117497002Y-87000000D02*
X117232001Y-87265001D01*
X121390000Y-87000000D02*
X117497002Y-87000000D01*
%TO.N,M_~BGACK*%
X114914999Y-72514999D02*
X105094999Y-72514999D01*
X115300000Y-72900000D02*
X114914999Y-72514999D01*
%TO.N,M_~BG*%
X116750000Y-93850000D02*
X116750000Y-93860000D01*
X117380000Y-94490000D02*
X121680000Y-94490000D01*
X116750000Y-93860000D02*
X117380000Y-94490000D01*
X128790000Y-101370000D02*
X131240000Y-101370000D01*
X131430000Y-101560000D02*
X131430000Y-102190000D01*
X131240000Y-101370000D02*
X131430000Y-101560000D01*
%TO.N,M_~DTACK*%
X127690000Y-136170000D02*
X127690000Y-129450000D01*
X127690000Y-129450000D02*
X127050000Y-128810000D01*
X114250000Y-128810000D02*
X113950000Y-128510000D01*
X127050000Y-128810000D02*
X114250000Y-128810000D01*
X98180000Y-129080000D02*
X98180000Y-130260000D01*
X98890000Y-128370000D02*
X98180000Y-129080000D01*
X113810000Y-128370000D02*
X98890000Y-128370000D01*
X113950000Y-128510000D02*
X113810000Y-128370000D01*
%TO.N,M_~LDS*%
X148490000Y-107345000D02*
X148490000Y-104260000D01*
X148490000Y-104260000D02*
X148050000Y-103820000D01*
X148050000Y-103820000D02*
X146100000Y-103820000D01*
X146100000Y-103820000D02*
X145000000Y-102720000D01*
X145000000Y-102720000D02*
X139690000Y-102720000D01*
X138520000Y-103890000D02*
X134800000Y-103890000D01*
X139690000Y-102720000D02*
X138520000Y-103890000D01*
X131430000Y-120020000D02*
X135270000Y-120020000D01*
X134760000Y-125550000D02*
X134760000Y-127440000D01*
X135370000Y-128050000D02*
X154380000Y-128050000D01*
X134760000Y-127440000D02*
X135370000Y-128050000D01*
X154380000Y-132587498D02*
X154380000Y-133510000D01*
X154860000Y-133990000D02*
X181600000Y-133990000D01*
X154380000Y-133510000D02*
X154860000Y-133990000D01*
X112770000Y-107260000D02*
X114790000Y-107260000D01*
X134910000Y-108060000D02*
X134760000Y-108210000D01*
X134760000Y-108210000D02*
X131590000Y-108210000D01*
X131590000Y-108210000D02*
X131370000Y-107990000D01*
X131370000Y-107990000D02*
X131370000Y-107550000D01*
X128670000Y-107360000D02*
X128470000Y-107560000D01*
X112620000Y-110120000D02*
X112360000Y-109860000D01*
X112360000Y-109860000D02*
X112360000Y-109840000D01*
X131370000Y-107550000D02*
X131180000Y-107360000D01*
X131180000Y-107360000D02*
X128670000Y-107360000D01*
X128470000Y-107560000D02*
X128470000Y-109730000D01*
X128470000Y-109730000D02*
X128080000Y-110120000D01*
X128080000Y-110120000D02*
X112620000Y-110120000D01*
X112360000Y-107670000D02*
X112770000Y-107260000D01*
X112360000Y-109840000D02*
X112360000Y-107670000D01*
X101150000Y-136340000D02*
X101150000Y-137390000D01*
X101475001Y-136014999D02*
X101150000Y-136340000D01*
X111055001Y-136014999D02*
X101475001Y-136014999D01*
X111780000Y-135290000D02*
X111055001Y-136014999D01*
%TO.N,M_~UDS*%
X157380000Y-107240000D02*
X157850000Y-106770000D01*
X157850000Y-106770000D02*
X162660000Y-106770000D01*
X162660000Y-106770000D02*
X162890000Y-107000000D01*
X162890000Y-107000000D02*
X162890000Y-108650000D01*
X162890000Y-108650000D02*
X163120000Y-108880000D01*
X163120000Y-108880000D02*
X164580000Y-108880000D01*
X164580000Y-108880000D02*
X164940000Y-108520000D01*
X164940000Y-108520000D02*
X164940000Y-106810000D01*
X165265001Y-106484999D02*
X172554999Y-106484999D01*
X164940000Y-106810000D02*
X165265001Y-106484999D01*
X172820000Y-106750000D02*
X185470000Y-106750000D01*
X172554999Y-106484999D02*
X172820000Y-106750000D01*
X185470000Y-106750000D02*
X185870000Y-106350000D01*
X185870000Y-106350000D02*
X190640000Y-106350000D01*
X96680000Y-104700000D02*
X101260000Y-104700000D01*
X96330000Y-102790000D02*
X96330000Y-104350000D01*
X101260000Y-104700000D02*
X101710000Y-105150000D01*
X96045001Y-102505001D02*
X96330000Y-102790000D01*
X88440000Y-102710000D02*
X88644999Y-102505001D01*
X84180000Y-102710000D02*
X88440000Y-102710000D01*
X88644999Y-102505001D02*
X96045001Y-102505001D01*
X83400000Y-39700000D02*
X83400000Y-101930000D01*
X96330000Y-104350000D02*
X96680000Y-104700000D01*
X83400000Y-101930000D02*
X84180000Y-102710000D01*
X83790000Y-39310000D02*
X83400000Y-39700000D01*
X91510000Y-39310000D02*
X83790000Y-39310000D01*
X116400000Y-104360000D02*
X116750000Y-104010000D01*
X114390000Y-104360000D02*
X116400000Y-104360000D01*
X113690000Y-105060000D02*
X114390000Y-104360000D01*
X101800000Y-105060000D02*
X113690000Y-105060000D01*
X101710000Y-105150000D02*
X101800000Y-105060000D01*
%TO.N,M_~AS*%
X117040000Y-106840000D02*
X116750000Y-106550000D01*
X120770000Y-106840000D02*
X117040000Y-106840000D01*
X131890000Y-107540000D02*
X131890000Y-107200000D01*
X132080000Y-107730000D02*
X131890000Y-107540000D01*
X131530000Y-106840000D02*
X120770000Y-106840000D01*
X133940000Y-107730000D02*
X132080000Y-107730000D01*
X131890000Y-107200000D02*
X131530000Y-106840000D01*
X134420010Y-107249990D02*
X133940000Y-107730000D01*
X147569990Y-107249990D02*
X134420010Y-107249990D01*
X147690000Y-107800000D02*
X147690000Y-107370000D01*
X147690000Y-107370000D02*
X147569990Y-107249990D01*
X147960000Y-108070000D02*
X147690000Y-107800000D01*
X149730000Y-108070000D02*
X147960000Y-108070000D01*
%TO.N,Net-(Q1-Pad8)*%
X152750000Y-62210000D02*
X152850010Y-62310010D01*
X184690000Y-66390000D02*
X184690000Y-66850000D01*
X162980000Y-66700000D02*
X163260000Y-66980000D01*
X162980000Y-65670000D02*
X162980000Y-66700000D01*
X172250000Y-66110000D02*
X184410000Y-66110000D01*
X162559990Y-65249990D02*
X162980000Y-65670000D01*
X153359990Y-65249990D02*
X162559990Y-65249990D01*
X171990000Y-66370000D02*
X172250000Y-66110000D01*
X171990000Y-66770000D02*
X171990000Y-66370000D01*
X163260000Y-66980000D02*
X171780000Y-66980000D01*
X152750000Y-64640000D02*
X153359990Y-65249990D01*
X184410000Y-66110000D02*
X184690000Y-66390000D01*
X171780000Y-66980000D02*
X171990000Y-66770000D01*
X152750000Y-62210000D02*
X152750000Y-64640000D01*
X199460000Y-101310000D02*
X199650000Y-101500000D01*
X194660000Y-101310000D02*
X199460000Y-101310000D01*
X193810000Y-100460000D02*
X194660000Y-101310000D01*
X185140000Y-100460000D02*
X193810000Y-100460000D01*
X185070000Y-100390000D02*
X185140000Y-100460000D01*
X197770000Y-133480000D02*
X197700000Y-133550000D01*
X197700000Y-133550000D02*
X183310000Y-133550000D01*
%TO.N,6_~S0*%
X168070000Y-80450000D02*
X157330000Y-80450000D01*
X157330000Y-80450000D02*
X157080000Y-80700000D01*
X157080000Y-80700000D02*
X157080000Y-84280000D01*
X157080000Y-84280000D02*
X156530000Y-84830000D01*
X156530000Y-84830000D02*
X154090000Y-84830000D01*
X154090000Y-84830000D02*
X153680000Y-85240000D01*
X153680000Y-85240000D02*
X153680000Y-90210000D01*
X153680000Y-90210000D02*
X153290000Y-90600000D01*
X153290000Y-90600000D02*
X153140000Y-90600000D01*
X151420000Y-90600000D02*
X151140000Y-90320000D01*
X151140000Y-90320000D02*
X151140000Y-87730000D01*
X150780000Y-87370000D02*
X139100000Y-87370000D01*
X151140000Y-87730000D02*
X150780000Y-87370000D01*
X140840000Y-112760000D02*
X140840000Y-112200000D01*
X140840000Y-112200000D02*
X140560000Y-111920000D01*
X131470000Y-111920000D02*
X131020000Y-112370000D01*
X140560000Y-111920000D02*
X131470000Y-111920000D01*
X153140000Y-90600000D02*
X151420000Y-90600000D01*
%TO.N,6_~S1*%
X162490000Y-97030000D02*
X151430000Y-97030000D01*
X151430000Y-97030000D02*
X151210000Y-97250000D01*
X151210000Y-97250000D02*
X151210000Y-97830000D01*
X151210000Y-97830000D02*
X150750000Y-98290000D01*
X150750000Y-98290000D02*
X148620000Y-98290000D01*
X148620000Y-98290000D02*
X148350000Y-98560000D01*
X148350000Y-98560000D02*
X148350000Y-99570000D01*
X147860000Y-100060000D02*
X143820000Y-100060000D01*
X148350000Y-99570000D02*
X147860000Y-100060000D01*
X142920000Y-109360000D02*
X129750000Y-109360000D01*
X129310000Y-108920000D02*
X129310000Y-108100000D01*
X129750000Y-109360000D02*
X129310000Y-108920000D01*
X176540000Y-100000000D02*
X175520000Y-100000000D01*
X175520000Y-100000000D02*
X174680000Y-99160000D01*
X174680000Y-99160000D02*
X163780000Y-99160000D01*
%TO.N,Net-(R15-Pad2)*%
X144130000Y-85610000D02*
X148120000Y-85610000D01*
X148120000Y-85610000D02*
X148540000Y-86030000D01*
%TO.N,7_~BUSY*%
X199070000Y-84300000D02*
X199650000Y-83720000D01*
X196620000Y-84300000D02*
X199070000Y-84300000D01*
X199650000Y-83720000D02*
X205510000Y-83720000D01*
X181660000Y-128880000D02*
X194130000Y-128880000D01*
X181230000Y-129310000D02*
X181660000Y-128880000D01*
X194130000Y-128880000D02*
X194130000Y-128880000D01*
%TO.N,Net-(R31-Pad1)*%
X206424999Y-54085001D02*
X207450000Y-53060000D01*
X197230000Y-54070000D02*
X197245001Y-54085001D01*
X197230000Y-53060000D02*
X197230000Y-54070000D01*
X197245001Y-54085001D02*
X206424999Y-54085001D01*
X187060000Y-54080002D02*
X187064999Y-54085001D01*
X187060000Y-53060000D02*
X187060000Y-54080002D01*
X187064999Y-54085001D02*
X197245001Y-54085001D01*
X183957999Y-54085001D02*
X187064999Y-54085001D01*
X183512987Y-53639989D02*
X183957999Y-54085001D01*
X177409989Y-53639989D02*
X183512987Y-53639989D01*
X176830000Y-53060000D02*
X177409989Y-53639989D01*
X158100000Y-53060000D02*
X157870000Y-52830000D01*
X176830000Y-53060000D02*
X158100000Y-53060000D01*
%TO.N,Net-(R31-Pad2)*%
X158300000Y-49530000D02*
X153600000Y-49530000D01*
%TO.N,Net-(R32-Pad2)*%
X163390000Y-56310000D02*
X163390000Y-55880000D01*
X163390000Y-55880000D02*
X162939990Y-55429990D01*
X162939990Y-55429990D02*
X151429990Y-55429990D01*
X151050000Y-55050000D02*
X151050000Y-54160000D01*
X151429990Y-55429990D02*
X151050000Y-55050000D01*
%TO.N,Net-(R32-Pad1)*%
X166710000Y-57085000D02*
X172315000Y-57085000D01*
X172315000Y-57085000D02*
X172740000Y-56660000D01*
X172740000Y-56660000D02*
X172740000Y-55650000D01*
X172740000Y-55650000D02*
X173050000Y-55340000D01*
X176570000Y-55340000D02*
X176830000Y-55600000D01*
X173050000Y-55340000D02*
X176570000Y-55340000D01*
X177280000Y-56340000D02*
X183430000Y-56340000D01*
X176830000Y-55890000D02*
X177280000Y-56340000D01*
X176830000Y-55600000D02*
X176830000Y-55890000D01*
X183715001Y-56625001D02*
X183430000Y-56340000D01*
X207450000Y-55600000D02*
X206424999Y-56625001D01*
X197230000Y-56620000D02*
X197224999Y-56625001D01*
X197230000Y-55600000D02*
X197230000Y-56620000D01*
X206424999Y-56625001D02*
X197224999Y-56625001D01*
X187060000Y-56610000D02*
X187075001Y-56625001D01*
X187060000Y-55600000D02*
X187060000Y-56610000D01*
X187075001Y-56625001D02*
X183715001Y-56625001D01*
X197224999Y-56625001D02*
X187075001Y-56625001D01*
%TO.N,Net-(R33-Pad1)*%
X206424999Y-59165001D02*
X207450000Y-58140000D01*
X176830000Y-58140000D02*
X177855001Y-59165001D01*
X197230000Y-59140000D02*
X197255001Y-59165001D01*
X197255001Y-59165001D02*
X206424999Y-59165001D01*
X197230000Y-58140000D02*
X197230000Y-59140000D01*
X187060000Y-58140000D02*
X187060000Y-59140002D01*
X187060000Y-59140002D02*
X187084999Y-59165001D01*
X187084999Y-59165001D02*
X197255001Y-59165001D01*
X177855001Y-59165001D02*
X187084999Y-59165001D01*
%TO.N,Net-(R33-Pad2)*%
X147660000Y-58040000D02*
X147680000Y-58060000D01*
X147660000Y-58040000D02*
X147660000Y-58450000D01*
X147999980Y-58789980D02*
X169159980Y-58789980D01*
X147660000Y-58450000D02*
X147999980Y-58789980D01*
X169800000Y-59430000D02*
X169800000Y-60540000D01*
X169159980Y-58789980D02*
X169800000Y-59430000D01*
%TO.N,Net-(R34-Pad1)*%
X206424999Y-61705001D02*
X207450000Y-60680000D01*
X176830000Y-60680000D02*
X177855001Y-61705001D01*
X197230000Y-60680000D02*
X197230000Y-61700000D01*
X197230000Y-61700000D02*
X197224999Y-61705001D01*
X197224999Y-61705001D02*
X206424999Y-61705001D01*
X187060000Y-61700000D02*
X187054999Y-61705001D01*
X187060000Y-60680000D02*
X187060000Y-61700000D01*
X187054999Y-61705001D02*
X197224999Y-61705001D01*
X177855001Y-61705001D02*
X187054999Y-61705001D01*
%TO.N,Net-(R35-Pad2)*%
X185475001Y-64245001D02*
X184450000Y-63220000D01*
X215070000Y-63220000D02*
X214044999Y-64245001D01*
X194680000Y-64230000D02*
X194664999Y-64245001D01*
X194680000Y-63220000D02*
X194680000Y-64230000D01*
X194664999Y-64245001D02*
X185475001Y-64245001D01*
X204850000Y-63220000D02*
X204850000Y-64220000D01*
X204850000Y-64220000D02*
X204875001Y-64245001D01*
X204875001Y-64245001D02*
X194664999Y-64245001D01*
X214044999Y-64245001D02*
X204875001Y-64245001D01*
X189340000Y-38820000D02*
X188930000Y-38410000D01*
X188930000Y-38410000D02*
X146340000Y-38410000D01*
X146340000Y-38410000D02*
X145850000Y-38900000D01*
X145850000Y-38900000D02*
X145850000Y-39280000D01*
X145850000Y-39280000D02*
X145480000Y-39650000D01*
X142510000Y-39650000D02*
X142180000Y-39320000D01*
X145480000Y-39650000D02*
X142510000Y-39650000D01*
%TO.N,Net-(R36-Pad1)*%
X113120000Y-54690000D02*
X122520000Y-54690000D01*
X112810000Y-55000000D02*
X113120000Y-54690000D01*
%TO.N,Net-(R36-Pad2)*%
X215070000Y-60680000D02*
X214044999Y-59654999D01*
X184450000Y-59669998D02*
X184464999Y-59654999D01*
X184450000Y-60680000D02*
X184450000Y-59669998D01*
X194680000Y-59670000D02*
X194664999Y-59654999D01*
X194680000Y-60680000D02*
X194680000Y-59670000D01*
X194664999Y-59654999D02*
X184464999Y-59654999D01*
X204850000Y-59710000D02*
X204905001Y-59654999D01*
X204850000Y-60680000D02*
X204850000Y-59710000D01*
X204905001Y-59654999D02*
X194664999Y-59654999D01*
X214044999Y-59654999D02*
X204905001Y-59654999D01*
X128880000Y-56350000D02*
X128880000Y-57130000D01*
X133180000Y-56330000D02*
X132740000Y-55890000D01*
X184464999Y-59654999D02*
X174435001Y-59654999D01*
X174435001Y-59654999D02*
X174020000Y-60070000D01*
X129340000Y-55890000D02*
X128880000Y-56350000D01*
X174020000Y-60070000D02*
X170980000Y-60070000D01*
X170600000Y-59690000D02*
X170600000Y-58900000D01*
X169980000Y-58280000D02*
X153460000Y-58280000D01*
X170600000Y-58900000D02*
X169980000Y-58280000D01*
X153460000Y-58280000D02*
X153190000Y-58010000D01*
X132740000Y-55890000D02*
X129340000Y-55890000D01*
X133550010Y-57100010D02*
X133180000Y-56730000D01*
X153190000Y-57500000D02*
X152790010Y-57100010D01*
X170980000Y-60070000D02*
X170600000Y-59690000D01*
X152790010Y-57100010D02*
X133550010Y-57100010D01*
X153190000Y-58010000D02*
X153190000Y-57500000D01*
X133180000Y-56730000D02*
X133180000Y-56330000D01*
%TO.N,Net-(R37-Pad2)*%
X181245001Y-57114999D02*
X181240000Y-57120000D01*
X215070000Y-58140000D02*
X214044999Y-57114999D01*
X204850000Y-57120000D02*
X204844999Y-57114999D01*
X204850000Y-58140000D02*
X204850000Y-57120000D01*
X214044999Y-57114999D02*
X204844999Y-57114999D01*
X194680000Y-57150000D02*
X194715001Y-57114999D01*
X194680000Y-58140000D02*
X194680000Y-57150000D01*
X204844999Y-57114999D02*
X194715001Y-57114999D01*
X184450000Y-57139998D02*
X184425001Y-57114999D01*
X184450000Y-58140000D02*
X184450000Y-57139998D01*
X184425001Y-57114999D02*
X181245001Y-57114999D01*
X194715001Y-57114999D02*
X184425001Y-57114999D01*
X115670000Y-44930000D02*
X115670000Y-45320000D01*
X116035001Y-44564999D02*
X115670000Y-44930000D01*
X129424999Y-44564999D02*
X116035001Y-44564999D01*
X129670000Y-45750000D02*
X129670000Y-44810000D01*
X164980000Y-41190000D02*
X164980000Y-41610000D01*
X180384999Y-41385001D02*
X175915001Y-41385001D01*
X175915001Y-41385001D02*
X175479990Y-40949990D01*
X180840000Y-40930000D02*
X180384999Y-41385001D01*
X175479990Y-40949990D02*
X165220010Y-40949990D01*
X129670000Y-44810000D02*
X129424999Y-44564999D01*
X164980000Y-41610000D02*
X164780010Y-41809990D01*
X129920000Y-46000000D02*
X129670000Y-45750000D01*
X115240000Y-45750000D02*
X101260000Y-45750000D01*
X164780010Y-41809990D02*
X140740010Y-41809990D01*
X140740010Y-41809990D02*
X140320000Y-42230000D01*
X140320000Y-42230000D02*
X140320000Y-45620000D01*
X165220010Y-40949990D02*
X164980000Y-41190000D01*
X140320000Y-45620000D02*
X139940000Y-46000000D01*
X115670000Y-45320000D02*
X115240000Y-45750000D01*
X139940000Y-46000000D02*
X129920000Y-46000000D01*
%TO.N,Net-(R38-Pad2)*%
X185475001Y-54574999D02*
X184450000Y-55600000D01*
X215070000Y-55600000D02*
X214044999Y-54574999D01*
X194680000Y-55600000D02*
X194680000Y-54580000D01*
X194674999Y-54574999D02*
X185475001Y-54574999D01*
X194680000Y-54580000D02*
X194674999Y-54574999D01*
X204850000Y-54579998D02*
X204854999Y-54574999D01*
X204850000Y-55600000D02*
X204850000Y-54579998D01*
X204854999Y-54574999D02*
X194674999Y-54574999D01*
X214044999Y-54574999D02*
X204854999Y-54574999D01*
X152539990Y-53660010D02*
X152360000Y-53840000D01*
X156883599Y-54020009D02*
X156523600Y-53660010D01*
X175340009Y-54020009D02*
X156883599Y-54020009D01*
X156523600Y-53660010D02*
X152539990Y-53660010D01*
X175894999Y-54574999D02*
X175340009Y-54020009D01*
X181051997Y-54574999D02*
X175894999Y-54574999D01*
X152360000Y-53840000D02*
X152360000Y-54540000D01*
X181390000Y-54913002D02*
X181051997Y-54574999D01*
X181390000Y-55300000D02*
X181390000Y-54913002D01*
X181690000Y-55600000D02*
X181390000Y-55300000D01*
X184450000Y-55600000D02*
X181690000Y-55600000D01*
X149800000Y-60500000D02*
X136910000Y-60500000D01*
X136910000Y-60500000D02*
X136560000Y-60150000D01*
X136560000Y-60150000D02*
X136560000Y-59690000D01*
X136185001Y-59315001D02*
X112525001Y-59315001D01*
X136560000Y-59690000D02*
X136185001Y-59315001D01*
X112525001Y-59315001D02*
X111930000Y-58720000D01*
X111930000Y-58720000D02*
X111930000Y-55430000D01*
X111550000Y-55050000D02*
X105120000Y-55050000D01*
X111930000Y-55430000D02*
X111550000Y-55050000D01*
%TO.N,Net-(R39-Pad2)*%
X185475001Y-52034999D02*
X184450000Y-53060000D01*
X215070000Y-53060000D02*
X214044999Y-52034999D01*
X194680000Y-53060000D02*
X194680000Y-52039998D01*
X194680000Y-52039998D02*
X194684999Y-52034999D01*
X194684999Y-52034999D02*
X185475001Y-52034999D01*
X204850000Y-52059998D02*
X204825001Y-52034999D01*
X204850000Y-53060000D02*
X204850000Y-52059998D01*
X204825001Y-52034999D02*
X194684999Y-52034999D01*
X214044999Y-52034999D02*
X204825001Y-52034999D01*
X134510000Y-61410000D02*
X134500000Y-61420000D01*
X143400000Y-61410000D02*
X134510000Y-61410000D01*
X184450000Y-53060000D02*
X182310000Y-53060000D01*
X182310000Y-53060000D02*
X182100006Y-52850006D01*
X150290000Y-54200000D02*
X149940000Y-54550000D01*
X150290000Y-53560000D02*
X150290000Y-54200000D01*
X149940000Y-54550000D02*
X144730000Y-54550000D01*
X150640000Y-53210000D02*
X150290000Y-53560000D01*
X157070000Y-53570000D02*
X156710000Y-53210000D01*
X175822998Y-53570000D02*
X157070000Y-53570000D01*
X176342998Y-54090000D02*
X175822998Y-53570000D01*
X181640000Y-54090000D02*
X176342998Y-54090000D01*
X182100000Y-54550000D02*
X181640000Y-54090000D01*
X156710000Y-53210000D02*
X150640000Y-53210000D01*
%TO.N,Net-(R39-Pad1)*%
X104714999Y-59804999D02*
X104670000Y-59760000D01*
X128174999Y-59804999D02*
X104714999Y-59804999D01*
X128500000Y-60130000D02*
X128174999Y-59804999D01*
X103840000Y-82650000D02*
X100070000Y-82650000D01*
X130265000Y-116865000D02*
X130265000Y-117380000D01*
X129959990Y-116559990D02*
X130265000Y-116865000D01*
X125600010Y-116559990D02*
X129959990Y-116559990D01*
X125110000Y-117050000D02*
X125600010Y-116559990D01*
X124700010Y-120319990D02*
X125110000Y-119910000D01*
X125110000Y-119910000D02*
X125110000Y-117050000D01*
X99989990Y-120319990D02*
X124700010Y-120319990D01*
X99760000Y-120090000D02*
X99989990Y-120319990D01*
X99760000Y-119720000D02*
X99760000Y-120090000D01*
X99230000Y-119190000D02*
X99760000Y-119720000D01*
X98670000Y-119190000D02*
X99230000Y-119190000D01*
%TO.N,M2*%
X145070000Y-134095001D02*
X138975001Y-134095001D01*
X138550000Y-133670000D02*
X138550000Y-132720000D01*
X138975001Y-134095001D02*
X138550000Y-133670000D01*
X121270000Y-81920000D02*
X120770000Y-81420000D01*
X128940000Y-81920000D02*
X121270000Y-81920000D01*
X120740000Y-124390000D02*
X120740000Y-122980000D01*
X121269989Y-124919989D02*
X120740000Y-124390000D01*
X128396400Y-124919989D02*
X121269989Y-124919989D01*
X129040000Y-125563589D02*
X128396400Y-124919989D01*
X129040000Y-132530000D02*
X129040000Y-125563589D01*
X129720000Y-133210000D02*
X129040000Y-132530000D01*
X138060000Y-133210000D02*
X129720000Y-133210000D01*
X138550000Y-132720000D02*
X138060000Y-133210000D01*
%TO.N,P65*%
X176130000Y-118670000D02*
X176130000Y-120620000D01*
X176750000Y-121240000D02*
X177420000Y-121240000D01*
X176130000Y-120620000D02*
X176750000Y-121240000D01*
X133280000Y-117360000D02*
X133280000Y-116250000D01*
X132790000Y-115760000D02*
X123330000Y-115760000D01*
X133280000Y-116250000D02*
X132790000Y-115760000D01*
X133640000Y-117720000D02*
X133280000Y-117360000D01*
X165060000Y-117720000D02*
X133640000Y-117720000D01*
X165460000Y-117320000D02*
X165060000Y-117720000D01*
X165460000Y-116120000D02*
X165460000Y-117320000D01*
%TO.N,6_RESET*%
X154880000Y-62150000D02*
X160030000Y-62150000D01*
X182940000Y-121710000D02*
X182940000Y-121080000D01*
X183264989Y-120755011D02*
X208174989Y-120755011D01*
X182940000Y-121080000D02*
X183264989Y-120755011D01*
X208174989Y-120755011D02*
X208610000Y-120320000D01*
X208610000Y-120320000D02*
X208610000Y-115870000D01*
X208610000Y-115870000D02*
X209130000Y-115350000D01*
X209130000Y-115350000D02*
X216620000Y-115350000D01*
X216620000Y-115350000D02*
X217110010Y-114859990D01*
X217110010Y-114859990D02*
X217110010Y-62720010D01*
X216570000Y-62180000D02*
X170220000Y-62180000D01*
X217110010Y-62720010D02*
X216570000Y-62180000D01*
X171320000Y-125440000D02*
X171690000Y-125810000D01*
X182760000Y-125810000D02*
X182940000Y-125630000D01*
X170340000Y-125440000D02*
X171320000Y-125440000D01*
X170010000Y-125110000D02*
X170340000Y-125440000D01*
X171690000Y-125810000D02*
X182760000Y-125810000D01*
X170010000Y-121310000D02*
X170010000Y-125110000D01*
X182940000Y-125630000D02*
X182940000Y-125070000D01*
X169580000Y-120880000D02*
X170010000Y-121310000D01*
X143650000Y-120880000D02*
X169580000Y-120880000D01*
X143410000Y-120640000D02*
X143650000Y-120880000D01*
X143410000Y-120120000D02*
X143410000Y-120640000D01*
X161210000Y-57510000D02*
X161210000Y-57080000D01*
X161530000Y-57830000D02*
X161210000Y-57510000D01*
X171380000Y-57830000D02*
X161530000Y-57830000D01*
X171480000Y-57930000D02*
X171380000Y-57830000D01*
%TO.N,7_RESET*%
X199780000Y-109250000D02*
X199650000Y-109120000D01*
X202550000Y-109250000D02*
X199780000Y-109250000D01*
%TO.N,P46*%
X162920000Y-125100000D02*
X159640000Y-125100000D01*
X159640000Y-125100000D02*
X159350000Y-124810000D01*
X159350000Y-124810000D02*
X159350000Y-123440000D01*
X159350000Y-123440000D02*
X158950000Y-123040000D01*
X147480000Y-123040000D02*
X147170010Y-123349990D01*
X158950000Y-123040000D02*
X147480000Y-123040000D01*
X128810010Y-123349990D02*
X128810000Y-123350000D01*
X147170010Y-123349990D02*
X128810010Y-123349990D01*
X88020000Y-140890000D02*
X88000000Y-140910000D01*
X126210000Y-140890000D02*
X88020000Y-140890000D01*
X105440000Y-69950000D02*
X106490000Y-71000000D01*
X90600000Y-69950000D02*
X105440000Y-69950000D01*
X90180000Y-70370000D02*
X90600000Y-69950000D01*
%TO.N,P9*%
X98290000Y-102880000D02*
X98290000Y-99290000D01*
X98900000Y-103490000D02*
X98290000Y-102880000D01*
X108090000Y-103490000D02*
X98900000Y-103490000D01*
X108600000Y-102980000D02*
X108090000Y-103490000D01*
X146800000Y-102120000D02*
X146800000Y-102110000D01*
X146500000Y-101810000D02*
X132810000Y-101810000D01*
X114280000Y-102980000D02*
X108600000Y-102980000D01*
X132810000Y-101810000D02*
X132410000Y-102210000D01*
X132410000Y-102210000D02*
X132410000Y-102980000D01*
X132410000Y-102980000D02*
X132020000Y-103370000D01*
X128800000Y-102980000D02*
X116190000Y-102980000D01*
X146800000Y-102110000D02*
X146500000Y-101810000D01*
X132020000Y-103370000D02*
X129190000Y-103370000D01*
X129190000Y-103370000D02*
X128800000Y-102980000D01*
X116190000Y-102980000D02*
X115750000Y-103420000D01*
X115750000Y-103420000D02*
X114720000Y-103420000D01*
X114720000Y-103420000D02*
X114280000Y-102980000D01*
%TO.N,6_PEREQ*%
X199650000Y-81720000D02*
X199650000Y-81180000D01*
X199250000Y-82120000D02*
X199650000Y-81720000D01*
X163710010Y-82120000D02*
X199250000Y-82120000D01*
X163380010Y-81790000D02*
X163710010Y-82120000D01*
X159520000Y-81790000D02*
X163380010Y-81790000D01*
X199650000Y-81180000D02*
X203410000Y-81180000D01*
%TO.N,Net-(R311-Pad2)*%
X176830000Y-47980000D02*
X176830000Y-47540000D01*
X206424999Y-46954999D02*
X207450000Y-47980000D01*
X176830000Y-47980000D02*
X177855001Y-46954999D01*
X197230000Y-46960000D02*
X197235001Y-46954999D01*
X197230000Y-47980000D02*
X197230000Y-46960000D01*
X197235001Y-46954999D02*
X206424999Y-46954999D01*
X187060000Y-46989998D02*
X187025001Y-46954999D01*
X187060000Y-47980000D02*
X187060000Y-46989998D01*
X187025001Y-46954999D02*
X197235001Y-46954999D01*
X177855001Y-46954999D02*
X187025001Y-46954999D01*
%TO.N,P48*%
X188920000Y-126460000D02*
X188920000Y-125840000D01*
X188660000Y-126720000D02*
X188920000Y-126460000D01*
X178360000Y-126720000D02*
X188660000Y-126720000D01*
X178040000Y-127040000D02*
X178360000Y-126720000D01*
X166190000Y-127040000D02*
X178040000Y-127040000D01*
X165850000Y-126700000D02*
X166190000Y-127040000D01*
%TO.N,Net-(R312-Pad2)*%
X205875001Y-49005001D02*
X204850000Y-47980000D01*
X214044999Y-49005001D02*
X205875001Y-49005001D01*
X215070000Y-47980000D02*
X214044999Y-49005001D01*
X211000000Y-73630000D02*
X211010000Y-73620000D01*
X205080000Y-73630000D02*
X211000000Y-73630000D01*
X212326400Y-138650010D02*
X163250010Y-138650010D01*
X212366410Y-138610000D02*
X212326400Y-138650010D01*
X213420000Y-138610000D02*
X212366410Y-138610000D01*
X162940000Y-138340000D02*
X162940000Y-137390000D01*
X163250010Y-138650010D02*
X162940000Y-138340000D01*
%TO.N,Net-(R313-Pad2)*%
X193654999Y-49005001D02*
X194680000Y-47980000D01*
X185475001Y-49005001D02*
X193654999Y-49005001D01*
X184450000Y-47980000D02*
X185475001Y-49005001D01*
X197435000Y-86800000D02*
X197954990Y-87319990D01*
X197954990Y-87319990D02*
X201899990Y-87319990D01*
X201899990Y-87319990D02*
X202300000Y-87720000D01*
X202300000Y-87720000D02*
X202300000Y-89300000D01*
X202740000Y-89740000D02*
X205520000Y-89740000D01*
X202300000Y-89300000D02*
X202740000Y-89740000D01*
X162470000Y-139890000D02*
X161970000Y-140390000D01*
X202930000Y-139890000D02*
X162470000Y-139890000D01*
%TO.N,6_~BHE*%
X180770000Y-88110000D02*
X170544990Y-88110000D01*
X171520000Y-109260000D02*
X171460000Y-109320000D01*
X179620000Y-109260000D02*
X171520000Y-109260000D01*
X180010000Y-108870000D02*
X179620000Y-109260000D01*
X147620000Y-113590000D02*
X147620000Y-114030000D01*
X147890000Y-113320000D02*
X147620000Y-113590000D01*
X164070000Y-114070000D02*
X163320000Y-113320000D01*
X163320000Y-113320000D02*
X147890000Y-113320000D01*
X168700000Y-114070000D02*
X164070000Y-114070000D01*
X168900000Y-113870000D02*
X168700000Y-114070000D01*
X168900000Y-113150000D02*
X168900000Y-113870000D01*
%TO.N,6_~PEACK*%
X187245021Y-95425021D02*
X177440000Y-95425021D01*
X187444999Y-96994999D02*
X187444999Y-95624999D01*
X187444999Y-95624999D02*
X187245021Y-95425021D01*
X195140000Y-97460000D02*
X187910000Y-97460000D01*
X195460000Y-97780000D02*
X195140000Y-97460000D01*
X195810000Y-99990000D02*
X195460000Y-99640000D01*
X195460000Y-99640000D02*
X195460000Y-97780000D01*
X203950000Y-100600000D02*
X203340000Y-99990000D01*
X187910000Y-97460000D02*
X187444999Y-96994999D01*
X203950000Y-111260000D02*
X203950000Y-100600000D01*
X203340000Y-99990000D02*
X195810000Y-99990000D01*
X203550000Y-111660000D02*
X203950000Y-111260000D01*
X199650000Y-111660000D02*
X203550000Y-111660000D01*
%TO.N,6_A23*%
X175710000Y-80460000D02*
X183370000Y-80460000D01*
X182490000Y-101690000D02*
X176500000Y-101690000D01*
X176110000Y-117000000D02*
X179830000Y-117000000D01*
X179830000Y-117000000D02*
X180580000Y-117750000D01*
X180580000Y-117750000D02*
X180580000Y-118300000D01*
X180990000Y-118710000D02*
X184220000Y-118710000D01*
X180580000Y-118300000D02*
X180990000Y-118710000D01*
X175800000Y-117310000D02*
X176110000Y-117000000D01*
X167580000Y-117310000D02*
X175800000Y-117310000D01*
X167190000Y-116920000D02*
X167580000Y-117310000D01*
X167569990Y-114520010D02*
X167190000Y-114900000D01*
X169239990Y-114520010D02*
X167569990Y-114520010D01*
X169810000Y-113950000D02*
X169239990Y-114520010D01*
X167190000Y-114900000D02*
X167190000Y-116920000D01*
X169810000Y-111980000D02*
X169810000Y-113950000D01*
X170320000Y-111470000D02*
X169810000Y-111980000D01*
X176580000Y-111470000D02*
X170320000Y-111470000D01*
%TO.N,6_A22*%
X177860000Y-100010000D02*
X183350000Y-100010000D01*
X186320000Y-101290000D02*
X186320000Y-101890000D01*
X186320000Y-101890000D02*
X186540000Y-102110000D01*
X191870000Y-102110000D02*
X192300000Y-101680000D01*
X186540000Y-102110000D02*
X191870000Y-102110000D01*
X191460000Y-117350000D02*
X191300000Y-117350000D01*
X191300000Y-117350000D02*
X191180000Y-117470000D01*
X191180000Y-117470000D02*
X191180000Y-118430000D01*
X190920000Y-118690000D02*
X185490000Y-118690000D01*
X191180000Y-118430000D02*
X190920000Y-118690000D01*
X191460000Y-117350000D02*
X191460000Y-117230000D01*
X191460000Y-117230000D02*
X191230000Y-117000000D01*
X191230000Y-117000000D02*
X191230000Y-115800000D01*
X191230000Y-115800000D02*
X190700000Y-115270000D01*
X190700000Y-115270000D02*
X179980000Y-115270000D01*
X179980000Y-115270000D02*
X179530000Y-115720000D01*
X179530000Y-115720000D02*
X172600000Y-115720000D01*
X172310000Y-115430000D02*
X172310000Y-114420000D01*
X172600000Y-115720000D02*
X172310000Y-115430000D01*
%TO.N,6_M\u005C~IO*%
X205070000Y-85500000D02*
X205070000Y-88550000D01*
X204770000Y-85200000D02*
X205070000Y-85500000D01*
X199130000Y-85200000D02*
X204770000Y-85200000D01*
X198290000Y-86040000D02*
X199130000Y-85200000D01*
X168050000Y-86040000D02*
X198290000Y-86040000D01*
X167610000Y-86480000D02*
X168050000Y-86040000D01*
X176400000Y-122440000D02*
X176070000Y-122110000D01*
X183710000Y-122440000D02*
X176400000Y-122440000D01*
X190140000Y-122150000D02*
X184000000Y-122150000D01*
X190920000Y-122930000D02*
X190140000Y-122150000D01*
X184000000Y-122150000D02*
X183710000Y-122440000D01*
X206280000Y-122930000D02*
X190920000Y-122930000D01*
X138621544Y-121281544D02*
X128005034Y-121281544D01*
X138960000Y-121620000D02*
X138621544Y-121281544D01*
X159779990Y-121330010D02*
X159490000Y-121620000D01*
X159490000Y-121620000D02*
X138960000Y-121620000D01*
X168740010Y-121330010D02*
X159779990Y-121330010D01*
X168910000Y-121500000D02*
X168740010Y-121330010D01*
X168910000Y-121730000D02*
X168910000Y-121500000D01*
%TO.N,6_COD\u005C~INTA*%
X196940000Y-136050000D02*
X196940000Y-136340000D01*
X196684694Y-136595306D02*
X164665000Y-136595306D01*
X196940000Y-136340000D02*
X196684694Y-136595306D01*
X200820000Y-97630000D02*
X200610000Y-97840000D01*
X200820000Y-90770000D02*
X200820000Y-97630000D01*
X200360000Y-90310000D02*
X200820000Y-90770000D01*
X200610000Y-97840000D02*
X198310000Y-97840000D01*
X168150000Y-90310000D02*
X200360000Y-90310000D01*
X168040000Y-90200000D02*
X168150000Y-90310000D01*
%TO.N,6_HDLA*%
X165900000Y-78370000D02*
X162890000Y-78370000D01*
X163825522Y-66102088D02*
X163825522Y-61075522D01*
X163280000Y-60530000D02*
X161700000Y-60530000D01*
X163825522Y-61075522D02*
X163280000Y-60530000D01*
X159640000Y-56310000D02*
X159210000Y-55880000D01*
X159210000Y-55880000D02*
X144670000Y-55880000D01*
X125310000Y-58010000D02*
X124650000Y-57350000D01*
X124650000Y-57350000D02*
X124650000Y-55500000D01*
X143810000Y-58010000D02*
X125310000Y-58010000D01*
X144190000Y-58390000D02*
X143810000Y-58010000D01*
X165900000Y-78370000D02*
X178270000Y-78370000D01*
X199320000Y-110630000D02*
X202960000Y-110630000D01*
X198470000Y-109780000D02*
X199320000Y-110630000D01*
X198470000Y-104690000D02*
X198470000Y-109780000D01*
X198020000Y-104240000D02*
X198470000Y-104690000D01*
X179160000Y-104240000D02*
X198020000Y-104240000D01*
X178730000Y-104670000D02*
X179160000Y-104240000D01*
X180150000Y-128120000D02*
X179870000Y-128400000D01*
X195380000Y-128120000D02*
X180150000Y-128120000D01*
X195680000Y-128420000D02*
X195380000Y-128120000D01*
X202520000Y-128420000D02*
X195680000Y-128420000D01*
X202870000Y-128070000D02*
X202520000Y-128420000D01*
X202870000Y-127080000D02*
X202870000Y-128070000D01*
%TO.N,6_HOLD*%
X163310000Y-86310000D02*
X163920000Y-86920000D01*
X163920000Y-90080000D02*
X163780000Y-90220000D01*
X163920000Y-86920000D02*
X163920000Y-90080000D01*
X168890000Y-97040000D02*
X168900000Y-97050000D01*
X164110000Y-97040000D02*
X168890000Y-97040000D01*
X157000000Y-109720000D02*
X157000000Y-110170000D01*
X156690000Y-109410000D02*
X157000000Y-109720000D01*
X154750000Y-109070000D02*
X155090000Y-109410000D01*
X155490000Y-104040000D02*
X154750000Y-104780000D01*
X168130000Y-104040000D02*
X155490000Y-104040000D01*
X155090000Y-109410000D02*
X156690000Y-109410000D01*
X168460000Y-103710000D02*
X168130000Y-104040000D01*
X154750000Y-104780000D02*
X154750000Y-109070000D01*
X168460000Y-103440000D02*
X168460000Y-103710000D01*
%TO.N,6_~READY*%
X151050000Y-101860000D02*
X151050000Y-108080000D01*
X151600000Y-101310000D02*
X151050000Y-101860000D01*
X163720000Y-101310000D02*
X151600000Y-101310000D01*
%TO.N,6_A21*%
X189750000Y-113570000D02*
X190200000Y-113120000D01*
X176140000Y-113570000D02*
X189750000Y-113570000D01*
%TO.N,6_A20*%
X172310000Y-73230000D02*
X184670000Y-73230000D01*
%TO.N,6_A19*%
X190190000Y-71530000D02*
X190200000Y-71520000D01*
X172270000Y-71530000D02*
X190190000Y-71530000D01*
X190640000Y-101250000D02*
X190930000Y-100960000D01*
X191951999Y-100954999D02*
X192974999Y-100954999D01*
X191946998Y-100960000D02*
X191951999Y-100954999D01*
X190930000Y-100960000D02*
X191946998Y-100960000D01*
X192974999Y-100954999D02*
X193180000Y-101160000D01*
X193180000Y-101160000D02*
X193180000Y-101640000D01*
X193660000Y-102120000D02*
X196530000Y-102120000D01*
X193180000Y-101640000D02*
X193660000Y-102120000D01*
X180580000Y-107210000D02*
X165930000Y-107210000D01*
X180980000Y-107610000D02*
X180580000Y-107210000D01*
X180980000Y-108880000D02*
X180980000Y-107610000D01*
X181390000Y-109290000D02*
X180980000Y-108880000D01*
X196410000Y-108920000D02*
X196040000Y-109290000D01*
X196410000Y-106440000D02*
X196410000Y-106440000D01*
X196410000Y-106440000D02*
X196410000Y-108920000D01*
X185530000Y-112290000D02*
X185530000Y-111900000D01*
X185530000Y-111900000D02*
X185970000Y-111460000D01*
X185970000Y-111460000D02*
X188270000Y-111460000D01*
X188600000Y-111130000D02*
X188600000Y-109290000D01*
X188270000Y-111460000D02*
X188600000Y-111130000D01*
X188600000Y-109290000D02*
X181390000Y-109290000D01*
X196040000Y-109290000D02*
X188600000Y-109290000D01*
%TO.N,6_A18*%
X166010000Y-85660000D02*
X165120000Y-85660000D01*
X166670004Y-86320004D02*
X166010000Y-85660000D01*
X166670004Y-90120000D02*
X166670004Y-86320004D01*
X165120000Y-85660000D02*
X165080000Y-85660000D01*
%TO.N,6_A17*%
X162100000Y-86339998D02*
X162100000Y-90720000D01*
X161760000Y-91060000D02*
X160780000Y-91060000D01*
X162100000Y-90720000D02*
X161760000Y-91060000D01*
%TO.N,6_A16*%
X164250000Y-81340000D02*
X164250000Y-81320000D01*
X164250000Y-81320000D02*
X163910000Y-80980000D01*
X163910000Y-80980000D02*
X157830000Y-80980000D01*
X157530010Y-81279990D02*
X157530010Y-90419990D01*
X157830000Y-80980000D02*
X157530010Y-81279990D01*
X157310000Y-90640000D02*
X156540000Y-90640000D01*
X157530010Y-90419990D02*
X157310000Y-90640000D01*
X164330004Y-75249996D02*
X164330004Y-75800000D01*
X164530000Y-75050000D02*
X164330004Y-75249996D01*
X172470000Y-75050000D02*
X164530000Y-75050000D01*
X172780000Y-75360000D02*
X172470000Y-75050000D01*
%TO.N,6_A15*%
X171460000Y-59250000D02*
X173170000Y-59250000D01*
X173600000Y-58820000D02*
X173600000Y-56230000D01*
X173170000Y-59250000D02*
X173600000Y-58820000D01*
X162130000Y-46050000D02*
X162090000Y-46090000D01*
X173180000Y-46050000D02*
X162130000Y-46050000D01*
%TO.N,6_A14*%
X169790000Y-63880000D02*
X169110000Y-63880000D01*
X169110000Y-63880000D02*
X168870000Y-63640000D01*
X168870000Y-63640000D02*
X168870000Y-60190000D01*
X168360000Y-59680000D02*
X159550000Y-59680000D01*
X168870000Y-60190000D02*
X168360000Y-59680000D01*
%TO.N,6_A13*%
X171010000Y-61000000D02*
X171450000Y-60560000D01*
X171450000Y-60560000D02*
X174790000Y-60560000D01*
%TO.N,6_A7*%
X153440000Y-59690000D02*
X139720000Y-59690000D01*
X139720000Y-59690000D02*
X139470000Y-59440000D01*
X153960000Y-60210000D02*
X153440000Y-59690000D01*
X139470000Y-59440000D02*
X139470000Y-59090000D01*
X153960000Y-62880000D02*
X153960000Y-60210000D01*
X154170000Y-63090000D02*
X153960000Y-62880000D01*
X161080000Y-63090000D02*
X154170000Y-63090000D01*
X161290000Y-62880000D02*
X161080000Y-63090000D01*
X161290000Y-62180000D02*
X161290000Y-62880000D01*
X139470000Y-59090000D02*
X139470000Y-59090000D01*
%TO.N,6_A6*%
X131970000Y-57380000D02*
X131970000Y-56700000D01*
X132150000Y-57560000D02*
X131970000Y-57380000D01*
X146400000Y-57560000D02*
X132150000Y-57560000D01*
X146810000Y-58810000D02*
X146810000Y-57970000D01*
X147239990Y-59239990D02*
X146810000Y-58810000D01*
X155619990Y-59239990D02*
X147239990Y-59239990D01*
X146810000Y-57970000D02*
X146400000Y-57560000D01*
X156180000Y-59800000D02*
X155619990Y-59239990D01*
X156180000Y-60510000D02*
X156180000Y-59800000D01*
%TO.N,6_A5*%
X152300000Y-65350000D02*
X152300000Y-64270000D01*
X151510000Y-63480000D02*
X138710000Y-63480000D01*
X152650000Y-65700000D02*
X152300000Y-65350000D01*
X152300000Y-64270000D02*
X151510000Y-63480000D01*
X157011719Y-65700000D02*
X152650000Y-65700000D01*
X157424269Y-66112550D02*
X157011719Y-65700000D01*
%TO.N,6_A4*%
X133980000Y-56330000D02*
X133980000Y-55479998D01*
X134300000Y-56650000D02*
X133980000Y-56330000D01*
X154010000Y-56700000D02*
X153960000Y-56650000D01*
X153960000Y-56650000D02*
X134300000Y-56650000D01*
%TO.N,6_A3*%
X148150000Y-66920000D02*
X129750000Y-66920000D01*
%TO.N,6_A2*%
X150630000Y-66070000D02*
X150630000Y-64790000D01*
X150630000Y-64790000D02*
X150220000Y-64380000D01*
X150220000Y-64380000D02*
X135910000Y-64380000D01*
X135740000Y-64210000D02*
X135740000Y-63510000D01*
X135910000Y-64380000D02*
X135740000Y-64210000D01*
X132410000Y-53700000D02*
X132410000Y-51755021D01*
X132780000Y-54070000D02*
X132410000Y-53700000D01*
X135220000Y-54070000D02*
X132780000Y-54070000D01*
X135740000Y-54590000D02*
X135220000Y-54070000D01*
X135740000Y-55440000D02*
X135740000Y-54590000D01*
%TO.N,6_A1*%
X127060000Y-62220000D02*
X126400000Y-61560000D01*
X147650000Y-62220000D02*
X127060000Y-62220000D01*
X126400000Y-61560000D02*
X126400000Y-60570000D01*
%TO.N,6_A0*%
X131260000Y-51700000D02*
X127280000Y-51700000D01*
X131929989Y-51030011D02*
X131260000Y-51700000D01*
X134280011Y-51030011D02*
X131929989Y-51030011D01*
X134910000Y-51660000D02*
X134280011Y-51030011D01*
X134910000Y-52390000D02*
X134910000Y-51660000D01*
X135410000Y-52890000D02*
X134910000Y-52390000D01*
X142980000Y-52890000D02*
X135410000Y-52890000D01*
%TO.N,6_D0*%
X191470000Y-82570000D02*
X191930000Y-83030000D01*
X199120000Y-79170000D02*
X199650000Y-78640000D01*
X192310000Y-79170000D02*
X199120000Y-79170000D01*
X161670000Y-82570000D02*
X158250020Y-82570000D01*
X158250020Y-82570000D02*
X157980020Y-82840000D01*
X157980020Y-82840000D02*
X157980020Y-84900020D01*
X157980020Y-84900020D02*
X158270000Y-85190000D01*
X158270000Y-85190000D02*
X158790000Y-85190000D01*
X158790000Y-85190000D02*
X159210000Y-85610000D01*
X159210000Y-91790000D02*
X160080000Y-92660000D01*
X159210000Y-85610000D02*
X159210000Y-91790000D01*
X136140000Y-115260000D02*
X136060000Y-115340000D01*
X147210000Y-115260000D02*
X136140000Y-115260000D01*
X159505000Y-115260000D02*
X159540000Y-115295000D01*
X147210000Y-115260000D02*
X159505000Y-115260000D01*
X172300000Y-82590000D02*
X172320000Y-82570000D01*
X172300000Y-83860000D02*
X172300000Y-82590000D01*
X172320000Y-82570000D02*
X191470000Y-82570000D01*
X161670000Y-82570000D02*
X172320000Y-82570000D01*
X171010000Y-104440000D02*
X171010000Y-103490000D01*
X170900000Y-104550000D02*
X171010000Y-104440000D01*
X155374999Y-105255001D02*
X156080000Y-104550000D01*
X155364999Y-105255001D02*
X155374999Y-105255001D01*
X155364999Y-108614999D02*
X155364999Y-105255001D01*
X155590000Y-108840000D02*
X155364999Y-108614999D01*
X158970000Y-108840000D02*
X155590000Y-108840000D01*
X156080000Y-104550000D02*
X170900000Y-104550000D01*
X159540000Y-109410000D02*
X158970000Y-108840000D01*
X159540000Y-110170000D02*
X159540000Y-109410000D01*
%TO.N,6_D8*%
X137000000Y-69050000D02*
X136990000Y-69060000D01*
X148170000Y-69050000D02*
X137000000Y-69050000D01*
X176220000Y-105560000D02*
X176130000Y-105470000D01*
X180030000Y-105560000D02*
X176220000Y-105560000D01*
X214510000Y-84750000D02*
X214890000Y-85130000D01*
X214890000Y-85130000D02*
X214890000Y-86260000D01*
X198660000Y-84750000D02*
X214510000Y-84750000D01*
X198300000Y-85110000D02*
X198660000Y-84750000D01*
X180430000Y-85110000D02*
X198300000Y-85110000D01*
X178210000Y-69520000D02*
X178210000Y-69490000D01*
X177890000Y-69840000D02*
X178210000Y-69520000D01*
X148960000Y-69840000D02*
X177890000Y-69840000D01*
X148170000Y-69050000D02*
X148960000Y-69840000D01*
%TO.N,6_D1*%
X131646889Y-124670000D02*
X143330000Y-124670000D01*
X130800229Y-125516660D02*
X131646889Y-124670000D01*
X196190000Y-43940000D02*
X197230000Y-42900000D01*
X195760000Y-43940000D02*
X196190000Y-43940000D01*
X158730000Y-45340000D02*
X158730000Y-44410000D01*
X158350000Y-45720000D02*
X158730000Y-45340000D01*
X149100000Y-45720000D02*
X158350000Y-45720000D01*
X148880000Y-45940000D02*
X149100000Y-45720000D01*
X148880000Y-46550000D02*
X148880000Y-45940000D01*
X159200000Y-43940000D02*
X195760000Y-43940000D01*
X148480000Y-46950000D02*
X148880000Y-46550000D01*
X158730000Y-44410000D02*
X159200000Y-43940000D01*
X142580000Y-46950000D02*
X148480000Y-46950000D01*
X129894990Y-134444990D02*
X129894990Y-134030000D01*
X130270001Y-134820001D02*
X129894990Y-134444990D01*
X144250001Y-134820001D02*
X130270001Y-134820001D01*
X144690000Y-135260000D02*
X144250001Y-134820001D01*
X195600000Y-135260000D02*
X144690000Y-135260000D01*
X195640000Y-135220000D02*
X195600000Y-135260000D01*
X157540000Y-93250000D02*
X157540000Y-92660000D01*
X183470000Y-94250000D02*
X158540000Y-94250000D01*
X184070000Y-93650000D02*
X183470000Y-94250000D01*
X158540000Y-94250000D02*
X157540000Y-93250000D01*
X188400000Y-93650000D02*
X184070000Y-93650000D01*
X188910000Y-93140000D02*
X188400000Y-93650000D01*
X197810000Y-93140000D02*
X188910000Y-93140000D01*
X198270000Y-92680000D02*
X197810000Y-93140000D01*
%TO.N,6_D9*%
X138660000Y-81770000D02*
X138210000Y-82220000D01*
X138210000Y-82220000D02*
X134480000Y-82220000D01*
X176240010Y-43489990D02*
X176830000Y-42900000D01*
X158930010Y-43489990D02*
X176240010Y-43489990D01*
X158230000Y-44190000D02*
X158930010Y-43489990D01*
X157770000Y-45270000D02*
X158230000Y-44810000D01*
X142990000Y-45270000D02*
X157770000Y-45270000D01*
X158230000Y-44810000D02*
X158230000Y-44190000D01*
X142590000Y-45670000D02*
X142990000Y-45270000D01*
X181250000Y-83880000D02*
X194150000Y-83880000D01*
X194840000Y-82600000D02*
X212619815Y-82600000D01*
X194150000Y-83880000D02*
X194600000Y-83430000D01*
X194600000Y-82840000D02*
X194840000Y-82600000D01*
X194600000Y-83430000D02*
X194600000Y-82840000D01*
X180820000Y-83450000D02*
X181250000Y-83880000D01*
X212619815Y-82600000D02*
X212739359Y-82480456D01*
X176050000Y-124210000D02*
X176429990Y-123830010D01*
X176050000Y-124220000D02*
X176050000Y-124210000D01*
X188243600Y-123830010D02*
X188693600Y-124280010D01*
X176429990Y-123830010D02*
X188243600Y-123830010D01*
X209739990Y-124280010D02*
X209750000Y-124270000D01*
X188693600Y-124280010D02*
X209739990Y-124280010D01*
X214790000Y-88900000D02*
X214890000Y-88800000D01*
X209750000Y-88900000D02*
X214790000Y-88900000D01*
X137030000Y-65690000D02*
X139085005Y-65690000D01*
X139085005Y-65690000D02*
X139095010Y-65679995D01*
%TO.N,6_D2*%
X174400000Y-67300000D02*
X174800000Y-66900000D01*
X174800000Y-66900000D02*
X183580000Y-66900000D01*
X183580000Y-66900000D02*
X183810000Y-67130000D01*
X183810000Y-67130000D02*
X183810000Y-67500000D01*
X183810000Y-67500000D02*
X184020000Y-67710000D01*
X184020000Y-67710000D02*
X190750000Y-67710000D01*
X190750000Y-67710000D02*
X191160000Y-67300000D01*
X191160000Y-67300000D02*
X191160000Y-66520000D01*
X191700000Y-65980000D02*
X199570000Y-65980000D01*
X191160000Y-66520000D02*
X191700000Y-65980000D01*
X134450000Y-128880000D02*
X134390000Y-128940000D01*
X174010000Y-69390000D02*
X174380000Y-69020000D01*
X150150000Y-69390000D02*
X174010000Y-69390000D01*
X149350000Y-68590000D02*
X150150000Y-69390000D01*
X147150000Y-128880000D02*
X134450000Y-128880000D01*
X156910000Y-128880000D02*
X147150000Y-128880000D01*
X156090000Y-105630000D02*
X156090000Y-108060000D01*
X174950000Y-105160000D02*
X156560000Y-105160000D01*
X175530000Y-104580000D02*
X174950000Y-105160000D01*
X175530000Y-103830000D02*
X175530000Y-104580000D01*
X156560000Y-105160000D02*
X156090000Y-105630000D01*
X175950000Y-103410000D02*
X175530000Y-103830000D01*
X179130000Y-103410000D02*
X175950000Y-103410000D01*
X124474979Y-67834979D02*
X124474979Y-65730000D01*
X124830001Y-68190001D02*
X124474979Y-67834979D01*
X148950001Y-68190001D02*
X124830001Y-68190001D01*
X149350000Y-68590000D02*
X148950001Y-68190001D01*
%TO.N,6_D10*%
X141670000Y-77970000D02*
X142060000Y-78360000D01*
X142060000Y-78360000D02*
X161930000Y-78360000D01*
X161930000Y-78360000D02*
X162140000Y-78570000D01*
X162140000Y-78570000D02*
X162140000Y-78980000D01*
X162370000Y-79210000D02*
X191050000Y-79210000D01*
X162140000Y-78980000D02*
X162370000Y-79210000D01*
X191050000Y-86840000D02*
X191050000Y-87490000D01*
X191050000Y-87490000D02*
X191330000Y-87770000D01*
X191330000Y-87770000D02*
X201400000Y-87770000D01*
X201400000Y-87770000D02*
X201840000Y-88210000D01*
X201840000Y-88210000D02*
X201840000Y-93250000D01*
X201840000Y-93250000D02*
X202260000Y-93670000D01*
X214680000Y-93670000D02*
X214890000Y-93880000D01*
X202260000Y-93670000D02*
X214680000Y-93670000D01*
X192320000Y-69450000D02*
X194730000Y-69450000D01*
X194730000Y-69450000D02*
X194920000Y-69260000D01*
X194920000Y-69260000D02*
X194920000Y-67550000D01*
X194630000Y-67260000D02*
X194020000Y-67260000D01*
X194920000Y-67550000D02*
X194630000Y-67260000D01*
X184450000Y-45060000D02*
X184450000Y-45440000D01*
X185119990Y-44390010D02*
X184450000Y-45060000D01*
X192590000Y-44390010D02*
X185119990Y-44390010D01*
X192750000Y-44550010D02*
X192590000Y-44390010D01*
X192750000Y-45170000D02*
X192750000Y-44550010D01*
X198490000Y-113130000D02*
X198490000Y-113590000D01*
X198059990Y-114020010D02*
X177869990Y-114020010D01*
X198490000Y-113590000D02*
X198059990Y-114020010D01*
X198890000Y-112730000D02*
X198490000Y-113130000D01*
X212030000Y-112730000D02*
X198890000Y-112730000D01*
X212700000Y-112060000D02*
X212030000Y-112730000D01*
X177869990Y-114020010D02*
X177440000Y-114450000D01*
X212700000Y-97790000D02*
X212700000Y-112060000D01*
X130905000Y-86860000D02*
X130895000Y-86870000D01*
X137820000Y-86440000D02*
X137400000Y-86860000D01*
X137820000Y-83210000D02*
X137820000Y-86440000D01*
X138400010Y-82629990D02*
X137820000Y-83210000D01*
X140790010Y-82629990D02*
X138400010Y-82629990D01*
X137400000Y-86860000D02*
X130905000Y-86860000D01*
X141200000Y-82220000D02*
X140790010Y-82629990D01*
%TO.N,6_D3*%
X165970000Y-66120002D02*
X165970000Y-65320000D01*
X165970000Y-65320000D02*
X166490000Y-64800000D01*
X166490000Y-64800000D02*
X216130000Y-64800000D01*
X216130000Y-64800000D02*
X216660000Y-65330000D01*
X216650000Y-73560000D02*
X216660000Y-73550000D01*
X214890000Y-73560000D02*
X216650000Y-73560000D01*
X216660000Y-65330000D02*
X216660000Y-73550000D01*
X214890000Y-73560000D02*
X215220000Y-73560000D01*
X215220000Y-73560000D02*
X215780000Y-73000000D01*
X215780000Y-73000000D02*
X215780000Y-69480000D01*
X215780000Y-69480000D02*
X215360000Y-69060000D01*
X208870000Y-69060000D02*
X208460000Y-69470000D01*
X215360000Y-69060000D02*
X208870000Y-69060000D01*
X148030000Y-74520000D02*
X128290000Y-74520000D01*
X128070000Y-74300000D02*
X128070000Y-73730000D01*
X128290000Y-74520000D02*
X128070000Y-74300000D01*
X163790000Y-72040000D02*
X163790000Y-71100000D01*
X163420000Y-72410000D02*
X163790000Y-72040000D01*
X150740000Y-72410000D02*
X163420000Y-72410000D01*
X150260000Y-72890000D02*
X150740000Y-72410000D01*
X150260000Y-73470000D02*
X150260000Y-72890000D01*
X150110000Y-73620000D02*
X150260000Y-73470000D01*
X148830000Y-73620000D02*
X150110000Y-73620000D01*
X148580000Y-73870000D02*
X148830000Y-73620000D01*
X148220000Y-74520000D02*
X148580000Y-74160000D01*
X148580000Y-74160000D02*
X148580000Y-73870000D01*
X148030000Y-74520000D02*
X148220000Y-74520000D01*
X213755001Y-113174999D02*
X212590000Y-114340000D01*
X216315001Y-113174999D02*
X213755001Y-113174999D01*
X216660000Y-73550000D02*
X216660000Y-112830000D01*
X216660000Y-112830000D02*
X216315001Y-113174999D01*
X212140000Y-138200000D02*
X212570000Y-137770000D01*
X164240000Y-138200000D02*
X212140000Y-138200000D01*
X163920000Y-137880000D02*
X164240000Y-138200000D01*
X163920000Y-136300000D02*
X163920000Y-137880000D01*
X212570000Y-137770000D02*
X212570000Y-121970000D01*
X163350000Y-135730000D02*
X163920000Y-136300000D01*
X143260000Y-135730000D02*
X163350000Y-135730000D01*
%TO.N,6_D11*%
X142510000Y-80510000D02*
X133490000Y-80510000D01*
X133490000Y-80510000D02*
X133220000Y-80780000D01*
X133220000Y-80780000D02*
X133220000Y-85090000D01*
X132690000Y-85620000D02*
X130170000Y-85620000D01*
X133220000Y-85090000D02*
X132690000Y-85620000D01*
X143790000Y-75830000D02*
X141640000Y-75830000D01*
X214150000Y-95680000D02*
X214890000Y-96420000D01*
X203370000Y-95680000D02*
X214150000Y-95680000D01*
X213900000Y-118030000D02*
X209610000Y-118030000D01*
X209610000Y-118030000D02*
X209130000Y-118510000D01*
X209130000Y-118510000D02*
X209130000Y-123400000D01*
X209130000Y-123400000D02*
X208700000Y-123830000D01*
X208700000Y-123830000D02*
X188880000Y-123830000D01*
X188880000Y-123830000D02*
X188430000Y-123380000D01*
X188430000Y-123380000D02*
X172630000Y-123380000D01*
X172280000Y-123730000D02*
X172280000Y-125050000D01*
X172630000Y-123380000D02*
X172280000Y-123730000D01*
X203330000Y-41830000D02*
X203400000Y-41760000D01*
X203285001Y-41874999D02*
X203400000Y-41760000D01*
X184450000Y-41889998D02*
X184464999Y-41874999D01*
X184450000Y-42900000D02*
X184450000Y-41889998D01*
X184464999Y-41874999D02*
X203285001Y-41874999D01*
X165710000Y-41400000D02*
X175270000Y-41400000D01*
X175744999Y-41874999D02*
X184464999Y-41874999D01*
X165460000Y-41650000D02*
X165710000Y-41400000D01*
X165460000Y-42050000D02*
X165460000Y-41650000D01*
X175270000Y-41400000D02*
X175744999Y-41874999D01*
X165250000Y-42260000D02*
X165460000Y-42050000D01*
X141650000Y-42260000D02*
X165250000Y-42260000D01*
X141270000Y-42640000D02*
X141650000Y-42260000D01*
X141270000Y-42650000D02*
X141270000Y-42640000D01*
%TO.N,6_D4*%
X144220000Y-77110000D02*
X144740000Y-76590000D01*
X144740000Y-75190000D02*
X144520010Y-74970010D01*
X144520010Y-74970010D02*
X127390010Y-74970010D01*
X126790000Y-74370000D02*
X126790000Y-73700000D01*
X127390010Y-74970010D02*
X126790000Y-74370000D01*
X144740000Y-76590000D02*
X144740000Y-75350000D01*
X144740000Y-75350000D02*
X144740000Y-75190000D01*
X207815001Y-74585001D02*
X208050000Y-74820000D01*
X196045001Y-74585001D02*
X207815001Y-74585001D01*
X195530010Y-74070010D02*
X196045001Y-74585001D01*
X149399990Y-74070010D02*
X195530010Y-74070010D01*
X148920000Y-74550000D02*
X149399990Y-74070010D01*
X148920000Y-75170000D02*
X148920000Y-74550000D01*
X148740000Y-75350000D02*
X148920000Y-75170000D01*
X144740000Y-75350000D02*
X148740000Y-75350000D01*
X208050000Y-74820000D02*
X210200000Y-74820000D01*
X210200000Y-74820000D02*
X214280000Y-74820000D01*
X214890000Y-75430000D02*
X214890000Y-76100000D01*
X214280000Y-74820000D02*
X214890000Y-75430000D01*
X134320000Y-131910000D02*
X130780000Y-131910000D01*
X130075228Y-131205228D02*
X130075228Y-124474772D01*
X130780000Y-131910000D02*
X130075228Y-131205228D01*
X130750000Y-123800000D02*
X148050000Y-123800000D01*
X130075228Y-124474772D02*
X130750000Y-123800000D01*
X134850000Y-131380000D02*
X134320000Y-131910000D01*
X157200000Y-131080000D02*
X156900000Y-131380000D01*
X191510000Y-132640000D02*
X190850000Y-131980000D01*
X180080000Y-133500000D02*
X162020000Y-133500000D01*
X190850000Y-131980000D02*
X180890000Y-131980000D01*
X161500000Y-132980000D02*
X161500000Y-131210000D01*
X180890000Y-131980000D02*
X180540000Y-132330000D01*
X161500000Y-131210000D02*
X161370000Y-131080000D01*
X180540000Y-132330000D02*
X180540000Y-133040000D01*
X180540000Y-133040000D02*
X180080000Y-133500000D01*
X156900000Y-131380000D02*
X134850000Y-131380000D01*
X207150000Y-132640000D02*
X191510000Y-132640000D01*
X162020000Y-133500000D02*
X161500000Y-132980000D01*
X161370000Y-131080000D02*
X157200000Y-131080000D01*
%TO.N,6_D12*%
X154870000Y-80960000D02*
X154880000Y-80950000D01*
X144240000Y-80960000D02*
X154870000Y-80960000D01*
X155300000Y-77110000D02*
X181990000Y-77110000D01*
X181990000Y-77110000D02*
X182490000Y-76610000D01*
X182490000Y-76610000D02*
X182490000Y-75900000D01*
X183070000Y-75320000D02*
X189310000Y-75320000D01*
X182490000Y-75900000D02*
X183070000Y-75320000D01*
X189350000Y-73210000D02*
X198520000Y-73210000D01*
X198520000Y-73210000D02*
X199260000Y-72470000D01*
X214330000Y-72470000D02*
X214900000Y-71900000D01*
X199260000Y-72470000D02*
X214330000Y-72470000D01*
X143970000Y-83080000D02*
X138800000Y-83080000D01*
X124150000Y-89360000D02*
X130580000Y-89360000D01*
X144240000Y-82810000D02*
X143970000Y-83080000D01*
X138800000Y-83080000D02*
X138320000Y-83560000D01*
X144240000Y-80960000D02*
X144240000Y-82810000D01*
X138320000Y-83560000D02*
X138320000Y-87040000D01*
X130580000Y-89360000D02*
X130630000Y-89410000D01*
X138320000Y-87040000D02*
X138030000Y-87330000D01*
X138030000Y-87330000D02*
X134850000Y-87330000D01*
X134850000Y-87330000D02*
X134410000Y-87770000D01*
X123850000Y-89060000D02*
X124150000Y-89360000D01*
X134410000Y-87770000D02*
X124180000Y-87770000D01*
X124180000Y-87770000D02*
X123850000Y-88100000D01*
X123850000Y-88100000D02*
X123850000Y-89060000D01*
%TO.N,6_D5*%
X148127928Y-81779763D02*
X155580237Y-81779763D01*
X155760000Y-81600000D02*
X155760000Y-79230000D01*
X155580237Y-81779763D02*
X155760000Y-81600000D01*
X155700000Y-75360000D02*
X160840000Y-75360000D01*
X155760000Y-79230000D02*
X155340000Y-78810000D01*
X155340000Y-78810000D02*
X140070000Y-78810000D01*
X140070000Y-78810000D02*
X139610000Y-78350000D01*
X139610000Y-78350000D02*
X139610000Y-77490000D01*
X139610000Y-77490000D02*
X139230000Y-77110000D01*
X139230000Y-77110000D02*
X125980000Y-77110000D01*
X125510000Y-76640000D02*
X125510000Y-74590000D01*
X125980000Y-77110000D02*
X125510000Y-76640000D01*
X162960000Y-83450000D02*
X162960000Y-84170000D01*
X162960000Y-84170000D02*
X163480000Y-84690000D01*
X163480000Y-84690000D02*
X173150000Y-84690000D01*
X173455001Y-84384999D02*
X195065001Y-84384999D01*
X173150000Y-84690000D02*
X173455001Y-84384999D01*
X195324696Y-84125304D02*
X195324696Y-83451005D01*
X195065001Y-84384999D02*
X195324696Y-84125304D01*
X209410000Y-77430000D02*
X209410000Y-77830000D01*
X209410000Y-77830000D02*
X209940000Y-78360000D01*
X214610000Y-78360000D02*
X214890000Y-78640000D01*
X209940000Y-78360000D02*
X214610000Y-78360000D01*
X209410000Y-76180000D02*
X209400000Y-76170000D01*
X209410000Y-77430000D02*
X209410000Y-76180000D01*
X195320000Y-77430000D02*
X205170000Y-77430000D01*
X205170000Y-77430000D02*
X205170000Y-79990000D01*
X205170000Y-77430000D02*
X209410000Y-77430000D01*
X203420000Y-97430000D02*
X204290000Y-97430000D01*
X204290000Y-97430000D02*
X204790000Y-97930000D01*
X204790000Y-111680000D02*
X204630000Y-111840000D01*
X204790000Y-97930000D02*
X204790000Y-111680000D01*
X204630000Y-125810000D02*
X204630000Y-131310000D01*
X204100000Y-131840000D02*
X194780000Y-131840000D01*
X204630000Y-131310000D02*
X204100000Y-131840000D01*
X190195530Y-117866571D02*
X190195530Y-116315530D01*
X190195530Y-116315530D02*
X189600010Y-115720010D01*
X189600010Y-115720010D02*
X180409990Y-115720010D01*
X179959990Y-116170010D02*
X168389990Y-116170010D01*
X180409990Y-115720010D02*
X179959990Y-116170010D01*
X168389990Y-116170010D02*
X167990000Y-116570000D01*
X167990000Y-125900000D02*
X147170000Y-125900000D01*
X140780000Y-126440000D02*
X140780000Y-127170000D01*
X141320000Y-125900000D02*
X140780000Y-126440000D01*
X131830000Y-135720000D02*
X131820000Y-135730000D01*
X140670000Y-135720000D02*
X131830000Y-135720000D01*
X147170000Y-125900000D02*
X141320000Y-125900000D01*
%TO.N,6_D13*%
X142480000Y-81800000D02*
X142920000Y-81360000D01*
X142920000Y-81360000D02*
X143170000Y-81360000D01*
X143170000Y-81360000D02*
X143480000Y-81050000D01*
X143480000Y-80320000D02*
X143689990Y-80110010D01*
X143480000Y-81050000D02*
X143480000Y-80320000D01*
X143689990Y-80110010D02*
X148580000Y-80110010D01*
X148580000Y-80110010D02*
X148580010Y-80110010D01*
X148580010Y-80110010D02*
X148950000Y-80480000D01*
X152280000Y-80480000D02*
X152710000Y-80050000D01*
X148950000Y-80480000D02*
X152280000Y-80480000D01*
X152710000Y-73210000D02*
X171220000Y-73210000D01*
X171220000Y-73210000D02*
X171480000Y-72950000D01*
X171480000Y-72950000D02*
X171480000Y-72590000D01*
X171680000Y-72390000D02*
X181710000Y-72390000D01*
X171480000Y-72590000D02*
X171680000Y-72390000D01*
X181710000Y-72390000D02*
X197850000Y-72390000D01*
X198774990Y-71465010D02*
X211910000Y-71465010D01*
X197850000Y-72390000D02*
X198774990Y-71465010D01*
X142480000Y-81800000D02*
X142480000Y-81650000D01*
X142480000Y-81650000D02*
X142190000Y-81360000D01*
X141890000Y-81360000D02*
X141490010Y-80960010D01*
X142190000Y-81360000D02*
X141890000Y-81360000D01*
X141490010Y-80960010D02*
X134230000Y-80960010D01*
X134230000Y-80960010D02*
X134229990Y-80960010D01*
X133670010Y-81519990D02*
X133670010Y-85780010D01*
X134229990Y-80960010D02*
X133670010Y-81519990D01*
X133970000Y-86080000D02*
X134460000Y-86080000D01*
X133670010Y-85780010D02*
X133970000Y-86080000D01*
%TO.N,6_D6*%
X140420000Y-77540000D02*
X140420000Y-76210000D01*
X140050000Y-75840000D02*
X134460000Y-75840000D01*
X140420000Y-76210000D02*
X140050000Y-75840000D01*
X140420000Y-77540000D02*
X140830000Y-77130000D01*
X140830000Y-77130000D02*
X143300000Y-77130000D01*
X143494999Y-77324999D02*
X143494999Y-77664999D01*
X143300000Y-77130000D02*
X143494999Y-77324999D01*
X143494999Y-77664999D02*
X143739990Y-77909990D01*
X143739990Y-77909990D02*
X148720000Y-77909990D01*
X148720000Y-77909990D02*
X148890010Y-77909990D01*
X148890010Y-77909990D02*
X149380000Y-77420000D01*
X149380000Y-77420000D02*
X149380000Y-76900000D01*
X149380000Y-76900000D02*
X149580000Y-76700000D01*
X149580000Y-76700000D02*
X154170000Y-76700000D01*
X154170000Y-76700000D02*
X154580000Y-76290000D01*
X154580000Y-76290000D02*
X163200000Y-76290000D01*
X163200000Y-76290000D02*
X163500000Y-76590000D01*
X165180000Y-76590000D02*
X165510000Y-76260000D01*
X163500000Y-76590000D02*
X165180000Y-76590000D01*
X165520000Y-71040000D02*
X165819990Y-70740010D01*
X165520000Y-71090000D02*
X165520000Y-71040000D01*
X214480010Y-70740010D02*
X214490000Y-70750000D01*
X165819990Y-70740010D02*
X214480010Y-70740010D01*
%TO.N,6_D14*%
X150170000Y-77510000D02*
X150569999Y-77909999D01*
X150569999Y-77909999D02*
X162010001Y-77909999D01*
X162359990Y-77560010D02*
X183100010Y-77560010D01*
X162010001Y-77909999D02*
X162359990Y-77560010D01*
X183460000Y-77920000D02*
X187670000Y-77920000D01*
X183100010Y-77560010D02*
X183460000Y-77920000D01*
X213440000Y-96570000D02*
X213860000Y-96990000D01*
X201760000Y-96570000D02*
X213440000Y-96570000D01*
X201389990Y-96199990D02*
X201760000Y-96570000D01*
X213860000Y-96990000D02*
X213860000Y-108090000D01*
X201389990Y-90259990D02*
X201389990Y-96199990D01*
X200989990Y-89859990D02*
X201389990Y-90259990D01*
X187629990Y-89859990D02*
X200989990Y-89859990D01*
X213860000Y-108090000D02*
X214890000Y-109120000D01*
X187250000Y-89480000D02*
X187629990Y-89859990D01*
X187250000Y-87250000D02*
X187250000Y-89480000D01*
X187670000Y-86830000D02*
X187250000Y-87250000D01*
X141200000Y-91590000D02*
X134560000Y-91590000D01*
X194100000Y-46020000D02*
X194680000Y-45440000D01*
X188990000Y-46020000D02*
X194100000Y-46020000D01*
X188590000Y-45620000D02*
X188990000Y-46020000D01*
%TO.N,6_D7*%
X149760000Y-83090000D02*
X156130000Y-83090000D01*
X156629990Y-82590010D02*
X156629990Y-80200010D01*
X156130000Y-83090000D02*
X156629990Y-82590010D01*
X156629990Y-80200010D02*
X157160000Y-79670000D01*
X157160000Y-79670000D02*
X190110000Y-79670000D01*
X190110000Y-79670000D02*
X190520000Y-80080000D01*
X190520000Y-80080000D02*
X204050000Y-80080000D01*
X204050000Y-80080000D02*
X204300000Y-80330000D01*
X204300000Y-80330000D02*
X204300000Y-80630000D01*
X204300000Y-80630000D02*
X204520000Y-80850000D01*
X204520000Y-80850000D02*
X213230000Y-80850000D01*
X213230000Y-80850000D02*
X213710000Y-81330000D01*
X213710000Y-81330000D02*
X213710000Y-83880000D01*
X214730000Y-83880000D02*
X214890000Y-83720000D01*
X213710000Y-83880000D02*
X214730000Y-83880000D01*
X213710000Y-83880000D02*
X210600000Y-83880000D01*
X211840000Y-139510000D02*
X211440000Y-139110000D01*
X211440000Y-139110000D02*
X140820000Y-139110000D01*
X140340000Y-138630000D02*
X140340000Y-137410000D01*
X140820000Y-139110000D02*
X140340000Y-138630000D01*
X149760000Y-79660000D02*
X136950000Y-79660000D01*
X137880000Y-99210000D02*
X139960000Y-99210000D01*
%TO.N,6_D15*%
X150980000Y-75820000D02*
X150980000Y-74980020D01*
X150980000Y-74980020D02*
X151440000Y-74520020D01*
X194500020Y-74520020D02*
X194910000Y-74930000D01*
X151440000Y-74520020D02*
X194500020Y-74520020D01*
X144680000Y-91150000D02*
X144680000Y-93190000D01*
X144680000Y-93190000D02*
X144210000Y-93660000D01*
X144210000Y-93660000D02*
X134320000Y-93660000D01*
X134020000Y-93960000D02*
X134020000Y-94550000D01*
X134320000Y-93660000D02*
X134020000Y-93960000D01*
%TO.N,6_~BUSY*%
X180390000Y-120980000D02*
X180390000Y-121270000D01*
X180680000Y-120690000D02*
X180390000Y-120980000D01*
X212720000Y-77010000D02*
X212835001Y-77125001D01*
X215914999Y-77125001D02*
X216209990Y-77419992D01*
X216209990Y-77419992D02*
X216209990Y-112240010D01*
X200544999Y-120305001D02*
X182914999Y-120305001D01*
X216209990Y-112240010D02*
X215725011Y-112724989D01*
X213545011Y-112724989D02*
X212700000Y-113570000D01*
X212700000Y-113570000D02*
X201390000Y-113570000D01*
X201390000Y-113570000D02*
X200880000Y-114080000D01*
X212835001Y-77125001D02*
X215914999Y-77125001D01*
X200880000Y-114080000D02*
X200880000Y-119970000D01*
X182530000Y-120690000D02*
X180680000Y-120690000D01*
X200880000Y-119970000D02*
X200544999Y-120305001D01*
X215725011Y-112724989D02*
X213545011Y-112724989D01*
X182914999Y-120305001D02*
X182530000Y-120690000D01*
X211365000Y-70290000D02*
X211870000Y-69785000D01*
X156880000Y-70290000D02*
X211365000Y-70290000D01*
X156620000Y-70550000D02*
X156880000Y-70290000D01*
X156620000Y-71130000D02*
X156620000Y-70550000D01*
%TO.N,6_INTR*%
X156750011Y-94700011D02*
X174505001Y-94700011D01*
X174505001Y-94700011D02*
X174780000Y-94975010D01*
X156150000Y-94100000D02*
X156750011Y-94700011D01*
%TO.N,7_~NPRD*%
X106490000Y-78620000D02*
X100420000Y-78620000D01*
X100420000Y-78620000D02*
X100010000Y-79030000D01*
X100010000Y-79030000D02*
X100010000Y-80070000D01*
X100010000Y-80070000D02*
X100410000Y-80470000D01*
X111974999Y-80134999D02*
X112290000Y-80450000D01*
X105662998Y-80470000D02*
X105997999Y-80134999D01*
X105997999Y-80134999D02*
X111974999Y-80134999D01*
X100410000Y-80470000D02*
X105662998Y-80470000D01*
X188090000Y-93010000D02*
X188090000Y-92370000D01*
X183740000Y-93200000D02*
X187900000Y-93200000D01*
X183254999Y-93685001D02*
X183740000Y-93200000D01*
X113175000Y-88469999D02*
X113175000Y-89135000D01*
X158830000Y-93230000D02*
X159285001Y-93685001D01*
X113175000Y-89135000D02*
X113850010Y-89810010D01*
X113850010Y-89810010D02*
X129830010Y-89810010D01*
X148144999Y-91634999D02*
X158374999Y-91634999D01*
X147590000Y-90590000D02*
X147590000Y-91080000D01*
X129830010Y-89810010D02*
X130155001Y-90135001D01*
X147590000Y-91080000D02*
X148144999Y-91634999D01*
X187900000Y-93200000D02*
X188090000Y-93010000D01*
X130155001Y-90135001D02*
X147135001Y-90135001D01*
X147135001Y-90135001D02*
X147590000Y-90590000D01*
X158374999Y-91634999D02*
X158830000Y-92090000D01*
X158830000Y-92090000D02*
X158830000Y-93230000D01*
X159285001Y-93685001D02*
X183254999Y-93685001D01*
X199590000Y-88860000D02*
X199650000Y-88800000D01*
X188090000Y-88860000D02*
X199590000Y-88860000D01*
%TO.N,7_~NPWR*%
X107624999Y-62344999D02*
X117704999Y-62344999D01*
X117704999Y-62344999D02*
X118039990Y-62679990D01*
X107560000Y-62280000D02*
X107624999Y-62344999D01*
X118039990Y-62679990D02*
X146389990Y-62679990D01*
X146389990Y-62679990D02*
X146739990Y-63029990D01*
X146739990Y-63029990D02*
X148540010Y-63029990D01*
X148940000Y-62630000D02*
X148940000Y-61850000D01*
X148540010Y-63029990D02*
X148940000Y-62630000D01*
X153600000Y-48270000D02*
X154130000Y-47740000D01*
X154130000Y-47740000D02*
X166290000Y-47740000D01*
X166290000Y-47740000D02*
X166780000Y-48230000D01*
X166780000Y-48230000D02*
X166780000Y-48760000D01*
X181284999Y-49005001D02*
X181660000Y-48630000D01*
X167025001Y-49005001D02*
X181284999Y-49005001D01*
X166780000Y-48760000D02*
X167025001Y-49005001D01*
X186805010Y-69460000D02*
X186825010Y-69480000D01*
X182550000Y-69460000D02*
X186805010Y-69460000D01*
X199070010Y-90760010D02*
X199650000Y-91340000D01*
X187165000Y-90760010D02*
X199070010Y-90760010D01*
X186825010Y-91100000D02*
X187165000Y-90760010D01*
%TO.N,7_NPS2*%
X199650000Y-104040000D02*
X200220000Y-104040000D01*
X199650000Y-104040000D02*
X200450000Y-104040000D01*
X200450000Y-104040000D02*
X200920000Y-103570000D01*
X200920000Y-103570000D02*
X200920000Y-100880000D01*
X200514999Y-100474999D02*
X195425001Y-100474999D01*
X200920000Y-100880000D02*
X200514999Y-100474999D01*
X195425001Y-100474999D02*
X194880000Y-99929998D01*
X194880000Y-99929998D02*
X194880000Y-98410000D01*
X194400000Y-97930000D02*
X152380000Y-97930000D01*
X194880000Y-98410000D02*
X194400000Y-97930000D01*
X199074999Y-125114999D02*
X199090000Y-125130000D01*
X188195001Y-125114999D02*
X199074999Y-125114999D01*
X187850000Y-125460000D02*
X188195001Y-125114999D01*
X187850000Y-125940000D02*
X187850000Y-125460000D01*
X187520000Y-126270000D02*
X187850000Y-125940000D01*
X170600000Y-126270000D02*
X187520000Y-126270000D01*
X170560000Y-126310000D02*
X170600000Y-126270000D01*
%TO.N,7_~NPS1*%
X195080000Y-134390000D02*
X200340000Y-134390000D01*
X194660010Y-134809990D02*
X195080000Y-134390000D01*
X149699990Y-134809990D02*
X194660010Y-134809990D01*
X149230000Y-134340000D02*
X149699990Y-134809990D01*
X149230000Y-132710000D02*
X149230000Y-132710000D01*
X149230000Y-132710000D02*
X149230000Y-134340000D01*
X107170000Y-94100000D02*
X100824990Y-94100000D01*
X104290000Y-125030000D02*
X104290000Y-122090000D01*
X104630000Y-125370000D02*
X104290000Y-125030000D01*
X128210000Y-125370000D02*
X104630000Y-125370000D01*
X128580000Y-125740000D02*
X128210000Y-125370000D01*
X128580000Y-135460000D02*
X128580000Y-125740000D01*
X129730000Y-136610000D02*
X128580000Y-135460000D01*
X148370000Y-136610000D02*
X129730000Y-136610000D01*
X104290000Y-122090000D02*
X103960000Y-121760000D01*
X103960000Y-121760000D02*
X99460000Y-121760000D01*
%TO.N,P61*%
X169760000Y-115350000D02*
X171180000Y-115350000D01*
X171180000Y-115350000D02*
X171584999Y-114945001D01*
X171584999Y-114945001D02*
X171584999Y-112895001D01*
X171584999Y-112895001D02*
X172150000Y-112330000D01*
X183860000Y-112330000D02*
X184390000Y-111800000D01*
X184390000Y-111800000D02*
X184390000Y-111130000D01*
X184980000Y-110540000D02*
X185860000Y-110540000D01*
X184390000Y-111130000D02*
X184980000Y-110540000D01*
X177420000Y-112330000D02*
X177420000Y-112750000D01*
X172150000Y-112330000D02*
X177420000Y-112330000D01*
X177420000Y-112330000D02*
X183860000Y-112330000D01*
X175660000Y-98780000D02*
X175660000Y-98670000D01*
X175660000Y-98670000D02*
X175370010Y-98380010D01*
X175370010Y-98380010D02*
X163439990Y-98380010D01*
X163054999Y-99845001D02*
X162620000Y-100280000D01*
X163439990Y-98380010D02*
X163054999Y-98765001D01*
X163054999Y-98765001D02*
X163054999Y-99845001D01*
%TO.N,P30*%
X196510000Y-113060000D02*
X196510000Y-112400000D01*
X196310000Y-112200000D02*
X188490000Y-112200000D01*
X196510000Y-112400000D02*
X196310000Y-112200000D01*
X203640000Y-126350000D02*
X196520000Y-126350000D01*
X203950000Y-126660000D02*
X203640000Y-126350000D01*
X203950000Y-129400000D02*
X203950000Y-126660000D01*
X203590000Y-129760000D02*
X203950000Y-129400000D01*
X193680000Y-129760000D02*
X203590000Y-129760000D01*
X193270000Y-129350000D02*
X193680000Y-129760000D01*
X183510000Y-129690000D02*
X183850000Y-129350000D01*
X183850000Y-129350000D02*
X193270000Y-129350000D01*
X183510000Y-130120000D02*
X183510000Y-129690000D01*
X183040000Y-130590000D02*
X183510000Y-130120000D01*
X147170000Y-130590000D02*
X183040000Y-130590000D01*
%TO.N,P71*%
X176090000Y-110170000D02*
X176519990Y-109740010D01*
X187280010Y-109740010D02*
X187700000Y-110160000D01*
X176519990Y-109740010D02*
X187280010Y-109740010D01*
%TO.N,Net-(U15-Pad8)*%
X125980000Y-86890000D02*
X126350000Y-86890000D01*
X126350000Y-86890000D02*
X126880000Y-86360000D01*
X126880000Y-86360000D02*
X126880000Y-85080000D01*
X126880000Y-85080000D02*
X127250000Y-84710000D01*
X127250000Y-84710000D02*
X131610000Y-84710000D01*
X131610000Y-84710000D02*
X132030000Y-84290000D01*
X132030000Y-84290000D02*
X132030000Y-79150000D01*
X132030000Y-79150000D02*
X132390000Y-78790000D01*
X132390000Y-78790000D02*
X138070000Y-78790000D01*
X138245000Y-78615000D02*
X138245000Y-78010000D01*
X138070000Y-78790000D02*
X138245000Y-78615000D01*
X129760000Y-91960000D02*
X130170000Y-92370000D01*
X124670000Y-91960000D02*
X129760000Y-91960000D01*
X137008771Y-122070000D02*
X160350000Y-122070000D01*
X136935000Y-122143771D02*
X137008771Y-122070000D01*
X178840001Y-128029999D02*
X179249990Y-127620010D01*
X160749999Y-128029999D02*
X178840001Y-128029999D01*
X160350000Y-127630000D02*
X160749999Y-128029999D01*
X196529990Y-127620010D02*
X196530000Y-127620000D01*
X179249990Y-127620010D02*
X196529990Y-127620010D01*
X196990000Y-105040000D02*
X192270000Y-105040000D01*
X139570000Y-41830000D02*
X103400000Y-41830000D01*
X103010000Y-42220000D02*
X103010000Y-42760000D01*
X103400000Y-41830000D02*
X103010000Y-42220000D01*
%TO.N,GCLK*%
X140400000Y-83950000D02*
X153980000Y-83950000D01*
X153990000Y-68620000D02*
X153990000Y-68040000D01*
X154260000Y-67770000D02*
X159590000Y-67770000D01*
X153990000Y-68040000D02*
X154260000Y-67770000D01*
X159600000Y-66120002D02*
X162020002Y-66120002D01*
X162020002Y-66120002D02*
X162520000Y-66620000D01*
X162520000Y-66620000D02*
X162520000Y-67020000D01*
X172209990Y-67430010D02*
X172730000Y-66910000D01*
X162930010Y-67430010D02*
X172209990Y-67430010D01*
X162520000Y-67020000D02*
X162930010Y-67430010D01*
X145800000Y-41200000D02*
X145600000Y-41000000D01*
X153190000Y-41200000D02*
X145800000Y-41200000D01*
X153570000Y-40820000D02*
X153190000Y-41200000D01*
X153570000Y-40360000D02*
X153570000Y-40820000D01*
X153810000Y-40120000D02*
X153570000Y-40360000D01*
X163400000Y-40120000D02*
X153810000Y-40120000D01*
X145440000Y-105970000D02*
X144610020Y-106799980D01*
X144610020Y-106799980D02*
X132810020Y-106799980D01*
X132810020Y-106799980D02*
X132704999Y-106905001D01*
%TO.N,P19*%
X142090000Y-112780000D02*
X142090000Y-112180000D01*
X142090000Y-112180000D02*
X142770010Y-111499990D01*
X150980010Y-111499990D02*
X151410000Y-111070000D01*
X142770010Y-111499990D02*
X150980010Y-111499990D01*
X193640000Y-99610000D02*
X192820000Y-98790000D01*
X192820000Y-98790000D02*
X181620000Y-98790000D01*
X190210000Y-65600000D02*
X190220000Y-65590000D01*
X185500000Y-65600000D02*
X190210000Y-65600000D01*
X190220000Y-40490000D02*
X188510000Y-40490000D01*
X188510000Y-40490000D02*
X188085001Y-40065001D01*
X188020001Y-39334999D02*
X175925001Y-39334999D01*
X188085001Y-39399999D02*
X188020001Y-39334999D01*
X188085001Y-40065001D02*
X188085001Y-39399999D01*
X175925001Y-39334999D02*
X175050000Y-40210000D01*
X175050000Y-40210000D02*
X165040000Y-40210000D01*
X164260000Y-40990000D02*
X154430000Y-40990000D01*
X165040000Y-40210000D02*
X164260000Y-40990000D01*
X177400000Y-98790000D02*
X177390000Y-98780000D01*
X181620000Y-98790000D02*
X177400000Y-98790000D01*
X177390000Y-97020000D02*
X176950000Y-97460000D01*
X176950000Y-97460000D02*
X169820000Y-97460000D01*
X169820000Y-97460000D02*
X169660000Y-97300000D01*
X169660000Y-97300000D02*
X169660000Y-96560000D01*
X169300000Y-96200000D02*
X165420000Y-96200000D01*
X169660000Y-96560000D02*
X169300000Y-96200000D01*
X125202264Y-54322264D02*
X125202264Y-52524439D01*
X125440010Y-54560010D02*
X125202264Y-54322264D01*
X150380000Y-52430000D02*
X149840000Y-52970000D01*
X149840000Y-52970000D02*
X149840000Y-53520000D01*
X144000000Y-53750000D02*
X143790000Y-53960000D01*
X134590010Y-54560010D02*
X125440010Y-54560010D01*
X143790000Y-53960000D02*
X143790000Y-55750000D01*
X125202264Y-52524439D02*
X125202264Y-51958754D01*
X134860000Y-55840000D02*
X134860000Y-54830000D01*
X149840000Y-53520000D02*
X149260000Y-54100000D01*
X134860000Y-54830000D02*
X134590010Y-54560010D01*
X149260000Y-54100000D02*
X147950000Y-54100000D01*
X147950000Y-54100000D02*
X147600000Y-53750000D01*
X147600000Y-53750000D02*
X144000000Y-53750000D01*
X154060000Y-52430000D02*
X150380000Y-52430000D01*
X143790000Y-55750000D02*
X143340011Y-56199989D01*
X135219989Y-56199989D02*
X134860000Y-55840000D01*
X143340011Y-56199989D02*
X135219989Y-56199989D01*
X183210010Y-119160010D02*
X183570000Y-119520000D01*
X180400010Y-119160010D02*
X183210010Y-119160010D01*
X180020000Y-118780000D02*
X180400010Y-119160010D01*
X180020000Y-118310020D02*
X180020000Y-118780000D01*
X179469980Y-117760000D02*
X180020000Y-118310020D01*
X183570000Y-119520000D02*
X193990000Y-119520000D01*
X166910000Y-117760000D02*
X179469980Y-117760000D01*
X166740000Y-114880000D02*
X166740000Y-117590000D01*
X166430000Y-114570000D02*
X166740000Y-114880000D01*
X151930000Y-114570000D02*
X166430000Y-114570000D01*
X166740000Y-117590000D02*
X166910000Y-117760000D01*
X151410000Y-114050000D02*
X151930000Y-114570000D01*
%TO.N,P45*%
X136510000Y-103020000D02*
X138090000Y-103020000D01*
X138840010Y-102269990D02*
X145610010Y-102269990D01*
X138090000Y-103020000D02*
X138840010Y-102269990D01*
X145610010Y-102269990D02*
X146210020Y-102870000D01*
X146210020Y-102870000D02*
X149550000Y-102870000D01*
X149740000Y-102680000D02*
X149740000Y-102080000D01*
X149550000Y-102870000D02*
X149740000Y-102680000D01*
X148500000Y-89860000D02*
X148500000Y-88520000D01*
X148180000Y-88200000D02*
X135670000Y-88200000D01*
X148500000Y-88520000D02*
X148180000Y-88200000D01*
X142170000Y-116390000D02*
X141940000Y-116620000D01*
X142170000Y-115990000D02*
X142170000Y-116390000D01*
X142449990Y-115710010D02*
X142170000Y-115990000D01*
X146250010Y-115710010D02*
X142449990Y-115710010D01*
X146440000Y-115900000D02*
X146250010Y-115710010D01*
X146440000Y-116220000D02*
X146440000Y-115900000D01*
X146790000Y-116570000D02*
X146440000Y-116220000D01*
X141940000Y-116620000D02*
X136440000Y-116620000D01*
X159500000Y-116570000D02*
X146790000Y-116570000D01*
X136440000Y-116620000D02*
X136440000Y-116620000D01*
%TO.N,P53*%
X173570000Y-105910000D02*
X164230000Y-105910000D01*
X163760000Y-106380000D02*
X163760000Y-108070000D01*
X164230000Y-105910000D02*
X163760000Y-106380000D01*
X157820000Y-71550000D02*
X157410010Y-71959990D01*
X157410010Y-71959990D02*
X135989990Y-71959990D01*
X135989990Y-71959990D02*
X135720000Y-71690000D01*
X135720000Y-71690000D02*
X135720000Y-70730000D01*
X135290000Y-70300000D02*
X127650000Y-70300000D01*
X135720000Y-70730000D02*
X135290000Y-70300000D01*
X161780000Y-83450000D02*
X158705020Y-83450000D01*
X162100000Y-84990000D02*
X162100000Y-83770000D01*
X162650000Y-85540000D02*
X162100000Y-84990000D01*
X164100000Y-85540000D02*
X162650000Y-85540000D01*
X164370010Y-88930010D02*
X164370010Y-85810010D01*
X164800000Y-89360000D02*
X164370010Y-88930010D01*
X165450000Y-89360000D02*
X164800000Y-89360000D01*
X164370010Y-85810010D02*
X164100000Y-85540000D01*
X165945003Y-89855003D02*
X165450000Y-89360000D01*
X162100000Y-83770000D02*
X161780000Y-83450000D01*
X165650000Y-92660000D02*
X165160000Y-92660000D01*
X165945003Y-92364997D02*
X165650000Y-92660000D01*
X165945003Y-90995003D02*
X165945003Y-92364997D01*
X165945003Y-89855003D02*
X165945003Y-90995003D01*
X165989990Y-91039990D02*
X165945003Y-90995003D01*
X175000000Y-90890000D02*
X174870010Y-90760010D01*
X175000000Y-92110000D02*
X175000000Y-90890000D01*
X173169990Y-90760010D02*
X172890010Y-91039990D01*
X174630000Y-92480000D02*
X175000000Y-92110000D01*
X172890010Y-91039990D02*
X165989990Y-91039990D01*
X172960000Y-92480000D02*
X174630000Y-92480000D01*
X174870010Y-90760010D02*
X173169990Y-90760010D01*
X172780000Y-92660000D02*
X172960000Y-92480000D01*
X127650000Y-64020000D02*
X124514979Y-64020000D01*
X124514979Y-64020000D02*
X124474979Y-63980000D01*
%TO.N,CLK*%
X168430000Y-129750000D02*
X159030000Y-129750000D01*
X162090010Y-109330010D02*
X168659990Y-109330010D01*
X162080000Y-109320000D02*
X162090010Y-109330010D01*
X168659990Y-109330010D02*
X169070000Y-108920000D01*
X169070000Y-108920000D02*
X169070000Y-108400000D01*
X169430000Y-108040000D02*
X171470000Y-108040000D01*
X169070000Y-108400000D02*
X169430000Y-108040000D01*
X173620000Y-91490000D02*
X173870000Y-91740000D01*
X171410000Y-91490000D02*
X173620000Y-91490000D01*
X170240000Y-92660000D02*
X171410000Y-91490000D01*
%TO.N,P47*%
X173150000Y-103470000D02*
X173160000Y-103480000D01*
X172310000Y-96600000D02*
X170520000Y-96600000D01*
X173729990Y-102570010D02*
X172990000Y-103310000D01*
X194660010Y-102570010D02*
X173729990Y-102570010D01*
X194850000Y-102760000D02*
X194660010Y-102570010D01*
X194850000Y-103340000D02*
X194850000Y-102760000D01*
X191550000Y-130090000D02*
X192300000Y-130090000D01*
X191040000Y-130600000D02*
X191550000Y-130090000D01*
X191040000Y-130990000D02*
X191040000Y-130600000D01*
X190510000Y-131520000D02*
X191040000Y-130990000D01*
X165020000Y-131520000D02*
X190510000Y-131520000D01*
X164490000Y-132050000D02*
X165020000Y-131520000D01*
X164490000Y-132680000D02*
X164490000Y-132050000D01*
%TO.N,LDC*%
X127610000Y-83900000D02*
X130450000Y-83900000D01*
X130640000Y-83710000D02*
X130640000Y-83070000D01*
X130450000Y-83900000D02*
X130640000Y-83710000D01*
X132330000Y-96710000D02*
X128470000Y-96710000D01*
X133510000Y-97890000D02*
X132330000Y-96710000D01*
%TO.N,P67*%
X193170000Y-114820000D02*
X193180000Y-114810000D01*
X178720000Y-114820000D02*
X193170000Y-114820000D01*
%TO.N,P27*%
X190570000Y-127170000D02*
X191440000Y-126300000D01*
X178760000Y-127170000D02*
X190570000Y-127170000D01*
X178430000Y-127500000D02*
X178760000Y-127170000D01*
X165090000Y-127500000D02*
X178430000Y-127500000D01*
X164880000Y-127290000D02*
X165090000Y-127500000D01*
X164880000Y-127060000D02*
X164880000Y-127290000D01*
X164560000Y-126740000D02*
X164880000Y-127060000D01*
X147600001Y-126740000D02*
X164560000Y-126740000D01*
X147170001Y-127170000D02*
X147600001Y-126740000D01*
%TO.N,Net-(U37-Pad2)*%
X108220000Y-66990000D02*
X111030000Y-66990000D01*
X107150000Y-65920000D02*
X108220000Y-66990000D01*
X106490000Y-65920000D02*
X107150000Y-65920000D01*
X113560000Y-76710000D02*
X113960000Y-77110000D01*
X123810000Y-77110000D02*
X124200000Y-76720000D01*
X113960000Y-77110000D02*
X123810000Y-77110000D01*
X124220000Y-95340000D02*
X124210000Y-95330000D01*
X128485000Y-95340000D02*
X124220000Y-95340000D01*
%TO.N,P24*%
X139530000Y-112780000D02*
X133120000Y-112780000D01*
%TO.N,P29*%
X142865010Y-130630000D02*
X142880000Y-130644990D01*
X138190000Y-130630000D02*
X142865010Y-130630000D01*
X101260000Y-76570000D02*
X101260000Y-76030000D01*
X101800000Y-77110000D02*
X101260000Y-76570000D01*
X112150000Y-77110000D02*
X101800000Y-77110000D01*
X112600010Y-77560010D02*
X112150000Y-77110000D01*
X134170010Y-77560010D02*
X112600010Y-77560010D01*
X134400000Y-77790000D02*
X134170010Y-77560010D01*
X134400000Y-78020000D02*
X134400000Y-77790000D01*
X98880000Y-63380000D02*
X99000000Y-63500000D01*
X98900000Y-63380000D02*
X98880000Y-63380000D01*
X99040000Y-63520000D02*
X98900000Y-63380000D01*
X101270000Y-63520000D02*
X99040000Y-63520000D01*
%TO.N,P42*%
X137450000Y-132650000D02*
X130190000Y-132650000D01*
X158180000Y-131820000D02*
X158169990Y-131830010D01*
X137670000Y-132430000D02*
X137450000Y-132650000D01*
X158169990Y-131830010D02*
X137949990Y-131830010D01*
X137949990Y-131830010D02*
X137670000Y-132110000D01*
X137670000Y-132110000D02*
X137670000Y-132430000D01*
X130190000Y-132650000D02*
X129490009Y-131950009D01*
X129490009Y-131950009D02*
X129490009Y-125010009D01*
X128674979Y-124194979D02*
X125600000Y-124194979D01*
X129490009Y-125010009D02*
X128674979Y-124194979D01*
%TO.N,Net-(U43-Pad4)*%
X125860000Y-117520000D02*
X126370000Y-117010000D01*
X126370000Y-117010000D02*
X129000000Y-117010000D01*
X129000000Y-117010000D02*
X129440000Y-117450000D01*
X129440000Y-118000000D02*
X129679990Y-118239990D01*
X129440000Y-117450000D02*
X129440000Y-118000000D01*
X129679990Y-118239990D02*
X174799990Y-118239990D01*
X174799990Y-118239990D02*
X175230000Y-118670000D01*
X175806998Y-122920000D02*
X189305010Y-122920000D01*
X175230000Y-122343002D02*
X175806998Y-122920000D01*
X175230000Y-118670000D02*
X175230000Y-122343002D01*
%TO.N,Net-(U42-Pad1)*%
X104090000Y-131970000D02*
X104090000Y-132680000D01*
X104430000Y-133020000D02*
X126650000Y-133020000D01*
X104090000Y-132680000D02*
X104430000Y-133020000D01*
%TD*%
M02*
