%TF.GenerationSoftware,KiCad,Pcbnew,(5.1.12)-1*%
%TF.CreationDate,2022-12-05T14:55:25+01:00*%
%TF.ProjectId,atonceplus,61746f6e-6365-4706-9c75-732e6b696361,rev?*%
%TF.SameCoordinates,Original*%
%TF.FileFunction,Soldermask,Bot*%
%TF.FilePolarity,Negative*%
%FSLAX46Y46*%
G04 Gerber Fmt 4.6, Leading zero omitted, Abs format (unit mm)*
G04 Created by KiCad (PCBNEW (5.1.12)-1) date 2022-12-05 14:55:25*
%MOMM*%
%LPD*%
G01*
G04 APERTURE LIST*
%ADD10C,2.700000*%
%ADD11C,1.400000*%
%ADD12R,1.400000X1.400000*%
%ADD13O,1.400000X1.400000*%
G04 APERTURE END LIST*
D10*
%TO.C,REF\u002A\u002A*%
X209270000Y-135270000D03*
%TD*%
%TO.C,REF\u002A\u002A*%
X98350000Y-43050000D03*
%TD*%
D11*
%TO.C,J1*%
X109020000Y-139580000D03*
X109020000Y-137040000D03*
X109020000Y-134500000D03*
X109020000Y-131960000D03*
X109020000Y-129420000D03*
X109020000Y-126880000D03*
X109020000Y-124340000D03*
X109020000Y-121800000D03*
X109020000Y-119260000D03*
X109020000Y-116720000D03*
X109020000Y-114180000D03*
X109020000Y-111640000D03*
X109020000Y-109100000D03*
X109020000Y-106560000D03*
X109020000Y-104020000D03*
X109020000Y-101480000D03*
X109020000Y-98940000D03*
X109020000Y-96400000D03*
X109020000Y-93860000D03*
X109020000Y-91320000D03*
X109020000Y-88780000D03*
X109020000Y-86240000D03*
X109020000Y-83700000D03*
X109020000Y-81160000D03*
X109020000Y-78620000D03*
X109020000Y-76080000D03*
X109020000Y-73540000D03*
X109020000Y-71000000D03*
X109020000Y-68460000D03*
X109020000Y-65920000D03*
X109020000Y-63380000D03*
X109020000Y-60840000D03*
X86160000Y-60840000D03*
X86160000Y-63380000D03*
X86160000Y-65920000D03*
X86160000Y-68460000D03*
X86160000Y-71000000D03*
X86160000Y-73540000D03*
X86160000Y-76080000D03*
X86160000Y-78620000D03*
X86160000Y-81160000D03*
X86160000Y-83700000D03*
X86160000Y-86240000D03*
X86160000Y-88780000D03*
X86160000Y-91320000D03*
X86160000Y-93860000D03*
X86160000Y-96400000D03*
X86160000Y-98940000D03*
X86160000Y-101480000D03*
X86160000Y-104020000D03*
X86160000Y-106560000D03*
X86160000Y-109100000D03*
X86160000Y-111640000D03*
X86160000Y-114180000D03*
X86160000Y-116720000D03*
X86160000Y-119260000D03*
X86160000Y-121800000D03*
X86160000Y-124340000D03*
X86160000Y-126880000D03*
X86160000Y-129420000D03*
X86160000Y-131960000D03*
X86160000Y-134500000D03*
X86160000Y-137040000D03*
X86160000Y-139580000D03*
%TD*%
%TO.C,J2*%
X93890000Y-119250000D03*
X93890000Y-116710000D03*
X93890000Y-114170000D03*
X93890000Y-111630000D03*
X93890000Y-109090000D03*
X93890000Y-106550000D03*
X93890000Y-104010000D03*
X93890000Y-101470000D03*
X93890000Y-98930000D03*
X93890000Y-96390000D03*
X93890000Y-93850000D03*
X93890000Y-91310000D03*
X93890000Y-88770000D03*
X93890000Y-86230000D03*
X93890000Y-83690000D03*
X93890000Y-81150000D03*
X93890000Y-78610000D03*
X93890000Y-76070000D03*
X93890000Y-73530000D03*
X93890000Y-70990000D03*
X93890000Y-68450000D03*
X93890000Y-65910000D03*
X93890000Y-63370000D03*
X93890000Y-60830000D03*
X93890000Y-58290000D03*
X93890000Y-55750000D03*
X93890000Y-53210000D03*
X93890000Y-50670000D03*
X93890000Y-48130000D03*
X93890000Y-45590000D03*
X93890000Y-43050000D03*
X93890000Y-40510000D03*
X116750000Y-40510000D03*
X116750000Y-43050000D03*
X116750000Y-45590000D03*
X116750000Y-48130000D03*
X116750000Y-50670000D03*
X116750000Y-53210000D03*
X116750000Y-55750000D03*
X116750000Y-58290000D03*
X116750000Y-60830000D03*
X116750000Y-63370000D03*
X116750000Y-65910000D03*
X116750000Y-68450000D03*
X116750000Y-70990000D03*
X116750000Y-73530000D03*
X116750000Y-76070000D03*
X116750000Y-78610000D03*
X116750000Y-81150000D03*
X116750000Y-83690000D03*
X116750000Y-86230000D03*
X116750000Y-88770000D03*
X116750000Y-91310000D03*
X116750000Y-93850000D03*
X116750000Y-96390000D03*
X116750000Y-98930000D03*
X116750000Y-101470000D03*
X116750000Y-104010000D03*
X116750000Y-106550000D03*
X116750000Y-109090000D03*
X116750000Y-111630000D03*
X116750000Y-114170000D03*
X116750000Y-116710000D03*
X116750000Y-119250000D03*
%TD*%
D12*
%TO.C,Q1*%
X191540000Y-91930000D03*
D11*
X183920000Y-91930000D03*
X183920000Y-76690000D03*
X191540000Y-76690000D03*
%TD*%
D12*
%TO.C,U14*%
X214890000Y-121820000D03*
D13*
X199650000Y-73560000D03*
X214890000Y-119280000D03*
X199650000Y-76100000D03*
X214890000Y-116740000D03*
X199650000Y-78640000D03*
X214890000Y-114200000D03*
X199650000Y-81180000D03*
X214890000Y-111660000D03*
X199650000Y-83720000D03*
X214890000Y-109120000D03*
X199650000Y-86260000D03*
X214890000Y-106580000D03*
X199650000Y-88800000D03*
X214890000Y-104040000D03*
X199650000Y-91340000D03*
X214890000Y-101500000D03*
X199650000Y-93880000D03*
X214890000Y-98960000D03*
X199650000Y-96420000D03*
X214890000Y-96420000D03*
X199650000Y-98960000D03*
X214890000Y-93880000D03*
X199650000Y-101500000D03*
X214890000Y-91340000D03*
X199650000Y-104040000D03*
X214890000Y-88800000D03*
X199650000Y-106580000D03*
X214890000Y-86260000D03*
X199650000Y-109120000D03*
X214890000Y-83720000D03*
X199650000Y-111660000D03*
X214890000Y-81180000D03*
X199650000Y-114200000D03*
X214890000Y-78640000D03*
X199650000Y-116740000D03*
X214890000Y-76100000D03*
X199650000Y-119280000D03*
X214890000Y-73560000D03*
X199650000Y-121820000D03*
%TD*%
%TO.C,U22*%
X149920000Y-92660000D03*
X172780000Y-100280000D03*
X152460000Y-92660000D03*
X170240000Y-100280000D03*
X155000000Y-92660000D03*
X167700000Y-100280000D03*
X157540000Y-92660000D03*
X165160000Y-100280000D03*
X160080000Y-92660000D03*
X162620000Y-100280000D03*
X162620000Y-92660000D03*
X160080000Y-100280000D03*
X165160000Y-92660000D03*
X157540000Y-100280000D03*
X167700000Y-92660000D03*
X155000000Y-100280000D03*
X170240000Y-92660000D03*
X152460000Y-100280000D03*
X172780000Y-92660000D03*
D12*
X149920000Y-100280000D03*
%TD*%
%TO.C,U44*%
X98870000Y-63380000D03*
D13*
X106490000Y-86240000D03*
X98870000Y-65920000D03*
X106490000Y-83700000D03*
X98870000Y-68460000D03*
X106490000Y-81160000D03*
X98870000Y-71000000D03*
X106490000Y-78620000D03*
X98870000Y-73540000D03*
X106490000Y-76080000D03*
X98870000Y-76080000D03*
X106490000Y-73540000D03*
X98870000Y-78620000D03*
X106490000Y-71000000D03*
X98870000Y-81160000D03*
X106490000Y-68460000D03*
X98870000Y-83700000D03*
X106490000Y-65920000D03*
X98870000Y-86240000D03*
X106490000Y-63380000D03*
%TD*%
%TO.C,U31*%
X215070000Y-40360000D03*
X207450000Y-63220000D03*
X215070000Y-42900000D03*
X207450000Y-60680000D03*
X215070000Y-45440000D03*
X207450000Y-58140000D03*
X215070000Y-47980000D03*
X207450000Y-55600000D03*
X215070000Y-50520000D03*
X207450000Y-53060000D03*
X215070000Y-53060000D03*
X207450000Y-50520000D03*
X215070000Y-55600000D03*
X207450000Y-47980000D03*
X215070000Y-58140000D03*
X207450000Y-45440000D03*
X215070000Y-60680000D03*
X207450000Y-42900000D03*
X215070000Y-63220000D03*
D12*
X207450000Y-40360000D03*
%TD*%
%TO.C,U32*%
X197230000Y-40360000D03*
D13*
X204850000Y-63220000D03*
X197230000Y-42900000D03*
X204850000Y-60680000D03*
X197230000Y-45440000D03*
X204850000Y-58140000D03*
X197230000Y-47980000D03*
X204850000Y-55600000D03*
X197230000Y-50520000D03*
X204850000Y-53060000D03*
X197230000Y-53060000D03*
X204850000Y-50520000D03*
X197230000Y-55600000D03*
X204850000Y-47980000D03*
X197230000Y-58140000D03*
X204850000Y-45440000D03*
X197230000Y-60680000D03*
X204850000Y-42900000D03*
X197230000Y-63220000D03*
X204850000Y-40360000D03*
%TD*%
D12*
%TO.C,U33*%
X187060000Y-40360000D03*
D13*
X194680000Y-63220000D03*
X187060000Y-42900000D03*
X194680000Y-60680000D03*
X187060000Y-45440000D03*
X194680000Y-58140000D03*
X187060000Y-47980000D03*
X194680000Y-55600000D03*
X187060000Y-50520000D03*
X194680000Y-53060000D03*
X187060000Y-53060000D03*
X194680000Y-50520000D03*
X187060000Y-55600000D03*
X194680000Y-47980000D03*
X187060000Y-58140000D03*
X194680000Y-45440000D03*
X187060000Y-60680000D03*
X194680000Y-42900000D03*
X187060000Y-63220000D03*
X194680000Y-40360000D03*
%TD*%
%TO.C,U34*%
X184450000Y-40360000D03*
X176830000Y-63220000D03*
X184450000Y-42900000D03*
X176830000Y-60680000D03*
X184450000Y-45440000D03*
X176830000Y-58140000D03*
X184450000Y-47980000D03*
X176830000Y-55600000D03*
X184450000Y-50520000D03*
X176830000Y-53060000D03*
X184450000Y-53060000D03*
X176830000Y-50520000D03*
X184450000Y-55600000D03*
X176830000Y-47980000D03*
X184450000Y-58140000D03*
X176830000Y-45440000D03*
X184450000Y-60680000D03*
X176830000Y-42900000D03*
X184450000Y-63220000D03*
D12*
X176830000Y-40360000D03*
%TD*%
M02*
