M48
; DRILL file {KiCad (5.1.12)-1} date 12/05/22 14:55:19
; FORMAT={-:-/ absolute / metric / decimal}
; #@! TF.CreationDate,2022-12-05T14:55:19+01:00
; #@! TF.GenerationSoftware,Kicad,Pcbnew,(5.1.12)-1
; #@! TF.FileFunction,Plated,1,4,PTH
FMAT,2
METRIC
T1C0.400
T2C0.800
%
G90
G05
T1
X84.19Y-97.48
X84.67Y-58.49
X85.06Y-100.12
X87.52Y-43.68
X87.52Y-46.185
X87.73Y-89.11
X87.88Y-138.3
X88.0Y-140.91
X88.44Y-129.84
X88.47Y-103.57
X88.53Y-56.42
X89.77Y-94.89
X90.18Y-70.37
X90.63Y-112.67
X90.64Y-92.35
X91.51Y-39.31
X91.79Y-132.75
X92.29Y-44.91
X94.44Y-130.15
X94.88Y-77.52
X94.88Y-105.62
X94.89Y-52.04
X95.23Y-122.2
X95.23Y-123.47
X95.3Y-71.63
X95.72Y-96.26
X96.13Y-126.41
X96.575Y-69.11
X96.93Y-135.32
X97.18Y-67.01
X97.38Y-110.58
X97.42Y-83.09
X97.45Y-117.43
X97.53Y-46.63
X97.78Y-120.92
X98.18Y-130.26
X98.29Y-99.29
X98.67Y-119.19
X99.12Y-90.32
X99.46Y-121.76
X99.535Y-117.45
X99.57Y-58.46
X100.04Y-72.52
X100.07Y-82.65
X100.52Y-119.47
X100.79Y-102.64
X100.825Y-94.1
X100.825Y-79.67
X100.86Y-53.8
X101.15Y-137.39
X101.25Y-57.19
X101.25Y-62.22
X101.26Y-45.75
X101.26Y-76.03
X101.27Y-63.52
X101.71Y-105.15
X102.06Y-131.56
X102.89Y-112.92
X102.9Y-106.91
X102.92Y-69.05
X102.97Y-139.1
X103.01Y-42.76
X103.32Y-100.33
X103.8Y-87.77
X103.84Y-82.65
X104.09Y-131.97
X104.67Y-59.76
X104.99Y-110.58
X105.015Y-123.06
X105.095Y-72.515
X105.11Y-124.645
X105.12Y-55.05
X105.13Y-108.56
X105.14Y-85.22
X105.32Y-56.92
X105.78Y-43.77
X105.86Y-92.85
X106.025Y-132.155
X106.32Y-102.53
X106.58Y-48.05
X106.75Y-121.76
X106.8Y-53.35
X106.81Y-49.31
X107.15Y-104.335
X107.17Y-94.1
X107.19Y-87.79
X107.56Y-62.28
X107.62Y-117.45
X107.69Y-61.03
X108.0Y-69.92
X108.0Y-107.77
X109.77Y-58.78
X109.79Y-39.79
X110.24Y-110.28
X110.5Y-135.11
X110.59Y-94.53
X110.6Y-117.35
X110.68Y-41.05
X111.03Y-66.99
X111.03Y-71.21
X111.51Y-73.355
X111.78Y-135.29
X112.25Y-83.96
X112.28Y-132.15
X112.29Y-80.45
X112.33Y-90.27
X112.36Y-109.84
X112.36Y-111.93
X112.74Y-69.09
X112.81Y-55.0
X112.89Y-119.5
X113.05Y-134.46
X113.085Y-108.5
X113.11Y-75.42
X113.16Y-57.17
X113.175Y-88.47
X113.55Y-70.37
X113.56Y-76.71
X113.65Y-81.41
X113.95Y-128.51
X113.98Y-129.725
X114.11Y-50.77
X114.44Y-78.61
X114.79Y-107.26
X114.83Y-100.95
X114.87Y-94.51
X115.15Y-132.11
X115.23Y-102.59
X115.23Y-106.01
X115.3Y-72.9
X115.6Y-139.13
X117.37Y-123.86
X117.77Y-132.12
X117.78Y-107.7
X118.25Y-72.9
X118.27Y-50.38
X118.57Y-96.63
X118.63Y-95.34
X119.07Y-61.85
X119.09Y-81.86
X119.15Y-80.56
X119.48Y-123.02
X119.52Y-93.72
X119.61Y-52.48
X119.61Y-58.41
X119.82Y-130.96
X119.82Y-138.31
X119.965Y-90.68
X119.965Y-92.02
X120.36Y-72.02
X120.4Y-82.65
X120.42Y-57.16
X120.69Y-127.63
X120.69Y-129.76
X120.7Y-134.02
X120.74Y-87.78
X120.74Y-122.98
X120.77Y-73.31
X120.77Y-81.42
X120.77Y-96.63
X120.77Y-106.84
X120.81Y-85.18
X120.85Y-39.78
X121.23Y-117.38
X121.68Y-94.49
X121.73Y-53.32
X121.77Y-100.94
X121.79Y-111.65
X121.84Y-114.91
X121.88Y-104.14
X121.89Y-48.08
X122.44Y-118.24
X122.5Y-121.31
X122.52Y-54.69
X122.59Y-51.69
X123.33Y-115.76
X123.49Y-136.695
X124.2Y-76.72
X124.21Y-95.33
X124.42Y-112.28
X124.47Y-45.71
X124.475Y-63.98
X124.475Y-65.73
X124.57Y-90.69
X124.59Y-101.62
X124.63Y-49.12
X124.65Y-55.5
X124.67Y-91.96
X124.67Y-93.28
X124.73Y-75.39
X124.77Y-134.08
X124.79Y-127.85
X125.04Y-47.905
X125.202Y-51.959
X125.25Y-88.61
X125.46Y-113.16
X125.475Y-71.632
X125.51Y-74.59
X125.6Y-124.195
X125.785Y-80.95
X125.785Y-85.65
X125.85Y-107.67
X125.86Y-117.52
X125.98Y-86.89
X126.11Y-90.7
X126.21Y-140.89
X126.36Y-79.2
X126.4Y-60.57
X126.473Y-71.565
X126.48Y-64.83
X126.65Y-133.02
X126.79Y-73.7
X127.08Y-139.14
X127.28Y-51.7
X127.45Y-80.92
X127.61Y-83.9
X127.65Y-64.02
X127.65Y-70.3
X127.69Y-136.17
X128.005Y-121.282
X128.07Y-73.73
X128.1Y-47.43
X128.19Y-120.03
X128.24Y-61.46
X128.38Y-79.26
X128.4Y-117.92
X128.47Y-96.71
X128.485Y-95.34
X128.5Y-60.13
X128.79Y-101.37
X128.81Y-123.35
X128.88Y-57.13
X128.89Y-63.96
X128.94Y-81.92
X129.31Y-108.1
X129.37Y-90.74
X129.7Y-102.63
X129.74Y-49.13
X129.75Y-66.92
X129.895Y-134.03
X130.17Y-85.62
X130.17Y-92.37
X130.23Y-50.975
X130.265Y-117.38
X130.57Y-81.8
X130.63Y-89.41
X130.64Y-83.07
X130.7Y-45.275
X130.7Y-122.625
X130.72Y-63.98
X130.8Y-125.517
X130.895Y-86.87
X131.02Y-112.37
X131.43Y-102.19
X131.43Y-120.02
X131.82Y-135.73
X131.97Y-56.7
X132.06Y-113.7
X132.41Y-51.755
X132.705Y-106.905
X133.12Y-112.78
X133.18Y-110.28
X133.34Y-102.81
X133.51Y-97.89
X133.98Y-55.48
X133.99Y-115.32
X134.02Y-94.55
X134.32Y-131.91
X134.39Y-128.94
X134.4Y-78.02
X134.45Y-92.83
X134.46Y-71.57
X134.46Y-75.84
X134.46Y-86.08
X134.48Y-82.22
X134.49Y-72.84
X134.49Y-105.6
X134.5Y-61.42
X134.56Y-91.59
X134.57Y-40.995
X134.76Y-125.55
X134.8Y-103.89
X134.91Y-108.06
X135.27Y-120.02
X135.67Y-88.2
X135.685Y-99.61
X135.74Y-55.44
X135.74Y-63.51
X135.91Y-51.53
X136.06Y-115.34
X136.1Y-125.83
X136.44Y-116.62
X136.51Y-103.02
X136.585Y-94.56
X136.935Y-122.144
X136.95Y-79.66
X136.99Y-69.06
X137.03Y-65.69
X137.45Y-51.68
X137.45Y-58.85
X137.88Y-99.21
X137.935Y-49.855
X138.19Y-130.63
X138.245Y-78.01
X138.55Y-132.72
X138.66Y-81.77
X138.71Y-63.48
X139.095Y-65.68
X139.1Y-87.37
X139.47Y-59.09
X139.53Y-112.78
X139.57Y-41.83
X139.91Y-104.71
X139.92Y-108.11
X139.94Y-73.7
X139.96Y-99.21
X139.97Y-120.11
X140.34Y-137.41
X140.35Y-89.05
X140.36Y-49.5
X140.4Y-83.95
X140.42Y-77.54
X140.67Y-135.72
X140.78Y-127.17
X140.84Y-112.76
X141.18Y-98.41
X141.2Y-82.22
X141.2Y-91.59
X141.27Y-42.65
X141.6Y-108.48
X141.64Y-75.83
X141.67Y-77.97
X142.09Y-112.78
X142.15Y-41.0
X142.18Y-39.32
X142.309Y-103.899
X142.48Y-81.8
X142.51Y-80.51
X142.58Y-46.95
X142.59Y-45.67
X142.83Y-98.91
X142.88Y-130.645
X142.9Y-86.3
X142.91Y-70.35
X142.91Y-73.45
X142.92Y-109.36
X142.98Y-52.89
X143.19Y-133.2
X143.26Y-135.73
X143.3Y-112.73
X143.32Y-116.91
X143.33Y-124.67
X143.4Y-61.41
X143.41Y-120.12
X143.79Y-75.83
X143.82Y-100.06
X144.13Y-85.61
X144.19Y-58.39
X144.22Y-77.11
X144.23Y-52.01
X144.24Y-80.96
X144.24Y-106.02
X144.26Y-38.91
X144.26Y-65.89
X144.67Y-55.88
X144.68Y-91.15
X144.73Y-54.55
X145.07Y-134.095
X145.44Y-105.97
X145.6Y-41.0
X146.07Y-98.84
X146.08Y-92.88
X146.8Y-102.12
X147.15Y-128.88
X147.17Y-125.9
X147.17Y-130.59
X147.17Y-127.17
X147.21Y-115.26
X147.46Y-119.94
X147.59Y-40.4
X147.62Y-114.03
X147.65Y-62.22
X147.66Y-58.04
X148.03Y-74.52
X148.05Y-123.8
X148.07Y-43.17
X148.128Y-81.78
X148.15Y-66.92
X148.17Y-69.05
X148.37Y-136.61
X148.43Y-53.09
X148.49Y-107.345
X148.5Y-89.86
X148.54Y-86.03
X148.94Y-61.85
X149.23Y-132.71
X149.31Y-72.84
X149.35Y-68.59
X149.72Y-97.49
X149.73Y-108.07
X149.74Y-102.08
X149.76Y-79.66
X149.76Y-83.09
X149.79Y-48.22
X149.79Y-49.92
X149.8Y-60.5
X150.06Y-44.2
X150.13Y-51.67
X150.17Y-77.51
X150.19Y-46.5
X150.63Y-66.07
X150.98Y-75.82
X151.05Y-54.16
X151.05Y-108.08
X151.41Y-111.07
X151.41Y-114.05
X151.76Y-60.57
X151.87Y-84.78
X151.89Y-89.86
X151.9Y-66.51
X152.29Y-102.59
X152.36Y-54.54
X152.38Y-97.93
X152.71Y-73.21
X152.71Y-80.05
X152.73Y-108.02
X152.73Y-111.52
X152.75Y-62.21
X153.14Y-90.6
X153.6Y-48.27
X153.6Y-49.53
X153.62Y-54.56
X153.66Y-46.9
X153.96Y-108.92
X153.98Y-83.95
X153.99Y-68.62
X154.01Y-56.7
X154.06Y-52.43
X154.38Y-128.05
X154.38Y-132.587
X154.41Y-94.56
X154.43Y-40.99
X154.8Y-95.76
X154.83Y-71.18
X154.88Y-62.15
X154.88Y-80.95
X155.3Y-77.11
X155.7Y-75.36
X155.76Y-79.23
X156.09Y-108.06
X156.1Y-102.58
X156.15Y-94.1
X156.18Y-60.51
X156.54Y-90.64
X156.62Y-71.13
X156.91Y-128.88
X157.0Y-110.17
X157.1Y-48.69
X157.38Y-107.24
X157.424Y-66.113
X157.47Y-39.25
X157.8Y-60.54
X157.82Y-71.55
X157.87Y-52.83
X158.18Y-131.82
X158.26Y-86.19
X158.3Y-49.53
X158.67Y-96.18
X158.705Y-83.45
X159.03Y-129.75
X159.42Y-132.11
X159.5Y-116.57
X159.52Y-81.79
X159.54Y-110.17
X159.54Y-115.295
X159.55Y-59.68
X159.59Y-67.77
X159.6Y-66.12
X159.64Y-56.31
X159.65Y-46.175
X159.68Y-107.85
X159.99Y-89.81
X160.03Y-62.15
X160.34Y-119.16
X160.35Y-122.07
X160.35Y-127.63
X160.39Y-84.32
X160.78Y-91.06
X160.79Y-86.15
X160.8Y-110.21
X160.84Y-75.36
X160.85Y-51.18
X161.21Y-57.08
X161.29Y-62.18
X161.67Y-82.57
X161.7Y-60.53
X161.97Y-140.39
X162.08Y-109.32
X162.09Y-46.09
X162.1Y-86.34
X162.42Y-131.47
X162.49Y-97.03
X162.89Y-78.37
X162.92Y-125.1
X162.94Y-137.39
X162.96Y-83.45
X163.31Y-86.31
X163.39Y-56.31
X163.4Y-40.12
X163.72Y-101.31
X163.76Y-108.07
X163.78Y-90.22
X163.78Y-99.16
X163.79Y-71.1
X163.826Y-66.102
X164.11Y-97.04
X164.25Y-81.34
X164.33Y-75.8
X164.49Y-132.68
X164.62Y-123.0
X164.66Y-50.87
X164.665Y-136.595
X164.76Y-113.14
X165.12Y-85.66
X165.13Y-46.9
X165.42Y-96.2
X165.46Y-116.12
X165.51Y-76.26
X165.52Y-71.09
X165.79Y-137.41
X165.85Y-126.7
X165.9Y-78.37
X165.93Y-107.21
X165.97Y-66.12
X166.42Y-42.27
X166.67Y-90.12
X166.71Y-57.085
X167.21Y-140.73
X167.23Y-103.315
X167.61Y-86.48
X167.61Y-95.425
X167.68Y-49.91
X167.69Y-48.21
X167.84Y-75.95
X167.99Y-116.57
X167.99Y-125.9
X168.04Y-90.2
X168.05Y-111.07
X168.07Y-80.45
X168.43Y-129.75
X168.46Y-103.44
X168.9Y-97.05
X168.9Y-113.15
X168.91Y-121.73
X168.92Y-56.23
X169.35Y-47.78
X169.76Y-115.35
X169.79Y-49.87
X169.79Y-63.88
X169.8Y-60.54
X170.17Y-109.31
X170.22Y-62.18
X170.52Y-96.6
X170.545Y-88.11
X170.56Y-126.31
X170.735Y-124.25
X171.01Y-61.0
X171.01Y-103.49
X171.05Y-52.27
X171.46Y-59.25
X171.46Y-109.32
X171.47Y-108.04
X171.48Y-57.93
X171.56Y-119.94
X172.265Y-102.12
X172.27Y-71.53
X172.28Y-125.05
X172.3Y-83.86
X172.31Y-73.23
X172.31Y-96.6
X172.31Y-114.42
X172.73Y-66.91
X172.78Y-75.36
X172.99Y-103.31
X173.18Y-46.05
X173.57Y-105.91
X173.6Y-56.23
X173.87Y-91.74
X174.38Y-69.02
X174.4Y-67.3
X174.41Y-49.88
X174.42Y-39.19
X174.78Y-94.975
X174.79Y-60.56
X175.44Y-89.29
X175.66Y-98.78
X175.71Y-80.46
X176.05Y-124.22
X176.07Y-122.11
X176.09Y-110.17
X176.11Y-117.0
X176.13Y-105.47
X176.13Y-118.67
X176.14Y-113.57
X176.5Y-101.69
X176.54Y-100.0
X176.58Y-111.47
X177.39Y-97.02
X177.39Y-98.78
X177.42Y-112.75
X177.42Y-121.24
X177.44Y-95.425
X177.44Y-114.45
X177.86Y-100.01
X178.21Y-69.49
X178.27Y-78.37
X178.72Y-114.82
X178.73Y-104.67
X179.13Y-103.41
X179.87Y-128.4
X180.01Y-108.87
X180.03Y-105.56
X180.39Y-121.27
X180.42Y-125.05
X180.43Y-85.11
X180.77Y-88.11
X180.82Y-83.45
X180.84Y-40.93
X181.23Y-129.31
X181.24Y-57.12
X181.6Y-133.99
X181.62Y-98.79
X181.66Y-48.63
X181.68Y-119.965
X181.71Y-72.39
X181.74Y-116.95
X181.86Y-67.74
X181.88Y-107.69
X182.1Y-54.55
X182.1Y-52.85
X182.49Y-101.69
X182.55Y-69.46
X182.94Y-121.71
X182.94Y-125.07
X183.31Y-133.55
X183.35Y-100.01
X183.37Y-80.46
X184.22Y-118.71
X184.37Y-117.32
X184.46Y-130.075
X184.5Y-105.33
X184.67Y-73.23
X184.69Y-66.85
X185.07Y-100.39
X185.47Y-106.75
X185.49Y-118.69
X185.5Y-65.6
X185.53Y-112.29
X185.86Y-110.54
X186.32Y-101.29
X186.825Y-69.48
X186.825Y-91.1
X187.67Y-77.92
X187.67Y-86.83
X187.7Y-110.16
X188.07Y-117.33
X188.09Y-88.86
X188.09Y-92.37
X188.11Y-94.5
X188.17Y-95.72
X188.37Y-130.62
X188.49Y-112.2
X188.59Y-45.62
X188.92Y-125.84
X189.305Y-122.92
X189.31Y-75.32
X189.34Y-38.82
X189.35Y-73.21
X190.196Y-117.867
X190.2Y-71.52
X190.2Y-113.12
X190.22Y-40.49
X190.22Y-65.59
X190.63Y-105.11
X190.64Y-101.25
X190.64Y-106.35
X191.05Y-79.21
X191.05Y-86.84
X191.44Y-126.3
X191.46Y-117.35
X191.93Y-83.03
X192.0Y-118.74
X192.03Y-131.45
X192.11Y-106.77
X192.13Y-67.74
X192.27Y-99.57
X192.27Y-105.04
X192.28Y-94.02
X192.3Y-101.68
X192.3Y-130.09
X192.31Y-79.17
X192.32Y-69.45
X192.75Y-45.17
X193.18Y-114.81
X193.64Y-99.61
X193.98Y-68.59
X193.99Y-119.52
X194.02Y-67.26
X194.13Y-128.88
X194.78Y-131.84
X194.85Y-103.34
X194.91Y-74.93
X195.32Y-77.43
X195.325Y-83.451
X195.64Y-135.22
X195.76Y-43.94
X196.41Y-106.44
X196.48Y-97.9
X196.51Y-113.06
X196.52Y-126.35
X196.53Y-102.12
X196.53Y-127.62
X196.62Y-84.3
X196.94Y-136.05
X196.99Y-105.04
X197.435Y-86.8
X197.77Y-133.48
X198.27Y-92.68
X198.31Y-97.84
X199.09Y-125.13
X199.57Y-65.98
X200.34Y-134.39
X202.39Y-67.74
X202.55Y-109.25
X202.87Y-127.08
X202.93Y-139.89
X202.96Y-110.63
X202.98Y-51.11
X203.37Y-95.68
X203.4Y-41.76
X203.41Y-81.18
X203.42Y-97.43
X204.63Y-111.84
X204.63Y-125.81
X205.07Y-88.55
X205.08Y-73.63
X205.17Y-79.99
X205.51Y-83.72
X205.52Y-89.74
X206.03Y-130.76
X206.28Y-122.93
X207.15Y-132.64
X207.42Y-98.67
X208.05Y-74.82
X208.46Y-69.47
X208.49Y-102.12
X208.7Y-130.75
X209.4Y-76.17
X209.75Y-88.9
X209.75Y-124.27
X210.2Y-74.82
X210.59Y-81.8
X210.6Y-83.88
X211.01Y-73.62
X211.84Y-139.51
X211.87Y-69.785
X211.91Y-71.465
X212.57Y-121.97
X212.59Y-67.78
X212.59Y-114.34
X212.665Y-77.01
X212.7Y-97.79
X212.739Y-82.48
X213.42Y-138.61
X213.9Y-118.03
X214.49Y-70.75
X214.9Y-71.9
X216.12Y-120.79
X216.57Y-40.97
T2
X86.16Y-60.84
X86.16Y-63.38
X86.16Y-65.92
X86.16Y-68.46
X86.16Y-71.0
X86.16Y-73.54
X86.16Y-76.08
X86.16Y-78.62
X86.16Y-81.16
X86.16Y-83.7
X86.16Y-86.24
X86.16Y-88.78
X86.16Y-91.32
X86.16Y-93.86
X86.16Y-96.4
X86.16Y-98.94
X86.16Y-101.48
X86.16Y-104.02
X86.16Y-106.56
X86.16Y-109.1
X86.16Y-111.64
X86.16Y-114.18
X86.16Y-116.72
X86.16Y-119.26
X86.16Y-121.8
X86.16Y-124.34
X86.16Y-126.88
X86.16Y-129.42
X86.16Y-131.96
X86.16Y-134.5
X86.16Y-137.04
X86.16Y-139.58
X93.89Y-40.51
X93.89Y-43.05
X93.89Y-45.59
X93.89Y-48.13
X93.89Y-50.67
X93.89Y-53.21
X93.89Y-55.75
X93.89Y-58.29
X93.89Y-60.83
X93.89Y-63.37
X93.89Y-65.91
X93.89Y-68.45
X93.89Y-70.99
X93.89Y-73.53
X93.89Y-76.07
X93.89Y-78.61
X93.89Y-81.15
X93.89Y-83.69
X93.89Y-86.23
X93.89Y-88.77
X93.89Y-91.31
X93.89Y-93.85
X93.89Y-96.39
X93.89Y-98.93
X93.89Y-101.47
X93.89Y-104.01
X93.89Y-106.55
X93.89Y-109.09
X93.89Y-111.63
X93.89Y-114.17
X93.89Y-116.71
X93.89Y-119.25
X98.87Y-63.38
X98.87Y-65.92
X98.87Y-68.46
X98.87Y-71.0
X98.87Y-73.54
X98.87Y-76.08
X98.87Y-78.62
X98.87Y-81.16
X98.87Y-83.7
X98.87Y-86.24
X106.49Y-63.38
X106.49Y-65.92
X106.49Y-68.46
X106.49Y-71.0
X106.49Y-73.54
X106.49Y-76.08
X106.49Y-78.62
X106.49Y-81.16
X106.49Y-83.7
X106.49Y-86.24
X109.02Y-60.84
X109.02Y-63.38
X109.02Y-65.92
X109.02Y-68.46
X109.02Y-71.0
X109.02Y-73.54
X109.02Y-76.08
X109.02Y-78.62
X109.02Y-81.16
X109.02Y-83.7
X109.02Y-86.24
X109.02Y-88.78
X109.02Y-91.32
X109.02Y-93.86
X109.02Y-96.4
X109.02Y-98.94
X109.02Y-101.48
X109.02Y-104.02
X109.02Y-106.56
X109.02Y-109.1
X109.02Y-111.64
X109.02Y-114.18
X109.02Y-116.72
X109.02Y-119.26
X109.02Y-121.8
X109.02Y-124.34
X109.02Y-126.88
X109.02Y-129.42
X109.02Y-131.96
X109.02Y-134.5
X109.02Y-137.04
X109.02Y-139.58
X116.75Y-40.51
X116.75Y-43.05
X116.75Y-45.59
X116.75Y-48.13
X116.75Y-50.67
X116.75Y-53.21
X116.75Y-55.75
X116.75Y-58.29
X116.75Y-60.83
X116.75Y-63.37
X116.75Y-65.91
X116.75Y-68.45
X116.75Y-70.99
X116.75Y-73.53
X116.75Y-76.07
X116.75Y-78.61
X116.75Y-81.15
X116.75Y-83.69
X116.75Y-86.23
X116.75Y-88.77
X116.75Y-91.31
X116.75Y-93.85
X116.75Y-96.39
X116.75Y-98.93
X116.75Y-101.47
X116.75Y-104.01
X116.75Y-106.55
X116.75Y-109.09
X116.75Y-111.63
X116.75Y-114.17
X116.75Y-116.71
X116.75Y-119.25
X149.92Y-92.66
X149.92Y-100.28
X152.46Y-92.66
X152.46Y-100.28
X155.0Y-92.66
X155.0Y-100.28
X157.54Y-92.66
X157.54Y-100.28
X160.08Y-92.66
X160.08Y-100.28
X162.62Y-92.66
X162.62Y-100.28
X165.16Y-92.66
X165.16Y-100.28
X167.7Y-92.66
X167.7Y-100.28
X170.24Y-92.66
X170.24Y-100.28
X172.78Y-92.66
X172.78Y-100.28
X176.83Y-40.36
X176.83Y-42.9
X176.83Y-45.44
X176.83Y-47.98
X176.83Y-50.52
X176.83Y-53.06
X176.83Y-55.6
X176.83Y-58.14
X176.83Y-60.68
X176.83Y-63.22
X183.92Y-76.69
X183.92Y-91.93
X184.45Y-40.36
X184.45Y-42.9
X184.45Y-45.44
X184.45Y-47.98
X184.45Y-50.52
X184.45Y-53.06
X184.45Y-55.6
X184.45Y-58.14
X184.45Y-60.68
X184.45Y-63.22
X187.06Y-40.36
X187.06Y-42.9
X187.06Y-45.44
X187.06Y-47.98
X187.06Y-50.52
X187.06Y-53.06
X187.06Y-55.6
X187.06Y-58.14
X187.06Y-60.68
X187.06Y-63.22
X191.54Y-76.69
X191.54Y-91.93
X194.68Y-40.36
X194.68Y-42.9
X194.68Y-45.44
X194.68Y-47.98
X194.68Y-50.52
X194.68Y-53.06
X194.68Y-55.6
X194.68Y-58.14
X194.68Y-60.68
X194.68Y-63.22
X197.23Y-40.36
X197.23Y-42.9
X197.23Y-45.44
X197.23Y-47.98
X197.23Y-50.52
X197.23Y-53.06
X197.23Y-55.6
X197.23Y-58.14
X197.23Y-60.68
X197.23Y-63.22
X199.65Y-73.56
X199.65Y-76.1
X199.65Y-78.64
X199.65Y-81.18
X199.65Y-83.72
X199.65Y-86.26
X199.65Y-88.8
X199.65Y-91.34
X199.65Y-93.88
X199.65Y-96.42
X199.65Y-98.96
X199.65Y-101.5
X199.65Y-104.04
X199.65Y-106.58
X199.65Y-109.12
X199.65Y-111.66
X199.65Y-114.2
X199.65Y-116.74
X199.65Y-119.28
X199.65Y-121.82
X204.85Y-40.36
X204.85Y-42.9
X204.85Y-45.44
X204.85Y-47.98
X204.85Y-50.52
X204.85Y-53.06
X204.85Y-55.6
X204.85Y-58.14
X204.85Y-60.68
X204.85Y-63.22
X207.45Y-40.36
X207.45Y-42.9
X207.45Y-45.44
X207.45Y-47.98
X207.45Y-50.52
X207.45Y-53.06
X207.45Y-55.6
X207.45Y-58.14
X207.45Y-60.68
X207.45Y-63.22
X214.89Y-73.56
X214.89Y-76.1
X214.89Y-78.64
X214.89Y-81.18
X214.89Y-83.72
X214.89Y-86.26
X214.89Y-88.8
X214.89Y-91.34
X214.89Y-93.88
X214.89Y-96.42
X214.89Y-98.96
X214.89Y-101.5
X214.89Y-104.04
X214.89Y-106.58
X214.89Y-109.12
X214.89Y-111.66
X214.89Y-114.2
X214.89Y-116.74
X214.89Y-119.28
X214.89Y-121.82
X215.07Y-40.36
X215.07Y-42.9
X215.07Y-45.44
X215.07Y-47.98
X215.07Y-50.52
X215.07Y-53.06
X215.07Y-55.6
X215.07Y-58.14
X215.07Y-60.68
X215.07Y-63.22
T0
M30
