%TF.GenerationSoftware,KiCad,Pcbnew,(5.1.12)-1*%
%TF.CreationDate,2022-10-26T16:15:57+02:00*%
%TF.ProjectId,dueottosei,6475656f-7474-46f7-9365-692e6b696361,rev?*%
%TF.SameCoordinates,Original*%
%TF.FileFunction,Soldermask,Bot*%
%TF.FilePolarity,Negative*%
%FSLAX46Y46*%
G04 Gerber Fmt 4.6, Leading zero omitted, Abs format (unit mm)*
G04 Created by KiCad (PCBNEW (5.1.12)-1) date 2022-10-26 16:15:57*
%MOMM*%
%LPD*%
G01*
G04 APERTURE LIST*
%ADD10R,1.400000X1.400000*%
%ADD11O,1.400000X1.400000*%
%ADD12C,1.422400*%
%ADD13C,2.700000*%
%ADD14C,1.400000*%
%ADD15R,1.422400X1.422400*%
G04 APERTURE END LIST*
D10*
%TO.C,U14*%
X214890000Y-121820000D03*
D11*
X199650000Y-73560000D03*
X214890000Y-119280000D03*
X199650000Y-76100000D03*
X214890000Y-116740000D03*
X199650000Y-78640000D03*
X214890000Y-114200000D03*
X199650000Y-81180000D03*
X214890000Y-111660000D03*
X199650000Y-83720000D03*
X214890000Y-109120000D03*
X199650000Y-86260000D03*
X214890000Y-106580000D03*
X199650000Y-88800000D03*
X214890000Y-104040000D03*
X199650000Y-91340000D03*
X214890000Y-101500000D03*
X199650000Y-93880000D03*
X214890000Y-98960000D03*
X199650000Y-96420000D03*
X214890000Y-96420000D03*
X199650000Y-98960000D03*
X214890000Y-93880000D03*
X199650000Y-101500000D03*
X214890000Y-91340000D03*
X199650000Y-104040000D03*
X214890000Y-88800000D03*
X199650000Y-106580000D03*
X214890000Y-86260000D03*
X199650000Y-109120000D03*
X214890000Y-83720000D03*
X199650000Y-111660000D03*
X214890000Y-81180000D03*
X199650000Y-114200000D03*
X214890000Y-78640000D03*
X199650000Y-116740000D03*
X214890000Y-76100000D03*
X199650000Y-119280000D03*
X214890000Y-73560000D03*
X199650000Y-121820000D03*
%TD*%
D12*
%TO.C,U13*%
X157550000Y-86010000D03*
X160090000Y-86010000D03*
X162630000Y-86010000D03*
X165170000Y-86010000D03*
X155010000Y-86010000D03*
X152470000Y-86010000D03*
X149930000Y-86010000D03*
X147390000Y-86010000D03*
X157550000Y-88550000D03*
X160090000Y-88550000D03*
X162630000Y-88550000D03*
X165170000Y-88550000D03*
X167710000Y-88550000D03*
X155010000Y-88550000D03*
X152470000Y-88550000D03*
X149930000Y-88550000D03*
X167710000Y-86010000D03*
X167710000Y-83470000D03*
X167710000Y-80930000D03*
X167710000Y-78390000D03*
X167710000Y-75850000D03*
X167710000Y-73310000D03*
X167710000Y-70770000D03*
X167710000Y-68230000D03*
X170250000Y-86010000D03*
X170250000Y-83470000D03*
X170250000Y-80930000D03*
X170250000Y-78390000D03*
X170250000Y-75850000D03*
X170250000Y-73310000D03*
X170250000Y-70770000D03*
X170250000Y-68230000D03*
X170250000Y-65690000D03*
X167710000Y-65690000D03*
X165170000Y-65690000D03*
X162630000Y-65690000D03*
X160090000Y-65690000D03*
X157550000Y-65690000D03*
X155010000Y-65690000D03*
X152470000Y-65690000D03*
X149930000Y-65690000D03*
X144850000Y-65690000D03*
X167710000Y-63150000D03*
X165170000Y-63150000D03*
X162630000Y-63150000D03*
X160090000Y-63150000D03*
X157550000Y-63150000D03*
X155010000Y-63150000D03*
X152470000Y-63150000D03*
X149930000Y-63150000D03*
X147390000Y-63150000D03*
X147390000Y-65690000D03*
X147390000Y-68230000D03*
X147390000Y-70770000D03*
X147390000Y-73310000D03*
X147390000Y-75850000D03*
X147390000Y-78390000D03*
X147390000Y-80930000D03*
X147390000Y-83470000D03*
X147390000Y-88550000D03*
X144850000Y-68230000D03*
X144850000Y-70770000D03*
X144850000Y-73310000D03*
X144850000Y-75850000D03*
X144850000Y-78390000D03*
X144850000Y-80930000D03*
X144850000Y-83470000D03*
X144850000Y-86010000D03*
%TD*%
D13*
%TO.C,REF1*%
X209230000Y-135540000D03*
%TD*%
%TO.C,REF2*%
X98350000Y-43050000D03*
%TD*%
D14*
%TO.C,J1*%
X109020000Y-139580000D03*
X109020000Y-137040000D03*
X109020000Y-134500000D03*
X109020000Y-131960000D03*
X109020000Y-129420000D03*
X109020000Y-126880000D03*
X109020000Y-124340000D03*
X109020000Y-121800000D03*
X109020000Y-119260000D03*
X109020000Y-116720000D03*
X109020000Y-114180000D03*
X109020000Y-111640000D03*
X109020000Y-109100000D03*
X109020000Y-106560000D03*
X109020000Y-104020000D03*
X109020000Y-101480000D03*
X109020000Y-98940000D03*
X109020000Y-96400000D03*
X109020000Y-93860000D03*
X109020000Y-91320000D03*
X109020000Y-88780000D03*
X109020000Y-86240000D03*
X109020000Y-83700000D03*
X109020000Y-81160000D03*
X109020000Y-78620000D03*
X109020000Y-76080000D03*
X109020000Y-73540000D03*
X109020000Y-71000000D03*
X109020000Y-68460000D03*
X109020000Y-65920000D03*
X109020000Y-63380000D03*
X109020000Y-60840000D03*
X86160000Y-60840000D03*
X86160000Y-63380000D03*
X86160000Y-65920000D03*
X86160000Y-68460000D03*
X86160000Y-71000000D03*
X86160000Y-73540000D03*
X86160000Y-76080000D03*
X86160000Y-78620000D03*
X86160000Y-81160000D03*
X86160000Y-83700000D03*
X86160000Y-86240000D03*
X86160000Y-88780000D03*
X86160000Y-91320000D03*
X86160000Y-93860000D03*
X86160000Y-96400000D03*
X86160000Y-98940000D03*
X86160000Y-101480000D03*
X86160000Y-104020000D03*
X86160000Y-106560000D03*
X86160000Y-109100000D03*
X86160000Y-111640000D03*
X86160000Y-114180000D03*
X86160000Y-116720000D03*
X86160000Y-119260000D03*
X86160000Y-121800000D03*
X86160000Y-124340000D03*
X86160000Y-126880000D03*
X86160000Y-129420000D03*
X86160000Y-131960000D03*
X86160000Y-134500000D03*
X86160000Y-137040000D03*
X86160000Y-139580000D03*
%TD*%
%TO.C,J2*%
X93890000Y-119250000D03*
X93890000Y-116710000D03*
X93890000Y-114170000D03*
X93890000Y-111630000D03*
X93890000Y-109090000D03*
X93890000Y-106550000D03*
X93890000Y-104010000D03*
X93890000Y-101470000D03*
X93890000Y-98930000D03*
X93890000Y-96390000D03*
X93890000Y-93850000D03*
X93890000Y-91310000D03*
X93890000Y-88770000D03*
X93890000Y-86230000D03*
X93890000Y-83690000D03*
X93890000Y-81150000D03*
X93890000Y-78610000D03*
X93890000Y-76070000D03*
X93890000Y-73530000D03*
X93890000Y-70990000D03*
X93890000Y-68450000D03*
X93890000Y-65910000D03*
X93890000Y-63370000D03*
X93890000Y-60830000D03*
X93890000Y-58290000D03*
X93890000Y-55750000D03*
X93890000Y-53210000D03*
X93890000Y-50670000D03*
X93890000Y-48130000D03*
X93890000Y-45590000D03*
X93890000Y-43050000D03*
X93890000Y-40510000D03*
X116750000Y-40510000D03*
X116750000Y-43050000D03*
X116750000Y-45590000D03*
X116750000Y-48130000D03*
X116750000Y-50670000D03*
X116750000Y-53210000D03*
X116750000Y-55750000D03*
X116750000Y-58290000D03*
X116750000Y-60830000D03*
X116750000Y-63370000D03*
X116750000Y-65910000D03*
X116750000Y-68450000D03*
X116750000Y-70990000D03*
X116750000Y-73530000D03*
X116750000Y-76070000D03*
X116750000Y-78610000D03*
X116750000Y-81150000D03*
X116750000Y-83690000D03*
X116750000Y-86230000D03*
X116750000Y-88770000D03*
X116750000Y-91310000D03*
X116750000Y-93850000D03*
X116750000Y-96390000D03*
X116750000Y-98930000D03*
X116750000Y-101470000D03*
X116750000Y-104010000D03*
X116750000Y-106550000D03*
X116750000Y-109090000D03*
X116750000Y-111630000D03*
X116750000Y-114170000D03*
X116750000Y-116710000D03*
X116750000Y-119250000D03*
%TD*%
D10*
%TO.C,Q1*%
X191540000Y-91930000D03*
D14*
X183920000Y-91930000D03*
X183920000Y-76690000D03*
X191540000Y-76690000D03*
%TD*%
D11*
%TO.C,U22*%
X149930000Y-93680000D03*
X172790000Y-101300000D03*
X152470000Y-93680000D03*
X170250000Y-101300000D03*
X155010000Y-93680000D03*
X167710000Y-101300000D03*
X157550000Y-93680000D03*
X165170000Y-101300000D03*
X160090000Y-93680000D03*
X162630000Y-101300000D03*
X162630000Y-93680000D03*
X160090000Y-101300000D03*
X165170000Y-93680000D03*
X157550000Y-101300000D03*
X167710000Y-93680000D03*
X155010000Y-101300000D03*
X170250000Y-93680000D03*
X152470000Y-101300000D03*
X172790000Y-93680000D03*
D10*
X149930000Y-101300000D03*
%TD*%
%TO.C,U31*%
X210450000Y-40360000D03*
D11*
X218070000Y-63220000D03*
X210450000Y-42900000D03*
X218070000Y-60680000D03*
X210450000Y-45440000D03*
X218070000Y-58140000D03*
X210450000Y-47980000D03*
X218070000Y-55600000D03*
X210450000Y-50520000D03*
X218070000Y-53060000D03*
X210450000Y-53060000D03*
X218070000Y-50520000D03*
X210450000Y-55600000D03*
X218070000Y-47980000D03*
X210450000Y-58140000D03*
X218070000Y-45440000D03*
X210450000Y-60680000D03*
X218070000Y-42900000D03*
X210450000Y-63220000D03*
X218070000Y-40360000D03*
%TD*%
%TO.C,U32*%
X206850000Y-40360000D03*
X199230000Y-63220000D03*
X206850000Y-42900000D03*
X199230000Y-60680000D03*
X206850000Y-45440000D03*
X199230000Y-58140000D03*
X206850000Y-47980000D03*
X199230000Y-55600000D03*
X206850000Y-50520000D03*
X199230000Y-53060000D03*
X206850000Y-53060000D03*
X199230000Y-50520000D03*
X206850000Y-55600000D03*
X199230000Y-47980000D03*
X206850000Y-58140000D03*
X199230000Y-45440000D03*
X206850000Y-60680000D03*
X199230000Y-42900000D03*
X206850000Y-63220000D03*
D10*
X199230000Y-40360000D03*
%TD*%
%TO.C,U33*%
X188060000Y-40360000D03*
D11*
X195680000Y-63220000D03*
X188060000Y-42900000D03*
X195680000Y-60680000D03*
X188060000Y-45440000D03*
X195680000Y-58140000D03*
X188060000Y-47980000D03*
X195680000Y-55600000D03*
X188060000Y-50520000D03*
X195680000Y-53060000D03*
X188060000Y-53060000D03*
X195680000Y-50520000D03*
X188060000Y-55600000D03*
X195680000Y-47980000D03*
X188060000Y-58140000D03*
X195680000Y-45440000D03*
X188060000Y-60680000D03*
X195680000Y-42900000D03*
X188060000Y-63220000D03*
X195680000Y-40360000D03*
%TD*%
%TO.C,U34*%
X184450000Y-40360000D03*
X176830000Y-63220000D03*
X184450000Y-42900000D03*
X176830000Y-60680000D03*
X184450000Y-45440000D03*
X176830000Y-58140000D03*
X184450000Y-47980000D03*
X176830000Y-55600000D03*
X184450000Y-50520000D03*
X176830000Y-53060000D03*
X184450000Y-53060000D03*
X176830000Y-50520000D03*
X184450000Y-55600000D03*
X176830000Y-47980000D03*
X184450000Y-58140000D03*
X176830000Y-45440000D03*
X184450000Y-60680000D03*
X176830000Y-42900000D03*
X184450000Y-63220000D03*
D10*
X176830000Y-40360000D03*
%TD*%
D12*
%TO.C,U41*%
X160080000Y-108990000D03*
X157540000Y-108990000D03*
X155000000Y-108990000D03*
X152460000Y-108990000D03*
X149920000Y-108990000D03*
X162620000Y-108990000D03*
X165160000Y-108990000D03*
X167700000Y-108990000D03*
X170240000Y-108990000D03*
X172780000Y-108990000D03*
X175320000Y-108990000D03*
D15*
X160080000Y-106450000D03*
D12*
X157540000Y-106450000D03*
X155000000Y-106450000D03*
X152460000Y-106450000D03*
X149920000Y-106450000D03*
X147380000Y-106450000D03*
X162620000Y-106450000D03*
X165160000Y-106450000D03*
X167700000Y-106450000D03*
X170240000Y-106450000D03*
X172780000Y-106450000D03*
X147380000Y-108990000D03*
X147380000Y-111530000D03*
X147380000Y-114070000D03*
X147380000Y-116610000D03*
X147380000Y-119150000D03*
X147380000Y-121690000D03*
X147380000Y-124230000D03*
X147380000Y-126770000D03*
X147380000Y-129310000D03*
X147380000Y-131850000D03*
X144840000Y-108990000D03*
X144840000Y-111530000D03*
X144840000Y-114070000D03*
X144840000Y-116610000D03*
X144840000Y-119150000D03*
X144840000Y-121690000D03*
X144840000Y-124230000D03*
X144840000Y-126770000D03*
X144840000Y-129310000D03*
X144840000Y-131850000D03*
X144840000Y-134390000D03*
X147380000Y-134390000D03*
X149920000Y-134390000D03*
X152460000Y-134390000D03*
X155000000Y-134390000D03*
X157540000Y-134390000D03*
X160080000Y-134390000D03*
X162620000Y-134390000D03*
X165160000Y-134390000D03*
X167700000Y-134390000D03*
X170240000Y-134390000D03*
X147380000Y-136930000D03*
X149920000Y-136930000D03*
X152460000Y-136930000D03*
X155000000Y-136930000D03*
X157540000Y-136930000D03*
X160080000Y-136930000D03*
X162620000Y-136930000D03*
X165160000Y-136930000D03*
X167700000Y-136930000D03*
X170240000Y-136930000D03*
X172780000Y-136930000D03*
X172780000Y-134390000D03*
X172780000Y-131850000D03*
X172780000Y-129310000D03*
X172780000Y-126770000D03*
X172780000Y-124230000D03*
X172780000Y-121690000D03*
X172780000Y-119150000D03*
X172780000Y-116610000D03*
X172780000Y-114070000D03*
X172780000Y-111530000D03*
X175320000Y-134390000D03*
X175320000Y-131850000D03*
X175320000Y-129310000D03*
X175320000Y-126770000D03*
X175320000Y-124230000D03*
X175320000Y-121690000D03*
X175320000Y-119150000D03*
X175320000Y-116610000D03*
X175320000Y-114070000D03*
X175320000Y-111530000D03*
%TD*%
D10*
%TO.C,U44*%
X98870000Y-63380000D03*
D11*
X106490000Y-86240000D03*
X98870000Y-65920000D03*
X106490000Y-83700000D03*
X98870000Y-68460000D03*
X106490000Y-81160000D03*
X98870000Y-71000000D03*
X106490000Y-78620000D03*
X98870000Y-73540000D03*
X106490000Y-76080000D03*
X98870000Y-76080000D03*
X106490000Y-73540000D03*
X98870000Y-78620000D03*
X106490000Y-71000000D03*
X98870000Y-81160000D03*
X106490000Y-68460000D03*
X98870000Y-83700000D03*
X106490000Y-65920000D03*
X98870000Y-86240000D03*
X106490000Y-63380000D03*
%TD*%
M02*
