%TF.GenerationSoftware,KiCad,Pcbnew,(5.1.12)-1*%
%TF.CreationDate,2022-10-26T16:15:56+02:00*%
%TF.ProjectId,dueottosei,6475656f-7474-46f7-9365-692e6b696361,rev?*%
%TF.SameCoordinates,Original*%
%TF.FileFunction,Copper,L4,Bot*%
%TF.FilePolarity,Positive*%
%FSLAX46Y46*%
G04 Gerber Fmt 4.6, Leading zero omitted, Abs format (unit mm)*
G04 Created by KiCad (PCBNEW (5.1.12)-1) date 2022-10-26 16:15:56*
%MOMM*%
%LPD*%
G01*
G04 APERTURE LIST*
%TA.AperFunction,ComponentPad*%
%ADD10R,1.400000X1.400000*%
%TD*%
%TA.AperFunction,ComponentPad*%
%ADD11O,1.400000X1.400000*%
%TD*%
%TA.AperFunction,ComponentPad*%
%ADD12C,1.422400*%
%TD*%
%TA.AperFunction,ComponentPad*%
%ADD13C,1.400000*%
%TD*%
%TA.AperFunction,ComponentPad*%
%ADD14R,1.422400X1.422400*%
%TD*%
%TA.AperFunction,ViaPad*%
%ADD15C,0.800000*%
%TD*%
%TA.AperFunction,Conductor*%
%ADD16C,0.250000*%
%TD*%
G04 APERTURE END LIST*
D10*
%TO.P,U14,1*%
%TO.N,Net-(U14-Pad1)*%
X214890000Y-121820000D03*
D11*
%TO.P,U14,21*%
%TO.N,6_D2*%
X199650000Y-73560000D03*
%TO.P,U14,2*%
%TO.N,Net-(U14-Pad2)*%
X214890000Y-119280000D03*
%TO.P,U14,22*%
%TO.N,6_D1*%
X199650000Y-76100000D03*
%TO.P,U14,3*%
%TO.N,Net-(U14-Pad3)*%
X214890000Y-116740000D03*
%TO.P,U14,23*%
%TO.N,6_D0*%
X199650000Y-78640000D03*
%TO.P,U14,4*%
%TO.N,Net-(U14-Pad4)*%
X214890000Y-114200000D03*
%TO.P,U14,24*%
%TO.N,6_PEREQ*%
X199650000Y-81180000D03*
%TO.P,U14,5*%
%TO.N,6_D15*%
X214890000Y-111660000D03*
%TO.P,U14,25*%
%TO.N,7_~BUSY*%
X199650000Y-83720000D03*
%TO.P,U14,6*%
%TO.N,6_D14*%
X214890000Y-109120000D03*
%TO.P,U14,26*%
%TO.N,7_~ERROR*%
X199650000Y-86260000D03*
%TO.P,U14,7*%
%TO.N,6_D13*%
X214890000Y-106580000D03*
%TO.P,U14,27*%
%TO.N,7_~NPRD*%
X199650000Y-88800000D03*
%TO.P,U14,8*%
%TO.N,6_D12*%
X214890000Y-104040000D03*
%TO.P,U14,28*%
%TO.N,7_~NPWR*%
X199650000Y-91340000D03*
%TO.P,U14,9*%
%TO.N,VCC*%
X214890000Y-101500000D03*
%TO.P,U14,29*%
%TO.N,Z_A1*%
X199650000Y-93880000D03*
%TO.P,U14,10*%
%TO.N,GND*%
X214890000Y-98960000D03*
%TO.P,U14,30*%
X199650000Y-96420000D03*
%TO.P,U14,11*%
%TO.N,6_D11*%
X214890000Y-96420000D03*
%TO.P,U14,31*%
%TO.N,Z_A2*%
X199650000Y-98960000D03*
%TO.P,U14,12*%
%TO.N,6_D10*%
X214890000Y-93880000D03*
%TO.P,U14,32*%
%TO.N,Net-(Q1-Pad8)*%
X199650000Y-101500000D03*
%TO.P,U14,13*%
%TO.N,Net-(U14-Pad13)*%
X214890000Y-91340000D03*
%TO.P,U14,33*%
%TO.N,7_NPS2*%
X199650000Y-104040000D03*
%TO.P,U14,14*%
%TO.N,6_D9*%
X214890000Y-88800000D03*
%TO.P,U14,34*%
%TO.N,7_~NPS1*%
X199650000Y-106580000D03*
%TO.P,U14,15*%
%TO.N,6_D8*%
X214890000Y-86260000D03*
%TO.P,U14,35*%
%TO.N,7_RESET*%
X199650000Y-109120000D03*
%TO.P,U14,16*%
%TO.N,6_D7*%
X214890000Y-83720000D03*
%TO.P,U14,36*%
%TO.N,6_~PEACK*%
X199650000Y-111660000D03*
%TO.P,U14,17*%
%TO.N,6_D6*%
X214890000Y-81180000D03*
%TO.P,U14,37*%
%TO.N,Net-(U14-Pad37)*%
X199650000Y-114200000D03*
%TO.P,U14,18*%
%TO.N,6_D5*%
X214890000Y-78640000D03*
%TO.P,U14,38*%
%TO.N,Net-(U14-Pad38)*%
X199650000Y-116740000D03*
%TO.P,U14,19*%
%TO.N,6_D4*%
X214890000Y-76100000D03*
%TO.P,U14,39*%
%TO.N,GND*%
X199650000Y-119280000D03*
%TO.P,U14,20*%
%TO.N,6_D3*%
X214890000Y-73560000D03*
%TO.P,U14,40*%
%TO.N,Net-(U14-Pad40)*%
X199650000Y-121820000D03*
%TD*%
D12*
%TO.P,U13,61*%
%TO.N,6_PEREQ*%
X157550000Y-86010000D03*
%TO.P,U13,63*%
%TO.N,6_~READY*%
X160090000Y-86010000D03*
%TO.P,U13,65*%
%TO.N,6_HDLA*%
X162630000Y-86010000D03*
%TO.P,U13,67*%
%TO.N,6_M\u005C~IO*%
X165170000Y-86010000D03*
%TO.P,U13,59*%
%TO.N,GND*%
X155010000Y-86010000D03*
%TO.P,U13,57*%
%TO.N,6_INTR*%
X152470000Y-86010000D03*
%TO.P,U13,55*%
%TO.N,Net-(U13-Pad55)*%
X149930000Y-86010000D03*
%TO.P,U13,53*%
%TO.N,Net-(R15-Pad2)*%
X147390000Y-86010000D03*
%TO.P,U13,60*%
%TO.N,GND*%
X157550000Y-88550000D03*
%TO.P,U13,62*%
%TO.N,VCC*%
X160090000Y-88550000D03*
%TO.P,U13,64*%
%TO.N,6_HOLD*%
X162630000Y-88550000D03*
%TO.P,U13,66*%
%TO.N,6_COD\u005C~INTA*%
X165170000Y-88550000D03*
%TO.P,U13,68*%
%TO.N,Net-(U13-Pad68)*%
X167710000Y-88550000D03*
%TO.P,U13,58*%
%TO.N,Net-(U13-Pad58)*%
X155010000Y-88550000D03*
%TO.P,U13,56*%
%TO.N,Net-(U13-Pad56)*%
X152470000Y-88550000D03*
%TO.P,U13,54*%
%TO.N,6_~BUSY*%
X149930000Y-88550000D03*
%TO.P,U13,2*%
%TO.N,Net-(U13-Pad2)*%
X167710000Y-86010000D03*
%TO.P,U13,4*%
%TO.N,6_~S1*%
X167710000Y-83470000D03*
%TO.P,U13,6*%
%TO.N,6_~PEACK*%
X167710000Y-80930000D03*
%TO.P,U13,8*%
%TO.N,6_A22*%
X167710000Y-78390000D03*
%TO.P,U13,10*%
%TO.N,6_A21*%
X167710000Y-75850000D03*
%TO.P,U13,12*%
%TO.N,6_A19*%
X167710000Y-73310000D03*
%TO.P,U13,14*%
%TO.N,6_A17*%
X167710000Y-70770000D03*
%TO.P,U13,16*%
%TO.N,6_A15*%
X167710000Y-68230000D03*
%TO.P,U13,1*%
%TO.N,6_~BHE*%
X170250000Y-86010000D03*
%TO.P,U13,3*%
%TO.N,Net-(U13-Pad3)*%
X170250000Y-83470000D03*
%TO.P,U13,5*%
%TO.N,6_~S0*%
X170250000Y-80930000D03*
%TO.P,U13,7*%
%TO.N,6_A23*%
X170250000Y-78390000D03*
%TO.P,U13,9*%
%TO.N,GND*%
X170250000Y-75850000D03*
%TO.P,U13,11*%
%TO.N,6_A20*%
X170250000Y-73310000D03*
%TO.P,U13,13*%
%TO.N,6_A18*%
X170250000Y-70770000D03*
%TO.P,U13,15*%
%TO.N,6_A16*%
X170250000Y-68230000D03*
%TO.P,U13,17*%
%TO.N,6_A14*%
X170250000Y-65690000D03*
%TO.P,U13,19*%
%TO.N,6_A12*%
X167710000Y-65690000D03*
%TO.P,U13,21*%
%TO.N,6_A10*%
X165170000Y-65690000D03*
%TO.P,U13,23*%
%TO.N,6_A8*%
X162630000Y-65690000D03*
%TO.P,U13,25*%
%TO.N,6_A6*%
X160090000Y-65690000D03*
%TO.P,U13,27*%
%TO.N,6_A4*%
X157550000Y-65690000D03*
%TO.P,U13,29*%
%TO.N,6_RESET*%
X155010000Y-65690000D03*
%TO.P,U13,31*%
%TO.N,Net-(Q1-Pad8)*%
X152470000Y-65690000D03*
%TO.P,U13,33*%
%TO.N,6_A1*%
X149930000Y-65690000D03*
%TO.P,U13,35*%
%TO.N,GND*%
X144850000Y-65690000D03*
%TO.P,U13,18*%
%TO.N,6_A13*%
X167710000Y-63150000D03*
%TO.P,U13,20*%
%TO.N,6_A11*%
X165170000Y-63150000D03*
%TO.P,U13,22*%
%TO.N,6_A9*%
X162630000Y-63150000D03*
%TO.P,U13,24*%
%TO.N,6_A7*%
X160090000Y-63150000D03*
%TO.P,U13,26*%
%TO.N,6_A5*%
X157550000Y-63150000D03*
%TO.P,U13,28*%
%TO.N,6_A3*%
X155010000Y-63150000D03*
%TO.P,U13,30*%
%TO.N,VCC*%
X152470000Y-63150000D03*
%TO.P,U13,32*%
%TO.N,6_A2*%
X149930000Y-63150000D03*
%TO.P,U13,34*%
%TO.N,6_A0*%
X147390000Y-63150000D03*
%TO.P,U13,36*%
%TO.N,6_D0*%
X147390000Y-65690000D03*
%TO.P,U13,38*%
%TO.N,6_D1*%
X147390000Y-68230000D03*
%TO.P,U13,40*%
%TO.N,6_D2*%
X147390000Y-70770000D03*
%TO.P,U13,42*%
%TO.N,6_D3*%
X147390000Y-73310000D03*
%TO.P,U13,44*%
%TO.N,6_D4*%
X147390000Y-75850000D03*
%TO.P,U13,46*%
%TO.N,6_D5*%
X147390000Y-78390000D03*
%TO.P,U13,48*%
%TO.N,6_D6*%
X147390000Y-80930000D03*
%TO.P,U13,50*%
%TO.N,6_D7*%
X147390000Y-83470000D03*
%TO.P,U13,52*%
%TO.N,Net-(C17-Pad1)*%
X147390000Y-88550000D03*
%TO.P,U13,37*%
%TO.N,6_D8*%
X144850000Y-68230000D03*
%TO.P,U13,39*%
%TO.N,6_D9*%
X144850000Y-70770000D03*
%TO.P,U13,41*%
%TO.N,6_D10*%
X144850000Y-73310000D03*
%TO.P,U13,43*%
%TO.N,6_D11*%
X144850000Y-75850000D03*
%TO.P,U13,45*%
%TO.N,6_D12*%
X144850000Y-78390000D03*
%TO.P,U13,47*%
%TO.N,6_D13*%
X144850000Y-80930000D03*
%TO.P,U13,49*%
%TO.N,6_D14*%
X144850000Y-83470000D03*
%TO.P,U13,51*%
%TO.N,6_D15*%
X144850000Y-86010000D03*
%TD*%
D13*
%TO.P,J1,1*%
%TO.N,Z_D4*%
X109020000Y-139580000D03*
%TO.P,J1,2*%
%TO.N,Z_D3*%
X109020000Y-137040000D03*
%TO.P,J1,3*%
%TO.N,Z_D2*%
X109020000Y-134500000D03*
%TO.P,J1,4*%
%TO.N,Z_D1*%
X109020000Y-131960000D03*
%TO.P,J1,5*%
%TO.N,Z_D0*%
X109020000Y-129420000D03*
%TO.P,J1,6*%
%TO.N,Z_~AS*%
X109020000Y-126880000D03*
%TO.P,J1,7*%
%TO.N,Z_~UDS*%
X109020000Y-124340000D03*
%TO.P,J1,8*%
%TO.N,Z_~LDS*%
X109020000Y-121800000D03*
%TO.P,J1,9*%
%TO.N,Z_R~W*%
X109020000Y-119260000D03*
%TO.P,J1,10*%
%TO.N,Z_~DTACK*%
X109020000Y-116720000D03*
%TO.P,J1,11*%
%TO.N,Z_~BG*%
X109020000Y-114180000D03*
%TO.P,J1,12*%
%TO.N,Z_~BGACK*%
X109020000Y-111640000D03*
%TO.P,J1,13*%
%TO.N,Z_~BR*%
X109020000Y-109100000D03*
%TO.P,J1,14*%
%TO.N,VCC*%
X109020000Y-106560000D03*
%TO.P,J1,15*%
%TO.N,Z_CLK*%
X109020000Y-104020000D03*
%TO.P,J1,16*%
%TO.N,GND*%
X109020000Y-101480000D03*
%TO.P,J1,17*%
%TO.N,Z_~HALT*%
X109020000Y-98940000D03*
%TO.P,J1,18*%
%TO.N,Z_~RESET*%
X109020000Y-96400000D03*
%TO.P,J1,19*%
%TO.N,Z_~VMA*%
X109020000Y-93860000D03*
%TO.P,J1,20*%
%TO.N,Z_E*%
X109020000Y-91320000D03*
%TO.P,J1,21*%
%TO.N,Z_~VPA*%
X109020000Y-88780000D03*
%TO.P,J1,22*%
%TO.N,Z_~BERR*%
X109020000Y-86240000D03*
%TO.P,J1,23*%
%TO.N,Z_~IPL2*%
X109020000Y-83700000D03*
%TO.P,J1,24*%
%TO.N,Z_~IPL1*%
X109020000Y-81160000D03*
%TO.P,J1,25*%
%TO.N,Z_~IPL0*%
X109020000Y-78620000D03*
%TO.P,J1,26*%
%TO.N,Z_FC2*%
X109020000Y-76080000D03*
%TO.P,J1,27*%
%TO.N,Z_FC1*%
X109020000Y-73540000D03*
%TO.P,J1,28*%
%TO.N,Z_FC0*%
X109020000Y-71000000D03*
%TO.P,J1,29*%
%TO.N,Z_A1*%
X109020000Y-68460000D03*
%TO.P,J1,30*%
%TO.N,Z_A2*%
X109020000Y-65920000D03*
%TO.P,J1,31*%
%TO.N,Z_A3*%
X109020000Y-63380000D03*
%TO.P,J1,32*%
%TO.N,Z_A4*%
X109020000Y-60840000D03*
%TO.P,J1,33*%
%TO.N,Z_A5*%
X86160000Y-60840000D03*
%TO.P,J1,34*%
%TO.N,Z_A6*%
X86160000Y-63380000D03*
%TO.P,J1,35*%
%TO.N,Z_A7*%
X86160000Y-65920000D03*
%TO.P,J1,36*%
%TO.N,Z_A8*%
X86160000Y-68460000D03*
%TO.P,J1,37*%
%TO.N,Z_A9*%
X86160000Y-71000000D03*
%TO.P,J1,38*%
%TO.N,Z_A10*%
X86160000Y-73540000D03*
%TO.P,J1,39*%
%TO.N,Z_A11*%
X86160000Y-76080000D03*
%TO.P,J1,40*%
%TO.N,Z_A12*%
X86160000Y-78620000D03*
%TO.P,J1,41*%
%TO.N,Z_A13*%
X86160000Y-81160000D03*
%TO.P,J1,42*%
%TO.N,Z_A14*%
X86160000Y-83700000D03*
%TO.P,J1,43*%
%TO.N,Z_A15*%
X86160000Y-86240000D03*
%TO.P,J1,44*%
%TO.N,Z_A16*%
X86160000Y-88780000D03*
%TO.P,J1,45*%
%TO.N,Z_A17*%
X86160000Y-91320000D03*
%TO.P,J1,46*%
%TO.N,Z_A18*%
X86160000Y-93860000D03*
%TO.P,J1,47*%
%TO.N,Z_A19*%
X86160000Y-96400000D03*
%TO.P,J1,48*%
%TO.N,Z_A20*%
X86160000Y-98940000D03*
%TO.P,J1,49*%
%TO.N,VCC*%
X86160000Y-101480000D03*
%TO.P,J1,50*%
%TO.N,Z_A21*%
X86160000Y-104020000D03*
%TO.P,J1,51*%
%TO.N,Z_A22*%
X86160000Y-106560000D03*
%TO.P,J1,52*%
%TO.N,Z_A23*%
X86160000Y-109100000D03*
%TO.P,J1,53*%
%TO.N,GND*%
X86160000Y-111640000D03*
%TO.P,J1,54*%
%TO.N,Z_D15*%
X86160000Y-114180000D03*
%TO.P,J1,55*%
%TO.N,Z_D14*%
X86160000Y-116720000D03*
%TO.P,J1,56*%
%TO.N,Z_D13*%
X86160000Y-119260000D03*
%TO.P,J1,57*%
%TO.N,Z_D12*%
X86160000Y-121800000D03*
%TO.P,J1,58*%
%TO.N,Z_D11*%
X86160000Y-124340000D03*
%TO.P,J1,59*%
%TO.N,Z_D10*%
X86160000Y-126880000D03*
%TO.P,J1,60*%
%TO.N,Z_D9*%
X86160000Y-129420000D03*
%TO.P,J1,61*%
%TO.N,Z_D8*%
X86160000Y-131960000D03*
%TO.P,J1,62*%
%TO.N,Z_D7*%
X86160000Y-134500000D03*
%TO.P,J1,63*%
%TO.N,Z_D6*%
X86160000Y-137040000D03*
%TO.P,J1,64*%
%TO.N,Z_D5*%
X86160000Y-139580000D03*
%TD*%
%TO.P,J2,64*%
%TO.N,Z_D5*%
X93890000Y-119250000D03*
%TO.P,J2,63*%
%TO.N,Z_D6*%
X93890000Y-116710000D03*
%TO.P,J2,62*%
%TO.N,Z_D7*%
X93890000Y-114170000D03*
%TO.P,J2,61*%
%TO.N,Z_D8*%
X93890000Y-111630000D03*
%TO.P,J2,60*%
%TO.N,Z_D9*%
X93890000Y-109090000D03*
%TO.P,J2,59*%
%TO.N,Z_D10*%
X93890000Y-106550000D03*
%TO.P,J2,58*%
%TO.N,Z_D11*%
X93890000Y-104010000D03*
%TO.P,J2,57*%
%TO.N,Z_D12*%
X93890000Y-101470000D03*
%TO.P,J2,56*%
%TO.N,Z_D13*%
X93890000Y-98930000D03*
%TO.P,J2,55*%
%TO.N,Z_D14*%
X93890000Y-96390000D03*
%TO.P,J2,54*%
%TO.N,Z_D15*%
X93890000Y-93850000D03*
%TO.P,J2,53*%
%TO.N,GND*%
X93890000Y-91310000D03*
%TO.P,J2,52*%
%TO.N,Z_A23*%
X93890000Y-88770000D03*
%TO.P,J2,51*%
%TO.N,Z_A22*%
X93890000Y-86230000D03*
%TO.P,J2,50*%
%TO.N,Z_A21*%
X93890000Y-83690000D03*
%TO.P,J2,49*%
%TO.N,VCC*%
X93890000Y-81150000D03*
%TO.P,J2,48*%
%TO.N,Z_A20*%
X93890000Y-78610000D03*
%TO.P,J2,47*%
%TO.N,Z_A19*%
X93890000Y-76070000D03*
%TO.P,J2,46*%
%TO.N,Z_A18*%
X93890000Y-73530000D03*
%TO.P,J2,45*%
%TO.N,Z_A17*%
X93890000Y-70990000D03*
%TO.P,J2,44*%
%TO.N,Z_A16*%
X93890000Y-68450000D03*
%TO.P,J2,43*%
%TO.N,Z_A15*%
X93890000Y-65910000D03*
%TO.P,J2,42*%
%TO.N,Z_A14*%
X93890000Y-63370000D03*
%TO.P,J2,41*%
%TO.N,Z_A13*%
X93890000Y-60830000D03*
%TO.P,J2,40*%
%TO.N,Z_A12*%
X93890000Y-58290000D03*
%TO.P,J2,39*%
%TO.N,Z_A11*%
X93890000Y-55750000D03*
%TO.P,J2,38*%
%TO.N,Z_A10*%
X93890000Y-53210000D03*
%TO.P,J2,37*%
%TO.N,Z_A9*%
X93890000Y-50670000D03*
%TO.P,J2,36*%
%TO.N,Z_A8*%
X93890000Y-48130000D03*
%TO.P,J2,35*%
%TO.N,Z_A7*%
X93890000Y-45590000D03*
%TO.P,J2,34*%
%TO.N,Z_A6*%
X93890000Y-43050000D03*
%TO.P,J2,33*%
%TO.N,Z_A5*%
X93890000Y-40510000D03*
%TO.P,J2,32*%
%TO.N,Z_A4*%
X116750000Y-40510000D03*
%TO.P,J2,31*%
%TO.N,Z_A3*%
X116750000Y-43050000D03*
%TO.P,J2,30*%
%TO.N,Z_A2*%
X116750000Y-45590000D03*
%TO.P,J2,29*%
%TO.N,Z_A1*%
X116750000Y-48130000D03*
%TO.P,J2,28*%
%TO.N,Z_FC0*%
X116750000Y-50670000D03*
%TO.P,J2,27*%
%TO.N,Z_FC1*%
X116750000Y-53210000D03*
%TO.P,J2,26*%
%TO.N,Z_FC2*%
X116750000Y-55750000D03*
%TO.P,J2,25*%
%TO.N,Z_~IPL0*%
X116750000Y-58290000D03*
%TO.P,J2,24*%
%TO.N,Z_~IPL1*%
X116750000Y-60830000D03*
%TO.P,J2,23*%
%TO.N,Z_~IPL2*%
X116750000Y-63370000D03*
%TO.P,J2,22*%
%TO.N,Z_~BERR*%
X116750000Y-65910000D03*
%TO.P,J2,21*%
%TO.N,Z_~VPA*%
X116750000Y-68450000D03*
%TO.P,J2,20*%
%TO.N,Z_E*%
X116750000Y-70990000D03*
%TO.P,J2,19*%
%TO.N,Z_~VMA*%
X116750000Y-73530000D03*
%TO.P,J2,18*%
%TO.N,Z_~RESET*%
X116750000Y-76070000D03*
%TO.P,J2,17*%
%TO.N,Z_~HALT*%
X116750000Y-78610000D03*
%TO.P,J2,16*%
%TO.N,GND*%
X116750000Y-81150000D03*
%TO.P,J2,15*%
%TO.N,Z_CLK*%
X116750000Y-83690000D03*
%TO.P,J2,14*%
%TO.N,VCC*%
X116750000Y-86230000D03*
%TO.P,J2,13*%
%TO.N,M_~BR*%
X116750000Y-88770000D03*
%TO.P,J2,12*%
%TO.N,M_~BGACK*%
X116750000Y-91310000D03*
%TO.P,J2,11*%
%TO.N,M_~BG*%
X116750000Y-93850000D03*
%TO.P,J2,10*%
%TO.N,M_~DTACK*%
X116750000Y-96390000D03*
%TO.P,J2,9*%
%TO.N,Z_R~W*%
X116750000Y-98930000D03*
%TO.P,J2,8*%
%TO.N,M_~LDS*%
X116750000Y-101470000D03*
%TO.P,J2,7*%
%TO.N,M_~UDS*%
X116750000Y-104010000D03*
%TO.P,J2,6*%
%TO.N,M_~AS*%
X116750000Y-106550000D03*
%TO.P,J2,5*%
%TO.N,Z_D0*%
X116750000Y-109090000D03*
%TO.P,J2,4*%
%TO.N,Z_D1*%
X116750000Y-111630000D03*
%TO.P,J2,3*%
%TO.N,Z_D2*%
X116750000Y-114170000D03*
%TO.P,J2,2*%
%TO.N,Z_D3*%
X116750000Y-116710000D03*
%TO.P,J2,1*%
%TO.N,Z_D4*%
X116750000Y-119250000D03*
%TD*%
D10*
%TO.P,Q1,1*%
%TO.N,Net-(Q1-Pad1)*%
X191540000Y-91930000D03*
D13*
%TO.P,Q1,14*%
%TO.N,VCC*%
X183920000Y-91930000D03*
%TO.P,Q1,8*%
%TO.N,Net-(Q1-Pad8)*%
X183920000Y-76690000D03*
%TO.P,Q1,7*%
%TO.N,GND*%
X191540000Y-76690000D03*
%TD*%
D11*
%TO.P,U22,20*%
%TO.N,VCC*%
X149930000Y-93680000D03*
%TO.P,U22,10*%
%TO.N,GND*%
X172790000Y-101300000D03*
%TO.P,U22,19*%
%TO.N,7_NPS2*%
X152470000Y-93680000D03*
%TO.P,U22,9*%
%TO.N,Z_A1*%
X170250000Y-101300000D03*
%TO.P,U22,18*%
%TO.N,Z_D4*%
X155010000Y-93680000D03*
%TO.P,U22,8*%
%TO.N,Z_R~W*%
X167710000Y-101300000D03*
%TO.P,U22,17*%
%TO.N,6_D1*%
X157550000Y-93680000D03*
%TO.P,U22,7*%
%TO.N,P19*%
X165170000Y-101300000D03*
%TO.P,U22,16*%
%TO.N,6_D0*%
X160090000Y-93680000D03*
%TO.P,U22,6*%
%TO.N,P61*%
X162630000Y-101300000D03*
%TO.P,U22,15*%
%TO.N,Net-(U22-Pad15)*%
X162630000Y-93680000D03*
%TO.P,U22,5*%
%TO.N,Z_~VPA*%
X160090000Y-101300000D03*
%TO.P,U22,14*%
%TO.N,P53*%
X165170000Y-93680000D03*
%TO.P,U22,4*%
%TO.N,Z_A15*%
X157550000Y-101300000D03*
%TO.P,U22,13*%
%TO.N,P47*%
X167710000Y-93680000D03*
%TO.P,U22,3*%
%TO.N,Z_A7*%
X155010000Y-101300000D03*
%TO.P,U22,12*%
%TO.N,CLK*%
X170250000Y-93680000D03*
%TO.P,U22,2*%
%TO.N,Z_A6*%
X152470000Y-101300000D03*
%TO.P,U22,11*%
%TO.N,P53*%
X172790000Y-93680000D03*
D10*
%TO.P,U22,1*%
%TO.N,P45*%
X149930000Y-101300000D03*
%TD*%
%TO.P,U31,1*%
%TO.N,6_D4*%
X210450000Y-40360000D03*
D11*
%TO.P,U31,11*%
%TO.N,Net-(R35-Pad2)*%
X218070000Y-63220000D03*
%TO.P,U31,2*%
%TO.N,6_D5*%
X210450000Y-42900000D03*
%TO.P,U31,12*%
%TO.N,Net-(R36-Pad2)*%
X218070000Y-60680000D03*
%TO.P,U31,3*%
%TO.N,Z_R~W*%
X210450000Y-45440000D03*
%TO.P,U31,13*%
%TO.N,Net-(R37-Pad2)*%
X218070000Y-58140000D03*
%TO.P,U31,4*%
%TO.N,Net-(R311-Pad2)*%
X210450000Y-47980000D03*
%TO.P,U31,14*%
%TO.N,Net-(R38-Pad2)*%
X218070000Y-55600000D03*
%TO.P,U31,5*%
%TO.N,Net-(U31-Pad5)*%
X210450000Y-50520000D03*
%TO.P,U31,15*%
%TO.N,Net-(R39-Pad2)*%
X218070000Y-53060000D03*
%TO.P,U31,6*%
%TO.N,Net-(R31-Pad1)*%
X210450000Y-53060000D03*
%TO.P,U31,16*%
%TO.N,GND*%
X218070000Y-50520000D03*
%TO.P,U31,7*%
%TO.N,Net-(R32-Pad1)*%
X210450000Y-55600000D03*
%TO.P,U31,17*%
%TO.N,Net-(R312-Pad2)*%
X218070000Y-47980000D03*
%TO.P,U31,8*%
%TO.N,Net-(R33-Pad1)*%
X210450000Y-58140000D03*
%TO.P,U31,18*%
%TO.N,6_D6*%
X218070000Y-45440000D03*
%TO.P,U31,9*%
%TO.N,Net-(R34-Pad1)*%
X210450000Y-60680000D03*
%TO.P,U31,19*%
%TO.N,6_D7*%
X218070000Y-42900000D03*
%TO.P,U31,10*%
%TO.N,VCC*%
X210450000Y-63220000D03*
%TO.P,U31,20*%
%TO.N,GND*%
X218070000Y-40360000D03*
%TD*%
%TO.P,U32,20*%
%TO.N,GND*%
X206850000Y-40360000D03*
%TO.P,U32,10*%
%TO.N,VCC*%
X199230000Y-63220000D03*
%TO.P,U32,19*%
%TO.N,6_D3*%
X206850000Y-42900000D03*
%TO.P,U32,9*%
%TO.N,Net-(R34-Pad1)*%
X199230000Y-60680000D03*
%TO.P,U32,18*%
%TO.N,6_D2*%
X206850000Y-45440000D03*
%TO.P,U32,8*%
%TO.N,Net-(R33-Pad1)*%
X199230000Y-58140000D03*
%TO.P,U32,17*%
%TO.N,Net-(R312-Pad2)*%
X206850000Y-47980000D03*
%TO.P,U32,7*%
%TO.N,Net-(R32-Pad1)*%
X199230000Y-55600000D03*
%TO.P,U32,16*%
%TO.N,GND*%
X206850000Y-50520000D03*
%TO.P,U32,6*%
%TO.N,Net-(R31-Pad1)*%
X199230000Y-53060000D03*
%TO.P,U32,15*%
%TO.N,Net-(R39-Pad2)*%
X206850000Y-53060000D03*
%TO.P,U32,5*%
%TO.N,Net-(U32-Pad5)*%
X199230000Y-50520000D03*
%TO.P,U32,14*%
%TO.N,Net-(R38-Pad2)*%
X206850000Y-55600000D03*
%TO.P,U32,4*%
%TO.N,Net-(R311-Pad2)*%
X199230000Y-47980000D03*
%TO.P,U32,13*%
%TO.N,Net-(R37-Pad2)*%
X206850000Y-58140000D03*
%TO.P,U32,3*%
%TO.N,Z_R~W*%
X199230000Y-45440000D03*
%TO.P,U32,12*%
%TO.N,Net-(R36-Pad2)*%
X206850000Y-60680000D03*
%TO.P,U32,2*%
%TO.N,6_D1*%
X199230000Y-42900000D03*
%TO.P,U32,11*%
%TO.N,Net-(R35-Pad2)*%
X206850000Y-63220000D03*
D10*
%TO.P,U32,1*%
%TO.N,6_D0*%
X199230000Y-40360000D03*
%TD*%
%TO.P,U33,1*%
%TO.N,6_D12*%
X188060000Y-40360000D03*
D11*
%TO.P,U33,11*%
%TO.N,Net-(R35-Pad2)*%
X195680000Y-63220000D03*
%TO.P,U33,2*%
%TO.N,6_D13*%
X188060000Y-42900000D03*
%TO.P,U33,12*%
%TO.N,Net-(R36-Pad2)*%
X195680000Y-60680000D03*
%TO.P,U33,3*%
%TO.N,Z_R~W*%
X188060000Y-45440000D03*
%TO.P,U33,13*%
%TO.N,Net-(R37-Pad2)*%
X195680000Y-58140000D03*
%TO.P,U33,4*%
%TO.N,Net-(R311-Pad2)*%
X188060000Y-47980000D03*
%TO.P,U33,14*%
%TO.N,Net-(R38-Pad2)*%
X195680000Y-55600000D03*
%TO.P,U33,5*%
%TO.N,Net-(U33-Pad5)*%
X188060000Y-50520000D03*
%TO.P,U33,15*%
%TO.N,Net-(R39-Pad2)*%
X195680000Y-53060000D03*
%TO.P,U33,6*%
%TO.N,Net-(R31-Pad1)*%
X188060000Y-53060000D03*
%TO.P,U33,16*%
%TO.N,GND*%
X195680000Y-50520000D03*
%TO.P,U33,7*%
%TO.N,Net-(R32-Pad1)*%
X188060000Y-55600000D03*
%TO.P,U33,17*%
%TO.N,Net-(R313-Pad2)*%
X195680000Y-47980000D03*
%TO.P,U33,8*%
%TO.N,Net-(R33-Pad1)*%
X188060000Y-58140000D03*
%TO.P,U33,18*%
%TO.N,6_D14*%
X195680000Y-45440000D03*
%TO.P,U33,9*%
%TO.N,Net-(R34-Pad1)*%
X188060000Y-60680000D03*
%TO.P,U33,19*%
%TO.N,6_D15*%
X195680000Y-42900000D03*
%TO.P,U33,10*%
%TO.N,VCC*%
X188060000Y-63220000D03*
%TO.P,U33,20*%
%TO.N,GND*%
X195680000Y-40360000D03*
%TD*%
%TO.P,U34,20*%
%TO.N,GND*%
X184450000Y-40360000D03*
%TO.P,U34,10*%
%TO.N,VCC*%
X176830000Y-63220000D03*
%TO.P,U34,19*%
%TO.N,6_D11*%
X184450000Y-42900000D03*
%TO.P,U34,9*%
%TO.N,Net-(R34-Pad1)*%
X176830000Y-60680000D03*
%TO.P,U34,18*%
%TO.N,6_D10*%
X184450000Y-45440000D03*
%TO.P,U34,8*%
%TO.N,Net-(R33-Pad1)*%
X176830000Y-58140000D03*
%TO.P,U34,17*%
%TO.N,Net-(R313-Pad2)*%
X184450000Y-47980000D03*
%TO.P,U34,7*%
%TO.N,Net-(R32-Pad1)*%
X176830000Y-55600000D03*
%TO.P,U34,16*%
%TO.N,GND*%
X184450000Y-50520000D03*
%TO.P,U34,6*%
%TO.N,Net-(R31-Pad1)*%
X176830000Y-53060000D03*
%TO.P,U34,15*%
%TO.N,Net-(R39-Pad2)*%
X184450000Y-53060000D03*
%TO.P,U34,5*%
%TO.N,Net-(U34-Pad5)*%
X176830000Y-50520000D03*
%TO.P,U34,14*%
%TO.N,Net-(R38-Pad2)*%
X184450000Y-55600000D03*
%TO.P,U34,4*%
%TO.N,Net-(R311-Pad2)*%
X176830000Y-47980000D03*
%TO.P,U34,13*%
%TO.N,Net-(R37-Pad2)*%
X184450000Y-58140000D03*
%TO.P,U34,3*%
%TO.N,Z_R~W*%
X176830000Y-45440000D03*
%TO.P,U34,12*%
%TO.N,Net-(R36-Pad2)*%
X184450000Y-60680000D03*
%TO.P,U34,2*%
%TO.N,6_D9*%
X176830000Y-42900000D03*
%TO.P,U34,11*%
%TO.N,Net-(R35-Pad2)*%
X184450000Y-63220000D03*
D10*
%TO.P,U34,1*%
%TO.N,6_D8*%
X176830000Y-40360000D03*
%TD*%
D12*
%TO.P,U41,2*%
%TO.N,Z_R~W*%
X160080000Y-108990000D03*
%TO.P,U41,4*%
%TO.N,Z_A16*%
X157540000Y-108990000D03*
%TO.P,U41,6*%
%TO.N,6_~S0*%
X155000000Y-108990000D03*
%TO.P,U41,8*%
%TO.N,M_~AS*%
X152460000Y-108990000D03*
%TO.P,U41,10*%
%TO.N,M_~LDS*%
X149920000Y-108990000D03*
%TO.P,U41,84*%
%TO.N,6_A17*%
X162620000Y-108990000D03*
%TO.P,U41,82*%
%TO.N,6_A18*%
X165160000Y-108990000D03*
%TO.P,U41,80*%
%TO.N,6_A19*%
X167700000Y-108990000D03*
%TO.P,U41,78*%
%TO.N,Z_A20*%
X170240000Y-108990000D03*
%TO.P,U41,76*%
%TO.N,Z_A22*%
X172780000Y-108990000D03*
%TO.P,U41,74*%
%TO.N,CLK*%
X175320000Y-108990000D03*
D14*
%TO.P,U41,1*%
%TO.N,GND*%
X160080000Y-106450000D03*
D12*
%TO.P,U41,3*%
%TO.N,M_~UDS*%
X157540000Y-106450000D03*
%TO.P,U41,5*%
%TO.N,6_A16*%
X155000000Y-106450000D03*
%TO.P,U41,7*%
%TO.N,Z_FC1*%
X152460000Y-106450000D03*
%TO.P,U41,9*%
%TO.N,P9*%
X149920000Y-106450000D03*
%TO.P,U41,11*%
%TO.N,GCLK*%
X147380000Y-106450000D03*
%TO.P,U41,83*%
%TO.N,Z_A17*%
X162620000Y-106450000D03*
%TO.P,U41,81*%
%TO.N,Z_A18*%
X165160000Y-106450000D03*
%TO.P,U41,79*%
%TO.N,Z_A19*%
X167700000Y-106450000D03*
%TO.P,U41,77*%
%TO.N,Z_A21*%
X170240000Y-106450000D03*
%TO.P,U41,75*%
%TO.N,Z_A23*%
X172780000Y-106450000D03*
%TO.P,U41,13*%
%TO.N,6_D2*%
X147380000Y-108990000D03*
%TO.P,U41,15*%
%TO.N,6_~S1*%
X147380000Y-111530000D03*
%TO.P,U41,17*%
%TO.N,Z_A1*%
X147380000Y-114070000D03*
%TO.P,U41,19*%
%TO.N,P19*%
X147380000Y-116610000D03*
%TO.P,U41,21*%
%TO.N,6_RESET*%
X147380000Y-119150000D03*
%TO.P,U41,23*%
%TO.N,6_D5*%
X147380000Y-121690000D03*
%TO.P,U41,25*%
%TO.N,6_D1*%
X147380000Y-124230000D03*
%TO.P,U41,27*%
%TO.N,P27*%
X147380000Y-126770000D03*
%TO.P,U41,29*%
%TO.N,P29*%
X147380000Y-129310000D03*
%TO.P,U41,31*%
%TO.N,VCC*%
X147380000Y-131850000D03*
%TO.P,U41,12*%
X144840000Y-108990000D03*
%TO.P,U41,14*%
%TO.N,6_D4*%
X144840000Y-111530000D03*
%TO.P,U41,16*%
%TO.N,6_D7*%
X144840000Y-114070000D03*
%TO.P,U41,18*%
%TO.N,6_~BHE*%
X144840000Y-116610000D03*
%TO.P,U41,20*%
%TO.N,6_D0*%
X144840000Y-119150000D03*
%TO.P,U41,22*%
%TO.N,VCC*%
X144840000Y-121690000D03*
%TO.P,U41,24*%
%TO.N,P24*%
X144840000Y-124230000D03*
%TO.P,U41,26*%
%TO.N,6_D6*%
X144840000Y-126770000D03*
%TO.P,U41,28*%
%TO.N,6_D3*%
X144840000Y-129310000D03*
%TO.P,U41,30*%
%TO.N,P30*%
X144840000Y-131850000D03*
%TO.P,U41,32*%
%TO.N,VCC*%
X144840000Y-134390000D03*
%TO.P,U41,34*%
%TO.N,6_HOLD*%
X147380000Y-134390000D03*
%TO.P,U41,36*%
%TO.N,LDC*%
X149920000Y-134390000D03*
%TO.P,U41,38*%
%TO.N,P38*%
X152460000Y-134390000D03*
%TO.P,U41,40*%
%TO.N,6_~READY*%
X155000000Y-134390000D03*
%TO.P,U41,42*%
%TO.N,P42*%
X157540000Y-134390000D03*
%TO.P,U41,44*%
%TO.N,Z_~IPL2*%
X160080000Y-134390000D03*
%TO.P,U41,46*%
%TO.N,P46*%
X162620000Y-134390000D03*
%TO.P,U41,48*%
%TO.N,P48*%
X165160000Y-134390000D03*
%TO.P,U41,50*%
%TO.N,CLK*%
X167700000Y-134390000D03*
%TO.P,U41,52*%
%TO.N,7_~ERROR*%
X170240000Y-134390000D03*
%TO.P,U41,33*%
%TO.N,M2*%
X147380000Y-136930000D03*
%TO.P,U41,35*%
%TO.N,7_~NPS1*%
X149920000Y-136930000D03*
%TO.P,U41,37*%
%TO.N,M_~DTACK*%
X152460000Y-136930000D03*
%TO.P,U41,39*%
%TO.N,P39*%
X155000000Y-136930000D03*
%TO.P,U41,41*%
%TO.N,6_COD\u005C~INTA*%
X157540000Y-136930000D03*
%TO.P,U41,43*%
%TO.N,GND*%
X160080000Y-136930000D03*
%TO.P,U41,45*%
%TO.N,P45*%
X162620000Y-136930000D03*
%TO.P,U41,47*%
%TO.N,P47*%
X165160000Y-136930000D03*
%TO.P,U41,49*%
%TO.N,Z_R~W*%
X167700000Y-136930000D03*
%TO.P,U41,51*%
%TO.N,7_RESET*%
X170240000Y-136930000D03*
%TO.P,U41,53*%
%TO.N,P53*%
X172780000Y-136930000D03*
%TO.P,U41,55*%
%TO.N,7_NPS2*%
X172780000Y-134390000D03*
%TO.P,U41,57*%
%TO.N,7_~BUSY*%
X172780000Y-131850000D03*
%TO.P,U41,59*%
%TO.N,6_HDLA*%
X172780000Y-129310000D03*
%TO.P,U41,61*%
%TO.N,P61*%
X172780000Y-126770000D03*
%TO.P,U41,63*%
%TO.N,6_M\u005C~IO*%
X172780000Y-124230000D03*
%TO.P,U41,65*%
%TO.N,P65*%
X172780000Y-121690000D03*
%TO.P,U41,67*%
%TO.N,P67*%
X172780000Y-119150000D03*
%TO.P,U41,69*%
%TO.N,6_A21*%
X172780000Y-116610000D03*
%TO.P,U41,71*%
%TO.N,P71*%
X172780000Y-114070000D03*
%TO.P,U41,73*%
%TO.N,6_INTR*%
X172780000Y-111530000D03*
%TO.P,U41,54*%
%TO.N,Z_~RESET*%
X175320000Y-134390000D03*
%TO.P,U41,56*%
%TO.N,P56*%
X175320000Y-131850000D03*
%TO.P,U41,58*%
%TO.N,6_D11*%
X175320000Y-129310000D03*
%TO.P,U41,60*%
%TO.N,6_~BUSY*%
X175320000Y-126770000D03*
%TO.P,U41,62*%
%TO.N,6_D9*%
X175320000Y-124230000D03*
%TO.P,U41,64*%
%TO.N,VCC*%
X175320000Y-121690000D03*
%TO.P,U41,66*%
%TO.N,6_A23*%
X175320000Y-119150000D03*
%TO.P,U41,68*%
%TO.N,6_D10*%
X175320000Y-116610000D03*
%TO.P,U41,70*%
%TO.N,6_A22*%
X175320000Y-114070000D03*
%TO.P,U41,72*%
%TO.N,6_D8*%
X175320000Y-111530000D03*
%TD*%
D10*
%TO.P,U44,1*%
%TO.N,P29*%
X98870000Y-63380000D03*
D11*
%TO.P,U44,11*%
%TO.N,Z_~BGACK*%
X106490000Y-86240000D03*
%TO.P,U44,2*%
%TO.N,Z_A3*%
X98870000Y-65920000D03*
%TO.P,U44,12*%
%TO.N,7_~NPS1*%
X106490000Y-83700000D03*
%TO.P,U44,3*%
%TO.N,Z_R~W*%
X98870000Y-68460000D03*
%TO.P,U44,13*%
%TO.N,7_~NPWR*%
X106490000Y-81160000D03*
%TO.P,U44,4*%
%TO.N,Z_A5*%
X98870000Y-71000000D03*
%TO.P,U44,14*%
%TO.N,7_~NPRD*%
X106490000Y-78620000D03*
%TO.P,U44,5*%
%TO.N,Z_A6*%
X98870000Y-73540000D03*
%TO.P,U44,15*%
%TO.N,M_~BGACK*%
X106490000Y-76080000D03*
%TO.P,U44,6*%
%TO.N,Z_A7*%
X98870000Y-76080000D03*
%TO.P,U44,16*%
%TO.N,M_~BR*%
X106490000Y-73540000D03*
%TO.P,U44,7*%
%TO.N,Z_A8*%
X98870000Y-78620000D03*
%TO.P,U44,17*%
%TO.N,P46*%
X106490000Y-71000000D03*
%TO.P,U44,8*%
%TO.N,Z_A9*%
X98870000Y-81160000D03*
%TO.P,U44,18*%
%TO.N,Z_~BR*%
X106490000Y-68460000D03*
%TO.P,U44,9*%
%TO.N,P9*%
X98870000Y-83700000D03*
%TO.P,U44,19*%
%TO.N,Net-(U37-Pad2)*%
X106490000Y-65920000D03*
%TO.P,U44,10*%
%TO.N,GND*%
X98870000Y-86240000D03*
%TO.P,U44,20*%
%TO.N,VCC*%
X106490000Y-63380000D03*
%TD*%
D15*
%TO.N,VCC*%
X91790000Y-129221100D03*
X87490000Y-43730000D03*
X106640000Y-48020000D03*
X124480000Y-45710000D03*
X130500000Y-63980000D03*
X138960000Y-73280000D03*
X140050000Y-87150000D03*
X146090000Y-92760000D03*
X142358000Y-103342000D03*
X121750000Y-100950000D03*
X124650000Y-101500000D03*
X124460000Y-112090000D03*
X121800000Y-114900000D03*
X103310000Y-100260000D03*
X103300000Y-112850000D03*
X94440000Y-130190000D03*
X102962000Y-139238000D03*
X123750000Y-136700000D03*
X135900000Y-125950000D03*
X130400000Y-122650000D03*
X138040000Y-120060000D03*
X184950000Y-130190000D03*
X184900000Y-105240000D03*
X191300000Y-105140000D03*
X208500000Y-102200000D03*
X196500000Y-97750000D03*
X210500000Y-81800000D03*
X211900000Y-68000000D03*
X200750000Y-68000000D03*
X189400000Y-68000000D03*
X178050000Y-68000000D03*
X152400000Y-60350000D03*
X157938000Y-60412500D03*
X159600000Y-46400000D03*
X150100000Y-44200000D03*
X130550000Y-81800000D03*
X180350000Y-124690000D03*
X182200000Y-116990000D03*
X184900000Y-117440000D03*
X180300000Y-112140000D03*
X175450000Y-89300000D03*
X208500000Y-130800000D03*
%TO.N,GND*%
X158591100Y-46925000D03*
X205919000Y-97395000D03*
X87490000Y-46160000D03*
X182300000Y-120040000D03*
X206250000Y-130750000D03*
X192550000Y-131590000D03*
X192550000Y-118990000D03*
X188750000Y-117540000D03*
X192550000Y-106690000D03*
X182250000Y-108040000D03*
X214850000Y-68000000D03*
X204000000Y-68000000D03*
X192700000Y-68000000D03*
X181450000Y-68000000D03*
X207400000Y-98850000D03*
X171050000Y-51900000D03*
X157100000Y-48700000D03*
X150200000Y-46500000D03*
X147600000Y-40350000D03*
X148450000Y-53100000D03*
X135900000Y-51350000D03*
X121900000Y-48000000D03*
X128200000Y-61450000D03*
X138950000Y-70050000D03*
X125000000Y-75400000D03*
X128350000Y-79250000D03*
X124750000Y-93200000D03*
X121750000Y-104100000D03*
X133300000Y-102850000D03*
X121800000Y-111750000D03*
X132100000Y-113600000D03*
X128150000Y-120000000D03*
X142040000Y-117110000D03*
X124950000Y-134050000D03*
X102050000Y-131600000D03*
X91800000Y-132800000D03*
X105250000Y-56950000D03*
X107050000Y-49300000D03*
X105750000Y-43600000D03*
X142850000Y-98900000D03*
X146050000Y-98900000D03*
X188190000Y-96210000D03*
%TO.N,Net-(C17-Pad1)*%
X142555000Y-88771500D03*
%TO.N,Z_D4*%
X124570100Y-88155000D03*
X135200300Y-115984400D03*
X135200300Y-94210200D03*
%TO.N,Z_D3*%
X121265000Y-86885000D03*
X113542700Y-87744900D03*
X113542700Y-116710000D03*
%TO.N,Z_D2*%
X119980000Y-113830000D03*
%TO.N,Z_D1*%
X115168000Y-131960000D03*
X119520000Y-111630000D03*
%TO.N,Z_D0*%
X119400400Y-84889900D03*
X114996300Y-87019800D03*
X114267800Y-129723900D03*
X114267800Y-109090000D03*
%TO.N,Z_~AS*%
X96980000Y-132099400D03*
%TO.N,Z_~UDS*%
X102436400Y-123807600D03*
%TO.N,Z_~LDS*%
X104573800Y-121800000D03*
%TO.N,Z_R~W*%
X176815500Y-81969800D03*
X175478100Y-99549800D03*
X101999700Y-68460000D03*
X103724900Y-98945000D03*
X194450300Y-138160900D03*
X194450300Y-81969800D03*
X186200200Y-81969800D03*
X111045200Y-99965100D03*
X186200200Y-46504800D03*
X167710000Y-99549800D03*
X160634900Y-99549800D03*
%TO.N,Z_~DTACK*%
X96919900Y-118435200D03*
%TO.N,Z_~BG*%
X132055000Y-107053500D03*
X127625100Y-107053500D03*
X123382000Y-121580400D03*
%TO.N,Z_~BGACK*%
X103310000Y-106164600D03*
X125730000Y-118224900D03*
X106490000Y-106164600D03*
%TO.N,Z_~BR*%
X107490100Y-106889700D03*
X104511100Y-106889700D03*
%TO.N,Z_CLK*%
X188740000Y-141044900D03*
X107221900Y-139880000D03*
X112034400Y-104020000D03*
%TO.N,Z_~HALT*%
X111670400Y-80434900D03*
%TO.N,Z_~RESET*%
X179129900Y-134390000D03*
X179129900Y-140749500D03*
X84050200Y-140880100D03*
X87871600Y-95639900D03*
%TO.N,Z_~VPA*%
X107461000Y-100690200D03*
%TO.N,Z_~BERR*%
X111670400Y-79434800D03*
%TO.N,Z_~IPL2*%
X112759500Y-128998800D03*
X112759500Y-86696400D03*
X112759500Y-84012300D03*
%TO.N,Z_~IPL1*%
X125730000Y-113589200D03*
X117775100Y-115195100D03*
X118500200Y-60830000D03*
X119400400Y-79142700D03*
X115317900Y-81160000D03*
%TO.N,Z_~IPL0*%
X118675300Y-80850000D03*
%TO.N,Z_FC2*%
X113570700Y-69239800D03*
X111670400Y-69239800D03*
%TO.N,Z_FC1*%
X151691400Y-91029600D03*
%TO.N,Z_A1*%
X183232400Y-82989800D03*
X181782200Y-82989800D03*
X180377700Y-49044800D03*
X158550200Y-48519400D03*
X156205100Y-49503900D03*
X182507300Y-93473900D03*
X180431900Y-107953700D03*
X153594500Y-48015000D03*
X109770100Y-57914600D03*
X174815200Y-102513300D03*
X118050100Y-52640500D03*
X174815200Y-106953600D03*
X129555000Y-51779900D03*
%TO.N,Z_A2*%
X154519700Y-41599900D03*
X182273900Y-41599900D03*
X120225400Y-56854900D03*
X145035800Y-53514400D03*
X130825000Y-51779900D03*
X118775200Y-53365600D03*
X121300700Y-66505000D03*
%TO.N,Z_A3*%
X145245400Y-50555000D03*
X120294100Y-54964600D03*
X122025000Y-54964600D03*
X121419900Y-67775000D03*
X134309900Y-50779800D03*
%TO.N,Z_A4*%
X113542700Y-47919700D03*
X145245400Y-46745000D03*
X134635000Y-45744900D03*
X120575600Y-62105000D03*
%TO.N,Z_A5*%
X130825000Y-45480100D03*
X110004600Y-46396800D03*
X90905000Y-60840000D03*
X121010000Y-73490000D03*
%TO.N,Z_A6*%
X111454800Y-47829100D03*
X111454800Y-40946000D03*
X102732900Y-40946000D03*
X152470000Y-96365100D03*
X125295200Y-89155100D03*
X124295100Y-76400100D03*
X128675100Y-76400100D03*
X129555000Y-46397700D03*
X87477000Y-52484900D03*
X89729800Y-57859800D03*
X89729800Y-63380000D03*
%TO.N,Z_A7*%
X155010000Y-98824700D03*
X149916400Y-98824700D03*
X149916400Y-97082200D03*
X99282700Y-97179800D03*
X99282700Y-88192400D03*
X96815400Y-88192400D03*
X130869900Y-71585000D03*
X97540500Y-69964900D03*
X123574900Y-42604900D03*
%TO.N,Z_A8*%
X160895000Y-57054000D03*
X128950100Y-68038900D03*
X101626100Y-50504800D03*
X103449900Y-78620000D03*
X92589900Y-59560000D03*
X91630100Y-66024800D03*
X103449900Y-69185100D03*
%TO.N,Z_A9*%
X164705000Y-60002200D03*
X128483300Y-63077600D03*
X88702600Y-80124900D03*
X127499900Y-81479400D03*
%TO.N,Z_A10*%
X165975000Y-50694700D03*
X153794600Y-40859200D03*
X96224800Y-44564900D03*
X153794600Y-46745000D03*
%TO.N,Z_A11*%
X169785000Y-51528600D03*
X138928900Y-51530000D03*
X124853500Y-49644900D03*
X112305000Y-49644900D03*
X112305000Y-42874900D03*
X150669400Y-50555000D03*
%TO.N,Z_A12*%
X148095600Y-48469700D03*
X169785000Y-46120100D03*
%TO.N,Z_A13*%
X165975000Y-46954900D03*
X147970600Y-44019900D03*
%TO.N,Z_A14*%
X164705000Y-52253700D03*
X100345200Y-82664900D03*
X97950700Y-64884900D03*
X104750000Y-59639800D03*
%TO.N,Z_A15*%
X157550000Y-96332400D03*
X180706900Y-96332400D03*
X179305300Y-42782400D03*
X107279400Y-54395000D03*
%TO.N,Z_A16*%
X101855400Y-53125000D03*
X96090300Y-53125000D03*
X164381400Y-131348000D03*
X205014900Y-104633700D03*
X161861100Y-141039000D03*
X163710000Y-143421200D03*
%TO.N,Z_A17*%
X96090300Y-70990000D03*
X96090300Y-90640100D03*
%TO.N,Z_A18*%
X132055000Y-97082200D03*
X131880000Y-100990600D03*
X165200000Y-102740000D03*
%TO.N,Z_A19*%
X95915200Y-97015100D03*
X167700000Y-103688500D03*
X144244400Y-103413500D03*
X144244400Y-105688700D03*
X95915200Y-105439500D03*
%TO.N,Z_A20*%
X160438900Y-110408300D03*
X160438900Y-125319800D03*
X133825200Y-121521100D03*
X133825200Y-108971700D03*
%TO.N,Z_A21*%
X172001400Y-104688600D03*
X172001400Y-98289800D03*
%TO.N,Z_A22*%
X165841600Y-111858500D03*
X165841600Y-115259300D03*
%TO.N,Z_A23*%
X166646400Y-109917200D03*
X166646400Y-129304800D03*
X162709900Y-139552500D03*
X162709900Y-143421200D03*
%TO.N,Z_D15*%
X119846500Y-132795000D03*
X87185100Y-107585100D03*
%TO.N,Z_D14*%
X117475100Y-131525000D03*
X87910200Y-112429800D03*
%TO.N,Z_D13*%
X87460100Y-134289700D03*
X118846500Y-130255000D03*
%TO.N,Z_D12*%
X117475100Y-130524900D03*
X96067200Y-126648400D03*
X90633400Y-101470000D03*
X90633400Y-111459800D03*
X90633400Y-122344900D03*
%TO.N,Z_D11*%
X119200300Y-127715000D03*
X98557600Y-109439700D03*
X98557600Y-122082400D03*
%TO.N,Z_D10*%
X117475100Y-126445000D03*
X93589900Y-126580000D03*
X91265000Y-126580000D03*
%TO.N,Z_D9*%
X118475200Y-125175000D03*
X89522000Y-109090000D03*
%TO.N,Z_D8*%
X120673400Y-123905000D03*
%TO.N,Z_D7*%
X123016100Y-112079000D03*
%TO.N,Z_D6*%
X124570100Y-90695000D03*
X96815400Y-89844800D03*
%TO.N,Z_D5*%
X121419900Y-89425000D03*
X101999700Y-92893700D03*
X101999700Y-119250000D03*
%TO.N,M_~BR*%
X107215100Y-88054900D03*
%TO.N,M_~BGACK*%
X104536600Y-90569900D03*
X104536600Y-76080000D03*
%TO.N,M_~BG*%
X121265000Y-96268900D03*
X125285100Y-103689400D03*
X129595200Y-103689400D03*
%TO.N,M_~DTACK*%
X97832500Y-95639900D03*
X152460000Y-139691500D03*
%TO.N,M_~LDS*%
X156859900Y-138827400D03*
X154221400Y-130638600D03*
X184165200Y-118424900D03*
X101201100Y-137400000D03*
X106474100Y-137400000D03*
X110320100Y-101470000D03*
X151691400Y-110733400D03*
X151691400Y-118424900D03*
%TO.N,M_~UDS*%
X100549500Y-104260000D03*
X186190000Y-106654300D03*
%TO.N,M_~AS*%
X111670400Y-133474900D03*
X111670400Y-106889700D03*
X96000000Y-134839700D03*
%TO.N,Net-(Q1-Pad8)*%
X184930000Y-136727200D03*
X196353200Y-136727200D03*
X186925300Y-76690000D03*
X186925300Y-94199000D03*
X152470000Y-73088500D03*
X183920000Y-74088600D03*
%TO.N,6_~S0*%
X130810000Y-111790600D03*
X178431700Y-82842700D03*
X179431800Y-116564900D03*
X170471500Y-117388600D03*
X170471500Y-111133400D03*
X138524000Y-111467500D03*
%TO.N,6_~S1*%
X175470000Y-85891100D03*
X131517200Y-112599900D03*
X147316100Y-89861300D03*
%TO.N,Net-(R15-Pad2)*%
X138656800Y-87647800D03*
%TO.N,7_~ERROR*%
X205937500Y-80344000D03*
X195175400Y-135660000D03*
X195175400Y-86260000D03*
%TO.N,7_~BUSY*%
X202924200Y-81820000D03*
X203300500Y-105554900D03*
%TO.N,Net-(R31-Pad1)*%
X156920000Y-53429000D03*
%TO.N,Net-(R31-Pad2)*%
X153394600Y-49285000D03*
X156920000Y-50504000D03*
%TO.N,Net-(R32-Pad2)*%
X154247400Y-56328900D03*
X163757500Y-57054000D03*
%TO.N,Net-(R32-Pad1)*%
X166682500Y-55600000D03*
%TO.N,Net-(R33-Pad1)*%
X173212500Y-57054000D03*
%TO.N,Net-(R33-Pad2)*%
X149175100Y-54153600D03*
X150927100Y-54153600D03*
X150927100Y-57999600D03*
X170287500Y-57054000D03*
%TO.N,Net-(R35-Pad1)*%
X106285300Y-50300100D03*
X114752190Y-48673010D03*
%TO.N,Net-(R36-Pad1)*%
X113655900Y-58639700D03*
X108711700Y-58639700D03*
%TO.N,Net-(R36-Pad2)*%
X127582500Y-59056100D03*
%TO.N,Net-(R37-Pad2)*%
X100150000Y-41671100D03*
X180030400Y-43964800D03*
X181450000Y-58140000D03*
%TO.N,Net-(R38-Pad2)*%
X98694000Y-55024900D03*
X181999500Y-42964700D03*
X182900200Y-55600000D03*
%TO.N,Net-(R39-Pad2)*%
X133652500Y-56074000D03*
%TO.N,M2*%
X126180900Y-131302600D03*
X122995000Y-80039500D03*
X125025000Y-80039500D03*
X128390200Y-131302600D03*
X134394000Y-130302500D03*
%TO.N,P65*%
X124460000Y-117499800D03*
X178874000Y-122937500D03*
%TO.N,6_RESET*%
X154221400Y-119150000D03*
%TO.N,7_RESET*%
X202854800Y-109110000D03*
%TO.N,P9*%
X100282800Y-100259600D03*
X145282500Y-104138600D03*
%TO.N,6_PEREQ*%
X157550000Y-72998800D03*
X165481200Y-72998800D03*
X174540200Y-81180000D03*
%TO.N,P48*%
X189465100Y-139611100D03*
%TO.N,P38*%
X160697500Y-140314000D03*
%TO.N,Net-(R313-Pad2)*%
X157772500Y-144146300D03*
%TO.N,P39*%
X154847500Y-138691400D03*
%TO.N,6_~BHE*%
X169471400Y-113716100D03*
%TO.N,6_~PEACK*%
X188250300Y-84073500D03*
X188250300Y-94699900D03*
X197730600Y-100474900D03*
%TO.N,6_A23*%
X184920000Y-119425000D03*
%TO.N,6_A22*%
X163391300Y-78390000D03*
X172286400Y-71098500D03*
X184645100Y-71098500D03*
X185545100Y-114308800D03*
X186190000Y-119759400D03*
X189662500Y-114308800D03*
%TO.N,6_M\u005C~IO*%
X129620200Y-117518900D03*
X165170000Y-80983500D03*
X163391300Y-80983500D03*
X163666300Y-123541100D03*
%TO.N,6_COD\u005C~INTA*%
X155771300Y-84698700D03*
%TO.N,6_HDLA*%
X159625000Y-60663500D03*
X163408600Y-60663500D03*
X124475000Y-55103900D03*
X158396100Y-54878700D03*
%TO.N,6_HOLD*%
X153496300Y-129638500D03*
X153221300Y-89877500D03*
%TO.N,6_~READY*%
X155000000Y-121468500D03*
X159036400Y-121468500D03*
%TO.N,6_A21*%
X168746300Y-117610100D03*
X187460000Y-119015200D03*
%TO.N,6_A20*%
X185475100Y-73310000D03*
%TO.N,6_A19*%
X186370200Y-117662800D03*
X167700000Y-115123600D03*
%TO.N,6_A16*%
X157311200Y-104776100D03*
X158586300Y-70778700D03*
X162476600Y-70778700D03*
%TO.N,6_A14*%
X163435000Y-49244500D03*
X178580200Y-52034900D03*
X178305200Y-65690000D03*
%TO.N,6_A11*%
X168515000Y-61838700D03*
%TO.N,6_A6*%
X141410300Y-62113700D03*
X159053700Y-62113700D03*
%TO.N,6_A3*%
X138926800Y-63928600D03*
%TO.N,6_A2*%
X132095000Y-51779900D03*
X142135400Y-52703800D03*
%TO.N,6_A0*%
X131640100Y-62654900D03*
%TO.N,6_D0*%
X176127900Y-75628500D03*
X176127900Y-78398700D03*
X165481200Y-92379900D03*
X165481200Y-90025100D03*
X169471400Y-88654800D03*
X171561300Y-75628500D03*
X134785100Y-125175000D03*
X138572800Y-75178400D03*
X140210100Y-66468600D03*
X151200000Y-75858700D03*
X197175600Y-77164800D03*
X138040000Y-121103800D03*
%TO.N,6_D8*%
X179640900Y-87324800D03*
X130575400Y-84156500D03*
X134897100Y-71547000D03*
X179156800Y-112039800D03*
X174551200Y-70058800D03*
%TO.N,6_D1*%
X151776800Y-90029500D03*
X192840100Y-86599700D03*
X192840100Y-76100000D03*
X156814900Y-112344800D03*
X154946500Y-112344800D03*
X154221400Y-124230000D03*
X133950100Y-126445000D03*
X143134800Y-126044900D03*
X156496400Y-81708600D03*
X151416400Y-81708600D03*
%TO.N,6_D9*%
X191063800Y-69816000D03*
X184699600Y-69816000D03*
X184699600Y-66018500D03*
X180493200Y-66018500D03*
X136122500Y-69220100D03*
X129225100Y-69220100D03*
X192270100Y-110411700D03*
X191179000Y-90161900D03*
X136660900Y-60213400D03*
X175448900Y-61388600D03*
%TO.N,6_D2*%
X124570100Y-65235000D03*
X140935200Y-69620100D03*
%TO.N,6_D10*%
X191045100Y-94219700D03*
X134020100Y-86885000D03*
X142074900Y-73310000D03*
X178431700Y-116610000D03*
X197987800Y-102739900D03*
X189250400Y-75664900D03*
%TO.N,6_D3*%
X215300100Y-44414900D03*
X124570100Y-69045000D03*
X190338700Y-72534900D03*
X188008700Y-73041900D03*
X137571100Y-129139000D03*
X135931500Y-74363600D03*
%TO.N,6_D11*%
X182507300Y-88049900D03*
X212970600Y-87774900D03*
X134745200Y-91239900D03*
X146078700Y-90004700D03*
X175276300Y-68558500D03*
X175276300Y-63928600D03*
X171021800Y-63928600D03*
X165398600Y-68008500D03*
X155083900Y-68008500D03*
X155083900Y-77628700D03*
X180049800Y-129310000D03*
X180130000Y-134415400D03*
X183625300Y-68083400D03*
%TO.N,6_D4*%
X125104900Y-66468600D03*
X137847700Y-76610800D03*
X130562200Y-130255000D03*
X143326600Y-130363600D03*
%TO.N,6_D12*%
X134020100Y-89082500D03*
X141117400Y-75639500D03*
X200255100Y-65020300D03*
%TO.N,6_D5*%
X124845100Y-72997200D03*
X139392200Y-77980600D03*
X142426300Y-87771400D03*
X141290600Y-122468600D03*
X150326600Y-78390000D03*
X151190000Y-121690000D03*
X150326600Y-84698700D03*
%TO.N,6_D13*%
X211675200Y-71084700D03*
X153195100Y-68955100D03*
X153195100Y-79168600D03*
X130575400Y-90695000D03*
X144205300Y-89279600D03*
X194150200Y-68808500D03*
%TO.N,6_D6*%
X130575400Y-74125000D03*
X139724900Y-80490100D03*
X140940400Y-126770000D03*
X137850700Y-85248700D03*
X139724900Y-84523600D03*
%TO.N,6_D14*%
X208600200Y-67193700D03*
X135031300Y-85481100D03*
X208600200Y-42660200D03*
%TO.N,6_D7*%
X134172000Y-74669900D03*
X137750800Y-79765000D03*
X130799900Y-134065000D03*
X129112000Y-134065000D03*
X129600200Y-125222500D03*
X135925400Y-118609800D03*
X135925400Y-114070000D03*
X141701200Y-85248700D03*
%TO.N,6_D15*%
X140450000Y-85474300D03*
X140450000Y-82744900D03*
X130575400Y-88357400D03*
X196175500Y-66468600D03*
%TO.N,6_~BUSY*%
X150231200Y-126044900D03*
%TO.N,6_INTR*%
X179706800Y-106228500D03*
X181782200Y-85435600D03*
%TO.N,7_~NPS1*%
X105298900Y-88470000D03*
X119841300Y-140880500D03*
X201850300Y-106580000D03*
X159235000Y-141330600D03*
%TO.N,P61*%
X186359900Y-110493700D03*
X174421600Y-101256600D03*
X175716000Y-107678700D03*
%TO.N,P30*%
X188730000Y-112414000D03*
%TO.N,P71*%
X191270000Y-110473700D03*
X186415400Y-113033700D03*
%TO.N,Net-(U15-Pad8)*%
X145110500Y-42800500D03*
X192540000Y-94944800D03*
X213970700Y-92579900D03*
X219995300Y-38459700D03*
X186650300Y-38459700D03*
X181999500Y-39329800D03*
X154519700Y-40134100D03*
X152996100Y-42214500D03*
X146592900Y-42214500D03*
X126033100Y-80764600D03*
X121125600Y-80764600D03*
X104580600Y-48045000D03*
X123116100Y-44564900D03*
%TO.N,GCLK*%
X143585600Y-57999600D03*
X126033100Y-61587500D03*
X126033100Y-77524800D03*
X128325200Y-80759500D03*
X171055000Y-46120100D03*
X143585600Y-45774900D03*
X134025100Y-106450000D03*
%TO.N,P19*%
X173408300Y-103238400D03*
X173408300Y-104688600D03*
X183446100Y-104688600D03*
X183440100Y-121213800D03*
X165479100Y-119928600D03*
X165479100Y-116610000D03*
X123701300Y-59773700D03*
X136847600Y-75903500D03*
%TO.N,P45*%
X156946500Y-113344900D03*
X152591600Y-113344900D03*
X152591600Y-111666100D03*
X135950400Y-109301200D03*
X135950400Y-101195000D03*
%TO.N,P53*%
X124570100Y-63802700D03*
X173400400Y-60983000D03*
%TO.N,CLK*%
X170250000Y-98824700D03*
X176441100Y-101690400D03*
%TO.N,P47*%
X177706600Y-93655000D03*
%TO.N,LDC*%
X138040000Y-122495000D03*
X135510200Y-122495000D03*
%TO.N,P67*%
X188095100Y-126865400D03*
X170090400Y-125283600D03*
%TO.N,P27*%
X191280000Y-131289300D03*
X171059900Y-131362400D03*
X169784800Y-126770000D03*
%TO.N,P56*%
X187470000Y-132014400D03*
%TO.N,Net-(U37-Pad2)*%
X122120800Y-108615300D03*
X98557600Y-108064900D03*
X97540500Y-66699800D03*
%TO.N,P24*%
X130635000Y-117884700D03*
%TO.N,P29*%
X101709200Y-126675400D03*
X101274600Y-63380000D03*
%TO.N,Net-(U43-Pad4)*%
X190000000Y-122752100D03*
X127825100Y-117882200D03*
%TO.N,Net-(U42-Pad1)*%
X126730100Y-117825300D03*
X99520000Y-115684900D03*
%TD*%
D16*
%TO.N,Net-(C17-Pad1)*%
X142555000Y-88771500D02*
X142776500Y-88550000D01*
X142776500Y-88550000D02*
X147390000Y-88550000D01*
%TO.N,Z_D4*%
X135200300Y-94210200D02*
X147582200Y-94210200D01*
X147582200Y-94210200D02*
X149137500Y-92654900D01*
X149137500Y-92654900D02*
X153984900Y-92654900D01*
X153984900Y-92654900D02*
X155010000Y-93680000D01*
X135200300Y-94210200D02*
X128302200Y-94210200D01*
X128302200Y-94210200D02*
X126714700Y-92622700D01*
X126714700Y-92622700D02*
X126714700Y-88948800D01*
X126714700Y-88948800D02*
X125920900Y-88155000D01*
X125920900Y-88155000D02*
X124570100Y-88155000D01*
X135185900Y-115970000D02*
X135200300Y-115984400D01*
X118800000Y-115970000D02*
X135185900Y-115970000D01*
X118160000Y-116610000D02*
X118800000Y-115970000D01*
X118160000Y-117840000D02*
X118160000Y-116610000D01*
X116750000Y-119250000D02*
X118160000Y-117840000D01*
%TO.N,Z_D3*%
X113542700Y-87744900D02*
X120405100Y-87744900D01*
X120405100Y-87744900D02*
X121265000Y-86885000D01*
X113542700Y-116710000D02*
X116750000Y-116710000D01*
%TO.N,Z_D2*%
X116750000Y-114170000D02*
X119640000Y-114170000D01*
X119640000Y-114170000D02*
X119980000Y-113830000D01*
%TO.N,Z_D1*%
X115168000Y-131960000D02*
X109020000Y-131960000D01*
X119520000Y-111630000D02*
X119520000Y-111630000D01*
X116750000Y-111630000D02*
X119520000Y-111630000D01*
X119520000Y-111630000D02*
X119580000Y-111570000D01*
%TO.N,Z_D0*%
X114996300Y-87019800D02*
X114996300Y-86477400D01*
X114996300Y-86477400D02*
X116583800Y-84889900D01*
X116583800Y-84889900D02*
X119400400Y-84889900D01*
X114267800Y-129723900D02*
X111054700Y-129723900D01*
X111054700Y-129723900D02*
X110750800Y-129420000D01*
X110750800Y-129420000D02*
X109020000Y-129420000D01*
X116750000Y-109090000D02*
X114267800Y-109090000D01*
%TO.N,Z_~AS*%
X96980000Y-132099400D02*
X100669700Y-128409700D01*
X100669700Y-128409700D02*
X105594100Y-128409700D01*
X105594100Y-128409700D02*
X107123800Y-126880000D01*
X107123800Y-126880000D02*
X109020000Y-126880000D01*
%TO.N,Z_~UDS*%
X102436400Y-123807600D02*
X102968900Y-124340000D01*
X102968900Y-124340000D02*
X109020000Y-124340000D01*
%TO.N,Z_~LDS*%
X104573800Y-121800000D02*
X109020000Y-121800000D01*
%TO.N,Z_R~W*%
X186200200Y-81969800D02*
X176815500Y-81969800D01*
X167710000Y-99549800D02*
X175478100Y-99549800D01*
X160634900Y-99549800D02*
X167710000Y-99549800D01*
X186200200Y-46504800D02*
X177894800Y-46504800D01*
X177894800Y-46504800D02*
X176830000Y-45440000D01*
X101999700Y-68460000D02*
X98870000Y-68460000D01*
X111045200Y-99965100D02*
X107875500Y-99965100D01*
X107875500Y-99965100D02*
X106855300Y-98945000D01*
X106855300Y-98945000D02*
X103724900Y-98945000D01*
X188060000Y-45440000D02*
X186995200Y-46504800D01*
X186995200Y-46504800D02*
X186200200Y-46504800D01*
X199230000Y-45440000D02*
X200294800Y-46504800D01*
X200294800Y-46504800D02*
X209385200Y-46504800D01*
X209385200Y-46504800D02*
X210450000Y-45440000D01*
X199230000Y-45440000D02*
X198165200Y-46504800D01*
X198165200Y-46504800D02*
X189124800Y-46504800D01*
X189124800Y-46504800D02*
X188060000Y-45440000D01*
X116750000Y-98930000D02*
X118694900Y-98930000D01*
X118694900Y-98930000D02*
X119539700Y-99774800D01*
X119539700Y-99774800D02*
X153351100Y-99774800D01*
X153351100Y-99774800D02*
X153576100Y-99549800D01*
X153576100Y-99549800D02*
X160634900Y-99549800D01*
X116750000Y-98930000D02*
X112080300Y-98930000D01*
X112080300Y-98930000D02*
X111045200Y-99965100D01*
X186200200Y-81969800D02*
X194450300Y-81969800D01*
X167700000Y-136410000D02*
X167700000Y-136930000D01*
X168440000Y-135670000D02*
X167700000Y-136410000D01*
X170760000Y-135670000D02*
X168440000Y-135670000D01*
X171560000Y-136470000D02*
X170760000Y-135670000D01*
X171560000Y-137790000D02*
X171560000Y-136470000D01*
X171930900Y-138160900D02*
X171560000Y-137790000D01*
X194450300Y-138160900D02*
X171930900Y-138160900D01*
%TO.N,Z_~DTACK*%
X96919900Y-118435200D02*
X98635100Y-116720000D01*
X98635100Y-116720000D02*
X109020000Y-116720000D01*
%TO.N,Z_~BG*%
X127625100Y-107053500D02*
X132055000Y-107053500D01*
X123382000Y-121580400D02*
X112375700Y-121580400D01*
X112375700Y-121580400D02*
X110788200Y-119992900D01*
X110788200Y-119992900D02*
X110788200Y-115948200D01*
X110788200Y-115948200D02*
X109020000Y-114180000D01*
%TO.N,Z_~BGACK*%
X106490000Y-106164600D02*
X103310000Y-106164600D01*
X112399400Y-113227500D02*
X110811900Y-111640000D01*
X110811900Y-111640000D02*
X109020000Y-111640000D01*
X112399400Y-118009400D02*
X112399400Y-113227500D01*
X114740000Y-120350000D02*
X112399400Y-118009400D01*
X123604900Y-120350000D02*
X114740000Y-120350000D01*
X125730000Y-118224900D02*
X123604900Y-120350000D01*
%TO.N,Z_~BR*%
X104511100Y-106889700D02*
X107490100Y-106889700D01*
%TO.N,Z_CLK*%
X107221900Y-139880000D02*
X107221900Y-141108600D01*
X107221900Y-141108600D02*
X108809400Y-142696100D01*
X108809400Y-142696100D02*
X187088900Y-142696100D01*
X187088900Y-142696100D02*
X188740000Y-141044900D01*
X112034400Y-104020000D02*
X109020000Y-104020000D01*
%TO.N,Z_~HALT*%
X111670400Y-80434900D02*
X112523200Y-80434900D01*
X112523200Y-80434900D02*
X114348100Y-78610000D01*
X114348100Y-78610000D02*
X116750000Y-78610000D01*
%TO.N,Z_~RESET*%
X179129900Y-134390000D02*
X175320000Y-134390000D01*
X84050200Y-140880100D02*
X103605800Y-140880100D01*
X103605800Y-140880100D02*
X105331000Y-139154900D01*
X105331000Y-139154900D02*
X107550100Y-139154900D01*
X107550100Y-139154900D02*
X107947000Y-139551800D01*
X107947000Y-139551800D02*
X107947000Y-140658500D01*
X107947000Y-140658500D02*
X109534500Y-142246000D01*
X109534500Y-142246000D02*
X177633400Y-142246000D01*
X177633400Y-142246000D02*
X179129900Y-140749500D01*
X109020000Y-96400000D02*
X97174900Y-96400000D01*
X97174900Y-96400000D02*
X96139800Y-95364900D01*
X96139800Y-95364900D02*
X88146600Y-95364900D01*
X88146600Y-95364900D02*
X87871600Y-95639900D01*
%TO.N,Z_~VPA*%
X107461000Y-100690200D02*
X107696300Y-100454900D01*
X107696300Y-100454900D02*
X109900100Y-100454900D01*
X109900100Y-100454900D02*
X110190100Y-100744900D01*
X110190100Y-100744900D02*
X112575000Y-100744900D01*
X112575000Y-100744900D02*
X113095000Y-100224900D01*
X113095000Y-100224900D02*
X127713900Y-100224900D01*
X127713900Y-100224900D02*
X129573700Y-102084700D01*
X129573700Y-102084700D02*
X133759000Y-102084700D01*
X133759000Y-102084700D02*
X134291200Y-102616900D01*
X134291200Y-102616900D02*
X158773100Y-102616900D01*
X158773100Y-102616900D02*
X160090000Y-101300000D01*
%TO.N,Z_~BERR*%
X111670400Y-79434800D02*
X111395400Y-79709800D01*
X111395400Y-79709800D02*
X108362100Y-79709800D01*
X108362100Y-79709800D02*
X107965200Y-79312900D01*
X107965200Y-79312900D02*
X107965200Y-78388700D01*
X107965200Y-78388700D02*
X107171500Y-77594900D01*
X107171500Y-77594900D02*
X105978700Y-77594900D01*
X105978700Y-77594900D02*
X105185000Y-78388700D01*
X105185000Y-78388700D02*
X105185000Y-84421200D01*
X105185000Y-84421200D02*
X105978700Y-85214900D01*
X105978700Y-85214900D02*
X107994900Y-85214900D01*
X107994900Y-85214900D02*
X109020000Y-86240000D01*
%TO.N,Z_~IPL2*%
X112759500Y-84012300D02*
X111941500Y-84012300D01*
X111941500Y-84012300D02*
X111629200Y-83700000D01*
X111629200Y-83700000D02*
X109020000Y-83700000D01*
X112759500Y-128998800D02*
X118984100Y-128998800D01*
X118984100Y-128998800D02*
X120571600Y-130586300D01*
X120571600Y-130586300D02*
X120571600Y-131712800D01*
X120571600Y-131712800D02*
X126921600Y-138062800D01*
X126921600Y-138062800D02*
X147856300Y-138062800D01*
X147856300Y-138062800D02*
X148650000Y-137269100D01*
X148650000Y-137269100D02*
X148650000Y-134147500D01*
X148650000Y-134147500D02*
X149443800Y-133353700D01*
X149443800Y-133353700D02*
X159043700Y-133353700D01*
X159043700Y-133353700D02*
X160080000Y-134390000D01*
X112759500Y-84012300D02*
X112759500Y-86696400D01*
%TO.N,Z_~IPL1*%
X117775100Y-115195100D02*
X119797300Y-115195100D01*
X119797300Y-115195100D02*
X121403100Y-113589200D01*
X121403100Y-113589200D02*
X125730000Y-113589200D01*
X115317900Y-81160000D02*
X109020000Y-81160000D01*
X118500200Y-60830000D02*
X116750000Y-60830000D01*
X115317900Y-81160000D02*
X115317900Y-80918700D01*
X115317900Y-80918700D02*
X116111700Y-80124900D01*
X116111700Y-80124900D02*
X117378200Y-80124900D01*
X117378200Y-80124900D02*
X117775100Y-80521800D01*
X117775100Y-80521800D02*
X117775100Y-81367800D01*
X117775100Y-81367800D02*
X118172000Y-81764700D01*
X118172000Y-81764700D02*
X119003500Y-81764700D01*
X119003500Y-81764700D02*
X119400400Y-81367800D01*
X119400400Y-81367800D02*
X119400400Y-79142700D01*
%TO.N,Z_~IPL0*%
X118675300Y-80850000D02*
X118675300Y-78378700D01*
X118675300Y-78378700D02*
X117881600Y-77584900D01*
X117881600Y-77584900D02*
X110055100Y-77584900D01*
X110055100Y-77584900D02*
X109020000Y-78620000D01*
%TO.N,Z_FC2*%
X111670400Y-69239800D02*
X113570700Y-69239800D01*
%TO.N,Z_FC1*%
X109020000Y-73540000D02*
X110074800Y-74594800D01*
X110074800Y-74594800D02*
X128606500Y-74594800D01*
X128606500Y-74594800D02*
X129400200Y-75388600D01*
X129400200Y-75388600D02*
X129400200Y-90687500D01*
X129400200Y-90687500D02*
X130987700Y-92275000D01*
X130987700Y-92275000D02*
X139828400Y-92275000D01*
X139828400Y-92275000D02*
X141073700Y-91029600D01*
X141073700Y-91029600D02*
X151691400Y-91029600D01*
%TO.N,Z_A1*%
X129555000Y-51779900D02*
X131822600Y-49512400D01*
X131822600Y-49512400D02*
X150195700Y-49512400D01*
X150195700Y-49512400D02*
X151693100Y-48015000D01*
X151693100Y-48015000D02*
X153594500Y-48015000D01*
X129555000Y-51779900D02*
X128755200Y-51779900D01*
X128755200Y-51779900D02*
X127894600Y-52640500D01*
X127894600Y-52640500D02*
X118050100Y-52640500D01*
X181782200Y-82989800D02*
X183232400Y-82989800D01*
X158550200Y-48519400D02*
X164442300Y-48519400D01*
X164442300Y-48519400D02*
X164967700Y-49044800D01*
X164967700Y-49044800D02*
X180377700Y-49044800D01*
X153594500Y-48015000D02*
X154716300Y-48015000D01*
X154716300Y-48015000D02*
X156205100Y-49503900D01*
X186200200Y-93214500D02*
X182766700Y-93214500D01*
X182766700Y-93214500D02*
X182507300Y-93473900D01*
X174815200Y-106953600D02*
X179431800Y-106953600D01*
X179431800Y-106953600D02*
X180431900Y-107953700D01*
X186200200Y-93214500D02*
X193437800Y-93214500D01*
X193437800Y-93214500D02*
X194103300Y-93880000D01*
X194103300Y-93880000D02*
X199650000Y-93880000D01*
X118050100Y-52640500D02*
X118050100Y-53668600D01*
X118050100Y-53668600D02*
X117256400Y-54462300D01*
X117256400Y-54462300D02*
X113222400Y-54462300D01*
X113222400Y-54462300D02*
X109770100Y-57914600D01*
X174815200Y-106953600D02*
X174815200Y-107679300D01*
X174815200Y-107679300D02*
X174266400Y-108228100D01*
X174266400Y-108228100D02*
X174266400Y-111789900D01*
X174266400Y-111789900D02*
X173472700Y-112583600D01*
X173472700Y-112583600D02*
X166359800Y-112583600D01*
X166359800Y-112583600D02*
X164873400Y-114070000D01*
X164873400Y-114070000D02*
X147380000Y-114070000D01*
X174815200Y-102513300D02*
X171463300Y-102513300D01*
X171463300Y-102513300D02*
X170250000Y-101300000D01*
%TO.N,Z_A2*%
X182273900Y-41599900D02*
X154519700Y-41599900D01*
X121300700Y-66505000D02*
X119440700Y-64645000D01*
X119440700Y-64645000D02*
X110295000Y-64645000D01*
X110295000Y-64645000D02*
X109020000Y-65920000D01*
X121300700Y-66505000D02*
X121300700Y-57930200D01*
X121300700Y-57930200D02*
X120225400Y-56854900D01*
X118775200Y-53365600D02*
X129239300Y-53365600D01*
X129239300Y-53365600D02*
X130825000Y-51779900D01*
X130825000Y-51779900D02*
X132559500Y-53514400D01*
X132559500Y-53514400D02*
X145035800Y-53514400D01*
%TO.N,Z_A3*%
X121419900Y-67775000D02*
X118942700Y-67775000D01*
X118942700Y-67775000D02*
X118152500Y-66984800D01*
X118152500Y-66984800D02*
X108548800Y-66984800D01*
X108548800Y-66984800D02*
X107755000Y-66191100D01*
X107755000Y-66191100D02*
X107755000Y-65345000D01*
X107755000Y-65345000D02*
X107304900Y-64894900D01*
X121419900Y-67775000D02*
X122145000Y-67049900D01*
X122145000Y-67049900D02*
X122145000Y-61647500D01*
X122145000Y-61647500D02*
X122025000Y-61527500D01*
X122025000Y-61527500D02*
X122025000Y-54964600D01*
X107304900Y-64894900D02*
X99895100Y-64894900D01*
X99895100Y-64894900D02*
X98870000Y-65920000D01*
X134309900Y-50779800D02*
X134922600Y-50779800D01*
X134922600Y-50779800D02*
X135147400Y-50555000D01*
X135147400Y-50555000D02*
X145245400Y-50555000D01*
X122025000Y-54964600D02*
X120294100Y-54964600D01*
X107304900Y-64894900D02*
X107755000Y-64444800D01*
X107755000Y-64444800D02*
X107755000Y-64173800D01*
X107755000Y-64173800D02*
X108548800Y-63380000D01*
X108548800Y-63380000D02*
X109020000Y-63380000D01*
%TO.N,Z_A4*%
X134635000Y-45744900D02*
X135635100Y-46745000D01*
X135635100Y-46745000D02*
X145245400Y-46745000D01*
X109020000Y-60840000D02*
X110285000Y-62105000D01*
X110285000Y-62105000D02*
X120575600Y-62105000D01*
X115024200Y-47919700D02*
X113542700Y-47919700D01*
X116299300Y-49194800D02*
X115024200Y-47919700D01*
X122974500Y-49194800D02*
X116299300Y-49194800D01*
X124382000Y-47787300D02*
X122974500Y-49194800D01*
X132592600Y-47787300D02*
X124382000Y-47787300D01*
X134635000Y-45744900D02*
X132592600Y-47787300D01*
%TO.N,Z_A5*%
X90905000Y-60840000D02*
X90905000Y-58852400D01*
X90905000Y-58852400D02*
X92492500Y-57264900D01*
X92492500Y-57264900D02*
X96259200Y-57264900D01*
X96259200Y-57264900D02*
X97299200Y-56224900D01*
X97299200Y-56224900D02*
X103718200Y-56224900D01*
X103718200Y-56224900D02*
X105305700Y-54637400D01*
X105305700Y-54637400D02*
X105305700Y-47984300D01*
X105305700Y-47984300D02*
X106893200Y-46396800D01*
X106893200Y-46396800D02*
X110004600Y-46396800D01*
X98870000Y-71000000D02*
X97455400Y-71000000D01*
X97455400Y-71000000D02*
X96175400Y-69720000D01*
X96175400Y-69720000D02*
X92492500Y-69720000D01*
X92492500Y-69720000D02*
X90905000Y-68132500D01*
X90905000Y-68132500D02*
X90905000Y-60840000D01*
X126477200Y-45480100D02*
X130825000Y-45480100D01*
X125302500Y-46654800D02*
X126477200Y-45480100D01*
X110262600Y-46654800D02*
X125302500Y-46654800D01*
X110004600Y-46396800D02*
X110262600Y-46654800D01*
X119574800Y-72054800D02*
X121010000Y-73490000D01*
X99924800Y-72054800D02*
X119574800Y-72054800D01*
X98870000Y-71000000D02*
X99924800Y-72054800D01*
X121010000Y-73490000D02*
X121010000Y-73490000D01*
%TO.N,Z_A6*%
X129555000Y-46397700D02*
X128847800Y-47104900D01*
X128847800Y-47104900D02*
X112179000Y-47104900D01*
X112179000Y-47104900D02*
X111454800Y-47829100D01*
X102732900Y-40946000D02*
X111454800Y-40946000D01*
X98870000Y-73540000D02*
X100374900Y-75044900D01*
X100374900Y-75044900D02*
X122939900Y-75044900D01*
X122939900Y-75044900D02*
X124295100Y-76400100D01*
X98870000Y-73540000D02*
X97834900Y-72504900D01*
X97834900Y-72504900D02*
X92904800Y-72504900D01*
X92904800Y-72504900D02*
X89729800Y-69329900D01*
X89729800Y-69329900D02*
X89729800Y-63380000D01*
X125295200Y-89155100D02*
X125869800Y-89729700D01*
X125869800Y-89729700D02*
X125869800Y-94319500D01*
X125869800Y-94319500D02*
X127457300Y-95907000D01*
X127457300Y-95907000D02*
X152011900Y-95907000D01*
X152011900Y-95907000D02*
X152470000Y-96365100D01*
X128675100Y-76400100D02*
X124295100Y-76400100D01*
X93890000Y-43050000D02*
X91841000Y-43050000D01*
X91841000Y-43050000D02*
X88666000Y-46225000D01*
X88666000Y-46225000D02*
X88666000Y-51295900D01*
X88666000Y-51295900D02*
X87477000Y-52484900D01*
X89729800Y-63380000D02*
X89729800Y-57859800D01*
%TO.N,Z_A7*%
X149916400Y-98824700D02*
X155010000Y-98824700D01*
X99282700Y-97179800D02*
X99557700Y-97454800D01*
X99557700Y-97454800D02*
X129376200Y-97454800D01*
X129376200Y-97454800D02*
X130002500Y-98081100D01*
X130002500Y-98081100D02*
X133531600Y-98081100D01*
X133531600Y-98081100D02*
X134530500Y-97082200D01*
X134530500Y-97082200D02*
X149916400Y-97082200D01*
X96815400Y-88192400D02*
X99282700Y-88192400D01*
X97540500Y-69964900D02*
X118252700Y-69964900D01*
X118252700Y-69964900D02*
X119872800Y-71585000D01*
X119872800Y-71585000D02*
X130869900Y-71585000D01*
X93890000Y-45590000D02*
X99782700Y-45590000D01*
X99782700Y-45590000D02*
X103222900Y-42149800D01*
X103222900Y-42149800D02*
X114209100Y-42149800D01*
X114209100Y-42149800D02*
X116174100Y-44114800D01*
X116174100Y-44114800D02*
X120325100Y-44114800D01*
X120325100Y-44114800D02*
X121835000Y-42604900D01*
X121835000Y-42604900D02*
X123574900Y-42604900D01*
X86160000Y-65920000D02*
X84831700Y-67248300D01*
X84831700Y-67248300D02*
X84831700Y-71476300D01*
X84831700Y-71476300D02*
X85625400Y-72270000D01*
X85625400Y-72270000D02*
X86905300Y-72270000D01*
X86905300Y-72270000D02*
X87699000Y-73063800D01*
X87699000Y-73063800D02*
X87699000Y-74016300D01*
X87699000Y-74016300D02*
X86905300Y-74810000D01*
X86905300Y-74810000D02*
X85625400Y-74810000D01*
X85625400Y-74810000D02*
X84831700Y-75603800D01*
X84831700Y-75603800D02*
X84831700Y-76551300D01*
X84831700Y-76551300D02*
X85625400Y-77345000D01*
X85625400Y-77345000D02*
X97605000Y-77345000D01*
X97605000Y-77345000D02*
X98870000Y-76080000D01*
%TO.N,Z_A8*%
X103449900Y-69185100D02*
X103449900Y-68218700D01*
X103449900Y-68218700D02*
X102656200Y-67424900D01*
X102656200Y-67424900D02*
X93030200Y-67424900D01*
X93030200Y-67424900D02*
X91630100Y-66024800D01*
X103449900Y-69185100D02*
X105200100Y-67434900D01*
X105200100Y-67434900D02*
X114234900Y-67434900D01*
X114234900Y-67434900D02*
X116314800Y-69514800D01*
X116314800Y-69514800D02*
X121569300Y-69514800D01*
X121569300Y-69514800D02*
X123045200Y-68038900D01*
X123045200Y-68038900D02*
X122595100Y-67588800D01*
X122595100Y-67588800D02*
X122595100Y-58641500D01*
X122595100Y-58641500D02*
X124182600Y-57054000D01*
X124182600Y-57054000D02*
X160895000Y-57054000D01*
X123045200Y-68038900D02*
X128950100Y-68038900D01*
X93890000Y-48130000D02*
X99251300Y-48130000D01*
X99251300Y-48130000D02*
X101626100Y-50504800D01*
X103449900Y-78620000D02*
X98870000Y-78620000D01*
X91630100Y-66024800D02*
X91630100Y-60519800D01*
X91630100Y-60519800D02*
X92589900Y-59560000D01*
%TO.N,Z_A9*%
X98870000Y-81160000D02*
X102867400Y-81160000D01*
X102867400Y-81160000D02*
X104454900Y-79572500D01*
X104454900Y-79572500D02*
X104454900Y-77928600D01*
X104454900Y-77928600D02*
X105248700Y-77134800D01*
X105248700Y-77134800D02*
X119331800Y-77134800D01*
X119331800Y-77134800D02*
X120125500Y-77928600D01*
X120125500Y-77928600D02*
X120125500Y-80971000D01*
X120125500Y-80971000D02*
X120919300Y-81764700D01*
X120919300Y-81764700D02*
X126615500Y-81764700D01*
X126615500Y-81764700D02*
X126900900Y-81479400D01*
X126900900Y-81479400D02*
X127499900Y-81479400D01*
X128483300Y-63077600D02*
X128925100Y-62635800D01*
X128925100Y-62635800D02*
X128925100Y-62526000D01*
X128925100Y-62526000D02*
X130512600Y-60938500D01*
X130512600Y-60938500D02*
X141618400Y-60938500D01*
X141618400Y-60938500D02*
X142932000Y-59624900D01*
X142932000Y-59624900D02*
X164327700Y-59624900D01*
X164327700Y-59624900D02*
X164705000Y-60002200D01*
X98870000Y-81160000D02*
X97834900Y-80124900D01*
X97834900Y-80124900D02*
X88702600Y-80124900D01*
X95140200Y-51920200D02*
X93890000Y-50670000D01*
X95140200Y-53686300D02*
X95140200Y-51920200D01*
X94346400Y-54480000D02*
X95140200Y-53686300D01*
X89458700Y-54480000D02*
X94346400Y-54480000D01*
X87871200Y-56067500D02*
X89458700Y-54480000D01*
X87871200Y-70068800D02*
X87871200Y-56067500D01*
X86940000Y-71000000D02*
X87871200Y-70068800D01*
X86160000Y-71000000D02*
X86940000Y-71000000D01*
%TO.N,Z_A10*%
X153794600Y-46745000D02*
X156237600Y-46745000D01*
X156237600Y-46745000D02*
X157825100Y-48332500D01*
X157825100Y-48332500D02*
X157825100Y-49107200D01*
X157825100Y-49107200D02*
X159412600Y-50694700D01*
X159412600Y-50694700D02*
X165975000Y-50694700D01*
X152420400Y-39484900D02*
X153794600Y-40859200D01*
X98595100Y-39484900D02*
X152420400Y-39484900D01*
X96224800Y-41855200D02*
X98595100Y-39484900D01*
X96224800Y-44564900D02*
X96224800Y-41855200D01*
X84872100Y-73540000D02*
X86160000Y-73540000D01*
X84078400Y-58901600D02*
X84078400Y-72746300D01*
X89770000Y-53210000D02*
X84078400Y-58901600D01*
X84078400Y-72746300D02*
X84872100Y-73540000D01*
X93890000Y-53210000D02*
X89770000Y-53210000D01*
%TO.N,Z_A11*%
X150669400Y-50555000D02*
X151643000Y-51528600D01*
X151643000Y-51528600D02*
X169785000Y-51528600D01*
X150669400Y-50555000D02*
X149694400Y-51530000D01*
X149694400Y-51530000D02*
X138928900Y-51530000D01*
X112305000Y-49644900D02*
X124853500Y-49644900D01*
X93890000Y-55750000D02*
X101841600Y-55750000D01*
X101841600Y-55750000D02*
X103429100Y-54162500D01*
X103429100Y-54162500D02*
X103429100Y-44462400D01*
X103429100Y-44462400D02*
X105016600Y-42874900D01*
X105016600Y-42874900D02*
X112305000Y-42874900D01*
X93890000Y-55750000D02*
X90250500Y-55750000D01*
X90250500Y-55750000D02*
X88663000Y-57337500D01*
X88663000Y-57337500D02*
X88663000Y-74492500D01*
X88663000Y-74492500D02*
X87075500Y-76080000D01*
X87075500Y-76080000D02*
X86160000Y-76080000D01*
%TO.N,Z_A12*%
X169785000Y-46120100D02*
X169339800Y-45674900D01*
X169339800Y-45674900D02*
X149683100Y-45674900D01*
X149683100Y-45674900D02*
X148095600Y-47262400D01*
X148095600Y-47262400D02*
X148095600Y-48469700D01*
X145160800Y-48469700D02*
X148095600Y-48469700D01*
X93890000Y-58290000D02*
X105471000Y-58290000D01*
X105471000Y-58290000D02*
X106264700Y-57496300D01*
X106264700Y-57496300D02*
X106264700Y-53502900D01*
X106264700Y-53502900D02*
X107852200Y-51915400D01*
X107852200Y-51915400D02*
X125123800Y-51915400D01*
X125123800Y-51915400D02*
X128569500Y-48469700D01*
X128569500Y-48469700D02*
X145160800Y-48469700D01*
%TO.N,Z_A13*%
X147970600Y-44019900D02*
X148762800Y-44019900D01*
X148762800Y-44019900D02*
X149307800Y-43474900D01*
X149307800Y-43474900D02*
X170642700Y-43474900D01*
X170642700Y-43474900D02*
X172230200Y-45062400D01*
X172230200Y-45062400D02*
X172230200Y-46161200D01*
X172230200Y-46161200D02*
X171436500Y-46954900D01*
X171436500Y-46954900D02*
X165975000Y-46954900D01*
%TO.N,Z_A14*%
X104750000Y-59639800D02*
X117412800Y-59639800D01*
X117412800Y-59639800D02*
X119000300Y-58052300D01*
X119000300Y-58052300D02*
X119000300Y-55033300D01*
X119000300Y-55033300D02*
X119794000Y-54239500D01*
X119794000Y-54239500D02*
X145391100Y-54239500D01*
X145391100Y-54239500D02*
X147376800Y-52253700D01*
X147376800Y-52253700D02*
X164705000Y-52253700D01*
X100345200Y-82664900D02*
X87195100Y-82664900D01*
X87195100Y-82664900D02*
X86160000Y-83700000D01*
X93890000Y-63370000D02*
X95404900Y-64884900D01*
X95404900Y-64884900D02*
X97950700Y-64884900D01*
X93890000Y-63370000D02*
X96997900Y-63370000D01*
X96997900Y-63370000D02*
X97394800Y-62973100D01*
X97394800Y-62973100D02*
X97394800Y-62814800D01*
X97394800Y-62814800D02*
X100569800Y-59639800D01*
X100569800Y-59639800D02*
X104750000Y-59639800D01*
%TO.N,Z_A15*%
X180706900Y-96332400D02*
X157550000Y-96332400D01*
X86160000Y-86240000D02*
X83325100Y-83405100D01*
X83325100Y-83405100D02*
X83325100Y-44089900D01*
X83325100Y-44089900D02*
X89675100Y-37739900D01*
X89675100Y-37739900D02*
X184112700Y-37739900D01*
X184112700Y-37739900D02*
X185700200Y-39327400D01*
X185700200Y-39327400D02*
X185700200Y-43376300D01*
X185700200Y-43376300D02*
X184906400Y-44170000D01*
X184906400Y-44170000D02*
X181708800Y-44170000D01*
X181708800Y-44170000D02*
X180321100Y-42782400D01*
X180321100Y-42782400D02*
X179305300Y-42782400D01*
X93890000Y-65910000D02*
X92610100Y-64630100D01*
X92610100Y-64630100D02*
X92610100Y-62893800D01*
X92610100Y-62893800D02*
X93403800Y-62100000D01*
X93403800Y-62100000D02*
X96484300Y-62100000D01*
X96484300Y-62100000D02*
X99669600Y-58914700D01*
X99669600Y-58914700D02*
X106485700Y-58914700D01*
X106485700Y-58914700D02*
X107279400Y-58121000D01*
X107279400Y-58121000D02*
X107279400Y-54395000D01*
%TO.N,Z_A16*%
X96090300Y-53125000D02*
X101855400Y-53125000D01*
X164106400Y-139451500D02*
X164106400Y-131623000D01*
X164106400Y-131623000D02*
X164381400Y-131348000D01*
X205014900Y-104633700D02*
X205014900Y-137071200D01*
X205014900Y-137071200D02*
X198664900Y-143421200D01*
X198664900Y-143421200D02*
X163710000Y-143421200D01*
X162518900Y-141039000D02*
X164106400Y-139451500D01*
X161861100Y-141039000D02*
X162518900Y-141039000D01*
%TO.N,Z_A17*%
X96090300Y-90640100D02*
X94145400Y-92585000D01*
X94145400Y-92585000D02*
X87425000Y-92585000D01*
X87425000Y-92585000D02*
X86160000Y-91320000D01*
X96090300Y-70990000D02*
X93890000Y-70990000D01*
X96090300Y-90640100D02*
X102400800Y-90640100D01*
X102400800Y-90640100D02*
X104135500Y-92374800D01*
X104135500Y-92374800D02*
X118576000Y-92374800D01*
X118576000Y-92374800D02*
X120163500Y-90787300D01*
X120163500Y-90787300D02*
X120163500Y-89096800D01*
X120163500Y-89096800D02*
X120560400Y-88699900D01*
X120560400Y-88699900D02*
X121747100Y-88699900D01*
X121747100Y-88699900D02*
X122540800Y-89493700D01*
X122540800Y-89493700D02*
X122540800Y-94769600D01*
X122540800Y-94769600D02*
X124128300Y-96357100D01*
X124128300Y-96357100D02*
X150708000Y-96357100D01*
X150708000Y-96357100D02*
X151678300Y-97327400D01*
X151678300Y-97327400D02*
X176822500Y-97327400D01*
X176822500Y-97327400D02*
X177616300Y-98121200D01*
X177616300Y-98121200D02*
X177616300Y-102376000D01*
X177616300Y-102376000D02*
X176028800Y-103963500D01*
X176028800Y-103963500D02*
X169920200Y-103963500D01*
X169920200Y-103963500D02*
X168745000Y-105138700D01*
X168745000Y-105138700D02*
X163931300Y-105138700D01*
X163931300Y-105138700D02*
X162620000Y-106450000D01*
%TO.N,Z_A18*%
X86160000Y-93860000D02*
X87214800Y-94914800D01*
X87214800Y-94914800D02*
X118389700Y-94914800D01*
X118389700Y-94914800D02*
X120479600Y-97004700D01*
X120479600Y-97004700D02*
X131977500Y-97004700D01*
X131977500Y-97004700D02*
X132055000Y-97082200D01*
X161860600Y-102740000D02*
X165200000Y-102740000D01*
X161115100Y-101994500D02*
X161860600Y-102740000D01*
X161115100Y-100671800D02*
X161115100Y-101994500D01*
X160718200Y-100274900D02*
X161115100Y-100671800D01*
X132595700Y-100274900D02*
X160718200Y-100274900D01*
X131880000Y-100990600D02*
X132595700Y-100274900D01*
X165200000Y-102740000D02*
X165200000Y-102740000D01*
%TO.N,Z_A19*%
X95915200Y-97015100D02*
X95475500Y-97454800D01*
X95475500Y-97454800D02*
X87214800Y-97454800D01*
X87214800Y-97454800D02*
X86160000Y-96400000D01*
X144244400Y-103413500D02*
X157773200Y-103413500D01*
X157773200Y-103413500D02*
X158048200Y-103688500D01*
X158048200Y-103688500D02*
X167700000Y-103688500D01*
X95915200Y-105439500D02*
X143995200Y-105439500D01*
X143995200Y-105439500D02*
X144244400Y-105688700D01*
%TO.N,Z_A20*%
X160438900Y-110408300D02*
X160713900Y-110683300D01*
X160713900Y-110683300D02*
X168546700Y-110683300D01*
X168546700Y-110683300D02*
X170240000Y-108990000D01*
X133825200Y-121521100D02*
X133825200Y-120922400D01*
X133825200Y-120922400D02*
X135412700Y-119334900D01*
X135412700Y-119334900D02*
X138368200Y-119334900D01*
X138368200Y-119334900D02*
X138765100Y-119731800D01*
X138765100Y-119731800D02*
X138765100Y-124526100D01*
X138765100Y-124526100D02*
X139558900Y-125319800D01*
X139558900Y-125319800D02*
X160438900Y-125319800D01*
X86160000Y-98940000D02*
X84832800Y-100267200D01*
X84832800Y-100267200D02*
X84832800Y-104893100D01*
X84832800Y-104893100D02*
X85229700Y-105290000D01*
X85229700Y-105290000D02*
X86360200Y-105290000D01*
X86360200Y-105290000D02*
X88910200Y-102740000D01*
X88910200Y-102740000D02*
X94121400Y-102740000D01*
X94121400Y-102740000D02*
X94915100Y-103533800D01*
X94915100Y-103533800D02*
X94915100Y-105958500D01*
X94915100Y-105958500D02*
X95708900Y-106752200D01*
X95708900Y-106752200D02*
X100823400Y-106752200D01*
X100823400Y-106752200D02*
X101686000Y-107614800D01*
X101686000Y-107614800D02*
X122980800Y-107614800D01*
X122980800Y-107614800D02*
X124337700Y-108971700D01*
X124337700Y-108971700D02*
X133825200Y-108971700D01*
%TO.N,Z_A21*%
X87185100Y-98355000D02*
X86735000Y-97904900D01*
X86735000Y-97904900D02*
X85626600Y-97904900D01*
X85626600Y-97904900D02*
X84832800Y-97111200D01*
X84832800Y-97111200D02*
X84832800Y-90708700D01*
X84832800Y-90708700D02*
X85626600Y-89915000D01*
X85626600Y-89915000D02*
X94571500Y-89915000D01*
X94571500Y-89915000D02*
X95365200Y-89121200D01*
X95365200Y-89121200D02*
X95365200Y-85165200D01*
X95365200Y-85165200D02*
X93890000Y-83690000D01*
X87185100Y-98355000D02*
X87185100Y-102994900D01*
X87185100Y-102994900D02*
X86160000Y-104020000D01*
X172001400Y-104688600D02*
X171033800Y-104688600D01*
X171033800Y-104688600D02*
X170240000Y-105482400D01*
X170240000Y-105482400D02*
X170240000Y-106450000D01*
X87185100Y-98355000D02*
X87635200Y-97904900D01*
X87635200Y-97904900D02*
X127853000Y-97904900D01*
X127853000Y-97904900D02*
X128906800Y-98958700D01*
X128906800Y-98958700D02*
X135074400Y-98958700D01*
X135074400Y-98958700D02*
X135933500Y-98099600D01*
X135933500Y-98099600D02*
X171811300Y-98099600D01*
X171811300Y-98099600D02*
X172001400Y-98289800D01*
%TO.N,Z_A22*%
X165841600Y-111858500D02*
X171113100Y-111858500D01*
X171113100Y-111858500D02*
X171510000Y-111461600D01*
X171510000Y-111461600D02*
X171510000Y-110260000D01*
X171510000Y-110260000D02*
X172780000Y-108990000D01*
X86160000Y-106560000D02*
X87697300Y-106560000D01*
X87697300Y-106560000D02*
X88491000Y-107353800D01*
X88491000Y-107353800D02*
X88491000Y-109371100D01*
X88491000Y-109371100D02*
X89284800Y-110164800D01*
X89284800Y-110164800D02*
X125409000Y-110164800D01*
X125409000Y-110164800D02*
X130503500Y-115259300D01*
X130503500Y-115259300D02*
X165841600Y-115259300D01*
X86160000Y-106560000D02*
X84874400Y-106560000D01*
X84874400Y-106560000D02*
X84080700Y-105766300D01*
X84080700Y-105766300D02*
X84080700Y-89092500D01*
X84080700Y-89092500D02*
X85668200Y-87505000D01*
X85668200Y-87505000D02*
X92615000Y-87505000D01*
X92615000Y-87505000D02*
X93890000Y-86230000D01*
%TO.N,Z_A23*%
X166646400Y-109917200D02*
X166646400Y-108350600D01*
X166646400Y-108350600D02*
X167043300Y-107953700D01*
X167043300Y-107953700D02*
X171986300Y-107953700D01*
X171986300Y-107953700D02*
X172780000Y-107160000D01*
X172780000Y-107160000D02*
X172780000Y-106450000D01*
X162709900Y-139552500D02*
X163656300Y-138606100D01*
X163656300Y-138606100D02*
X163656300Y-130892300D01*
X163656300Y-130892300D02*
X165243800Y-129304800D01*
X165243800Y-129304800D02*
X166646400Y-129304800D01*
X86160000Y-109100000D02*
X83325100Y-111934900D01*
X83325100Y-111934900D02*
X83325100Y-141833700D01*
X83325100Y-141833700D02*
X84912600Y-143421200D01*
X84912600Y-143421200D02*
X162709900Y-143421200D01*
%TO.N,Z_D15*%
X86160000Y-114180000D02*
X83775200Y-116564800D01*
X83775200Y-116564800D02*
X83775200Y-136925400D01*
X83775200Y-136925400D02*
X85362700Y-138512900D01*
X85362700Y-138512900D02*
X116671500Y-138512900D01*
X116671500Y-138512900D02*
X119846500Y-135337900D01*
X119846500Y-135337900D02*
X119846500Y-132795000D01*
X86160000Y-114180000D02*
X87185100Y-113154900D01*
X87185100Y-113154900D02*
X87185100Y-107585100D01*
%TO.N,Z_D14*%
X86160000Y-116720000D02*
X84225300Y-118654700D01*
X84225300Y-118654700D02*
X84225300Y-131642500D01*
X84225300Y-131642500D02*
X85812800Y-133230000D01*
X85812800Y-133230000D02*
X89457400Y-133230000D01*
X89457400Y-133230000D02*
X91792200Y-135564800D01*
X91792200Y-135564800D02*
X113435300Y-135564800D01*
X113435300Y-135564800D02*
X117475100Y-131525000D01*
X86160000Y-116720000D02*
X87910200Y-114969800D01*
X87910200Y-114969800D02*
X87910200Y-112429800D01*
%TO.N,Z_D13*%
X118846500Y-130255000D02*
X118846500Y-132839900D01*
X118846500Y-132839900D02*
X115671500Y-136014900D01*
X115671500Y-136014900D02*
X89185300Y-136014900D01*
X89185300Y-136014900D02*
X87460100Y-134289700D01*
%TO.N,Z_D12*%
X96067200Y-126648400D02*
X95165100Y-127550500D01*
X95165100Y-127550500D02*
X95165100Y-132731300D01*
X95165100Y-132731300D02*
X95958900Y-133525100D01*
X95958900Y-133525100D02*
X104554000Y-133525100D01*
X104554000Y-133525100D02*
X107554200Y-130524900D01*
X107554200Y-130524900D02*
X117475100Y-130524900D01*
X90633400Y-122344900D02*
X88700500Y-122344900D01*
X88700500Y-122344900D02*
X88155600Y-121800000D01*
X88155600Y-121800000D02*
X86160000Y-121800000D01*
X90633400Y-101470000D02*
X93890000Y-101470000D01*
X90633400Y-122344900D02*
X90633400Y-111459800D01*
%TO.N,Z_D11*%
X98557600Y-122082400D02*
X96300000Y-124340000D01*
X96300000Y-124340000D02*
X86160000Y-124340000D01*
X98557600Y-122082400D02*
X99557700Y-123082500D01*
X99557700Y-123082500D02*
X117612800Y-123082500D01*
X117612800Y-123082500D02*
X119200300Y-124670000D01*
X119200300Y-124670000D02*
X119200300Y-127715000D01*
X98557600Y-109439700D02*
X95725000Y-109439700D01*
X95725000Y-109439700D02*
X94105300Y-107820000D01*
X94105300Y-107820000D02*
X93306200Y-107820000D01*
X93306200Y-107820000D02*
X92512400Y-107026300D01*
X92512400Y-107026300D02*
X92512400Y-105387600D01*
X92512400Y-105387600D02*
X93890000Y-104010000D01*
%TO.N,Z_D10*%
X93589900Y-126580000D02*
X94315000Y-125854900D01*
X94315000Y-125854900D02*
X116885000Y-125854900D01*
X116885000Y-125854900D02*
X117475100Y-126445000D01*
X86160000Y-126880000D02*
X90965000Y-126880000D01*
X90965000Y-126880000D02*
X91265000Y-126580000D01*
%TO.N,Z_D9*%
X86160000Y-129420000D02*
X87430000Y-130690000D01*
X87430000Y-130690000D02*
X91721400Y-130690000D01*
X91721400Y-130690000D02*
X92515100Y-129896300D01*
X92515100Y-129896300D02*
X92515100Y-126198600D01*
X92515100Y-126198600D02*
X93308900Y-125404800D01*
X93308900Y-125404800D02*
X118245400Y-125404800D01*
X118245400Y-125404800D02*
X118475200Y-125175000D01*
X89522000Y-109090000D02*
X93890000Y-109090000D01*
%TO.N,Z_D8*%
X93658700Y-120774900D02*
X109648200Y-120774900D01*
X109648200Y-120774900D02*
X110045100Y-121171800D01*
X110045100Y-121171800D02*
X110045100Y-121537700D01*
X110045100Y-121537700D02*
X110838900Y-122331400D01*
X110838900Y-122331400D02*
X119099800Y-122331400D01*
X119099800Y-122331400D02*
X120673400Y-123905000D01*
X93658700Y-120774900D02*
X91118600Y-123314900D01*
X91118600Y-123314900D02*
X85698900Y-123314900D01*
X85698900Y-123314900D02*
X84905200Y-124108700D01*
X84905200Y-124108700D02*
X84905200Y-130705200D01*
X84905200Y-130705200D02*
X86160000Y-131960000D01*
X93658700Y-120774900D02*
X92758500Y-119874700D01*
X92758500Y-119874700D02*
X92758500Y-112761500D01*
X92758500Y-112761500D02*
X93890000Y-111630000D01*
%TO.N,Z_D7*%
X93890000Y-114170000D02*
X97445100Y-110614900D01*
X97445100Y-110614900D02*
X112808400Y-110614900D01*
X112808400Y-110614900D02*
X115177100Y-112983600D01*
X115177100Y-112983600D02*
X122111400Y-112983600D01*
X122111400Y-112983600D02*
X123016100Y-112079000D01*
%TO.N,Z_D6*%
X96815400Y-89844800D02*
X117448200Y-89844800D01*
X117448200Y-89844800D02*
X119043200Y-88249800D01*
X119043200Y-88249800D02*
X122624200Y-88249800D01*
X122624200Y-88249800D02*
X123418000Y-89043600D01*
X123418000Y-89043600D02*
X123418000Y-89542900D01*
X123418000Y-89542900D02*
X124570100Y-90695000D01*
%TO.N,Z_D5*%
X101999700Y-92893700D02*
X102068500Y-92824900D01*
X102068500Y-92824900D02*
X119832400Y-92824900D01*
X119832400Y-92824900D02*
X121419900Y-91237400D01*
X121419900Y-91237400D02*
X121419900Y-89425000D01*
X93890000Y-119250000D02*
X101999700Y-119250000D01*
%TO.N,M_~BR*%
X107215100Y-88054900D02*
X107515100Y-87754900D01*
X107515100Y-87754900D02*
X109969100Y-87754900D01*
X109969100Y-87754900D02*
X110984200Y-88770000D01*
X110984200Y-88770000D02*
X116750000Y-88770000D01*
%TO.N,M_~BGACK*%
X104536600Y-90569900D02*
X104811600Y-90294900D01*
X104811600Y-90294900D02*
X115734900Y-90294900D01*
X115734900Y-90294900D02*
X116750000Y-91310000D01*
X104536600Y-76080000D02*
X106490000Y-76080000D01*
%TO.N,M_~BG*%
X121265000Y-96268900D02*
X121265000Y-95437500D01*
X121265000Y-95437500D02*
X119677500Y-93850000D01*
X119677500Y-93850000D02*
X116750000Y-93850000D01*
X129595200Y-103689400D02*
X125285100Y-103689400D01*
%TO.N,M_~DTACK*%
X97832500Y-95639900D02*
X98107500Y-95364900D01*
X98107500Y-95364900D02*
X115724900Y-95364900D01*
X115724900Y-95364900D02*
X116750000Y-96390000D01*
X152460000Y-139691500D02*
X152460000Y-136930000D01*
%TO.N,M_~LDS*%
X151691400Y-118424900D02*
X170732800Y-118424900D01*
X170732800Y-118424900D02*
X171044000Y-118113700D01*
X171044000Y-118113700D02*
X183854000Y-118113700D01*
X183854000Y-118113700D02*
X184165200Y-118424900D01*
X106474100Y-137400000D02*
X101201100Y-137400000D01*
X110320100Y-101470000D02*
X116750000Y-101470000D01*
X151691400Y-110733400D02*
X151190000Y-110232000D01*
X151190000Y-110232000D02*
X151190000Y-109783800D01*
X151190000Y-109783800D02*
X150396300Y-108990000D01*
X150396300Y-108990000D02*
X149920000Y-108990000D01*
X160622600Y-138827400D02*
X156859900Y-138827400D01*
X161350000Y-138100000D02*
X160622600Y-138827400D01*
X161350000Y-133100000D02*
X161350000Y-138100000D01*
X158888600Y-130638600D02*
X161350000Y-133100000D01*
X154221400Y-130638600D02*
X158888600Y-130638600D01*
%TO.N,M_~UDS*%
X116750000Y-104010000D02*
X117703600Y-104963600D01*
X117703600Y-104963600D02*
X147856300Y-104963600D01*
X147856300Y-104963600D02*
X148650000Y-105757400D01*
X148650000Y-105757400D02*
X148650000Y-106709900D01*
X148650000Y-106709900D02*
X149443800Y-107503600D01*
X149443800Y-107503600D02*
X156486400Y-107503600D01*
X156486400Y-107503600D02*
X157540000Y-106450000D01*
X116750000Y-104010000D02*
X115724900Y-102984900D01*
X115724900Y-102984900D02*
X101824600Y-102984900D01*
X101824600Y-102984900D02*
X100549500Y-104260000D01*
X157540000Y-106450000D02*
X158593600Y-107503600D01*
X158593600Y-107503600D02*
X170716300Y-107503600D01*
X170716300Y-107503600D02*
X171510000Y-106709900D01*
X171510000Y-106709900D02*
X171510000Y-106207500D01*
X171510000Y-106207500D02*
X172303800Y-105413700D01*
X172303800Y-105413700D02*
X181265200Y-105413700D01*
X181265200Y-105413700D02*
X182505800Y-106654300D01*
X182505800Y-106654300D02*
X186190000Y-106654300D01*
%TO.N,M_~AS*%
X96000000Y-134839700D02*
X106862400Y-134839700D01*
X106862400Y-134839700D02*
X108227200Y-133474900D01*
X108227200Y-133474900D02*
X111670400Y-133474900D01*
X116750000Y-106550000D02*
X112010100Y-106550000D01*
X112010100Y-106550000D02*
X111670400Y-106889700D01*
X116750000Y-106550000D02*
X125538500Y-106550000D01*
X125538500Y-106550000D02*
X126942200Y-107953700D01*
X126942200Y-107953700D02*
X151423700Y-107953700D01*
X151423700Y-107953700D02*
X152460000Y-108990000D01*
%TO.N,Net-(Q1-Pad8)*%
X196353200Y-136727200D02*
X184930000Y-136727200D01*
X183920000Y-76690000D02*
X186925300Y-76690000D01*
X199650000Y-101500000D02*
X190100300Y-101500000D01*
X190100300Y-101500000D02*
X186925300Y-98325000D01*
X186925300Y-98325000D02*
X186925300Y-94199000D01*
X183920000Y-74088600D02*
X183645000Y-74363600D01*
X183645000Y-74363600D02*
X153745100Y-74363600D01*
X153745100Y-74363600D02*
X152470000Y-73088500D01*
%TO.N,6_~S0*%
X138524000Y-111467500D02*
X131133100Y-111467500D01*
X131133100Y-111467500D02*
X130810000Y-111790600D01*
X155000000Y-108990000D02*
X153730000Y-110260000D01*
X153730000Y-110260000D02*
X153730000Y-111826100D01*
X153730000Y-111826100D02*
X152936300Y-112619800D01*
X152936300Y-112619800D02*
X150101800Y-112619800D01*
X150101800Y-112619800D02*
X147975700Y-110493700D01*
X147975700Y-110493700D02*
X139497800Y-110493700D01*
X139497800Y-110493700D02*
X138524000Y-111467500D01*
X178431700Y-82842700D02*
X174221200Y-82842700D01*
X174221200Y-82842700D02*
X172308600Y-80930000D01*
X172308600Y-80930000D02*
X170250000Y-80930000D01*
X170471500Y-117388600D02*
X170746500Y-117663600D01*
X170746500Y-117663600D02*
X178638100Y-117663600D01*
X178638100Y-117663600D02*
X179431800Y-116869900D01*
X179431800Y-116869900D02*
X179431800Y-116564900D01*
X155000000Y-108990000D02*
X157143400Y-111133400D01*
X157143400Y-111133400D02*
X170471500Y-111133400D01*
%TO.N,6_~S1*%
X167710000Y-83470000D02*
X169213700Y-84973700D01*
X169213700Y-84973700D02*
X174552700Y-84973700D01*
X174552700Y-84973700D02*
X175470000Y-85891100D01*
X147380000Y-111530000D02*
X146310100Y-112599900D01*
X146310100Y-112599900D02*
X131517200Y-112599900D01*
X167710000Y-83470000D02*
X152639200Y-83470000D01*
X152639200Y-83470000D02*
X151051700Y-85057500D01*
X151051700Y-85057500D02*
X151051700Y-89067600D01*
X151051700Y-89067600D02*
X150258000Y-89861300D01*
X150258000Y-89861300D02*
X147316100Y-89861300D01*
%TO.N,Net-(R15-Pad2)*%
X138656800Y-87647800D02*
X139194800Y-88185800D01*
X139194800Y-88185800D02*
X140787200Y-88185800D01*
X140787200Y-88185800D02*
X141926700Y-87046300D01*
X141926700Y-87046300D02*
X146353700Y-87046300D01*
X146353700Y-87046300D02*
X147390000Y-86010000D01*
%TO.N,7_~ERROR*%
X199650000Y-86260000D02*
X202762500Y-86260000D01*
X202762500Y-86260000D02*
X205937500Y-83085000D01*
X205937500Y-83085000D02*
X205937500Y-80344000D01*
X195175400Y-135660000D02*
X171510000Y-135660000D01*
X171510000Y-135660000D02*
X170240000Y-134390000D01*
X199650000Y-86260000D02*
X195175400Y-86260000D01*
%TO.N,7_~BUSY*%
X202924200Y-81820000D02*
X201024200Y-83720000D01*
X201024200Y-83720000D02*
X199650000Y-83720000D01*
X203300500Y-105554900D02*
X197730900Y-105554900D01*
X197730900Y-105554900D02*
X194555900Y-108729900D01*
X194555900Y-108729900D02*
X194555900Y-131532500D01*
X194555900Y-131532500D02*
X192968400Y-133120000D01*
X192968400Y-133120000D02*
X174050000Y-133120000D01*
X174050000Y-133120000D02*
X172780000Y-131850000D01*
%TO.N,Net-(R31-Pad1)*%
X176830000Y-53060000D02*
X157289000Y-53060000D01*
X157289000Y-53060000D02*
X156920000Y-53429000D01*
X188060000Y-53060000D02*
X187034900Y-52034900D01*
X187034900Y-52034900D02*
X183281200Y-52034900D01*
X183281200Y-52034900D02*
X182256100Y-53060000D01*
X182256100Y-53060000D02*
X176830000Y-53060000D01*
X199230000Y-53060000D02*
X200255100Y-52034900D01*
X200255100Y-52034900D02*
X209424900Y-52034900D01*
X209424900Y-52034900D02*
X210450000Y-53060000D01*
X199230000Y-53060000D02*
X198204900Y-52034900D01*
X198204900Y-52034900D02*
X189085100Y-52034900D01*
X189085100Y-52034900D02*
X188060000Y-53060000D01*
%TO.N,Net-(R31-Pad2)*%
X156920000Y-50504000D02*
X154613600Y-50504000D01*
X154613600Y-50504000D02*
X153394600Y-49285000D01*
%TO.N,Net-(R32-Pad2)*%
X163757500Y-57054000D02*
X163032400Y-56328900D01*
X163032400Y-56328900D02*
X154247400Y-56328900D01*
%TO.N,Net-(R32-Pad1)*%
X176830000Y-55600000D02*
X166682500Y-55600000D01*
X188060000Y-55600000D02*
X186995200Y-56664800D01*
X186995200Y-56664800D02*
X177894800Y-56664800D01*
X177894800Y-56664800D02*
X176830000Y-55600000D01*
X199230000Y-55600000D02*
X200294800Y-56664800D01*
X200294800Y-56664800D02*
X209385200Y-56664800D01*
X209385200Y-56664800D02*
X210450000Y-55600000D01*
X199230000Y-55600000D02*
X198165200Y-56664800D01*
X198165200Y-56664800D02*
X189124800Y-56664800D01*
X189124800Y-56664800D02*
X188060000Y-55600000D01*
%TO.N,Net-(R33-Pad1)*%
X176830000Y-58140000D02*
X174298600Y-58140000D01*
X174298600Y-58140000D02*
X173212500Y-57054000D01*
X188060000Y-58140000D02*
X186995200Y-59204800D01*
X186995200Y-59204800D02*
X177894800Y-59204800D01*
X177894800Y-59204800D02*
X176830000Y-58140000D01*
X199230000Y-58140000D02*
X200294800Y-59204800D01*
X200294800Y-59204800D02*
X209385200Y-59204800D01*
X209385200Y-59204800D02*
X210450000Y-58140000D01*
X199230000Y-58140000D02*
X198165200Y-59204800D01*
X198165200Y-59204800D02*
X189124800Y-59204800D01*
X189124800Y-59204800D02*
X188060000Y-58140000D01*
%TO.N,Net-(R33-Pad2)*%
X150927100Y-54153600D02*
X149175100Y-54153600D01*
X170287500Y-57054000D02*
X169341900Y-57999600D01*
X169341900Y-57999600D02*
X150927100Y-57999600D01*
%TO.N,Net-(R34-Pad1)*%
X188060000Y-60680000D02*
X186790000Y-61950000D01*
X186790000Y-61950000D02*
X178100000Y-61950000D01*
X178100000Y-61950000D02*
X176830000Y-60680000D01*
X199230000Y-60680000D02*
X200294800Y-61744800D01*
X200294800Y-61744800D02*
X209385200Y-61744800D01*
X209385200Y-61744800D02*
X210450000Y-60680000D01*
X199230000Y-60680000D02*
X198165200Y-61744800D01*
X198165200Y-61744800D02*
X189124800Y-61744800D01*
X189124800Y-61744800D02*
X188060000Y-60680000D01*
%TO.N,Net-(R35-Pad2)*%
X195680000Y-63220000D02*
X194604800Y-64295200D01*
X194604800Y-64295200D02*
X185525200Y-64295200D01*
X185525200Y-64295200D02*
X184450000Y-63220000D01*
X206850000Y-63220000D02*
X207925200Y-64295200D01*
X207925200Y-64295200D02*
X216994800Y-64295200D01*
X216994800Y-64295200D02*
X218070000Y-63220000D01*
X206850000Y-63220000D02*
X205824900Y-62194900D01*
X205824900Y-62194900D02*
X196705100Y-62194900D01*
X196705100Y-62194900D02*
X195680000Y-63220000D01*
%TO.N,Net-(R35-Pad1)*%
X106285300Y-50300100D02*
X110177000Y-50300100D01*
X111804090Y-48673010D02*
X114752190Y-48673010D01*
X110177000Y-50300100D02*
X111804090Y-48673010D01*
%TO.N,Net-(R36-Pad1)*%
X113655900Y-58639700D02*
X108711700Y-58639700D01*
%TO.N,Net-(R36-Pad2)*%
X195680000Y-60680000D02*
X194654900Y-59654900D01*
X194654900Y-59654900D02*
X185475100Y-59654900D01*
X185475100Y-59654900D02*
X184450000Y-60680000D01*
X206850000Y-60680000D02*
X205824900Y-59654900D01*
X205824900Y-59654900D02*
X196705100Y-59654900D01*
X196705100Y-59654900D02*
X195680000Y-60680000D01*
X206850000Y-60680000D02*
X207875100Y-59654900D01*
X207875100Y-59654900D02*
X217044900Y-59654900D01*
X217044900Y-59654900D02*
X218070000Y-60680000D01*
X184450000Y-60680000D02*
X183424900Y-59654900D01*
X183424900Y-59654900D02*
X175868200Y-59654900D01*
X175868200Y-59654900D02*
X174938000Y-58724700D01*
X174938000Y-58724700D02*
X127913900Y-58724700D01*
X127913900Y-58724700D02*
X127582500Y-59056100D01*
%TO.N,Net-(R37-Pad2)*%
X180030400Y-43964800D02*
X174250000Y-43964800D01*
X174250000Y-43964800D02*
X173310000Y-43024800D01*
X173310000Y-43024800D02*
X146232500Y-43024800D01*
X146232500Y-43024800D02*
X145835600Y-42627900D01*
X145835600Y-42627900D02*
X145835600Y-42464800D01*
X145835600Y-42464800D02*
X145041900Y-41671100D01*
X145041900Y-41671100D02*
X100150000Y-41671100D01*
X184450000Y-58140000D02*
X181450000Y-58140000D01*
X195680000Y-58140000D02*
X194654900Y-57114900D01*
X194654900Y-57114900D02*
X185475100Y-57114900D01*
X185475100Y-57114900D02*
X184450000Y-58140000D01*
X206850000Y-58140000D02*
X207875100Y-57114900D01*
X207875100Y-57114900D02*
X217044900Y-57114900D01*
X217044900Y-57114900D02*
X218070000Y-58140000D01*
X206850000Y-58140000D02*
X205824900Y-57114900D01*
X205824900Y-57114900D02*
X196705100Y-57114900D01*
X196705100Y-57114900D02*
X195680000Y-58140000D01*
%TO.N,Net-(R38-Pad2)*%
X181999500Y-42964700D02*
X182999000Y-41965200D01*
X182999000Y-41965200D02*
X182999000Y-39001600D01*
X182999000Y-39001600D02*
X182602100Y-38604700D01*
X182602100Y-38604700D02*
X98382400Y-38604700D01*
X98382400Y-38604700D02*
X95207400Y-41779700D01*
X95207400Y-41779700D02*
X95207400Y-43526300D01*
X95207400Y-43526300D02*
X94413700Y-44320000D01*
X94413700Y-44320000D02*
X93208600Y-44320000D01*
X93208600Y-44320000D02*
X92414800Y-45113800D01*
X92414800Y-45113800D02*
X92414800Y-46138600D01*
X92414800Y-46138600D02*
X93208600Y-46932400D01*
X93208600Y-46932400D02*
X99405500Y-46932400D01*
X99405500Y-46932400D02*
X102580500Y-50107400D01*
X102580500Y-50107400D02*
X102580500Y-53437400D01*
X102580500Y-53437400D02*
X100993000Y-55024900D01*
X100993000Y-55024900D02*
X98694000Y-55024900D01*
X184450000Y-55600000D02*
X182900200Y-55600000D01*
X195680000Y-55600000D02*
X194654900Y-54574900D01*
X194654900Y-54574900D02*
X185475100Y-54574900D01*
X185475100Y-54574900D02*
X184450000Y-55600000D01*
X206850000Y-55600000D02*
X207875100Y-54574900D01*
X207875100Y-54574900D02*
X217044900Y-54574900D01*
X217044900Y-54574900D02*
X218070000Y-55600000D01*
X206850000Y-55600000D02*
X205824900Y-54574900D01*
X205824900Y-54574900D02*
X196705100Y-54574900D01*
X196705100Y-54574900D02*
X195680000Y-55600000D01*
%TO.N,Net-(R39-Pad2)*%
X184450000Y-53060000D02*
X183385200Y-54124800D01*
X183385200Y-54124800D02*
X161611900Y-54124800D01*
X161611900Y-54124800D02*
X160132900Y-55603800D01*
X160132900Y-55603800D02*
X134122700Y-55603800D01*
X134122700Y-55603800D02*
X133652500Y-56074000D01*
X195680000Y-53060000D02*
X194615200Y-54124800D01*
X194615200Y-54124800D02*
X185514800Y-54124800D01*
X185514800Y-54124800D02*
X184450000Y-53060000D01*
X206850000Y-53060000D02*
X207914800Y-54124800D01*
X207914800Y-54124800D02*
X217005200Y-54124800D01*
X217005200Y-54124800D02*
X218070000Y-53060000D01*
X206850000Y-53060000D02*
X205785200Y-54124800D01*
X205785200Y-54124800D02*
X196744800Y-54124800D01*
X196744800Y-54124800D02*
X195680000Y-53060000D01*
%TO.N,M2*%
X134394000Y-130302500D02*
X133393800Y-131302600D01*
X133393800Y-131302600D02*
X128390200Y-131302600D01*
X128390200Y-131302600D02*
X126180900Y-131302600D01*
X125025000Y-80039500D02*
X122995000Y-80039500D01*
X135280000Y-136930000D02*
X147380000Y-136930000D01*
X134394000Y-136044000D02*
X135280000Y-136930000D01*
X134394000Y-130302500D02*
X134394000Y-136044000D01*
%TO.N,P65*%
X172780000Y-121690000D02*
X171743700Y-120653700D01*
X171743700Y-120653700D02*
X144181800Y-120653700D01*
X144181800Y-120653700D02*
X141006800Y-117478700D01*
X141006800Y-117478700D02*
X141006800Y-117106400D01*
X141006800Y-117106400D02*
X140609900Y-116709500D01*
X140609900Y-116709500D02*
X125250300Y-116709500D01*
X125250300Y-116709500D02*
X124460000Y-117499800D01*
X172780000Y-121690000D02*
X174027500Y-122937500D01*
X174027500Y-122937500D02*
X178874000Y-122937500D01*
%TO.N,6_RESET*%
X154221400Y-119150000D02*
X147380000Y-119150000D01*
%TO.N,7_RESET*%
X199650000Y-109120000D02*
X202844800Y-109120000D01*
X202844800Y-109120000D02*
X202854800Y-109110000D01*
X199650000Y-109120000D02*
X198755900Y-109120000D01*
X198755900Y-109120000D02*
X197962100Y-109913800D01*
X197962100Y-109913800D02*
X197962100Y-137298500D01*
X197962100Y-137298500D02*
X196374600Y-138886000D01*
X196374600Y-138886000D02*
X170636900Y-138886000D01*
X170636900Y-138886000D02*
X170240000Y-138489200D01*
X170240000Y-138489200D02*
X170240000Y-136930000D01*
%TO.N,P9*%
X145282500Y-104138600D02*
X132223600Y-104138600D01*
X132223600Y-104138600D02*
X130619800Y-102534800D01*
X130619800Y-102534800D02*
X102558000Y-102534800D01*
X102558000Y-102534800D02*
X100282800Y-100259600D01*
X145282500Y-104138600D02*
X149126300Y-104138600D01*
X149126300Y-104138600D02*
X149920000Y-104932300D01*
X149920000Y-104932300D02*
X149920000Y-106450000D01*
%TO.N,6_PEREQ*%
X165481200Y-72998800D02*
X157550000Y-72998800D01*
X199650000Y-81180000D02*
X174540200Y-81180000D01*
%TO.N,Net-(R311-Pad2)*%
X188060000Y-47980000D02*
X185987700Y-47980000D01*
X185987700Y-47980000D02*
X184962600Y-46954900D01*
X184962600Y-46954900D02*
X177855100Y-46954900D01*
X177855100Y-46954900D02*
X176830000Y-47980000D01*
X199230000Y-47980000D02*
X200500000Y-49250000D01*
X200500000Y-49250000D02*
X209180000Y-49250000D01*
X209180000Y-49250000D02*
X210450000Y-47980000D01*
X199230000Y-47980000D02*
X198204900Y-46954900D01*
X198204900Y-46954900D02*
X189085100Y-46954900D01*
X189085100Y-46954900D02*
X188060000Y-47980000D01*
%TO.N,P48*%
X165160000Y-134390000D02*
X166430000Y-135660000D01*
X166430000Y-135660000D02*
X166430000Y-138023600D01*
X166430000Y-138023600D02*
X168017500Y-139611100D01*
X168017500Y-139611100D02*
X189465100Y-139611100D01*
%TO.N,Net-(R312-Pad2)*%
X206850000Y-47980000D02*
X207875100Y-46954900D01*
X207875100Y-46954900D02*
X217044900Y-46954900D01*
X217044900Y-46954900D02*
X218070000Y-47980000D01*
%TO.N,P38*%
X160697500Y-140314000D02*
X155317500Y-140314000D01*
X155317500Y-140314000D02*
X153730000Y-138726500D01*
X153730000Y-138726500D02*
X153730000Y-135660000D01*
X153730000Y-135660000D02*
X152460000Y-134390000D01*
%TO.N,Net-(R313-Pad2)*%
X194654900Y-49250000D02*
X185720000Y-49250000D01*
X185720000Y-49250000D02*
X184450000Y-47980000D01*
X194654900Y-49250000D02*
X194654900Y-49005100D01*
X194654900Y-49005100D02*
X195680000Y-47980000D01*
X194654900Y-49700100D02*
X194654900Y-51187900D01*
X194654900Y-51187900D02*
X195051800Y-51584800D01*
X195051800Y-51584800D02*
X218751500Y-51584800D01*
X218751500Y-51584800D02*
X219545200Y-52378600D01*
X219545200Y-52378600D02*
X219545200Y-131446300D01*
X219545200Y-131446300D02*
X206845200Y-144146300D01*
X206845200Y-144146300D02*
X157772500Y-144146300D01*
X194654900Y-49700100D02*
X194654900Y-49250000D01*
%TO.N,P39*%
X154847500Y-138691400D02*
X155000000Y-138538900D01*
X155000000Y-138538900D02*
X155000000Y-136930000D01*
%TO.N,6_~BHE*%
X169471400Y-113716100D02*
X167360500Y-113716100D01*
X167360500Y-113716100D02*
X166566700Y-114509900D01*
X166566700Y-114509900D02*
X166566700Y-116906100D01*
X166566700Y-116906100D02*
X165773000Y-117699800D01*
X165773000Y-117699800D02*
X145929800Y-117699800D01*
X145929800Y-117699800D02*
X144840000Y-116610000D01*
%TO.N,6_~PEACK*%
X188250300Y-84073500D02*
X174497600Y-84073500D01*
X174497600Y-84073500D02*
X172407700Y-81983600D01*
X172407700Y-81983600D02*
X168763600Y-81983600D01*
X168763600Y-81983600D02*
X167710000Y-80930000D01*
X197730600Y-100474900D02*
X194025300Y-100474900D01*
X194025300Y-100474900D02*
X188250300Y-94699900D01*
X199650000Y-111428700D02*
X199650000Y-111660000D01*
%TO.N,6_A23*%
X175320000Y-119150000D02*
X184645000Y-119150000D01*
X184645000Y-119150000D02*
X184920000Y-119425000D01*
%TO.N,6_A22*%
X163391300Y-78390000D02*
X167710000Y-78390000D01*
X184645100Y-71098500D02*
X172286400Y-71098500D01*
X189662500Y-114308800D02*
X185545100Y-114308800D01*
X185545100Y-114308800D02*
X183532800Y-114308800D01*
X183532800Y-114308800D02*
X183294000Y-114070000D01*
X183294000Y-114070000D02*
X175320000Y-114070000D01*
X189662500Y-114308800D02*
X189706300Y-114352600D01*
X189706300Y-114352600D02*
X189706300Y-118171900D01*
X189706300Y-118171900D02*
X188118800Y-119759400D01*
X188118800Y-119759400D02*
X186190000Y-119759400D01*
%TO.N,6_M\u005C~IO*%
X163666300Y-123541100D02*
X160887600Y-123541100D01*
X160887600Y-123541100D02*
X160540200Y-123193700D01*
X160540200Y-123193700D02*
X140653600Y-123193700D01*
X140653600Y-123193700D02*
X140256800Y-122796800D01*
X140256800Y-122796800D02*
X140256800Y-117953400D01*
X140256800Y-117953400D02*
X139463000Y-117159600D01*
X139463000Y-117159600D02*
X129979500Y-117159600D01*
X129979500Y-117159600D02*
X129620200Y-117518900D01*
X163391300Y-80983500D02*
X165170000Y-80983500D01*
X163666300Y-123541100D02*
X164355200Y-124230000D01*
X164355200Y-124230000D02*
X172780000Y-124230000D01*
%TO.N,6_COD\u005C~INTA*%
X155771300Y-84698700D02*
X163106300Y-84698700D01*
X163106300Y-84698700D02*
X163900000Y-85492500D01*
X163900000Y-85492500D02*
X163900000Y-87280000D01*
X163900000Y-87280000D02*
X165170000Y-88550000D01*
%TO.N,6_HDLA*%
X163408600Y-60663500D02*
X159625000Y-60663500D01*
X158396100Y-54878700D02*
X124700200Y-54878700D01*
X124700200Y-54878700D02*
X124475000Y-55103900D01*
%TO.N,6_HOLD*%
X153221300Y-89877500D02*
X161302500Y-89877500D01*
X161302500Y-89877500D02*
X162630000Y-88550000D01*
X148173800Y-132903600D02*
X147380000Y-133697400D01*
X152856400Y-132903600D02*
X148173800Y-132903600D01*
X153496300Y-132263700D02*
X152856400Y-132903600D01*
X147380000Y-133697400D02*
X147380000Y-134390000D01*
X153496300Y-129638500D02*
X153496300Y-132263700D01*
%TO.N,6_~READY*%
X159036400Y-121468500D02*
X155000000Y-121468500D01*
%TO.N,6_A21*%
X172780000Y-116610000D02*
X173816300Y-115573700D01*
X173816300Y-115573700D02*
X184851400Y-115573700D01*
X184851400Y-115573700D02*
X185645100Y-116367500D01*
X185645100Y-116367500D02*
X185645100Y-118221400D01*
X185645100Y-118221400D02*
X186438900Y-119015200D01*
X186438900Y-119015200D02*
X187460000Y-119015200D01*
X172780000Y-116610000D02*
X169746400Y-116610000D01*
X169746400Y-116610000D02*
X168746300Y-117610100D01*
%TO.N,6_A20*%
X185475100Y-73310000D02*
X170250000Y-73310000D01*
%TO.N,6_A19*%
X167700000Y-115123600D02*
X185576500Y-115123600D01*
X185576500Y-115123600D02*
X186370200Y-115917400D01*
X186370200Y-115917400D02*
X186370200Y-117662800D01*
%TO.N,6_A16*%
X157311200Y-104776100D02*
X156673900Y-104776100D01*
X156673900Y-104776100D02*
X155000000Y-106450000D01*
X162476600Y-70778700D02*
X158586300Y-70778700D01*
%TO.N,6_A14*%
X178580200Y-52034900D02*
X178580200Y-50288700D01*
X178580200Y-50288700D02*
X177786500Y-49494900D01*
X177786500Y-49494900D02*
X163685400Y-49494900D01*
X163685400Y-49494900D02*
X163435000Y-49244500D01*
X178305200Y-65690000D02*
X170250000Y-65690000D01*
%TO.N,6_A11*%
X168515000Y-61838700D02*
X166481300Y-61838700D01*
X166481300Y-61838700D02*
X165170000Y-63150000D01*
%TO.N,6_A6*%
X159053700Y-62113700D02*
X141410300Y-62113700D01*
%TO.N,6_A3*%
X138926800Y-63928600D02*
X139201800Y-64203600D01*
X139201800Y-64203600D02*
X153956400Y-64203600D01*
X153956400Y-64203600D02*
X155010000Y-63150000D01*
%TO.N,6_A2*%
X142135400Y-52703800D02*
X134075800Y-52703800D01*
X134075800Y-52703800D02*
X133151900Y-51779900D01*
X133151900Y-51779900D02*
X132095000Y-51779900D01*
%TO.N,6_A0*%
X131640100Y-62654900D02*
X132135200Y-63150000D01*
X132135200Y-63150000D02*
X147390000Y-63150000D01*
%TO.N,6_D0*%
X171561300Y-75628500D02*
X176127900Y-75628500D01*
X197175600Y-77164800D02*
X195941700Y-78398700D01*
X195941700Y-78398700D02*
X176127900Y-78398700D01*
X165481200Y-92379900D02*
X161390100Y-92379900D01*
X161390100Y-92379900D02*
X160090000Y-93680000D01*
X169471400Y-88654800D02*
X168101100Y-90025100D01*
X168101100Y-90025100D02*
X165481200Y-90025100D01*
X171561300Y-76628600D02*
X171561300Y-75628500D01*
X138040000Y-121103800D02*
X135578900Y-121103800D01*
X135578900Y-121103800D02*
X134785100Y-121897600D01*
X134785100Y-121897600D02*
X134785100Y-125175000D01*
X140210100Y-66468600D02*
X140210100Y-73541100D01*
X140210100Y-73541100D02*
X138572800Y-75178400D01*
X151200000Y-75858700D02*
X164566200Y-75858700D01*
X164566200Y-75858700D02*
X165611100Y-76903600D01*
X165611100Y-76903600D02*
X171286300Y-76903600D01*
X171286300Y-76903600D02*
X171561300Y-76628600D01*
%TO.N,6_D8*%
X179640900Y-87324800D02*
X206333900Y-87324800D01*
X206333900Y-87324800D02*
X207398700Y-86260000D01*
X207398700Y-86260000D02*
X214890000Y-86260000D01*
X134897100Y-71547000D02*
X133897000Y-72547100D01*
X133897000Y-72547100D02*
X129523700Y-72547100D01*
X129523700Y-72547100D02*
X129248700Y-72272100D01*
X129248700Y-72272100D02*
X124066800Y-72272100D01*
X124066800Y-72272100D02*
X123669900Y-72669000D01*
X123669900Y-72669000D02*
X123669900Y-73351000D01*
X123669900Y-73351000D02*
X124463700Y-74144700D01*
X124463700Y-74144700D02*
X129056600Y-74144700D01*
X129056600Y-74144700D02*
X129850300Y-74938500D01*
X129850300Y-74938500D02*
X129850300Y-79487400D01*
X129850300Y-79487400D02*
X131437800Y-81074900D01*
X131437800Y-81074900D02*
X131492700Y-81074900D01*
X131492700Y-81074900D02*
X131889600Y-81471800D01*
X131889600Y-81471800D02*
X131889600Y-82842300D01*
X131889600Y-82842300D02*
X130575400Y-84156500D01*
X144850000Y-68230000D02*
X146353700Y-69733700D01*
X146353700Y-69733700D02*
X173213400Y-69733700D01*
X173213400Y-69733700D02*
X173538500Y-70058800D01*
X173538500Y-70058800D02*
X174551200Y-70058800D01*
X179156800Y-112039800D02*
X178647000Y-111530000D01*
X178647000Y-111530000D02*
X175320000Y-111530000D01*
%TO.N,6_D1*%
X192840100Y-86599700D02*
X179259500Y-86599700D01*
X179259500Y-86599700D02*
X178465700Y-87393500D01*
X178465700Y-87393500D02*
X178465700Y-87579600D01*
X178465700Y-87579600D02*
X175290700Y-90754600D01*
X175290700Y-90754600D02*
X152501900Y-90754600D01*
X152501900Y-90754600D02*
X151776800Y-90029500D01*
X199650000Y-76100000D02*
X192840100Y-76100000D01*
X154946500Y-112344800D02*
X156814900Y-112344800D01*
X147380000Y-124230000D02*
X154221400Y-124230000D01*
X143134800Y-126044900D02*
X139254800Y-126044900D01*
X139254800Y-126044900D02*
X138275400Y-127024300D01*
X138275400Y-127024300D02*
X134529400Y-127024300D01*
X134529400Y-127024300D02*
X133950100Y-126445000D01*
X151416400Y-81708600D02*
X156496400Y-81708600D01*
%TO.N,6_D9*%
X184699600Y-69816000D02*
X191063800Y-69816000D01*
X180493200Y-66018500D02*
X184699600Y-66018500D01*
X192662800Y-89711800D02*
X192776100Y-89825100D01*
X192776100Y-89825100D02*
X213864900Y-89825100D01*
X213864900Y-89825100D02*
X214890000Y-88800000D01*
X129225100Y-69220100D02*
X136122500Y-69220100D01*
X192270100Y-110411700D02*
X192270100Y-110650100D01*
X192270100Y-110650100D02*
X191476400Y-111443800D01*
X191476400Y-111443800D02*
X187987500Y-111443800D01*
X187987500Y-111443800D02*
X187590600Y-111840700D01*
X187590600Y-111840700D02*
X187590600Y-112690000D01*
X187590600Y-112690000D02*
X188384400Y-113483800D01*
X188384400Y-113483800D02*
X190237500Y-113483800D01*
X190237500Y-113483800D02*
X190634400Y-113880700D01*
X190634400Y-113880700D02*
X190634400Y-120439500D01*
X190634400Y-120439500D02*
X189046900Y-122027000D01*
X189046900Y-122027000D02*
X181802000Y-122027000D01*
X181802000Y-122027000D02*
X179599100Y-124230000D01*
X179599100Y-124230000D02*
X175320000Y-124230000D01*
X192662800Y-89711800D02*
X191629100Y-89711800D01*
X191629100Y-89711800D02*
X191179000Y-90161900D01*
X175448900Y-61388600D02*
X173235100Y-59174800D01*
X173235100Y-59174800D02*
X137699500Y-59174800D01*
X137699500Y-59174800D02*
X136660900Y-60213400D01*
%TO.N,6_D2*%
X140935200Y-69620100D02*
X140935200Y-66028800D01*
X140935200Y-66028800D02*
X140141500Y-65235000D01*
X140141500Y-65235000D02*
X124570100Y-65235000D01*
X199650000Y-73560000D02*
X190041900Y-73560000D01*
X190041900Y-73560000D02*
X188305500Y-71823600D01*
X188305500Y-71823600D02*
X148443600Y-71823600D01*
X148443600Y-71823600D02*
X147390000Y-70770000D01*
%TO.N,6_D10*%
X200675100Y-97690000D02*
X198853700Y-97690000D01*
X198853700Y-97690000D02*
X197495900Y-96332200D01*
X197495900Y-96332200D02*
X192632600Y-96332200D01*
X192632600Y-96332200D02*
X191045100Y-94744700D01*
X191045100Y-94744700D02*
X191045100Y-94219700D01*
X186925300Y-75664900D02*
X189250400Y-75664900D01*
X200675100Y-97690000D02*
X202970200Y-95394900D01*
X202970200Y-95394900D02*
X213375100Y-95394900D01*
X213375100Y-95394900D02*
X214890000Y-93880000D01*
X197987800Y-102739900D02*
X200331400Y-102739900D01*
X200331400Y-102739900D02*
X201125200Y-101946200D01*
X201125200Y-101946200D02*
X201125200Y-98140100D01*
X201125200Y-98140100D02*
X200675100Y-97690000D01*
X144850000Y-73310000D02*
X146120000Y-74580000D01*
X146120000Y-74580000D02*
X146120000Y-76109900D01*
X146120000Y-76109900D02*
X146913800Y-76903600D01*
X146913800Y-76903600D02*
X160353100Y-76903600D01*
X160353100Y-76903600D02*
X160803200Y-77353700D01*
X160803200Y-77353700D02*
X179899600Y-77353700D01*
X179899600Y-77353700D02*
X181588400Y-75664900D01*
X181588400Y-75664900D02*
X186925300Y-75664900D01*
X142074900Y-73310000D02*
X142074900Y-81226100D01*
X142074900Y-81226100D02*
X141281100Y-82019800D01*
X141281100Y-82019800D02*
X137195100Y-82019800D01*
X137195100Y-82019800D02*
X134020100Y-85194800D01*
X134020100Y-85194800D02*
X134020100Y-86885000D01*
X178431700Y-116610000D02*
X175320000Y-116610000D01*
%TO.N,6_D3*%
X215300100Y-44414900D02*
X208364900Y-44414900D01*
X208364900Y-44414900D02*
X206850000Y-42900000D01*
X135931500Y-74363600D02*
X135931500Y-71177300D01*
X135931500Y-71177300D02*
X135137700Y-70383600D01*
X135137700Y-70383600D02*
X125908700Y-70383600D01*
X125908700Y-70383600D02*
X124570100Y-69045000D01*
X214890000Y-73560000D02*
X213864900Y-72534900D01*
X213864900Y-72534900D02*
X190338700Y-72534900D01*
X147390000Y-73310000D02*
X148426300Y-72273700D01*
X148426300Y-72273700D02*
X187240500Y-72273700D01*
X187240500Y-72273700D02*
X188008700Y-73041900D01*
X137571100Y-129139000D02*
X139007900Y-129139000D01*
X139007900Y-129139000D02*
X139178900Y-129310000D01*
X139178900Y-129310000D02*
X144840000Y-129310000D01*
%TO.N,6_D11*%
X212970600Y-87774900D02*
X182782300Y-87774900D01*
X182782300Y-87774900D02*
X182507300Y-88049900D01*
X146078700Y-90004700D02*
X145503900Y-90579500D01*
X145503900Y-90579500D02*
X135405600Y-90579500D01*
X135405600Y-90579500D02*
X134745200Y-91239900D01*
X183625300Y-68083400D02*
X182912700Y-68083400D01*
X182912700Y-68083400D02*
X182162600Y-68833500D01*
X182162600Y-68833500D02*
X175551300Y-68833500D01*
X175551300Y-68833500D02*
X175276300Y-68558500D01*
X171021800Y-63928600D02*
X175276300Y-63928600D01*
X155083900Y-68008500D02*
X165398600Y-68008500D01*
X144850000Y-75850000D02*
X144850000Y-76560000D01*
X144850000Y-76560000D02*
X145643800Y-77353700D01*
X145643800Y-77353700D02*
X154808900Y-77353700D01*
X154808900Y-77353700D02*
X155083900Y-77628700D01*
X180049800Y-129310000D02*
X175320000Y-129310000D01*
X214890000Y-96420000D02*
X205613100Y-96420000D01*
X205613100Y-96420000D02*
X204025600Y-98007500D01*
X204025600Y-98007500D02*
X204025600Y-106262500D01*
X204025600Y-106262500D02*
X202438100Y-107850000D01*
X202438100Y-107850000D02*
X198543100Y-107850000D01*
X198543100Y-107850000D02*
X196955600Y-109437500D01*
X196955600Y-109437500D02*
X196955600Y-132827900D01*
X196955600Y-132827900D02*
X195368100Y-134415400D01*
X195368100Y-134415400D02*
X180130000Y-134415400D01*
%TO.N,6_D4*%
X137847700Y-76610800D02*
X137847700Y-68056100D01*
X137847700Y-68056100D02*
X136260200Y-66468600D01*
X136260200Y-66468600D02*
X125104900Y-66468600D01*
X143326600Y-130363600D02*
X136957800Y-130363600D01*
X136957800Y-130363600D02*
X135882300Y-129288100D01*
X135882300Y-129288100D02*
X131529100Y-129288100D01*
X131529100Y-129288100D02*
X130562200Y-130255000D01*
X214890000Y-76100000D02*
X213603700Y-74813700D01*
X213603700Y-74813700D02*
X148426300Y-74813700D01*
X148426300Y-74813700D02*
X147390000Y-75850000D01*
%TO.N,6_D12*%
X200255100Y-65020300D02*
X184157800Y-65020300D01*
X184157800Y-65020300D02*
X183791200Y-64653700D01*
X183791200Y-64653700D02*
X143592600Y-64653700D01*
X143592600Y-64653700D02*
X142005100Y-66241200D01*
X142005100Y-66241200D02*
X142005100Y-70867300D01*
X142005100Y-70867300D02*
X141117400Y-71755000D01*
X141117400Y-71755000D02*
X141117400Y-75639500D01*
X200255100Y-65020300D02*
X201255200Y-65020300D01*
X201255200Y-65020300D02*
X215611900Y-65020300D01*
X215611900Y-65020300D02*
X217199400Y-66607800D01*
X217199400Y-66607800D02*
X217199400Y-103246300D01*
X217199400Y-103246300D02*
X216405700Y-104040000D01*
X216405700Y-104040000D02*
X214890000Y-104040000D01*
X141117400Y-75639500D02*
X141117400Y-80776000D01*
X141117400Y-80776000D02*
X140323600Y-81569700D01*
X140323600Y-81569700D02*
X134541600Y-81569700D01*
X134541600Y-81569700D02*
X132954100Y-83157200D01*
X132954100Y-83157200D02*
X132954100Y-83968800D01*
X132954100Y-83968800D02*
X129850300Y-87072600D01*
X129850300Y-87072600D02*
X129850300Y-88685700D01*
X129850300Y-88685700D02*
X130247200Y-89082500D01*
X130247200Y-89082500D02*
X134020100Y-89082500D01*
%TO.N,6_D5*%
X214890000Y-78640000D02*
X213620000Y-77370000D01*
X213620000Y-77370000D02*
X199299600Y-77370000D01*
X199299600Y-77370000D02*
X197226000Y-79443600D01*
X197226000Y-79443600D02*
X156640500Y-79443600D01*
X156640500Y-79443600D02*
X155586900Y-78390000D01*
X155586900Y-78390000D02*
X150326600Y-78390000D01*
X139392200Y-77980600D02*
X136484600Y-77980600D01*
X136484600Y-77980600D02*
X134897100Y-76393100D01*
X134897100Y-76393100D02*
X134897100Y-73791000D01*
X134897100Y-73791000D02*
X134103300Y-72997200D01*
X134103300Y-72997200D02*
X124845100Y-72997200D01*
X150326600Y-84698700D02*
X149453800Y-84698700D01*
X149453800Y-84698700D02*
X148660000Y-85492500D01*
X148660000Y-85492500D02*
X148660000Y-86720000D01*
X148660000Y-86720000D02*
X147866300Y-87513700D01*
X147866300Y-87513700D02*
X142684000Y-87513700D01*
X142684000Y-87513700D02*
X142426300Y-87771400D01*
X150326600Y-78390000D02*
X147390000Y-78390000D01*
X147380000Y-121690000D02*
X146326400Y-122743600D01*
X146326400Y-122743600D02*
X141565600Y-122743600D01*
X141565600Y-122743600D02*
X141290600Y-122468600D01*
X147380000Y-121690000D02*
X151190000Y-121690000D01*
%TO.N,6_D13*%
X194150200Y-68808500D02*
X196426400Y-71084700D01*
X196426400Y-71084700D02*
X211675200Y-71084700D01*
X194150200Y-68808500D02*
X183691400Y-68808500D01*
X183691400Y-68808500D02*
X183216300Y-69283600D01*
X183216300Y-69283600D02*
X153523600Y-69283600D01*
X153523600Y-69283600D02*
X153195100Y-68955100D01*
X144850000Y-80930000D02*
X146336400Y-79443600D01*
X146336400Y-79443600D02*
X152920100Y-79443600D01*
X152920100Y-79443600D02*
X153195100Y-79168600D01*
X144205300Y-89279600D02*
X143355500Y-90129400D01*
X143355500Y-90129400D02*
X131141000Y-90129400D01*
X131141000Y-90129400D02*
X130575400Y-90695000D01*
%TO.N,6_D6*%
X139724900Y-80490100D02*
X133750400Y-80490100D01*
X133750400Y-80490100D02*
X130575400Y-77315100D01*
X130575400Y-77315100D02*
X130575400Y-74125000D01*
X147390000Y-80930000D02*
X146120000Y-82200000D01*
X146120000Y-82200000D02*
X146120000Y-83729900D01*
X146120000Y-83729900D02*
X145326300Y-84523600D01*
X145326300Y-84523600D02*
X139724900Y-84523600D01*
X144840000Y-126770000D02*
X144840000Y-126770000D01*
X144840000Y-126770000D02*
X140940400Y-126770000D01*
X214890000Y-81180000D02*
X212035800Y-78325800D01*
X212035800Y-78325800D02*
X202804500Y-78325800D01*
X202804500Y-78325800D02*
X201236600Y-79893700D01*
X201236600Y-79893700D02*
X148426300Y-79893700D01*
X148426300Y-79893700D02*
X147390000Y-80930000D01*
X139724900Y-84523600D02*
X138575800Y-84523600D01*
X138575800Y-84523600D02*
X137850700Y-85248700D01*
%TO.N,6_D14*%
X144850000Y-83470000D02*
X143531900Y-82151900D01*
X143531900Y-82151900D02*
X143531900Y-67987500D01*
X143531900Y-67987500D02*
X144325600Y-67193700D01*
X144325600Y-67193700D02*
X208600200Y-67193700D01*
X144850000Y-83470000D02*
X137042400Y-83470000D01*
X137042400Y-83470000D02*
X135031300Y-85481100D01*
X208600200Y-42660200D02*
X207570000Y-41630000D01*
X207570000Y-41630000D02*
X198620600Y-41630000D01*
X198620600Y-41630000D02*
X197033100Y-43217500D01*
X197033100Y-43217500D02*
X197033100Y-44086900D01*
X197033100Y-44086900D02*
X195680000Y-45440000D01*
%TO.N,6_D7*%
X137750800Y-79765000D02*
X135759500Y-79765000D01*
X135759500Y-79765000D02*
X134172000Y-78177500D01*
X134172000Y-78177500D02*
X134172000Y-74669900D01*
X147390000Y-83470000D02*
X147390000Y-84180000D01*
X147390000Y-84180000D02*
X146596300Y-84973700D01*
X146596300Y-84973700D02*
X143501100Y-84973700D01*
X143501100Y-84973700D02*
X143226100Y-85248700D01*
X143226100Y-85248700D02*
X141701200Y-85248700D01*
X129112000Y-134065000D02*
X130799900Y-134065000D01*
X135925400Y-118609800D02*
X132775200Y-118609800D01*
X132775200Y-118609800D02*
X129600200Y-121784800D01*
X129600200Y-121784800D02*
X129600200Y-125222500D01*
X144840000Y-114070000D02*
X135925400Y-114070000D01*
X214890000Y-83720000D02*
X210451700Y-79281700D01*
X210451700Y-79281700D02*
X205690500Y-79281700D01*
X205690500Y-79281700D02*
X204103000Y-80869200D01*
X204103000Y-80869200D02*
X204103000Y-82059900D01*
X204103000Y-82059900D02*
X200928000Y-85234900D01*
X200928000Y-85234900D02*
X187430800Y-85234900D01*
X187430800Y-85234900D02*
X186719500Y-84523600D01*
X186719500Y-84523600D02*
X173640300Y-84523600D01*
X173640300Y-84523600D02*
X171550400Y-82433700D01*
X171550400Y-82433700D02*
X148426300Y-82433700D01*
X148426300Y-82433700D02*
X147390000Y-83470000D01*
%TO.N,6_D15*%
X196175500Y-66468600D02*
X193417200Y-66468600D01*
X193417200Y-66468600D02*
X193142200Y-66743600D01*
X193142200Y-66743600D02*
X143593700Y-66743600D01*
X143593700Y-66743600D02*
X142800000Y-67537400D01*
X142800000Y-67537400D02*
X142800000Y-81951200D01*
X142800000Y-81951200D02*
X142006200Y-82744900D01*
X142006200Y-82744900D02*
X140450000Y-82744900D01*
X196175500Y-66468600D02*
X214741400Y-66468600D01*
X214741400Y-66468600D02*
X216328900Y-68056100D01*
X216328900Y-68056100D02*
X216328900Y-101976300D01*
X216328900Y-101976300D02*
X215535100Y-102770000D01*
X215535100Y-102770000D02*
X214208600Y-102770000D01*
X214208600Y-102770000D02*
X213414800Y-103563800D01*
X213414800Y-103563800D02*
X213414800Y-110184800D01*
X213414800Y-110184800D02*
X214890000Y-111660000D01*
X130575400Y-88357400D02*
X136562400Y-88357400D01*
X136562400Y-88357400D02*
X138494900Y-86424900D01*
X138494900Y-86424900D02*
X139499400Y-86424900D01*
X139499400Y-86424900D02*
X140450000Y-85474300D01*
X140450000Y-85474300D02*
X140985800Y-86010000D01*
X140985800Y-86010000D02*
X144850000Y-86010000D01*
%TO.N,6_~BUSY*%
X150231200Y-126044900D02*
X171124000Y-126044900D01*
X171124000Y-126044900D02*
X171435200Y-125733700D01*
X171435200Y-125733700D02*
X174283700Y-125733700D01*
X174283700Y-125733700D02*
X175320000Y-126770000D01*
%TO.N,6_INTR*%
X179706800Y-106228500D02*
X174213200Y-106228500D01*
X174213200Y-106228500D02*
X173816300Y-106625400D01*
X173816300Y-106625400D02*
X173816300Y-110493700D01*
X173816300Y-110493700D02*
X172780000Y-111530000D01*
X181782200Y-85435600D02*
X177945700Y-85435600D01*
X177945700Y-85435600D02*
X176101400Y-87280000D01*
X176101400Y-87280000D02*
X167233800Y-87280000D01*
X167233800Y-87280000D02*
X166440000Y-86486300D01*
X166440000Y-86486300D02*
X166440000Y-85561100D01*
X166440000Y-85561100D02*
X164852500Y-83973600D01*
X164852500Y-83973600D02*
X154506400Y-83973600D01*
X154506400Y-83973600D02*
X152470000Y-86010000D01*
%TO.N,7_~NPRD*%
X106490000Y-78620000D02*
X107515100Y-79645100D01*
X107515100Y-79645100D02*
X107515100Y-81421100D01*
X107515100Y-81421100D02*
X108308900Y-82214800D01*
X108308900Y-82214800D02*
X124859200Y-82214800D01*
X124859200Y-82214800D02*
X128034200Y-85389800D01*
X128034200Y-85389800D02*
X128034200Y-91447500D01*
X128034200Y-91447500D02*
X129621700Y-93035000D01*
X129621700Y-93035000D02*
X141336600Y-93035000D01*
X141336600Y-93035000D02*
X142616900Y-91754700D01*
X142616900Y-91754700D02*
X155709400Y-91754700D01*
X155709400Y-91754700D02*
X156259400Y-91204700D01*
X156259400Y-91204700D02*
X179606200Y-91204700D01*
X179606200Y-91204700D02*
X182010900Y-88800000D01*
X182010900Y-88800000D02*
X199650000Y-88800000D01*
%TO.N,7_~NPWR*%
X199650000Y-91340000D02*
X193988100Y-91340000D01*
X193988100Y-91340000D02*
X193553000Y-90904900D01*
X193553000Y-90904900D02*
X182076200Y-90904900D01*
X182076200Y-90904900D02*
X181326300Y-91654800D01*
X181326300Y-91654800D02*
X159464800Y-91654800D01*
X159464800Y-91654800D02*
X158914800Y-92204800D01*
X158914800Y-92204800D02*
X148004800Y-92204800D01*
X148004800Y-92204800D02*
X146724500Y-93485100D01*
X146724500Y-93485100D02*
X129171600Y-93485100D01*
X129171600Y-93485100D02*
X127584100Y-91897600D01*
X127584100Y-91897600D02*
X127584100Y-85839900D01*
X127584100Y-85839900D02*
X124409100Y-82664900D01*
X124409100Y-82664900D02*
X107283800Y-82664900D01*
X107283800Y-82664900D02*
X106490000Y-81871200D01*
X106490000Y-81871200D02*
X106490000Y-81160000D01*
%TO.N,7_NPS2*%
X193725200Y-104040000D02*
X199650000Y-104040000D01*
X193725200Y-104040000D02*
X193725200Y-127506900D01*
X193725200Y-127506900D02*
X192137700Y-129094400D01*
X192137700Y-129094400D02*
X182335700Y-129094400D01*
X182335700Y-129094400D02*
X181066400Y-130363600D01*
X181066400Y-130363600D02*
X170281600Y-130363600D01*
X170281600Y-130363600D02*
X169884700Y-130760500D01*
X169884700Y-130760500D02*
X169884700Y-131494700D01*
X169884700Y-131494700D02*
X172780000Y-134390000D01*
X154246900Y-95456900D02*
X152470000Y-93680000D01*
X182875200Y-95456900D02*
X154246900Y-95456900D01*
X191458300Y-104040000D02*
X182875200Y-95456900D01*
X193725200Y-104040000D02*
X191458300Y-104040000D01*
%TO.N,7_~NPS1*%
X105298900Y-88470000D02*
X106464100Y-87304800D01*
X106464100Y-87304800D02*
X109692200Y-87304800D01*
X109692200Y-87304800D02*
X110485900Y-86511100D01*
X110485900Y-86511100D02*
X110485900Y-85558600D01*
X110485900Y-85558600D02*
X109692200Y-84764800D01*
X109692200Y-84764800D02*
X107554800Y-84764800D01*
X107554800Y-84764800D02*
X106490000Y-83700000D01*
X149920000Y-140430400D02*
X149469900Y-140880500D01*
X149469900Y-140880500D02*
X119841300Y-140880500D01*
X201850300Y-106580000D02*
X199650000Y-106580000D01*
X149920000Y-140430400D02*
X150820200Y-141330600D01*
X150820200Y-141330600D02*
X159235000Y-141330600D01*
X149920000Y-140430400D02*
X149920000Y-136930000D01*
%TO.N,P61*%
X175716000Y-107678700D02*
X178531000Y-110493700D01*
X178531000Y-110493700D02*
X186359900Y-110493700D01*
X174421600Y-101256600D02*
X173439900Y-100274900D01*
X173439900Y-100274900D02*
X163655100Y-100274900D01*
X163655100Y-100274900D02*
X162630000Y-101300000D01*
%TO.N,P30*%
X188730000Y-112414000D02*
X190537500Y-112414000D01*
X190537500Y-112414000D02*
X191331300Y-113207700D01*
X191331300Y-113207700D02*
X191331300Y-126686200D01*
X191331300Y-126686200D02*
X189743800Y-128273700D01*
X189743800Y-128273700D02*
X151446000Y-128273700D01*
X151446000Y-128273700D02*
X149139700Y-130580000D01*
X149139700Y-130580000D02*
X146110000Y-130580000D01*
X146110000Y-130580000D02*
X144840000Y-131850000D01*
%TO.N,P71*%
X186415400Y-113033700D02*
X187140500Y-112308600D01*
X187140500Y-112308600D02*
X187140500Y-110870600D01*
X187140500Y-110870600D02*
X187537400Y-110473700D01*
X187537400Y-110473700D02*
X191270000Y-110473700D01*
X186415400Y-113033700D02*
X173816300Y-113033700D01*
X173816300Y-113033700D02*
X172780000Y-114070000D01*
%TO.N,Net-(U15-Pad8)*%
X123116100Y-44564900D02*
X143346100Y-44564900D01*
X143346100Y-44564900D02*
X145110500Y-42800500D01*
X213970700Y-92579900D02*
X211605800Y-94944800D01*
X211605800Y-94944800D02*
X192540000Y-94944800D01*
X186650300Y-38459700D02*
X219995300Y-38459700D01*
X154519700Y-40134100D02*
X155324000Y-39329800D01*
X155324000Y-39329800D02*
X181999500Y-39329800D01*
X146592900Y-42214500D02*
X152996100Y-42214500D01*
X121125600Y-80764600D02*
X126033100Y-80764600D01*
X123116100Y-44564900D02*
X106168100Y-44564900D01*
X106168100Y-44564900D02*
X104580600Y-46152400D01*
X104580600Y-46152400D02*
X104580600Y-48045000D01*
%TO.N,GCLK*%
X126033100Y-61587500D02*
X126033100Y-58793400D01*
X126033100Y-58793400D02*
X126826900Y-57999600D01*
X126826900Y-57999600D02*
X143585600Y-57999600D01*
X128325200Y-80759500D02*
X126033100Y-78467400D01*
X126033100Y-78467400D02*
X126033100Y-77524800D01*
X143585600Y-45774900D02*
X144753200Y-45774900D01*
X144753200Y-45774900D02*
X145303300Y-45224800D01*
X145303300Y-45224800D02*
X170159700Y-45224800D01*
X170159700Y-45224800D02*
X171055000Y-46120100D01*
X134025100Y-106450000D02*
X134025100Y-106450000D01*
X134025100Y-106450000D02*
X147380000Y-106450000D01*
%TO.N,P19*%
X173408300Y-103238400D02*
X170079700Y-103238400D01*
X170079700Y-103238400D02*
X169485600Y-102644200D01*
X169485600Y-102644200D02*
X166514200Y-102644200D01*
X166514200Y-102644200D02*
X165170000Y-101300000D01*
X183446100Y-104688600D02*
X173408300Y-104688600D01*
X165479100Y-119928600D02*
X165754100Y-120203600D01*
X165754100Y-120203600D02*
X178927800Y-120203600D01*
X178927800Y-120203600D02*
X179938000Y-121213800D01*
X179938000Y-121213800D02*
X183440100Y-121213800D01*
X147380000Y-116610000D02*
X165479100Y-116610000D01*
X136847600Y-75903500D02*
X136847600Y-68901300D01*
X136847600Y-68901300D02*
X135260100Y-67313800D01*
X135260100Y-67313800D02*
X124495100Y-67313800D01*
X124495100Y-67313800D02*
X123701300Y-66520100D01*
X123701300Y-66520100D02*
X123701300Y-59773700D01*
%TO.N,P45*%
X135950400Y-101195000D02*
X136055400Y-101300000D01*
X136055400Y-101300000D02*
X149930000Y-101300000D01*
X152591600Y-113344900D02*
X156946500Y-113344900D01*
X135950400Y-109301200D02*
X136692800Y-110043600D01*
X136692800Y-110043600D02*
X149303100Y-110043600D01*
X149303100Y-110043600D02*
X150925600Y-111666100D01*
X150925600Y-111666100D02*
X152591600Y-111666100D01*
%TO.N,P53*%
X172790000Y-93680000D02*
X171463200Y-95006800D01*
X171463200Y-95006800D02*
X166496800Y-95006800D01*
X166496800Y-95006800D02*
X165170000Y-93680000D01*
X173400400Y-60983000D02*
X166728600Y-60983000D01*
X166728600Y-60983000D02*
X166323000Y-61388600D01*
X166323000Y-61388600D02*
X131789300Y-61388600D01*
X131789300Y-61388600D02*
X129375200Y-63802700D01*
X129375200Y-63802700D02*
X124570100Y-63802700D01*
%TO.N,CLK*%
X176441100Y-101690400D02*
X176441100Y-99094900D01*
X176441100Y-99094900D02*
X175647300Y-98301100D01*
X175647300Y-98301100D02*
X174120300Y-98301100D01*
X174120300Y-98301100D02*
X173321700Y-99099700D01*
X173321700Y-99099700D02*
X170525000Y-99099700D01*
X170525000Y-99099700D02*
X170250000Y-98824700D01*
%TO.N,P47*%
X177706600Y-93655000D02*
X176431500Y-92379900D01*
X176431500Y-92379900D02*
X169010100Y-92379900D01*
X169010100Y-92379900D02*
X167710000Y-93680000D01*
%TO.N,LDC*%
X135510200Y-122495000D02*
X138040000Y-122495000D01*
%TO.N,P67*%
X170090400Y-125283600D02*
X176652400Y-125283600D01*
X176652400Y-125283600D02*
X178234200Y-126865400D01*
X178234200Y-126865400D02*
X188095100Y-126865400D01*
%TO.N,P27*%
X171059900Y-131362400D02*
X171608600Y-130813700D01*
X171608600Y-130813700D02*
X178616400Y-130813700D01*
X178616400Y-130813700D02*
X179092000Y-131289300D01*
X179092000Y-131289300D02*
X191280000Y-131289300D01*
X169784800Y-126770000D02*
X147380000Y-126770000D01*
X147380000Y-126770000D02*
X147380000Y-126770000D01*
%TO.N,P56*%
X187470000Y-132014400D02*
X187305600Y-131850000D01*
X187305600Y-131850000D02*
X175320000Y-131850000D01*
%TO.N,Net-(U37-Pad2)*%
X98557600Y-108064900D02*
X121570400Y-108064900D01*
X121570400Y-108064900D02*
X122120800Y-108615300D01*
X97540500Y-66699800D02*
X97815500Y-66974800D01*
X97815500Y-66974800D02*
X105435200Y-66974800D01*
X105435200Y-66974800D02*
X106490000Y-65920000D01*
%TO.N,P24*%
X130635000Y-117884700D02*
X138713100Y-117884700D01*
X138713100Y-117884700D02*
X139506800Y-118678500D01*
X139506800Y-118678500D02*
X139506800Y-123436300D01*
X139506800Y-123436300D02*
X140300600Y-124230000D01*
X140300600Y-124230000D02*
X144840000Y-124230000D01*
%TO.N,P29*%
X101709200Y-126675400D02*
X100739100Y-127645500D01*
X100739100Y-127645500D02*
X99110100Y-127645500D01*
X99110100Y-127645500D02*
X95935100Y-130820500D01*
X95935100Y-130820500D02*
X95935100Y-132281200D01*
X95935100Y-132281200D02*
X96728800Y-133075000D01*
X96728800Y-133075000D02*
X99139500Y-133075000D01*
X99139500Y-133075000D02*
X102430500Y-129783900D01*
X102430500Y-129783900D02*
X106841900Y-129783900D01*
X106841900Y-129783900D02*
X108352200Y-128273700D01*
X108352200Y-128273700D02*
X116162400Y-128273700D01*
X116162400Y-128273700D02*
X116437400Y-128548700D01*
X116437400Y-128548700D02*
X120179700Y-128548700D01*
X120179700Y-128548700D02*
X120454700Y-128273700D01*
X120454700Y-128273700D02*
X146343700Y-128273700D01*
X146343700Y-128273700D02*
X147380000Y-129310000D01*
X101274600Y-63380000D02*
X98870000Y-63380000D01*
%TO.N,Net-(U43-Pad4)*%
X127825100Y-117882200D02*
X128875100Y-118932200D01*
X128875100Y-118932200D02*
X128875100Y-126236100D01*
X128875100Y-126236100D02*
X130462600Y-127823600D01*
X130462600Y-127823600D02*
X188412500Y-127823600D01*
X188412500Y-127823600D02*
X190000000Y-126236100D01*
X190000000Y-126236100D02*
X190000000Y-122752100D01*
%TO.N,Net-(U42-Pad1)*%
X126730100Y-118977700D02*
X126730100Y-117825300D01*
X124867800Y-120840000D02*
X126730100Y-118977700D01*
X111593800Y-118977700D02*
X113456100Y-120840000D01*
X111593800Y-114497500D02*
X111593800Y-118977700D01*
X110006300Y-112910000D02*
X111593800Y-114497500D01*
X113456100Y-120840000D02*
X124867800Y-120840000D01*
X103871000Y-115684900D02*
X106645900Y-112910000D01*
X106645900Y-112910000D02*
X110006300Y-112910000D01*
X99520000Y-115684900D02*
X103871000Y-115684900D01*
%TD*%
M02*
