M48
; DRILL file {KiCad (5.1.12)-1} date 10/26/22 16:15:53
; FORMAT={-:-/ absolute / metric / decimal}
; #@! TF.CreationDate,2022-10-26T16:15:53+02:00
; #@! TF.GenerationSoftware,Kicad,Pcbnew,(5.1.12)-1
; #@! TF.FileFunction,Plated,1,4,PTH
FMAT,2
METRIC
T1C0.400
T2C0.800
%
G90
G05
T1
X84.05Y-140.88
X87.185Y-107.585
X87.46Y-134.29
X87.477Y-52.485
X87.49Y-43.73
X87.49Y-46.16
X87.872Y-95.64
X87.91Y-112.43
X88.703Y-80.125
X89.522Y-109.09
X89.73Y-57.86
X89.73Y-63.38
X90.633Y-101.47
X90.633Y-111.46
X90.633Y-122.345
X90.905Y-60.84
X91.265Y-126.58
X91.63Y-66.025
X91.79Y-129.221
X91.8Y-132.8
X92.59Y-59.56
X93.59Y-126.58
X94.44Y-130.19
X95.915Y-97.015
X95.915Y-105.439
X96.0Y-134.84
X96.067Y-126.648
X96.09Y-53.125
X96.09Y-70.99
X96.09Y-90.64
X96.225Y-44.565
X96.815Y-88.192
X96.815Y-89.845
X96.92Y-118.435
X96.98Y-132.099
X97.54Y-66.7
X97.54Y-69.965
X97.832Y-95.64
X97.951Y-64.885
X98.558Y-108.065
X98.558Y-109.44
X98.558Y-122.082
X98.694Y-55.025
X99.283Y-88.192
X99.283Y-97.18
X99.52Y-115.685
X100.15Y-41.671
X100.283Y-100.26
X100.345Y-82.665
X100.549Y-104.26
X101.201Y-137.4
X101.275Y-63.38
X101.626Y-50.505
X101.709Y-126.675
X101.855Y-53.125
X102.0Y-68.46
X102.0Y-92.894
X102.0Y-119.25
X102.05Y-131.6
X102.436Y-123.808
X102.733Y-40.946
X102.962Y-139.238
X103.3Y-112.85
X103.31Y-100.26
X103.31Y-106.165
X103.45Y-69.185
X103.45Y-78.62
X103.725Y-98.945
X104.511Y-106.89
X104.537Y-76.08
X104.537Y-90.57
X104.574Y-121.8
X104.581Y-48.045
X104.75Y-59.64
X105.25Y-56.95
X105.299Y-88.47
X105.75Y-43.6
X106.285Y-50.3
X106.474Y-137.4
X106.49Y-106.165
X106.64Y-48.02
X107.05Y-49.3
X107.215Y-88.055
X107.222Y-139.88
X107.279Y-54.395
X107.461Y-100.69
X107.49Y-106.89
X108.712Y-58.64
X109.77Y-57.915
X110.005Y-46.397
X110.32Y-101.47
X111.045Y-99.965
X111.455Y-40.946
X111.455Y-47.829
X111.67Y-69.24
X111.67Y-79.435
X111.67Y-80.435
X111.67Y-106.89
X111.67Y-133.475
X112.034Y-104.02
X112.305Y-42.875
X112.305Y-49.645
X112.759Y-84.012
X112.759Y-86.696
X112.759Y-128.999
X113.543Y-47.92
X113.543Y-87.745
X113.543Y-116.71
X113.571Y-69.24
X113.656Y-58.64
X114.268Y-109.09
X114.268Y-129.724
X114.752Y-48.673
X114.996Y-87.02
X115.168Y-131.96
X115.318Y-81.16
X117.475Y-126.445
X117.475Y-130.525
X117.475Y-131.525
X117.775Y-115.195
X118.05Y-52.64
X118.475Y-125.175
X118.5Y-60.83
X118.675Y-80.85
X118.775Y-53.366
X118.846Y-130.255
X119.2Y-127.715
X119.4Y-79.143
X119.4Y-84.89
X119.52Y-111.63
X119.841Y-140.88
X119.846Y-132.795
X119.98Y-113.83
X120.225Y-56.855
X120.294Y-54.965
X120.576Y-62.105
X120.673Y-123.905
X121.01Y-73.49
X121.126Y-80.765
X121.265Y-86.885
X121.265Y-96.269
X121.301Y-66.505
X121.42Y-67.775
X121.42Y-89.425
X121.75Y-100.95
X121.75Y-104.1
X121.8Y-111.75
X121.8Y-114.9
X121.9Y-48.0
X122.025Y-54.965
X122.121Y-108.615
X122.995Y-80.039
X123.016Y-112.079
X123.116Y-44.565
X123.382Y-121.58
X123.575Y-42.605
X123.701Y-59.774
X123.75Y-136.7
X124.295Y-76.4
X124.46Y-112.09
X124.46Y-117.5
X124.475Y-55.104
X124.48Y-45.71
X124.57Y-63.803
X124.57Y-65.235
X124.57Y-69.045
X124.57Y-88.155
X124.57Y-90.695
X124.65Y-101.5
X124.75Y-93.2
X124.845Y-72.997
X124.853Y-49.645
X124.95Y-134.05
X125.0Y-75.4
X125.025Y-80.039
X125.105Y-66.469
X125.285Y-103.689
X125.295Y-89.155
X125.73Y-113.589
X125.73Y-118.225
X126.033Y-61.587
X126.033Y-77.525
X126.033Y-80.765
X126.181Y-131.303
X126.73Y-117.825
X127.5Y-81.479
X127.582Y-59.056
X127.625Y-107.053
X127.825Y-117.882
X128.15Y-120.0
X128.2Y-61.45
X128.325Y-80.76
X128.35Y-79.25
X128.39Y-131.303
X128.483Y-63.078
X128.675Y-76.4
X128.95Y-68.039
X129.112Y-134.065
X129.225Y-69.22
X129.555Y-46.398
X129.555Y-51.78
X129.595Y-103.689
X129.6Y-125.222
X129.62Y-117.519
X130.4Y-122.65
X130.5Y-63.98
X130.55Y-81.8
X130.562Y-130.255
X130.575Y-74.125
X130.575Y-84.156
X130.575Y-88.357
X130.575Y-90.695
X130.635Y-117.885
X130.8Y-134.065
X130.81Y-111.791
X130.825Y-45.48
X130.825Y-51.78
X130.87Y-71.585
X131.517Y-112.6
X131.64Y-62.655
X131.88Y-100.991
X132.055Y-97.082
X132.055Y-107.053
X132.095Y-51.78
X132.1Y-113.6
X133.3Y-102.85
X133.653Y-56.074
X133.825Y-108.972
X133.825Y-121.521
X133.95Y-126.445
X134.02Y-86.885
X134.02Y-89.082
X134.025Y-106.45
X134.172Y-74.67
X134.31Y-50.78
X134.394Y-130.302
X134.635Y-45.745
X134.745Y-91.24
X134.785Y-125.175
X134.897Y-71.547
X135.031Y-85.481
X135.2Y-94.21
X135.2Y-115.984
X135.51Y-122.495
X135.9Y-51.35
X135.9Y-125.95
X135.925Y-114.07
X135.925Y-118.61
X135.931Y-74.364
X135.95Y-101.195
X135.95Y-109.301
X136.123Y-69.22
X136.661Y-60.213
X136.848Y-75.903
X137.571Y-129.139
X137.751Y-79.765
X137.848Y-76.611
X137.851Y-85.249
X138.04Y-120.06
X138.04Y-121.104
X138.04Y-122.495
X138.524Y-111.468
X138.573Y-75.178
X138.657Y-87.648
X138.927Y-63.929
X138.929Y-51.53
X138.95Y-70.05
X138.96Y-73.28
X139.392Y-77.981
X139.725Y-80.49
X139.725Y-84.524
X140.05Y-87.15
X140.21Y-66.469
X140.45Y-82.745
X140.45Y-85.474
X140.935Y-69.62
X140.94Y-126.77
X141.117Y-75.639
X141.291Y-122.469
X141.41Y-62.114
X141.701Y-85.249
X142.04Y-117.11
X142.075Y-73.31
X142.135Y-52.704
X142.358Y-103.342
X142.426Y-87.771
X142.555Y-88.771
X142.85Y-98.9
X143.135Y-126.045
X143.327Y-130.364
X143.586Y-45.775
X143.586Y-58.0
X144.205Y-89.28
X144.244Y-103.413
X144.244Y-105.689
X145.036Y-53.514
X145.111Y-42.8
X145.245Y-46.745
X145.245Y-50.555
X145.282Y-104.139
X146.05Y-98.9
X146.079Y-90.005
X146.09Y-92.76
X146.593Y-42.215
X147.316Y-89.861
X147.6Y-40.35
X147.971Y-44.02
X148.096Y-48.47
X148.45Y-53.1
X149.175Y-54.154
X149.916Y-97.082
X149.916Y-98.825
X150.1Y-44.2
X150.2Y-46.5
X150.231Y-126.045
X150.327Y-78.39
X150.327Y-84.699
X150.669Y-50.555
X150.927Y-54.154
X150.927Y-58.0
X151.19Y-121.69
X151.2Y-75.859
X151.416Y-81.709
X151.691Y-91.03
X151.691Y-110.733
X151.691Y-118.425
X151.777Y-90.029
X152.4Y-60.35
X152.46Y-139.691
X152.47Y-73.088
X152.47Y-96.365
X152.592Y-111.666
X152.592Y-113.345
X152.996Y-42.215
X153.195Y-68.955
X153.195Y-79.169
X153.221Y-89.877
X153.395Y-49.285
X153.496Y-129.638
X153.594Y-48.015
X153.795Y-40.859
X153.795Y-46.745
X154.221Y-119.15
X154.221Y-124.23
X154.221Y-130.639
X154.247Y-56.329
X154.52Y-40.134
X154.52Y-41.6
X154.847Y-138.691
X154.946Y-112.345
X155.0Y-121.468
X155.01Y-98.825
X155.084Y-68.008
X155.084Y-77.629
X155.771Y-84.699
X156.205Y-49.504
X156.496Y-81.709
X156.815Y-112.345
X156.86Y-138.827
X156.92Y-50.504
X156.92Y-53.429
X156.946Y-113.345
X157.1Y-48.7
X157.311Y-104.776
X157.55Y-72.999
X157.55Y-96.332
X157.772Y-144.146
X157.938Y-60.412
X158.396Y-54.879
X158.55Y-48.519
X158.586Y-70.779
X158.591Y-46.925
X159.036Y-121.468
X159.054Y-62.114
X159.235Y-141.331
X159.6Y-46.4
X159.625Y-60.663
X160.439Y-110.408
X160.439Y-125.32
X160.635Y-99.55
X160.697Y-140.314
X160.895Y-57.054
X161.861Y-141.039
X162.477Y-70.779
X162.71Y-139.552
X162.71Y-143.421
X163.391Y-78.39
X163.391Y-80.983
X163.409Y-60.663
X163.435Y-49.244
X163.666Y-123.541
X163.71Y-143.421
X163.757Y-57.054
X164.381Y-131.348
X164.705Y-52.254
X164.705Y-60.002
X165.17Y-80.983
X165.2Y-102.74
X165.399Y-68.008
X165.479Y-116.61
X165.479Y-119.929
X165.481Y-72.999
X165.481Y-90.025
X165.481Y-92.38
X165.842Y-111.858
X165.842Y-115.259
X165.975Y-46.955
X165.975Y-50.695
X166.646Y-109.917
X166.646Y-129.305
X166.683Y-55.6
X167.7Y-103.688
X167.7Y-115.124
X167.71Y-99.55
X168.515Y-61.839
X168.746Y-117.61
X169.471Y-88.655
X169.471Y-113.716
X169.785Y-126.77
X169.785Y-46.12
X169.785Y-51.529
X170.09Y-125.284
X170.25Y-98.825
X170.287Y-57.054
X170.471Y-111.133
X170.471Y-117.389
X171.022Y-63.929
X171.05Y-51.9
X171.055Y-46.12
X171.06Y-131.362
X171.561Y-75.629
X172.001Y-98.29
X172.001Y-104.689
X172.286Y-71.099
X173.213Y-57.054
X173.4Y-60.983
X173.408Y-103.238
X173.408Y-104.689
X174.422Y-101.257
X174.54Y-81.18
X174.551Y-70.059
X174.815Y-102.513
X174.815Y-106.954
X175.276Y-63.929
X175.276Y-68.558
X175.449Y-61.389
X175.45Y-89.3
X175.47Y-85.891
X175.478Y-99.55
X175.716Y-107.679
X176.128Y-75.629
X176.128Y-78.399
X176.441Y-101.69
X176.815Y-81.97
X177.707Y-93.655
X178.05Y-68.0
X178.305Y-65.69
X178.432Y-82.843
X178.432Y-116.61
X178.58Y-52.035
X178.874Y-122.938
X179.13Y-134.39
X179.13Y-140.749
X179.157Y-112.04
X179.305Y-42.782
X179.432Y-116.565
X179.641Y-87.325
X179.707Y-106.228
X180.03Y-43.965
X180.05Y-129.31
X180.13Y-134.415
X180.3Y-112.14
X180.35Y-124.69
X180.378Y-49.045
X180.432Y-107.954
X180.493Y-66.019
X180.707Y-96.332
X181.45Y-58.14
X181.45Y-68.0
X181.782Y-82.99
X181.782Y-85.436
X181.999Y-39.33
X181.999Y-42.965
X182.2Y-116.99
X182.25Y-108.04
X182.274Y-41.6
X182.3Y-120.04
X182.507Y-88.05
X182.507Y-93.474
X182.9Y-55.6
X183.232Y-82.99
X183.44Y-121.214
X183.446Y-104.689
X183.625Y-68.083
X183.92Y-74.089
X184.165Y-118.425
X184.645Y-71.099
X184.7Y-66.019
X184.7Y-69.816
X184.9Y-105.24
X184.9Y-117.44
X184.92Y-119.425
X184.93Y-136.727
X184.95Y-130.19
X185.475Y-73.31
X185.545Y-114.309
X186.19Y-106.654
X186.19Y-119.759
X186.2Y-46.505
X186.2Y-81.97
X186.36Y-110.494
X186.37Y-117.663
X186.415Y-113.034
X186.65Y-38.46
X186.925Y-76.69
X186.925Y-94.199
X187.46Y-119.015
X187.47Y-132.014
X188.009Y-73.042
X188.095Y-126.865
X188.19Y-96.21
X188.25Y-84.073
X188.25Y-94.7
X188.73Y-112.414
X188.74Y-141.045
X188.75Y-117.54
X189.25Y-75.665
X189.4Y-68.0
X189.465Y-139.611
X189.662Y-114.309
X190.0Y-122.752
X190.339Y-72.535
X191.045Y-94.22
X191.064Y-69.816
X191.179Y-90.162
X191.27Y-110.474
X191.28Y-131.289
X191.3Y-105.14
X192.27Y-110.412
X192.54Y-94.945
X192.55Y-106.69
X192.55Y-118.99
X192.55Y-131.59
X192.7Y-68.0
X192.84Y-76.1
X192.84Y-86.6
X194.15Y-68.808
X194.45Y-81.97
X194.45Y-138.161
X195.175Y-86.26
X195.175Y-135.66
X196.175Y-66.469
X196.353Y-136.727
X196.5Y-97.75
X197.176Y-77.165
X197.731Y-100.475
X197.988Y-102.74
X200.255Y-65.02
X200.75Y-68.0
X201.85Y-106.58
X202.855Y-109.11
X202.924Y-81.82
X203.3Y-105.555
X204.0Y-68.0
X205.015Y-104.634
X205.919Y-97.395
X205.938Y-80.344
X206.25Y-130.75
X207.4Y-98.85
X208.5Y-102.2
X208.5Y-130.8
X208.6Y-42.66
X208.6Y-67.194
X210.5Y-81.8
X211.675Y-71.085
X211.9Y-68.0
X212.971Y-87.775
X213.971Y-92.58
X214.85Y-68.0
X215.3Y-44.415
X219.995Y-38.46
T2
X86.16Y-60.84
X86.16Y-63.38
X86.16Y-65.92
X86.16Y-68.46
X86.16Y-71.0
X86.16Y-73.54
X86.16Y-76.08
X86.16Y-78.62
X86.16Y-81.16
X86.16Y-83.7
X86.16Y-86.24
X86.16Y-88.78
X86.16Y-91.32
X86.16Y-93.86
X86.16Y-96.4
X86.16Y-98.94
X86.16Y-101.48
X86.16Y-104.02
X86.16Y-106.56
X86.16Y-109.1
X86.16Y-111.64
X86.16Y-114.18
X86.16Y-116.72
X86.16Y-119.26
X86.16Y-121.8
X86.16Y-124.34
X86.16Y-126.88
X86.16Y-129.42
X86.16Y-131.96
X86.16Y-134.5
X86.16Y-137.04
X86.16Y-139.58
X93.89Y-40.51
X93.89Y-43.05
X93.89Y-45.59
X93.89Y-48.13
X93.89Y-50.67
X93.89Y-53.21
X93.89Y-55.75
X93.89Y-58.29
X93.89Y-60.83
X93.89Y-63.37
X93.89Y-65.91
X93.89Y-68.45
X93.89Y-70.99
X93.89Y-73.53
X93.89Y-76.07
X93.89Y-78.61
X93.89Y-81.15
X93.89Y-83.69
X93.89Y-86.23
X93.89Y-88.77
X93.89Y-91.31
X93.89Y-93.85
X93.89Y-96.39
X93.89Y-98.93
X93.89Y-101.47
X93.89Y-104.01
X93.89Y-106.55
X93.89Y-109.09
X93.89Y-111.63
X93.89Y-114.17
X93.89Y-116.71
X93.89Y-119.25
X98.87Y-63.38
X98.87Y-65.92
X98.87Y-68.46
X98.87Y-71.0
X98.87Y-73.54
X98.87Y-76.08
X98.87Y-78.62
X98.87Y-81.16
X98.87Y-83.7
X98.87Y-86.24
X106.49Y-63.38
X106.49Y-65.92
X106.49Y-68.46
X106.49Y-71.0
X106.49Y-73.54
X106.49Y-76.08
X106.49Y-78.62
X106.49Y-81.16
X106.49Y-83.7
X106.49Y-86.24
X109.02Y-60.84
X109.02Y-63.38
X109.02Y-65.92
X109.02Y-68.46
X109.02Y-71.0
X109.02Y-73.54
X109.02Y-76.08
X109.02Y-78.62
X109.02Y-81.16
X109.02Y-83.7
X109.02Y-86.24
X109.02Y-88.78
X109.02Y-91.32
X109.02Y-93.86
X109.02Y-96.4
X109.02Y-98.94
X109.02Y-101.48
X109.02Y-104.02
X109.02Y-106.56
X109.02Y-109.1
X109.02Y-111.64
X109.02Y-114.18
X109.02Y-116.72
X109.02Y-119.26
X109.02Y-121.8
X109.02Y-124.34
X109.02Y-126.88
X109.02Y-129.42
X109.02Y-131.96
X109.02Y-134.5
X109.02Y-137.04
X109.02Y-139.58
X116.75Y-40.51
X116.75Y-43.05
X116.75Y-45.59
X116.75Y-48.13
X116.75Y-50.67
X116.75Y-53.21
X116.75Y-55.75
X116.75Y-58.29
X116.75Y-60.83
X116.75Y-63.37
X116.75Y-65.91
X116.75Y-68.45
X116.75Y-70.99
X116.75Y-73.53
X116.75Y-76.07
X116.75Y-78.61
X116.75Y-81.15
X116.75Y-83.69
X116.75Y-86.23
X116.75Y-88.77
X116.75Y-91.31
X116.75Y-93.85
X116.75Y-96.39
X116.75Y-98.93
X116.75Y-101.47
X116.75Y-104.01
X116.75Y-106.55
X116.75Y-109.09
X116.75Y-111.63
X116.75Y-114.17
X116.75Y-116.71
X116.75Y-119.25
X144.84Y-108.99
X144.84Y-111.53
X144.84Y-114.07
X144.84Y-116.61
X144.84Y-119.15
X144.84Y-121.69
X144.84Y-124.23
X144.84Y-126.77
X144.84Y-129.31
X144.84Y-131.85
X144.84Y-134.39
X144.85Y-65.69
X144.85Y-68.23
X144.85Y-70.77
X144.85Y-73.31
X144.85Y-75.85
X144.85Y-78.39
X144.85Y-80.93
X144.85Y-83.47
X144.85Y-86.01
X147.38Y-106.45
X147.38Y-108.99
X147.38Y-111.53
X147.38Y-114.07
X147.38Y-116.61
X147.38Y-119.15
X147.38Y-121.69
X147.38Y-124.23
X147.38Y-126.77
X147.38Y-129.31
X147.38Y-131.85
X147.38Y-134.39
X147.38Y-136.93
X147.39Y-63.15
X147.39Y-65.69
X147.39Y-68.23
X147.39Y-70.77
X147.39Y-73.31
X147.39Y-75.85
X147.39Y-78.39
X147.39Y-80.93
X147.39Y-83.47
X147.39Y-86.01
X147.39Y-88.55
X149.92Y-106.45
X149.92Y-108.99
X149.92Y-134.39
X149.92Y-136.93
X149.93Y-63.15
X149.93Y-65.69
X149.93Y-86.01
X149.93Y-88.55
X149.93Y-93.68
X149.93Y-101.3
X152.46Y-106.45
X152.46Y-108.99
X152.46Y-134.39
X152.46Y-136.93
X152.47Y-63.15
X152.47Y-65.69
X152.47Y-86.01
X152.47Y-88.55
X152.47Y-93.68
X152.47Y-101.3
X155.0Y-106.45
X155.0Y-108.99
X155.0Y-134.39
X155.0Y-136.93
X155.01Y-63.15
X155.01Y-65.69
X155.01Y-86.01
X155.01Y-88.55
X155.01Y-93.68
X155.01Y-101.3
X157.54Y-106.45
X157.54Y-108.99
X157.54Y-134.39
X157.54Y-136.93
X157.55Y-63.15
X157.55Y-65.69
X157.55Y-86.01
X157.55Y-88.55
X157.55Y-93.68
X157.55Y-101.3
X160.08Y-106.45
X160.08Y-108.99
X160.08Y-134.39
X160.08Y-136.93
X160.09Y-63.15
X160.09Y-65.69
X160.09Y-86.01
X160.09Y-88.55
X160.09Y-93.68
X160.09Y-101.3
X162.62Y-106.45
X162.62Y-108.99
X162.62Y-134.39
X162.62Y-136.93
X162.63Y-63.15
X162.63Y-65.69
X162.63Y-86.01
X162.63Y-88.55
X162.63Y-93.68
X162.63Y-101.3
X165.16Y-106.45
X165.16Y-108.99
X165.16Y-134.39
X165.16Y-136.93
X165.17Y-63.15
X165.17Y-65.69
X165.17Y-86.01
X165.17Y-88.55
X165.17Y-93.68
X165.17Y-101.3
X167.7Y-106.45
X167.7Y-108.99
X167.7Y-134.39
X167.7Y-136.93
X167.71Y-63.15
X167.71Y-65.69
X167.71Y-68.23
X167.71Y-70.77
X167.71Y-73.31
X167.71Y-75.85
X167.71Y-78.39
X167.71Y-80.93
X167.71Y-83.47
X167.71Y-86.01
X167.71Y-88.55
X167.71Y-93.68
X167.71Y-101.3
X170.24Y-106.45
X170.24Y-108.99
X170.24Y-134.39
X170.24Y-136.93
X170.25Y-65.69
X170.25Y-68.23
X170.25Y-70.77
X170.25Y-73.31
X170.25Y-75.85
X170.25Y-78.39
X170.25Y-80.93
X170.25Y-83.47
X170.25Y-86.01
X170.25Y-93.68
X170.25Y-101.3
X172.78Y-106.45
X172.78Y-108.99
X172.78Y-111.53
X172.78Y-114.07
X172.78Y-116.61
X172.78Y-119.15
X172.78Y-121.69
X172.78Y-124.23
X172.78Y-126.77
X172.78Y-129.31
X172.78Y-131.85
X172.78Y-134.39
X172.78Y-136.93
X172.79Y-93.68
X172.79Y-101.3
X175.32Y-108.99
X175.32Y-111.53
X175.32Y-114.07
X175.32Y-116.61
X175.32Y-119.15
X175.32Y-121.69
X175.32Y-124.23
X175.32Y-126.77
X175.32Y-129.31
X175.32Y-131.85
X175.32Y-134.39
X176.83Y-40.36
X176.83Y-42.9
X176.83Y-45.44
X176.83Y-47.98
X176.83Y-50.52
X176.83Y-53.06
X176.83Y-55.6
X176.83Y-58.14
X176.83Y-60.68
X176.83Y-63.22
X183.92Y-76.69
X183.92Y-91.93
X184.45Y-40.36
X184.45Y-42.9
X184.45Y-45.44
X184.45Y-47.98
X184.45Y-50.52
X184.45Y-53.06
X184.45Y-55.6
X184.45Y-58.14
X184.45Y-60.68
X184.45Y-63.22
X188.06Y-40.36
X188.06Y-42.9
X188.06Y-45.44
X188.06Y-47.98
X188.06Y-50.52
X188.06Y-53.06
X188.06Y-55.6
X188.06Y-58.14
X188.06Y-60.68
X188.06Y-63.22
X191.54Y-76.69
X191.54Y-91.93
X195.68Y-40.36
X195.68Y-42.9
X195.68Y-45.44
X195.68Y-47.98
X195.68Y-50.52
X195.68Y-53.06
X195.68Y-55.6
X195.68Y-58.14
X195.68Y-60.68
X195.68Y-63.22
X199.23Y-40.36
X199.23Y-42.9
X199.23Y-45.44
X199.23Y-47.98
X199.23Y-50.52
X199.23Y-53.06
X199.23Y-55.6
X199.23Y-58.14
X199.23Y-60.68
X199.23Y-63.22
X199.65Y-73.56
X199.65Y-76.1
X199.65Y-78.64
X199.65Y-81.18
X199.65Y-83.72
X199.65Y-86.26
X199.65Y-88.8
X199.65Y-91.34
X199.65Y-93.88
X199.65Y-96.42
X199.65Y-98.96
X199.65Y-101.5
X199.65Y-104.04
X199.65Y-106.58
X199.65Y-109.12
X199.65Y-111.66
X199.65Y-114.2
X199.65Y-116.74
X199.65Y-119.28
X199.65Y-121.82
X206.85Y-40.36
X206.85Y-42.9
X206.85Y-45.44
X206.85Y-47.98
X206.85Y-50.52
X206.85Y-53.06
X206.85Y-55.6
X206.85Y-58.14
X206.85Y-60.68
X206.85Y-63.22
X210.45Y-40.36
X210.45Y-42.9
X210.45Y-45.44
X210.45Y-47.98
X210.45Y-50.52
X210.45Y-53.06
X210.45Y-55.6
X210.45Y-58.14
X210.45Y-60.68
X210.45Y-63.22
X214.89Y-73.56
X214.89Y-76.1
X214.89Y-78.64
X214.89Y-81.18
X214.89Y-83.72
X214.89Y-86.26
X214.89Y-88.8
X214.89Y-91.34
X214.89Y-93.88
X214.89Y-96.42
X214.89Y-98.96
X214.89Y-101.5
X214.89Y-104.04
X214.89Y-106.58
X214.89Y-109.12
X214.89Y-111.66
X214.89Y-114.2
X214.89Y-116.74
X214.89Y-119.28
X214.89Y-121.82
X218.07Y-40.36
X218.07Y-42.9
X218.07Y-45.44
X218.07Y-47.98
X218.07Y-50.52
X218.07Y-53.06
X218.07Y-55.6
X218.07Y-58.14
X218.07Y-60.68
X218.07Y-63.22
T0
M30
