%TF.GenerationSoftware,KiCad,Pcbnew,(5.1.12)-1*%
%TF.CreationDate,2022-10-26T16:15:57+02:00*%
%TF.ProjectId,dueottosei,6475656f-7474-46f7-9365-692e6b696361,rev?*%
%TF.SameCoordinates,Original*%
%TF.FileFunction,Legend,Top*%
%TF.FilePolarity,Positive*%
%FSLAX46Y46*%
G04 Gerber Fmt 4.6, Leading zero omitted, Abs format (unit mm)*
G04 Created by KiCad (PCBNEW (5.1.12)-1) date 2022-10-26 16:15:57*
%MOMM*%
%LPD*%
G01*
G04 APERTURE LIST*
%ADD10C,0.600000*%
%ADD11C,0.100000*%
%ADD12C,0.300000*%
%ADD13C,0.150000*%
%ADD14C,0.120000*%
%ADD15C,0.200000*%
%ADD16C,0.254000*%
G04 APERTURE END LIST*
D10*
X89670000Y-71397142D02*
X89670000Y-72825714D01*
X88812857Y-71111428D02*
X91812857Y-72111428D01*
X88812857Y-73111428D01*
X88812857Y-74111428D02*
X90812857Y-74111428D01*
X90527142Y-74111428D02*
X90670000Y-74254285D01*
X90812857Y-74540000D01*
X90812857Y-74968571D01*
X90670000Y-75254285D01*
X90384285Y-75397142D01*
X88812857Y-75397142D01*
X90384285Y-75397142D02*
X90670000Y-75540000D01*
X90812857Y-75825714D01*
X90812857Y-76254285D01*
X90670000Y-76540000D01*
X90384285Y-76682857D01*
X88812857Y-76682857D01*
X88812857Y-78111428D02*
X90812857Y-78111428D01*
X91812857Y-78111428D02*
X91670000Y-77968571D01*
X91527142Y-78111428D01*
X91670000Y-78254285D01*
X91812857Y-78111428D01*
X91527142Y-78111428D01*
X90812857Y-80825714D02*
X88384285Y-80825714D01*
X88098571Y-80682857D01*
X87955714Y-80540000D01*
X87812857Y-80254285D01*
X87812857Y-79825714D01*
X87955714Y-79540000D01*
X88955714Y-80825714D02*
X88812857Y-80540000D01*
X88812857Y-79968571D01*
X88955714Y-79682857D01*
X89098571Y-79540000D01*
X89384285Y-79397142D01*
X90241428Y-79397142D01*
X90527142Y-79540000D01*
X90670000Y-79682857D01*
X90812857Y-79968571D01*
X90812857Y-80540000D01*
X90670000Y-80825714D01*
X88812857Y-83540000D02*
X90384285Y-83540000D01*
X90670000Y-83397142D01*
X90812857Y-83111428D01*
X90812857Y-82540000D01*
X90670000Y-82254285D01*
X88955714Y-83540000D02*
X88812857Y-83254285D01*
X88812857Y-82540000D01*
X88955714Y-82254285D01*
X89241428Y-82111428D01*
X89527142Y-82111428D01*
X89812857Y-82254285D01*
X89955714Y-82540000D01*
X89955714Y-83254285D01*
X90098571Y-83540000D01*
X196607142Y-76750000D02*
X196750000Y-76464285D01*
X196892857Y-76321428D01*
X197178571Y-76178571D01*
X197321428Y-76178571D01*
X197607142Y-76321428D01*
X197750000Y-76464285D01*
X197892857Y-76750000D01*
X197892857Y-77321428D01*
X197750000Y-77607142D01*
X197607142Y-77750000D01*
X197321428Y-77892857D01*
X197178571Y-77892857D01*
X196892857Y-77750000D01*
X196750000Y-77607142D01*
X196607142Y-77321428D01*
X196607142Y-76750000D01*
X196464285Y-76464285D01*
X196321428Y-76321428D01*
X196035714Y-76178571D01*
X195464285Y-76178571D01*
X195178571Y-76321428D01*
X195035714Y-76464285D01*
X194892857Y-76750000D01*
X194892857Y-77321428D01*
X195035714Y-77607142D01*
X195178571Y-77750000D01*
X195464285Y-77892857D01*
X196035714Y-77892857D01*
X196321428Y-77750000D01*
X196464285Y-77607142D01*
X196607142Y-77321428D01*
X197892857Y-79750000D02*
X197892857Y-80035714D01*
X197750000Y-80321428D01*
X197607142Y-80464285D01*
X197321428Y-80607142D01*
X196750000Y-80750000D01*
X196035714Y-80750000D01*
X195464285Y-80607142D01*
X195178571Y-80464285D01*
X195035714Y-80321428D01*
X194892857Y-80035714D01*
X194892857Y-79750000D01*
X195035714Y-79464285D01*
X195178571Y-79321428D01*
X195464285Y-79178571D01*
X196035714Y-79035714D01*
X196750000Y-79035714D01*
X197321428Y-79178571D01*
X197607142Y-79321428D01*
X197750000Y-79464285D01*
X197892857Y-79750000D01*
X195178571Y-83750000D02*
X195035714Y-83607142D01*
X194892857Y-83178571D01*
X194892857Y-82892857D01*
X195035714Y-82464285D01*
X195321428Y-82178571D01*
X195607142Y-82035714D01*
X196178571Y-81892857D01*
X196607142Y-81892857D01*
X197178571Y-82035714D01*
X197464285Y-82178571D01*
X197750000Y-82464285D01*
X197892857Y-82892857D01*
X197892857Y-83178571D01*
X197750000Y-83607142D01*
X197607142Y-83750000D01*
X197607142Y-84892857D02*
X197750000Y-85035714D01*
X197892857Y-85321428D01*
X197892857Y-86035714D01*
X197750000Y-86321428D01*
X197607142Y-86464285D01*
X197321428Y-86607142D01*
X197035714Y-86607142D01*
X196607142Y-86464285D01*
X194892857Y-84750000D01*
X194892857Y-86607142D01*
X196607142Y-88321428D02*
X196750000Y-88035714D01*
X196892857Y-87892857D01*
X197178571Y-87750000D01*
X197321428Y-87750000D01*
X197607142Y-87892857D01*
X197750000Y-88035714D01*
X197892857Y-88321428D01*
X197892857Y-88892857D01*
X197750000Y-89178571D01*
X197607142Y-89321428D01*
X197321428Y-89464285D01*
X197178571Y-89464285D01*
X196892857Y-89321428D01*
X196750000Y-89178571D01*
X196607142Y-88892857D01*
X196607142Y-88321428D01*
X196464285Y-88035714D01*
X196321428Y-87892857D01*
X196035714Y-87750000D01*
X195464285Y-87750000D01*
X195178571Y-87892857D01*
X195035714Y-88035714D01*
X194892857Y-88321428D01*
X194892857Y-88892857D01*
X195035714Y-89178571D01*
X195178571Y-89321428D01*
X195464285Y-89464285D01*
X196035714Y-89464285D01*
X196321428Y-89321428D01*
X196464285Y-89178571D01*
X196607142Y-88892857D01*
X197892857Y-90464285D02*
X197892857Y-92464285D01*
X194892857Y-91178571D01*
D11*
X187662857Y-143152380D02*
X187662857Y-142485714D01*
X187662857Y-142676190D02*
X187710476Y-142580952D01*
X187758095Y-142533333D01*
X187853333Y-142485714D01*
X187948571Y-142485714D01*
X188662857Y-143104761D02*
X188567619Y-143152380D01*
X188377142Y-143152380D01*
X188281904Y-143104761D01*
X188234285Y-143009523D01*
X188234285Y-142628571D01*
X188281904Y-142533333D01*
X188377142Y-142485714D01*
X188567619Y-142485714D01*
X188662857Y-142533333D01*
X188710476Y-142628571D01*
X188710476Y-142723809D01*
X188234285Y-142819047D01*
X189043809Y-142485714D02*
X189281904Y-143152380D01*
X189520000Y-142485714D01*
X190281904Y-143104761D02*
X190186666Y-143152380D01*
X189996190Y-143152380D01*
X189900952Y-143104761D01*
X189853333Y-143009523D01*
X189853333Y-142628571D01*
X189900952Y-142533333D01*
X189996190Y-142485714D01*
X190186666Y-142485714D01*
X190281904Y-142533333D01*
X190329523Y-142628571D01*
X190329523Y-142723809D01*
X189853333Y-142819047D01*
X190758095Y-143152380D02*
X190758095Y-142485714D01*
X190758095Y-142676190D02*
X190805714Y-142580952D01*
X190853333Y-142533333D01*
X190948571Y-142485714D01*
X191043809Y-142485714D01*
X191329523Y-143104761D02*
X191424761Y-143152380D01*
X191615238Y-143152380D01*
X191710476Y-143104761D01*
X191758095Y-143009523D01*
X191758095Y-142961904D01*
X191710476Y-142866666D01*
X191615238Y-142819047D01*
X191472380Y-142819047D01*
X191377142Y-142771428D01*
X191329523Y-142676190D01*
X191329523Y-142628571D01*
X191377142Y-142533333D01*
X191472380Y-142485714D01*
X191615238Y-142485714D01*
X191710476Y-142533333D01*
X192567619Y-143104761D02*
X192472380Y-143152380D01*
X192281904Y-143152380D01*
X192186666Y-143104761D01*
X192139047Y-143009523D01*
X192139047Y-142628571D01*
X192186666Y-142533333D01*
X192281904Y-142485714D01*
X192472380Y-142485714D01*
X192567619Y-142533333D01*
X192615238Y-142628571D01*
X192615238Y-142723809D01*
X192139047Y-142819047D01*
X194186666Y-143104761D02*
X194091428Y-143152380D01*
X193900952Y-143152380D01*
X193805714Y-143104761D01*
X193758095Y-143009523D01*
X193758095Y-142628571D01*
X193805714Y-142533333D01*
X193900952Y-142485714D01*
X194091428Y-142485714D01*
X194186666Y-142533333D01*
X194234285Y-142628571D01*
X194234285Y-142723809D01*
X193758095Y-142819047D01*
X194662857Y-142485714D02*
X194662857Y-143152380D01*
X194662857Y-142580952D02*
X194710476Y-142533333D01*
X194805714Y-142485714D01*
X194948571Y-142485714D01*
X195043809Y-142533333D01*
X195091428Y-142628571D01*
X195091428Y-143152380D01*
X195996190Y-142485714D02*
X195996190Y-143295238D01*
X195948571Y-143390476D01*
X195900952Y-143438095D01*
X195805714Y-143485714D01*
X195662857Y-143485714D01*
X195567619Y-143438095D01*
X195996190Y-143104761D02*
X195900952Y-143152380D01*
X195710476Y-143152380D01*
X195615238Y-143104761D01*
X195567619Y-143057142D01*
X195520000Y-142961904D01*
X195520000Y-142676190D01*
X195567619Y-142580952D01*
X195615238Y-142533333D01*
X195710476Y-142485714D01*
X195900952Y-142485714D01*
X195996190Y-142533333D01*
X196472380Y-143152380D02*
X196472380Y-142485714D01*
X196472380Y-142152380D02*
X196424761Y-142200000D01*
X196472380Y-142247619D01*
X196520000Y-142200000D01*
X196472380Y-142152380D01*
X196472380Y-142247619D01*
X196948571Y-142485714D02*
X196948571Y-143152380D01*
X196948571Y-142580952D02*
X196996190Y-142533333D01*
X197091428Y-142485714D01*
X197234285Y-142485714D01*
X197329523Y-142533333D01*
X197377142Y-142628571D01*
X197377142Y-143152380D01*
X198234285Y-143104761D02*
X198139047Y-143152380D01*
X197948571Y-143152380D01*
X197853333Y-143104761D01*
X197805714Y-143009523D01*
X197805714Y-142628571D01*
X197853333Y-142533333D01*
X197948571Y-142485714D01*
X198139047Y-142485714D01*
X198234285Y-142533333D01*
X198281904Y-142628571D01*
X198281904Y-142723809D01*
X197805714Y-142819047D01*
X199091428Y-143104761D02*
X198996190Y-143152380D01*
X198805714Y-143152380D01*
X198710476Y-143104761D01*
X198662857Y-143009523D01*
X198662857Y-142628571D01*
X198710476Y-142533333D01*
X198805714Y-142485714D01*
X198996190Y-142485714D01*
X199091428Y-142533333D01*
X199139047Y-142628571D01*
X199139047Y-142723809D01*
X198662857Y-142819047D01*
X199567619Y-143152380D02*
X199567619Y-142485714D01*
X199567619Y-142676190D02*
X199615238Y-142580952D01*
X199662857Y-142533333D01*
X199758095Y-142485714D01*
X199853333Y-142485714D01*
X200186666Y-143152380D02*
X200186666Y-142485714D01*
X200186666Y-142152380D02*
X200139047Y-142200000D01*
X200186666Y-142247619D01*
X200234285Y-142200000D01*
X200186666Y-142152380D01*
X200186666Y-142247619D01*
X200662857Y-142485714D02*
X200662857Y-143152380D01*
X200662857Y-142580952D02*
X200710476Y-142533333D01*
X200805714Y-142485714D01*
X200948571Y-142485714D01*
X201043809Y-142533333D01*
X201091428Y-142628571D01*
X201091428Y-143152380D01*
X201996190Y-142485714D02*
X201996190Y-143295238D01*
X201948571Y-143390476D01*
X201900952Y-143438095D01*
X201805714Y-143485714D01*
X201662857Y-143485714D01*
X201567619Y-143438095D01*
X201996190Y-143104761D02*
X201900952Y-143152380D01*
X201710476Y-143152380D01*
X201615238Y-143104761D01*
X201567619Y-143057142D01*
X201520000Y-142961904D01*
X201520000Y-142676190D01*
X201567619Y-142580952D01*
X201615238Y-142533333D01*
X201710476Y-142485714D01*
X201900952Y-142485714D01*
X201996190Y-142533333D01*
X203234285Y-143152380D02*
X203234285Y-142152380D01*
X203234285Y-142533333D02*
X203329523Y-142485714D01*
X203520000Y-142485714D01*
X203615238Y-142533333D01*
X203662857Y-142580952D01*
X203710476Y-142676190D01*
X203710476Y-142961904D01*
X203662857Y-143057142D01*
X203615238Y-143104761D01*
X203520000Y-143152380D01*
X203329523Y-143152380D01*
X203234285Y-143104761D01*
X204043809Y-142485714D02*
X204281904Y-143152380D01*
X204520000Y-142485714D02*
X204281904Y-143152380D01*
X204186666Y-143390476D01*
X204139047Y-143438095D01*
X204043809Y-143485714D01*
X205662857Y-143152380D02*
X205662857Y-142152380D01*
X206234285Y-143152380D01*
X206234285Y-142152380D01*
X206710476Y-143152380D02*
X206710476Y-142485714D01*
X206710476Y-142152380D02*
X206662857Y-142200000D01*
X206710476Y-142247619D01*
X206758095Y-142200000D01*
X206710476Y-142152380D01*
X206710476Y-142247619D01*
X207615238Y-143104761D02*
X207520000Y-143152380D01*
X207329523Y-143152380D01*
X207234285Y-143104761D01*
X207186666Y-143057142D01*
X207139047Y-142961904D01*
X207139047Y-142676190D01*
X207186666Y-142580952D01*
X207234285Y-142533333D01*
X207329523Y-142485714D01*
X207520000Y-142485714D01*
X207615238Y-142533333D01*
X208186666Y-143152380D02*
X208091428Y-143104761D01*
X208043809Y-143057142D01*
X207996190Y-142961904D01*
X207996190Y-142676190D01*
X208043809Y-142580952D01*
X208091428Y-142533333D01*
X208186666Y-142485714D01*
X208329523Y-142485714D01*
X208424761Y-142533333D01*
X208472380Y-142580952D01*
X208520000Y-142676190D01*
X208520000Y-142961904D01*
X208472380Y-143057142D01*
X208424761Y-143104761D01*
X208329523Y-143152380D01*
X208186666Y-143152380D01*
X209091428Y-143152380D02*
X208996190Y-143104761D01*
X208948571Y-143009523D01*
X208948571Y-142152380D01*
X209900952Y-143152380D02*
X209900952Y-142628571D01*
X209853333Y-142533333D01*
X209758095Y-142485714D01*
X209567619Y-142485714D01*
X209472380Y-142533333D01*
X209900952Y-143104761D02*
X209805714Y-143152380D01*
X209567619Y-143152380D01*
X209472380Y-143104761D01*
X209424761Y-143009523D01*
X209424761Y-142914285D01*
X209472380Y-142819047D01*
X209567619Y-142771428D01*
X209805714Y-142771428D01*
X209900952Y-142723809D01*
X211091428Y-142866666D02*
X211567619Y-142866666D01*
X210996190Y-143152380D02*
X211329523Y-142152380D01*
X211662857Y-143152380D01*
X211900952Y-142485714D02*
X212139047Y-143152380D01*
X212377142Y-142485714D01*
X213186666Y-143152380D02*
X213186666Y-142628571D01*
X213139047Y-142533333D01*
X213043809Y-142485714D01*
X212853333Y-142485714D01*
X212758095Y-142533333D01*
X213186666Y-143104761D02*
X213091428Y-143152380D01*
X212853333Y-143152380D01*
X212758095Y-143104761D01*
X212710476Y-143009523D01*
X212710476Y-142914285D01*
X212758095Y-142819047D01*
X212853333Y-142771428D01*
X213091428Y-142771428D01*
X213186666Y-142723809D01*
X213662857Y-142485714D02*
X213662857Y-143152380D01*
X213662857Y-142580952D02*
X213710476Y-142533333D01*
X213805714Y-142485714D01*
X213948571Y-142485714D01*
X214043809Y-142533333D01*
X214091428Y-142628571D01*
X214091428Y-143152380D01*
X214472380Y-142485714D02*
X214996190Y-142485714D01*
X214472380Y-143152380D01*
X214996190Y-143152380D01*
X215377142Y-143152380D02*
X215377142Y-142485714D01*
X215377142Y-142152380D02*
X215329523Y-142200000D01*
X215377142Y-142247619D01*
X215424761Y-142200000D01*
X215377142Y-142152380D01*
X215377142Y-142247619D01*
D12*
X128528571Y-143518571D02*
X128028571Y-142804285D01*
X127671428Y-143518571D02*
X127671428Y-142018571D01*
X128242857Y-142018571D01*
X128385714Y-142090000D01*
X128457142Y-142161428D01*
X128528571Y-142304285D01*
X128528571Y-142518571D01*
X128457142Y-142661428D01*
X128385714Y-142732857D01*
X128242857Y-142804285D01*
X127671428Y-142804285D01*
X129742857Y-143447142D02*
X129600000Y-143518571D01*
X129314285Y-143518571D01*
X129171428Y-143447142D01*
X129100000Y-143304285D01*
X129100000Y-142732857D01*
X129171428Y-142590000D01*
X129314285Y-142518571D01*
X129600000Y-142518571D01*
X129742857Y-142590000D01*
X129814285Y-142732857D01*
X129814285Y-142875714D01*
X129100000Y-143018571D01*
X130314285Y-142518571D02*
X130671428Y-143518571D01*
X131028571Y-142518571D01*
X131600000Y-143375714D02*
X131671428Y-143447142D01*
X131600000Y-143518571D01*
X131528571Y-143447142D01*
X131600000Y-143375714D01*
X131600000Y-143518571D01*
X133742857Y-142018571D02*
X133885714Y-142018571D01*
X134028571Y-142090000D01*
X134100000Y-142161428D01*
X134171428Y-142304285D01*
X134242857Y-142590000D01*
X134242857Y-142947142D01*
X134171428Y-143232857D01*
X134100000Y-143375714D01*
X134028571Y-143447142D01*
X133885714Y-143518571D01*
X133742857Y-143518571D01*
X133600000Y-143447142D01*
X133528571Y-143375714D01*
X133457142Y-143232857D01*
X133385714Y-142947142D01*
X133385714Y-142590000D01*
X133457142Y-142304285D01*
X133528571Y-142161428D01*
X133600000Y-142090000D01*
X133742857Y-142018571D01*
X135671428Y-143518571D02*
X134814285Y-143518571D01*
X135242857Y-143518571D02*
X135242857Y-142018571D01*
X135100000Y-142232857D01*
X134957142Y-142375714D01*
X134814285Y-142447142D01*
X137385714Y-141947142D02*
X136100000Y-143875714D01*
X137814285Y-142161428D02*
X137885714Y-142090000D01*
X138028571Y-142018571D01*
X138385714Y-142018571D01*
X138528571Y-142090000D01*
X138600000Y-142161428D01*
X138671428Y-142304285D01*
X138671428Y-142447142D01*
X138600000Y-142661428D01*
X137742857Y-143518571D01*
X138671428Y-143518571D01*
X139171428Y-142018571D02*
X140100000Y-142018571D01*
X139600000Y-142590000D01*
X139814285Y-142590000D01*
X139957142Y-142661428D01*
X140028571Y-142732857D01*
X140100000Y-142875714D01*
X140100000Y-143232857D01*
X140028571Y-143375714D01*
X139957142Y-143447142D01*
X139814285Y-143518571D01*
X139385714Y-143518571D01*
X139242857Y-143447142D01*
X139171428Y-143375714D01*
D10*
X88692857Y-86656428D02*
X91692857Y-87031428D01*
X91692857Y-87745714D01*
X91550000Y-88156428D01*
X91264285Y-88406428D01*
X90978571Y-88513571D01*
X90407142Y-88585000D01*
X89978571Y-88531428D01*
X89407142Y-88317142D01*
X89121428Y-88138571D01*
X88835714Y-87817142D01*
X88692857Y-87370714D01*
X88692857Y-86656428D01*
X90692857Y-91192142D02*
X88692857Y-90942142D01*
X90692857Y-89906428D02*
X89121428Y-89710000D01*
X88835714Y-89817142D01*
X88692857Y-90085000D01*
X88692857Y-90513571D01*
X88835714Y-90817142D01*
X88978571Y-90977857D01*
X88835714Y-93531428D02*
X88692857Y-93227857D01*
X88692857Y-92656428D01*
X88835714Y-92388571D01*
X89121428Y-92281428D01*
X90264285Y-92424285D01*
X90550000Y-92602857D01*
X90692857Y-92906428D01*
X90692857Y-93477857D01*
X90550000Y-93745714D01*
X90264285Y-93852857D01*
X89978571Y-93817142D01*
X89692857Y-92352857D01*
X88692857Y-95370714D02*
X88835714Y-95102857D01*
X88978571Y-94977857D01*
X89264285Y-94870714D01*
X90121428Y-94977857D01*
X90407142Y-95156428D01*
X90550000Y-95317142D01*
X90692857Y-95620714D01*
X90692857Y-96049285D01*
X90550000Y-96317142D01*
X90407142Y-96442142D01*
X90121428Y-96549285D01*
X89264285Y-96442142D01*
X88978571Y-96263571D01*
X88835714Y-96102857D01*
X88692857Y-95799285D01*
X88692857Y-95370714D01*
X90692857Y-97477857D02*
X90692857Y-98620714D01*
X91692857Y-98031428D02*
X89121428Y-97710000D01*
X88835714Y-97817142D01*
X88692857Y-98085000D01*
X88692857Y-98370714D01*
X90692857Y-99192142D02*
X90692857Y-100335000D01*
X91692857Y-99745714D02*
X89121428Y-99424285D01*
X88835714Y-99531428D01*
X88692857Y-99799285D01*
X88692857Y-100085000D01*
X88692857Y-101513571D02*
X88835714Y-101245714D01*
X88978571Y-101120714D01*
X89264285Y-101013571D01*
X90121428Y-101120714D01*
X90407142Y-101299285D01*
X90550000Y-101460000D01*
X90692857Y-101763571D01*
X90692857Y-102192142D01*
X90550000Y-102460000D01*
X90407142Y-102585000D01*
X90121428Y-102692142D01*
X89264285Y-102585000D01*
X88978571Y-102406428D01*
X88835714Y-102245714D01*
X88692857Y-101942142D01*
X88692857Y-101513571D01*
X88835714Y-103674285D02*
X88692857Y-103942142D01*
X88692857Y-104513571D01*
X88835714Y-104817142D01*
X89121428Y-104995714D01*
X89264285Y-105013571D01*
X89550000Y-104906428D01*
X89692857Y-104638571D01*
X89692857Y-104210000D01*
X89835714Y-103942142D01*
X90121428Y-103835000D01*
X90264285Y-103852857D01*
X90550000Y-104031428D01*
X90692857Y-104335000D01*
X90692857Y-104763571D01*
X90550000Y-105031428D01*
X88835714Y-107388571D02*
X88692857Y-107085000D01*
X88692857Y-106513571D01*
X88835714Y-106245714D01*
X89121428Y-106138571D01*
X90264285Y-106281428D01*
X90550000Y-106460000D01*
X90692857Y-106763571D01*
X90692857Y-107335000D01*
X90550000Y-107602857D01*
X90264285Y-107710000D01*
X89978571Y-107674285D01*
X89692857Y-106210000D01*
X88692857Y-108799285D02*
X90692857Y-109049285D01*
X91692857Y-109174285D02*
X91550000Y-109013571D01*
X91407142Y-109138571D01*
X91550000Y-109299285D01*
X91692857Y-109174285D01*
X91407142Y-109138571D01*
D13*
%TO.C,REF4*%
X216519440Y-126329700D02*
X215920000Y-126230640D01*
X216920760Y-126428760D02*
X216519440Y-126329700D01*
X217421140Y-126731020D02*
X216920760Y-126428760D01*
X217918980Y-127228860D02*
X217421140Y-126731020D01*
X218221240Y-127729240D02*
X217918980Y-127228860D01*
X218419360Y-128331220D02*
X218221240Y-127729240D01*
X218419360Y-128930660D02*
X218419360Y-128331220D01*
X218320300Y-129530100D02*
X218419360Y-128930660D01*
X217918980Y-130231140D02*
X218320300Y-129530100D01*
X217421140Y-130728980D02*
X217918980Y-130231140D01*
X216819160Y-131031240D02*
X217421140Y-130728980D01*
X216219720Y-131229360D02*
X216819160Y-131031240D01*
X215419620Y-131229360D02*
X216219720Y-131229360D01*
X214721120Y-130929640D02*
X215419620Y-131229360D01*
X214220740Y-130530860D02*
X214721120Y-130929640D01*
X213618760Y-129829820D02*
X214220740Y-130530860D01*
X213420640Y-129029720D02*
X213618760Y-129829820D01*
X213420640Y-128430280D02*
X213420640Y-129029720D01*
X213519700Y-127929900D02*
X213420640Y-128430280D01*
X213720360Y-127531120D02*
X213519700Y-127929900D01*
X214220740Y-126929140D02*
X213720360Y-127531120D01*
X214721120Y-126530360D02*
X214220740Y-126929140D01*
X215218960Y-126329700D02*
X214721120Y-126530360D01*
X215820940Y-126230640D02*
X215218960Y-126329700D01*
X215920000Y-126230640D02*
X215820940Y-126230640D01*
X215670000Y-127580000D02*
X215920000Y-127530000D01*
X215420000Y-127780000D02*
X215670000Y-127580000D01*
X215270000Y-128280000D02*
X215420000Y-127780000D01*
X215170000Y-128780000D02*
X215270000Y-128280000D01*
X215270000Y-129330000D02*
X215170000Y-128780000D01*
X215420000Y-129730000D02*
X215270000Y-129330000D01*
X215670000Y-129980000D02*
X215420000Y-129730000D01*
X215970000Y-130030000D02*
X215670000Y-129980000D01*
X216270000Y-129830000D02*
X215970000Y-130030000D01*
X216420000Y-129580000D02*
X216270000Y-129830000D01*
X216620000Y-129130000D02*
X216420000Y-129580000D01*
X216620000Y-128780000D02*
X216620000Y-129130000D01*
X216620000Y-128330000D02*
X216620000Y-128780000D01*
X216470000Y-127930000D02*
X216620000Y-128330000D01*
X216220000Y-127630000D02*
X216470000Y-127930000D01*
X215920000Y-127530000D02*
X216220000Y-127630000D01*
X216499440Y-132019700D02*
X215900000Y-131920640D01*
X216900760Y-132118760D02*
X216499440Y-132019700D01*
X217401140Y-132421020D02*
X216900760Y-132118760D01*
X217898980Y-132918860D02*
X217401140Y-132421020D01*
X218201240Y-133419240D02*
X217898980Y-132918860D01*
X218399360Y-134021220D02*
X218201240Y-133419240D01*
X218399360Y-134620660D02*
X218399360Y-134021220D01*
X218300300Y-135220100D02*
X218399360Y-134620660D01*
X217898980Y-135921140D02*
X218300300Y-135220100D01*
X217401140Y-136418980D02*
X217898980Y-135921140D01*
X216799160Y-136721240D02*
X217401140Y-136418980D01*
X216199720Y-136919360D02*
X216799160Y-136721240D01*
X215399620Y-136919360D02*
X216199720Y-136919360D01*
X214701120Y-136619640D02*
X215399620Y-136919360D01*
X214200740Y-136220860D02*
X214701120Y-136619640D01*
X213598760Y-135519820D02*
X214200740Y-136220860D01*
X213400640Y-134719720D02*
X213598760Y-135519820D01*
X213400640Y-134120280D02*
X213400640Y-134719720D01*
X213499700Y-133619900D02*
X213400640Y-134120280D01*
X213700360Y-133221120D02*
X213499700Y-133619900D01*
X214200740Y-132619140D02*
X213700360Y-133221120D01*
X214701120Y-132220360D02*
X214200740Y-132619140D01*
X215198960Y-132019700D02*
X214701120Y-132220360D01*
X215800940Y-131920640D02*
X215198960Y-132019700D01*
X215900000Y-131920640D02*
X215800940Y-131920640D01*
X215300560Y-135420760D02*
X215501220Y-135220100D01*
X214899240Y-135420760D02*
X215300560Y-135420760D01*
X214599520Y-135319160D02*
X214899240Y-135420760D01*
X214398860Y-135019440D02*
X214599520Y-135319160D01*
X214299800Y-134519060D02*
X214398860Y-135019440D01*
X214299800Y-134120280D02*
X214299800Y-134519060D01*
X214398860Y-133718960D02*
X214299800Y-134120280D01*
X214701120Y-133520840D02*
X214398860Y-133718960D01*
X215099900Y-133419240D02*
X214701120Y-133520840D01*
X215399620Y-133520840D02*
X215099900Y-133419240D01*
X215501220Y-133619900D02*
X215399620Y-133520840D01*
X217401140Y-135420760D02*
X217500200Y-135220100D01*
X217098880Y-135420760D02*
X217401140Y-135420760D01*
X216900760Y-135420760D02*
X217098880Y-135420760D01*
X216499440Y-135220100D02*
X216900760Y-135420760D01*
X216298780Y-134818780D02*
X216499440Y-135220100D01*
X216298780Y-134420000D02*
X216298780Y-134818780D01*
X216400380Y-133919620D02*
X216298780Y-134420000D01*
X216601040Y-133520840D02*
X216400380Y-133919620D01*
X216900760Y-133419240D02*
X216601040Y-133520840D01*
X217200480Y-133419240D02*
X216900760Y-133419240D01*
X217401140Y-133520840D02*
X217200480Y-133419240D01*
X217500200Y-133619900D02*
X217401140Y-133520840D01*
X216470000Y-127930000D02*
X215420000Y-129480000D01*
D14*
%TO.C,U14*%
X208270000Y-123150000D02*
X213730000Y-123150000D01*
X213730000Y-123150000D02*
X213730000Y-72230000D01*
X213730000Y-72230000D02*
X200810000Y-72230000D01*
X200810000Y-72230000D02*
X200810000Y-123150000D01*
X200810000Y-123150000D02*
X206270000Y-123150000D01*
X216220000Y-123210000D02*
X216220000Y-72170000D01*
X216220000Y-72170000D02*
X198320000Y-72170000D01*
X198320000Y-72170000D02*
X198320000Y-123210000D01*
X198320000Y-123210000D02*
X216220000Y-123210000D01*
X206270000Y-123150000D02*
G75*
G02*
X208270000Y-123150000I1000000J0D01*
G01*
%TO.C,U13*%
X158550000Y-91475000D02*
X172175000Y-91475000D01*
X172175000Y-91475000D02*
X173175000Y-90475000D01*
X173175000Y-90475000D02*
X173175000Y-60225000D01*
X173175000Y-60225000D02*
X141925000Y-60225000D01*
X141925000Y-60225000D02*
X141925000Y-91475000D01*
X141925000Y-91475000D02*
X156550000Y-91475000D01*
D15*
%TO.C,U35*%
X145845000Y-43530000D02*
X147370000Y-43530000D01*
X147720000Y-53600000D02*
X147720000Y-43700000D01*
X150920000Y-53600000D02*
X147720000Y-53600000D01*
X150920000Y-43700000D02*
X150920000Y-53600000D01*
X147720000Y-43700000D02*
X150920000Y-43700000D01*
%TO.C,U36*%
X104330000Y-47540000D02*
X107530000Y-47540000D01*
X107530000Y-47540000D02*
X107530000Y-57440000D01*
X107530000Y-57440000D02*
X104330000Y-57440000D01*
X104330000Y-57440000D02*
X104330000Y-47540000D01*
X102455000Y-47370000D02*
X103980000Y-47370000D01*
%TO.C,U37*%
X123760000Y-105815000D02*
X123760000Y-104290000D01*
X133830000Y-103940000D02*
X123930000Y-103940000D01*
X133830000Y-100740000D02*
X133830000Y-103940000D01*
X123930000Y-100740000D02*
X133830000Y-100740000D01*
X123930000Y-103940000D02*
X123930000Y-100740000D01*
%TO.C,U43*%
X123785000Y-116615000D02*
X123785000Y-115090000D01*
X132595000Y-114740000D02*
X123945000Y-114740000D01*
X132595000Y-111540000D02*
X132595000Y-114740000D01*
X123945000Y-111540000D02*
X132595000Y-111540000D01*
X123945000Y-114740000D02*
X123945000Y-111540000D01*
%TO.C,J1*%
X110290000Y-140850000D02*
X110290000Y-139580000D01*
%TO.C,J2*%
X118020000Y-120520000D02*
X118020000Y-119250000D01*
%TO.C,U21*%
X123800000Y-54330000D02*
X123800000Y-52380000D01*
X136590000Y-52030000D02*
X123790000Y-52030000D01*
X136590000Y-45230000D02*
X136590000Y-52030000D01*
X123790000Y-45230000D02*
X136590000Y-45230000D01*
X123790000Y-52030000D02*
X123790000Y-45230000D01*
%TO.C,U15*%
X184245000Y-109505000D02*
X184245000Y-107980000D01*
X193055000Y-107630000D02*
X184405000Y-107630000D01*
X193055000Y-104430000D02*
X193055000Y-107630000D01*
X184405000Y-104430000D02*
X193055000Y-104430000D01*
X184405000Y-107630000D02*
X184405000Y-104430000D01*
%TO.C,U45*%
X184245000Y-121885000D02*
X184245000Y-120360000D01*
X193055000Y-120010000D02*
X184405000Y-120010000D01*
X193055000Y-116810000D02*
X193055000Y-120010000D01*
X184405000Y-116810000D02*
X193055000Y-116810000D01*
X184405000Y-120010000D02*
X184405000Y-116810000D01*
%TO.C,U28*%
X184415000Y-132540000D02*
X184415000Y-129340000D01*
X184415000Y-129340000D02*
X193065000Y-129340000D01*
X193065000Y-129340000D02*
X193065000Y-132540000D01*
X193065000Y-132540000D02*
X184415000Y-132540000D01*
X184255000Y-134415000D02*
X184255000Y-132890000D01*
D14*
%TO.C,Q1*%
X182030000Y-94760000D02*
X194180000Y-94760000D01*
X181280000Y-74610000D02*
X181280000Y-94010000D01*
X193430000Y-73860000D02*
X182030000Y-73860000D01*
X194180000Y-94760000D02*
X194180000Y-74610000D01*
X194180000Y-74610000D02*
G75*
G03*
X193430000Y-73860000I-750000J0D01*
G01*
X182030000Y-73860000D02*
G75*
G03*
X181280000Y-74610000I0J-750000D01*
G01*
X181280000Y-94010000D02*
G75*
G03*
X182030000Y-94760000I750000J0D01*
G01*
%TO.C,C10*%
X90660000Y-48650000D02*
X90660000Y-40640000D01*
X90660000Y-40640000D02*
X84340000Y-40640000D01*
X84340000Y-40640000D02*
X84340000Y-48650000D01*
%TO.C,C11*%
X211720000Y-127590000D02*
X203710000Y-127590000D01*
X211720000Y-133910000D02*
X211720000Y-127590000D01*
X203710000Y-133910000D02*
X211720000Y-133910000D01*
%TO.C,C12*%
X86758748Y-54590000D02*
X88181252Y-54590000D01*
X86758748Y-52770000D02*
X88181252Y-52770000D01*
%TO.C,C13*%
X138050000Y-70881252D02*
X138050000Y-69458748D01*
X139870000Y-70881252D02*
X139870000Y-69458748D01*
%TO.C,C14*%
X145180000Y-95068748D02*
X145180000Y-96491252D01*
X147000000Y-95068748D02*
X147000000Y-96491252D01*
%TO.C,C15*%
X153168748Y-57590000D02*
X154591252Y-57590000D01*
X153168748Y-59410000D02*
X154591252Y-59410000D01*
%TO.C,C16*%
X132141252Y-60520000D02*
X130718748Y-60520000D01*
X132141252Y-62340000D02*
X130718748Y-62340000D01*
%TO.C,C17*%
X143740000Y-95068748D02*
X143740000Y-96491252D01*
X141920000Y-95068748D02*
X141920000Y-96491252D01*
%TO.C,C21*%
X122800000Y-44238748D02*
X122800000Y-45661252D01*
X120980000Y-44238748D02*
X120980000Y-45661252D01*
%TO.C,C22*%
X197390000Y-98461252D02*
X197390000Y-97038748D01*
X195570000Y-98461252D02*
X195570000Y-97038748D01*
%TO.C,C23*%
X122680000Y-100218748D02*
X122680000Y-101641252D01*
X120860000Y-100218748D02*
X120860000Y-101641252D01*
%TO.C,C24*%
X132141252Y-119110000D02*
X130718748Y-119110000D01*
X132141252Y-120930000D02*
X130718748Y-120930000D01*
%TO.C,C25*%
X92700000Y-128808748D02*
X92700000Y-130231252D01*
X90880000Y-128808748D02*
X90880000Y-130231252D01*
%TO.C,C27*%
X122700000Y-112491252D02*
X122700000Y-111068748D01*
X120880000Y-112491252D02*
X120880000Y-111068748D01*
%TO.C,C28*%
X158000000Y-44738748D02*
X158000000Y-46161252D01*
X156180000Y-44738748D02*
X156180000Y-46161252D01*
%TO.C,C29*%
X151331252Y-39450000D02*
X149908748Y-39450000D01*
X151331252Y-41270000D02*
X149908748Y-41270000D01*
%TO.C,C31*%
X211098748Y-67090000D02*
X212521252Y-67090000D01*
X211098748Y-68910000D02*
X212521252Y-68910000D01*
%TO.C,C32*%
X200038748Y-67090000D02*
X201461252Y-67090000D01*
X200038748Y-68910000D02*
X201461252Y-68910000D01*
%TO.C,C33*%
X188788748Y-68910000D02*
X190211252Y-68910000D01*
X188788748Y-67090000D02*
X190211252Y-67090000D01*
%TO.C,C34*%
X177288748Y-67090000D02*
X178711252Y-67090000D01*
X177288748Y-68910000D02*
X178711252Y-68910000D01*
%TO.C,C35*%
X105461252Y-58660000D02*
X104038748Y-58660000D01*
X105461252Y-60480000D02*
X104038748Y-60480000D01*
%TO.C,C36*%
X107951252Y-46380000D02*
X106528748Y-46380000D01*
X107951252Y-44560000D02*
X106528748Y-44560000D01*
%TO.C,C37*%
X183210000Y-130171252D02*
X183210000Y-128748748D01*
X181390000Y-130171252D02*
X181390000Y-128748748D01*
%TO.C,C41*%
X181280000Y-117631252D02*
X181280000Y-116208748D01*
X183100000Y-117631252D02*
X183100000Y-116208748D01*
%TO.C,C42*%
X181310000Y-104008748D02*
X181310000Y-105431252D01*
X183130000Y-104008748D02*
X183130000Y-105431252D01*
%TO.C,C43*%
X184388748Y-95290000D02*
X185811252Y-95290000D01*
X184388748Y-97110000D02*
X185811252Y-97110000D01*
%TO.C,C44*%
X208330000Y-99581252D02*
X208330000Y-98158748D01*
X206510000Y-99581252D02*
X206510000Y-98158748D01*
%TO.C,C45*%
X139140000Y-119301252D02*
X139140000Y-117878748D01*
X140960000Y-119301252D02*
X140960000Y-117878748D01*
%TO.C,C46*%
X181220000Y-112781252D02*
X181220000Y-111358748D01*
X179400000Y-112781252D02*
X179400000Y-111358748D01*
%TO.C,R11*%
X140910000Y-112202936D02*
X140910000Y-113657064D01*
X139090000Y-112202936D02*
X139090000Y-113657064D01*
%TO.C,R12*%
X174560000Y-86917064D02*
X174560000Y-85462936D01*
X176380000Y-86917064D02*
X176380000Y-85462936D01*
%TO.C,R13*%
X102400000Y-102772936D02*
X102400000Y-104227064D01*
X104220000Y-102772936D02*
X104220000Y-104227064D01*
%TO.C,R14*%
X102400000Y-110567064D02*
X102400000Y-109112936D01*
X104220000Y-110567064D02*
X104220000Y-109112936D01*
%TO.C,R15*%
X139140000Y-89542936D02*
X139140000Y-90997064D01*
X140960000Y-89542936D02*
X140960000Y-90997064D01*
%TO.C,R16*%
X208127064Y-78840000D02*
X206672936Y-78840000D01*
X208127064Y-77020000D02*
X206672936Y-77020000D01*
%TO.C,R17*%
X208107064Y-80910000D02*
X206652936Y-80910000D01*
X208107064Y-82730000D02*
X206652936Y-82730000D01*
%TO.C,R31*%
X156010000Y-53857064D02*
X156010000Y-52402936D01*
X157830000Y-53857064D02*
X157830000Y-52402936D01*
%TO.C,R32*%
X165947064Y-57620000D02*
X164492936Y-57620000D01*
X165947064Y-59440000D02*
X164492936Y-59440000D01*
%TO.C,R33*%
X172477064Y-59440000D02*
X171022936Y-59440000D01*
X172477064Y-57620000D02*
X171022936Y-57620000D01*
%TO.C,R34*%
X158367064Y-39440000D02*
X156912936Y-39440000D01*
X158367064Y-41260000D02*
X156912936Y-41260000D01*
%TO.C,R35*%
X123142936Y-41320000D02*
X124597064Y-41320000D01*
X123142936Y-39500000D02*
X124597064Y-39500000D01*
%TO.C,R36*%
X125392936Y-56670000D02*
X126847064Y-56670000D01*
X125392936Y-58490000D02*
X126847064Y-58490000D01*
%TO.C,R37*%
X101060000Y-49457064D02*
X101060000Y-48002936D01*
X99240000Y-49457064D02*
X99240000Y-48002936D01*
%TO.C,R38*%
X101080000Y-53042936D02*
X101080000Y-54497064D01*
X99260000Y-53042936D02*
X99260000Y-54497064D01*
%TO.C,R39*%
X131462936Y-58460000D02*
X132917064Y-58460000D01*
X131462936Y-56640000D02*
X132917064Y-56640000D01*
%TO.C,R41*%
X136780000Y-128112936D02*
X136780000Y-129567064D01*
X134960000Y-128112936D02*
X134960000Y-129567064D01*
%TO.C,R42*%
X93810436Y-138270000D02*
X95264564Y-138270000D01*
X93810436Y-136450000D02*
X95264564Y-136450000D01*
%TO.C,R43*%
X102227064Y-136490000D02*
X100772936Y-136490000D01*
X102227064Y-138310000D02*
X100772936Y-138310000D01*
%TO.C,R44*%
X102739564Y-126160000D02*
X101285436Y-126160000D01*
X102739564Y-124340000D02*
X101285436Y-124340000D01*
%TO.C,R45*%
X95642936Y-124320000D02*
X97097064Y-124320000D01*
X95642936Y-126140000D02*
X97097064Y-126140000D01*
%TO.C,R46*%
X179440000Y-125127064D02*
X179440000Y-123672936D01*
X181260000Y-125127064D02*
X181260000Y-123672936D01*
%TO.C,R47*%
X158672936Y-59440000D02*
X160127064Y-59440000D01*
X158672936Y-57620000D02*
X160127064Y-57620000D01*
%TO.C,R48*%
X208117064Y-110020000D02*
X206662936Y-110020000D01*
X208117064Y-108200000D02*
X206662936Y-108200000D01*
%TO.C,R49*%
X122992936Y-135800000D02*
X124447064Y-135800000D01*
X122992936Y-137620000D02*
X124447064Y-137620000D01*
%TO.C,R50*%
X143092936Y-102500000D02*
X144547064Y-102500000D01*
X143092936Y-100680000D02*
X144547064Y-100680000D01*
%TO.C,R110*%
X208137064Y-86470000D02*
X206682936Y-86470000D01*
X208137064Y-84650000D02*
X206682936Y-84650000D01*
%TO.C,R311*%
X167172936Y-142680000D02*
X168627064Y-142680000D01*
X167172936Y-140860000D02*
X168627064Y-140860000D01*
%TO.C,R312*%
X161432936Y-142700000D02*
X162887064Y-142700000D01*
X161432936Y-140880000D02*
X162887064Y-140880000D01*
%TO.C,R313*%
X155582936Y-142610000D02*
X157037064Y-142610000D01*
X155582936Y-140790000D02*
X157037064Y-140790000D01*
%TO.C,C26*%
X132191252Y-80150000D02*
X130768748Y-80150000D01*
X132191252Y-78330000D02*
X130768748Y-78330000D01*
D15*
%TO.C,U24*%
X121950000Y-121960000D02*
X123900000Y-121960000D01*
X124250000Y-134750000D02*
X124250000Y-121950000D01*
X131050000Y-134750000D02*
X124250000Y-134750000D01*
X131050000Y-121950000D02*
X131050000Y-134750000D01*
X124250000Y-121950000D02*
X131050000Y-121950000D01*
%TO.C,U25*%
X124320000Y-81120000D02*
X131120000Y-81120000D01*
X131120000Y-81120000D02*
X131120000Y-93920000D01*
X131120000Y-93920000D02*
X124320000Y-93920000D01*
X124320000Y-93920000D02*
X124320000Y-81120000D01*
X122020000Y-81130000D02*
X123970000Y-81130000D01*
%TO.C,U26*%
X124320000Y-63280000D02*
X131120000Y-63280000D01*
X131120000Y-63280000D02*
X131120000Y-76080000D01*
X131120000Y-76080000D02*
X124320000Y-76080000D01*
X124320000Y-76080000D02*
X124320000Y-63280000D01*
X122020000Y-63290000D02*
X123970000Y-63290000D01*
%TO.C,U29*%
X158950000Y-54970000D02*
X158950000Y-53020000D01*
X171740000Y-52670000D02*
X158940000Y-52670000D01*
X171740000Y-45870000D02*
X171740000Y-52670000D01*
X158940000Y-45870000D02*
X171740000Y-45870000D01*
X158940000Y-52670000D02*
X158940000Y-45870000D01*
%TO.C,U42*%
X93925000Y-132350000D02*
X93925000Y-129150000D01*
X93925000Y-129150000D02*
X102575000Y-129150000D01*
X102575000Y-129150000D02*
X102575000Y-132350000D01*
X102575000Y-132350000D02*
X93925000Y-132350000D01*
X93765000Y-134225000D02*
X93765000Y-132700000D01*
D14*
%TO.C,U22*%
X148600000Y-98490000D02*
X148600000Y-100140000D01*
X148600000Y-100140000D02*
X174120000Y-100140000D01*
X174120000Y-100140000D02*
X174120000Y-94840000D01*
X174120000Y-94840000D02*
X148600000Y-94840000D01*
X148600000Y-94840000D02*
X148600000Y-96490000D01*
X148540000Y-102630000D02*
X174180000Y-102630000D01*
X174180000Y-102630000D02*
X174180000Y-92350000D01*
X174180000Y-92350000D02*
X148540000Y-92350000D01*
X148540000Y-92350000D02*
X148540000Y-102630000D01*
X148600000Y-96490000D02*
G75*
G02*
X148600000Y-98490000I0J-1000000D01*
G01*
%TO.C,U31*%
X219400000Y-38970000D02*
X209120000Y-38970000D01*
X219400000Y-64610000D02*
X219400000Y-38970000D01*
X209120000Y-64610000D02*
X219400000Y-64610000D01*
X209120000Y-38970000D02*
X209120000Y-64610000D01*
X216910000Y-39030000D02*
X215260000Y-39030000D01*
X216910000Y-64550000D02*
X216910000Y-39030000D01*
X211610000Y-64550000D02*
X216910000Y-64550000D01*
X211610000Y-39030000D02*
X211610000Y-64550000D01*
X213260000Y-39030000D02*
X211610000Y-39030000D01*
X215260000Y-39030000D02*
G75*
G02*
X213260000Y-39030000I-1000000J0D01*
G01*
%TO.C,U32*%
X202040000Y-39030000D02*
X200390000Y-39030000D01*
X200390000Y-39030000D02*
X200390000Y-64550000D01*
X200390000Y-64550000D02*
X205690000Y-64550000D01*
X205690000Y-64550000D02*
X205690000Y-39030000D01*
X205690000Y-39030000D02*
X204040000Y-39030000D01*
X197900000Y-38970000D02*
X197900000Y-64610000D01*
X197900000Y-64610000D02*
X208180000Y-64610000D01*
X208180000Y-64610000D02*
X208180000Y-38970000D01*
X208180000Y-38970000D02*
X197900000Y-38970000D01*
X204040000Y-39030000D02*
G75*
G02*
X202040000Y-39030000I-1000000J0D01*
G01*
%TO.C,U33*%
X197010000Y-38970000D02*
X186730000Y-38970000D01*
X197010000Y-64610000D02*
X197010000Y-38970000D01*
X186730000Y-64610000D02*
X197010000Y-64610000D01*
X186730000Y-38970000D02*
X186730000Y-64610000D01*
X194520000Y-39030000D02*
X192870000Y-39030000D01*
X194520000Y-64550000D02*
X194520000Y-39030000D01*
X189220000Y-64550000D02*
X194520000Y-64550000D01*
X189220000Y-39030000D02*
X189220000Y-64550000D01*
X190870000Y-39030000D02*
X189220000Y-39030000D01*
X192870000Y-39030000D02*
G75*
G02*
X190870000Y-39030000I-1000000J0D01*
G01*
%TO.C,U34*%
X179640000Y-39030000D02*
X177990000Y-39030000D01*
X177990000Y-39030000D02*
X177990000Y-64550000D01*
X177990000Y-64550000D02*
X183290000Y-64550000D01*
X183290000Y-64550000D02*
X183290000Y-39030000D01*
X183290000Y-39030000D02*
X181640000Y-39030000D01*
X175500000Y-38970000D02*
X175500000Y-64610000D01*
X175500000Y-64610000D02*
X185780000Y-64610000D01*
X185780000Y-64610000D02*
X185780000Y-38970000D01*
X185780000Y-38970000D02*
X175500000Y-38970000D01*
X181640000Y-39030000D02*
G75*
G02*
X179640000Y-39030000I-1000000J0D01*
G01*
%TO.C,U41*%
X159080000Y-103580000D02*
X142955000Y-103580000D01*
X142955000Y-103580000D02*
X141955000Y-104580000D01*
X141955000Y-104580000D02*
X141955000Y-139800000D01*
X141955000Y-139800000D02*
X178205000Y-139800000D01*
X178205000Y-139800000D02*
X178205000Y-103580000D01*
X178205000Y-103580000D02*
X161080000Y-103580000D01*
%TO.C,U44*%
X107820000Y-61990000D02*
X97540000Y-61990000D01*
X107820000Y-87630000D02*
X107820000Y-61990000D01*
X97540000Y-87630000D02*
X107820000Y-87630000D01*
X97540000Y-61990000D02*
X97540000Y-87630000D01*
X105330000Y-62050000D02*
X103680000Y-62050000D01*
X105330000Y-87570000D02*
X105330000Y-62050000D01*
X100030000Y-87570000D02*
X105330000Y-87570000D01*
X100030000Y-62050000D02*
X100030000Y-87570000D01*
X101680000Y-62050000D02*
X100030000Y-62050000D01*
X103680000Y-62050000D02*
G75*
G02*
X101680000Y-62050000I-1000000J0D01*
G01*
%TO.C,U14*%
D13*
X206031904Y-123602380D02*
X206031904Y-124411904D01*
X206079523Y-124507142D01*
X206127142Y-124554761D01*
X206222380Y-124602380D01*
X206412857Y-124602380D01*
X206508095Y-124554761D01*
X206555714Y-124507142D01*
X206603333Y-124411904D01*
X206603333Y-123602380D01*
X207603333Y-124602380D02*
X207031904Y-124602380D01*
X207317619Y-124602380D02*
X207317619Y-123602380D01*
X207222380Y-123745238D01*
X207127142Y-123840476D01*
X207031904Y-123888095D01*
X208460476Y-123935714D02*
X208460476Y-124602380D01*
X208222380Y-123554761D02*
X207984285Y-124269047D01*
X208603333Y-124269047D01*
%TO.C,U13*%
X174041904Y-73512380D02*
X174041904Y-74321904D01*
X174089523Y-74417142D01*
X174137142Y-74464761D01*
X174232380Y-74512380D01*
X174422857Y-74512380D01*
X174518095Y-74464761D01*
X174565714Y-74417142D01*
X174613333Y-74321904D01*
X174613333Y-73512380D01*
X175613333Y-74512380D02*
X175041904Y-74512380D01*
X175327619Y-74512380D02*
X175327619Y-73512380D01*
X175232380Y-73655238D01*
X175137142Y-73750476D01*
X175041904Y-73798095D01*
X175946666Y-73512380D02*
X176565714Y-73512380D01*
X176232380Y-73893333D01*
X176375238Y-73893333D01*
X176470476Y-73940952D01*
X176518095Y-73988571D01*
X176565714Y-74083809D01*
X176565714Y-74321904D01*
X176518095Y-74417142D01*
X176470476Y-74464761D01*
X176375238Y-74512380D01*
X176089523Y-74512380D01*
X175994285Y-74464761D01*
X175946666Y-74417142D01*
%TO.C,U35*%
D16*
X145667619Y-54404523D02*
X145667619Y-55432619D01*
X145728095Y-55553571D01*
X145788571Y-55614047D01*
X145909523Y-55674523D01*
X146151428Y-55674523D01*
X146272380Y-55614047D01*
X146332857Y-55553571D01*
X146393333Y-55432619D01*
X146393333Y-54404523D01*
X146877142Y-54404523D02*
X147663333Y-54404523D01*
X147240000Y-54888333D01*
X147421428Y-54888333D01*
X147542380Y-54948809D01*
X147602857Y-55009285D01*
X147663333Y-55130238D01*
X147663333Y-55432619D01*
X147602857Y-55553571D01*
X147542380Y-55614047D01*
X147421428Y-55674523D01*
X147058571Y-55674523D01*
X146937619Y-55614047D01*
X146877142Y-55553571D01*
X148812380Y-54404523D02*
X148207619Y-54404523D01*
X148147142Y-55009285D01*
X148207619Y-54948809D01*
X148328571Y-54888333D01*
X148630952Y-54888333D01*
X148751904Y-54948809D01*
X148812380Y-55009285D01*
X148872857Y-55130238D01*
X148872857Y-55432619D01*
X148812380Y-55553571D01*
X148751904Y-55614047D01*
X148630952Y-55674523D01*
X148328571Y-55674523D01*
X148207619Y-55614047D01*
X148147142Y-55553571D01*
%TO.C,U36*%
X110484523Y-50772380D02*
X111512619Y-50772380D01*
X111633571Y-50711904D01*
X111694047Y-50651428D01*
X111754523Y-50530476D01*
X111754523Y-50288571D01*
X111694047Y-50167619D01*
X111633571Y-50107142D01*
X111512619Y-50046666D01*
X110484523Y-50046666D01*
X110484523Y-49562857D02*
X110484523Y-48776666D01*
X110968333Y-49200000D01*
X110968333Y-49018571D01*
X111028809Y-48897619D01*
X111089285Y-48837142D01*
X111210238Y-48776666D01*
X111512619Y-48776666D01*
X111633571Y-48837142D01*
X111694047Y-48897619D01*
X111754523Y-49018571D01*
X111754523Y-49381428D01*
X111694047Y-49502380D01*
X111633571Y-49562857D01*
X110484523Y-47688095D02*
X110484523Y-47930000D01*
X110545000Y-48050952D01*
X110605476Y-48111428D01*
X110786904Y-48232380D01*
X111028809Y-48292857D01*
X111512619Y-48292857D01*
X111633571Y-48232380D01*
X111694047Y-48171904D01*
X111754523Y-48050952D01*
X111754523Y-47809047D01*
X111694047Y-47688095D01*
X111633571Y-47627619D01*
X111512619Y-47567142D01*
X111210238Y-47567142D01*
X111089285Y-47627619D01*
X111028809Y-47688095D01*
X110968333Y-47809047D01*
X110968333Y-48050952D01*
X111028809Y-48171904D01*
X111089285Y-48232380D01*
X111210238Y-48292857D01*
%TO.C,U37*%
X123817619Y-106814523D02*
X123817619Y-107842619D01*
X123878095Y-107963571D01*
X123938571Y-108024047D01*
X124059523Y-108084523D01*
X124301428Y-108084523D01*
X124422380Y-108024047D01*
X124482857Y-107963571D01*
X124543333Y-107842619D01*
X124543333Y-106814523D01*
X125027142Y-106814523D02*
X125813333Y-106814523D01*
X125390000Y-107298333D01*
X125571428Y-107298333D01*
X125692380Y-107358809D01*
X125752857Y-107419285D01*
X125813333Y-107540238D01*
X125813333Y-107842619D01*
X125752857Y-107963571D01*
X125692380Y-108024047D01*
X125571428Y-108084523D01*
X125208571Y-108084523D01*
X125087619Y-108024047D01*
X125027142Y-107963571D01*
X126236666Y-106814523D02*
X127083333Y-106814523D01*
X126539047Y-108084523D01*
%TO.C,U43*%
X123907619Y-117714523D02*
X123907619Y-118742619D01*
X123968095Y-118863571D01*
X124028571Y-118924047D01*
X124149523Y-118984523D01*
X124391428Y-118984523D01*
X124512380Y-118924047D01*
X124572857Y-118863571D01*
X124633333Y-118742619D01*
X124633333Y-117714523D01*
X125782380Y-118137857D02*
X125782380Y-118984523D01*
X125480000Y-117654047D02*
X125177619Y-118561190D01*
X125963809Y-118561190D01*
X126326666Y-117714523D02*
X127112857Y-117714523D01*
X126689523Y-118198333D01*
X126870952Y-118198333D01*
X126991904Y-118258809D01*
X127052380Y-118319285D01*
X127112857Y-118440238D01*
X127112857Y-118742619D01*
X127052380Y-118863571D01*
X126991904Y-118924047D01*
X126870952Y-118984523D01*
X126508095Y-118984523D01*
X126387142Y-118924047D01*
X126326666Y-118863571D01*
%TO.C,U21*%
X133697619Y-40854523D02*
X133697619Y-41882619D01*
X133758095Y-42003571D01*
X133818571Y-42064047D01*
X133939523Y-42124523D01*
X134181428Y-42124523D01*
X134302380Y-42064047D01*
X134362857Y-42003571D01*
X134423333Y-41882619D01*
X134423333Y-40854523D01*
X134967619Y-40975476D02*
X135028095Y-40915000D01*
X135149047Y-40854523D01*
X135451428Y-40854523D01*
X135572380Y-40915000D01*
X135632857Y-40975476D01*
X135693333Y-41096428D01*
X135693333Y-41217380D01*
X135632857Y-41398809D01*
X134907142Y-42124523D01*
X135693333Y-42124523D01*
X136902857Y-42124523D02*
X136177142Y-42124523D01*
X136540000Y-42124523D02*
X136540000Y-40854523D01*
X136419047Y-41035952D01*
X136298095Y-41156904D01*
X136177142Y-41217380D01*
%TO.C,U15*%
X190097619Y-110144523D02*
X190097619Y-111172619D01*
X190158095Y-111293571D01*
X190218571Y-111354047D01*
X190339523Y-111414523D01*
X190581428Y-111414523D01*
X190702380Y-111354047D01*
X190762857Y-111293571D01*
X190823333Y-111172619D01*
X190823333Y-110144523D01*
X192093333Y-111414523D02*
X191367619Y-111414523D01*
X191730476Y-111414523D02*
X191730476Y-110144523D01*
X191609523Y-110325952D01*
X191488571Y-110446904D01*
X191367619Y-110507380D01*
X193242380Y-110144523D02*
X192637619Y-110144523D01*
X192577142Y-110749285D01*
X192637619Y-110688809D01*
X192758571Y-110628333D01*
X193060952Y-110628333D01*
X193181904Y-110688809D01*
X193242380Y-110749285D01*
X193302857Y-110870238D01*
X193302857Y-111172619D01*
X193242380Y-111293571D01*
X193181904Y-111354047D01*
X193060952Y-111414523D01*
X192758571Y-111414523D01*
X192637619Y-111354047D01*
X192577142Y-111293571D01*
%TO.C,U45*%
X189997619Y-122444523D02*
X189997619Y-123472619D01*
X190058095Y-123593571D01*
X190118571Y-123654047D01*
X190239523Y-123714523D01*
X190481428Y-123714523D01*
X190602380Y-123654047D01*
X190662857Y-123593571D01*
X190723333Y-123472619D01*
X190723333Y-122444523D01*
X191872380Y-122867857D02*
X191872380Y-123714523D01*
X191570000Y-122384047D02*
X191267619Y-123291190D01*
X192053809Y-123291190D01*
X193142380Y-122444523D02*
X192537619Y-122444523D01*
X192477142Y-123049285D01*
X192537619Y-122988809D01*
X192658571Y-122928333D01*
X192960952Y-122928333D01*
X193081904Y-122988809D01*
X193142380Y-123049285D01*
X193202857Y-123170238D01*
X193202857Y-123472619D01*
X193142380Y-123593571D01*
X193081904Y-123654047D01*
X192960952Y-123714523D01*
X192658571Y-123714523D01*
X192537619Y-123654047D01*
X192477142Y-123593571D01*
%TO.C,U28*%
X190047619Y-135034523D02*
X190047619Y-136062619D01*
X190108095Y-136183571D01*
X190168571Y-136244047D01*
X190289523Y-136304523D01*
X190531428Y-136304523D01*
X190652380Y-136244047D01*
X190712857Y-136183571D01*
X190773333Y-136062619D01*
X190773333Y-135034523D01*
X191317619Y-135155476D02*
X191378095Y-135095000D01*
X191499047Y-135034523D01*
X191801428Y-135034523D01*
X191922380Y-135095000D01*
X191982857Y-135155476D01*
X192043333Y-135276428D01*
X192043333Y-135397380D01*
X191982857Y-135578809D01*
X191257142Y-136304523D01*
X192043333Y-136304523D01*
X192769047Y-135578809D02*
X192648095Y-135518333D01*
X192587619Y-135457857D01*
X192527142Y-135336904D01*
X192527142Y-135276428D01*
X192587619Y-135155476D01*
X192648095Y-135095000D01*
X192769047Y-135034523D01*
X193010952Y-135034523D01*
X193131904Y-135095000D01*
X193192380Y-135155476D01*
X193252857Y-135276428D01*
X193252857Y-135336904D01*
X193192380Y-135457857D01*
X193131904Y-135518333D01*
X193010952Y-135578809D01*
X192769047Y-135578809D01*
X192648095Y-135639285D01*
X192587619Y-135699761D01*
X192527142Y-135820714D01*
X192527142Y-136062619D01*
X192587619Y-136183571D01*
X192648095Y-136244047D01*
X192769047Y-136304523D01*
X193010952Y-136304523D01*
X193131904Y-136244047D01*
X193192380Y-136183571D01*
X193252857Y-136062619D01*
X193252857Y-135820714D01*
X193192380Y-135699761D01*
X193131904Y-135639285D01*
X193010952Y-135578809D01*
%TO.C,Q1*%
D13*
X180587619Y-76525238D02*
X180540000Y-76620476D01*
X180444761Y-76715714D01*
X180301904Y-76858571D01*
X180254285Y-76953809D01*
X180254285Y-77049047D01*
X180492380Y-77001428D02*
X180444761Y-77096666D01*
X180349523Y-77191904D01*
X180159047Y-77239523D01*
X179825714Y-77239523D01*
X179635238Y-77191904D01*
X179540000Y-77096666D01*
X179492380Y-77001428D01*
X179492380Y-76810952D01*
X179540000Y-76715714D01*
X179635238Y-76620476D01*
X179825714Y-76572857D01*
X180159047Y-76572857D01*
X180349523Y-76620476D01*
X180444761Y-76715714D01*
X180492380Y-76810952D01*
X180492380Y-77001428D01*
X180492380Y-75620476D02*
X180492380Y-76191904D01*
X180492380Y-75906190D02*
X179492380Y-75906190D01*
X179635238Y-76001428D01*
X179730476Y-76096666D01*
X179778095Y-76191904D01*
%TO.C,C10*%
X92107142Y-49392857D02*
X92154761Y-49440476D01*
X92202380Y-49583333D01*
X92202380Y-49678571D01*
X92154761Y-49821428D01*
X92059523Y-49916666D01*
X91964285Y-49964285D01*
X91773809Y-50011904D01*
X91630952Y-50011904D01*
X91440476Y-49964285D01*
X91345238Y-49916666D01*
X91250000Y-49821428D01*
X91202380Y-49678571D01*
X91202380Y-49583333D01*
X91250000Y-49440476D01*
X91297619Y-49392857D01*
X92202380Y-48440476D02*
X92202380Y-49011904D01*
X92202380Y-48726190D02*
X91202380Y-48726190D01*
X91345238Y-48821428D01*
X91440476Y-48916666D01*
X91488095Y-49011904D01*
X91202380Y-47821428D02*
X91202380Y-47726190D01*
X91250000Y-47630952D01*
X91297619Y-47583333D01*
X91392857Y-47535714D01*
X91583333Y-47488095D01*
X91821428Y-47488095D01*
X92011904Y-47535714D01*
X92107142Y-47583333D01*
X92154761Y-47630952D01*
X92202380Y-47726190D01*
X92202380Y-47821428D01*
X92154761Y-47916666D01*
X92107142Y-47964285D01*
X92011904Y-48011904D01*
X91821428Y-48059523D01*
X91583333Y-48059523D01*
X91392857Y-48011904D01*
X91297619Y-47964285D01*
X91250000Y-47916666D01*
X91202380Y-47821428D01*
%TO.C,C11*%
X203717142Y-135607142D02*
X203669523Y-135654761D01*
X203526666Y-135702380D01*
X203431428Y-135702380D01*
X203288571Y-135654761D01*
X203193333Y-135559523D01*
X203145714Y-135464285D01*
X203098095Y-135273809D01*
X203098095Y-135130952D01*
X203145714Y-134940476D01*
X203193333Y-134845238D01*
X203288571Y-134750000D01*
X203431428Y-134702380D01*
X203526666Y-134702380D01*
X203669523Y-134750000D01*
X203717142Y-134797619D01*
X204669523Y-135702380D02*
X204098095Y-135702380D01*
X204383809Y-135702380D02*
X204383809Y-134702380D01*
X204288571Y-134845238D01*
X204193333Y-134940476D01*
X204098095Y-134988095D01*
X205621904Y-135702380D02*
X205050476Y-135702380D01*
X205336190Y-135702380D02*
X205336190Y-134702380D01*
X205240952Y-134845238D01*
X205145714Y-134940476D01*
X205050476Y-134988095D01*
%TO.C,C12*%
X86802142Y-56537142D02*
X86754523Y-56584761D01*
X86611666Y-56632380D01*
X86516428Y-56632380D01*
X86373571Y-56584761D01*
X86278333Y-56489523D01*
X86230714Y-56394285D01*
X86183095Y-56203809D01*
X86183095Y-56060952D01*
X86230714Y-55870476D01*
X86278333Y-55775238D01*
X86373571Y-55680000D01*
X86516428Y-55632380D01*
X86611666Y-55632380D01*
X86754523Y-55680000D01*
X86802142Y-55727619D01*
X87754523Y-56632380D02*
X87183095Y-56632380D01*
X87468809Y-56632380D02*
X87468809Y-55632380D01*
X87373571Y-55775238D01*
X87278333Y-55870476D01*
X87183095Y-55918095D01*
X88135476Y-55727619D02*
X88183095Y-55680000D01*
X88278333Y-55632380D01*
X88516428Y-55632380D01*
X88611666Y-55680000D01*
X88659285Y-55727619D01*
X88706904Y-55822857D01*
X88706904Y-55918095D01*
X88659285Y-56060952D01*
X88087857Y-56632380D01*
X88706904Y-56632380D01*
%TO.C,C13*%
X137067142Y-70812857D02*
X137114761Y-70860476D01*
X137162380Y-71003333D01*
X137162380Y-71098571D01*
X137114761Y-71241428D01*
X137019523Y-71336666D01*
X136924285Y-71384285D01*
X136733809Y-71431904D01*
X136590952Y-71431904D01*
X136400476Y-71384285D01*
X136305238Y-71336666D01*
X136210000Y-71241428D01*
X136162380Y-71098571D01*
X136162380Y-71003333D01*
X136210000Y-70860476D01*
X136257619Y-70812857D01*
X137162380Y-69860476D02*
X137162380Y-70431904D01*
X137162380Y-70146190D02*
X136162380Y-70146190D01*
X136305238Y-70241428D01*
X136400476Y-70336666D01*
X136448095Y-70431904D01*
X136162380Y-69527142D02*
X136162380Y-68908095D01*
X136543333Y-69241428D01*
X136543333Y-69098571D01*
X136590952Y-69003333D01*
X136638571Y-68955714D01*
X136733809Y-68908095D01*
X136971904Y-68908095D01*
X137067142Y-68955714D01*
X137114761Y-69003333D01*
X137162380Y-69098571D01*
X137162380Y-69384285D01*
X137114761Y-69479523D01*
X137067142Y-69527142D01*
%TO.C,C14*%
X145237142Y-99397142D02*
X145189523Y-99444761D01*
X145046666Y-99492380D01*
X144951428Y-99492380D01*
X144808571Y-99444761D01*
X144713333Y-99349523D01*
X144665714Y-99254285D01*
X144618095Y-99063809D01*
X144618095Y-98920952D01*
X144665714Y-98730476D01*
X144713333Y-98635238D01*
X144808571Y-98540000D01*
X144951428Y-98492380D01*
X145046666Y-98492380D01*
X145189523Y-98540000D01*
X145237142Y-98587619D01*
X146189523Y-99492380D02*
X145618095Y-99492380D01*
X145903809Y-99492380D02*
X145903809Y-98492380D01*
X145808571Y-98635238D01*
X145713333Y-98730476D01*
X145618095Y-98778095D01*
X147046666Y-98825714D02*
X147046666Y-99492380D01*
X146808571Y-98444761D02*
X146570476Y-99159047D01*
X147189523Y-99159047D01*
%TO.C,C15*%
X153237142Y-61357142D02*
X153189523Y-61404761D01*
X153046666Y-61452380D01*
X152951428Y-61452380D01*
X152808571Y-61404761D01*
X152713333Y-61309523D01*
X152665714Y-61214285D01*
X152618095Y-61023809D01*
X152618095Y-60880952D01*
X152665714Y-60690476D01*
X152713333Y-60595238D01*
X152808571Y-60500000D01*
X152951428Y-60452380D01*
X153046666Y-60452380D01*
X153189523Y-60500000D01*
X153237142Y-60547619D01*
X154189523Y-61452380D02*
X153618095Y-61452380D01*
X153903809Y-61452380D02*
X153903809Y-60452380D01*
X153808571Y-60595238D01*
X153713333Y-60690476D01*
X153618095Y-60738095D01*
X155094285Y-60452380D02*
X154618095Y-60452380D01*
X154570476Y-60928571D01*
X154618095Y-60880952D01*
X154713333Y-60833333D01*
X154951428Y-60833333D01*
X155046666Y-60880952D01*
X155094285Y-60928571D01*
X155141904Y-61023809D01*
X155141904Y-61261904D01*
X155094285Y-61357142D01*
X155046666Y-61404761D01*
X154951428Y-61452380D01*
X154713333Y-61452380D01*
X154618095Y-61404761D01*
X154570476Y-61357142D01*
%TO.C,C16*%
X134812142Y-61787142D02*
X134764523Y-61834761D01*
X134621666Y-61882380D01*
X134526428Y-61882380D01*
X134383571Y-61834761D01*
X134288333Y-61739523D01*
X134240714Y-61644285D01*
X134193095Y-61453809D01*
X134193095Y-61310952D01*
X134240714Y-61120476D01*
X134288333Y-61025238D01*
X134383571Y-60930000D01*
X134526428Y-60882380D01*
X134621666Y-60882380D01*
X134764523Y-60930000D01*
X134812142Y-60977619D01*
X135764523Y-61882380D02*
X135193095Y-61882380D01*
X135478809Y-61882380D02*
X135478809Y-60882380D01*
X135383571Y-61025238D01*
X135288333Y-61120476D01*
X135193095Y-61168095D01*
X136621666Y-60882380D02*
X136431190Y-60882380D01*
X136335952Y-60930000D01*
X136288333Y-60977619D01*
X136193095Y-61120476D01*
X136145476Y-61310952D01*
X136145476Y-61691904D01*
X136193095Y-61787142D01*
X136240714Y-61834761D01*
X136335952Y-61882380D01*
X136526428Y-61882380D01*
X136621666Y-61834761D01*
X136669285Y-61787142D01*
X136716904Y-61691904D01*
X136716904Y-61453809D01*
X136669285Y-61358571D01*
X136621666Y-61310952D01*
X136526428Y-61263333D01*
X136335952Y-61263333D01*
X136240714Y-61310952D01*
X136193095Y-61358571D01*
X136145476Y-61453809D01*
%TO.C,C17*%
X140687142Y-96422857D02*
X140734761Y-96470476D01*
X140782380Y-96613333D01*
X140782380Y-96708571D01*
X140734761Y-96851428D01*
X140639523Y-96946666D01*
X140544285Y-96994285D01*
X140353809Y-97041904D01*
X140210952Y-97041904D01*
X140020476Y-96994285D01*
X139925238Y-96946666D01*
X139830000Y-96851428D01*
X139782380Y-96708571D01*
X139782380Y-96613333D01*
X139830000Y-96470476D01*
X139877619Y-96422857D01*
X140782380Y-95470476D02*
X140782380Y-96041904D01*
X140782380Y-95756190D02*
X139782380Y-95756190D01*
X139925238Y-95851428D01*
X140020476Y-95946666D01*
X140068095Y-96041904D01*
X139782380Y-95137142D02*
X139782380Y-94470476D01*
X140782380Y-94899047D01*
%TO.C,C21*%
X119997142Y-45592857D02*
X120044761Y-45640476D01*
X120092380Y-45783333D01*
X120092380Y-45878571D01*
X120044761Y-46021428D01*
X119949523Y-46116666D01*
X119854285Y-46164285D01*
X119663809Y-46211904D01*
X119520952Y-46211904D01*
X119330476Y-46164285D01*
X119235238Y-46116666D01*
X119140000Y-46021428D01*
X119092380Y-45878571D01*
X119092380Y-45783333D01*
X119140000Y-45640476D01*
X119187619Y-45592857D01*
X119187619Y-45211904D02*
X119140000Y-45164285D01*
X119092380Y-45069047D01*
X119092380Y-44830952D01*
X119140000Y-44735714D01*
X119187619Y-44688095D01*
X119282857Y-44640476D01*
X119378095Y-44640476D01*
X119520952Y-44688095D01*
X120092380Y-45259523D01*
X120092380Y-44640476D01*
X120092380Y-43688095D02*
X120092380Y-44259523D01*
X120092380Y-43973809D02*
X119092380Y-43973809D01*
X119235238Y-44069047D01*
X119330476Y-44164285D01*
X119378095Y-44259523D01*
%TO.C,C22*%
X194087142Y-98392857D02*
X194134761Y-98440476D01*
X194182380Y-98583333D01*
X194182380Y-98678571D01*
X194134761Y-98821428D01*
X194039523Y-98916666D01*
X193944285Y-98964285D01*
X193753809Y-99011904D01*
X193610952Y-99011904D01*
X193420476Y-98964285D01*
X193325238Y-98916666D01*
X193230000Y-98821428D01*
X193182380Y-98678571D01*
X193182380Y-98583333D01*
X193230000Y-98440476D01*
X193277619Y-98392857D01*
X193277619Y-98011904D02*
X193230000Y-97964285D01*
X193182380Y-97869047D01*
X193182380Y-97630952D01*
X193230000Y-97535714D01*
X193277619Y-97488095D01*
X193372857Y-97440476D01*
X193468095Y-97440476D01*
X193610952Y-97488095D01*
X194182380Y-98059523D01*
X194182380Y-97440476D01*
X193277619Y-97059523D02*
X193230000Y-97011904D01*
X193182380Y-96916666D01*
X193182380Y-96678571D01*
X193230000Y-96583333D01*
X193277619Y-96535714D01*
X193372857Y-96488095D01*
X193468095Y-96488095D01*
X193610952Y-96535714D01*
X194182380Y-97107142D01*
X194182380Y-96488095D01*
%TO.C,C23*%
X119977142Y-101372857D02*
X120024761Y-101420476D01*
X120072380Y-101563333D01*
X120072380Y-101658571D01*
X120024761Y-101801428D01*
X119929523Y-101896666D01*
X119834285Y-101944285D01*
X119643809Y-101991904D01*
X119500952Y-101991904D01*
X119310476Y-101944285D01*
X119215238Y-101896666D01*
X119120000Y-101801428D01*
X119072380Y-101658571D01*
X119072380Y-101563333D01*
X119120000Y-101420476D01*
X119167619Y-101372857D01*
X119167619Y-100991904D02*
X119120000Y-100944285D01*
X119072380Y-100849047D01*
X119072380Y-100610952D01*
X119120000Y-100515714D01*
X119167619Y-100468095D01*
X119262857Y-100420476D01*
X119358095Y-100420476D01*
X119500952Y-100468095D01*
X120072380Y-101039523D01*
X120072380Y-100420476D01*
X119072380Y-100087142D02*
X119072380Y-99468095D01*
X119453333Y-99801428D01*
X119453333Y-99658571D01*
X119500952Y-99563333D01*
X119548571Y-99515714D01*
X119643809Y-99468095D01*
X119881904Y-99468095D01*
X119977142Y-99515714D01*
X120024761Y-99563333D01*
X120072380Y-99658571D01*
X120072380Y-99944285D01*
X120024761Y-100039523D01*
X119977142Y-100087142D01*
%TO.C,C24*%
X135262142Y-123627142D02*
X135214523Y-123674761D01*
X135071666Y-123722380D01*
X134976428Y-123722380D01*
X134833571Y-123674761D01*
X134738333Y-123579523D01*
X134690714Y-123484285D01*
X134643095Y-123293809D01*
X134643095Y-123150952D01*
X134690714Y-122960476D01*
X134738333Y-122865238D01*
X134833571Y-122770000D01*
X134976428Y-122722380D01*
X135071666Y-122722380D01*
X135214523Y-122770000D01*
X135262142Y-122817619D01*
X135643095Y-122817619D02*
X135690714Y-122770000D01*
X135785952Y-122722380D01*
X136024047Y-122722380D01*
X136119285Y-122770000D01*
X136166904Y-122817619D01*
X136214523Y-122912857D01*
X136214523Y-123008095D01*
X136166904Y-123150952D01*
X135595476Y-123722380D01*
X136214523Y-123722380D01*
X137071666Y-123055714D02*
X137071666Y-123722380D01*
X136833571Y-122674761D02*
X136595476Y-123389047D01*
X137214523Y-123389047D01*
%TO.C,C25*%
X89647142Y-130387857D02*
X89694761Y-130435476D01*
X89742380Y-130578333D01*
X89742380Y-130673571D01*
X89694761Y-130816428D01*
X89599523Y-130911666D01*
X89504285Y-130959285D01*
X89313809Y-131006904D01*
X89170952Y-131006904D01*
X88980476Y-130959285D01*
X88885238Y-130911666D01*
X88790000Y-130816428D01*
X88742380Y-130673571D01*
X88742380Y-130578333D01*
X88790000Y-130435476D01*
X88837619Y-130387857D01*
X88837619Y-130006904D02*
X88790000Y-129959285D01*
X88742380Y-129864047D01*
X88742380Y-129625952D01*
X88790000Y-129530714D01*
X88837619Y-129483095D01*
X88932857Y-129435476D01*
X89028095Y-129435476D01*
X89170952Y-129483095D01*
X89742380Y-130054523D01*
X89742380Y-129435476D01*
X88742380Y-128530714D02*
X88742380Y-129006904D01*
X89218571Y-129054523D01*
X89170952Y-129006904D01*
X89123333Y-128911666D01*
X89123333Y-128673571D01*
X89170952Y-128578333D01*
X89218571Y-128530714D01*
X89313809Y-128483095D01*
X89551904Y-128483095D01*
X89647142Y-128530714D01*
X89694761Y-128578333D01*
X89742380Y-128673571D01*
X89742380Y-128911666D01*
X89694761Y-129006904D01*
X89647142Y-129054523D01*
%TO.C,C27*%
X120147142Y-112422857D02*
X120194761Y-112470476D01*
X120242380Y-112613333D01*
X120242380Y-112708571D01*
X120194761Y-112851428D01*
X120099523Y-112946666D01*
X120004285Y-112994285D01*
X119813809Y-113041904D01*
X119670952Y-113041904D01*
X119480476Y-112994285D01*
X119385238Y-112946666D01*
X119290000Y-112851428D01*
X119242380Y-112708571D01*
X119242380Y-112613333D01*
X119290000Y-112470476D01*
X119337619Y-112422857D01*
X119337619Y-112041904D02*
X119290000Y-111994285D01*
X119242380Y-111899047D01*
X119242380Y-111660952D01*
X119290000Y-111565714D01*
X119337619Y-111518095D01*
X119432857Y-111470476D01*
X119528095Y-111470476D01*
X119670952Y-111518095D01*
X120242380Y-112089523D01*
X120242380Y-111470476D01*
X119242380Y-111137142D02*
X119242380Y-110470476D01*
X120242380Y-110899047D01*
%TO.C,C28*%
X154847142Y-46092857D02*
X154894761Y-46140476D01*
X154942380Y-46283333D01*
X154942380Y-46378571D01*
X154894761Y-46521428D01*
X154799523Y-46616666D01*
X154704285Y-46664285D01*
X154513809Y-46711904D01*
X154370952Y-46711904D01*
X154180476Y-46664285D01*
X154085238Y-46616666D01*
X153990000Y-46521428D01*
X153942380Y-46378571D01*
X153942380Y-46283333D01*
X153990000Y-46140476D01*
X154037619Y-46092857D01*
X154037619Y-45711904D02*
X153990000Y-45664285D01*
X153942380Y-45569047D01*
X153942380Y-45330952D01*
X153990000Y-45235714D01*
X154037619Y-45188095D01*
X154132857Y-45140476D01*
X154228095Y-45140476D01*
X154370952Y-45188095D01*
X154942380Y-45759523D01*
X154942380Y-45140476D01*
X154370952Y-44569047D02*
X154323333Y-44664285D01*
X154275714Y-44711904D01*
X154180476Y-44759523D01*
X154132857Y-44759523D01*
X154037619Y-44711904D01*
X153990000Y-44664285D01*
X153942380Y-44569047D01*
X153942380Y-44378571D01*
X153990000Y-44283333D01*
X154037619Y-44235714D01*
X154132857Y-44188095D01*
X154180476Y-44188095D01*
X154275714Y-44235714D01*
X154323333Y-44283333D01*
X154370952Y-44378571D01*
X154370952Y-44569047D01*
X154418571Y-44664285D01*
X154466190Y-44711904D01*
X154561428Y-44759523D01*
X154751904Y-44759523D01*
X154847142Y-44711904D01*
X154894761Y-44664285D01*
X154942380Y-44569047D01*
X154942380Y-44378571D01*
X154894761Y-44283333D01*
X154847142Y-44235714D01*
X154751904Y-44188095D01*
X154561428Y-44188095D01*
X154466190Y-44235714D01*
X154418571Y-44283333D01*
X154370952Y-44378571D01*
%TO.C,C29*%
X145477142Y-41217142D02*
X145429523Y-41264761D01*
X145286666Y-41312380D01*
X145191428Y-41312380D01*
X145048571Y-41264761D01*
X144953333Y-41169523D01*
X144905714Y-41074285D01*
X144858095Y-40883809D01*
X144858095Y-40740952D01*
X144905714Y-40550476D01*
X144953333Y-40455238D01*
X145048571Y-40360000D01*
X145191428Y-40312380D01*
X145286666Y-40312380D01*
X145429523Y-40360000D01*
X145477142Y-40407619D01*
X145858095Y-40407619D02*
X145905714Y-40360000D01*
X146000952Y-40312380D01*
X146239047Y-40312380D01*
X146334285Y-40360000D01*
X146381904Y-40407619D01*
X146429523Y-40502857D01*
X146429523Y-40598095D01*
X146381904Y-40740952D01*
X145810476Y-41312380D01*
X146429523Y-41312380D01*
X146905714Y-41312380D02*
X147096190Y-41312380D01*
X147191428Y-41264761D01*
X147239047Y-41217142D01*
X147334285Y-41074285D01*
X147381904Y-40883809D01*
X147381904Y-40502857D01*
X147334285Y-40407619D01*
X147286666Y-40360000D01*
X147191428Y-40312380D01*
X147000952Y-40312380D01*
X146905714Y-40360000D01*
X146858095Y-40407619D01*
X146810476Y-40502857D01*
X146810476Y-40740952D01*
X146858095Y-40836190D01*
X146905714Y-40883809D01*
X147000952Y-40931428D01*
X147191428Y-40931428D01*
X147286666Y-40883809D01*
X147334285Y-40836190D01*
X147381904Y-40740952D01*
%TO.C,C31*%
X211167142Y-71107142D02*
X211119523Y-71154761D01*
X210976666Y-71202380D01*
X210881428Y-71202380D01*
X210738571Y-71154761D01*
X210643333Y-71059523D01*
X210595714Y-70964285D01*
X210548095Y-70773809D01*
X210548095Y-70630952D01*
X210595714Y-70440476D01*
X210643333Y-70345238D01*
X210738571Y-70250000D01*
X210881428Y-70202380D01*
X210976666Y-70202380D01*
X211119523Y-70250000D01*
X211167142Y-70297619D01*
X211500476Y-70202380D02*
X212119523Y-70202380D01*
X211786190Y-70583333D01*
X211929047Y-70583333D01*
X212024285Y-70630952D01*
X212071904Y-70678571D01*
X212119523Y-70773809D01*
X212119523Y-71011904D01*
X212071904Y-71107142D01*
X212024285Y-71154761D01*
X211929047Y-71202380D01*
X211643333Y-71202380D01*
X211548095Y-71154761D01*
X211500476Y-71107142D01*
X213071904Y-71202380D02*
X212500476Y-71202380D01*
X212786190Y-71202380D02*
X212786190Y-70202380D01*
X212690952Y-70345238D01*
X212595714Y-70440476D01*
X212500476Y-70488095D01*
%TO.C,C32*%
X200107142Y-71107142D02*
X200059523Y-71154761D01*
X199916666Y-71202380D01*
X199821428Y-71202380D01*
X199678571Y-71154761D01*
X199583333Y-71059523D01*
X199535714Y-70964285D01*
X199488095Y-70773809D01*
X199488095Y-70630952D01*
X199535714Y-70440476D01*
X199583333Y-70345238D01*
X199678571Y-70250000D01*
X199821428Y-70202380D01*
X199916666Y-70202380D01*
X200059523Y-70250000D01*
X200107142Y-70297619D01*
X200440476Y-70202380D02*
X201059523Y-70202380D01*
X200726190Y-70583333D01*
X200869047Y-70583333D01*
X200964285Y-70630952D01*
X201011904Y-70678571D01*
X201059523Y-70773809D01*
X201059523Y-71011904D01*
X201011904Y-71107142D01*
X200964285Y-71154761D01*
X200869047Y-71202380D01*
X200583333Y-71202380D01*
X200488095Y-71154761D01*
X200440476Y-71107142D01*
X201440476Y-70297619D02*
X201488095Y-70250000D01*
X201583333Y-70202380D01*
X201821428Y-70202380D01*
X201916666Y-70250000D01*
X201964285Y-70297619D01*
X202011904Y-70392857D01*
X202011904Y-70488095D01*
X201964285Y-70630952D01*
X201392857Y-71202380D01*
X202011904Y-71202380D01*
%TO.C,C33*%
X188857142Y-71107142D02*
X188809523Y-71154761D01*
X188666666Y-71202380D01*
X188571428Y-71202380D01*
X188428571Y-71154761D01*
X188333333Y-71059523D01*
X188285714Y-70964285D01*
X188238095Y-70773809D01*
X188238095Y-70630952D01*
X188285714Y-70440476D01*
X188333333Y-70345238D01*
X188428571Y-70250000D01*
X188571428Y-70202380D01*
X188666666Y-70202380D01*
X188809523Y-70250000D01*
X188857142Y-70297619D01*
X189190476Y-70202380D02*
X189809523Y-70202380D01*
X189476190Y-70583333D01*
X189619047Y-70583333D01*
X189714285Y-70630952D01*
X189761904Y-70678571D01*
X189809523Y-70773809D01*
X189809523Y-71011904D01*
X189761904Y-71107142D01*
X189714285Y-71154761D01*
X189619047Y-71202380D01*
X189333333Y-71202380D01*
X189238095Y-71154761D01*
X189190476Y-71107142D01*
X190142857Y-70202380D02*
X190761904Y-70202380D01*
X190428571Y-70583333D01*
X190571428Y-70583333D01*
X190666666Y-70630952D01*
X190714285Y-70678571D01*
X190761904Y-70773809D01*
X190761904Y-71011904D01*
X190714285Y-71107142D01*
X190666666Y-71154761D01*
X190571428Y-71202380D01*
X190285714Y-71202380D01*
X190190476Y-71154761D01*
X190142857Y-71107142D01*
%TO.C,C34*%
X177357142Y-71107142D02*
X177309523Y-71154761D01*
X177166666Y-71202380D01*
X177071428Y-71202380D01*
X176928571Y-71154761D01*
X176833333Y-71059523D01*
X176785714Y-70964285D01*
X176738095Y-70773809D01*
X176738095Y-70630952D01*
X176785714Y-70440476D01*
X176833333Y-70345238D01*
X176928571Y-70250000D01*
X177071428Y-70202380D01*
X177166666Y-70202380D01*
X177309523Y-70250000D01*
X177357142Y-70297619D01*
X177690476Y-70202380D02*
X178309523Y-70202380D01*
X177976190Y-70583333D01*
X178119047Y-70583333D01*
X178214285Y-70630952D01*
X178261904Y-70678571D01*
X178309523Y-70773809D01*
X178309523Y-71011904D01*
X178261904Y-71107142D01*
X178214285Y-71154761D01*
X178119047Y-71202380D01*
X177833333Y-71202380D01*
X177738095Y-71154761D01*
X177690476Y-71107142D01*
X179166666Y-70535714D02*
X179166666Y-71202380D01*
X178928571Y-70154761D02*
X178690476Y-70869047D01*
X179309523Y-70869047D01*
%TO.C,C35*%
X99607142Y-58927142D02*
X99559523Y-58974761D01*
X99416666Y-59022380D01*
X99321428Y-59022380D01*
X99178571Y-58974761D01*
X99083333Y-58879523D01*
X99035714Y-58784285D01*
X98988095Y-58593809D01*
X98988095Y-58450952D01*
X99035714Y-58260476D01*
X99083333Y-58165238D01*
X99178571Y-58070000D01*
X99321428Y-58022380D01*
X99416666Y-58022380D01*
X99559523Y-58070000D01*
X99607142Y-58117619D01*
X99940476Y-58022380D02*
X100559523Y-58022380D01*
X100226190Y-58403333D01*
X100369047Y-58403333D01*
X100464285Y-58450952D01*
X100511904Y-58498571D01*
X100559523Y-58593809D01*
X100559523Y-58831904D01*
X100511904Y-58927142D01*
X100464285Y-58974761D01*
X100369047Y-59022380D01*
X100083333Y-59022380D01*
X99988095Y-58974761D01*
X99940476Y-58927142D01*
X101464285Y-58022380D02*
X100988095Y-58022380D01*
X100940476Y-58498571D01*
X100988095Y-58450952D01*
X101083333Y-58403333D01*
X101321428Y-58403333D01*
X101416666Y-58450952D01*
X101464285Y-58498571D01*
X101511904Y-58593809D01*
X101511904Y-58831904D01*
X101464285Y-58927142D01*
X101416666Y-58974761D01*
X101321428Y-59022380D01*
X101083333Y-59022380D01*
X100988095Y-58974761D01*
X100940476Y-58927142D01*
%TO.C,C36*%
X106597142Y-43577142D02*
X106549523Y-43624761D01*
X106406666Y-43672380D01*
X106311428Y-43672380D01*
X106168571Y-43624761D01*
X106073333Y-43529523D01*
X106025714Y-43434285D01*
X105978095Y-43243809D01*
X105978095Y-43100952D01*
X106025714Y-42910476D01*
X106073333Y-42815238D01*
X106168571Y-42720000D01*
X106311428Y-42672380D01*
X106406666Y-42672380D01*
X106549523Y-42720000D01*
X106597142Y-42767619D01*
X106930476Y-42672380D02*
X107549523Y-42672380D01*
X107216190Y-43053333D01*
X107359047Y-43053333D01*
X107454285Y-43100952D01*
X107501904Y-43148571D01*
X107549523Y-43243809D01*
X107549523Y-43481904D01*
X107501904Y-43577142D01*
X107454285Y-43624761D01*
X107359047Y-43672380D01*
X107073333Y-43672380D01*
X106978095Y-43624761D01*
X106930476Y-43577142D01*
X108406666Y-42672380D02*
X108216190Y-42672380D01*
X108120952Y-42720000D01*
X108073333Y-42767619D01*
X107978095Y-42910476D01*
X107930476Y-43100952D01*
X107930476Y-43481904D01*
X107978095Y-43577142D01*
X108025714Y-43624761D01*
X108120952Y-43672380D01*
X108311428Y-43672380D01*
X108406666Y-43624761D01*
X108454285Y-43577142D01*
X108501904Y-43481904D01*
X108501904Y-43243809D01*
X108454285Y-43148571D01*
X108406666Y-43100952D01*
X108311428Y-43053333D01*
X108120952Y-43053333D01*
X108025714Y-43100952D01*
X107978095Y-43148571D01*
X107930476Y-43243809D01*
%TO.C,C37*%
X181637142Y-133207142D02*
X181589523Y-133254761D01*
X181446666Y-133302380D01*
X181351428Y-133302380D01*
X181208571Y-133254761D01*
X181113333Y-133159523D01*
X181065714Y-133064285D01*
X181018095Y-132873809D01*
X181018095Y-132730952D01*
X181065714Y-132540476D01*
X181113333Y-132445238D01*
X181208571Y-132350000D01*
X181351428Y-132302380D01*
X181446666Y-132302380D01*
X181589523Y-132350000D01*
X181637142Y-132397619D01*
X181970476Y-132302380D02*
X182589523Y-132302380D01*
X182256190Y-132683333D01*
X182399047Y-132683333D01*
X182494285Y-132730952D01*
X182541904Y-132778571D01*
X182589523Y-132873809D01*
X182589523Y-133111904D01*
X182541904Y-133207142D01*
X182494285Y-133254761D01*
X182399047Y-133302380D01*
X182113333Y-133302380D01*
X182018095Y-133254761D01*
X181970476Y-133207142D01*
X182922857Y-132302380D02*
X183589523Y-132302380D01*
X183160952Y-133302380D01*
%TO.C,C41*%
X182517142Y-114027142D02*
X182469523Y-114074761D01*
X182326666Y-114122380D01*
X182231428Y-114122380D01*
X182088571Y-114074761D01*
X181993333Y-113979523D01*
X181945714Y-113884285D01*
X181898095Y-113693809D01*
X181898095Y-113550952D01*
X181945714Y-113360476D01*
X181993333Y-113265238D01*
X182088571Y-113170000D01*
X182231428Y-113122380D01*
X182326666Y-113122380D01*
X182469523Y-113170000D01*
X182517142Y-113217619D01*
X183374285Y-113455714D02*
X183374285Y-114122380D01*
X183136190Y-113074761D02*
X182898095Y-113789047D01*
X183517142Y-113789047D01*
X184421904Y-114122380D02*
X183850476Y-114122380D01*
X184136190Y-114122380D02*
X184136190Y-113122380D01*
X184040952Y-113265238D01*
X183945714Y-113360476D01*
X183850476Y-113408095D01*
%TO.C,C42*%
X180557142Y-104312857D02*
X180604761Y-104360476D01*
X180652380Y-104503333D01*
X180652380Y-104598571D01*
X180604761Y-104741428D01*
X180509523Y-104836666D01*
X180414285Y-104884285D01*
X180223809Y-104931904D01*
X180080952Y-104931904D01*
X179890476Y-104884285D01*
X179795238Y-104836666D01*
X179700000Y-104741428D01*
X179652380Y-104598571D01*
X179652380Y-104503333D01*
X179700000Y-104360476D01*
X179747619Y-104312857D01*
X179985714Y-103455714D02*
X180652380Y-103455714D01*
X179604761Y-103693809D02*
X180319047Y-103931904D01*
X180319047Y-103312857D01*
X179747619Y-102979523D02*
X179700000Y-102931904D01*
X179652380Y-102836666D01*
X179652380Y-102598571D01*
X179700000Y-102503333D01*
X179747619Y-102455714D01*
X179842857Y-102408095D01*
X179938095Y-102408095D01*
X180080952Y-102455714D01*
X180652380Y-103027142D01*
X180652380Y-102408095D01*
%TO.C,C43*%
X184457142Y-98807142D02*
X184409523Y-98854761D01*
X184266666Y-98902380D01*
X184171428Y-98902380D01*
X184028571Y-98854761D01*
X183933333Y-98759523D01*
X183885714Y-98664285D01*
X183838095Y-98473809D01*
X183838095Y-98330952D01*
X183885714Y-98140476D01*
X183933333Y-98045238D01*
X184028571Y-97950000D01*
X184171428Y-97902380D01*
X184266666Y-97902380D01*
X184409523Y-97950000D01*
X184457142Y-97997619D01*
X185314285Y-98235714D02*
X185314285Y-98902380D01*
X185076190Y-97854761D02*
X184838095Y-98569047D01*
X185457142Y-98569047D01*
X185742857Y-97902380D02*
X186361904Y-97902380D01*
X186028571Y-98283333D01*
X186171428Y-98283333D01*
X186266666Y-98330952D01*
X186314285Y-98378571D01*
X186361904Y-98473809D01*
X186361904Y-98711904D01*
X186314285Y-98807142D01*
X186266666Y-98854761D01*
X186171428Y-98902380D01*
X185885714Y-98902380D01*
X185790476Y-98854761D01*
X185742857Y-98807142D01*
%TO.C,C44*%
X205527142Y-99512857D02*
X205574761Y-99560476D01*
X205622380Y-99703333D01*
X205622380Y-99798571D01*
X205574761Y-99941428D01*
X205479523Y-100036666D01*
X205384285Y-100084285D01*
X205193809Y-100131904D01*
X205050952Y-100131904D01*
X204860476Y-100084285D01*
X204765238Y-100036666D01*
X204670000Y-99941428D01*
X204622380Y-99798571D01*
X204622380Y-99703333D01*
X204670000Y-99560476D01*
X204717619Y-99512857D01*
X204955714Y-98655714D02*
X205622380Y-98655714D01*
X204574761Y-98893809D02*
X205289047Y-99131904D01*
X205289047Y-98512857D01*
X204955714Y-97703333D02*
X205622380Y-97703333D01*
X204574761Y-97941428D02*
X205289047Y-98179523D01*
X205289047Y-97560476D01*
%TO.C,C45*%
X138407142Y-119232857D02*
X138454761Y-119280476D01*
X138502380Y-119423333D01*
X138502380Y-119518571D01*
X138454761Y-119661428D01*
X138359523Y-119756666D01*
X138264285Y-119804285D01*
X138073809Y-119851904D01*
X137930952Y-119851904D01*
X137740476Y-119804285D01*
X137645238Y-119756666D01*
X137550000Y-119661428D01*
X137502380Y-119518571D01*
X137502380Y-119423333D01*
X137550000Y-119280476D01*
X137597619Y-119232857D01*
X137835714Y-118375714D02*
X138502380Y-118375714D01*
X137454761Y-118613809D02*
X138169047Y-118851904D01*
X138169047Y-118232857D01*
X137502380Y-117375714D02*
X137502380Y-117851904D01*
X137978571Y-117899523D01*
X137930952Y-117851904D01*
X137883333Y-117756666D01*
X137883333Y-117518571D01*
X137930952Y-117423333D01*
X137978571Y-117375714D01*
X138073809Y-117328095D01*
X138311904Y-117328095D01*
X138407142Y-117375714D01*
X138454761Y-117423333D01*
X138502380Y-117518571D01*
X138502380Y-117756666D01*
X138454761Y-117851904D01*
X138407142Y-117899523D01*
%TO.C,C46*%
X180507142Y-108742857D02*
X180554761Y-108790476D01*
X180602380Y-108933333D01*
X180602380Y-109028571D01*
X180554761Y-109171428D01*
X180459523Y-109266666D01*
X180364285Y-109314285D01*
X180173809Y-109361904D01*
X180030952Y-109361904D01*
X179840476Y-109314285D01*
X179745238Y-109266666D01*
X179650000Y-109171428D01*
X179602380Y-109028571D01*
X179602380Y-108933333D01*
X179650000Y-108790476D01*
X179697619Y-108742857D01*
X179935714Y-107885714D02*
X180602380Y-107885714D01*
X179554761Y-108123809D02*
X180269047Y-108361904D01*
X180269047Y-107742857D01*
X179602380Y-106933333D02*
X179602380Y-107123809D01*
X179650000Y-107219047D01*
X179697619Y-107266666D01*
X179840476Y-107361904D01*
X180030952Y-107409523D01*
X180411904Y-107409523D01*
X180507142Y-107361904D01*
X180554761Y-107314285D01*
X180602380Y-107219047D01*
X180602380Y-107028571D01*
X180554761Y-106933333D01*
X180507142Y-106885714D01*
X180411904Y-106838095D01*
X180173809Y-106838095D01*
X180078571Y-106885714D01*
X180030952Y-106933333D01*
X179983333Y-107028571D01*
X179983333Y-107219047D01*
X180030952Y-107314285D01*
X180078571Y-107361904D01*
X180173809Y-107409523D01*
%TO.C,R11*%
X138452380Y-113572857D02*
X137976190Y-113906190D01*
X138452380Y-114144285D02*
X137452380Y-114144285D01*
X137452380Y-113763333D01*
X137500000Y-113668095D01*
X137547619Y-113620476D01*
X137642857Y-113572857D01*
X137785714Y-113572857D01*
X137880952Y-113620476D01*
X137928571Y-113668095D01*
X137976190Y-113763333D01*
X137976190Y-114144285D01*
X138452380Y-112620476D02*
X138452380Y-113191904D01*
X138452380Y-112906190D02*
X137452380Y-112906190D01*
X137595238Y-113001428D01*
X137690476Y-113096666D01*
X137738095Y-113191904D01*
X138452380Y-111668095D02*
X138452380Y-112239523D01*
X138452380Y-111953809D02*
X137452380Y-111953809D01*
X137595238Y-112049047D01*
X137690476Y-112144285D01*
X137738095Y-112239523D01*
%TO.C,R12*%
X178422380Y-86582857D02*
X177946190Y-86916190D01*
X178422380Y-87154285D02*
X177422380Y-87154285D01*
X177422380Y-86773333D01*
X177470000Y-86678095D01*
X177517619Y-86630476D01*
X177612857Y-86582857D01*
X177755714Y-86582857D01*
X177850952Y-86630476D01*
X177898571Y-86678095D01*
X177946190Y-86773333D01*
X177946190Y-87154285D01*
X178422380Y-85630476D02*
X178422380Y-86201904D01*
X178422380Y-85916190D02*
X177422380Y-85916190D01*
X177565238Y-86011428D01*
X177660476Y-86106666D01*
X177708095Y-86201904D01*
X177517619Y-85249523D02*
X177470000Y-85201904D01*
X177422380Y-85106666D01*
X177422380Y-84868571D01*
X177470000Y-84773333D01*
X177517619Y-84725714D01*
X177612857Y-84678095D01*
X177708095Y-84678095D01*
X177850952Y-84725714D01*
X178422380Y-85297142D01*
X178422380Y-84678095D01*
%TO.C,R13*%
X101512380Y-104142857D02*
X101036190Y-104476190D01*
X101512380Y-104714285D02*
X100512380Y-104714285D01*
X100512380Y-104333333D01*
X100560000Y-104238095D01*
X100607619Y-104190476D01*
X100702857Y-104142857D01*
X100845714Y-104142857D01*
X100940952Y-104190476D01*
X100988571Y-104238095D01*
X101036190Y-104333333D01*
X101036190Y-104714285D01*
X101512380Y-103190476D02*
X101512380Y-103761904D01*
X101512380Y-103476190D02*
X100512380Y-103476190D01*
X100655238Y-103571428D01*
X100750476Y-103666666D01*
X100798095Y-103761904D01*
X100512380Y-102857142D02*
X100512380Y-102238095D01*
X100893333Y-102571428D01*
X100893333Y-102428571D01*
X100940952Y-102333333D01*
X100988571Y-102285714D01*
X101083809Y-102238095D01*
X101321904Y-102238095D01*
X101417142Y-102285714D01*
X101464761Y-102333333D01*
X101512380Y-102428571D01*
X101512380Y-102714285D01*
X101464761Y-102809523D01*
X101417142Y-102857142D01*
%TO.C,R14*%
X101512380Y-110482857D02*
X101036190Y-110816190D01*
X101512380Y-111054285D02*
X100512380Y-111054285D01*
X100512380Y-110673333D01*
X100560000Y-110578095D01*
X100607619Y-110530476D01*
X100702857Y-110482857D01*
X100845714Y-110482857D01*
X100940952Y-110530476D01*
X100988571Y-110578095D01*
X101036190Y-110673333D01*
X101036190Y-111054285D01*
X101512380Y-109530476D02*
X101512380Y-110101904D01*
X101512380Y-109816190D02*
X100512380Y-109816190D01*
X100655238Y-109911428D01*
X100750476Y-110006666D01*
X100798095Y-110101904D01*
X100845714Y-108673333D02*
X101512380Y-108673333D01*
X100464761Y-108911428D02*
X101179047Y-109149523D01*
X101179047Y-108530476D01*
%TO.C,R15*%
X138252380Y-90912857D02*
X137776190Y-91246190D01*
X138252380Y-91484285D02*
X137252380Y-91484285D01*
X137252380Y-91103333D01*
X137300000Y-91008095D01*
X137347619Y-90960476D01*
X137442857Y-90912857D01*
X137585714Y-90912857D01*
X137680952Y-90960476D01*
X137728571Y-91008095D01*
X137776190Y-91103333D01*
X137776190Y-91484285D01*
X138252380Y-89960476D02*
X138252380Y-90531904D01*
X138252380Y-90246190D02*
X137252380Y-90246190D01*
X137395238Y-90341428D01*
X137490476Y-90436666D01*
X137538095Y-90531904D01*
X137252380Y-89055714D02*
X137252380Y-89531904D01*
X137728571Y-89579523D01*
X137680952Y-89531904D01*
X137633333Y-89436666D01*
X137633333Y-89198571D01*
X137680952Y-89103333D01*
X137728571Y-89055714D01*
X137823809Y-89008095D01*
X138061904Y-89008095D01*
X138157142Y-89055714D01*
X138204761Y-89103333D01*
X138252380Y-89198571D01*
X138252380Y-89436666D01*
X138204761Y-89531904D01*
X138157142Y-89579523D01*
%TO.C,R16*%
X207007142Y-76132380D02*
X206673809Y-75656190D01*
X206435714Y-76132380D02*
X206435714Y-75132380D01*
X206816666Y-75132380D01*
X206911904Y-75180000D01*
X206959523Y-75227619D01*
X207007142Y-75322857D01*
X207007142Y-75465714D01*
X206959523Y-75560952D01*
X206911904Y-75608571D01*
X206816666Y-75656190D01*
X206435714Y-75656190D01*
X207959523Y-76132380D02*
X207388095Y-76132380D01*
X207673809Y-76132380D02*
X207673809Y-75132380D01*
X207578571Y-75275238D01*
X207483333Y-75370476D01*
X207388095Y-75418095D01*
X208816666Y-75132380D02*
X208626190Y-75132380D01*
X208530952Y-75180000D01*
X208483333Y-75227619D01*
X208388095Y-75370476D01*
X208340476Y-75560952D01*
X208340476Y-75941904D01*
X208388095Y-76037142D01*
X208435714Y-76084761D01*
X208530952Y-76132380D01*
X208721428Y-76132380D01*
X208816666Y-76084761D01*
X208864285Y-76037142D01*
X208911904Y-75941904D01*
X208911904Y-75703809D01*
X208864285Y-75608571D01*
X208816666Y-75560952D01*
X208721428Y-75513333D01*
X208530952Y-75513333D01*
X208435714Y-75560952D01*
X208388095Y-75608571D01*
X208340476Y-75703809D01*
%TO.C,R17*%
X203832380Y-82462857D02*
X203356190Y-82796190D01*
X203832380Y-83034285D02*
X202832380Y-83034285D01*
X202832380Y-82653333D01*
X202880000Y-82558095D01*
X202927619Y-82510476D01*
X203022857Y-82462857D01*
X203165714Y-82462857D01*
X203260952Y-82510476D01*
X203308571Y-82558095D01*
X203356190Y-82653333D01*
X203356190Y-83034285D01*
X203832380Y-81510476D02*
X203832380Y-82081904D01*
X203832380Y-81796190D02*
X202832380Y-81796190D01*
X202975238Y-81891428D01*
X203070476Y-81986666D01*
X203118095Y-82081904D01*
X202832380Y-81177142D02*
X202832380Y-80510476D01*
X203832380Y-80939047D01*
%TO.C,R31*%
X155022380Y-53622857D02*
X154546190Y-53956190D01*
X155022380Y-54194285D02*
X154022380Y-54194285D01*
X154022380Y-53813333D01*
X154070000Y-53718095D01*
X154117619Y-53670476D01*
X154212857Y-53622857D01*
X154355714Y-53622857D01*
X154450952Y-53670476D01*
X154498571Y-53718095D01*
X154546190Y-53813333D01*
X154546190Y-54194285D01*
X154022380Y-53289523D02*
X154022380Y-52670476D01*
X154403333Y-53003809D01*
X154403333Y-52860952D01*
X154450952Y-52765714D01*
X154498571Y-52718095D01*
X154593809Y-52670476D01*
X154831904Y-52670476D01*
X154927142Y-52718095D01*
X154974761Y-52765714D01*
X155022380Y-52860952D01*
X155022380Y-53146666D01*
X154974761Y-53241904D01*
X154927142Y-53289523D01*
X155022380Y-51718095D02*
X155022380Y-52289523D01*
X155022380Y-52003809D02*
X154022380Y-52003809D01*
X154165238Y-52099047D01*
X154260476Y-52194285D01*
X154308095Y-52289523D01*
%TO.C,R32*%
X164577142Y-61482380D02*
X164243809Y-61006190D01*
X164005714Y-61482380D02*
X164005714Y-60482380D01*
X164386666Y-60482380D01*
X164481904Y-60530000D01*
X164529523Y-60577619D01*
X164577142Y-60672857D01*
X164577142Y-60815714D01*
X164529523Y-60910952D01*
X164481904Y-60958571D01*
X164386666Y-61006190D01*
X164005714Y-61006190D01*
X164910476Y-60482380D02*
X165529523Y-60482380D01*
X165196190Y-60863333D01*
X165339047Y-60863333D01*
X165434285Y-60910952D01*
X165481904Y-60958571D01*
X165529523Y-61053809D01*
X165529523Y-61291904D01*
X165481904Y-61387142D01*
X165434285Y-61434761D01*
X165339047Y-61482380D01*
X165053333Y-61482380D01*
X164958095Y-61434761D01*
X164910476Y-61387142D01*
X165910476Y-60577619D02*
X165958095Y-60530000D01*
X166053333Y-60482380D01*
X166291428Y-60482380D01*
X166386666Y-60530000D01*
X166434285Y-60577619D01*
X166481904Y-60672857D01*
X166481904Y-60768095D01*
X166434285Y-60910952D01*
X165862857Y-61482380D01*
X166481904Y-61482380D01*
%TO.C,R33*%
X171107142Y-61482380D02*
X170773809Y-61006190D01*
X170535714Y-61482380D02*
X170535714Y-60482380D01*
X170916666Y-60482380D01*
X171011904Y-60530000D01*
X171059523Y-60577619D01*
X171107142Y-60672857D01*
X171107142Y-60815714D01*
X171059523Y-60910952D01*
X171011904Y-60958571D01*
X170916666Y-61006190D01*
X170535714Y-61006190D01*
X171440476Y-60482380D02*
X172059523Y-60482380D01*
X171726190Y-60863333D01*
X171869047Y-60863333D01*
X171964285Y-60910952D01*
X172011904Y-60958571D01*
X172059523Y-61053809D01*
X172059523Y-61291904D01*
X172011904Y-61387142D01*
X171964285Y-61434761D01*
X171869047Y-61482380D01*
X171583333Y-61482380D01*
X171488095Y-61434761D01*
X171440476Y-61387142D01*
X172392857Y-60482380D02*
X173011904Y-60482380D01*
X172678571Y-60863333D01*
X172821428Y-60863333D01*
X172916666Y-60910952D01*
X172964285Y-60958571D01*
X173011904Y-61053809D01*
X173011904Y-61291904D01*
X172964285Y-61387142D01*
X172916666Y-61434761D01*
X172821428Y-61482380D01*
X172535714Y-61482380D01*
X172440476Y-61434761D01*
X172392857Y-61387142D01*
%TO.C,R34*%
X161097142Y-41252380D02*
X160763809Y-40776190D01*
X160525714Y-41252380D02*
X160525714Y-40252380D01*
X160906666Y-40252380D01*
X161001904Y-40300000D01*
X161049523Y-40347619D01*
X161097142Y-40442857D01*
X161097142Y-40585714D01*
X161049523Y-40680952D01*
X161001904Y-40728571D01*
X160906666Y-40776190D01*
X160525714Y-40776190D01*
X161430476Y-40252380D02*
X162049523Y-40252380D01*
X161716190Y-40633333D01*
X161859047Y-40633333D01*
X161954285Y-40680952D01*
X162001904Y-40728571D01*
X162049523Y-40823809D01*
X162049523Y-41061904D01*
X162001904Y-41157142D01*
X161954285Y-41204761D01*
X161859047Y-41252380D01*
X161573333Y-41252380D01*
X161478095Y-41204761D01*
X161430476Y-41157142D01*
X162906666Y-40585714D02*
X162906666Y-41252380D01*
X162668571Y-40204761D02*
X162430476Y-40919047D01*
X163049523Y-40919047D01*
%TO.C,R35*%
X127477142Y-41362380D02*
X127143809Y-40886190D01*
X126905714Y-41362380D02*
X126905714Y-40362380D01*
X127286666Y-40362380D01*
X127381904Y-40410000D01*
X127429523Y-40457619D01*
X127477142Y-40552857D01*
X127477142Y-40695714D01*
X127429523Y-40790952D01*
X127381904Y-40838571D01*
X127286666Y-40886190D01*
X126905714Y-40886190D01*
X127810476Y-40362380D02*
X128429523Y-40362380D01*
X128096190Y-40743333D01*
X128239047Y-40743333D01*
X128334285Y-40790952D01*
X128381904Y-40838571D01*
X128429523Y-40933809D01*
X128429523Y-41171904D01*
X128381904Y-41267142D01*
X128334285Y-41314761D01*
X128239047Y-41362380D01*
X127953333Y-41362380D01*
X127858095Y-41314761D01*
X127810476Y-41267142D01*
X129334285Y-40362380D02*
X128858095Y-40362380D01*
X128810476Y-40838571D01*
X128858095Y-40790952D01*
X128953333Y-40743333D01*
X129191428Y-40743333D01*
X129286666Y-40790952D01*
X129334285Y-40838571D01*
X129381904Y-40933809D01*
X129381904Y-41171904D01*
X129334285Y-41267142D01*
X129286666Y-41314761D01*
X129191428Y-41362380D01*
X128953333Y-41362380D01*
X128858095Y-41314761D01*
X128810476Y-41267142D01*
%TO.C,R36*%
X125477142Y-61282380D02*
X125143809Y-60806190D01*
X124905714Y-61282380D02*
X124905714Y-60282380D01*
X125286666Y-60282380D01*
X125381904Y-60330000D01*
X125429523Y-60377619D01*
X125477142Y-60472857D01*
X125477142Y-60615714D01*
X125429523Y-60710952D01*
X125381904Y-60758571D01*
X125286666Y-60806190D01*
X124905714Y-60806190D01*
X125810476Y-60282380D02*
X126429523Y-60282380D01*
X126096190Y-60663333D01*
X126239047Y-60663333D01*
X126334285Y-60710952D01*
X126381904Y-60758571D01*
X126429523Y-60853809D01*
X126429523Y-61091904D01*
X126381904Y-61187142D01*
X126334285Y-61234761D01*
X126239047Y-61282380D01*
X125953333Y-61282380D01*
X125858095Y-61234761D01*
X125810476Y-61187142D01*
X127286666Y-60282380D02*
X127096190Y-60282380D01*
X127000952Y-60330000D01*
X126953333Y-60377619D01*
X126858095Y-60520476D01*
X126810476Y-60710952D01*
X126810476Y-61091904D01*
X126858095Y-61187142D01*
X126905714Y-61234761D01*
X127000952Y-61282380D01*
X127191428Y-61282380D01*
X127286666Y-61234761D01*
X127334285Y-61187142D01*
X127381904Y-61091904D01*
X127381904Y-60853809D01*
X127334285Y-60758571D01*
X127286666Y-60710952D01*
X127191428Y-60663333D01*
X127000952Y-60663333D01*
X126905714Y-60710952D01*
X126858095Y-60758571D01*
X126810476Y-60853809D01*
%TO.C,R37*%
X97852380Y-49372857D02*
X97376190Y-49706190D01*
X97852380Y-49944285D02*
X96852380Y-49944285D01*
X96852380Y-49563333D01*
X96900000Y-49468095D01*
X96947619Y-49420476D01*
X97042857Y-49372857D01*
X97185714Y-49372857D01*
X97280952Y-49420476D01*
X97328571Y-49468095D01*
X97376190Y-49563333D01*
X97376190Y-49944285D01*
X96852380Y-49039523D02*
X96852380Y-48420476D01*
X97233333Y-48753809D01*
X97233333Y-48610952D01*
X97280952Y-48515714D01*
X97328571Y-48468095D01*
X97423809Y-48420476D01*
X97661904Y-48420476D01*
X97757142Y-48468095D01*
X97804761Y-48515714D01*
X97852380Y-48610952D01*
X97852380Y-48896666D01*
X97804761Y-48991904D01*
X97757142Y-49039523D01*
X96852380Y-48087142D02*
X96852380Y-47420476D01*
X97852380Y-47849047D01*
%TO.C,R38*%
X97872380Y-54412857D02*
X97396190Y-54746190D01*
X97872380Y-54984285D02*
X96872380Y-54984285D01*
X96872380Y-54603333D01*
X96920000Y-54508095D01*
X96967619Y-54460476D01*
X97062857Y-54412857D01*
X97205714Y-54412857D01*
X97300952Y-54460476D01*
X97348571Y-54508095D01*
X97396190Y-54603333D01*
X97396190Y-54984285D01*
X96872380Y-54079523D02*
X96872380Y-53460476D01*
X97253333Y-53793809D01*
X97253333Y-53650952D01*
X97300952Y-53555714D01*
X97348571Y-53508095D01*
X97443809Y-53460476D01*
X97681904Y-53460476D01*
X97777142Y-53508095D01*
X97824761Y-53555714D01*
X97872380Y-53650952D01*
X97872380Y-53936666D01*
X97824761Y-54031904D01*
X97777142Y-54079523D01*
X97300952Y-52889047D02*
X97253333Y-52984285D01*
X97205714Y-53031904D01*
X97110476Y-53079523D01*
X97062857Y-53079523D01*
X96967619Y-53031904D01*
X96920000Y-52984285D01*
X96872380Y-52889047D01*
X96872380Y-52698571D01*
X96920000Y-52603333D01*
X96967619Y-52555714D01*
X97062857Y-52508095D01*
X97110476Y-52508095D01*
X97205714Y-52555714D01*
X97253333Y-52603333D01*
X97300952Y-52698571D01*
X97300952Y-52889047D01*
X97348571Y-52984285D01*
X97396190Y-53031904D01*
X97491428Y-53079523D01*
X97681904Y-53079523D01*
X97777142Y-53031904D01*
X97824761Y-52984285D01*
X97872380Y-52889047D01*
X97872380Y-52698571D01*
X97824761Y-52603333D01*
X97777142Y-52555714D01*
X97681904Y-52508095D01*
X97491428Y-52508095D01*
X97396190Y-52555714D01*
X97348571Y-52603333D01*
X97300952Y-52698571D01*
%TO.C,R39*%
X135797142Y-58002380D02*
X135463809Y-57526190D01*
X135225714Y-58002380D02*
X135225714Y-57002380D01*
X135606666Y-57002380D01*
X135701904Y-57050000D01*
X135749523Y-57097619D01*
X135797142Y-57192857D01*
X135797142Y-57335714D01*
X135749523Y-57430952D01*
X135701904Y-57478571D01*
X135606666Y-57526190D01*
X135225714Y-57526190D01*
X136130476Y-57002380D02*
X136749523Y-57002380D01*
X136416190Y-57383333D01*
X136559047Y-57383333D01*
X136654285Y-57430952D01*
X136701904Y-57478571D01*
X136749523Y-57573809D01*
X136749523Y-57811904D01*
X136701904Y-57907142D01*
X136654285Y-57954761D01*
X136559047Y-58002380D01*
X136273333Y-58002380D01*
X136178095Y-57954761D01*
X136130476Y-57907142D01*
X137225714Y-58002380D02*
X137416190Y-58002380D01*
X137511428Y-57954761D01*
X137559047Y-57907142D01*
X137654285Y-57764285D01*
X137701904Y-57573809D01*
X137701904Y-57192857D01*
X137654285Y-57097619D01*
X137606666Y-57050000D01*
X137511428Y-57002380D01*
X137320952Y-57002380D01*
X137225714Y-57050000D01*
X137178095Y-57097619D01*
X137130476Y-57192857D01*
X137130476Y-57430952D01*
X137178095Y-57526190D01*
X137225714Y-57573809D01*
X137320952Y-57621428D01*
X137511428Y-57621428D01*
X137606666Y-57573809D01*
X137654285Y-57526190D01*
X137701904Y-57430952D01*
%TO.C,R41*%
X138822380Y-129482857D02*
X138346190Y-129816190D01*
X138822380Y-130054285D02*
X137822380Y-130054285D01*
X137822380Y-129673333D01*
X137870000Y-129578095D01*
X137917619Y-129530476D01*
X138012857Y-129482857D01*
X138155714Y-129482857D01*
X138250952Y-129530476D01*
X138298571Y-129578095D01*
X138346190Y-129673333D01*
X138346190Y-130054285D01*
X138155714Y-128625714D02*
X138822380Y-128625714D01*
X137774761Y-128863809D02*
X138489047Y-129101904D01*
X138489047Y-128482857D01*
X138822380Y-127578095D02*
X138822380Y-128149523D01*
X138822380Y-127863809D02*
X137822380Y-127863809D01*
X137965238Y-127959047D01*
X138060476Y-128054285D01*
X138108095Y-128149523D01*
%TO.C,R42*%
X90452380Y-138002857D02*
X89976190Y-138336190D01*
X90452380Y-138574285D02*
X89452380Y-138574285D01*
X89452380Y-138193333D01*
X89500000Y-138098095D01*
X89547619Y-138050476D01*
X89642857Y-138002857D01*
X89785714Y-138002857D01*
X89880952Y-138050476D01*
X89928571Y-138098095D01*
X89976190Y-138193333D01*
X89976190Y-138574285D01*
X89785714Y-137145714D02*
X90452380Y-137145714D01*
X89404761Y-137383809D02*
X90119047Y-137621904D01*
X90119047Y-137002857D01*
X89547619Y-136669523D02*
X89500000Y-136621904D01*
X89452380Y-136526666D01*
X89452380Y-136288571D01*
X89500000Y-136193333D01*
X89547619Y-136145714D01*
X89642857Y-136098095D01*
X89738095Y-136098095D01*
X89880952Y-136145714D01*
X90452380Y-136717142D01*
X90452380Y-136098095D01*
%TO.C,R43*%
X105952380Y-138042857D02*
X105476190Y-138376190D01*
X105952380Y-138614285D02*
X104952380Y-138614285D01*
X104952380Y-138233333D01*
X105000000Y-138138095D01*
X105047619Y-138090476D01*
X105142857Y-138042857D01*
X105285714Y-138042857D01*
X105380952Y-138090476D01*
X105428571Y-138138095D01*
X105476190Y-138233333D01*
X105476190Y-138614285D01*
X105285714Y-137185714D02*
X105952380Y-137185714D01*
X104904761Y-137423809D02*
X105619047Y-137661904D01*
X105619047Y-137042857D01*
X104952380Y-136757142D02*
X104952380Y-136138095D01*
X105333333Y-136471428D01*
X105333333Y-136328571D01*
X105380952Y-136233333D01*
X105428571Y-136185714D01*
X105523809Y-136138095D01*
X105761904Y-136138095D01*
X105857142Y-136185714D01*
X105904761Y-136233333D01*
X105952380Y-136328571D01*
X105952380Y-136614285D01*
X105904761Y-136709523D01*
X105857142Y-136757142D01*
%TO.C,R44*%
X101369642Y-122952380D02*
X101036309Y-122476190D01*
X100798214Y-122952380D02*
X100798214Y-121952380D01*
X101179166Y-121952380D01*
X101274404Y-122000000D01*
X101322023Y-122047619D01*
X101369642Y-122142857D01*
X101369642Y-122285714D01*
X101322023Y-122380952D01*
X101274404Y-122428571D01*
X101179166Y-122476190D01*
X100798214Y-122476190D01*
X102226785Y-122285714D02*
X102226785Y-122952380D01*
X101988690Y-121904761D02*
X101750595Y-122619047D01*
X102369642Y-122619047D01*
X103179166Y-122285714D02*
X103179166Y-122952380D01*
X102941071Y-121904761D02*
X102702976Y-122619047D01*
X103322023Y-122619047D01*
%TO.C,R45*%
X95477142Y-122932380D02*
X95143809Y-122456190D01*
X94905714Y-122932380D02*
X94905714Y-121932380D01*
X95286666Y-121932380D01*
X95381904Y-121980000D01*
X95429523Y-122027619D01*
X95477142Y-122122857D01*
X95477142Y-122265714D01*
X95429523Y-122360952D01*
X95381904Y-122408571D01*
X95286666Y-122456190D01*
X94905714Y-122456190D01*
X96334285Y-122265714D02*
X96334285Y-122932380D01*
X96096190Y-121884761D02*
X95858095Y-122599047D01*
X96477142Y-122599047D01*
X97334285Y-121932380D02*
X96858095Y-121932380D01*
X96810476Y-122408571D01*
X96858095Y-122360952D01*
X96953333Y-122313333D01*
X97191428Y-122313333D01*
X97286666Y-122360952D01*
X97334285Y-122408571D01*
X97381904Y-122503809D01*
X97381904Y-122741904D01*
X97334285Y-122837142D01*
X97286666Y-122884761D01*
X97191428Y-122932380D01*
X96953333Y-122932380D01*
X96858095Y-122884761D01*
X96810476Y-122837142D01*
%TO.C,R46*%
X180702380Y-129212857D02*
X180226190Y-129546190D01*
X180702380Y-129784285D02*
X179702380Y-129784285D01*
X179702380Y-129403333D01*
X179750000Y-129308095D01*
X179797619Y-129260476D01*
X179892857Y-129212857D01*
X180035714Y-129212857D01*
X180130952Y-129260476D01*
X180178571Y-129308095D01*
X180226190Y-129403333D01*
X180226190Y-129784285D01*
X180035714Y-128355714D02*
X180702380Y-128355714D01*
X179654761Y-128593809D02*
X180369047Y-128831904D01*
X180369047Y-128212857D01*
X179702380Y-127403333D02*
X179702380Y-127593809D01*
X179750000Y-127689047D01*
X179797619Y-127736666D01*
X179940476Y-127831904D01*
X180130952Y-127879523D01*
X180511904Y-127879523D01*
X180607142Y-127831904D01*
X180654761Y-127784285D01*
X180702380Y-127689047D01*
X180702380Y-127498571D01*
X180654761Y-127403333D01*
X180607142Y-127355714D01*
X180511904Y-127308095D01*
X180273809Y-127308095D01*
X180178571Y-127355714D01*
X180130952Y-127403333D01*
X180083333Y-127498571D01*
X180083333Y-127689047D01*
X180130952Y-127784285D01*
X180178571Y-127831904D01*
X180273809Y-127879523D01*
%TO.C,R47*%
X158757142Y-61482380D02*
X158423809Y-61006190D01*
X158185714Y-61482380D02*
X158185714Y-60482380D01*
X158566666Y-60482380D01*
X158661904Y-60530000D01*
X158709523Y-60577619D01*
X158757142Y-60672857D01*
X158757142Y-60815714D01*
X158709523Y-60910952D01*
X158661904Y-60958571D01*
X158566666Y-61006190D01*
X158185714Y-61006190D01*
X159614285Y-60815714D02*
X159614285Y-61482380D01*
X159376190Y-60434761D02*
X159138095Y-61149047D01*
X159757142Y-61149047D01*
X160042857Y-60482380D02*
X160709523Y-60482380D01*
X160280952Y-61482380D01*
%TO.C,R48*%
X206747142Y-112562380D02*
X206413809Y-112086190D01*
X206175714Y-112562380D02*
X206175714Y-111562380D01*
X206556666Y-111562380D01*
X206651904Y-111610000D01*
X206699523Y-111657619D01*
X206747142Y-111752857D01*
X206747142Y-111895714D01*
X206699523Y-111990952D01*
X206651904Y-112038571D01*
X206556666Y-112086190D01*
X206175714Y-112086190D01*
X207604285Y-111895714D02*
X207604285Y-112562380D01*
X207366190Y-111514761D02*
X207128095Y-112229047D01*
X207747142Y-112229047D01*
X208270952Y-111990952D02*
X208175714Y-111943333D01*
X208128095Y-111895714D01*
X208080476Y-111800476D01*
X208080476Y-111752857D01*
X208128095Y-111657619D01*
X208175714Y-111610000D01*
X208270952Y-111562380D01*
X208461428Y-111562380D01*
X208556666Y-111610000D01*
X208604285Y-111657619D01*
X208651904Y-111752857D01*
X208651904Y-111800476D01*
X208604285Y-111895714D01*
X208556666Y-111943333D01*
X208461428Y-111990952D01*
X208270952Y-111990952D01*
X208175714Y-112038571D01*
X208128095Y-112086190D01*
X208080476Y-112181428D01*
X208080476Y-112371904D01*
X208128095Y-112467142D01*
X208175714Y-112514761D01*
X208270952Y-112562380D01*
X208461428Y-112562380D01*
X208556666Y-112514761D01*
X208604285Y-112467142D01*
X208651904Y-112371904D01*
X208651904Y-112181428D01*
X208604285Y-112086190D01*
X208556666Y-112038571D01*
X208461428Y-111990952D01*
%TO.C,R49*%
X127577142Y-137162380D02*
X127243809Y-136686190D01*
X127005714Y-137162380D02*
X127005714Y-136162380D01*
X127386666Y-136162380D01*
X127481904Y-136210000D01*
X127529523Y-136257619D01*
X127577142Y-136352857D01*
X127577142Y-136495714D01*
X127529523Y-136590952D01*
X127481904Y-136638571D01*
X127386666Y-136686190D01*
X127005714Y-136686190D01*
X128434285Y-136495714D02*
X128434285Y-137162380D01*
X128196190Y-136114761D02*
X127958095Y-136829047D01*
X128577142Y-136829047D01*
X129005714Y-137162380D02*
X129196190Y-137162380D01*
X129291428Y-137114761D01*
X129339047Y-137067142D01*
X129434285Y-136924285D01*
X129481904Y-136733809D01*
X129481904Y-136352857D01*
X129434285Y-136257619D01*
X129386666Y-136210000D01*
X129291428Y-136162380D01*
X129100952Y-136162380D01*
X129005714Y-136210000D01*
X128958095Y-136257619D01*
X128910476Y-136352857D01*
X128910476Y-136590952D01*
X128958095Y-136686190D01*
X129005714Y-136733809D01*
X129100952Y-136781428D01*
X129291428Y-136781428D01*
X129386666Y-136733809D01*
X129434285Y-136686190D01*
X129481904Y-136590952D01*
%TO.C,R50*%
X139177142Y-102042380D02*
X138843809Y-101566190D01*
X138605714Y-102042380D02*
X138605714Y-101042380D01*
X138986666Y-101042380D01*
X139081904Y-101090000D01*
X139129523Y-101137619D01*
X139177142Y-101232857D01*
X139177142Y-101375714D01*
X139129523Y-101470952D01*
X139081904Y-101518571D01*
X138986666Y-101566190D01*
X138605714Y-101566190D01*
X140081904Y-101042380D02*
X139605714Y-101042380D01*
X139558095Y-101518571D01*
X139605714Y-101470952D01*
X139700952Y-101423333D01*
X139939047Y-101423333D01*
X140034285Y-101470952D01*
X140081904Y-101518571D01*
X140129523Y-101613809D01*
X140129523Y-101851904D01*
X140081904Y-101947142D01*
X140034285Y-101994761D01*
X139939047Y-102042380D01*
X139700952Y-102042380D01*
X139605714Y-101994761D01*
X139558095Y-101947142D01*
X140748571Y-101042380D02*
X140843809Y-101042380D01*
X140939047Y-101090000D01*
X140986666Y-101137619D01*
X141034285Y-101232857D01*
X141081904Y-101423333D01*
X141081904Y-101661428D01*
X141034285Y-101851904D01*
X140986666Y-101947142D01*
X140939047Y-101994761D01*
X140843809Y-102042380D01*
X140748571Y-102042380D01*
X140653333Y-101994761D01*
X140605714Y-101947142D01*
X140558095Y-101851904D01*
X140510476Y-101661428D01*
X140510476Y-101423333D01*
X140558095Y-101232857D01*
X140605714Y-101137619D01*
X140653333Y-101090000D01*
X140748571Y-101042380D01*
%TO.C,R110*%
X206290952Y-88512380D02*
X205957619Y-88036190D01*
X205719523Y-88512380D02*
X205719523Y-87512380D01*
X206100476Y-87512380D01*
X206195714Y-87560000D01*
X206243333Y-87607619D01*
X206290952Y-87702857D01*
X206290952Y-87845714D01*
X206243333Y-87940952D01*
X206195714Y-87988571D01*
X206100476Y-88036190D01*
X205719523Y-88036190D01*
X207243333Y-88512380D02*
X206671904Y-88512380D01*
X206957619Y-88512380D02*
X206957619Y-87512380D01*
X206862380Y-87655238D01*
X206767142Y-87750476D01*
X206671904Y-87798095D01*
X208195714Y-88512380D02*
X207624285Y-88512380D01*
X207910000Y-88512380D02*
X207910000Y-87512380D01*
X207814761Y-87655238D01*
X207719523Y-87750476D01*
X207624285Y-87798095D01*
X208814761Y-87512380D02*
X208910000Y-87512380D01*
X209005238Y-87560000D01*
X209052857Y-87607619D01*
X209100476Y-87702857D01*
X209148095Y-87893333D01*
X209148095Y-88131428D01*
X209100476Y-88321904D01*
X209052857Y-88417142D01*
X209005238Y-88464761D01*
X208910000Y-88512380D01*
X208814761Y-88512380D01*
X208719523Y-88464761D01*
X208671904Y-88417142D01*
X208624285Y-88321904D01*
X208576666Y-88131428D01*
X208576666Y-87893333D01*
X208624285Y-87702857D01*
X208671904Y-87607619D01*
X208719523Y-87560000D01*
X208814761Y-87512380D01*
%TO.C,R311*%
X171780952Y-142222380D02*
X171447619Y-141746190D01*
X171209523Y-142222380D02*
X171209523Y-141222380D01*
X171590476Y-141222380D01*
X171685714Y-141270000D01*
X171733333Y-141317619D01*
X171780952Y-141412857D01*
X171780952Y-141555714D01*
X171733333Y-141650952D01*
X171685714Y-141698571D01*
X171590476Y-141746190D01*
X171209523Y-141746190D01*
X172114285Y-141222380D02*
X172733333Y-141222380D01*
X172400000Y-141603333D01*
X172542857Y-141603333D01*
X172638095Y-141650952D01*
X172685714Y-141698571D01*
X172733333Y-141793809D01*
X172733333Y-142031904D01*
X172685714Y-142127142D01*
X172638095Y-142174761D01*
X172542857Y-142222380D01*
X172257142Y-142222380D01*
X172161904Y-142174761D01*
X172114285Y-142127142D01*
X173685714Y-142222380D02*
X173114285Y-142222380D01*
X173400000Y-142222380D02*
X173400000Y-141222380D01*
X173304761Y-141365238D01*
X173209523Y-141460476D01*
X173114285Y-141508095D01*
X174638095Y-142222380D02*
X174066666Y-142222380D01*
X174352380Y-142222380D02*
X174352380Y-141222380D01*
X174257142Y-141365238D01*
X174161904Y-141460476D01*
X174066666Y-141508095D01*
%TO.C,R312*%
X150540952Y-142242380D02*
X150207619Y-141766190D01*
X149969523Y-142242380D02*
X149969523Y-141242380D01*
X150350476Y-141242380D01*
X150445714Y-141290000D01*
X150493333Y-141337619D01*
X150540952Y-141432857D01*
X150540952Y-141575714D01*
X150493333Y-141670952D01*
X150445714Y-141718571D01*
X150350476Y-141766190D01*
X149969523Y-141766190D01*
X150874285Y-141242380D02*
X151493333Y-141242380D01*
X151160000Y-141623333D01*
X151302857Y-141623333D01*
X151398095Y-141670952D01*
X151445714Y-141718571D01*
X151493333Y-141813809D01*
X151493333Y-142051904D01*
X151445714Y-142147142D01*
X151398095Y-142194761D01*
X151302857Y-142242380D01*
X151017142Y-142242380D01*
X150921904Y-142194761D01*
X150874285Y-142147142D01*
X152445714Y-142242380D02*
X151874285Y-142242380D01*
X152160000Y-142242380D02*
X152160000Y-141242380D01*
X152064761Y-141385238D01*
X151969523Y-141480476D01*
X151874285Y-141528095D01*
X152826666Y-141337619D02*
X152874285Y-141290000D01*
X152969523Y-141242380D01*
X153207619Y-141242380D01*
X153302857Y-141290000D01*
X153350476Y-141337619D01*
X153398095Y-141432857D01*
X153398095Y-141528095D01*
X153350476Y-141670952D01*
X152779047Y-142242380D01*
X153398095Y-142242380D01*
%TO.C,R313*%
X145820952Y-142252380D02*
X145487619Y-141776190D01*
X145249523Y-142252380D02*
X145249523Y-141252380D01*
X145630476Y-141252380D01*
X145725714Y-141300000D01*
X145773333Y-141347619D01*
X145820952Y-141442857D01*
X145820952Y-141585714D01*
X145773333Y-141680952D01*
X145725714Y-141728571D01*
X145630476Y-141776190D01*
X145249523Y-141776190D01*
X146154285Y-141252380D02*
X146773333Y-141252380D01*
X146440000Y-141633333D01*
X146582857Y-141633333D01*
X146678095Y-141680952D01*
X146725714Y-141728571D01*
X146773333Y-141823809D01*
X146773333Y-142061904D01*
X146725714Y-142157142D01*
X146678095Y-142204761D01*
X146582857Y-142252380D01*
X146297142Y-142252380D01*
X146201904Y-142204761D01*
X146154285Y-142157142D01*
X147725714Y-142252380D02*
X147154285Y-142252380D01*
X147440000Y-142252380D02*
X147440000Y-141252380D01*
X147344761Y-141395238D01*
X147249523Y-141490476D01*
X147154285Y-141538095D01*
X148059047Y-141252380D02*
X148678095Y-141252380D01*
X148344761Y-141633333D01*
X148487619Y-141633333D01*
X148582857Y-141680952D01*
X148630476Y-141728571D01*
X148678095Y-141823809D01*
X148678095Y-142061904D01*
X148630476Y-142157142D01*
X148582857Y-142204761D01*
X148487619Y-142252380D01*
X148201904Y-142252380D01*
X148106666Y-142204761D01*
X148059047Y-142157142D01*
%TO.C,C26*%
X135337142Y-78097142D02*
X135289523Y-78144761D01*
X135146666Y-78192380D01*
X135051428Y-78192380D01*
X134908571Y-78144761D01*
X134813333Y-78049523D01*
X134765714Y-77954285D01*
X134718095Y-77763809D01*
X134718095Y-77620952D01*
X134765714Y-77430476D01*
X134813333Y-77335238D01*
X134908571Y-77240000D01*
X135051428Y-77192380D01*
X135146666Y-77192380D01*
X135289523Y-77240000D01*
X135337142Y-77287619D01*
X135718095Y-77287619D02*
X135765714Y-77240000D01*
X135860952Y-77192380D01*
X136099047Y-77192380D01*
X136194285Y-77240000D01*
X136241904Y-77287619D01*
X136289523Y-77382857D01*
X136289523Y-77478095D01*
X136241904Y-77620952D01*
X135670476Y-78192380D01*
X136289523Y-78192380D01*
X137146666Y-77192380D02*
X136956190Y-77192380D01*
X136860952Y-77240000D01*
X136813333Y-77287619D01*
X136718095Y-77430476D01*
X136670476Y-77620952D01*
X136670476Y-78001904D01*
X136718095Y-78097142D01*
X136765714Y-78144761D01*
X136860952Y-78192380D01*
X137051428Y-78192380D01*
X137146666Y-78144761D01*
X137194285Y-78097142D01*
X137241904Y-78001904D01*
X137241904Y-77763809D01*
X137194285Y-77668571D01*
X137146666Y-77620952D01*
X137051428Y-77573333D01*
X136860952Y-77573333D01*
X136765714Y-77620952D01*
X136718095Y-77668571D01*
X136670476Y-77763809D01*
%TO.C,U24*%
D16*
X119614523Y-134512380D02*
X120642619Y-134512380D01*
X120763571Y-134451904D01*
X120824047Y-134391428D01*
X120884523Y-134270476D01*
X120884523Y-134028571D01*
X120824047Y-133907619D01*
X120763571Y-133847142D01*
X120642619Y-133786666D01*
X119614523Y-133786666D01*
X119735476Y-133242380D02*
X119675000Y-133181904D01*
X119614523Y-133060952D01*
X119614523Y-132758571D01*
X119675000Y-132637619D01*
X119735476Y-132577142D01*
X119856428Y-132516666D01*
X119977380Y-132516666D01*
X120158809Y-132577142D01*
X120884523Y-133302857D01*
X120884523Y-132516666D01*
X120037857Y-131428095D02*
X120884523Y-131428095D01*
X119554047Y-131730476D02*
X120461190Y-132032857D01*
X120461190Y-131246666D01*
%TO.C,U25*%
X121927619Y-94984523D02*
X121927619Y-96012619D01*
X121988095Y-96133571D01*
X122048571Y-96194047D01*
X122169523Y-96254523D01*
X122411428Y-96254523D01*
X122532380Y-96194047D01*
X122592857Y-96133571D01*
X122653333Y-96012619D01*
X122653333Y-94984523D01*
X123197619Y-95105476D02*
X123258095Y-95045000D01*
X123379047Y-94984523D01*
X123681428Y-94984523D01*
X123802380Y-95045000D01*
X123862857Y-95105476D01*
X123923333Y-95226428D01*
X123923333Y-95347380D01*
X123862857Y-95528809D01*
X123137142Y-96254523D01*
X123923333Y-96254523D01*
X125072380Y-94984523D02*
X124467619Y-94984523D01*
X124407142Y-95589285D01*
X124467619Y-95528809D01*
X124588571Y-95468333D01*
X124890952Y-95468333D01*
X125011904Y-95528809D01*
X125072380Y-95589285D01*
X125132857Y-95710238D01*
X125132857Y-96012619D01*
X125072380Y-96133571D01*
X125011904Y-96194047D01*
X124890952Y-96254523D01*
X124588571Y-96254523D01*
X124467619Y-96194047D01*
X124407142Y-96133571D01*
%TO.C,U26*%
X121927619Y-76994523D02*
X121927619Y-78022619D01*
X121988095Y-78143571D01*
X122048571Y-78204047D01*
X122169523Y-78264523D01*
X122411428Y-78264523D01*
X122532380Y-78204047D01*
X122592857Y-78143571D01*
X122653333Y-78022619D01*
X122653333Y-76994523D01*
X123197619Y-77115476D02*
X123258095Y-77055000D01*
X123379047Y-76994523D01*
X123681428Y-76994523D01*
X123802380Y-77055000D01*
X123862857Y-77115476D01*
X123923333Y-77236428D01*
X123923333Y-77357380D01*
X123862857Y-77538809D01*
X123137142Y-78264523D01*
X123923333Y-78264523D01*
X125011904Y-76994523D02*
X124770000Y-76994523D01*
X124649047Y-77055000D01*
X124588571Y-77115476D01*
X124467619Y-77296904D01*
X124407142Y-77538809D01*
X124407142Y-78022619D01*
X124467619Y-78143571D01*
X124528095Y-78204047D01*
X124649047Y-78264523D01*
X124890952Y-78264523D01*
X125011904Y-78204047D01*
X125072380Y-78143571D01*
X125132857Y-78022619D01*
X125132857Y-77720238D01*
X125072380Y-77599285D01*
X125011904Y-77538809D01*
X124890952Y-77478333D01*
X124649047Y-77478333D01*
X124528095Y-77538809D01*
X124467619Y-77599285D01*
X124407142Y-77720238D01*
%TO.C,U29*%
X168967619Y-41654523D02*
X168967619Y-42682619D01*
X169028095Y-42803571D01*
X169088571Y-42864047D01*
X169209523Y-42924523D01*
X169451428Y-42924523D01*
X169572380Y-42864047D01*
X169632857Y-42803571D01*
X169693333Y-42682619D01*
X169693333Y-41654523D01*
X170237619Y-41775476D02*
X170298095Y-41715000D01*
X170419047Y-41654523D01*
X170721428Y-41654523D01*
X170842380Y-41715000D01*
X170902857Y-41775476D01*
X170963333Y-41896428D01*
X170963333Y-42017380D01*
X170902857Y-42198809D01*
X170177142Y-42924523D01*
X170963333Y-42924523D01*
X171568095Y-42924523D02*
X171810000Y-42924523D01*
X171930952Y-42864047D01*
X171991428Y-42803571D01*
X172112380Y-42622142D01*
X172172857Y-42380238D01*
X172172857Y-41896428D01*
X172112380Y-41775476D01*
X172051904Y-41715000D01*
X171930952Y-41654523D01*
X171689047Y-41654523D01*
X171568095Y-41715000D01*
X171507619Y-41775476D01*
X171447142Y-41896428D01*
X171447142Y-42198809D01*
X171507619Y-42319761D01*
X171568095Y-42380238D01*
X171689047Y-42440714D01*
X171930952Y-42440714D01*
X172051904Y-42380238D01*
X172112380Y-42319761D01*
X172172857Y-42198809D01*
%TO.C,U42*%
X103574523Y-130352380D02*
X104602619Y-130352380D01*
X104723571Y-130291904D01*
X104784047Y-130231428D01*
X104844523Y-130110476D01*
X104844523Y-129868571D01*
X104784047Y-129747619D01*
X104723571Y-129687142D01*
X104602619Y-129626666D01*
X103574523Y-129626666D01*
X103997857Y-128477619D02*
X104844523Y-128477619D01*
X103514047Y-128780000D02*
X104421190Y-129082380D01*
X104421190Y-128296190D01*
X103695476Y-127872857D02*
X103635000Y-127812380D01*
X103574523Y-127691428D01*
X103574523Y-127389047D01*
X103635000Y-127268095D01*
X103695476Y-127207619D01*
X103816428Y-127147142D01*
X103937380Y-127147142D01*
X104118809Y-127207619D01*
X104844523Y-127933333D01*
X104844523Y-127147142D01*
%TO.C,U22*%
D13*
X174922380Y-94938095D02*
X175731904Y-94938095D01*
X175827142Y-94890476D01*
X175874761Y-94842857D01*
X175922380Y-94747619D01*
X175922380Y-94557142D01*
X175874761Y-94461904D01*
X175827142Y-94414285D01*
X175731904Y-94366666D01*
X174922380Y-94366666D01*
X175017619Y-93938095D02*
X174970000Y-93890476D01*
X174922380Y-93795238D01*
X174922380Y-93557142D01*
X174970000Y-93461904D01*
X175017619Y-93414285D01*
X175112857Y-93366666D01*
X175208095Y-93366666D01*
X175350952Y-93414285D01*
X175922380Y-93985714D01*
X175922380Y-93366666D01*
X175017619Y-92985714D02*
X174970000Y-92938095D01*
X174922380Y-92842857D01*
X174922380Y-92604761D01*
X174970000Y-92509523D01*
X175017619Y-92461904D01*
X175112857Y-92414285D01*
X175208095Y-92414285D01*
X175350952Y-92461904D01*
X175922380Y-93033333D01*
X175922380Y-92414285D01*
%TO.C,U31*%
X213742380Y-52838095D02*
X214551904Y-52838095D01*
X214647142Y-52790476D01*
X214694761Y-52742857D01*
X214742380Y-52647619D01*
X214742380Y-52457142D01*
X214694761Y-52361904D01*
X214647142Y-52314285D01*
X214551904Y-52266666D01*
X213742380Y-52266666D01*
X213742380Y-51885714D02*
X213742380Y-51266666D01*
X214123333Y-51600000D01*
X214123333Y-51457142D01*
X214170952Y-51361904D01*
X214218571Y-51314285D01*
X214313809Y-51266666D01*
X214551904Y-51266666D01*
X214647142Y-51314285D01*
X214694761Y-51361904D01*
X214742380Y-51457142D01*
X214742380Y-51742857D01*
X214694761Y-51838095D01*
X214647142Y-51885714D01*
X214742380Y-50314285D02*
X214742380Y-50885714D01*
X214742380Y-50600000D02*
X213742380Y-50600000D01*
X213885238Y-50695238D01*
X213980476Y-50790476D01*
X214028095Y-50885714D01*
%TO.C,U32*%
X202632380Y-52988095D02*
X203441904Y-52988095D01*
X203537142Y-52940476D01*
X203584761Y-52892857D01*
X203632380Y-52797619D01*
X203632380Y-52607142D01*
X203584761Y-52511904D01*
X203537142Y-52464285D01*
X203441904Y-52416666D01*
X202632380Y-52416666D01*
X202632380Y-52035714D02*
X202632380Y-51416666D01*
X203013333Y-51750000D01*
X203013333Y-51607142D01*
X203060952Y-51511904D01*
X203108571Y-51464285D01*
X203203809Y-51416666D01*
X203441904Y-51416666D01*
X203537142Y-51464285D01*
X203584761Y-51511904D01*
X203632380Y-51607142D01*
X203632380Y-51892857D01*
X203584761Y-51988095D01*
X203537142Y-52035714D01*
X202727619Y-51035714D02*
X202680000Y-50988095D01*
X202632380Y-50892857D01*
X202632380Y-50654761D01*
X202680000Y-50559523D01*
X202727619Y-50511904D01*
X202822857Y-50464285D01*
X202918095Y-50464285D01*
X203060952Y-50511904D01*
X203632380Y-51083333D01*
X203632380Y-50464285D01*
%TO.C,U33*%
X191442380Y-53028095D02*
X192251904Y-53028095D01*
X192347142Y-52980476D01*
X192394761Y-52932857D01*
X192442380Y-52837619D01*
X192442380Y-52647142D01*
X192394761Y-52551904D01*
X192347142Y-52504285D01*
X192251904Y-52456666D01*
X191442380Y-52456666D01*
X191442380Y-52075714D02*
X191442380Y-51456666D01*
X191823333Y-51790000D01*
X191823333Y-51647142D01*
X191870952Y-51551904D01*
X191918571Y-51504285D01*
X192013809Y-51456666D01*
X192251904Y-51456666D01*
X192347142Y-51504285D01*
X192394761Y-51551904D01*
X192442380Y-51647142D01*
X192442380Y-51932857D01*
X192394761Y-52028095D01*
X192347142Y-52075714D01*
X191442380Y-51123333D02*
X191442380Y-50504285D01*
X191823333Y-50837619D01*
X191823333Y-50694761D01*
X191870952Y-50599523D01*
X191918571Y-50551904D01*
X192013809Y-50504285D01*
X192251904Y-50504285D01*
X192347142Y-50551904D01*
X192394761Y-50599523D01*
X192442380Y-50694761D01*
X192442380Y-50980476D01*
X192394761Y-51075714D01*
X192347142Y-51123333D01*
%TO.C,U34*%
X179912380Y-53098095D02*
X180721904Y-53098095D01*
X180817142Y-53050476D01*
X180864761Y-53002857D01*
X180912380Y-52907619D01*
X180912380Y-52717142D01*
X180864761Y-52621904D01*
X180817142Y-52574285D01*
X180721904Y-52526666D01*
X179912380Y-52526666D01*
X179912380Y-52145714D02*
X179912380Y-51526666D01*
X180293333Y-51860000D01*
X180293333Y-51717142D01*
X180340952Y-51621904D01*
X180388571Y-51574285D01*
X180483809Y-51526666D01*
X180721904Y-51526666D01*
X180817142Y-51574285D01*
X180864761Y-51621904D01*
X180912380Y-51717142D01*
X180912380Y-52002857D01*
X180864761Y-52098095D01*
X180817142Y-52145714D01*
X180245714Y-50669523D02*
X180912380Y-50669523D01*
X179864761Y-50907619D02*
X180579047Y-51145714D01*
X180579047Y-50526666D01*
%TO.C,U41*%
X138141904Y-133432380D02*
X138141904Y-134241904D01*
X138189523Y-134337142D01*
X138237142Y-134384761D01*
X138332380Y-134432380D01*
X138522857Y-134432380D01*
X138618095Y-134384761D01*
X138665714Y-134337142D01*
X138713333Y-134241904D01*
X138713333Y-133432380D01*
X139618095Y-133765714D02*
X139618095Y-134432380D01*
X139380000Y-133384761D02*
X139141904Y-134099047D01*
X139760952Y-134099047D01*
X140665714Y-134432380D02*
X140094285Y-134432380D01*
X140380000Y-134432380D02*
X140380000Y-133432380D01*
X140284761Y-133575238D01*
X140189523Y-133670476D01*
X140094285Y-133718095D01*
%TO.C,U44*%
X102202380Y-76068095D02*
X103011904Y-76068095D01*
X103107142Y-76020476D01*
X103154761Y-75972857D01*
X103202380Y-75877619D01*
X103202380Y-75687142D01*
X103154761Y-75591904D01*
X103107142Y-75544285D01*
X103011904Y-75496666D01*
X102202380Y-75496666D01*
X102535714Y-74591904D02*
X103202380Y-74591904D01*
X102154761Y-74830000D02*
X102869047Y-75068095D01*
X102869047Y-74449047D01*
X102535714Y-73639523D02*
X103202380Y-73639523D01*
X102154761Y-73877619D02*
X102869047Y-74115714D01*
X102869047Y-73496666D01*
%TD*%
M02*
