%FSLAX45Y45*%
G04 Gerber Fmt 4.5, Leading zero omitted, Abs format (unit mm)*
G04 Created by KiCad (PCBNEW (5.1.12)-1) date 2022-10-26 16:15:54*
%MOMM*%
%LPD*%
G01*
G04 APERTURE LIST*
%TA.AperFunction,Profile*%
%ADD10C,0.050000*%
%TD*%
%ADD11C,0.200000*%
%ADD12C,0.300000*%
G04 APERTURE END LIST*
D10*
X8300000Y-14500000D02*
X8300000Y-3700000D01*
X22100000Y-14500000D02*
X8300000Y-14500000D01*
X22100000Y-3700000D02*
X22100000Y-14500000D01*
X8300000Y-3700000D02*
X22100000Y-3700000D01*
D11*
X8385020Y-14068010D02*
X8425020Y-14108010D01*
X8425020Y-14068010D02*
X8385020Y-14108010D01*
X8698510Y-10738510D02*
X8738510Y-10778510D01*
X8738510Y-10738510D02*
X8698510Y-10778510D01*
X8726010Y-13408970D02*
X8766010Y-13448970D01*
X8766010Y-13408970D02*
X8726010Y-13448970D01*
X8727700Y-5228490D02*
X8767700Y-5268490D01*
X8767700Y-5228490D02*
X8727700Y-5268490D01*
X8729000Y-4353000D02*
X8769000Y-4393000D01*
X8769000Y-4353000D02*
X8729000Y-4393000D01*
X8729000Y-4596000D02*
X8769000Y-4636000D01*
X8769000Y-4596000D02*
X8729000Y-4636000D01*
X8767160Y-9543990D02*
X8807160Y-9583990D01*
X8807160Y-9543990D02*
X8767160Y-9583990D01*
X8771020Y-11222980D02*
X8811020Y-11262980D01*
X8811020Y-11222980D02*
X8771020Y-11262980D01*
X8850260Y-7992490D02*
X8890260Y-8032490D01*
X8890260Y-7992490D02*
X8850260Y-8032490D01*
X8932200Y-10889000D02*
X8972200Y-10929000D01*
X8972200Y-10889000D02*
X8932200Y-10929000D01*
X8952980Y-5765980D02*
X8992980Y-5805980D01*
X8992980Y-5765980D02*
X8952980Y-5805980D01*
X8952980Y-6318000D02*
X8992980Y-6358000D01*
X8992980Y-6318000D02*
X8952980Y-6358000D01*
X9043340Y-10127000D02*
X9083340Y-10167000D01*
X9083340Y-10127000D02*
X9043340Y-10167000D01*
X9043340Y-11125980D02*
X9083340Y-11165980D01*
X9083340Y-11125980D02*
X9043340Y-11165980D01*
X9043340Y-12214490D02*
X9083340Y-12254490D01*
X9083340Y-12214490D02*
X9043340Y-12254490D01*
X9070500Y-6064000D02*
X9110500Y-6104000D01*
X9110500Y-6064000D02*
X9070500Y-6104000D01*
X9106500Y-12638000D02*
X9146500Y-12678000D01*
X9146500Y-12638000D02*
X9106500Y-12678000D01*
X9143010Y-6582480D02*
X9183010Y-6622480D01*
X9183010Y-6582480D02*
X9143010Y-6622480D01*
X9159000Y-12902110D02*
X9199000Y-12942110D01*
X9199000Y-12902110D02*
X9159000Y-12942110D01*
X9160000Y-13260000D02*
X9200000Y-13300000D01*
X9200000Y-13260000D02*
X9160000Y-13300000D01*
X9238990Y-5936000D02*
X9278990Y-5976000D01*
X9278990Y-5936000D02*
X9238990Y-5976000D01*
X9338990Y-12638000D02*
X9378990Y-12678000D01*
X9378990Y-12638000D02*
X9338990Y-12678000D01*
X9424000Y-12999000D02*
X9464000Y-13039000D01*
X9464000Y-12999000D02*
X9424000Y-13039000D01*
X9571520Y-9681510D02*
X9611520Y-9721510D01*
X9611520Y-9681510D02*
X9571520Y-9721510D01*
X9571520Y-10523950D02*
X9611520Y-10563950D01*
X9611520Y-10523950D02*
X9571520Y-10563950D01*
X9580000Y-13463970D02*
X9620000Y-13503970D01*
X9620000Y-13463970D02*
X9580000Y-13503970D01*
X9586720Y-12644840D02*
X9626720Y-12684840D01*
X9626720Y-12644840D02*
X9586720Y-12684840D01*
X9589030Y-5292500D02*
X9629030Y-5332500D01*
X9629030Y-5292500D02*
X9589030Y-5332500D01*
X9589030Y-7079000D02*
X9629030Y-7119000D01*
X9629030Y-7079000D02*
X9589030Y-7119000D01*
X9589030Y-9044010D02*
X9629030Y-9084010D01*
X9629030Y-9044010D02*
X9589030Y-9084010D01*
X9602480Y-4436490D02*
X9642480Y-4476490D01*
X9642480Y-4436490D02*
X9602480Y-4476490D01*
X9661540Y-8799240D02*
X9701540Y-8839240D01*
X9701540Y-8799240D02*
X9661540Y-8839240D01*
X9661540Y-8964480D02*
X9701540Y-9004480D01*
X9701540Y-8964480D02*
X9661540Y-9004480D01*
X9671990Y-11823520D02*
X9711990Y-11863520D01*
X9711990Y-11823520D02*
X9671990Y-11863520D01*
X9678000Y-13189940D02*
X9718000Y-13229940D01*
X9718000Y-13189940D02*
X9678000Y-13229940D01*
X9734050Y-6649980D02*
X9774050Y-6689980D01*
X9774050Y-6649980D02*
X9734050Y-6689980D01*
X9734050Y-6976490D02*
X9774050Y-7016490D01*
X9774050Y-6976490D02*
X9734050Y-7016490D01*
X9763250Y-9543990D02*
X9803250Y-9583990D01*
X9803250Y-9543990D02*
X9763250Y-9583990D01*
X9775070Y-6468490D02*
X9815070Y-6508490D01*
X9815070Y-6468490D02*
X9775070Y-6508490D01*
X9835760Y-10786490D02*
X9875760Y-10826490D01*
X9875760Y-10786490D02*
X9835760Y-10826490D01*
X9835760Y-10923970D02*
X9875760Y-10963970D01*
X9875760Y-10923970D02*
X9835760Y-10963970D01*
X9835760Y-12188240D02*
X9875760Y-12228240D01*
X9875760Y-12188240D02*
X9835760Y-12228240D01*
X9849400Y-5482490D02*
X9889400Y-5522490D01*
X9889400Y-5482490D02*
X9849400Y-5522490D01*
X9908270Y-8799240D02*
X9948270Y-8839240D01*
X9948270Y-8799240D02*
X9908270Y-8839240D01*
X9908270Y-9697980D02*
X9948270Y-9737980D01*
X9948270Y-9697980D02*
X9908270Y-9737980D01*
X9932000Y-11548490D02*
X9972000Y-11588490D01*
X9972000Y-11548490D02*
X9932000Y-11588490D01*
X9995000Y-4147110D02*
X10035000Y-4187110D01*
X10035000Y-4147110D02*
X9995000Y-4187110D01*
X10008280Y-10005960D02*
X10048280Y-10045960D01*
X10048280Y-10005960D02*
X10008280Y-10045960D01*
X10014520Y-8246490D02*
X10054520Y-8286490D01*
X10054520Y-8246490D02*
X10014520Y-8286490D01*
X10034950Y-10406000D02*
X10074950Y-10446000D01*
X10074950Y-10406000D02*
X10034950Y-10446000D01*
X10100110Y-13720000D02*
X10140110Y-13760000D01*
X10140110Y-13720000D02*
X10100110Y-13760000D01*
X10107460Y-6318000D02*
X10147460Y-6358000D01*
X10147460Y-6318000D02*
X10107460Y-6358000D01*
X10142610Y-5030480D02*
X10182610Y-5070480D01*
X10182610Y-5030480D02*
X10142610Y-5070480D01*
X10150920Y-12647540D02*
X10190920Y-12687540D01*
X10190920Y-12647540D02*
X10150920Y-12687540D01*
X10165540Y-5292500D02*
X10205540Y-5332500D01*
X10205540Y-5292500D02*
X10165540Y-5332500D01*
X10179970Y-6826000D02*
X10219970Y-6866000D01*
X10219970Y-6826000D02*
X10179970Y-6866000D01*
X10179970Y-9269370D02*
X10219970Y-9309370D01*
X10219970Y-9269370D02*
X10179970Y-9309370D01*
X10179970Y-11905000D02*
X10219970Y-11945000D01*
X10219970Y-11905000D02*
X10179970Y-11945000D01*
X10185000Y-13140000D02*
X10225000Y-13180000D01*
X10225000Y-13140000D02*
X10185000Y-13180000D01*
X10223640Y-12360760D02*
X10263640Y-12400760D01*
X10263640Y-12360760D02*
X10223640Y-12400760D01*
X10253290Y-4074600D02*
X10293290Y-4114600D01*
X10293290Y-4074600D02*
X10253290Y-4114600D01*
X10276200Y-13903800D02*
X10316200Y-13943800D01*
X10316200Y-13903800D02*
X10276200Y-13943800D01*
X10310000Y-11265000D02*
X10350000Y-11305000D01*
X10350000Y-11265000D02*
X10310000Y-11305000D01*
X10311000Y-10006000D02*
X10351000Y-10046000D01*
X10351000Y-10006000D02*
X10311000Y-10046000D01*
X10311000Y-10596460D02*
X10351000Y-10636460D01*
X10351000Y-10596460D02*
X10311000Y-10636460D01*
X10324990Y-6898510D02*
X10364990Y-6938510D01*
X10364990Y-6898510D02*
X10324990Y-6938510D01*
X10324990Y-7842000D02*
X10364990Y-7882000D01*
X10364990Y-7842000D02*
X10324990Y-7882000D01*
X10352490Y-9874500D02*
X10392490Y-9914500D01*
X10392490Y-9874500D02*
X10352490Y-9914500D01*
X10431110Y-10668970D02*
X10471110Y-10708970D01*
X10471110Y-10668970D02*
X10431110Y-10708970D01*
X10433660Y-7588000D02*
X10473660Y-7628000D01*
X10473660Y-7588000D02*
X10433660Y-7628000D01*
X10433660Y-9036990D02*
X10473660Y-9076990D01*
X10473660Y-9036990D02*
X10433660Y-9076990D01*
X10437380Y-12160000D02*
X10477380Y-12200000D01*
X10477380Y-12160000D02*
X10437380Y-12200000D01*
X10438060Y-4784500D02*
X10478060Y-4824500D01*
X10478060Y-4784500D02*
X10438060Y-4824500D01*
X10455000Y-5943980D02*
X10495000Y-5983980D01*
X10495000Y-5943980D02*
X10455000Y-5983980D01*
X10505000Y-5675000D02*
X10545000Y-5715000D01*
X10545000Y-5675000D02*
X10505000Y-5715000D01*
X10509890Y-8827000D02*
X10549890Y-8867000D01*
X10549890Y-8827000D02*
X10509890Y-8867000D01*
X10555000Y-4340000D02*
X10595000Y-4380000D01*
X10595000Y-4340000D02*
X10555000Y-4380000D01*
X10608530Y-5010010D02*
X10648530Y-5050010D01*
X10648530Y-5010010D02*
X10608530Y-5050010D01*
X10627410Y-13720000D02*
X10667410Y-13760000D01*
X10667410Y-13720000D02*
X10627410Y-13760000D01*
X10629000Y-10596460D02*
X10669000Y-10636460D01*
X10669000Y-10596460D02*
X10629000Y-10636460D01*
X10644000Y-4782000D02*
X10684000Y-4822000D01*
X10684000Y-4782000D02*
X10644000Y-4822000D01*
X10685000Y-4910000D02*
X10725000Y-4950000D01*
X10725000Y-4910000D02*
X10685000Y-4950000D01*
X10701510Y-8785490D02*
X10741510Y-8825490D01*
X10741510Y-8785490D02*
X10701510Y-8825490D01*
X10702190Y-13968000D02*
X10742190Y-14008000D01*
X10742190Y-13968000D02*
X10702190Y-14008000D01*
X10707940Y-5419500D02*
X10747940Y-5459500D01*
X10747940Y-5419500D02*
X10707940Y-5459500D01*
X10726100Y-10049020D02*
X10766100Y-10089020D01*
X10766100Y-10049020D02*
X10726100Y-10089020D01*
X10729010Y-10668970D02*
X10769010Y-10708970D01*
X10769010Y-10668970D02*
X10729010Y-10708970D01*
X10851170Y-5843970D02*
X10891170Y-5883970D01*
X10891170Y-5843970D02*
X10851170Y-5883970D01*
X10957010Y-5771460D02*
X10997010Y-5811460D01*
X10997010Y-5771460D02*
X10957010Y-5811460D01*
X10980460Y-4619680D02*
X11020460Y-4659680D01*
X11020460Y-4619680D02*
X10980460Y-4659680D01*
X11012010Y-10127000D02*
X11052010Y-10167000D01*
X11052010Y-10127000D02*
X11012010Y-10167000D01*
X11084520Y-9976510D02*
X11124520Y-10016510D01*
X11124520Y-9976510D02*
X11084520Y-10016510D01*
X11125480Y-4074600D02*
X11165480Y-4114600D01*
X11165480Y-4074600D02*
X11125480Y-4114600D01*
X11125480Y-4762910D02*
X11165480Y-4802910D01*
X11165480Y-4762910D02*
X11125480Y-4802910D01*
X11147040Y-6903980D02*
X11187040Y-6943980D01*
X11187040Y-6903980D02*
X11147040Y-6943980D01*
X11147040Y-7923480D02*
X11187040Y-7963480D01*
X11187040Y-7923480D02*
X11147040Y-7963480D01*
X11147040Y-8023490D02*
X11187040Y-8063490D01*
X11187040Y-8023490D02*
X11147040Y-8063490D01*
X11147040Y-10668970D02*
X11187040Y-10708970D01*
X11187040Y-10668970D02*
X11147040Y-10708970D01*
X11147040Y-13327490D02*
X11187040Y-13367490D01*
X11187040Y-13327490D02*
X11147040Y-13367490D01*
X11183440Y-10382000D02*
X11223440Y-10422000D01*
X11223440Y-10382000D02*
X11183440Y-10422000D01*
X11210500Y-4267490D02*
X11250500Y-4307490D01*
X11250500Y-4267490D02*
X11210500Y-4307490D01*
X11210500Y-4944490D02*
X11250500Y-4984490D01*
X11250500Y-4944490D02*
X11210500Y-4984490D01*
X11255950Y-8381230D02*
X11295950Y-8421230D01*
X11295950Y-8381230D02*
X11255950Y-8421230D01*
X11255950Y-8649640D02*
X11295950Y-8689640D01*
X11295950Y-8649640D02*
X11255950Y-8689640D01*
X11255950Y-12879880D02*
X11295950Y-12919880D01*
X11295950Y-12879880D02*
X11255950Y-12919880D01*
X11334270Y-4771970D02*
X11374270Y-4811970D01*
X11374270Y-4771970D02*
X11334270Y-4811970D01*
X11334270Y-8754490D02*
X11374270Y-8794490D01*
X11374270Y-8754490D02*
X11334270Y-8794490D01*
X11334270Y-11651000D02*
X11374270Y-11691000D01*
X11374270Y-11651000D02*
X11334270Y-11691000D01*
X11337070Y-6903980D02*
X11377070Y-6943980D01*
X11377070Y-6903980D02*
X11337070Y-6943980D01*
X11345590Y-5843970D02*
X11385590Y-5883970D01*
X11385590Y-5843970D02*
X11345590Y-5883970D01*
X11406780Y-10889000D02*
X11446780Y-10929000D01*
X11446780Y-10889000D02*
X11406780Y-10929000D01*
X11406780Y-12952390D02*
X11446780Y-12992390D01*
X11446780Y-12952390D02*
X11406780Y-12992390D01*
X11455219Y-4847301D02*
X11495219Y-4887301D01*
X11495219Y-4847301D02*
X11455219Y-4887301D01*
X11479630Y-8681980D02*
X11519630Y-8721980D01*
X11519630Y-8681980D02*
X11479630Y-8721980D01*
X11496800Y-13176000D02*
X11536800Y-13216000D01*
X11536800Y-13176000D02*
X11496800Y-13216000D01*
X11511790Y-8096000D02*
X11551790Y-8136000D01*
X11551790Y-8096000D02*
X11511790Y-8136000D01*
X11727510Y-12624500D02*
X11767510Y-12664500D01*
X11767510Y-12624500D02*
X11727510Y-12664500D01*
X11727510Y-13032490D02*
X11767510Y-13072490D01*
X11767510Y-13032490D02*
X11727510Y-13072490D01*
X11727510Y-13132500D02*
X11767510Y-13172500D01*
X11767510Y-13132500D02*
X11727510Y-13172500D01*
X11757510Y-11499510D02*
X11797510Y-11539510D01*
X11797510Y-11499510D02*
X11757510Y-11539510D01*
X11785010Y-5244050D02*
X11825010Y-5284050D01*
X11825010Y-5244050D02*
X11785010Y-5284050D01*
X11827520Y-12497500D02*
X11867520Y-12537500D01*
X11867520Y-12497500D02*
X11827520Y-12537500D01*
X11830020Y-6063000D02*
X11870020Y-6103000D01*
X11870020Y-6063000D02*
X11830020Y-6103000D01*
X11847530Y-8065000D02*
X11887530Y-8105000D01*
X11887530Y-8065000D02*
X11847530Y-8105000D01*
X11857520Y-5316560D02*
X11897520Y-5356560D01*
X11897520Y-5316560D02*
X11857520Y-5356560D01*
X11864650Y-13005500D02*
X11904650Y-13045500D01*
X11904650Y-13005500D02*
X11864650Y-13045500D01*
X11900030Y-12751500D02*
X11940030Y-12791500D01*
X11940030Y-12751500D02*
X11900030Y-12791500D01*
X11920040Y-7894270D02*
X11960040Y-7934270D01*
X11960040Y-7894270D02*
X11920040Y-7934270D01*
X11920040Y-8468990D02*
X11960040Y-8508990D01*
X11960040Y-8468990D02*
X11920040Y-8508990D01*
X11932000Y-11143000D02*
X11972000Y-11183000D01*
X11972000Y-11143000D02*
X11932000Y-11183000D01*
X11964130Y-14068050D02*
X12004130Y-14108050D01*
X12004130Y-14068050D02*
X11964130Y-14108050D01*
X11964650Y-13259500D02*
X12004650Y-13299500D01*
X12004650Y-13259500D02*
X11964650Y-13299500D01*
X11978000Y-11363000D02*
X12018000Y-11403000D01*
X12018000Y-11363000D02*
X11978000Y-11403000D01*
X12002540Y-5665490D02*
X12042540Y-5705490D01*
X12042540Y-5665490D02*
X12002540Y-5705490D01*
X12009410Y-5476460D02*
X12049410Y-5516460D01*
X12049410Y-5476460D02*
X12009410Y-5516460D01*
X12037560Y-6190500D02*
X12077560Y-6230500D01*
X12077560Y-6190500D02*
X12037560Y-6230500D01*
X12047340Y-12370500D02*
X12087340Y-12410500D01*
X12087340Y-12370500D02*
X12047340Y-12410500D01*
X12081000Y-7329000D02*
X12121000Y-7369000D01*
X12121000Y-7329000D02*
X12081000Y-7369000D01*
X12092560Y-8056460D02*
X12132560Y-8096460D01*
X12132560Y-8056460D02*
X12092560Y-8096460D01*
X12106500Y-8668500D02*
X12146500Y-8708500D01*
X12146500Y-8668500D02*
X12106500Y-8708500D01*
X12106500Y-9606890D02*
X12146500Y-9646890D01*
X12146500Y-9606890D02*
X12106500Y-9646890D01*
X12110070Y-6630500D02*
X12150070Y-6670500D01*
X12150070Y-6630500D02*
X12110070Y-6670500D01*
X12121990Y-6757500D02*
X12161990Y-6797500D01*
X12161990Y-6757500D02*
X12121990Y-6797500D01*
X12121990Y-8922500D02*
X12161990Y-8962500D01*
X12161990Y-8922500D02*
X12121990Y-8962500D01*
X12155000Y-10075000D02*
X12195000Y-10115000D01*
X12195000Y-10075000D02*
X12155000Y-10115000D01*
X12155000Y-10390000D02*
X12195000Y-10430000D01*
X12195000Y-10390000D02*
X12155000Y-10430000D01*
X12160000Y-11155000D02*
X12200000Y-11195000D01*
X12200000Y-11155000D02*
X12160000Y-11195000D01*
X12160000Y-11470000D02*
X12200000Y-11510000D01*
X12200000Y-11470000D02*
X12160000Y-11510000D01*
X12170000Y-4780000D02*
X12210000Y-4820000D01*
X12210000Y-4780000D02*
X12170000Y-4820000D01*
X12182500Y-5476460D02*
X12222500Y-5516460D01*
X12222500Y-5476460D02*
X12182500Y-5516460D01*
X12192080Y-10841530D02*
X12232080Y-10881530D01*
X12232080Y-10841530D02*
X12192080Y-10881530D01*
X12279500Y-7983950D02*
X12319500Y-8023950D01*
X12319500Y-7983950D02*
X12279500Y-8023950D01*
X12281610Y-11187900D02*
X12321610Y-11227900D01*
X12321610Y-11187900D02*
X12281610Y-11227900D01*
X12291610Y-4436490D02*
X12331610Y-4476490D01*
X12331610Y-4436490D02*
X12291610Y-4476490D01*
X12318200Y-12138040D02*
X12358200Y-12178040D01*
X12358200Y-12138040D02*
X12318200Y-12178040D01*
X12337490Y-4240490D02*
X12377490Y-4280490D01*
X12377490Y-4240490D02*
X12337490Y-4280490D01*
X12350130Y-5957370D02*
X12390130Y-5997370D01*
X12390130Y-5957370D02*
X12350130Y-5997370D01*
X12355000Y-13650000D02*
X12395000Y-13690000D01*
X12395000Y-13650000D02*
X12355000Y-13690000D01*
X12409510Y-7620010D02*
X12449510Y-7660010D01*
X12449510Y-7620010D02*
X12409510Y-7660010D01*
X12426000Y-11189000D02*
X12466000Y-11229000D01*
X12466000Y-11189000D02*
X12426000Y-11229000D01*
X12426000Y-11729980D02*
X12466000Y-11769980D01*
X12466000Y-11729980D02*
X12426000Y-11769980D01*
X12427500Y-5490390D02*
X12467500Y-5530390D01*
X12467500Y-5490390D02*
X12427500Y-5530390D01*
X12428000Y-4551000D02*
X12468000Y-4591000D01*
X12468000Y-4551000D02*
X12428000Y-4591000D01*
X12437010Y-6360270D02*
X12477010Y-6400270D01*
X12477010Y-6360270D02*
X12437010Y-6400270D01*
X12437010Y-6503500D02*
X12477010Y-6543500D01*
X12477010Y-6503500D02*
X12437010Y-6543500D01*
X12437010Y-6884500D02*
X12477010Y-6924500D01*
X12477010Y-6884500D02*
X12437010Y-6924500D01*
X12437010Y-8795500D02*
X12477010Y-8835500D01*
X12477010Y-8795500D02*
X12437010Y-8835500D01*
X12437010Y-9049500D02*
X12477010Y-9089500D01*
X12477010Y-9049500D02*
X12437010Y-9089500D01*
X12445000Y-10130000D02*
X12485000Y-10170000D01*
X12485000Y-10130000D02*
X12445000Y-10170000D01*
X12455000Y-9300000D02*
X12495000Y-9340000D01*
X12495000Y-9300000D02*
X12455000Y-9340000D01*
X12464510Y-7279720D02*
X12504510Y-7319720D01*
X12504510Y-7279720D02*
X12464510Y-7319720D01*
X12465350Y-4944490D02*
X12505350Y-4984490D01*
X12505350Y-4944490D02*
X12465350Y-4984490D01*
X12475000Y-13385000D02*
X12515000Y-13425000D01*
X12515000Y-13385000D02*
X12475000Y-13425000D01*
X12480000Y-7520000D02*
X12520000Y-7560000D01*
X12520000Y-7520000D02*
X12480000Y-7560000D01*
X12482500Y-7983950D02*
X12522500Y-8023950D01*
X12522500Y-7983950D02*
X12482500Y-8023950D01*
X12490490Y-6626860D02*
X12530490Y-6666860D01*
X12530490Y-6626860D02*
X12490490Y-6666860D01*
X12508510Y-10348940D02*
X12548510Y-10388940D01*
X12548510Y-10348940D02*
X12508510Y-10388940D01*
X12509520Y-8895510D02*
X12549520Y-8935510D01*
X12549520Y-8895510D02*
X12509520Y-8935510D01*
X12553000Y-11338920D02*
X12593000Y-11378920D01*
X12593000Y-11338920D02*
X12553000Y-11378920D01*
X12553000Y-11802490D02*
X12593000Y-11842490D01*
X12593000Y-11802490D02*
X12553000Y-11842490D01*
X12583310Y-6138750D02*
X12623310Y-6178750D01*
X12623310Y-6138750D02*
X12583310Y-6178750D01*
X12583310Y-7732480D02*
X12623310Y-7772480D01*
X12623310Y-7732480D02*
X12583310Y-7772480D01*
X12583310Y-8056460D02*
X12623310Y-8096460D01*
X12623310Y-8056460D02*
X12583310Y-8096460D01*
X12598090Y-13110260D02*
X12638090Y-13150260D01*
X12638090Y-13110260D02*
X12598090Y-13150260D01*
X12653010Y-11762530D02*
X12693010Y-11802530D01*
X12693010Y-11762530D02*
X12653010Y-11802530D01*
X12729990Y-8127940D02*
X12769990Y-8167940D01*
X12769990Y-8127940D02*
X12729990Y-8167940D01*
X12738250Y-5885610D02*
X12778250Y-5925610D01*
X12778250Y-5885610D02*
X12738250Y-5925610D01*
X12742510Y-10685350D02*
X12782510Y-10725350D01*
X12782510Y-10685350D02*
X12742510Y-10725350D01*
X12762510Y-11768220D02*
X12802510Y-11808220D01*
X12802510Y-11768220D02*
X12762510Y-11808220D01*
X12795000Y-11980000D02*
X12835000Y-12020000D01*
X12835000Y-11980000D02*
X12795000Y-12020000D01*
X12800000Y-6125000D02*
X12840000Y-6165000D01*
X12840000Y-6125000D02*
X12800000Y-6165000D01*
X12812520Y-8055950D02*
X12852520Y-8095950D01*
X12852520Y-8055950D02*
X12812520Y-8095950D01*
X12815000Y-7905000D02*
X12855000Y-7945000D01*
X12855000Y-7905000D02*
X12815000Y-7945000D01*
X12819020Y-13110260D02*
X12859020Y-13150260D01*
X12859020Y-13110260D02*
X12819020Y-13150260D01*
X12828330Y-6287760D02*
X12868330Y-6327760D01*
X12868330Y-6287760D02*
X12828330Y-6327760D01*
X12847510Y-7620010D02*
X12887510Y-7660010D01*
X12887510Y-7620010D02*
X12847510Y-7660010D01*
X12875010Y-6783890D02*
X12915010Y-6823890D01*
X12915010Y-6783890D02*
X12875010Y-6823890D01*
X12891200Y-13386500D02*
X12931200Y-13426500D01*
X12931200Y-13386500D02*
X12891200Y-13426500D01*
X12902510Y-6902010D02*
X12942510Y-6942010D01*
X12942510Y-6902010D02*
X12902510Y-6942010D01*
X12935500Y-4619770D02*
X12975500Y-4659770D01*
X12975500Y-4619770D02*
X12935500Y-4659770D01*
X12935500Y-5157990D02*
X12975500Y-5197990D01*
X12975500Y-5157990D02*
X12935500Y-5197990D01*
X12939520Y-10348940D02*
X12979520Y-10388940D01*
X12979520Y-10348940D02*
X12939520Y-10388940D01*
X12940020Y-12502250D02*
X12980020Y-12542250D01*
X12980020Y-12502250D02*
X12940020Y-12542250D01*
X12942020Y-11731890D02*
X12982020Y-11771890D01*
X12982020Y-11731890D02*
X12942020Y-11771890D01*
X13020000Y-12245000D02*
X13060000Y-12285000D01*
X13060000Y-12245000D02*
X13020000Y-12285000D01*
X13030000Y-6378000D02*
X13070000Y-6418000D01*
X13070000Y-6378000D02*
X13030000Y-6418000D01*
X13035000Y-8160000D02*
X13075000Y-8200000D01*
X13075000Y-8160000D02*
X13035000Y-8200000D01*
X13036220Y-13005500D02*
X13076220Y-13045500D01*
X13076220Y-13005500D02*
X13036220Y-13045500D01*
X13037540Y-7392500D02*
X13077540Y-7432500D01*
X13077540Y-7392500D02*
X13037540Y-7432500D01*
X13037540Y-8395650D02*
X13077540Y-8435650D01*
X13077540Y-8395650D02*
X13037540Y-8435650D01*
X13037540Y-8815740D02*
X13077540Y-8855740D01*
X13077540Y-8815740D02*
X13037540Y-8855740D01*
X13037540Y-9049500D02*
X13077540Y-9089500D01*
X13077540Y-9049500D02*
X13037540Y-9089500D01*
X13043500Y-11768470D02*
X13083500Y-11808470D01*
X13083500Y-11768470D02*
X13043500Y-11808470D01*
X13059990Y-13386500D02*
X13099990Y-13426500D01*
X13099990Y-13386500D02*
X13059990Y-13426500D01*
X13061000Y-11159060D02*
X13101000Y-11199060D01*
X13101000Y-11159060D02*
X13061000Y-11199060D01*
X13062500Y-4528010D02*
X13102500Y-4568010D01*
X13102500Y-4528010D02*
X13062500Y-4568010D01*
X13062500Y-5157990D02*
X13102500Y-5197990D01*
X13102500Y-5157990D02*
X13062500Y-5197990D01*
X13066990Y-7138500D02*
X13106990Y-7178500D01*
X13106990Y-7138500D02*
X13066990Y-7178500D01*
X13131720Y-11239990D02*
X13171720Y-11279990D01*
X13171720Y-11239990D02*
X13131720Y-11279990D01*
X13144010Y-6245490D02*
X13184010Y-6285490D01*
X13184010Y-6245490D02*
X13144010Y-6285490D01*
X13168000Y-10079060D02*
X13208000Y-10119060D01*
X13208000Y-10079060D02*
X13168000Y-10119060D01*
X13185500Y-9688220D02*
X13225500Y-9728220D01*
X13225500Y-9688220D02*
X13185500Y-9728220D01*
X13185500Y-10685350D02*
X13225500Y-10725350D01*
X13225500Y-10685350D02*
X13185500Y-10725350D01*
X13189500Y-5157990D02*
X13229500Y-5197990D01*
X13229500Y-5157990D02*
X13189500Y-5197990D01*
X13190000Y-11340000D02*
X13230000Y-11380000D01*
X13230000Y-11340000D02*
X13190000Y-11380000D01*
X13310000Y-10265000D02*
X13350000Y-10305000D01*
X13350000Y-10265000D02*
X13310000Y-10305000D01*
X13345250Y-5587400D02*
X13385250Y-5627400D01*
X13385250Y-5587400D02*
X13345250Y-5627400D01*
X13362520Y-10877170D02*
X13402520Y-10917170D01*
X13402520Y-10877170D02*
X13362520Y-10917170D01*
X13362520Y-12132110D02*
X13402520Y-12172110D01*
X13402520Y-12132110D02*
X13362520Y-12172110D01*
X13375010Y-12624500D02*
X13415010Y-12664500D01*
X13415010Y-12624500D02*
X13375010Y-12664500D01*
X13382010Y-8668500D02*
X13422010Y-8708500D01*
X13422010Y-8668500D02*
X13382010Y-8708500D01*
X13382010Y-8888250D02*
X13422010Y-8928250D01*
X13422010Y-8888250D02*
X13382010Y-8928250D01*
X13382510Y-10625000D02*
X13422510Y-10665000D01*
X13422510Y-10625000D02*
X13382510Y-10665000D01*
X13397200Y-7446990D02*
X13437200Y-7486990D01*
X13437200Y-7446990D02*
X13397200Y-7486990D01*
X13410990Y-5057980D02*
X13450990Y-5097980D01*
X13450990Y-5057980D02*
X13410990Y-5097980D01*
X13419400Y-13010250D02*
X13459400Y-13050250D01*
X13459400Y-13010250D02*
X13419400Y-13050250D01*
X13443500Y-4554490D02*
X13483500Y-4594490D01*
X13483500Y-4554490D02*
X13443500Y-4594490D01*
X13454520Y-9103990D02*
X13494520Y-9143990D01*
X13494520Y-9103990D02*
X13454520Y-9143990D01*
X13458510Y-12497500D02*
X13498510Y-12537500D01*
X13498510Y-12497500D02*
X13458510Y-12537500D01*
X13469710Y-7134700D02*
X13509710Y-7174700D01*
X13509710Y-7134700D02*
X13469710Y-7174700D01*
X13483130Y-8528110D02*
X13523130Y-8568110D01*
X13523130Y-8528110D02*
X13483130Y-8568110D01*
X13500030Y-9401020D02*
X13540030Y-9441020D01*
X13540030Y-9401020D02*
X13500030Y-9441020D01*
X13500030Y-11578440D02*
X13540030Y-11618440D01*
X13540030Y-11578440D02*
X13500030Y-11618440D01*
X13531020Y-12229500D02*
X13571020Y-12269500D01*
X13571020Y-12229500D02*
X13531020Y-12269500D01*
X13570000Y-5115000D02*
X13610000Y-5155000D01*
X13610000Y-5115000D02*
X13570000Y-5155000D01*
X13570000Y-12575000D02*
X13610000Y-12615000D01*
X13610000Y-12575000D02*
X13570000Y-12615000D01*
X13572540Y-11387000D02*
X13612540Y-11427000D01*
X13612540Y-11387000D02*
X13572540Y-11427000D01*
X13572540Y-11840980D02*
X13612540Y-11880980D01*
X13612540Y-11840980D02*
X13572540Y-11880980D01*
X13573150Y-7416360D02*
X13613150Y-7456360D01*
X13613150Y-7416360D02*
X13573150Y-7456360D01*
X13575040Y-10099500D02*
X13615040Y-10139500D01*
X13615040Y-10099500D02*
X13575040Y-10139500D01*
X13575040Y-10910120D02*
X13615040Y-10950120D01*
X13615040Y-10910120D02*
X13575040Y-10950120D01*
X13592250Y-6902010D02*
X13632250Y-6942010D01*
X13632250Y-6902010D02*
X13592250Y-6942010D01*
X13646090Y-6001340D02*
X13686090Y-6041340D01*
X13686090Y-6001340D02*
X13646090Y-6041340D01*
X13664760Y-7570350D02*
X13704760Y-7610350D01*
X13704760Y-7570350D02*
X13664760Y-7610350D01*
X13737110Y-12893900D02*
X13777110Y-12933900D01*
X13777110Y-12893900D02*
X13737110Y-12933900D01*
X13755080Y-7956500D02*
X13795080Y-7996500D01*
X13795080Y-7956500D02*
X13755080Y-7996500D01*
X13764770Y-7641080D02*
X13804770Y-7681080D01*
X13804770Y-7641080D02*
X13764770Y-7681080D01*
X13765070Y-8504870D02*
X13805070Y-8544870D01*
X13805070Y-8504870D02*
X13765070Y-8544870D01*
X13784000Y-11986000D02*
X13824000Y-12026000D01*
X13824000Y-11986000D02*
X13784000Y-12026000D01*
X13784000Y-12090380D02*
X13824000Y-12130380D01*
X13824000Y-12090380D02*
X13784000Y-12130380D01*
X13784000Y-12229500D02*
X13824000Y-12269500D01*
X13824000Y-12229500D02*
X13784000Y-12269500D01*
X13832400Y-11126750D02*
X13872400Y-11166750D01*
X13872400Y-11126750D02*
X13832400Y-11166750D01*
X13837280Y-7497840D02*
X13877280Y-7537840D01*
X13877280Y-7497840D02*
X13837280Y-7537840D01*
X13845680Y-8744780D02*
X13885680Y-8784780D01*
X13885680Y-8744780D02*
X13845680Y-8784780D01*
X13872680Y-6372860D02*
X13912680Y-6412860D01*
X13912680Y-6372860D02*
X13872680Y-6412860D01*
X13872890Y-5133000D02*
X13912890Y-5173000D01*
X13912890Y-5133000D02*
X13872890Y-5173000D01*
X13875000Y-6985000D02*
X13915000Y-7025000D01*
X13915000Y-6985000D02*
X13875000Y-7025000D01*
X13876000Y-7308000D02*
X13916000Y-7348000D01*
X13916000Y-7308000D02*
X13876000Y-7348000D01*
X13919220Y-7778060D02*
X13959220Y-7818060D01*
X13959220Y-7778060D02*
X13919220Y-7818060D01*
X13952490Y-8029010D02*
X13992490Y-8069010D01*
X13992490Y-8029010D02*
X13952490Y-8069010D01*
X13952490Y-8432360D02*
X13992490Y-8472360D01*
X13992490Y-8432360D02*
X13952490Y-8472360D01*
X13985000Y-8695000D02*
X14025000Y-8735000D01*
X14025000Y-8695000D02*
X13985000Y-8735000D01*
X14001010Y-6626860D02*
X14041010Y-6666860D01*
X14041010Y-6626860D02*
X14001010Y-6666860D01*
X14025000Y-8254490D02*
X14065000Y-8294490D01*
X14065000Y-8254490D02*
X14025000Y-8294490D01*
X14025000Y-8527430D02*
X14065000Y-8567430D01*
X14065000Y-8527430D02*
X14025000Y-8567430D01*
X14073520Y-6942010D02*
X14113520Y-6982010D01*
X14113520Y-6942010D02*
X14073520Y-6982010D01*
X14074040Y-12657000D02*
X14114040Y-12697000D01*
X14114040Y-12657000D02*
X14074040Y-12697000D01*
X14091740Y-7543950D02*
X14131740Y-7583950D01*
X14131740Y-7543950D02*
X14091740Y-7583950D01*
X14109060Y-12226860D02*
X14149060Y-12266860D01*
X14149060Y-12226860D02*
X14109060Y-12266860D01*
X14121030Y-6191370D02*
X14161030Y-6231370D01*
X14161030Y-6191370D02*
X14121030Y-6231370D01*
X14150120Y-8504870D02*
X14190120Y-8544870D01*
X14190120Y-8504870D02*
X14150120Y-8544870D01*
X14184000Y-11691000D02*
X14224000Y-11731000D01*
X14224000Y-11691000D02*
X14184000Y-11731000D01*
X14187490Y-7311000D02*
X14227490Y-7351000D01*
X14227490Y-7311000D02*
X14187490Y-7351000D01*
X14193540Y-5250380D02*
X14233540Y-5290380D01*
X14233540Y-5250380D02*
X14193540Y-5290380D01*
X14215800Y-10314200D02*
X14255800Y-10354200D01*
X14255800Y-10314200D02*
X14215800Y-10354200D01*
X14222630Y-8757140D02*
X14262630Y-8797140D01*
X14262630Y-8757140D02*
X14222630Y-8797140D01*
X14235500Y-8857150D02*
X14275500Y-8897150D01*
X14275500Y-8857150D02*
X14235500Y-8897150D01*
X14265000Y-9870000D02*
X14305000Y-9910000D01*
X14305000Y-9870000D02*
X14265000Y-9910000D01*
X14293480Y-12584490D02*
X14333480Y-12624490D01*
X14333480Y-12584490D02*
X14293480Y-12624490D01*
X14312660Y-13016360D02*
X14352660Y-13056360D01*
X14352660Y-13016360D02*
X14312660Y-13056360D01*
X14338560Y-4557490D02*
X14378560Y-4597490D01*
X14378560Y-4557490D02*
X14338560Y-4597490D01*
X14338560Y-5779960D02*
X14378560Y-5819960D01*
X14378560Y-5779960D02*
X14338560Y-5819960D01*
X14400530Y-8907960D02*
X14440530Y-8947960D01*
X14440530Y-8907960D02*
X14400530Y-8947960D01*
X14404440Y-10321350D02*
X14444440Y-10361350D01*
X14444440Y-10321350D02*
X14404440Y-10361350D01*
X14404440Y-10548870D02*
X14444440Y-10588870D01*
X14444440Y-10548870D02*
X14404440Y-10588870D01*
X14483580Y-5331440D02*
X14523580Y-5371440D01*
X14523580Y-5331440D02*
X14483580Y-5371440D01*
X14491050Y-4260050D02*
X14531050Y-4300050D01*
X14531050Y-4260050D02*
X14491050Y-4300050D01*
X14504540Y-4654500D02*
X14544540Y-4694500D01*
X14544540Y-4654500D02*
X14504540Y-4694500D01*
X14504540Y-5035500D02*
X14544540Y-5075500D01*
X14544540Y-5035500D02*
X14504540Y-5075500D01*
X14508250Y-10393860D02*
X14548250Y-10433860D01*
X14548250Y-10393860D02*
X14508250Y-10433860D01*
X14585000Y-9870000D02*
X14625000Y-9910000D01*
X14625000Y-9870000D02*
X14585000Y-9910000D01*
X14587870Y-8980470D02*
X14627870Y-9020470D01*
X14627870Y-8980470D02*
X14587870Y-9020470D01*
X14589000Y-9256000D02*
X14629000Y-9296000D01*
X14629000Y-9256000D02*
X14589000Y-9296000D01*
X14639290Y-4201450D02*
X14679290Y-4241450D01*
X14679290Y-4201450D02*
X14639290Y-4241450D01*
X14711610Y-8966130D02*
X14751610Y-9006130D01*
X14751610Y-8966130D02*
X14711610Y-9006130D01*
X14740000Y-4015000D02*
X14780000Y-4055000D01*
X14780000Y-4015000D02*
X14740000Y-4055000D01*
X14777060Y-4381990D02*
X14817060Y-4421990D01*
X14817060Y-4381990D02*
X14777060Y-4421990D01*
X14789560Y-4826970D02*
X14829560Y-4866970D01*
X14829560Y-4826970D02*
X14789560Y-4866970D01*
X14825000Y-5290000D02*
X14865000Y-5330000D01*
X14865000Y-5290000D02*
X14825000Y-5330000D01*
X14897510Y-5395360D02*
X14937510Y-5435360D01*
X14937510Y-5395360D02*
X14897510Y-5435360D01*
X14971640Y-9688220D02*
X15011640Y-9728220D01*
X15011640Y-9688220D02*
X14971640Y-9728220D01*
X14971640Y-9862470D02*
X15011640Y-9902470D01*
X15011640Y-9862470D02*
X14971640Y-9902470D01*
X14990000Y-4400000D02*
X15030000Y-4440000D01*
X15030000Y-4400000D02*
X14990000Y-4440000D01*
X15000000Y-4630000D02*
X15040000Y-4670000D01*
X15040000Y-4630000D02*
X15000000Y-4670000D01*
X15003120Y-12584490D02*
X15043120Y-12624490D01*
X15043120Y-12584490D02*
X15003120Y-12624490D01*
X15012660Y-7819000D02*
X15052660Y-7859000D01*
X15052660Y-7819000D02*
X15012660Y-7859000D01*
X15012660Y-8449870D02*
X15052660Y-8489870D01*
X15052660Y-8449870D02*
X15012660Y-8489870D01*
X15046940Y-5035500D02*
X15086940Y-5075500D01*
X15086940Y-5035500D02*
X15046940Y-5075500D01*
X15072710Y-5395360D02*
X15112710Y-5435360D01*
X15112710Y-5395360D02*
X15072710Y-5435360D01*
X15072710Y-5779960D02*
X15112710Y-5819960D01*
X15112710Y-5779960D02*
X15072710Y-5819960D01*
X15099000Y-12149000D02*
X15139000Y-12189000D01*
X15139000Y-12149000D02*
X15099000Y-12189000D01*
X15100000Y-7565870D02*
X15140000Y-7605870D01*
X15140000Y-7565870D02*
X15100000Y-7605870D01*
X15121640Y-8150860D02*
X15161640Y-8190860D01*
X15161640Y-8150860D02*
X15121640Y-8190860D01*
X15149140Y-9082960D02*
X15189140Y-9122960D01*
X15189140Y-9082960D02*
X15149140Y-9122960D01*
X15149140Y-11053340D02*
X15189140Y-11093340D01*
X15189140Y-11053340D02*
X15149140Y-11093340D01*
X15149140Y-11822490D02*
X15189140Y-11862490D01*
X15189140Y-11822490D02*
X15149140Y-11862490D01*
X15157680Y-8982950D02*
X15197680Y-9022950D01*
X15197680Y-8982950D02*
X15157680Y-9022950D01*
X15220000Y-6015000D02*
X15260000Y-6055000D01*
X15260000Y-6015000D02*
X15220000Y-6055000D01*
X15226000Y-13949150D02*
X15266000Y-13989150D01*
X15266000Y-13949150D02*
X15226000Y-13989150D01*
X15227000Y-7288850D02*
X15267000Y-7328850D01*
X15267000Y-7288850D02*
X15227000Y-7328850D01*
X15227000Y-9616510D02*
X15267000Y-9656510D01*
X15267000Y-9616510D02*
X15227000Y-9656510D01*
X15239160Y-11146610D02*
X15279160Y-11186610D01*
X15279160Y-11146610D02*
X15239160Y-11186610D01*
X15239160Y-11314490D02*
X15279160Y-11354490D01*
X15279160Y-11314490D02*
X15239160Y-11354490D01*
X15279610Y-4201450D02*
X15319610Y-4241450D01*
X15319610Y-4201450D02*
X15279610Y-4241450D01*
X15299510Y-6875510D02*
X15339510Y-6915510D01*
X15339510Y-6875510D02*
X15299510Y-6915510D01*
X15299510Y-7896860D02*
X15339510Y-7936860D01*
X15339510Y-7896860D02*
X15299510Y-7936860D01*
X15302130Y-8967750D02*
X15342130Y-9007750D01*
X15342130Y-8967750D02*
X15302130Y-9007750D01*
X15319460Y-4908500D02*
X15359460Y-4948500D01*
X15359460Y-4908500D02*
X15319460Y-4948500D01*
X15329630Y-12943850D02*
X15369630Y-12983850D01*
X15369630Y-12943850D02*
X15329630Y-12983850D01*
X15339450Y-4781500D02*
X15379450Y-4821500D01*
X15379450Y-4781500D02*
X15339450Y-4821500D01*
X15359460Y-4065920D02*
X15399460Y-4105920D01*
X15399460Y-4065920D02*
X15359460Y-4105920D01*
X15359460Y-4654500D02*
X15399460Y-4694500D01*
X15399460Y-4654500D02*
X15359460Y-4694500D01*
X15402140Y-11895000D02*
X15442140Y-11935000D01*
X15442140Y-11895000D02*
X15402140Y-11935000D01*
X15402140Y-12403000D02*
X15442140Y-12443000D01*
X15442140Y-12403000D02*
X15402140Y-12443000D01*
X15402140Y-13043860D02*
X15442140Y-13083860D01*
X15442140Y-13043860D02*
X15402140Y-13083860D01*
X15404740Y-5612890D02*
X15444740Y-5652890D01*
X15444740Y-5612890D02*
X15404740Y-5652890D01*
X15431970Y-3993410D02*
X15471970Y-4033410D01*
X15471970Y-3993410D02*
X15431970Y-4033410D01*
X15431970Y-4139990D02*
X15471970Y-4179990D01*
X15471970Y-4139990D02*
X15431970Y-4179990D01*
X15464750Y-13849140D02*
X15504750Y-13889140D01*
X15504750Y-13849140D02*
X15464750Y-13889140D01*
X15474650Y-11214480D02*
X15514650Y-11254480D01*
X15514650Y-11214480D02*
X15474650Y-11254480D01*
X15480000Y-12126850D02*
X15520000Y-12166850D01*
X15520000Y-12126850D02*
X15480000Y-12166850D01*
X15481000Y-9862470D02*
X15521000Y-9902470D01*
X15521000Y-9862470D02*
X15481000Y-9902470D01*
X15488390Y-6780850D02*
X15528390Y-6820850D01*
X15528390Y-6780850D02*
X15488390Y-6820850D01*
X15488390Y-7742870D02*
X15528390Y-7782870D01*
X15528390Y-7742870D02*
X15488390Y-7782870D01*
X15557130Y-8449870D02*
X15597130Y-8489870D01*
X15597130Y-8449870D02*
X15557130Y-8489870D01*
X15600510Y-4930390D02*
X15640510Y-4970390D01*
X15640510Y-4930390D02*
X15600510Y-4970390D01*
X15629640Y-8150860D02*
X15669640Y-8190860D01*
X15669640Y-8150860D02*
X15629640Y-8190860D01*
X15661490Y-11214480D02*
X15701490Y-11254480D01*
X15701490Y-11214480D02*
X15661490Y-11254480D01*
X15665990Y-13862740D02*
X15705990Y-13902740D01*
X15705990Y-13862740D02*
X15665990Y-13902740D01*
X15672000Y-5030400D02*
X15712000Y-5070400D01*
X15712000Y-5030400D02*
X15672000Y-5070400D01*
X15672000Y-5322900D02*
X15712000Y-5362900D01*
X15712000Y-5322900D02*
X15672000Y-5362900D01*
X15674650Y-11314490D02*
X15714650Y-11354490D01*
X15714650Y-11314490D02*
X15674650Y-11354490D01*
X15690000Y-4850000D02*
X15730000Y-4890000D01*
X15730000Y-4850000D02*
X15690000Y-4890000D01*
X15711120Y-10457610D02*
X15751120Y-10497610D01*
X15751120Y-10457610D02*
X15711120Y-10497610D01*
X15735000Y-7279880D02*
X15775000Y-7319880D01*
X15775000Y-7279880D02*
X15735000Y-7319880D01*
X15735000Y-9613240D02*
X15775000Y-9653240D01*
X15775000Y-9613240D02*
X15735000Y-9653240D01*
X15757250Y-14394630D02*
X15797250Y-14434630D01*
X15797250Y-14394630D02*
X15757250Y-14434630D01*
X15773800Y-6021250D02*
X15813800Y-6061250D01*
X15813800Y-6021250D02*
X15773800Y-6061250D01*
X15819610Y-5467870D02*
X15859610Y-5507870D01*
X15859610Y-5467870D02*
X15819610Y-5507870D01*
X15835020Y-4831940D02*
X15875020Y-4871940D01*
X15875020Y-4831940D02*
X15835020Y-4871940D01*
X15838630Y-7057870D02*
X15878630Y-7097870D01*
X15878630Y-7057870D02*
X15838630Y-7097870D01*
X15839110Y-4672500D02*
X15879110Y-4712500D01*
X15879110Y-4672500D02*
X15839110Y-4712500D01*
X15883640Y-12126850D02*
X15923640Y-12166850D01*
X15923640Y-12126850D02*
X15883640Y-12166850D01*
X15885370Y-6191370D02*
X15925370Y-6231370D01*
X15925370Y-6191370D02*
X15885370Y-6231370D01*
X15903500Y-14113060D02*
X15943500Y-14153060D01*
X15943500Y-14113060D02*
X15903500Y-14153060D01*
X15940000Y-4620000D02*
X15980000Y-4660000D01*
X15980000Y-4620000D02*
X15940000Y-4660000D01*
X15942500Y-6046350D02*
X15982500Y-6086350D01*
X15982500Y-6046350D02*
X15942500Y-6086350D01*
X16023890Y-11020830D02*
X16063890Y-11060830D01*
X16063890Y-11020830D02*
X16023890Y-11060830D01*
X16023890Y-12511980D02*
X16063890Y-12551980D01*
X16063890Y-12511980D02*
X16023890Y-12551980D01*
X16043490Y-9934980D02*
X16083490Y-9974980D01*
X16083490Y-9934980D02*
X16043490Y-9974980D01*
X16049750Y-14011400D02*
X16089750Y-14051400D01*
X16089750Y-14011400D02*
X16049750Y-14051400D01*
X16069500Y-5685400D02*
X16109500Y-5725400D01*
X16109500Y-5685400D02*
X16069500Y-5725400D01*
X16166110Y-14083900D02*
X16206110Y-14123900D01*
X16206110Y-14083900D02*
X16166110Y-14123900D01*
X16227660Y-7057870D02*
X16267660Y-7097870D01*
X16267660Y-7057870D02*
X16227660Y-7097870D01*
X16250990Y-13935250D02*
X16290990Y-13975250D01*
X16290990Y-13935250D02*
X16250990Y-13975250D01*
X16250990Y-14322120D02*
X16290990Y-14362120D01*
X16290990Y-14322120D02*
X16250990Y-14362120D01*
X16319130Y-7819000D02*
X16359130Y-7859000D01*
X16359130Y-7819000D02*
X16319130Y-7859000D01*
X16319130Y-8078350D02*
X16359130Y-8118350D01*
X16359130Y-8078350D02*
X16319130Y-8118350D01*
X16320860Y-6046350D02*
X16360860Y-6086350D01*
X16360860Y-6046350D02*
X16320860Y-6086350D01*
X16323500Y-4904450D02*
X16363500Y-4944450D01*
X16363500Y-4904450D02*
X16323500Y-4944450D01*
X16346630Y-12334110D02*
X16386630Y-12374110D01*
X16386630Y-12334110D02*
X16346630Y-12374110D01*
X16351000Y-14322120D02*
X16391000Y-14362120D01*
X16391000Y-14322120D02*
X16351000Y-14362120D01*
X16355750Y-5685400D02*
X16395750Y-5725400D01*
X16395750Y-5685400D02*
X16355750Y-5725400D01*
X16418140Y-13114800D02*
X16458140Y-13154800D01*
X16458140Y-13114800D02*
X16418140Y-13154800D01*
X16450500Y-5205370D02*
X16490500Y-5245370D01*
X16490500Y-5205370D02*
X16450500Y-5245370D01*
X16450500Y-5980220D02*
X16490500Y-6020220D01*
X16490500Y-5980220D02*
X16450500Y-6020220D01*
X16497000Y-8078350D02*
X16537000Y-8118350D01*
X16537000Y-8078350D02*
X16497000Y-8118350D01*
X16500000Y-10254000D02*
X16540000Y-10294000D01*
X16540000Y-10254000D02*
X16500000Y-10294000D01*
X16519860Y-6780850D02*
X16559860Y-6820850D01*
X16559860Y-6780850D02*
X16519860Y-6820850D01*
X16527910Y-11641000D02*
X16567910Y-11681000D01*
X16567910Y-11641000D02*
X16527910Y-11681000D01*
X16527910Y-11972860D02*
X16567910Y-12012860D01*
X16567910Y-11972860D02*
X16527910Y-12012860D01*
X16528120Y-7279880D02*
X16568120Y-7319880D01*
X16568120Y-7279880D02*
X16528120Y-7319880D01*
X16528120Y-8982510D02*
X16568120Y-9022510D01*
X16568120Y-8982510D02*
X16528120Y-9022510D01*
X16528120Y-9217990D02*
X16568120Y-9257990D01*
X16568120Y-9217990D02*
X16528120Y-9257990D01*
X16564160Y-11165850D02*
X16604160Y-11205850D01*
X16604160Y-11165850D02*
X16564160Y-11205850D01*
X16564160Y-11505930D02*
X16604160Y-11545930D01*
X16604160Y-11505930D02*
X16564160Y-11545930D01*
X16577500Y-4675490D02*
X16617500Y-4715490D01*
X16617500Y-4675490D02*
X16577500Y-4715490D01*
X16577500Y-5049470D02*
X16617500Y-5089470D01*
X16617500Y-5049470D02*
X16577500Y-5089470D01*
X16644640Y-10971720D02*
X16684640Y-11011720D01*
X16684640Y-10971720D02*
X16644640Y-11011720D01*
X16644640Y-12910480D02*
X16684640Y-12950480D01*
X16684640Y-12910480D02*
X16644640Y-12950480D01*
X16648250Y-5540000D02*
X16688250Y-5580000D01*
X16688250Y-5540000D02*
X16648250Y-5580000D01*
X16750000Y-10348850D02*
X16790000Y-10388850D01*
X16790000Y-10348850D02*
X16750000Y-10388850D01*
X16750000Y-11492360D02*
X16790000Y-11532360D01*
X16790000Y-11492360D02*
X16750000Y-11532360D01*
X16751000Y-9934980D02*
X16791000Y-9974980D01*
X16791000Y-9934980D02*
X16751000Y-9974980D01*
X16831500Y-6163870D02*
X16871500Y-6203870D01*
X16871500Y-6163870D02*
X16831500Y-6203870D01*
X16854630Y-11741010D02*
X16894630Y-11781010D01*
X16894630Y-11741010D02*
X16854630Y-11781010D01*
X16927140Y-8845480D02*
X16967140Y-8885480D01*
X16967140Y-8845480D02*
X16927140Y-8885480D01*
X16927140Y-11351610D02*
X16967140Y-11391610D01*
X16967140Y-11351610D02*
X16927140Y-11391610D01*
X16958480Y-12657000D02*
X16998480Y-12697000D01*
X16998480Y-12657000D02*
X16958480Y-12697000D01*
X16958500Y-4592010D02*
X16998500Y-4632010D01*
X16998500Y-4592010D02*
X16958500Y-4632010D01*
X16958500Y-5132860D02*
X16998500Y-5172860D01*
X16998500Y-5132860D02*
X16958500Y-5172860D01*
X16989040Y-12508360D02*
X17029040Y-12548360D01*
X17029040Y-12508360D02*
X16989040Y-12548360D01*
X17005000Y-9862470D02*
X17045000Y-9902470D01*
X17045000Y-9862470D02*
X17005000Y-9902470D01*
X17008750Y-5685400D02*
X17048750Y-5725400D01*
X17048750Y-5685400D02*
X17008750Y-5725400D01*
X17027150Y-11093340D02*
X17067150Y-11133340D01*
X17067150Y-11093340D02*
X17027150Y-11133340D01*
X17027150Y-11718860D02*
X17067150Y-11758860D01*
X17067150Y-11718860D02*
X17027150Y-11758860D01*
X17082180Y-6372860D02*
X17122180Y-6412860D01*
X17122180Y-6372860D02*
X17082180Y-6412860D01*
X17085000Y-5170000D02*
X17125000Y-5210000D01*
X17125000Y-5170000D02*
X17085000Y-5210000D01*
X17085500Y-4592010D02*
X17125500Y-4632010D01*
X17125500Y-4592010D02*
X17085500Y-4632010D01*
X17085990Y-13116240D02*
X17125990Y-13156240D01*
X17125990Y-13116240D02*
X17085990Y-13156240D01*
X17136130Y-7542850D02*
X17176130Y-7582850D01*
X17176130Y-7542850D02*
X17136130Y-7582850D01*
X17180140Y-9808980D02*
X17220140Y-9848980D01*
X17220140Y-9808980D02*
X17180140Y-9848980D01*
X17180140Y-10448860D02*
X17220140Y-10488860D01*
X17220140Y-10448860D02*
X17180140Y-10488860D01*
X17208640Y-7089850D02*
X17248640Y-7129850D01*
X17248640Y-7089850D02*
X17208640Y-7129850D01*
X17301250Y-5685400D02*
X17341250Y-5725400D01*
X17341250Y-5685400D02*
X17301250Y-5725400D01*
X17320040Y-6078300D02*
X17360040Y-6118300D01*
X17360040Y-6078300D02*
X17320040Y-6118300D01*
X17320830Y-10303840D02*
X17360830Y-10343840D01*
X17360830Y-10303840D02*
X17320830Y-10343840D01*
X17320830Y-10448860D02*
X17360830Y-10488860D01*
X17360830Y-10448860D02*
X17320830Y-10488860D01*
X17422160Y-10105660D02*
X17462160Y-10145660D01*
X17462160Y-10105660D02*
X17422160Y-10145660D01*
X17434020Y-8098000D02*
X17474020Y-8138000D01*
X17474020Y-8098000D02*
X17434020Y-8138000D01*
X17435120Y-6985880D02*
X17475120Y-7025880D01*
X17475120Y-6985880D02*
X17435120Y-7025880D01*
X17461520Y-10231330D02*
X17501520Y-10271330D01*
X17501520Y-10231330D02*
X17461520Y-10271330D01*
X17461520Y-10675360D02*
X17501520Y-10715360D01*
X17501520Y-10675360D02*
X17461520Y-10715360D01*
X17507630Y-6372860D02*
X17547630Y-6412860D01*
X17547630Y-6372860D02*
X17507630Y-6412860D01*
X17507630Y-6835850D02*
X17547630Y-6875850D01*
X17547630Y-6835850D02*
X17507630Y-6875850D01*
X17524890Y-6118860D02*
X17564890Y-6158860D01*
X17564890Y-6118860D02*
X17524890Y-6158860D01*
X17525000Y-8910000D02*
X17565000Y-8950000D01*
X17565000Y-8910000D02*
X17525000Y-8950000D01*
X17527000Y-8569110D02*
X17567000Y-8609110D01*
X17567000Y-8569110D02*
X17527000Y-8609110D01*
X17527810Y-9934980D02*
X17567810Y-9974980D01*
X17567810Y-9934980D02*
X17527810Y-9974980D01*
X17551600Y-10747870D02*
X17591600Y-10787870D01*
X17591600Y-10747870D02*
X17551600Y-10787870D01*
X17592790Y-7542850D02*
X17632790Y-7582850D01*
X17632790Y-7542850D02*
X17592790Y-7582850D01*
X17592790Y-7819870D02*
X17632790Y-7859870D01*
X17632790Y-7819870D02*
X17592790Y-7859870D01*
X17624110Y-10149040D02*
X17664110Y-10189040D01*
X17664110Y-10149040D02*
X17624110Y-10189040D01*
X17661550Y-8176980D02*
X17701550Y-8216980D01*
X17701550Y-8176980D02*
X17661550Y-8216980D01*
X17750660Y-9345500D02*
X17790660Y-9385500D01*
X17790660Y-9345500D02*
X17750660Y-9385500D01*
X17785000Y-6780000D02*
X17825000Y-6820000D01*
X17825000Y-6780000D02*
X17785000Y-6820000D01*
X17810520Y-6549000D02*
X17850520Y-6589000D01*
X17850520Y-6549000D02*
X17810520Y-6589000D01*
X17823170Y-8264270D02*
X17863170Y-8304270D01*
X17863170Y-8264270D02*
X17823170Y-8304270D01*
X17823170Y-11641000D02*
X17863170Y-11681000D01*
X17863170Y-11641000D02*
X17823170Y-11681000D01*
X17838020Y-5183490D02*
X17878020Y-5223490D01*
X17878020Y-5183490D02*
X17838020Y-5223490D01*
X17867400Y-12273750D02*
X17907400Y-12313750D01*
X17907400Y-12273750D02*
X17867400Y-12313750D01*
X17892990Y-13419000D02*
X17932990Y-13459000D01*
X17932990Y-13419000D02*
X17892990Y-13459000D01*
X17892990Y-14054950D02*
X17932990Y-14094950D01*
X17932990Y-14054950D02*
X17892990Y-14094950D01*
X17895680Y-11183980D02*
X17935680Y-11223980D01*
X17935680Y-11183980D02*
X17895680Y-11223980D01*
X17910530Y-4258240D02*
X17950530Y-4298240D01*
X17950530Y-4258240D02*
X17910530Y-4298240D01*
X17923180Y-11636490D02*
X17963180Y-11676490D01*
X17963180Y-11636490D02*
X17923180Y-11676490D01*
X17944090Y-8712480D02*
X17984090Y-8752480D01*
X17984090Y-8712480D02*
X17944090Y-8752480D01*
X17950680Y-10602850D02*
X17990680Y-10642850D01*
X17990680Y-10602850D02*
X17950680Y-10642850D01*
X17983040Y-4376480D02*
X18023040Y-4416480D01*
X18023040Y-4376480D02*
X17983040Y-4416480D01*
X17984980Y-12911000D02*
X18024980Y-12951000D01*
X18024980Y-12911000D02*
X17984980Y-12951000D01*
X17993000Y-13421540D02*
X18033000Y-13461540D01*
X18033000Y-13421540D02*
X17993000Y-13461540D01*
X18010000Y-11194000D02*
X18050000Y-11234000D01*
X18050000Y-11194000D02*
X18010000Y-11234000D01*
X18015000Y-12449000D02*
X18055000Y-12489000D01*
X18055000Y-12449000D02*
X18015000Y-12489000D01*
X18017770Y-4884480D02*
X18057770Y-4924480D01*
X18057770Y-4884480D02*
X18017770Y-4924480D01*
X18023190Y-10775370D02*
X18063190Y-10815370D01*
X18063190Y-10775370D02*
X18023190Y-10815370D01*
X18029320Y-6581850D02*
X18069320Y-6621850D01*
X18069320Y-6581850D02*
X18029320Y-6621850D01*
X18050690Y-9613240D02*
X18090690Y-9653240D01*
X18090690Y-9613240D02*
X18050690Y-9653240D01*
X18125000Y-5794000D02*
X18165000Y-5834000D01*
X18165000Y-5794000D02*
X18125000Y-5834000D01*
X18125000Y-6780000D02*
X18165000Y-6820000D01*
X18165000Y-6780000D02*
X18125000Y-6820000D01*
X18158220Y-8278980D02*
X18198220Y-8318980D01*
X18198220Y-8278980D02*
X18158220Y-8318980D01*
X18158220Y-8523560D02*
X18198220Y-8563560D01*
X18198220Y-8523560D02*
X18158220Y-8563560D01*
X18179950Y-3912980D02*
X18219950Y-3952980D01*
X18219950Y-3912980D02*
X18179950Y-3952980D01*
X18179950Y-4276470D02*
X18219950Y-4316470D01*
X18219950Y-4276470D02*
X18179950Y-4316470D01*
X18200000Y-11679000D02*
X18240000Y-11719000D01*
X18240000Y-11679000D02*
X18200000Y-11719000D01*
X18205000Y-10784000D02*
X18245000Y-10824000D01*
X18245000Y-10784000D02*
X18205000Y-10824000D01*
X18207390Y-4139990D02*
X18247390Y-4179990D01*
X18247390Y-4139990D02*
X18207390Y-4179990D01*
X18210000Y-11984000D02*
X18250000Y-12024000D01*
X18250000Y-11984000D02*
X18210000Y-12024000D01*
X18230730Y-8784990D02*
X18270730Y-8824990D01*
X18270730Y-8784990D02*
X18230730Y-8824990D01*
X18230730Y-9327390D02*
X18270730Y-9367390D01*
X18270730Y-9327390D02*
X18230730Y-9367390D01*
X18270020Y-5540000D02*
X18310020Y-5580000D01*
X18310020Y-5540000D02*
X18270020Y-5580000D01*
X18303240Y-8278980D02*
X18343240Y-8318980D01*
X18343240Y-8278980D02*
X18303240Y-8318980D01*
X18324010Y-12101380D02*
X18364010Y-12141380D01*
X18364010Y-12101380D02*
X18324010Y-12141380D01*
X18324610Y-10448860D02*
X18364610Y-10488860D01*
X18364610Y-10448860D02*
X18324610Y-10488860D01*
X18342530Y-6788340D02*
X18382530Y-6828340D01*
X18382530Y-6788340D02*
X18342530Y-6828340D01*
X18372000Y-7388860D02*
X18412000Y-7428860D01*
X18412000Y-7388860D02*
X18372000Y-7428860D01*
X18396520Y-11822490D02*
X18436520Y-11862490D01*
X18436520Y-11822490D02*
X18396520Y-11862490D01*
X18444510Y-7089850D02*
X18484510Y-7129850D01*
X18484510Y-7089850D02*
X18444510Y-7129850D01*
X18449960Y-6581850D02*
X18489960Y-6621850D01*
X18489960Y-6581850D02*
X18449960Y-6621850D01*
X18449960Y-6961600D02*
X18489960Y-7001600D01*
X18489960Y-6961600D02*
X18449960Y-7001600D01*
X18470000Y-10504000D02*
X18510000Y-10544000D01*
X18510000Y-10504000D02*
X18470000Y-10544000D01*
X18470000Y-11724000D02*
X18510000Y-11764000D01*
X18510000Y-11724000D02*
X18470000Y-11764000D01*
X18472000Y-11922500D02*
X18512000Y-11962500D01*
X18512000Y-11922500D02*
X18472000Y-11962500D01*
X18473000Y-13652720D02*
X18513000Y-13692720D01*
X18513000Y-13652720D02*
X18473000Y-13692720D01*
X18475000Y-12999000D02*
X18515000Y-13039000D01*
X18515000Y-12999000D02*
X18475000Y-13039000D01*
X18527510Y-7311000D02*
X18567510Y-7351000D01*
X18567510Y-7311000D02*
X18527510Y-7351000D01*
X18534510Y-11410880D02*
X18574510Y-11450880D01*
X18574510Y-11410880D02*
X18534510Y-11450880D01*
X18599000Y-10645430D02*
X18639000Y-10685430D01*
X18639000Y-10645430D02*
X18599000Y-10685430D01*
X18599000Y-11955940D02*
X18639000Y-11995940D01*
X18639000Y-11955940D02*
X18599000Y-11995940D01*
X18600020Y-4630480D02*
X18640020Y-4670480D01*
X18640020Y-4630480D02*
X18600020Y-4670480D01*
X18600020Y-8176980D02*
X18640020Y-8216980D01*
X18640020Y-8176980D02*
X18600020Y-8216980D01*
X18615990Y-11029370D02*
X18655990Y-11069370D01*
X18655990Y-11029370D02*
X18615990Y-11069370D01*
X18617020Y-11746280D02*
X18657020Y-11786280D01*
X18657020Y-11746280D02*
X18617020Y-11786280D01*
X18621540Y-11283370D02*
X18661540Y-11323370D01*
X18661540Y-11283370D02*
X18621540Y-11323370D01*
X18645030Y-3825970D02*
X18685030Y-3865970D01*
X18685030Y-3825970D02*
X18645030Y-3865970D01*
X18672530Y-7649000D02*
X18712530Y-7689000D01*
X18712530Y-7649000D02*
X18672530Y-7689000D01*
X18672530Y-9399900D02*
X18712530Y-9439900D01*
X18712530Y-9399900D02*
X18672530Y-9439900D01*
X18726000Y-11881520D02*
X18766000Y-11921520D01*
X18766000Y-11881520D02*
X18726000Y-11921520D01*
X18727000Y-13181440D02*
X18767000Y-13221440D01*
X18767000Y-13181440D02*
X18727000Y-13221440D01*
X18780870Y-7284190D02*
X18820870Y-7324190D01*
X18820870Y-7284190D02*
X18780870Y-7324190D01*
X18789510Y-12666540D02*
X18829510Y-12706540D01*
X18829510Y-12666540D02*
X18789510Y-12706540D01*
X18799000Y-9601000D02*
X18839000Y-9641000D01*
X18839000Y-9601000D02*
X18799000Y-9641000D01*
X18805030Y-8387350D02*
X18845030Y-8427350D01*
X18845030Y-8387350D02*
X18805030Y-8427350D01*
X18805030Y-9449990D02*
X18845030Y-9489990D01*
X18845030Y-9449990D02*
X18805030Y-9489990D01*
X18853000Y-11221400D02*
X18893000Y-11261400D01*
X18893000Y-11221400D02*
X18853000Y-11261400D01*
X18854000Y-14084490D02*
X18894000Y-14124490D01*
X18894000Y-14084490D02*
X18854000Y-14124490D01*
X18855000Y-11734000D02*
X18895000Y-11774000D01*
X18895000Y-11734000D02*
X18855000Y-11774000D01*
X18905040Y-7546490D02*
X18945040Y-7586490D01*
X18945040Y-7546490D02*
X18905040Y-7586490D01*
X18920000Y-6780000D02*
X18960000Y-6820000D01*
X18960000Y-6780000D02*
X18920000Y-6820000D01*
X18926510Y-13941110D02*
X18966510Y-13981110D01*
X18966510Y-13941110D02*
X18926510Y-13981110D01*
X18946250Y-11410880D02*
X18986250Y-11450880D01*
X18986250Y-11410880D02*
X18946250Y-11450880D01*
X18980000Y-12255210D02*
X19020000Y-12295210D01*
X19020000Y-12255210D02*
X18980000Y-12295210D01*
X19013870Y-7233490D02*
X19053870Y-7273490D01*
X19053870Y-7233490D02*
X19013870Y-7273490D01*
X19084510Y-9401970D02*
X19124510Y-9441970D01*
X19124510Y-9401970D02*
X19084510Y-9441970D01*
X19086380Y-6961600D02*
X19126380Y-7001600D01*
X19126380Y-6961600D02*
X19086380Y-7001600D01*
X19097900Y-8996190D02*
X19137900Y-9036190D01*
X19137900Y-8996190D02*
X19097900Y-9036190D01*
X19107000Y-11027370D02*
X19147000Y-11067370D01*
X19147000Y-11027370D02*
X19107000Y-11067370D01*
X19108000Y-13108930D02*
X19148000Y-13148930D01*
X19148000Y-13108930D02*
X19108000Y-13148930D01*
X19110000Y-10494000D02*
X19150000Y-10534000D01*
X19150000Y-10494000D02*
X19110000Y-10534000D01*
X19207010Y-11021170D02*
X19247010Y-11061170D01*
X19247010Y-11021170D02*
X19207010Y-11061170D01*
X19234000Y-9474480D02*
X19274000Y-9514480D01*
X19274000Y-9474480D02*
X19234000Y-9514480D01*
X19235000Y-10649000D02*
X19275000Y-10689000D01*
X19275000Y-10649000D02*
X19235000Y-10689000D01*
X19235000Y-11879000D02*
X19275000Y-11919000D01*
X19275000Y-11879000D02*
X19235000Y-11919000D01*
X19235000Y-13139000D02*
X19275000Y-13179000D01*
X19275000Y-13139000D02*
X19235000Y-13179000D01*
X19250000Y-6780000D02*
X19290000Y-6820000D01*
X19290000Y-6780000D02*
X19250000Y-6820000D01*
X19264010Y-7590000D02*
X19304010Y-7630000D01*
X19304010Y-7590000D02*
X19264010Y-7630000D01*
X19264010Y-8639970D02*
X19304010Y-8679970D01*
X19304010Y-8639970D02*
X19264010Y-8679970D01*
X19395020Y-6860850D02*
X19435020Y-6900850D01*
X19435020Y-6860850D02*
X19395020Y-6900850D01*
X19425030Y-8176980D02*
X19465030Y-8216980D01*
X19465030Y-8176980D02*
X19425030Y-8216980D01*
X19425030Y-13796090D02*
X19465030Y-13836090D01*
X19465030Y-13796090D02*
X19425030Y-13836090D01*
X19497540Y-8606000D02*
X19537540Y-8646000D01*
X19537540Y-8606000D02*
X19497540Y-8646000D01*
X19497540Y-13546000D02*
X19537540Y-13586000D01*
X19537540Y-13546000D02*
X19497540Y-13586000D01*
X19597550Y-6626860D02*
X19637550Y-6666860D01*
X19637550Y-6626860D02*
X19597550Y-6666860D01*
X19615320Y-13652720D02*
X19655320Y-13692720D01*
X19655320Y-13652720D02*
X19615320Y-13692720D01*
X19630000Y-9755000D02*
X19670000Y-9795000D01*
X19670000Y-9755000D02*
X19630000Y-9795000D01*
X19697560Y-7696480D02*
X19737560Y-7736480D01*
X19737560Y-7696480D02*
X19697560Y-7736480D01*
X19753060Y-10027490D02*
X19793060Y-10067490D01*
X19793060Y-10027490D02*
X19753060Y-10067490D01*
X19778780Y-10253990D02*
X19818780Y-10293990D01*
X19818780Y-10253990D02*
X19778780Y-10293990D01*
X20005510Y-6482030D02*
X20045510Y-6522030D01*
X20045510Y-6482030D02*
X20005510Y-6522030D01*
X20055000Y-6780000D02*
X20095000Y-6820000D01*
X20095000Y-6780000D02*
X20055000Y-6820000D01*
X20165030Y-10638000D02*
X20205030Y-10678000D01*
X20205030Y-10638000D02*
X20165030Y-10678000D01*
X20265480Y-10891000D02*
X20305480Y-10931000D01*
X20305480Y-10891000D02*
X20265480Y-10931000D01*
X20272420Y-8162000D02*
X20312420Y-8202000D01*
X20312420Y-8162000D02*
X20272420Y-8202000D01*
X20310050Y-10535490D02*
X20350050Y-10575490D01*
X20350050Y-10535490D02*
X20310050Y-10575490D01*
X20380000Y-6780000D02*
X20420000Y-6820000D01*
X20420000Y-6780000D02*
X20380000Y-6820000D01*
X20481490Y-10443370D02*
X20521490Y-10483370D01*
X20521490Y-10443370D02*
X20481490Y-10483370D01*
X20571900Y-9719500D02*
X20611900Y-9759500D01*
X20611900Y-9719500D02*
X20571900Y-9759500D01*
X20573750Y-8014400D02*
X20613750Y-8054400D01*
X20613750Y-8014400D02*
X20573750Y-8054400D01*
X20605000Y-13055000D02*
X20645000Y-13095000D01*
X20645000Y-13055000D02*
X20605000Y-13095000D01*
X20720000Y-9865000D02*
X20760000Y-9905000D01*
X20760000Y-9865000D02*
X20720000Y-9905000D01*
X20830000Y-10200000D02*
X20870000Y-10240000D01*
X20870000Y-10200000D02*
X20830000Y-10240000D01*
X20830000Y-13060000D02*
X20870000Y-13100000D01*
X20870000Y-13060000D02*
X20830000Y-13100000D01*
X20840020Y-4246020D02*
X20880020Y-4286020D01*
X20880020Y-4246020D02*
X20840020Y-4286020D01*
X20840020Y-6699370D02*
X20880020Y-6739370D01*
X20880020Y-6699370D02*
X20840020Y-6739370D01*
X21030000Y-8160000D02*
X21070000Y-8200000D01*
X21070000Y-8160000D02*
X21030000Y-8200000D01*
X21147520Y-7088470D02*
X21187520Y-7128470D01*
X21187520Y-7088470D02*
X21147520Y-7128470D01*
X21170000Y-6780000D02*
X21210000Y-6820000D01*
X21210000Y-6780000D02*
X21170000Y-6820000D01*
X21277060Y-8757490D02*
X21317060Y-8797490D01*
X21317060Y-8757490D02*
X21277060Y-8797490D01*
X21377070Y-9237990D02*
X21417070Y-9277990D01*
X21417070Y-9237990D02*
X21377070Y-9277990D01*
X21465000Y-6780000D02*
X21505000Y-6820000D01*
X21505000Y-6780000D02*
X21465000Y-6820000D01*
X21510010Y-4421490D02*
X21550010Y-4461490D01*
X21550010Y-4421490D02*
X21510010Y-4461490D01*
X21979530Y-3825970D02*
X22019530Y-3865970D01*
X22019530Y-3825970D02*
X21979530Y-3865970D01*
X8656000Y-6084000D02*
G75*
G03*
X8656000Y-6084000I-40000J0D01*
G01*
X8656000Y-6338000D02*
G75*
G03*
X8656000Y-6338000I-40000J0D01*
G01*
X8656000Y-6592000D02*
G75*
G03*
X8656000Y-6592000I-40000J0D01*
G01*
X8656000Y-6846000D02*
G75*
G03*
X8656000Y-6846000I-40000J0D01*
G01*
X8656000Y-7100000D02*
G75*
G03*
X8656000Y-7100000I-40000J0D01*
G01*
X8656000Y-7354000D02*
G75*
G03*
X8656000Y-7354000I-40000J0D01*
G01*
X8656000Y-7608000D02*
G75*
G03*
X8656000Y-7608000I-40000J0D01*
G01*
X8656000Y-7862000D02*
G75*
G03*
X8656000Y-7862000I-40000J0D01*
G01*
X8656000Y-8116000D02*
G75*
G03*
X8656000Y-8116000I-40000J0D01*
G01*
X8656000Y-8370000D02*
G75*
G03*
X8656000Y-8370000I-40000J0D01*
G01*
X8656000Y-8624000D02*
G75*
G03*
X8656000Y-8624000I-40000J0D01*
G01*
X8656000Y-8878000D02*
G75*
G03*
X8656000Y-8878000I-40000J0D01*
G01*
X8656000Y-9132000D02*
G75*
G03*
X8656000Y-9132000I-40000J0D01*
G01*
X8656000Y-9386000D02*
G75*
G03*
X8656000Y-9386000I-40000J0D01*
G01*
X8656000Y-9640000D02*
G75*
G03*
X8656000Y-9640000I-40000J0D01*
G01*
X8656000Y-9894000D02*
G75*
G03*
X8656000Y-9894000I-40000J0D01*
G01*
X8656000Y-10148000D02*
G75*
G03*
X8656000Y-10148000I-40000J0D01*
G01*
X8656000Y-10402000D02*
G75*
G03*
X8656000Y-10402000I-40000J0D01*
G01*
X8656000Y-10656000D02*
G75*
G03*
X8656000Y-10656000I-40000J0D01*
G01*
X8656000Y-10910000D02*
G75*
G03*
X8656000Y-10910000I-40000J0D01*
G01*
X8656000Y-11164000D02*
G75*
G03*
X8656000Y-11164000I-40000J0D01*
G01*
X8656000Y-11418000D02*
G75*
G03*
X8656000Y-11418000I-40000J0D01*
G01*
X8656000Y-11672000D02*
G75*
G03*
X8656000Y-11672000I-40000J0D01*
G01*
X8656000Y-11926000D02*
G75*
G03*
X8656000Y-11926000I-40000J0D01*
G01*
X8656000Y-12180000D02*
G75*
G03*
X8656000Y-12180000I-40000J0D01*
G01*
X8656000Y-12434000D02*
G75*
G03*
X8656000Y-12434000I-40000J0D01*
G01*
X8656000Y-12688000D02*
G75*
G03*
X8656000Y-12688000I-40000J0D01*
G01*
X8656000Y-12942000D02*
G75*
G03*
X8656000Y-12942000I-40000J0D01*
G01*
X8656000Y-13196000D02*
G75*
G03*
X8656000Y-13196000I-40000J0D01*
G01*
X8656000Y-13450000D02*
G75*
G03*
X8656000Y-13450000I-40000J0D01*
G01*
X8656000Y-13704000D02*
G75*
G03*
X8656000Y-13704000I-40000J0D01*
G01*
X8656000Y-13958000D02*
G75*
G03*
X8656000Y-13958000I-40000J0D01*
G01*
X9429000Y-4051000D02*
G75*
G03*
X9429000Y-4051000I-40000J0D01*
G01*
X9429000Y-4305000D02*
G75*
G03*
X9429000Y-4305000I-40000J0D01*
G01*
X9429000Y-4559000D02*
G75*
G03*
X9429000Y-4559000I-40000J0D01*
G01*
X9429000Y-4813000D02*
G75*
G03*
X9429000Y-4813000I-40000J0D01*
G01*
X9429000Y-5067000D02*
G75*
G03*
X9429000Y-5067000I-40000J0D01*
G01*
X9429000Y-5321000D02*
G75*
G03*
X9429000Y-5321000I-40000J0D01*
G01*
X9429000Y-5575000D02*
G75*
G03*
X9429000Y-5575000I-40000J0D01*
G01*
X9429000Y-5829000D02*
G75*
G03*
X9429000Y-5829000I-40000J0D01*
G01*
X9429000Y-6083000D02*
G75*
G03*
X9429000Y-6083000I-40000J0D01*
G01*
X9429000Y-6337000D02*
G75*
G03*
X9429000Y-6337000I-40000J0D01*
G01*
X9429000Y-6591000D02*
G75*
G03*
X9429000Y-6591000I-40000J0D01*
G01*
X9429000Y-6845000D02*
G75*
G03*
X9429000Y-6845000I-40000J0D01*
G01*
X9429000Y-7099000D02*
G75*
G03*
X9429000Y-7099000I-40000J0D01*
G01*
X9429000Y-7353000D02*
G75*
G03*
X9429000Y-7353000I-40000J0D01*
G01*
X9429000Y-7607000D02*
G75*
G03*
X9429000Y-7607000I-40000J0D01*
G01*
X9429000Y-7861000D02*
G75*
G03*
X9429000Y-7861000I-40000J0D01*
G01*
X9429000Y-8115000D02*
G75*
G03*
X9429000Y-8115000I-40000J0D01*
G01*
X9429000Y-8369000D02*
G75*
G03*
X9429000Y-8369000I-40000J0D01*
G01*
X9429000Y-8623000D02*
G75*
G03*
X9429000Y-8623000I-40000J0D01*
G01*
X9429000Y-8877000D02*
G75*
G03*
X9429000Y-8877000I-40000J0D01*
G01*
X9429000Y-9131000D02*
G75*
G03*
X9429000Y-9131000I-40000J0D01*
G01*
X9429000Y-9385000D02*
G75*
G03*
X9429000Y-9385000I-40000J0D01*
G01*
X9429000Y-9639000D02*
G75*
G03*
X9429000Y-9639000I-40000J0D01*
G01*
X9429000Y-9893000D02*
G75*
G03*
X9429000Y-9893000I-40000J0D01*
G01*
X9429000Y-10147000D02*
G75*
G03*
X9429000Y-10147000I-40000J0D01*
G01*
X9429000Y-10401000D02*
G75*
G03*
X9429000Y-10401000I-40000J0D01*
G01*
X9429000Y-10655000D02*
G75*
G03*
X9429000Y-10655000I-40000J0D01*
G01*
X9429000Y-10909000D02*
G75*
G03*
X9429000Y-10909000I-40000J0D01*
G01*
X9429000Y-11163000D02*
G75*
G03*
X9429000Y-11163000I-40000J0D01*
G01*
X9429000Y-11417000D02*
G75*
G03*
X9429000Y-11417000I-40000J0D01*
G01*
X9429000Y-11671000D02*
G75*
G03*
X9429000Y-11671000I-40000J0D01*
G01*
X9429000Y-11925000D02*
G75*
G03*
X9429000Y-11925000I-40000J0D01*
G01*
X9927000Y-6338000D02*
G75*
G03*
X9927000Y-6338000I-40000J0D01*
G01*
X9927000Y-6592000D02*
G75*
G03*
X9927000Y-6592000I-40000J0D01*
G01*
X9927000Y-6846000D02*
G75*
G03*
X9927000Y-6846000I-40000J0D01*
G01*
X9927000Y-7100000D02*
G75*
G03*
X9927000Y-7100000I-40000J0D01*
G01*
X9927000Y-7354000D02*
G75*
G03*
X9927000Y-7354000I-40000J0D01*
G01*
X9927000Y-7608000D02*
G75*
G03*
X9927000Y-7608000I-40000J0D01*
G01*
X9927000Y-7862000D02*
G75*
G03*
X9927000Y-7862000I-40000J0D01*
G01*
X9927000Y-8116000D02*
G75*
G03*
X9927000Y-8116000I-40000J0D01*
G01*
X9927000Y-8370000D02*
G75*
G03*
X9927000Y-8370000I-40000J0D01*
G01*
X9927000Y-8624000D02*
G75*
G03*
X9927000Y-8624000I-40000J0D01*
G01*
X10689000Y-6338000D02*
G75*
G03*
X10689000Y-6338000I-40000J0D01*
G01*
X10689000Y-6592000D02*
G75*
G03*
X10689000Y-6592000I-40000J0D01*
G01*
X10689000Y-6846000D02*
G75*
G03*
X10689000Y-6846000I-40000J0D01*
G01*
X10689000Y-7100000D02*
G75*
G03*
X10689000Y-7100000I-40000J0D01*
G01*
X10689000Y-7354000D02*
G75*
G03*
X10689000Y-7354000I-40000J0D01*
G01*
X10689000Y-7608000D02*
G75*
G03*
X10689000Y-7608000I-40000J0D01*
G01*
X10689000Y-7862000D02*
G75*
G03*
X10689000Y-7862000I-40000J0D01*
G01*
X10689000Y-8116000D02*
G75*
G03*
X10689000Y-8116000I-40000J0D01*
G01*
X10689000Y-8370000D02*
G75*
G03*
X10689000Y-8370000I-40000J0D01*
G01*
X10689000Y-8624000D02*
G75*
G03*
X10689000Y-8624000I-40000J0D01*
G01*
X10942000Y-6084000D02*
G75*
G03*
X10942000Y-6084000I-40000J0D01*
G01*
X10942000Y-6338000D02*
G75*
G03*
X10942000Y-6338000I-40000J0D01*
G01*
X10942000Y-6592000D02*
G75*
G03*
X10942000Y-6592000I-40000J0D01*
G01*
X10942000Y-6846000D02*
G75*
G03*
X10942000Y-6846000I-40000J0D01*
G01*
X10942000Y-7100000D02*
G75*
G03*
X10942000Y-7100000I-40000J0D01*
G01*
X10942000Y-7354000D02*
G75*
G03*
X10942000Y-7354000I-40000J0D01*
G01*
X10942000Y-7608000D02*
G75*
G03*
X10942000Y-7608000I-40000J0D01*
G01*
X10942000Y-7862000D02*
G75*
G03*
X10942000Y-7862000I-40000J0D01*
G01*
X10942000Y-8116000D02*
G75*
G03*
X10942000Y-8116000I-40000J0D01*
G01*
X10942000Y-8370000D02*
G75*
G03*
X10942000Y-8370000I-40000J0D01*
G01*
X10942000Y-8624000D02*
G75*
G03*
X10942000Y-8624000I-40000J0D01*
G01*
X10942000Y-8878000D02*
G75*
G03*
X10942000Y-8878000I-40000J0D01*
G01*
X10942000Y-9132000D02*
G75*
G03*
X10942000Y-9132000I-40000J0D01*
G01*
X10942000Y-9386000D02*
G75*
G03*
X10942000Y-9386000I-40000J0D01*
G01*
X10942000Y-9640000D02*
G75*
G03*
X10942000Y-9640000I-40000J0D01*
G01*
X10942000Y-9894000D02*
G75*
G03*
X10942000Y-9894000I-40000J0D01*
G01*
X10942000Y-10148000D02*
G75*
G03*
X10942000Y-10148000I-40000J0D01*
G01*
X10942000Y-10402000D02*
G75*
G03*
X10942000Y-10402000I-40000J0D01*
G01*
X10942000Y-10656000D02*
G75*
G03*
X10942000Y-10656000I-40000J0D01*
G01*
X10942000Y-10910000D02*
G75*
G03*
X10942000Y-10910000I-40000J0D01*
G01*
X10942000Y-11164000D02*
G75*
G03*
X10942000Y-11164000I-40000J0D01*
G01*
X10942000Y-11418000D02*
G75*
G03*
X10942000Y-11418000I-40000J0D01*
G01*
X10942000Y-11672000D02*
G75*
G03*
X10942000Y-11672000I-40000J0D01*
G01*
X10942000Y-11926000D02*
G75*
G03*
X10942000Y-11926000I-40000J0D01*
G01*
X10942000Y-12180000D02*
G75*
G03*
X10942000Y-12180000I-40000J0D01*
G01*
X10942000Y-12434000D02*
G75*
G03*
X10942000Y-12434000I-40000J0D01*
G01*
X10942000Y-12688000D02*
G75*
G03*
X10942000Y-12688000I-40000J0D01*
G01*
X10942000Y-12942000D02*
G75*
G03*
X10942000Y-12942000I-40000J0D01*
G01*
X10942000Y-13196000D02*
G75*
G03*
X10942000Y-13196000I-40000J0D01*
G01*
X10942000Y-13450000D02*
G75*
G03*
X10942000Y-13450000I-40000J0D01*
G01*
X10942000Y-13704000D02*
G75*
G03*
X10942000Y-13704000I-40000J0D01*
G01*
X10942000Y-13958000D02*
G75*
G03*
X10942000Y-13958000I-40000J0D01*
G01*
X11715000Y-4051000D02*
G75*
G03*
X11715000Y-4051000I-40000J0D01*
G01*
X11715000Y-4305000D02*
G75*
G03*
X11715000Y-4305000I-40000J0D01*
G01*
X11715000Y-4559000D02*
G75*
G03*
X11715000Y-4559000I-40000J0D01*
G01*
X11715000Y-4813000D02*
G75*
G03*
X11715000Y-4813000I-40000J0D01*
G01*
X11715000Y-5067000D02*
G75*
G03*
X11715000Y-5067000I-40000J0D01*
G01*
X11715000Y-5321000D02*
G75*
G03*
X11715000Y-5321000I-40000J0D01*
G01*
X11715000Y-5575000D02*
G75*
G03*
X11715000Y-5575000I-40000J0D01*
G01*
X11715000Y-5829000D02*
G75*
G03*
X11715000Y-5829000I-40000J0D01*
G01*
X11715000Y-6083000D02*
G75*
G03*
X11715000Y-6083000I-40000J0D01*
G01*
X11715000Y-6337000D02*
G75*
G03*
X11715000Y-6337000I-40000J0D01*
G01*
X11715000Y-6591000D02*
G75*
G03*
X11715000Y-6591000I-40000J0D01*
G01*
X11715000Y-6845000D02*
G75*
G03*
X11715000Y-6845000I-40000J0D01*
G01*
X11715000Y-7099000D02*
G75*
G03*
X11715000Y-7099000I-40000J0D01*
G01*
X11715000Y-7353000D02*
G75*
G03*
X11715000Y-7353000I-40000J0D01*
G01*
X11715000Y-7607000D02*
G75*
G03*
X11715000Y-7607000I-40000J0D01*
G01*
X11715000Y-7861000D02*
G75*
G03*
X11715000Y-7861000I-40000J0D01*
G01*
X11715000Y-8115000D02*
G75*
G03*
X11715000Y-8115000I-40000J0D01*
G01*
X11715000Y-8369000D02*
G75*
G03*
X11715000Y-8369000I-40000J0D01*
G01*
X11715000Y-8623000D02*
G75*
G03*
X11715000Y-8623000I-40000J0D01*
G01*
X11715000Y-8877000D02*
G75*
G03*
X11715000Y-8877000I-40000J0D01*
G01*
X11715000Y-9131000D02*
G75*
G03*
X11715000Y-9131000I-40000J0D01*
G01*
X11715000Y-9385000D02*
G75*
G03*
X11715000Y-9385000I-40000J0D01*
G01*
X11715000Y-9639000D02*
G75*
G03*
X11715000Y-9639000I-40000J0D01*
G01*
X11715000Y-9893000D02*
G75*
G03*
X11715000Y-9893000I-40000J0D01*
G01*
X11715000Y-10147000D02*
G75*
G03*
X11715000Y-10147000I-40000J0D01*
G01*
X11715000Y-10401000D02*
G75*
G03*
X11715000Y-10401000I-40000J0D01*
G01*
X11715000Y-10655000D02*
G75*
G03*
X11715000Y-10655000I-40000J0D01*
G01*
X11715000Y-10909000D02*
G75*
G03*
X11715000Y-10909000I-40000J0D01*
G01*
X11715000Y-11163000D02*
G75*
G03*
X11715000Y-11163000I-40000J0D01*
G01*
X11715000Y-11417000D02*
G75*
G03*
X11715000Y-11417000I-40000J0D01*
G01*
X11715000Y-11671000D02*
G75*
G03*
X11715000Y-11671000I-40000J0D01*
G01*
X11715000Y-11925000D02*
G75*
G03*
X11715000Y-11925000I-40000J0D01*
G01*
X14524000Y-10899000D02*
G75*
G03*
X14524000Y-10899000I-40000J0D01*
G01*
X14524000Y-11153000D02*
G75*
G03*
X14524000Y-11153000I-40000J0D01*
G01*
X14524000Y-11407000D02*
G75*
G03*
X14524000Y-11407000I-40000J0D01*
G01*
X14524000Y-11661000D02*
G75*
G03*
X14524000Y-11661000I-40000J0D01*
G01*
X14524000Y-11915000D02*
G75*
G03*
X14524000Y-11915000I-40000J0D01*
G01*
X14524000Y-12169000D02*
G75*
G03*
X14524000Y-12169000I-40000J0D01*
G01*
X14524000Y-12423000D02*
G75*
G03*
X14524000Y-12423000I-40000J0D01*
G01*
X14524000Y-12677000D02*
G75*
G03*
X14524000Y-12677000I-40000J0D01*
G01*
X14524000Y-12931000D02*
G75*
G03*
X14524000Y-12931000I-40000J0D01*
G01*
X14524000Y-13185000D02*
G75*
G03*
X14524000Y-13185000I-40000J0D01*
G01*
X14524000Y-13439000D02*
G75*
G03*
X14524000Y-13439000I-40000J0D01*
G01*
X14525000Y-6569000D02*
G75*
G03*
X14525000Y-6569000I-40000J0D01*
G01*
X14525000Y-6823000D02*
G75*
G03*
X14525000Y-6823000I-40000J0D01*
G01*
X14525000Y-7077000D02*
G75*
G03*
X14525000Y-7077000I-40000J0D01*
G01*
X14525000Y-7331000D02*
G75*
G03*
X14525000Y-7331000I-40000J0D01*
G01*
X14525000Y-7585000D02*
G75*
G03*
X14525000Y-7585000I-40000J0D01*
G01*
X14525000Y-7839000D02*
G75*
G03*
X14525000Y-7839000I-40000J0D01*
G01*
X14525000Y-8093000D02*
G75*
G03*
X14525000Y-8093000I-40000J0D01*
G01*
X14525000Y-8347000D02*
G75*
G03*
X14525000Y-8347000I-40000J0D01*
G01*
X14525000Y-8601000D02*
G75*
G03*
X14525000Y-8601000I-40000J0D01*
G01*
X14778000Y-10645000D02*
G75*
G03*
X14778000Y-10645000I-40000J0D01*
G01*
X14778000Y-10899000D02*
G75*
G03*
X14778000Y-10899000I-40000J0D01*
G01*
X14778000Y-11153000D02*
G75*
G03*
X14778000Y-11153000I-40000J0D01*
G01*
X14778000Y-11407000D02*
G75*
G03*
X14778000Y-11407000I-40000J0D01*
G01*
X14778000Y-11661000D02*
G75*
G03*
X14778000Y-11661000I-40000J0D01*
G01*
X14778000Y-11915000D02*
G75*
G03*
X14778000Y-11915000I-40000J0D01*
G01*
X14778000Y-12169000D02*
G75*
G03*
X14778000Y-12169000I-40000J0D01*
G01*
X14778000Y-12423000D02*
G75*
G03*
X14778000Y-12423000I-40000J0D01*
G01*
X14778000Y-12677000D02*
G75*
G03*
X14778000Y-12677000I-40000J0D01*
G01*
X14778000Y-12931000D02*
G75*
G03*
X14778000Y-12931000I-40000J0D01*
G01*
X14778000Y-13185000D02*
G75*
G03*
X14778000Y-13185000I-40000J0D01*
G01*
X14778000Y-13439000D02*
G75*
G03*
X14778000Y-13439000I-40000J0D01*
G01*
X14778000Y-13693000D02*
G75*
G03*
X14778000Y-13693000I-40000J0D01*
G01*
X14779000Y-6315000D02*
G75*
G03*
X14779000Y-6315000I-40000J0D01*
G01*
X14779000Y-6569000D02*
G75*
G03*
X14779000Y-6569000I-40000J0D01*
G01*
X14779000Y-6823000D02*
G75*
G03*
X14779000Y-6823000I-40000J0D01*
G01*
X14779000Y-7077000D02*
G75*
G03*
X14779000Y-7077000I-40000J0D01*
G01*
X14779000Y-7331000D02*
G75*
G03*
X14779000Y-7331000I-40000J0D01*
G01*
X14779000Y-7585000D02*
G75*
G03*
X14779000Y-7585000I-40000J0D01*
G01*
X14779000Y-7839000D02*
G75*
G03*
X14779000Y-7839000I-40000J0D01*
G01*
X14779000Y-8093000D02*
G75*
G03*
X14779000Y-8093000I-40000J0D01*
G01*
X14779000Y-8347000D02*
G75*
G03*
X14779000Y-8347000I-40000J0D01*
G01*
X14779000Y-8601000D02*
G75*
G03*
X14779000Y-8601000I-40000J0D01*
G01*
X14779000Y-8855000D02*
G75*
G03*
X14779000Y-8855000I-40000J0D01*
G01*
X15032000Y-10645000D02*
G75*
G03*
X15032000Y-10645000I-40000J0D01*
G01*
X15032000Y-10899000D02*
G75*
G03*
X15032000Y-10899000I-40000J0D01*
G01*
X15032000Y-13439000D02*
G75*
G03*
X15032000Y-13439000I-40000J0D01*
G01*
X15032000Y-13693000D02*
G75*
G03*
X15032000Y-13693000I-40000J0D01*
G01*
X15033000Y-6315000D02*
G75*
G03*
X15033000Y-6315000I-40000J0D01*
G01*
X15033000Y-6569000D02*
G75*
G03*
X15033000Y-6569000I-40000J0D01*
G01*
X15033000Y-8601000D02*
G75*
G03*
X15033000Y-8601000I-40000J0D01*
G01*
X15033000Y-8855000D02*
G75*
G03*
X15033000Y-8855000I-40000J0D01*
G01*
X15033000Y-9368000D02*
G75*
G03*
X15033000Y-9368000I-40000J0D01*
G01*
X15033000Y-10130000D02*
G75*
G03*
X15033000Y-10130000I-40000J0D01*
G01*
X15286000Y-10645000D02*
G75*
G03*
X15286000Y-10645000I-40000J0D01*
G01*
X15286000Y-10899000D02*
G75*
G03*
X15286000Y-10899000I-40000J0D01*
G01*
X15286000Y-13439000D02*
G75*
G03*
X15286000Y-13439000I-40000J0D01*
G01*
X15286000Y-13693000D02*
G75*
G03*
X15286000Y-13693000I-40000J0D01*
G01*
X15287000Y-6315000D02*
G75*
G03*
X15287000Y-6315000I-40000J0D01*
G01*
X15287000Y-6569000D02*
G75*
G03*
X15287000Y-6569000I-40000J0D01*
G01*
X15287000Y-8601000D02*
G75*
G03*
X15287000Y-8601000I-40000J0D01*
G01*
X15287000Y-8855000D02*
G75*
G03*
X15287000Y-8855000I-40000J0D01*
G01*
X15287000Y-9368000D02*
G75*
G03*
X15287000Y-9368000I-40000J0D01*
G01*
X15287000Y-10130000D02*
G75*
G03*
X15287000Y-10130000I-40000J0D01*
G01*
X15540000Y-10645000D02*
G75*
G03*
X15540000Y-10645000I-40000J0D01*
G01*
X15540000Y-10899000D02*
G75*
G03*
X15540000Y-10899000I-40000J0D01*
G01*
X15540000Y-13439000D02*
G75*
G03*
X15540000Y-13439000I-40000J0D01*
G01*
X15540000Y-13693000D02*
G75*
G03*
X15540000Y-13693000I-40000J0D01*
G01*
X15541000Y-6315000D02*
G75*
G03*
X15541000Y-6315000I-40000J0D01*
G01*
X15541000Y-6569000D02*
G75*
G03*
X15541000Y-6569000I-40000J0D01*
G01*
X15541000Y-8601000D02*
G75*
G03*
X15541000Y-8601000I-40000J0D01*
G01*
X15541000Y-8855000D02*
G75*
G03*
X15541000Y-8855000I-40000J0D01*
G01*
X15541000Y-9368000D02*
G75*
G03*
X15541000Y-9368000I-40000J0D01*
G01*
X15541000Y-10130000D02*
G75*
G03*
X15541000Y-10130000I-40000J0D01*
G01*
X15794000Y-10645000D02*
G75*
G03*
X15794000Y-10645000I-40000J0D01*
G01*
X15794000Y-10899000D02*
G75*
G03*
X15794000Y-10899000I-40000J0D01*
G01*
X15794000Y-13439000D02*
G75*
G03*
X15794000Y-13439000I-40000J0D01*
G01*
X15794000Y-13693000D02*
G75*
G03*
X15794000Y-13693000I-40000J0D01*
G01*
X15795000Y-6315000D02*
G75*
G03*
X15795000Y-6315000I-40000J0D01*
G01*
X15795000Y-6569000D02*
G75*
G03*
X15795000Y-6569000I-40000J0D01*
G01*
X15795000Y-8601000D02*
G75*
G03*
X15795000Y-8601000I-40000J0D01*
G01*
X15795000Y-8855000D02*
G75*
G03*
X15795000Y-8855000I-40000J0D01*
G01*
X15795000Y-9368000D02*
G75*
G03*
X15795000Y-9368000I-40000J0D01*
G01*
X15795000Y-10130000D02*
G75*
G03*
X15795000Y-10130000I-40000J0D01*
G01*
X16048000Y-10645000D02*
G75*
G03*
X16048000Y-10645000I-40000J0D01*
G01*
X16048000Y-10899000D02*
G75*
G03*
X16048000Y-10899000I-40000J0D01*
G01*
X16048000Y-13439000D02*
G75*
G03*
X16048000Y-13439000I-40000J0D01*
G01*
X16048000Y-13693000D02*
G75*
G03*
X16048000Y-13693000I-40000J0D01*
G01*
X16049000Y-6315000D02*
G75*
G03*
X16049000Y-6315000I-40000J0D01*
G01*
X16049000Y-6569000D02*
G75*
G03*
X16049000Y-6569000I-40000J0D01*
G01*
X16049000Y-8601000D02*
G75*
G03*
X16049000Y-8601000I-40000J0D01*
G01*
X16049000Y-8855000D02*
G75*
G03*
X16049000Y-8855000I-40000J0D01*
G01*
X16049000Y-9368000D02*
G75*
G03*
X16049000Y-9368000I-40000J0D01*
G01*
X16049000Y-10130000D02*
G75*
G03*
X16049000Y-10130000I-40000J0D01*
G01*
X16302000Y-10645000D02*
G75*
G03*
X16302000Y-10645000I-40000J0D01*
G01*
X16302000Y-10899000D02*
G75*
G03*
X16302000Y-10899000I-40000J0D01*
G01*
X16302000Y-13439000D02*
G75*
G03*
X16302000Y-13439000I-40000J0D01*
G01*
X16302000Y-13693000D02*
G75*
G03*
X16302000Y-13693000I-40000J0D01*
G01*
X16303000Y-6315000D02*
G75*
G03*
X16303000Y-6315000I-40000J0D01*
G01*
X16303000Y-6569000D02*
G75*
G03*
X16303000Y-6569000I-40000J0D01*
G01*
X16303000Y-8601000D02*
G75*
G03*
X16303000Y-8601000I-40000J0D01*
G01*
X16303000Y-8855000D02*
G75*
G03*
X16303000Y-8855000I-40000J0D01*
G01*
X16303000Y-9368000D02*
G75*
G03*
X16303000Y-9368000I-40000J0D01*
G01*
X16303000Y-10130000D02*
G75*
G03*
X16303000Y-10130000I-40000J0D01*
G01*
X16556000Y-10645000D02*
G75*
G03*
X16556000Y-10645000I-40000J0D01*
G01*
X16556000Y-10899000D02*
G75*
G03*
X16556000Y-10899000I-40000J0D01*
G01*
X16556000Y-13439000D02*
G75*
G03*
X16556000Y-13439000I-40000J0D01*
G01*
X16556000Y-13693000D02*
G75*
G03*
X16556000Y-13693000I-40000J0D01*
G01*
X16557000Y-6315000D02*
G75*
G03*
X16557000Y-6315000I-40000J0D01*
G01*
X16557000Y-6569000D02*
G75*
G03*
X16557000Y-6569000I-40000J0D01*
G01*
X16557000Y-8601000D02*
G75*
G03*
X16557000Y-8601000I-40000J0D01*
G01*
X16557000Y-8855000D02*
G75*
G03*
X16557000Y-8855000I-40000J0D01*
G01*
X16557000Y-9368000D02*
G75*
G03*
X16557000Y-9368000I-40000J0D01*
G01*
X16557000Y-10130000D02*
G75*
G03*
X16557000Y-10130000I-40000J0D01*
G01*
X16810000Y-10645000D02*
G75*
G03*
X16810000Y-10645000I-40000J0D01*
G01*
X16810000Y-10899000D02*
G75*
G03*
X16810000Y-10899000I-40000J0D01*
G01*
X16810000Y-13439000D02*
G75*
G03*
X16810000Y-13439000I-40000J0D01*
G01*
X16810000Y-13693000D02*
G75*
G03*
X16810000Y-13693000I-40000J0D01*
G01*
X16811000Y-6315000D02*
G75*
G03*
X16811000Y-6315000I-40000J0D01*
G01*
X16811000Y-6569000D02*
G75*
G03*
X16811000Y-6569000I-40000J0D01*
G01*
X16811000Y-6823000D02*
G75*
G03*
X16811000Y-6823000I-40000J0D01*
G01*
X16811000Y-7077000D02*
G75*
G03*
X16811000Y-7077000I-40000J0D01*
G01*
X16811000Y-7331000D02*
G75*
G03*
X16811000Y-7331000I-40000J0D01*
G01*
X16811000Y-7585000D02*
G75*
G03*
X16811000Y-7585000I-40000J0D01*
G01*
X16811000Y-7839000D02*
G75*
G03*
X16811000Y-7839000I-40000J0D01*
G01*
X16811000Y-8093000D02*
G75*
G03*
X16811000Y-8093000I-40000J0D01*
G01*
X16811000Y-8347000D02*
G75*
G03*
X16811000Y-8347000I-40000J0D01*
G01*
X16811000Y-8601000D02*
G75*
G03*
X16811000Y-8601000I-40000J0D01*
G01*
X16811000Y-8855000D02*
G75*
G03*
X16811000Y-8855000I-40000J0D01*
G01*
X16811000Y-9368000D02*
G75*
G03*
X16811000Y-9368000I-40000J0D01*
G01*
X16811000Y-10130000D02*
G75*
G03*
X16811000Y-10130000I-40000J0D01*
G01*
X17064000Y-10645000D02*
G75*
G03*
X17064000Y-10645000I-40000J0D01*
G01*
X17064000Y-10899000D02*
G75*
G03*
X17064000Y-10899000I-40000J0D01*
G01*
X17064000Y-13439000D02*
G75*
G03*
X17064000Y-13439000I-40000J0D01*
G01*
X17064000Y-13693000D02*
G75*
G03*
X17064000Y-13693000I-40000J0D01*
G01*
X17065000Y-6569000D02*
G75*
G03*
X17065000Y-6569000I-40000J0D01*
G01*
X17065000Y-6823000D02*
G75*
G03*
X17065000Y-6823000I-40000J0D01*
G01*
X17065000Y-7077000D02*
G75*
G03*
X17065000Y-7077000I-40000J0D01*
G01*
X17065000Y-7331000D02*
G75*
G03*
X17065000Y-7331000I-40000J0D01*
G01*
X17065000Y-7585000D02*
G75*
G03*
X17065000Y-7585000I-40000J0D01*
G01*
X17065000Y-7839000D02*
G75*
G03*
X17065000Y-7839000I-40000J0D01*
G01*
X17065000Y-8093000D02*
G75*
G03*
X17065000Y-8093000I-40000J0D01*
G01*
X17065000Y-8347000D02*
G75*
G03*
X17065000Y-8347000I-40000J0D01*
G01*
X17065000Y-8601000D02*
G75*
G03*
X17065000Y-8601000I-40000J0D01*
G01*
X17065000Y-9368000D02*
G75*
G03*
X17065000Y-9368000I-40000J0D01*
G01*
X17065000Y-10130000D02*
G75*
G03*
X17065000Y-10130000I-40000J0D01*
G01*
X17318000Y-10645000D02*
G75*
G03*
X17318000Y-10645000I-40000J0D01*
G01*
X17318000Y-10899000D02*
G75*
G03*
X17318000Y-10899000I-40000J0D01*
G01*
X17318000Y-11153000D02*
G75*
G03*
X17318000Y-11153000I-40000J0D01*
G01*
X17318000Y-11407000D02*
G75*
G03*
X17318000Y-11407000I-40000J0D01*
G01*
X17318000Y-11661000D02*
G75*
G03*
X17318000Y-11661000I-40000J0D01*
G01*
X17318000Y-11915000D02*
G75*
G03*
X17318000Y-11915000I-40000J0D01*
G01*
X17318000Y-12169000D02*
G75*
G03*
X17318000Y-12169000I-40000J0D01*
G01*
X17318000Y-12423000D02*
G75*
G03*
X17318000Y-12423000I-40000J0D01*
G01*
X17318000Y-12677000D02*
G75*
G03*
X17318000Y-12677000I-40000J0D01*
G01*
X17318000Y-12931000D02*
G75*
G03*
X17318000Y-12931000I-40000J0D01*
G01*
X17318000Y-13185000D02*
G75*
G03*
X17318000Y-13185000I-40000J0D01*
G01*
X17318000Y-13439000D02*
G75*
G03*
X17318000Y-13439000I-40000J0D01*
G01*
X17318000Y-13693000D02*
G75*
G03*
X17318000Y-13693000I-40000J0D01*
G01*
X17319000Y-9368000D02*
G75*
G03*
X17319000Y-9368000I-40000J0D01*
G01*
X17319000Y-10130000D02*
G75*
G03*
X17319000Y-10130000I-40000J0D01*
G01*
X17572000Y-10899000D02*
G75*
G03*
X17572000Y-10899000I-40000J0D01*
G01*
X17572000Y-11153000D02*
G75*
G03*
X17572000Y-11153000I-40000J0D01*
G01*
X17572000Y-11407000D02*
G75*
G03*
X17572000Y-11407000I-40000J0D01*
G01*
X17572000Y-11661000D02*
G75*
G03*
X17572000Y-11661000I-40000J0D01*
G01*
X17572000Y-11915000D02*
G75*
G03*
X17572000Y-11915000I-40000J0D01*
G01*
X17572000Y-12169000D02*
G75*
G03*
X17572000Y-12169000I-40000J0D01*
G01*
X17572000Y-12423000D02*
G75*
G03*
X17572000Y-12423000I-40000J0D01*
G01*
X17572000Y-12677000D02*
G75*
G03*
X17572000Y-12677000I-40000J0D01*
G01*
X17572000Y-12931000D02*
G75*
G03*
X17572000Y-12931000I-40000J0D01*
G01*
X17572000Y-13185000D02*
G75*
G03*
X17572000Y-13185000I-40000J0D01*
G01*
X17572000Y-13439000D02*
G75*
G03*
X17572000Y-13439000I-40000J0D01*
G01*
X17723000Y-4036000D02*
G75*
G03*
X17723000Y-4036000I-40000J0D01*
G01*
X17723000Y-4290000D02*
G75*
G03*
X17723000Y-4290000I-40000J0D01*
G01*
X17723000Y-4544000D02*
G75*
G03*
X17723000Y-4544000I-40000J0D01*
G01*
X17723000Y-4798000D02*
G75*
G03*
X17723000Y-4798000I-40000J0D01*
G01*
X17723000Y-5052000D02*
G75*
G03*
X17723000Y-5052000I-40000J0D01*
G01*
X17723000Y-5306000D02*
G75*
G03*
X17723000Y-5306000I-40000J0D01*
G01*
X17723000Y-5560000D02*
G75*
G03*
X17723000Y-5560000I-40000J0D01*
G01*
X17723000Y-5814000D02*
G75*
G03*
X17723000Y-5814000I-40000J0D01*
G01*
X17723000Y-6068000D02*
G75*
G03*
X17723000Y-6068000I-40000J0D01*
G01*
X17723000Y-6322000D02*
G75*
G03*
X17723000Y-6322000I-40000J0D01*
G01*
X18432000Y-7669000D02*
G75*
G03*
X18432000Y-7669000I-40000J0D01*
G01*
X18432000Y-9193000D02*
G75*
G03*
X18432000Y-9193000I-40000J0D01*
G01*
X18485000Y-4036000D02*
G75*
G03*
X18485000Y-4036000I-40000J0D01*
G01*
X18485000Y-4290000D02*
G75*
G03*
X18485000Y-4290000I-40000J0D01*
G01*
X18485000Y-4544000D02*
G75*
G03*
X18485000Y-4544000I-40000J0D01*
G01*
X18485000Y-4798000D02*
G75*
G03*
X18485000Y-4798000I-40000J0D01*
G01*
X18485000Y-5052000D02*
G75*
G03*
X18485000Y-5052000I-40000J0D01*
G01*
X18485000Y-5306000D02*
G75*
G03*
X18485000Y-5306000I-40000J0D01*
G01*
X18485000Y-5560000D02*
G75*
G03*
X18485000Y-5560000I-40000J0D01*
G01*
X18485000Y-5814000D02*
G75*
G03*
X18485000Y-5814000I-40000J0D01*
G01*
X18485000Y-6068000D02*
G75*
G03*
X18485000Y-6068000I-40000J0D01*
G01*
X18485000Y-6322000D02*
G75*
G03*
X18485000Y-6322000I-40000J0D01*
G01*
X18846000Y-4036000D02*
G75*
G03*
X18846000Y-4036000I-40000J0D01*
G01*
X18846000Y-4290000D02*
G75*
G03*
X18846000Y-4290000I-40000J0D01*
G01*
X18846000Y-4544000D02*
G75*
G03*
X18846000Y-4544000I-40000J0D01*
G01*
X18846000Y-4798000D02*
G75*
G03*
X18846000Y-4798000I-40000J0D01*
G01*
X18846000Y-5052000D02*
G75*
G03*
X18846000Y-5052000I-40000J0D01*
G01*
X18846000Y-5306000D02*
G75*
G03*
X18846000Y-5306000I-40000J0D01*
G01*
X18846000Y-5560000D02*
G75*
G03*
X18846000Y-5560000I-40000J0D01*
G01*
X18846000Y-5814000D02*
G75*
G03*
X18846000Y-5814000I-40000J0D01*
G01*
X18846000Y-6068000D02*
G75*
G03*
X18846000Y-6068000I-40000J0D01*
G01*
X18846000Y-6322000D02*
G75*
G03*
X18846000Y-6322000I-40000J0D01*
G01*
X19194000Y-7669000D02*
G75*
G03*
X19194000Y-7669000I-40000J0D01*
G01*
X19194000Y-9193000D02*
G75*
G03*
X19194000Y-9193000I-40000J0D01*
G01*
X19608000Y-4036000D02*
G75*
G03*
X19608000Y-4036000I-40000J0D01*
G01*
X19608000Y-4290000D02*
G75*
G03*
X19608000Y-4290000I-40000J0D01*
G01*
X19608000Y-4544000D02*
G75*
G03*
X19608000Y-4544000I-40000J0D01*
G01*
X19608000Y-4798000D02*
G75*
G03*
X19608000Y-4798000I-40000J0D01*
G01*
X19608000Y-5052000D02*
G75*
G03*
X19608000Y-5052000I-40000J0D01*
G01*
X19608000Y-5306000D02*
G75*
G03*
X19608000Y-5306000I-40000J0D01*
G01*
X19608000Y-5560000D02*
G75*
G03*
X19608000Y-5560000I-40000J0D01*
G01*
X19608000Y-5814000D02*
G75*
G03*
X19608000Y-5814000I-40000J0D01*
G01*
X19608000Y-6068000D02*
G75*
G03*
X19608000Y-6068000I-40000J0D01*
G01*
X19608000Y-6322000D02*
G75*
G03*
X19608000Y-6322000I-40000J0D01*
G01*
X19963000Y-4036000D02*
G75*
G03*
X19963000Y-4036000I-40000J0D01*
G01*
X19963000Y-4290000D02*
G75*
G03*
X19963000Y-4290000I-40000J0D01*
G01*
X19963000Y-4544000D02*
G75*
G03*
X19963000Y-4544000I-40000J0D01*
G01*
X19963000Y-4798000D02*
G75*
G03*
X19963000Y-4798000I-40000J0D01*
G01*
X19963000Y-5052000D02*
G75*
G03*
X19963000Y-5052000I-40000J0D01*
G01*
X19963000Y-5306000D02*
G75*
G03*
X19963000Y-5306000I-40000J0D01*
G01*
X19963000Y-5560000D02*
G75*
G03*
X19963000Y-5560000I-40000J0D01*
G01*
X19963000Y-5814000D02*
G75*
G03*
X19963000Y-5814000I-40000J0D01*
G01*
X19963000Y-6068000D02*
G75*
G03*
X19963000Y-6068000I-40000J0D01*
G01*
X19963000Y-6322000D02*
G75*
G03*
X19963000Y-6322000I-40000J0D01*
G01*
X20005000Y-7356000D02*
G75*
G03*
X20005000Y-7356000I-40000J0D01*
G01*
X20005000Y-7610000D02*
G75*
G03*
X20005000Y-7610000I-40000J0D01*
G01*
X20005000Y-7864000D02*
G75*
G03*
X20005000Y-7864000I-40000J0D01*
G01*
X20005000Y-8118000D02*
G75*
G03*
X20005000Y-8118000I-40000J0D01*
G01*
X20005000Y-8372000D02*
G75*
G03*
X20005000Y-8372000I-40000J0D01*
G01*
X20005000Y-8626000D02*
G75*
G03*
X20005000Y-8626000I-40000J0D01*
G01*
X20005000Y-8880000D02*
G75*
G03*
X20005000Y-8880000I-40000J0D01*
G01*
X20005000Y-9134000D02*
G75*
G03*
X20005000Y-9134000I-40000J0D01*
G01*
X20005000Y-9388000D02*
G75*
G03*
X20005000Y-9388000I-40000J0D01*
G01*
X20005000Y-9642000D02*
G75*
G03*
X20005000Y-9642000I-40000J0D01*
G01*
X20005000Y-9896000D02*
G75*
G03*
X20005000Y-9896000I-40000J0D01*
G01*
X20005000Y-10150000D02*
G75*
G03*
X20005000Y-10150000I-40000J0D01*
G01*
X20005000Y-10404000D02*
G75*
G03*
X20005000Y-10404000I-40000J0D01*
G01*
X20005000Y-10658000D02*
G75*
G03*
X20005000Y-10658000I-40000J0D01*
G01*
X20005000Y-10912000D02*
G75*
G03*
X20005000Y-10912000I-40000J0D01*
G01*
X20005000Y-11166000D02*
G75*
G03*
X20005000Y-11166000I-40000J0D01*
G01*
X20005000Y-11420000D02*
G75*
G03*
X20005000Y-11420000I-40000J0D01*
G01*
X20005000Y-11674000D02*
G75*
G03*
X20005000Y-11674000I-40000J0D01*
G01*
X20005000Y-11928000D02*
G75*
G03*
X20005000Y-11928000I-40000J0D01*
G01*
X20005000Y-12182000D02*
G75*
G03*
X20005000Y-12182000I-40000J0D01*
G01*
X20725000Y-4036000D02*
G75*
G03*
X20725000Y-4036000I-40000J0D01*
G01*
X20725000Y-4290000D02*
G75*
G03*
X20725000Y-4290000I-40000J0D01*
G01*
X20725000Y-4544000D02*
G75*
G03*
X20725000Y-4544000I-40000J0D01*
G01*
X20725000Y-4798000D02*
G75*
G03*
X20725000Y-4798000I-40000J0D01*
G01*
X20725000Y-5052000D02*
G75*
G03*
X20725000Y-5052000I-40000J0D01*
G01*
X20725000Y-5306000D02*
G75*
G03*
X20725000Y-5306000I-40000J0D01*
G01*
X20725000Y-5560000D02*
G75*
G03*
X20725000Y-5560000I-40000J0D01*
G01*
X20725000Y-5814000D02*
G75*
G03*
X20725000Y-5814000I-40000J0D01*
G01*
X20725000Y-6068000D02*
G75*
G03*
X20725000Y-6068000I-40000J0D01*
G01*
X20725000Y-6322000D02*
G75*
G03*
X20725000Y-6322000I-40000J0D01*
G01*
X21085000Y-4036000D02*
G75*
G03*
X21085000Y-4036000I-40000J0D01*
G01*
X21085000Y-4290000D02*
G75*
G03*
X21085000Y-4290000I-40000J0D01*
G01*
X21085000Y-4544000D02*
G75*
G03*
X21085000Y-4544000I-40000J0D01*
G01*
X21085000Y-4798000D02*
G75*
G03*
X21085000Y-4798000I-40000J0D01*
G01*
X21085000Y-5052000D02*
G75*
G03*
X21085000Y-5052000I-40000J0D01*
G01*
X21085000Y-5306000D02*
G75*
G03*
X21085000Y-5306000I-40000J0D01*
G01*
X21085000Y-5560000D02*
G75*
G03*
X21085000Y-5560000I-40000J0D01*
G01*
X21085000Y-5814000D02*
G75*
G03*
X21085000Y-5814000I-40000J0D01*
G01*
X21085000Y-6068000D02*
G75*
G03*
X21085000Y-6068000I-40000J0D01*
G01*
X21085000Y-6322000D02*
G75*
G03*
X21085000Y-6322000I-40000J0D01*
G01*
X21529000Y-7356000D02*
G75*
G03*
X21529000Y-7356000I-40000J0D01*
G01*
X21529000Y-7610000D02*
G75*
G03*
X21529000Y-7610000I-40000J0D01*
G01*
X21529000Y-7864000D02*
G75*
G03*
X21529000Y-7864000I-40000J0D01*
G01*
X21529000Y-8118000D02*
G75*
G03*
X21529000Y-8118000I-40000J0D01*
G01*
X21529000Y-8372000D02*
G75*
G03*
X21529000Y-8372000I-40000J0D01*
G01*
X21529000Y-8626000D02*
G75*
G03*
X21529000Y-8626000I-40000J0D01*
G01*
X21529000Y-8880000D02*
G75*
G03*
X21529000Y-8880000I-40000J0D01*
G01*
X21529000Y-9134000D02*
G75*
G03*
X21529000Y-9134000I-40000J0D01*
G01*
X21529000Y-9388000D02*
G75*
G03*
X21529000Y-9388000I-40000J0D01*
G01*
X21529000Y-9642000D02*
G75*
G03*
X21529000Y-9642000I-40000J0D01*
G01*
X21529000Y-9896000D02*
G75*
G03*
X21529000Y-9896000I-40000J0D01*
G01*
X21529000Y-10150000D02*
G75*
G03*
X21529000Y-10150000I-40000J0D01*
G01*
X21529000Y-10404000D02*
G75*
G03*
X21529000Y-10404000I-40000J0D01*
G01*
X21529000Y-10658000D02*
G75*
G03*
X21529000Y-10658000I-40000J0D01*
G01*
X21529000Y-10912000D02*
G75*
G03*
X21529000Y-10912000I-40000J0D01*
G01*
X21529000Y-11166000D02*
G75*
G03*
X21529000Y-11166000I-40000J0D01*
G01*
X21529000Y-11420000D02*
G75*
G03*
X21529000Y-11420000I-40000J0D01*
G01*
X21529000Y-11674000D02*
G75*
G03*
X21529000Y-11674000I-40000J0D01*
G01*
X21529000Y-11928000D02*
G75*
G03*
X21529000Y-11928000I-40000J0D01*
G01*
X21529000Y-12182000D02*
G75*
G03*
X21529000Y-12182000I-40000J0D01*
G01*
X21847000Y-4036000D02*
G75*
G03*
X21847000Y-4036000I-40000J0D01*
G01*
X21847000Y-4290000D02*
G75*
G03*
X21847000Y-4290000I-40000J0D01*
G01*
X21847000Y-4544000D02*
G75*
G03*
X21847000Y-4544000I-40000J0D01*
G01*
X21847000Y-4798000D02*
G75*
G03*
X21847000Y-4798000I-40000J0D01*
G01*
X21847000Y-5052000D02*
G75*
G03*
X21847000Y-5052000I-40000J0D01*
G01*
X21847000Y-5306000D02*
G75*
G03*
X21847000Y-5306000I-40000J0D01*
G01*
X21847000Y-5560000D02*
G75*
G03*
X21847000Y-5560000I-40000J0D01*
G01*
X21847000Y-5814000D02*
G75*
G03*
X21847000Y-5814000I-40000J0D01*
G01*
X21847000Y-6068000D02*
G75*
G03*
X21847000Y-6068000I-40000J0D01*
G01*
X21847000Y-6322000D02*
G75*
G03*
X21847000Y-6322000I-40000J0D01*
G01*
D12*
X8583928Y-14968214D02*
X8583928Y-14668214D01*
X8655357Y-14668214D01*
X8698214Y-14682500D01*
X8726786Y-14711071D01*
X8741071Y-14739643D01*
X8755357Y-14796786D01*
X8755357Y-14839643D01*
X8741071Y-14896786D01*
X8726786Y-14925357D01*
X8698214Y-14953929D01*
X8655357Y-14968214D01*
X8583928Y-14968214D01*
X8883928Y-14968214D02*
X8883928Y-14768214D01*
X8883928Y-14825357D02*
X8898214Y-14796786D01*
X8912500Y-14782500D01*
X8941071Y-14768214D01*
X8969643Y-14768214D01*
X9069643Y-14968214D02*
X9069643Y-14768214D01*
X9069643Y-14668214D02*
X9055357Y-14682500D01*
X9069643Y-14696786D01*
X9083928Y-14682500D01*
X9069643Y-14668214D01*
X9069643Y-14696786D01*
X9255357Y-14968214D02*
X9226786Y-14953929D01*
X9212500Y-14925357D01*
X9212500Y-14668214D01*
X9412500Y-14968214D02*
X9383928Y-14953929D01*
X9369643Y-14925357D01*
X9369643Y-14668214D01*
X9755357Y-14968214D02*
X9755357Y-14668214D01*
X9855357Y-14882500D01*
X9955357Y-14668214D01*
X9955357Y-14968214D01*
X10226786Y-14968214D02*
X10226786Y-14811071D01*
X10212500Y-14782500D01*
X10183928Y-14768214D01*
X10126786Y-14768214D01*
X10098214Y-14782500D01*
X10226786Y-14953929D02*
X10198214Y-14968214D01*
X10126786Y-14968214D01*
X10098214Y-14953929D01*
X10083928Y-14925357D01*
X10083928Y-14896786D01*
X10098214Y-14868214D01*
X10126786Y-14853929D01*
X10198214Y-14853929D01*
X10226786Y-14839643D01*
X10369643Y-14768214D02*
X10369643Y-15068214D01*
X10369643Y-14782500D02*
X10398214Y-14768214D01*
X10455357Y-14768214D01*
X10483928Y-14782500D01*
X10498214Y-14796786D01*
X10512500Y-14825357D01*
X10512500Y-14911071D01*
X10498214Y-14939643D01*
X10483928Y-14953929D01*
X10455357Y-14968214D01*
X10398214Y-14968214D01*
X10369643Y-14953929D01*
X10641071Y-14939643D02*
X10655357Y-14953929D01*
X10641071Y-14968214D01*
X10626786Y-14953929D01*
X10641071Y-14939643D01*
X10641071Y-14968214D01*
X10641071Y-14782500D02*
X10655357Y-14796786D01*
X10641071Y-14811071D01*
X10626786Y-14796786D01*
X10641071Y-14782500D01*
X10641071Y-14811071D01*
X8257500Y-15442500D02*
X8297500Y-15482500D01*
X8297500Y-15442500D02*
X8257500Y-15482500D01*
X8641071Y-15298214D02*
X8669643Y-15298214D01*
X8698214Y-15312500D01*
X8712500Y-15326786D01*
X8726786Y-15355357D01*
X8741071Y-15412500D01*
X8741071Y-15483929D01*
X8726786Y-15541071D01*
X8712500Y-15569643D01*
X8698214Y-15583929D01*
X8669643Y-15598214D01*
X8641071Y-15598214D01*
X8612500Y-15583929D01*
X8598214Y-15569643D01*
X8583928Y-15541071D01*
X8569643Y-15483929D01*
X8569643Y-15412500D01*
X8583928Y-15355357D01*
X8598214Y-15326786D01*
X8612500Y-15312500D01*
X8641071Y-15298214D01*
X8869643Y-15569643D02*
X8883928Y-15583929D01*
X8869643Y-15598214D01*
X8855357Y-15583929D01*
X8869643Y-15569643D01*
X8869643Y-15598214D01*
X9141071Y-15398214D02*
X9141071Y-15598214D01*
X9069643Y-15283929D02*
X8998214Y-15498214D01*
X9183928Y-15498214D01*
X9355357Y-15298214D02*
X9383928Y-15298214D01*
X9412500Y-15312500D01*
X9426786Y-15326786D01*
X9441071Y-15355357D01*
X9455357Y-15412500D01*
X9455357Y-15483929D01*
X9441071Y-15541071D01*
X9426786Y-15569643D01*
X9412500Y-15583929D01*
X9383928Y-15598214D01*
X9355357Y-15598214D01*
X9326786Y-15583929D01*
X9312500Y-15569643D01*
X9298214Y-15541071D01*
X9283928Y-15483929D01*
X9283928Y-15412500D01*
X9298214Y-15355357D01*
X9312500Y-15326786D01*
X9326786Y-15312500D01*
X9355357Y-15298214D01*
X9641071Y-15298214D02*
X9669643Y-15298214D01*
X9698214Y-15312500D01*
X9712500Y-15326786D01*
X9726786Y-15355357D01*
X9741071Y-15412500D01*
X9741071Y-15483929D01*
X9726786Y-15541071D01*
X9712500Y-15569643D01*
X9698214Y-15583929D01*
X9669643Y-15598214D01*
X9641071Y-15598214D01*
X9612500Y-15583929D01*
X9598214Y-15569643D01*
X9583928Y-15541071D01*
X9569643Y-15483929D01*
X9569643Y-15412500D01*
X9583928Y-15355357D01*
X9598214Y-15326786D01*
X9612500Y-15312500D01*
X9641071Y-15298214D01*
X9869643Y-15598214D02*
X9869643Y-15398214D01*
X9869643Y-15426786D02*
X9883928Y-15412500D01*
X9912500Y-15398214D01*
X9955357Y-15398214D01*
X9983928Y-15412500D01*
X9998214Y-15441071D01*
X9998214Y-15598214D01*
X9998214Y-15441071D02*
X10012500Y-15412500D01*
X10041071Y-15398214D01*
X10083928Y-15398214D01*
X10112500Y-15412500D01*
X10126786Y-15441071D01*
X10126786Y-15598214D01*
X10269643Y-15598214D02*
X10269643Y-15398214D01*
X10269643Y-15426786D02*
X10283928Y-15412500D01*
X10312500Y-15398214D01*
X10355357Y-15398214D01*
X10383928Y-15412500D01*
X10398214Y-15441071D01*
X10398214Y-15598214D01*
X10398214Y-15441071D02*
X10412500Y-15412500D01*
X10441071Y-15398214D01*
X10483928Y-15398214D01*
X10512500Y-15412500D01*
X10526786Y-15441071D01*
X10526786Y-15598214D01*
X11112500Y-15283929D02*
X10855357Y-15669643D01*
X11498214Y-15298214D02*
X11526786Y-15298214D01*
X11555357Y-15312500D01*
X11569643Y-15326786D01*
X11583928Y-15355357D01*
X11598214Y-15412500D01*
X11598214Y-15483929D01*
X11583928Y-15541071D01*
X11569643Y-15569643D01*
X11555357Y-15583929D01*
X11526786Y-15598214D01*
X11498214Y-15598214D01*
X11469643Y-15583929D01*
X11455357Y-15569643D01*
X11441071Y-15541071D01*
X11426786Y-15483929D01*
X11426786Y-15412500D01*
X11441071Y-15355357D01*
X11455357Y-15326786D01*
X11469643Y-15312500D01*
X11498214Y-15298214D01*
X11726786Y-15569643D02*
X11741071Y-15583929D01*
X11726786Y-15598214D01*
X11712500Y-15583929D01*
X11726786Y-15569643D01*
X11726786Y-15598214D01*
X11926786Y-15298214D02*
X11955357Y-15298214D01*
X11983928Y-15312500D01*
X11998214Y-15326786D01*
X12012500Y-15355357D01*
X12026786Y-15412500D01*
X12026786Y-15483929D01*
X12012500Y-15541071D01*
X11998214Y-15569643D01*
X11983928Y-15583929D01*
X11955357Y-15598214D01*
X11926786Y-15598214D01*
X11898214Y-15583929D01*
X11883928Y-15569643D01*
X11869643Y-15541071D01*
X11855357Y-15483929D01*
X11855357Y-15412500D01*
X11869643Y-15355357D01*
X11883928Y-15326786D01*
X11898214Y-15312500D01*
X11926786Y-15298214D01*
X12312500Y-15598214D02*
X12141071Y-15598214D01*
X12226786Y-15598214D02*
X12226786Y-15298214D01*
X12198214Y-15341071D01*
X12169643Y-15369643D01*
X12141071Y-15383929D01*
X12583928Y-15298214D02*
X12441071Y-15298214D01*
X12426786Y-15441071D01*
X12441071Y-15426786D01*
X12469643Y-15412500D01*
X12541071Y-15412500D01*
X12569643Y-15426786D01*
X12583928Y-15441071D01*
X12598214Y-15469643D01*
X12598214Y-15541071D01*
X12583928Y-15569643D01*
X12569643Y-15583929D01*
X12541071Y-15598214D01*
X12469643Y-15598214D01*
X12441071Y-15583929D01*
X12426786Y-15569643D01*
X12698214Y-15298214D02*
X12898214Y-15298214D01*
X12769643Y-15598214D01*
X12998214Y-15298214D02*
X12998214Y-15355357D01*
X13112500Y-15298214D02*
X13112500Y-15355357D01*
X13555357Y-15712500D02*
X13541071Y-15698214D01*
X13512500Y-15655357D01*
X13498214Y-15626786D01*
X13483928Y-15583929D01*
X13469643Y-15512500D01*
X13469643Y-15455357D01*
X13483928Y-15383929D01*
X13498214Y-15341071D01*
X13512500Y-15312500D01*
X13541071Y-15269643D01*
X13555357Y-15255357D01*
X13812500Y-15298214D02*
X13669643Y-15298214D01*
X13655357Y-15441071D01*
X13669643Y-15426786D01*
X13698214Y-15412500D01*
X13769643Y-15412500D01*
X13798214Y-15426786D01*
X13812500Y-15441071D01*
X13826786Y-15469643D01*
X13826786Y-15541071D01*
X13812500Y-15569643D01*
X13798214Y-15583929D01*
X13769643Y-15598214D01*
X13698214Y-15598214D01*
X13669643Y-15583929D01*
X13655357Y-15569643D01*
X13998214Y-15426786D02*
X13969643Y-15412500D01*
X13955357Y-15398214D01*
X13941071Y-15369643D01*
X13941071Y-15355357D01*
X13955357Y-15326786D01*
X13969643Y-15312500D01*
X13998214Y-15298214D01*
X14055357Y-15298214D01*
X14083928Y-15312500D01*
X14098214Y-15326786D01*
X14112500Y-15355357D01*
X14112500Y-15369643D01*
X14098214Y-15398214D01*
X14083928Y-15412500D01*
X14055357Y-15426786D01*
X13998214Y-15426786D01*
X13969643Y-15441071D01*
X13955357Y-15455357D01*
X13941071Y-15483929D01*
X13941071Y-15541071D01*
X13955357Y-15569643D01*
X13969643Y-15583929D01*
X13998214Y-15598214D01*
X14055357Y-15598214D01*
X14083928Y-15583929D01*
X14098214Y-15569643D01*
X14112500Y-15541071D01*
X14112500Y-15483929D01*
X14098214Y-15455357D01*
X14083928Y-15441071D01*
X14055357Y-15426786D01*
X14398214Y-15598214D02*
X14226786Y-15598214D01*
X14312500Y-15598214D02*
X14312500Y-15298214D01*
X14283928Y-15341071D01*
X14255357Y-15369643D01*
X14226786Y-15383929D01*
X14755357Y-15598214D02*
X14755357Y-15298214D01*
X14883928Y-15598214D02*
X14883928Y-15441071D01*
X14869643Y-15412500D01*
X14841071Y-15398214D01*
X14798214Y-15398214D01*
X14769643Y-15412500D01*
X14755357Y-15426786D01*
X15069643Y-15598214D02*
X15041071Y-15583929D01*
X15026786Y-15569643D01*
X15012500Y-15541071D01*
X15012500Y-15455357D01*
X15026786Y-15426786D01*
X15041071Y-15412500D01*
X15069643Y-15398214D01*
X15112500Y-15398214D01*
X15141071Y-15412500D01*
X15155357Y-15426786D01*
X15169643Y-15455357D01*
X15169643Y-15541071D01*
X15155357Y-15569643D01*
X15141071Y-15583929D01*
X15112500Y-15598214D01*
X15069643Y-15598214D01*
X15341071Y-15598214D02*
X15312500Y-15583929D01*
X15298214Y-15555357D01*
X15298214Y-15298214D01*
X15569643Y-15583929D02*
X15541071Y-15598214D01*
X15483928Y-15598214D01*
X15455357Y-15583929D01*
X15441071Y-15555357D01*
X15441071Y-15441071D01*
X15455357Y-15412500D01*
X15483928Y-15398214D01*
X15541071Y-15398214D01*
X15569643Y-15412500D01*
X15583928Y-15441071D01*
X15583928Y-15469643D01*
X15441071Y-15498214D01*
X15698214Y-15583929D02*
X15726786Y-15598214D01*
X15783928Y-15598214D01*
X15812500Y-15583929D01*
X15826786Y-15555357D01*
X15826786Y-15541071D01*
X15812500Y-15512500D01*
X15783928Y-15498214D01*
X15741071Y-15498214D01*
X15712500Y-15483929D01*
X15698214Y-15455357D01*
X15698214Y-15441071D01*
X15712500Y-15412500D01*
X15741071Y-15398214D01*
X15783928Y-15398214D01*
X15812500Y-15412500D01*
X15926786Y-15712500D02*
X15941071Y-15698214D01*
X15969643Y-15655357D01*
X15983928Y-15626786D01*
X15998214Y-15583929D01*
X16012500Y-15512500D01*
X16012500Y-15455357D01*
X15998214Y-15383929D01*
X15983928Y-15341071D01*
X15969643Y-15312500D01*
X15941071Y-15269643D01*
X15926786Y-15255357D01*
X8297500Y-15858500D02*
G75*
G03*
X8297500Y-15858500I-40000J0D01*
G01*
X8641071Y-15694214D02*
X8669643Y-15694214D01*
X8698214Y-15708500D01*
X8712500Y-15722786D01*
X8726786Y-15751357D01*
X8741071Y-15808500D01*
X8741071Y-15879929D01*
X8726786Y-15937071D01*
X8712500Y-15965643D01*
X8698214Y-15979929D01*
X8669643Y-15994214D01*
X8641071Y-15994214D01*
X8612500Y-15979929D01*
X8598214Y-15965643D01*
X8583928Y-15937071D01*
X8569643Y-15879929D01*
X8569643Y-15808500D01*
X8583928Y-15751357D01*
X8598214Y-15722786D01*
X8612500Y-15708500D01*
X8641071Y-15694214D01*
X8869643Y-15965643D02*
X8883928Y-15979929D01*
X8869643Y-15994214D01*
X8855357Y-15979929D01*
X8869643Y-15965643D01*
X8869643Y-15994214D01*
X9055357Y-15822786D02*
X9026786Y-15808500D01*
X9012500Y-15794214D01*
X8998214Y-15765643D01*
X8998214Y-15751357D01*
X9012500Y-15722786D01*
X9026786Y-15708500D01*
X9055357Y-15694214D01*
X9112500Y-15694214D01*
X9141071Y-15708500D01*
X9155357Y-15722786D01*
X9169643Y-15751357D01*
X9169643Y-15765643D01*
X9155357Y-15794214D01*
X9141071Y-15808500D01*
X9112500Y-15822786D01*
X9055357Y-15822786D01*
X9026786Y-15837071D01*
X9012500Y-15851357D01*
X8998214Y-15879929D01*
X8998214Y-15937071D01*
X9012500Y-15965643D01*
X9026786Y-15979929D01*
X9055357Y-15994214D01*
X9112500Y-15994214D01*
X9141071Y-15979929D01*
X9155357Y-15965643D01*
X9169643Y-15937071D01*
X9169643Y-15879929D01*
X9155357Y-15851357D01*
X9141071Y-15837071D01*
X9112500Y-15822786D01*
X9355357Y-15694214D02*
X9383928Y-15694214D01*
X9412500Y-15708500D01*
X9426786Y-15722786D01*
X9441071Y-15751357D01*
X9455357Y-15808500D01*
X9455357Y-15879929D01*
X9441071Y-15937071D01*
X9426786Y-15965643D01*
X9412500Y-15979929D01*
X9383928Y-15994214D01*
X9355357Y-15994214D01*
X9326786Y-15979929D01*
X9312500Y-15965643D01*
X9298214Y-15937071D01*
X9283928Y-15879929D01*
X9283928Y-15808500D01*
X9298214Y-15751357D01*
X9312500Y-15722786D01*
X9326786Y-15708500D01*
X9355357Y-15694214D01*
X9641071Y-15694214D02*
X9669643Y-15694214D01*
X9698214Y-15708500D01*
X9712500Y-15722786D01*
X9726786Y-15751357D01*
X9741071Y-15808500D01*
X9741071Y-15879929D01*
X9726786Y-15937071D01*
X9712500Y-15965643D01*
X9698214Y-15979929D01*
X9669643Y-15994214D01*
X9641071Y-15994214D01*
X9612500Y-15979929D01*
X9598214Y-15965643D01*
X9583928Y-15937071D01*
X9569643Y-15879929D01*
X9569643Y-15808500D01*
X9583928Y-15751357D01*
X9598214Y-15722786D01*
X9612500Y-15708500D01*
X9641071Y-15694214D01*
X9869643Y-15994214D02*
X9869643Y-15794214D01*
X9869643Y-15822786D02*
X9883928Y-15808500D01*
X9912500Y-15794214D01*
X9955357Y-15794214D01*
X9983928Y-15808500D01*
X9998214Y-15837071D01*
X9998214Y-15994214D01*
X9998214Y-15837071D02*
X10012500Y-15808500D01*
X10041071Y-15794214D01*
X10083928Y-15794214D01*
X10112500Y-15808500D01*
X10126786Y-15837071D01*
X10126786Y-15994214D01*
X10269643Y-15994214D02*
X10269643Y-15794214D01*
X10269643Y-15822786D02*
X10283928Y-15808500D01*
X10312500Y-15794214D01*
X10355357Y-15794214D01*
X10383928Y-15808500D01*
X10398214Y-15837071D01*
X10398214Y-15994214D01*
X10398214Y-15837071D02*
X10412500Y-15808500D01*
X10441071Y-15794214D01*
X10483928Y-15794214D01*
X10512500Y-15808500D01*
X10526786Y-15837071D01*
X10526786Y-15994214D01*
X11112500Y-15679929D02*
X10855357Y-16065643D01*
X11498214Y-15694214D02*
X11526786Y-15694214D01*
X11555357Y-15708500D01*
X11569643Y-15722786D01*
X11583928Y-15751357D01*
X11598214Y-15808500D01*
X11598214Y-15879929D01*
X11583928Y-15937071D01*
X11569643Y-15965643D01*
X11555357Y-15979929D01*
X11526786Y-15994214D01*
X11498214Y-15994214D01*
X11469643Y-15979929D01*
X11455357Y-15965643D01*
X11441071Y-15937071D01*
X11426786Y-15879929D01*
X11426786Y-15808500D01*
X11441071Y-15751357D01*
X11455357Y-15722786D01*
X11469643Y-15708500D01*
X11498214Y-15694214D01*
X11726786Y-15965643D02*
X11741071Y-15979929D01*
X11726786Y-15994214D01*
X11712500Y-15979929D01*
X11726786Y-15965643D01*
X11726786Y-15994214D01*
X11926786Y-15694214D02*
X11955357Y-15694214D01*
X11983928Y-15708500D01*
X11998214Y-15722786D01*
X12012500Y-15751357D01*
X12026786Y-15808500D01*
X12026786Y-15879929D01*
X12012500Y-15937071D01*
X11998214Y-15965643D01*
X11983928Y-15979929D01*
X11955357Y-15994214D01*
X11926786Y-15994214D01*
X11898214Y-15979929D01*
X11883928Y-15965643D01*
X11869643Y-15937071D01*
X11855357Y-15879929D01*
X11855357Y-15808500D01*
X11869643Y-15751357D01*
X11883928Y-15722786D01*
X11898214Y-15708500D01*
X11926786Y-15694214D01*
X12126786Y-15694214D02*
X12312500Y-15694214D01*
X12212500Y-15808500D01*
X12255357Y-15808500D01*
X12283928Y-15822786D01*
X12298214Y-15837071D01*
X12312500Y-15865643D01*
X12312500Y-15937071D01*
X12298214Y-15965643D01*
X12283928Y-15979929D01*
X12255357Y-15994214D01*
X12169643Y-15994214D01*
X12141071Y-15979929D01*
X12126786Y-15965643D01*
X12598214Y-15994214D02*
X12426786Y-15994214D01*
X12512500Y-15994214D02*
X12512500Y-15694214D01*
X12483928Y-15737071D01*
X12455357Y-15765643D01*
X12426786Y-15779929D01*
X12869643Y-15694214D02*
X12726786Y-15694214D01*
X12712500Y-15837071D01*
X12726786Y-15822786D01*
X12755357Y-15808500D01*
X12826786Y-15808500D01*
X12855357Y-15822786D01*
X12869643Y-15837071D01*
X12883928Y-15865643D01*
X12883928Y-15937071D01*
X12869643Y-15965643D01*
X12855357Y-15979929D01*
X12826786Y-15994214D01*
X12755357Y-15994214D01*
X12726786Y-15979929D01*
X12712500Y-15965643D01*
X12998214Y-15694214D02*
X12998214Y-15751357D01*
X13112500Y-15694214D02*
X13112500Y-15751357D01*
X13555357Y-16108500D02*
X13541071Y-16094214D01*
X13512500Y-16051357D01*
X13498214Y-16022786D01*
X13483928Y-15979929D01*
X13469643Y-15908500D01*
X13469643Y-15851357D01*
X13483928Y-15779929D01*
X13498214Y-15737071D01*
X13512500Y-15708500D01*
X13541071Y-15665643D01*
X13555357Y-15651357D01*
X13798214Y-15794214D02*
X13798214Y-15994214D01*
X13726786Y-15679929D02*
X13655357Y-15894214D01*
X13841071Y-15894214D01*
X14083928Y-15794214D02*
X14083928Y-15994214D01*
X14012500Y-15679929D02*
X13941071Y-15894214D01*
X14126786Y-15894214D01*
X14369643Y-15794214D02*
X14369643Y-15994214D01*
X14298214Y-15679929D02*
X14226786Y-15894214D01*
X14412500Y-15894214D01*
X14755357Y-15994214D02*
X14755357Y-15694214D01*
X14883928Y-15994214D02*
X14883928Y-15837071D01*
X14869643Y-15808500D01*
X14841071Y-15794214D01*
X14798214Y-15794214D01*
X14769643Y-15808500D01*
X14755357Y-15822786D01*
X15069643Y-15994214D02*
X15041071Y-15979929D01*
X15026786Y-15965643D01*
X15012500Y-15937071D01*
X15012500Y-15851357D01*
X15026786Y-15822786D01*
X15041071Y-15808500D01*
X15069643Y-15794214D01*
X15112500Y-15794214D01*
X15141071Y-15808500D01*
X15155357Y-15822786D01*
X15169643Y-15851357D01*
X15169643Y-15937071D01*
X15155357Y-15965643D01*
X15141071Y-15979929D01*
X15112500Y-15994214D01*
X15069643Y-15994214D01*
X15341071Y-15994214D02*
X15312500Y-15979929D01*
X15298214Y-15951357D01*
X15298214Y-15694214D01*
X15569643Y-15979929D02*
X15541071Y-15994214D01*
X15483928Y-15994214D01*
X15455357Y-15979929D01*
X15441071Y-15951357D01*
X15441071Y-15837071D01*
X15455357Y-15808500D01*
X15483928Y-15794214D01*
X15541071Y-15794214D01*
X15569643Y-15808500D01*
X15583928Y-15837071D01*
X15583928Y-15865643D01*
X15441071Y-15894214D01*
X15698214Y-15979929D02*
X15726786Y-15994214D01*
X15783928Y-15994214D01*
X15812500Y-15979929D01*
X15826786Y-15951357D01*
X15826786Y-15937071D01*
X15812500Y-15908500D01*
X15783928Y-15894214D01*
X15741071Y-15894214D01*
X15712500Y-15879929D01*
X15698214Y-15851357D01*
X15698214Y-15837071D01*
X15712500Y-15808500D01*
X15741071Y-15794214D01*
X15783928Y-15794214D01*
X15812500Y-15808500D01*
X15926786Y-16108500D02*
X15941071Y-16094214D01*
X15969643Y-16051357D01*
X15983928Y-16022786D01*
X15998214Y-15979929D01*
X16012500Y-15908500D01*
X16012500Y-15851357D01*
X15998214Y-15779929D01*
X15983928Y-15737071D01*
X15969643Y-15708500D01*
X15941071Y-15665643D01*
X15926786Y-15651357D01*
M02*
