%TF.GenerationSoftware,KiCad,Pcbnew,(5.1.12)-1*%
%TF.CreationDate,2022-10-26T16:15:56+02:00*%
%TF.ProjectId,dueottosei,6475656f-7474-46f7-9365-692e6b696361,rev?*%
%TF.SameCoordinates,Original*%
%TF.FileFunction,Paste,Top*%
%TF.FilePolarity,Positive*%
%FSLAX46Y46*%
G04 Gerber Fmt 4.6, Leading zero omitted, Abs format (unit mm)*
G04 Created by KiCad (PCBNEW (5.1.12)-1) date 2022-10-26 16:15:56*
%MOMM*%
%LPD*%
G01*
G04 APERTURE LIST*
%ADD10R,1.525000X0.600000*%
%ADD11R,0.600000X1.525000*%
%ADD12R,0.600000X1.950000*%
%ADD13R,1.950000X0.650000*%
%ADD14R,0.650000X1.950000*%
%ADD15R,0.650000X1.525000*%
G04 APERTURE END LIST*
D10*
%TO.C,U35*%
X146608000Y-44205000D03*
X146608000Y-45475000D03*
X146608000Y-46745000D03*
X146608000Y-48015000D03*
X146608000Y-49285000D03*
X146608000Y-50555000D03*
X146608000Y-51825000D03*
X146608000Y-53095000D03*
X152032000Y-53095000D03*
X152032000Y-51825000D03*
X152032000Y-50555000D03*
X152032000Y-49285000D03*
X152032000Y-48015000D03*
X152032000Y-46745000D03*
X152032000Y-45475000D03*
X152032000Y-44205000D03*
%TD*%
%TO.C,U36*%
X108642000Y-48045000D03*
X108642000Y-49315000D03*
X108642000Y-50585000D03*
X108642000Y-51855000D03*
X108642000Y-53125000D03*
X108642000Y-54395000D03*
X108642000Y-55665000D03*
X108642000Y-56935000D03*
X103218000Y-56935000D03*
X103218000Y-55665000D03*
X103218000Y-54395000D03*
X103218000Y-53125000D03*
X103218000Y-51855000D03*
X103218000Y-50585000D03*
X103218000Y-49315000D03*
X103218000Y-48045000D03*
%TD*%
D11*
%TO.C,U37*%
X124435000Y-105052000D03*
X125705000Y-105052000D03*
X126975000Y-105052000D03*
X128245000Y-105052000D03*
X129515000Y-105052000D03*
X130785000Y-105052000D03*
X132055000Y-105052000D03*
X133325000Y-105052000D03*
X133325000Y-99628000D03*
X132055000Y-99628000D03*
X130785000Y-99628000D03*
X129515000Y-99628000D03*
X128245000Y-99628000D03*
X126975000Y-99628000D03*
X125705000Y-99628000D03*
X124435000Y-99628000D03*
%TD*%
%TO.C,U43*%
X124460000Y-115852000D03*
X125730000Y-115852000D03*
X127000000Y-115852000D03*
X128270000Y-115852000D03*
X129540000Y-115852000D03*
X130810000Y-115852000D03*
X132080000Y-115852000D03*
X132080000Y-110428000D03*
X130810000Y-110428000D03*
X129540000Y-110428000D03*
X128270000Y-110428000D03*
X127000000Y-110428000D03*
X125730000Y-110428000D03*
X124460000Y-110428000D03*
%TD*%
D12*
%TO.C,U21*%
X124475000Y-53355000D03*
X125745000Y-53355000D03*
X127015000Y-53355000D03*
X128285000Y-53355000D03*
X129555000Y-53355000D03*
X130825000Y-53355000D03*
X132095000Y-53355000D03*
X133365000Y-53355000D03*
X134635000Y-53355000D03*
X135905000Y-53355000D03*
X135905000Y-43905000D03*
X134635000Y-43905000D03*
X133365000Y-43905000D03*
X132095000Y-43905000D03*
X130825000Y-43905000D03*
X129555000Y-43905000D03*
X128285000Y-43905000D03*
X127015000Y-43905000D03*
X125745000Y-43905000D03*
X124475000Y-43905000D03*
%TD*%
D11*
%TO.C,U15*%
X184920000Y-108742000D03*
X186190000Y-108742000D03*
X187460000Y-108742000D03*
X188730000Y-108742000D03*
X190000000Y-108742000D03*
X191270000Y-108742000D03*
X192540000Y-108742000D03*
X192540000Y-103318000D03*
X191270000Y-103318000D03*
X190000000Y-103318000D03*
X188730000Y-103318000D03*
X187460000Y-103318000D03*
X186190000Y-103318000D03*
X184920000Y-103318000D03*
%TD*%
%TO.C,U45*%
X184920000Y-121122000D03*
X186190000Y-121122000D03*
X187460000Y-121122000D03*
X188730000Y-121122000D03*
X190000000Y-121122000D03*
X191270000Y-121122000D03*
X192540000Y-121122000D03*
X192540000Y-115698000D03*
X191270000Y-115698000D03*
X190000000Y-115698000D03*
X188730000Y-115698000D03*
X187460000Y-115698000D03*
X186190000Y-115698000D03*
X184920000Y-115698000D03*
%TD*%
%TO.C,U28*%
X184930000Y-128228000D03*
X186200000Y-128228000D03*
X187470000Y-128228000D03*
X188740000Y-128228000D03*
X190010000Y-128228000D03*
X191280000Y-128228000D03*
X192550000Y-128228000D03*
X192550000Y-133652000D03*
X191280000Y-133652000D03*
X190010000Y-133652000D03*
X188740000Y-133652000D03*
X187470000Y-133652000D03*
X186200000Y-133652000D03*
X184930000Y-133652000D03*
%TD*%
%TO.C,C10*%
G36*
G01*
X86100000Y-40900000D02*
X88900000Y-40900000D01*
G75*
G02*
X89150000Y-41150000I0J-250000D01*
G01*
X89150000Y-42650000D01*
G75*
G02*
X88900000Y-42900000I-250000J0D01*
G01*
X86100000Y-42900000D01*
G75*
G02*
X85850000Y-42650000I0J250000D01*
G01*
X85850000Y-41150000D01*
G75*
G02*
X86100000Y-40900000I250000J0D01*
G01*
G37*
G36*
G01*
X86100000Y-47100000D02*
X88900000Y-47100000D01*
G75*
G02*
X89150000Y-47350000I0J-250000D01*
G01*
X89150000Y-48850000D01*
G75*
G02*
X88900000Y-49100000I-250000J0D01*
G01*
X86100000Y-49100000D01*
G75*
G02*
X85850000Y-48850000I0J250000D01*
G01*
X85850000Y-47350000D01*
G75*
G02*
X86100000Y-47100000I250000J0D01*
G01*
G37*
%TD*%
%TO.C,C11*%
G36*
G01*
X205260000Y-129350000D02*
X205260000Y-132150000D01*
G75*
G02*
X205010000Y-132400000I-250000J0D01*
G01*
X203510000Y-132400000D01*
G75*
G02*
X203260000Y-132150000I0J250000D01*
G01*
X203260000Y-129350000D01*
G75*
G02*
X203510000Y-129100000I250000J0D01*
G01*
X205010000Y-129100000D01*
G75*
G02*
X205260000Y-129350000I0J-250000D01*
G01*
G37*
G36*
G01*
X211460000Y-129350000D02*
X211460000Y-132150000D01*
G75*
G02*
X211210000Y-132400000I-250000J0D01*
G01*
X209710000Y-132400000D01*
G75*
G02*
X209460000Y-132150000I0J250000D01*
G01*
X209460000Y-129350000D01*
G75*
G02*
X209710000Y-129100000I250000J0D01*
G01*
X211210000Y-129100000D01*
G75*
G02*
X211460000Y-129350000I0J-250000D01*
G01*
G37*
%TD*%
%TO.C,C12*%
G36*
G01*
X88370000Y-54330001D02*
X88370000Y-53029999D01*
G75*
G02*
X88619999Y-52780000I249999J0D01*
G01*
X89270001Y-52780000D01*
G75*
G02*
X89520000Y-53029999I0J-249999D01*
G01*
X89520000Y-54330001D01*
G75*
G02*
X89270001Y-54580000I-249999J0D01*
G01*
X88619999Y-54580000D01*
G75*
G02*
X88370000Y-54330001I0J249999D01*
G01*
G37*
G36*
G01*
X85420000Y-54330001D02*
X85420000Y-53029999D01*
G75*
G02*
X85669999Y-52780000I249999J0D01*
G01*
X86320001Y-52780000D01*
G75*
G02*
X86570000Y-53029999I0J-249999D01*
G01*
X86570000Y-54330001D01*
G75*
G02*
X86320001Y-54580000I-249999J0D01*
G01*
X85669999Y-54580000D01*
G75*
G02*
X85420000Y-54330001I0J249999D01*
G01*
G37*
%TD*%
%TO.C,C13*%
G36*
G01*
X139610001Y-72220000D02*
X138309999Y-72220000D01*
G75*
G02*
X138060000Y-71970001I0J249999D01*
G01*
X138060000Y-71319999D01*
G75*
G02*
X138309999Y-71070000I249999J0D01*
G01*
X139610001Y-71070000D01*
G75*
G02*
X139860000Y-71319999I0J-249999D01*
G01*
X139860000Y-71970001D01*
G75*
G02*
X139610001Y-72220000I-249999J0D01*
G01*
G37*
G36*
G01*
X139610001Y-69270000D02*
X138309999Y-69270000D01*
G75*
G02*
X138060000Y-69020001I0J249999D01*
G01*
X138060000Y-68369999D01*
G75*
G02*
X138309999Y-68120000I249999J0D01*
G01*
X139610001Y-68120000D01*
G75*
G02*
X139860000Y-68369999I0J-249999D01*
G01*
X139860000Y-69020001D01*
G75*
G02*
X139610001Y-69270000I-249999J0D01*
G01*
G37*
%TD*%
%TO.C,C14*%
G36*
G01*
X145439999Y-96680000D02*
X146740001Y-96680000D01*
G75*
G02*
X146990000Y-96929999I0J-249999D01*
G01*
X146990000Y-97580001D01*
G75*
G02*
X146740001Y-97830000I-249999J0D01*
G01*
X145439999Y-97830000D01*
G75*
G02*
X145190000Y-97580001I0J249999D01*
G01*
X145190000Y-96929999D01*
G75*
G02*
X145439999Y-96680000I249999J0D01*
G01*
G37*
G36*
G01*
X145439999Y-93730000D02*
X146740001Y-93730000D01*
G75*
G02*
X146990000Y-93979999I0J-249999D01*
G01*
X146990000Y-94630001D01*
G75*
G02*
X146740001Y-94880000I-249999J0D01*
G01*
X145439999Y-94880000D01*
G75*
G02*
X145190000Y-94630001I0J249999D01*
G01*
X145190000Y-93979999D01*
G75*
G02*
X145439999Y-93730000I249999J0D01*
G01*
G37*
%TD*%
%TO.C,C15*%
G36*
G01*
X151830000Y-59150001D02*
X151830000Y-57849999D01*
G75*
G02*
X152079999Y-57600000I249999J0D01*
G01*
X152730001Y-57600000D01*
G75*
G02*
X152980000Y-57849999I0J-249999D01*
G01*
X152980000Y-59150001D01*
G75*
G02*
X152730001Y-59400000I-249999J0D01*
G01*
X152079999Y-59400000D01*
G75*
G02*
X151830000Y-59150001I0J249999D01*
G01*
G37*
G36*
G01*
X154780000Y-59150001D02*
X154780000Y-57849999D01*
G75*
G02*
X155029999Y-57600000I249999J0D01*
G01*
X155680001Y-57600000D01*
G75*
G02*
X155930000Y-57849999I0J-249999D01*
G01*
X155930000Y-59150001D01*
G75*
G02*
X155680001Y-59400000I-249999J0D01*
G01*
X155029999Y-59400000D01*
G75*
G02*
X154780000Y-59150001I0J249999D01*
G01*
G37*
%TD*%
%TO.C,C16*%
G36*
G01*
X130530000Y-60779999D02*
X130530000Y-62080001D01*
G75*
G02*
X130280001Y-62330000I-249999J0D01*
G01*
X129629999Y-62330000D01*
G75*
G02*
X129380000Y-62080001I0J249999D01*
G01*
X129380000Y-60779999D01*
G75*
G02*
X129629999Y-60530000I249999J0D01*
G01*
X130280001Y-60530000D01*
G75*
G02*
X130530000Y-60779999I0J-249999D01*
G01*
G37*
G36*
G01*
X133480000Y-60779999D02*
X133480000Y-62080001D01*
G75*
G02*
X133230001Y-62330000I-249999J0D01*
G01*
X132579999Y-62330000D01*
G75*
G02*
X132330000Y-62080001I0J249999D01*
G01*
X132330000Y-60779999D01*
G75*
G02*
X132579999Y-60530000I249999J0D01*
G01*
X133230001Y-60530000D01*
G75*
G02*
X133480000Y-60779999I0J-249999D01*
G01*
G37*
%TD*%
%TO.C,C17*%
G36*
G01*
X142179999Y-93730000D02*
X143480001Y-93730000D01*
G75*
G02*
X143730000Y-93979999I0J-249999D01*
G01*
X143730000Y-94630001D01*
G75*
G02*
X143480001Y-94880000I-249999J0D01*
G01*
X142179999Y-94880000D01*
G75*
G02*
X141930000Y-94630001I0J249999D01*
G01*
X141930000Y-93979999D01*
G75*
G02*
X142179999Y-93730000I249999J0D01*
G01*
G37*
G36*
G01*
X142179999Y-96680000D02*
X143480001Y-96680000D01*
G75*
G02*
X143730000Y-96929999I0J-249999D01*
G01*
X143730000Y-97580001D01*
G75*
G02*
X143480001Y-97830000I-249999J0D01*
G01*
X142179999Y-97830000D01*
G75*
G02*
X141930000Y-97580001I0J249999D01*
G01*
X141930000Y-96929999D01*
G75*
G02*
X142179999Y-96680000I249999J0D01*
G01*
G37*
%TD*%
%TO.C,C21*%
G36*
G01*
X121239999Y-42900000D02*
X122540001Y-42900000D01*
G75*
G02*
X122790000Y-43149999I0J-249999D01*
G01*
X122790000Y-43800001D01*
G75*
G02*
X122540001Y-44050000I-249999J0D01*
G01*
X121239999Y-44050000D01*
G75*
G02*
X120990000Y-43800001I0J249999D01*
G01*
X120990000Y-43149999D01*
G75*
G02*
X121239999Y-42900000I249999J0D01*
G01*
G37*
G36*
G01*
X121239999Y-45850000D02*
X122540001Y-45850000D01*
G75*
G02*
X122790000Y-46099999I0J-249999D01*
G01*
X122790000Y-46750001D01*
G75*
G02*
X122540001Y-47000000I-249999J0D01*
G01*
X121239999Y-47000000D01*
G75*
G02*
X120990000Y-46750001I0J249999D01*
G01*
X120990000Y-46099999D01*
G75*
G02*
X121239999Y-45850000I249999J0D01*
G01*
G37*
%TD*%
%TO.C,C22*%
G36*
G01*
X197130001Y-96850000D02*
X195829999Y-96850000D01*
G75*
G02*
X195580000Y-96600001I0J249999D01*
G01*
X195580000Y-95949999D01*
G75*
G02*
X195829999Y-95700000I249999J0D01*
G01*
X197130001Y-95700000D01*
G75*
G02*
X197380000Y-95949999I0J-249999D01*
G01*
X197380000Y-96600001D01*
G75*
G02*
X197130001Y-96850000I-249999J0D01*
G01*
G37*
G36*
G01*
X197130001Y-99800000D02*
X195829999Y-99800000D01*
G75*
G02*
X195580000Y-99550001I0J249999D01*
G01*
X195580000Y-98899999D01*
G75*
G02*
X195829999Y-98650000I249999J0D01*
G01*
X197130001Y-98650000D01*
G75*
G02*
X197380000Y-98899999I0J-249999D01*
G01*
X197380000Y-99550001D01*
G75*
G02*
X197130001Y-99800000I-249999J0D01*
G01*
G37*
%TD*%
%TO.C,C23*%
G36*
G01*
X121119999Y-98880000D02*
X122420001Y-98880000D01*
G75*
G02*
X122670000Y-99129999I0J-249999D01*
G01*
X122670000Y-99780001D01*
G75*
G02*
X122420001Y-100030000I-249999J0D01*
G01*
X121119999Y-100030000D01*
G75*
G02*
X120870000Y-99780001I0J249999D01*
G01*
X120870000Y-99129999D01*
G75*
G02*
X121119999Y-98880000I249999J0D01*
G01*
G37*
G36*
G01*
X121119999Y-101830000D02*
X122420001Y-101830000D01*
G75*
G02*
X122670000Y-102079999I0J-249999D01*
G01*
X122670000Y-102730001D01*
G75*
G02*
X122420001Y-102980000I-249999J0D01*
G01*
X121119999Y-102980000D01*
G75*
G02*
X120870000Y-102730001I0J249999D01*
G01*
X120870000Y-102079999D01*
G75*
G02*
X121119999Y-101830000I249999J0D01*
G01*
G37*
%TD*%
%TO.C,C24*%
G36*
G01*
X130530000Y-119369999D02*
X130530000Y-120670001D01*
G75*
G02*
X130280001Y-120920000I-249999J0D01*
G01*
X129629999Y-120920000D01*
G75*
G02*
X129380000Y-120670001I0J249999D01*
G01*
X129380000Y-119369999D01*
G75*
G02*
X129629999Y-119120000I249999J0D01*
G01*
X130280001Y-119120000D01*
G75*
G02*
X130530000Y-119369999I0J-249999D01*
G01*
G37*
G36*
G01*
X133480000Y-119369999D02*
X133480000Y-120670001D01*
G75*
G02*
X133230001Y-120920000I-249999J0D01*
G01*
X132579999Y-120920000D01*
G75*
G02*
X132330000Y-120670001I0J249999D01*
G01*
X132330000Y-119369999D01*
G75*
G02*
X132579999Y-119120000I249999J0D01*
G01*
X133230001Y-119120000D01*
G75*
G02*
X133480000Y-119369999I0J-249999D01*
G01*
G37*
%TD*%
%TO.C,C25*%
G36*
G01*
X91139999Y-127470000D02*
X92440001Y-127470000D01*
G75*
G02*
X92690000Y-127719999I0J-249999D01*
G01*
X92690000Y-128370001D01*
G75*
G02*
X92440001Y-128620000I-249999J0D01*
G01*
X91139999Y-128620000D01*
G75*
G02*
X90890000Y-128370001I0J249999D01*
G01*
X90890000Y-127719999D01*
G75*
G02*
X91139999Y-127470000I249999J0D01*
G01*
G37*
G36*
G01*
X91139999Y-130420000D02*
X92440001Y-130420000D01*
G75*
G02*
X92690000Y-130669999I0J-249999D01*
G01*
X92690000Y-131320001D01*
G75*
G02*
X92440001Y-131570000I-249999J0D01*
G01*
X91139999Y-131570000D01*
G75*
G02*
X90890000Y-131320001I0J249999D01*
G01*
X90890000Y-130669999D01*
G75*
G02*
X91139999Y-130420000I249999J0D01*
G01*
G37*
%TD*%
%TO.C,C27*%
G36*
G01*
X122440001Y-110880000D02*
X121139999Y-110880000D01*
G75*
G02*
X120890000Y-110630001I0J249999D01*
G01*
X120890000Y-109979999D01*
G75*
G02*
X121139999Y-109730000I249999J0D01*
G01*
X122440001Y-109730000D01*
G75*
G02*
X122690000Y-109979999I0J-249999D01*
G01*
X122690000Y-110630001D01*
G75*
G02*
X122440001Y-110880000I-249999J0D01*
G01*
G37*
G36*
G01*
X122440001Y-113830000D02*
X121139999Y-113830000D01*
G75*
G02*
X120890000Y-113580001I0J249999D01*
G01*
X120890000Y-112929999D01*
G75*
G02*
X121139999Y-112680000I249999J0D01*
G01*
X122440001Y-112680000D01*
G75*
G02*
X122690000Y-112929999I0J-249999D01*
G01*
X122690000Y-113580001D01*
G75*
G02*
X122440001Y-113830000I-249999J0D01*
G01*
G37*
%TD*%
%TO.C,C28*%
G36*
G01*
X156439999Y-43400000D02*
X157740001Y-43400000D01*
G75*
G02*
X157990000Y-43649999I0J-249999D01*
G01*
X157990000Y-44300001D01*
G75*
G02*
X157740001Y-44550000I-249999J0D01*
G01*
X156439999Y-44550000D01*
G75*
G02*
X156190000Y-44300001I0J249999D01*
G01*
X156190000Y-43649999D01*
G75*
G02*
X156439999Y-43400000I249999J0D01*
G01*
G37*
G36*
G01*
X156439999Y-46350000D02*
X157740001Y-46350000D01*
G75*
G02*
X157990000Y-46599999I0J-249999D01*
G01*
X157990000Y-47250001D01*
G75*
G02*
X157740001Y-47500000I-249999J0D01*
G01*
X156439999Y-47500000D01*
G75*
G02*
X156190000Y-47250001I0J249999D01*
G01*
X156190000Y-46599999D01*
G75*
G02*
X156439999Y-46350000I249999J0D01*
G01*
G37*
%TD*%
%TO.C,C29*%
G36*
G01*
X149720000Y-39709999D02*
X149720000Y-41010001D01*
G75*
G02*
X149470001Y-41260000I-249999J0D01*
G01*
X148819999Y-41260000D01*
G75*
G02*
X148570000Y-41010001I0J249999D01*
G01*
X148570000Y-39709999D01*
G75*
G02*
X148819999Y-39460000I249999J0D01*
G01*
X149470001Y-39460000D01*
G75*
G02*
X149720000Y-39709999I0J-249999D01*
G01*
G37*
G36*
G01*
X152670000Y-39709999D02*
X152670000Y-41010001D01*
G75*
G02*
X152420001Y-41260000I-249999J0D01*
G01*
X151769999Y-41260000D01*
G75*
G02*
X151520000Y-41010001I0J249999D01*
G01*
X151520000Y-39709999D01*
G75*
G02*
X151769999Y-39460000I249999J0D01*
G01*
X152420001Y-39460000D01*
G75*
G02*
X152670000Y-39709999I0J-249999D01*
G01*
G37*
%TD*%
%TO.C,C31*%
G36*
G01*
X209760000Y-68650001D02*
X209760000Y-67349999D01*
G75*
G02*
X210009999Y-67100000I249999J0D01*
G01*
X210660001Y-67100000D01*
G75*
G02*
X210910000Y-67349999I0J-249999D01*
G01*
X210910000Y-68650001D01*
G75*
G02*
X210660001Y-68900000I-249999J0D01*
G01*
X210009999Y-68900000D01*
G75*
G02*
X209760000Y-68650001I0J249999D01*
G01*
G37*
G36*
G01*
X212710000Y-68650001D02*
X212710000Y-67349999D01*
G75*
G02*
X212959999Y-67100000I249999J0D01*
G01*
X213610001Y-67100000D01*
G75*
G02*
X213860000Y-67349999I0J-249999D01*
G01*
X213860000Y-68650001D01*
G75*
G02*
X213610001Y-68900000I-249999J0D01*
G01*
X212959999Y-68900000D01*
G75*
G02*
X212710000Y-68650001I0J249999D01*
G01*
G37*
%TD*%
%TO.C,C32*%
G36*
G01*
X198700000Y-68650001D02*
X198700000Y-67349999D01*
G75*
G02*
X198949999Y-67100000I249999J0D01*
G01*
X199600001Y-67100000D01*
G75*
G02*
X199850000Y-67349999I0J-249999D01*
G01*
X199850000Y-68650001D01*
G75*
G02*
X199600001Y-68900000I-249999J0D01*
G01*
X198949999Y-68900000D01*
G75*
G02*
X198700000Y-68650001I0J249999D01*
G01*
G37*
G36*
G01*
X201650000Y-68650001D02*
X201650000Y-67349999D01*
G75*
G02*
X201899999Y-67100000I249999J0D01*
G01*
X202550001Y-67100000D01*
G75*
G02*
X202800000Y-67349999I0J-249999D01*
G01*
X202800000Y-68650001D01*
G75*
G02*
X202550001Y-68900000I-249999J0D01*
G01*
X201899999Y-68900000D01*
G75*
G02*
X201650000Y-68650001I0J249999D01*
G01*
G37*
%TD*%
%TO.C,C33*%
G36*
G01*
X190400000Y-68650001D02*
X190400000Y-67349999D01*
G75*
G02*
X190649999Y-67100000I249999J0D01*
G01*
X191300001Y-67100000D01*
G75*
G02*
X191550000Y-67349999I0J-249999D01*
G01*
X191550000Y-68650001D01*
G75*
G02*
X191300001Y-68900000I-249999J0D01*
G01*
X190649999Y-68900000D01*
G75*
G02*
X190400000Y-68650001I0J249999D01*
G01*
G37*
G36*
G01*
X187450000Y-68650001D02*
X187450000Y-67349999D01*
G75*
G02*
X187699999Y-67100000I249999J0D01*
G01*
X188350001Y-67100000D01*
G75*
G02*
X188600000Y-67349999I0J-249999D01*
G01*
X188600000Y-68650001D01*
G75*
G02*
X188350001Y-68900000I-249999J0D01*
G01*
X187699999Y-68900000D01*
G75*
G02*
X187450000Y-68650001I0J249999D01*
G01*
G37*
%TD*%
%TO.C,C34*%
G36*
G01*
X175950000Y-68650001D02*
X175950000Y-67349999D01*
G75*
G02*
X176199999Y-67100000I249999J0D01*
G01*
X176850001Y-67100000D01*
G75*
G02*
X177100000Y-67349999I0J-249999D01*
G01*
X177100000Y-68650001D01*
G75*
G02*
X176850001Y-68900000I-249999J0D01*
G01*
X176199999Y-68900000D01*
G75*
G02*
X175950000Y-68650001I0J249999D01*
G01*
G37*
G36*
G01*
X178900000Y-68650001D02*
X178900000Y-67349999D01*
G75*
G02*
X179149999Y-67100000I249999J0D01*
G01*
X179800001Y-67100000D01*
G75*
G02*
X180050000Y-67349999I0J-249999D01*
G01*
X180050000Y-68650001D01*
G75*
G02*
X179800001Y-68900000I-249999J0D01*
G01*
X179149999Y-68900000D01*
G75*
G02*
X178900000Y-68650001I0J249999D01*
G01*
G37*
%TD*%
%TO.C,C35*%
G36*
G01*
X103850000Y-58919999D02*
X103850000Y-60220001D01*
G75*
G02*
X103600001Y-60470000I-249999J0D01*
G01*
X102949999Y-60470000D01*
G75*
G02*
X102700000Y-60220001I0J249999D01*
G01*
X102700000Y-58919999D01*
G75*
G02*
X102949999Y-58670000I249999J0D01*
G01*
X103600001Y-58670000D01*
G75*
G02*
X103850000Y-58919999I0J-249999D01*
G01*
G37*
G36*
G01*
X106800000Y-58919999D02*
X106800000Y-60220001D01*
G75*
G02*
X106550001Y-60470000I-249999J0D01*
G01*
X105899999Y-60470000D01*
G75*
G02*
X105650000Y-60220001I0J249999D01*
G01*
X105650000Y-58919999D01*
G75*
G02*
X105899999Y-58670000I249999J0D01*
G01*
X106550001Y-58670000D01*
G75*
G02*
X106800000Y-58919999I0J-249999D01*
G01*
G37*
%TD*%
%TO.C,C36*%
G36*
G01*
X109290000Y-44819999D02*
X109290000Y-46120001D01*
G75*
G02*
X109040001Y-46370000I-249999J0D01*
G01*
X108389999Y-46370000D01*
G75*
G02*
X108140000Y-46120001I0J249999D01*
G01*
X108140000Y-44819999D01*
G75*
G02*
X108389999Y-44570000I249999J0D01*
G01*
X109040001Y-44570000D01*
G75*
G02*
X109290000Y-44819999I0J-249999D01*
G01*
G37*
G36*
G01*
X106340000Y-44819999D02*
X106340000Y-46120001D01*
G75*
G02*
X106090001Y-46370000I-249999J0D01*
G01*
X105439999Y-46370000D01*
G75*
G02*
X105190000Y-46120001I0J249999D01*
G01*
X105190000Y-44819999D01*
G75*
G02*
X105439999Y-44570000I249999J0D01*
G01*
X106090001Y-44570000D01*
G75*
G02*
X106340000Y-44819999I0J-249999D01*
G01*
G37*
%TD*%
%TO.C,C37*%
G36*
G01*
X182950001Y-128560000D02*
X181649999Y-128560000D01*
G75*
G02*
X181400000Y-128310001I0J249999D01*
G01*
X181400000Y-127659999D01*
G75*
G02*
X181649999Y-127410000I249999J0D01*
G01*
X182950001Y-127410000D01*
G75*
G02*
X183200000Y-127659999I0J-249999D01*
G01*
X183200000Y-128310001D01*
G75*
G02*
X182950001Y-128560000I-249999J0D01*
G01*
G37*
G36*
G01*
X182950001Y-131510000D02*
X181649999Y-131510000D01*
G75*
G02*
X181400000Y-131260001I0J249999D01*
G01*
X181400000Y-130609999D01*
G75*
G02*
X181649999Y-130360000I249999J0D01*
G01*
X182950001Y-130360000D01*
G75*
G02*
X183200000Y-130609999I0J-249999D01*
G01*
X183200000Y-131260001D01*
G75*
G02*
X182950001Y-131510000I-249999J0D01*
G01*
G37*
%TD*%
%TO.C,C41*%
G36*
G01*
X182840001Y-118970000D02*
X181539999Y-118970000D01*
G75*
G02*
X181290000Y-118720001I0J249999D01*
G01*
X181290000Y-118069999D01*
G75*
G02*
X181539999Y-117820000I249999J0D01*
G01*
X182840001Y-117820000D01*
G75*
G02*
X183090000Y-118069999I0J-249999D01*
G01*
X183090000Y-118720001D01*
G75*
G02*
X182840001Y-118970000I-249999J0D01*
G01*
G37*
G36*
G01*
X182840001Y-116020000D02*
X181539999Y-116020000D01*
G75*
G02*
X181290000Y-115770001I0J249999D01*
G01*
X181290000Y-115119999D01*
G75*
G02*
X181539999Y-114870000I249999J0D01*
G01*
X182840001Y-114870000D01*
G75*
G02*
X183090000Y-115119999I0J-249999D01*
G01*
X183090000Y-115770001D01*
G75*
G02*
X182840001Y-116020000I-249999J0D01*
G01*
G37*
%TD*%
%TO.C,C42*%
G36*
G01*
X181569999Y-105620000D02*
X182870001Y-105620000D01*
G75*
G02*
X183120000Y-105869999I0J-249999D01*
G01*
X183120000Y-106520001D01*
G75*
G02*
X182870001Y-106770000I-249999J0D01*
G01*
X181569999Y-106770000D01*
G75*
G02*
X181320000Y-106520001I0J249999D01*
G01*
X181320000Y-105869999D01*
G75*
G02*
X181569999Y-105620000I249999J0D01*
G01*
G37*
G36*
G01*
X181569999Y-102670000D02*
X182870001Y-102670000D01*
G75*
G02*
X183120000Y-102919999I0J-249999D01*
G01*
X183120000Y-103570001D01*
G75*
G02*
X182870001Y-103820000I-249999J0D01*
G01*
X181569999Y-103820000D01*
G75*
G02*
X181320000Y-103570001I0J249999D01*
G01*
X181320000Y-102919999D01*
G75*
G02*
X181569999Y-102670000I249999J0D01*
G01*
G37*
%TD*%
%TO.C,C43*%
G36*
G01*
X183050000Y-96850001D02*
X183050000Y-95549999D01*
G75*
G02*
X183299999Y-95300000I249999J0D01*
G01*
X183950001Y-95300000D01*
G75*
G02*
X184200000Y-95549999I0J-249999D01*
G01*
X184200000Y-96850001D01*
G75*
G02*
X183950001Y-97100000I-249999J0D01*
G01*
X183299999Y-97100000D01*
G75*
G02*
X183050000Y-96850001I0J249999D01*
G01*
G37*
G36*
G01*
X186000000Y-96850001D02*
X186000000Y-95549999D01*
G75*
G02*
X186249999Y-95300000I249999J0D01*
G01*
X186900001Y-95300000D01*
G75*
G02*
X187150000Y-95549999I0J-249999D01*
G01*
X187150000Y-96850001D01*
G75*
G02*
X186900001Y-97100000I-249999J0D01*
G01*
X186249999Y-97100000D01*
G75*
G02*
X186000000Y-96850001I0J249999D01*
G01*
G37*
%TD*%
%TO.C,C44*%
G36*
G01*
X208070001Y-97970000D02*
X206769999Y-97970000D01*
G75*
G02*
X206520000Y-97720001I0J249999D01*
G01*
X206520000Y-97069999D01*
G75*
G02*
X206769999Y-96820000I249999J0D01*
G01*
X208070001Y-96820000D01*
G75*
G02*
X208320000Y-97069999I0J-249999D01*
G01*
X208320000Y-97720001D01*
G75*
G02*
X208070001Y-97970000I-249999J0D01*
G01*
G37*
G36*
G01*
X208070001Y-100920000D02*
X206769999Y-100920000D01*
G75*
G02*
X206520000Y-100670001I0J249999D01*
G01*
X206520000Y-100019999D01*
G75*
G02*
X206769999Y-99770000I249999J0D01*
G01*
X208070001Y-99770000D01*
G75*
G02*
X208320000Y-100019999I0J-249999D01*
G01*
X208320000Y-100670001D01*
G75*
G02*
X208070001Y-100920000I-249999J0D01*
G01*
G37*
%TD*%
%TO.C,C45*%
G36*
G01*
X140700001Y-120640000D02*
X139399999Y-120640000D01*
G75*
G02*
X139150000Y-120390001I0J249999D01*
G01*
X139150000Y-119739999D01*
G75*
G02*
X139399999Y-119490000I249999J0D01*
G01*
X140700001Y-119490000D01*
G75*
G02*
X140950000Y-119739999I0J-249999D01*
G01*
X140950000Y-120390001D01*
G75*
G02*
X140700001Y-120640000I-249999J0D01*
G01*
G37*
G36*
G01*
X140700001Y-117690000D02*
X139399999Y-117690000D01*
G75*
G02*
X139150000Y-117440001I0J249999D01*
G01*
X139150000Y-116789999D01*
G75*
G02*
X139399999Y-116540000I249999J0D01*
G01*
X140700001Y-116540000D01*
G75*
G02*
X140950000Y-116789999I0J-249999D01*
G01*
X140950000Y-117440001D01*
G75*
G02*
X140700001Y-117690000I-249999J0D01*
G01*
G37*
%TD*%
%TO.C,C46*%
G36*
G01*
X180960001Y-111170000D02*
X179659999Y-111170000D01*
G75*
G02*
X179410000Y-110920001I0J249999D01*
G01*
X179410000Y-110269999D01*
G75*
G02*
X179659999Y-110020000I249999J0D01*
G01*
X180960001Y-110020000D01*
G75*
G02*
X181210000Y-110269999I0J-249999D01*
G01*
X181210000Y-110920001D01*
G75*
G02*
X180960001Y-111170000I-249999J0D01*
G01*
G37*
G36*
G01*
X180960001Y-114120000D02*
X179659999Y-114120000D01*
G75*
G02*
X179410000Y-113870001I0J249999D01*
G01*
X179410000Y-113219999D01*
G75*
G02*
X179659999Y-112970000I249999J0D01*
G01*
X180960001Y-112970000D01*
G75*
G02*
X181210000Y-113219999I0J-249999D01*
G01*
X181210000Y-113870001D01*
G75*
G02*
X180960001Y-114120000I-249999J0D01*
G01*
G37*
%TD*%
%TO.C,R11*%
G36*
G01*
X139374997Y-110905000D02*
X140625003Y-110905000D01*
G75*
G02*
X140875000Y-111154997I0J-249997D01*
G01*
X140875000Y-111780003D01*
G75*
G02*
X140625003Y-112030000I-249997J0D01*
G01*
X139374997Y-112030000D01*
G75*
G02*
X139125000Y-111780003I0J249997D01*
G01*
X139125000Y-111154997D01*
G75*
G02*
X139374997Y-110905000I249997J0D01*
G01*
G37*
G36*
G01*
X139374997Y-113830000D02*
X140625003Y-113830000D01*
G75*
G02*
X140875000Y-114079997I0J-249997D01*
G01*
X140875000Y-114705003D01*
G75*
G02*
X140625003Y-114955000I-249997J0D01*
G01*
X139374997Y-114955000D01*
G75*
G02*
X139125000Y-114705003I0J249997D01*
G01*
X139125000Y-114079997D01*
G75*
G02*
X139374997Y-113830000I249997J0D01*
G01*
G37*
%TD*%
%TO.C,R12*%
G36*
G01*
X176095003Y-88215000D02*
X174844997Y-88215000D01*
G75*
G02*
X174595000Y-87965003I0J249997D01*
G01*
X174595000Y-87339997D01*
G75*
G02*
X174844997Y-87090000I249997J0D01*
G01*
X176095003Y-87090000D01*
G75*
G02*
X176345000Y-87339997I0J-249997D01*
G01*
X176345000Y-87965003D01*
G75*
G02*
X176095003Y-88215000I-249997J0D01*
G01*
G37*
G36*
G01*
X176095003Y-85290000D02*
X174844997Y-85290000D01*
G75*
G02*
X174595000Y-85040003I0J249997D01*
G01*
X174595000Y-84414997D01*
G75*
G02*
X174844997Y-84165000I249997J0D01*
G01*
X176095003Y-84165000D01*
G75*
G02*
X176345000Y-84414997I0J-249997D01*
G01*
X176345000Y-85040003D01*
G75*
G02*
X176095003Y-85290000I-249997J0D01*
G01*
G37*
%TD*%
%TO.C,R13*%
G36*
G01*
X102684997Y-104400000D02*
X103935003Y-104400000D01*
G75*
G02*
X104185000Y-104649997I0J-249997D01*
G01*
X104185000Y-105275003D01*
G75*
G02*
X103935003Y-105525000I-249997J0D01*
G01*
X102684997Y-105525000D01*
G75*
G02*
X102435000Y-105275003I0J249997D01*
G01*
X102435000Y-104649997D01*
G75*
G02*
X102684997Y-104400000I249997J0D01*
G01*
G37*
G36*
G01*
X102684997Y-101475000D02*
X103935003Y-101475000D01*
G75*
G02*
X104185000Y-101724997I0J-249997D01*
G01*
X104185000Y-102350003D01*
G75*
G02*
X103935003Y-102600000I-249997J0D01*
G01*
X102684997Y-102600000D01*
G75*
G02*
X102435000Y-102350003I0J249997D01*
G01*
X102435000Y-101724997D01*
G75*
G02*
X102684997Y-101475000I249997J0D01*
G01*
G37*
%TD*%
%TO.C,R14*%
G36*
G01*
X103935003Y-111865000D02*
X102684997Y-111865000D01*
G75*
G02*
X102435000Y-111615003I0J249997D01*
G01*
X102435000Y-110989997D01*
G75*
G02*
X102684997Y-110740000I249997J0D01*
G01*
X103935003Y-110740000D01*
G75*
G02*
X104185000Y-110989997I0J-249997D01*
G01*
X104185000Y-111615003D01*
G75*
G02*
X103935003Y-111865000I-249997J0D01*
G01*
G37*
G36*
G01*
X103935003Y-108940000D02*
X102684997Y-108940000D01*
G75*
G02*
X102435000Y-108690003I0J249997D01*
G01*
X102435000Y-108064997D01*
G75*
G02*
X102684997Y-107815000I249997J0D01*
G01*
X103935003Y-107815000D01*
G75*
G02*
X104185000Y-108064997I0J-249997D01*
G01*
X104185000Y-108690003D01*
G75*
G02*
X103935003Y-108940000I-249997J0D01*
G01*
G37*
%TD*%
%TO.C,R15*%
G36*
G01*
X139424997Y-91170000D02*
X140675003Y-91170000D01*
G75*
G02*
X140925000Y-91419997I0J-249997D01*
G01*
X140925000Y-92045003D01*
G75*
G02*
X140675003Y-92295000I-249997J0D01*
G01*
X139424997Y-92295000D01*
G75*
G02*
X139175000Y-92045003I0J249997D01*
G01*
X139175000Y-91419997D01*
G75*
G02*
X139424997Y-91170000I249997J0D01*
G01*
G37*
G36*
G01*
X139424997Y-88245000D02*
X140675003Y-88245000D01*
G75*
G02*
X140925000Y-88494997I0J-249997D01*
G01*
X140925000Y-89120003D01*
G75*
G02*
X140675003Y-89370000I-249997J0D01*
G01*
X139424997Y-89370000D01*
G75*
G02*
X139175000Y-89120003I0J249997D01*
G01*
X139175000Y-88494997D01*
G75*
G02*
X139424997Y-88245000I249997J0D01*
G01*
G37*
%TD*%
%TO.C,R16*%
G36*
G01*
X209425000Y-77304997D02*
X209425000Y-78555003D01*
G75*
G02*
X209175003Y-78805000I-249997J0D01*
G01*
X208549997Y-78805000D01*
G75*
G02*
X208300000Y-78555003I0J249997D01*
G01*
X208300000Y-77304997D01*
G75*
G02*
X208549997Y-77055000I249997J0D01*
G01*
X209175003Y-77055000D01*
G75*
G02*
X209425000Y-77304997I0J-249997D01*
G01*
G37*
G36*
G01*
X206500000Y-77304997D02*
X206500000Y-78555003D01*
G75*
G02*
X206250003Y-78805000I-249997J0D01*
G01*
X205624997Y-78805000D01*
G75*
G02*
X205375000Y-78555003I0J249997D01*
G01*
X205375000Y-77304997D01*
G75*
G02*
X205624997Y-77055000I249997J0D01*
G01*
X206250003Y-77055000D01*
G75*
G02*
X206500000Y-77304997I0J-249997D01*
G01*
G37*
%TD*%
%TO.C,R17*%
G36*
G01*
X206480000Y-81194997D02*
X206480000Y-82445003D01*
G75*
G02*
X206230003Y-82695000I-249997J0D01*
G01*
X205604997Y-82695000D01*
G75*
G02*
X205355000Y-82445003I0J249997D01*
G01*
X205355000Y-81194997D01*
G75*
G02*
X205604997Y-80945000I249997J0D01*
G01*
X206230003Y-80945000D01*
G75*
G02*
X206480000Y-81194997I0J-249997D01*
G01*
G37*
G36*
G01*
X209405000Y-81194997D02*
X209405000Y-82445003D01*
G75*
G02*
X209155003Y-82695000I-249997J0D01*
G01*
X208529997Y-82695000D01*
G75*
G02*
X208280000Y-82445003I0J249997D01*
G01*
X208280000Y-81194997D01*
G75*
G02*
X208529997Y-80945000I249997J0D01*
G01*
X209155003Y-80945000D01*
G75*
G02*
X209405000Y-81194997I0J-249997D01*
G01*
G37*
%TD*%
%TO.C,R31*%
G36*
G01*
X157545003Y-55155000D02*
X156294997Y-55155000D01*
G75*
G02*
X156045000Y-54905003I0J249997D01*
G01*
X156045000Y-54279997D01*
G75*
G02*
X156294997Y-54030000I249997J0D01*
G01*
X157545003Y-54030000D01*
G75*
G02*
X157795000Y-54279997I0J-249997D01*
G01*
X157795000Y-54905003D01*
G75*
G02*
X157545003Y-55155000I-249997J0D01*
G01*
G37*
G36*
G01*
X157545003Y-52230000D02*
X156294997Y-52230000D01*
G75*
G02*
X156045000Y-51980003I0J249997D01*
G01*
X156045000Y-51354997D01*
G75*
G02*
X156294997Y-51105000I249997J0D01*
G01*
X157545003Y-51105000D01*
G75*
G02*
X157795000Y-51354997I0J-249997D01*
G01*
X157795000Y-51980003D01*
G75*
G02*
X157545003Y-52230000I-249997J0D01*
G01*
G37*
%TD*%
%TO.C,R32*%
G36*
G01*
X164320000Y-57904997D02*
X164320000Y-59155003D01*
G75*
G02*
X164070003Y-59405000I-249997J0D01*
G01*
X163444997Y-59405000D01*
G75*
G02*
X163195000Y-59155003I0J249997D01*
G01*
X163195000Y-57904997D01*
G75*
G02*
X163444997Y-57655000I249997J0D01*
G01*
X164070003Y-57655000D01*
G75*
G02*
X164320000Y-57904997I0J-249997D01*
G01*
G37*
G36*
G01*
X167245000Y-57904997D02*
X167245000Y-59155003D01*
G75*
G02*
X166995003Y-59405000I-249997J0D01*
G01*
X166369997Y-59405000D01*
G75*
G02*
X166120000Y-59155003I0J249997D01*
G01*
X166120000Y-57904997D01*
G75*
G02*
X166369997Y-57655000I249997J0D01*
G01*
X166995003Y-57655000D01*
G75*
G02*
X167245000Y-57904997I0J-249997D01*
G01*
G37*
%TD*%
%TO.C,R33*%
G36*
G01*
X173775000Y-57904997D02*
X173775000Y-59155003D01*
G75*
G02*
X173525003Y-59405000I-249997J0D01*
G01*
X172899997Y-59405000D01*
G75*
G02*
X172650000Y-59155003I0J249997D01*
G01*
X172650000Y-57904997D01*
G75*
G02*
X172899997Y-57655000I249997J0D01*
G01*
X173525003Y-57655000D01*
G75*
G02*
X173775000Y-57904997I0J-249997D01*
G01*
G37*
G36*
G01*
X170850000Y-57904997D02*
X170850000Y-59155003D01*
G75*
G02*
X170600003Y-59405000I-249997J0D01*
G01*
X169974997Y-59405000D01*
G75*
G02*
X169725000Y-59155003I0J249997D01*
G01*
X169725000Y-57904997D01*
G75*
G02*
X169974997Y-57655000I249997J0D01*
G01*
X170600003Y-57655000D01*
G75*
G02*
X170850000Y-57904997I0J-249997D01*
G01*
G37*
%TD*%
%TO.C,R34*%
G36*
G01*
X156740000Y-39724997D02*
X156740000Y-40975003D01*
G75*
G02*
X156490003Y-41225000I-249997J0D01*
G01*
X155864997Y-41225000D01*
G75*
G02*
X155615000Y-40975003I0J249997D01*
G01*
X155615000Y-39724997D01*
G75*
G02*
X155864997Y-39475000I249997J0D01*
G01*
X156490003Y-39475000D01*
G75*
G02*
X156740000Y-39724997I0J-249997D01*
G01*
G37*
G36*
G01*
X159665000Y-39724997D02*
X159665000Y-40975003D01*
G75*
G02*
X159415003Y-41225000I-249997J0D01*
G01*
X158789997Y-41225000D01*
G75*
G02*
X158540000Y-40975003I0J249997D01*
G01*
X158540000Y-39724997D01*
G75*
G02*
X158789997Y-39475000I249997J0D01*
G01*
X159415003Y-39475000D01*
G75*
G02*
X159665000Y-39724997I0J-249997D01*
G01*
G37*
%TD*%
%TO.C,R35*%
G36*
G01*
X124770000Y-41035003D02*
X124770000Y-39784997D01*
G75*
G02*
X125019997Y-39535000I249997J0D01*
G01*
X125645003Y-39535000D01*
G75*
G02*
X125895000Y-39784997I0J-249997D01*
G01*
X125895000Y-41035003D01*
G75*
G02*
X125645003Y-41285000I-249997J0D01*
G01*
X125019997Y-41285000D01*
G75*
G02*
X124770000Y-41035003I0J249997D01*
G01*
G37*
G36*
G01*
X121845000Y-41035003D02*
X121845000Y-39784997D01*
G75*
G02*
X122094997Y-39535000I249997J0D01*
G01*
X122720003Y-39535000D01*
G75*
G02*
X122970000Y-39784997I0J-249997D01*
G01*
X122970000Y-41035003D01*
G75*
G02*
X122720003Y-41285000I-249997J0D01*
G01*
X122094997Y-41285000D01*
G75*
G02*
X121845000Y-41035003I0J249997D01*
G01*
G37*
%TD*%
%TO.C,R36*%
G36*
G01*
X124095000Y-58205003D02*
X124095000Y-56954997D01*
G75*
G02*
X124344997Y-56705000I249997J0D01*
G01*
X124970003Y-56705000D01*
G75*
G02*
X125220000Y-56954997I0J-249997D01*
G01*
X125220000Y-58205003D01*
G75*
G02*
X124970003Y-58455000I-249997J0D01*
G01*
X124344997Y-58455000D01*
G75*
G02*
X124095000Y-58205003I0J249997D01*
G01*
G37*
G36*
G01*
X127020000Y-58205003D02*
X127020000Y-56954997D01*
G75*
G02*
X127269997Y-56705000I249997J0D01*
G01*
X127895003Y-56705000D01*
G75*
G02*
X128145000Y-56954997I0J-249997D01*
G01*
X128145000Y-58205003D01*
G75*
G02*
X127895003Y-58455000I-249997J0D01*
G01*
X127269997Y-58455000D01*
G75*
G02*
X127020000Y-58205003I0J249997D01*
G01*
G37*
%TD*%
%TO.C,R37*%
G36*
G01*
X100775003Y-47830000D02*
X99524997Y-47830000D01*
G75*
G02*
X99275000Y-47580003I0J249997D01*
G01*
X99275000Y-46954997D01*
G75*
G02*
X99524997Y-46705000I249997J0D01*
G01*
X100775003Y-46705000D01*
G75*
G02*
X101025000Y-46954997I0J-249997D01*
G01*
X101025000Y-47580003D01*
G75*
G02*
X100775003Y-47830000I-249997J0D01*
G01*
G37*
G36*
G01*
X100775003Y-50755000D02*
X99524997Y-50755000D01*
G75*
G02*
X99275000Y-50505003I0J249997D01*
G01*
X99275000Y-49879997D01*
G75*
G02*
X99524997Y-49630000I249997J0D01*
G01*
X100775003Y-49630000D01*
G75*
G02*
X101025000Y-49879997I0J-249997D01*
G01*
X101025000Y-50505003D01*
G75*
G02*
X100775003Y-50755000I-249997J0D01*
G01*
G37*
%TD*%
%TO.C,R38*%
G36*
G01*
X99544997Y-51745000D02*
X100795003Y-51745000D01*
G75*
G02*
X101045000Y-51994997I0J-249997D01*
G01*
X101045000Y-52620003D01*
G75*
G02*
X100795003Y-52870000I-249997J0D01*
G01*
X99544997Y-52870000D01*
G75*
G02*
X99295000Y-52620003I0J249997D01*
G01*
X99295000Y-51994997D01*
G75*
G02*
X99544997Y-51745000I249997J0D01*
G01*
G37*
G36*
G01*
X99544997Y-54670000D02*
X100795003Y-54670000D01*
G75*
G02*
X101045000Y-54919997I0J-249997D01*
G01*
X101045000Y-55545003D01*
G75*
G02*
X100795003Y-55795000I-249997J0D01*
G01*
X99544997Y-55795000D01*
G75*
G02*
X99295000Y-55545003I0J249997D01*
G01*
X99295000Y-54919997D01*
G75*
G02*
X99544997Y-54670000I249997J0D01*
G01*
G37*
%TD*%
%TO.C,R39*%
G36*
G01*
X133090000Y-58175003D02*
X133090000Y-56924997D01*
G75*
G02*
X133339997Y-56675000I249997J0D01*
G01*
X133965003Y-56675000D01*
G75*
G02*
X134215000Y-56924997I0J-249997D01*
G01*
X134215000Y-58175003D01*
G75*
G02*
X133965003Y-58425000I-249997J0D01*
G01*
X133339997Y-58425000D01*
G75*
G02*
X133090000Y-58175003I0J249997D01*
G01*
G37*
G36*
G01*
X130165000Y-58175003D02*
X130165000Y-56924997D01*
G75*
G02*
X130414997Y-56675000I249997J0D01*
G01*
X131040003Y-56675000D01*
G75*
G02*
X131290000Y-56924997I0J-249997D01*
G01*
X131290000Y-58175003D01*
G75*
G02*
X131040003Y-58425000I-249997J0D01*
G01*
X130414997Y-58425000D01*
G75*
G02*
X130165000Y-58175003I0J249997D01*
G01*
G37*
%TD*%
%TO.C,R41*%
G36*
G01*
X135244997Y-126815000D02*
X136495003Y-126815000D01*
G75*
G02*
X136745000Y-127064997I0J-249997D01*
G01*
X136745000Y-127690003D01*
G75*
G02*
X136495003Y-127940000I-249997J0D01*
G01*
X135244997Y-127940000D01*
G75*
G02*
X134995000Y-127690003I0J249997D01*
G01*
X134995000Y-127064997D01*
G75*
G02*
X135244997Y-126815000I249997J0D01*
G01*
G37*
G36*
G01*
X135244997Y-129740000D02*
X136495003Y-129740000D01*
G75*
G02*
X136745000Y-129989997I0J-249997D01*
G01*
X136745000Y-130615003D01*
G75*
G02*
X136495003Y-130865000I-249997J0D01*
G01*
X135244997Y-130865000D01*
G75*
G02*
X134995000Y-130615003I0J249997D01*
G01*
X134995000Y-129989997D01*
G75*
G02*
X135244997Y-129740000I249997J0D01*
G01*
G37*
%TD*%
%TO.C,R42*%
G36*
G01*
X95437500Y-137985003D02*
X95437500Y-136734997D01*
G75*
G02*
X95687497Y-136485000I249997J0D01*
G01*
X96312503Y-136485000D01*
G75*
G02*
X96562500Y-136734997I0J-249997D01*
G01*
X96562500Y-137985003D01*
G75*
G02*
X96312503Y-138235000I-249997J0D01*
G01*
X95687497Y-138235000D01*
G75*
G02*
X95437500Y-137985003I0J249997D01*
G01*
G37*
G36*
G01*
X92512500Y-137985003D02*
X92512500Y-136734997D01*
G75*
G02*
X92762497Y-136485000I249997J0D01*
G01*
X93387503Y-136485000D01*
G75*
G02*
X93637500Y-136734997I0J-249997D01*
G01*
X93637500Y-137985003D01*
G75*
G02*
X93387503Y-138235000I-249997J0D01*
G01*
X92762497Y-138235000D01*
G75*
G02*
X92512500Y-137985003I0J249997D01*
G01*
G37*
%TD*%
%TO.C,R43*%
G36*
G01*
X100600000Y-136774997D02*
X100600000Y-138025003D01*
G75*
G02*
X100350003Y-138275000I-249997J0D01*
G01*
X99724997Y-138275000D01*
G75*
G02*
X99475000Y-138025003I0J249997D01*
G01*
X99475000Y-136774997D01*
G75*
G02*
X99724997Y-136525000I249997J0D01*
G01*
X100350003Y-136525000D01*
G75*
G02*
X100600000Y-136774997I0J-249997D01*
G01*
G37*
G36*
G01*
X103525000Y-136774997D02*
X103525000Y-138025003D01*
G75*
G02*
X103275003Y-138275000I-249997J0D01*
G01*
X102649997Y-138275000D01*
G75*
G02*
X102400000Y-138025003I0J249997D01*
G01*
X102400000Y-136774997D01*
G75*
G02*
X102649997Y-136525000I249997J0D01*
G01*
X103275003Y-136525000D01*
G75*
G02*
X103525000Y-136774997I0J-249997D01*
G01*
G37*
%TD*%
%TO.C,R44*%
G36*
G01*
X104037500Y-124624997D02*
X104037500Y-125875003D01*
G75*
G02*
X103787503Y-126125000I-249997J0D01*
G01*
X103162497Y-126125000D01*
G75*
G02*
X102912500Y-125875003I0J249997D01*
G01*
X102912500Y-124624997D01*
G75*
G02*
X103162497Y-124375000I249997J0D01*
G01*
X103787503Y-124375000D01*
G75*
G02*
X104037500Y-124624997I0J-249997D01*
G01*
G37*
G36*
G01*
X101112500Y-124624997D02*
X101112500Y-125875003D01*
G75*
G02*
X100862503Y-126125000I-249997J0D01*
G01*
X100237497Y-126125000D01*
G75*
G02*
X99987500Y-125875003I0J249997D01*
G01*
X99987500Y-124624997D01*
G75*
G02*
X100237497Y-124375000I249997J0D01*
G01*
X100862503Y-124375000D01*
G75*
G02*
X101112500Y-124624997I0J-249997D01*
G01*
G37*
%TD*%
%TO.C,R45*%
G36*
G01*
X94345000Y-125855003D02*
X94345000Y-124604997D01*
G75*
G02*
X94594997Y-124355000I249997J0D01*
G01*
X95220003Y-124355000D01*
G75*
G02*
X95470000Y-124604997I0J-249997D01*
G01*
X95470000Y-125855003D01*
G75*
G02*
X95220003Y-126105000I-249997J0D01*
G01*
X94594997Y-126105000D01*
G75*
G02*
X94345000Y-125855003I0J249997D01*
G01*
G37*
G36*
G01*
X97270000Y-125855003D02*
X97270000Y-124604997D01*
G75*
G02*
X97519997Y-124355000I249997J0D01*
G01*
X98145003Y-124355000D01*
G75*
G02*
X98395000Y-124604997I0J-249997D01*
G01*
X98395000Y-125855003D01*
G75*
G02*
X98145003Y-126105000I-249997J0D01*
G01*
X97519997Y-126105000D01*
G75*
G02*
X97270000Y-125855003I0J249997D01*
G01*
G37*
%TD*%
%TO.C,R46*%
G36*
G01*
X180975003Y-126425000D02*
X179724997Y-126425000D01*
G75*
G02*
X179475000Y-126175003I0J249997D01*
G01*
X179475000Y-125549997D01*
G75*
G02*
X179724997Y-125300000I249997J0D01*
G01*
X180975003Y-125300000D01*
G75*
G02*
X181225000Y-125549997I0J-249997D01*
G01*
X181225000Y-126175003D01*
G75*
G02*
X180975003Y-126425000I-249997J0D01*
G01*
G37*
G36*
G01*
X180975003Y-123500000D02*
X179724997Y-123500000D01*
G75*
G02*
X179475000Y-123250003I0J249997D01*
G01*
X179475000Y-122624997D01*
G75*
G02*
X179724997Y-122375000I249997J0D01*
G01*
X180975003Y-122375000D01*
G75*
G02*
X181225000Y-122624997I0J-249997D01*
G01*
X181225000Y-123250003D01*
G75*
G02*
X180975003Y-123500000I-249997J0D01*
G01*
G37*
%TD*%
%TO.C,R47*%
G36*
G01*
X160300000Y-59155003D02*
X160300000Y-57904997D01*
G75*
G02*
X160549997Y-57655000I249997J0D01*
G01*
X161175003Y-57655000D01*
G75*
G02*
X161425000Y-57904997I0J-249997D01*
G01*
X161425000Y-59155003D01*
G75*
G02*
X161175003Y-59405000I-249997J0D01*
G01*
X160549997Y-59405000D01*
G75*
G02*
X160300000Y-59155003I0J249997D01*
G01*
G37*
G36*
G01*
X157375000Y-59155003D02*
X157375000Y-57904997D01*
G75*
G02*
X157624997Y-57655000I249997J0D01*
G01*
X158250003Y-57655000D01*
G75*
G02*
X158500000Y-57904997I0J-249997D01*
G01*
X158500000Y-59155003D01*
G75*
G02*
X158250003Y-59405000I-249997J0D01*
G01*
X157624997Y-59405000D01*
G75*
G02*
X157375000Y-59155003I0J249997D01*
G01*
G37*
%TD*%
%TO.C,R48*%
G36*
G01*
X209415000Y-108484997D02*
X209415000Y-109735003D01*
G75*
G02*
X209165003Y-109985000I-249997J0D01*
G01*
X208539997Y-109985000D01*
G75*
G02*
X208290000Y-109735003I0J249997D01*
G01*
X208290000Y-108484997D01*
G75*
G02*
X208539997Y-108235000I249997J0D01*
G01*
X209165003Y-108235000D01*
G75*
G02*
X209415000Y-108484997I0J-249997D01*
G01*
G37*
G36*
G01*
X206490000Y-108484997D02*
X206490000Y-109735003D01*
G75*
G02*
X206240003Y-109985000I-249997J0D01*
G01*
X205614997Y-109985000D01*
G75*
G02*
X205365000Y-109735003I0J249997D01*
G01*
X205365000Y-108484997D01*
G75*
G02*
X205614997Y-108235000I249997J0D01*
G01*
X206240003Y-108235000D01*
G75*
G02*
X206490000Y-108484997I0J-249997D01*
G01*
G37*
%TD*%
%TO.C,R49*%
G36*
G01*
X121695000Y-137335003D02*
X121695000Y-136084997D01*
G75*
G02*
X121944997Y-135835000I249997J0D01*
G01*
X122570003Y-135835000D01*
G75*
G02*
X122820000Y-136084997I0J-249997D01*
G01*
X122820000Y-137335003D01*
G75*
G02*
X122570003Y-137585000I-249997J0D01*
G01*
X121944997Y-137585000D01*
G75*
G02*
X121695000Y-137335003I0J249997D01*
G01*
G37*
G36*
G01*
X124620000Y-137335003D02*
X124620000Y-136084997D01*
G75*
G02*
X124869997Y-135835000I249997J0D01*
G01*
X125495003Y-135835000D01*
G75*
G02*
X125745000Y-136084997I0J-249997D01*
G01*
X125745000Y-137335003D01*
G75*
G02*
X125495003Y-137585000I-249997J0D01*
G01*
X124869997Y-137585000D01*
G75*
G02*
X124620000Y-137335003I0J249997D01*
G01*
G37*
%TD*%
%TO.C,R50*%
G36*
G01*
X144720000Y-102215003D02*
X144720000Y-100964997D01*
G75*
G02*
X144969997Y-100715000I249997J0D01*
G01*
X145595003Y-100715000D01*
G75*
G02*
X145845000Y-100964997I0J-249997D01*
G01*
X145845000Y-102215003D01*
G75*
G02*
X145595003Y-102465000I-249997J0D01*
G01*
X144969997Y-102465000D01*
G75*
G02*
X144720000Y-102215003I0J249997D01*
G01*
G37*
G36*
G01*
X141795000Y-102215003D02*
X141795000Y-100964997D01*
G75*
G02*
X142044997Y-100715000I249997J0D01*
G01*
X142670003Y-100715000D01*
G75*
G02*
X142920000Y-100964997I0J-249997D01*
G01*
X142920000Y-102215003D01*
G75*
G02*
X142670003Y-102465000I-249997J0D01*
G01*
X142044997Y-102465000D01*
G75*
G02*
X141795000Y-102215003I0J249997D01*
G01*
G37*
%TD*%
%TO.C,R110*%
G36*
G01*
X209435000Y-84934997D02*
X209435000Y-86185003D01*
G75*
G02*
X209185003Y-86435000I-249997J0D01*
G01*
X208559997Y-86435000D01*
G75*
G02*
X208310000Y-86185003I0J249997D01*
G01*
X208310000Y-84934997D01*
G75*
G02*
X208559997Y-84685000I249997J0D01*
G01*
X209185003Y-84685000D01*
G75*
G02*
X209435000Y-84934997I0J-249997D01*
G01*
G37*
G36*
G01*
X206510000Y-84934997D02*
X206510000Y-86185003D01*
G75*
G02*
X206260003Y-86435000I-249997J0D01*
G01*
X205634997Y-86435000D01*
G75*
G02*
X205385000Y-86185003I0J249997D01*
G01*
X205385000Y-84934997D01*
G75*
G02*
X205634997Y-84685000I249997J0D01*
G01*
X206260003Y-84685000D01*
G75*
G02*
X206510000Y-84934997I0J-249997D01*
G01*
G37*
%TD*%
%TO.C,R311*%
G36*
G01*
X168800000Y-142395003D02*
X168800000Y-141144997D01*
G75*
G02*
X169049997Y-140895000I249997J0D01*
G01*
X169675003Y-140895000D01*
G75*
G02*
X169925000Y-141144997I0J-249997D01*
G01*
X169925000Y-142395003D01*
G75*
G02*
X169675003Y-142645000I-249997J0D01*
G01*
X169049997Y-142645000D01*
G75*
G02*
X168800000Y-142395003I0J249997D01*
G01*
G37*
G36*
G01*
X165875000Y-142395003D02*
X165875000Y-141144997D01*
G75*
G02*
X166124997Y-140895000I249997J0D01*
G01*
X166750003Y-140895000D01*
G75*
G02*
X167000000Y-141144997I0J-249997D01*
G01*
X167000000Y-142395003D01*
G75*
G02*
X166750003Y-142645000I-249997J0D01*
G01*
X166124997Y-142645000D01*
G75*
G02*
X165875000Y-142395003I0J249997D01*
G01*
G37*
%TD*%
%TO.C,R312*%
G36*
G01*
X163060000Y-142415003D02*
X163060000Y-141164997D01*
G75*
G02*
X163309997Y-140915000I249997J0D01*
G01*
X163935003Y-140915000D01*
G75*
G02*
X164185000Y-141164997I0J-249997D01*
G01*
X164185000Y-142415003D01*
G75*
G02*
X163935003Y-142665000I-249997J0D01*
G01*
X163309997Y-142665000D01*
G75*
G02*
X163060000Y-142415003I0J249997D01*
G01*
G37*
G36*
G01*
X160135000Y-142415003D02*
X160135000Y-141164997D01*
G75*
G02*
X160384997Y-140915000I249997J0D01*
G01*
X161010003Y-140915000D01*
G75*
G02*
X161260000Y-141164997I0J-249997D01*
G01*
X161260000Y-142415003D01*
G75*
G02*
X161010003Y-142665000I-249997J0D01*
G01*
X160384997Y-142665000D01*
G75*
G02*
X160135000Y-142415003I0J249997D01*
G01*
G37*
%TD*%
%TO.C,R313*%
G36*
G01*
X157210000Y-142325003D02*
X157210000Y-141074997D01*
G75*
G02*
X157459997Y-140825000I249997J0D01*
G01*
X158085003Y-140825000D01*
G75*
G02*
X158335000Y-141074997I0J-249997D01*
G01*
X158335000Y-142325003D01*
G75*
G02*
X158085003Y-142575000I-249997J0D01*
G01*
X157459997Y-142575000D01*
G75*
G02*
X157210000Y-142325003I0J249997D01*
G01*
G37*
G36*
G01*
X154285000Y-142325003D02*
X154285000Y-141074997D01*
G75*
G02*
X154534997Y-140825000I249997J0D01*
G01*
X155160003Y-140825000D01*
G75*
G02*
X155410000Y-141074997I0J-249997D01*
G01*
X155410000Y-142325003D01*
G75*
G02*
X155160003Y-142575000I-249997J0D01*
G01*
X154534997Y-142575000D01*
G75*
G02*
X154285000Y-142325003I0J249997D01*
G01*
G37*
%TD*%
%TO.C,C26*%
G36*
G01*
X133530000Y-78589999D02*
X133530000Y-79890001D01*
G75*
G02*
X133280001Y-80140000I-249999J0D01*
G01*
X132629999Y-80140000D01*
G75*
G02*
X132380000Y-79890001I0J249999D01*
G01*
X132380000Y-78589999D01*
G75*
G02*
X132629999Y-78340000I249999J0D01*
G01*
X133280001Y-78340000D01*
G75*
G02*
X133530000Y-78589999I0J-249999D01*
G01*
G37*
G36*
G01*
X130580000Y-78589999D02*
X130580000Y-79890001D01*
G75*
G02*
X130330001Y-80140000I-249999J0D01*
G01*
X129679999Y-80140000D01*
G75*
G02*
X129430000Y-79890001I0J249999D01*
G01*
X129430000Y-78589999D01*
G75*
G02*
X129679999Y-78340000I249999J0D01*
G01*
X130330001Y-78340000D01*
G75*
G02*
X130580000Y-78589999I0J-249999D01*
G01*
G37*
%TD*%
D13*
%TO.C,U24*%
X122925000Y-122635000D03*
X122925000Y-123905000D03*
X122925000Y-125175000D03*
X122925000Y-126445000D03*
X122925000Y-127715000D03*
X122925000Y-128985000D03*
X122925000Y-130255000D03*
X122925000Y-131525000D03*
X122925000Y-132795000D03*
X122925000Y-134065000D03*
X132375000Y-134065000D03*
X132375000Y-132795000D03*
X132375000Y-131525000D03*
X132375000Y-130255000D03*
X132375000Y-128985000D03*
X132375000Y-127715000D03*
X132375000Y-126445000D03*
X132375000Y-125175000D03*
X132375000Y-123905000D03*
X132375000Y-122635000D03*
%TD*%
%TO.C,U25*%
X132445000Y-81805000D03*
X132445000Y-83075000D03*
X132445000Y-84345000D03*
X132445000Y-85615000D03*
X132445000Y-86885000D03*
X132445000Y-88155000D03*
X132445000Y-89425000D03*
X132445000Y-90695000D03*
X132445000Y-91965000D03*
X132445000Y-93235000D03*
X122995000Y-93235000D03*
X122995000Y-91965000D03*
X122995000Y-90695000D03*
X122995000Y-89425000D03*
X122995000Y-88155000D03*
X122995000Y-86885000D03*
X122995000Y-85615000D03*
X122995000Y-84345000D03*
X122995000Y-83075000D03*
X122995000Y-81805000D03*
%TD*%
%TO.C,U26*%
X132445000Y-63965000D03*
X132445000Y-65235000D03*
X132445000Y-66505000D03*
X132445000Y-67775000D03*
X132445000Y-69045000D03*
X132445000Y-70315000D03*
X132445000Y-71585000D03*
X132445000Y-72855000D03*
X132445000Y-74125000D03*
X132445000Y-75395000D03*
X122995000Y-75395000D03*
X122995000Y-74125000D03*
X122995000Y-72855000D03*
X122995000Y-71585000D03*
X122995000Y-70315000D03*
X122995000Y-69045000D03*
X122995000Y-67775000D03*
X122995000Y-66505000D03*
X122995000Y-65235000D03*
X122995000Y-63965000D03*
%TD*%
D14*
%TO.C,U29*%
X159625000Y-53995000D03*
X160895000Y-53995000D03*
X162165000Y-53995000D03*
X163435000Y-53995000D03*
X164705000Y-53995000D03*
X165975000Y-53995000D03*
X167245000Y-53995000D03*
X168515000Y-53995000D03*
X169785000Y-53995000D03*
X171055000Y-53995000D03*
X171055000Y-44545000D03*
X169785000Y-44545000D03*
X168515000Y-44545000D03*
X167245000Y-44545000D03*
X165975000Y-44545000D03*
X164705000Y-44545000D03*
X163435000Y-44545000D03*
X162165000Y-44545000D03*
X160895000Y-44545000D03*
X159625000Y-44545000D03*
%TD*%
D15*
%TO.C,U42*%
X94440000Y-128038000D03*
X95710000Y-128038000D03*
X96980000Y-128038000D03*
X98250000Y-128038000D03*
X99520000Y-128038000D03*
X100790000Y-128038000D03*
X102060000Y-128038000D03*
X102060000Y-133462000D03*
X100790000Y-133462000D03*
X99520000Y-133462000D03*
X98250000Y-133462000D03*
X96980000Y-133462000D03*
X95710000Y-133462000D03*
X94440000Y-133462000D03*
%TD*%
M02*
